<?xml version="1.0" encoding="utf-8"?>
<!-- Generator: Adobe Illustrator 26.1.0, SVG Export Plug-In . SVG Version: 6.00 Build 0)  -->
<svg version="1.1" id="Group_39978" xmlns="http://www.w3.org/2000/svg" xmlns:xlink="http://www.w3.org/1999/xlink" x="0px"
	 y="0px" viewBox="0 0 365.7 268.3" style="enable-background:new 0 0 365.7 268.3;" xml:space="preserve">
<style type="text/css">
	.st0{clip-path:url(#SVGID_00000096741755161645126460000010960741671512652469_);}
	.st1{clip-path:url(#SVGID_00000107561571897776118750000014611518978102842011_);}
	.st2{opacity:0.1;}
	.st3{clip-path:url(#SVGID_00000067230034227700811070000016123883115468006017_);}
	.st4{fill:#D3D8F9;}
	.st5{fill:#9DAAE2;}
	.st6{clip-path:url(#SVGID_00000141450846926177586590000010987403374974233217_);}
	.st7{fill:url(#Rectangle_22789_00000085235365419591333970000009328216152894688665_);}
	.st8{clip-path:url(#SVGID_00000086683678115773193540000013262189097675160725_);}
	.st9{clip-path:url(#SVGID_00000054976164492786020090000009451216251574797706_);}
	.st10{fill:#9FBFFF;}
	.st11{fill:#DFEDF7;}
	.st12{fill:#85A9FF;}
	.st13{clip-path:url(#SVGID_00000132802521626190992780000009384082144336169616_);}
	.st14{fill:#4881FF;}
	.st15{fill:#C3DFF4;}
	.st16{clip-path:url(#SVGID_00000013157940024004874790000011735908457565166734_);}
	.st17{clip-path:url(#SVGID_00000023252098820595720780000009416857566382247049_);}
	.st18{fill:#8EBED6;}
	.st19{fill:#C0DDFF;}
	.st20{fill:#DCC9A0;}
	.st21{fill:#584245;}
	.st22{fill:#62494D;}
	.st23{fill:#ADD3EA;}
	.st24{fill:#5C8FC6;}
	.st25{fill:#709DDA;}
	.st26{fill:#82B3B8;}
	.st27{fill:#92C8CE;}
	.st28{fill:#E3F1FE;}
	.st29{fill:#476F99;}
	.st30{clip-path:url(#SVGID_00000023249069995856912880000015159956841452857508_);}
	.st31{fill:#2D509E;}
	.st32{fill:#2E53A3;}
	.st33{fill:#3055A8;}
	.st34{fill:#3158AD;}
	.st35{fill:#325AB3;}
	.st36{fill:#345DB8;}
	.st37{fill:#355FBD;}
	.st38{fill:#3762C2;}
	.st39{fill:#3865C7;}
	.st40{fill:#3A67CC;}
	.st41{clip-path:url(#SVGID_00000133529274140886996770000011667122236169708216_);}
	.st42{fill:#2B4D99;}
	.st43{fill:#2A4B94;}
	.st44{fill:#28488F;}
	.st45{fill:#27468A;}
	.st46{fill:#254385;}
	.st47{clip-path:url(#SVGID_00000158721468029766717640000006356370753323293582_);}
	.st48{clip-path:url(#SVGID_00000155148479824814906310000013497267631129762186_);}
	.st49{fill:#752289;}
	.st50{fill:#722285;}
	.st51{fill:#6F2182;}
	.st52{fill:#6C207F;}
	.st53{fill:#691F7B;}
	.st54{fill:#661E78;}
	.st55{fill:#631D74;}
	.st56{fill:#601C71;}
	.st57{fill:#5D1C6D;}
	.st58{fill:#5B1B6A;}
	.st59{clip-path:url(#SVGID_00000109000656794744880500000013382008584165409670_);}
	.st60{fill:#4C1659;}
	.st61{fill:#4F175C;}
	.st62{fill:#521860;}
	.st63{fill:#551963;}
	.st64{fill:#581A67;}
	.st65{clip-path:url(#SVGID_00000093164049421108889670000007618391046517826188_);}
	.st66{clip-path:url(#SVGID_00000167370756856262876040000002636085406294426015_);}
	.st67{clip-path:url(#SVGID_00000103959430978628383750000004090337054921049527_);}
	.st68{fill:#BBD2FF;}
	.st69{fill:#FF66A8;}
	.st70{fill:#70A6C5;}
	.st71{fill:#FFB420;}
	.st72{fill:#D7E9FF;}
	.st73{fill:#91A2C5;}
	.st74{clip-path:url(#SVGID_00000022524730164779701100000006606565895172032405_);}
	.st75{fill:#6782C5;}
	.st76{fill:#5BB0FF;}
	.st77{fill:#3D93FF;}
	.st78{fill:#223A7A;}
	.st79{fill:#22ECFA;}
	.st80{clip-path:url(#SVGID_00000090275988533148396740000007662074404919849907_);}
	.st81{clip-path:url(#SVGID_00000077299829855744560050000015166219418763329413_);}
	.st82{fill:#FFFFFF;}
	.st83{fill:#C8DDED;}
	.st84{fill:#2C4481;}
	.st85{fill:#FFAA83;}
	.st86{fill:#1CB799;}
	.st87{fill:#27E0C0;}
	.st88{fill:#F79F7C;}
	.st89{fill:#3A2528;}
	.st90{fill:#AECFFF;}
	.st91{clip-path:url(#SVGID_00000066509286926432981770000002635938539674991763_);}
	.st92{fill:#343434;}
	.st93{fill:#1DAD93;}
	.st94{fill:#147866;}
	.st95{fill:#21C1A5;}
	.st96{fill:#DB9B1C;}
	.st97{fill:#865E11;}
	.st98{fill:#777F86;}
	.st99{fill:#9B6E13;}
	.st100{clip-path:url(#SVGID_00000049902576857312980550000009124703532415144852_);}
	.st101{fill:#855E11;}
	.st102{clip-path:url(#SVGID_00000054226656096902579580000004157414265390404520_);}
	.st103{clip-path:url(#SVGID_00000085249812527308162340000006309440049314959010_);}
	.st104{fill:#767D84;}
	.st105{clip-path:url(#SVGID_00000099648751000612761080000012729415668046002079_);}
	.st106{fill:#8F6512;}
	.st107{fill:#8A6111;}
	.st108{clip-path:url(#SVGID_00000032632262614488618330000008933347647776667537_);}
	.st109{clip-path:url(#SVGID_00000056423458020178304580000003488854391049577345_);}
	.st110{fill:#7B8289;}
	.st111{fill:#7F878E;}
	.st112{clip-path:url(#SVGID_00000165203086226441228500000008865730710956794794_);}
	.st113{fill:#72797F;}
	.st114{fill:#8B6211;}
	.st115{clip-path:url(#SVGID_00000092440452830936953750000016341119110730279857_);}
	.st116{clip-path:url(#SVGID_00000056422791618516405070000010034543437708204456_);}
	.st117{fill:#8B949C;}
	.st118{fill:#C3CFDB;}
	.st119{clip-path:url(#SVGID_00000154398619696724321440000004745077421755251647_);}
	.st120{clip-path:url(#SVGID_00000077306333773502199970000012908257028843082687_);}
	.st121{clip-path:url(#SVGID_00000124841665454194181530000002957006333419994251_);}
	.st122{fill:#7D848B;}
	.st123{fill:#886011;}
	.st124{fill:#805A10;}
	.st125{fill:#E58B0A;}
	.st126{clip-path:url(#SVGID_00000036221735085631691560000012451494989071631780_);}
	.st127{clip-path:url(#SVGID_00000162332050076477441980000014724863960502081940_);}
	.st128{fill:#A47415;}
	.st129{clip-path:url(#SVGID_00000097480671365350431900000004465384673551480985_);}
	.st130{clip-path:url(#SVGID_00000158715278227521217100000010162365261379597707_);}
	.st131{fill:#946813;}
	.st132{clip-path:url(#SVGID_00000139267345186926463460000008727565651695451305_);}
	.st133{fill:#798188;}
	.st134{fill:#AB7915;}
	.st135{fill:#98A1AA;}
	.st136{clip-path:url(#SVGID_00000038400845921610572590000010213596106223287209_);}
	.st137{clip-path:url(#SVGID_00000011006590728444621510000000740913604222212256_);}
	.st138{clip-path:url(#SVGID_00000060736815248191897960000012323978637599081649_);}
	.st139{fill:#848C93;}
	.st140{clip-path:url(#SVGID_00000003089700662484519130000017108067972352884403_);}
	.st141{fill:#929BA3;}
	.st142{clip-path:url(#SVGID_00000124154353020204876730000016809354703295342003_);}
	.st143{clip-path:url(#SVGID_00000065791400897418133400000009676983592725574077_);}
	.st144{clip-path:url(#SVGID_00000152979765349582074380000009106577649155274912_);}
	.st145{clip-path:url(#SVGID_00000075858264890263953680000001963143006888555710_);}
	.st146{clip-path:url(#SVGID_00000062911653254673157220000000829750120553171614_);}
	.st147{clip-path:url(#SVGID_00000094608267449449501090000013244016871315638693_);}
	.st148{fill:#E83D8F;}
</style>
<g>
	<defs>
		<rect id="SVGID_1_" x="2" width="365.7" height="305.3"/>
	</defs>
	<clipPath id="SVGID_00000119105556451592081880000001018123610852254109_">
		<use xlink:href="#SVGID_1_"  style="overflow:visible;"/>
	</clipPath>
	<g id="Group_39977" style="clip-path:url(#SVGID_00000119105556451592081880000001018123610852254109_);">
		<g id="Group_39882">
			<g>
				<defs>
					<rect id="SVGID_00000105420884850138899970000010276041439678955949_" x="3" width="365.7" height="305.3"/>
				</defs>
				<clipPath id="SVGID_00000134208989186425336100000010814923751781050500_">
					<use xlink:href="#SVGID_00000105420884850138899970000010276041439678955949_"  style="overflow:visible;"/>
				</clipPath>
				<g id="Group_39881" style="clip-path:url(#SVGID_00000134208989186425336100000010814923751781050500_);">
					<g id="Group_39880" transform="translate(6.76 97.362)" class="st2">
						<g id="Group_39879">
							<g>
								<defs>
									<rect id="SVGID_00000173126608399133249160000014383515896161602232_" x="3" y="0" width="358.9" height="207.9"/>
								</defs>
								<clipPath id="SVGID_00000016071923157103223420000004841654305354792370_">
									<use xlink:href="#SVGID_00000173126608399133249160000014383515896161602232_"  style="overflow:visible;"/>
								</clipPath>
								<g id="Group_39878" style="clip-path:url(#SVGID_00000016071923157103223420000004841654305354792370_);">
									<g id="Group_39877" transform="translate(-0.002)">
										<g>
											<defs>
												<polygon id="SVGID_00000007429573505682653490000014767448111958756496_" points="3,103.9 181.9,207.9 361.9,103.9 
													183,0 												"/>
											</defs>
											<clipPath id="SVGID_00000146470464408156501380000009272336062736810143_">
												<use xlink:href="#SVGID_00000007429573505682653490000014767448111958756496_"  style="overflow:visible;"/>
											</clipPath>
										</g>
									</g>
								</g>
							</g>
						</g>
					</g>
				</g>
			</g>
		</g>
		<path id="Path_78416" class="st4" d="M3,162.3l178.9,103.9l0-19.1L3,143.2L3,162.3z"/>
		<path id="Path_78417" class="st5" d="M181.8,247.1l0,19.1l180-103.9l0-19.1L181.8,247.1z"/>
		<g id="Group_39884" transform="translate(0 39.216)">
			<g>
				<defs>
					<polygon id="SVGID_00000083083860295928824390000016939869268666345648_" points="3,104 181.8,207.9 361.9,104 183,0 					"/>
				</defs>
				<clipPath id="SVGID_00000156584371953050329720000015124456522419885734_">
					<use xlink:href="#SVGID_00000083083860295928824390000016939869268666345648_"  style="overflow:visible;"/>
				</clipPath>
				<g id="Group_39883" style="clip-path:url(#SVGID_00000156584371953050329720000015124456522419885734_);">
					
						<linearGradient id="Rectangle_22789_00000155865342984343775650000014476557487369554323_" gradientUnits="userSpaceOnUse" x1="-213.3941" y1="513.1006" x2="-213.3842" y2="513.1006" gradientTransform="matrix(358.889 0 0 -207.884 76587.8203 106769.3594)">
						<stop  offset="0" style="stop-color:#F3F5F8"/>
						<stop  offset="1" style="stop-color:#CAD1ED"/>
					</linearGradient>
					
						<rect id="Rectangle_22789" x="3" y="0" style="fill:url(#Rectangle_22789_00000155865342984343775650000014476557487369554323_);" width="358.9" height="207.9"/>
				</g>
			</g>
		</g>
		<g id="Group_39892">
			<g>
				<defs>
					<rect id="SVGID_00000027584334696319650420000017280280158290604705_" x="3" width="365.7" height="305.3"/>
				</defs>
				<clipPath id="SVGID_00000127032975344011392240000009902349022841445783_">
					<use xlink:href="#SVGID_00000027584334696319650420000017280280158290604705_"  style="overflow:visible;"/>
				</clipPath>
				<g id="Group_39891" style="clip-path:url(#SVGID_00000127032975344011392240000009902349022841445783_);">
					<g id="Group_39887" transform="translate(64.332 80.831)" class="st2">
						<g id="Group_39886">
							<g>
								<defs>
									<rect id="SVGID_00000148658914297283183850000015735801414628092585_" x="3" y="0" width="229" height="133"/>
								</defs>
								<clipPath id="SVGID_00000006680365673305240770000000762551211413217208_">
									<use xlink:href="#SVGID_00000148658914297283183850000015735801414628092585_"  style="overflow:visible;"/>
								</clipPath>
								<g id="Group_39885" style="clip-path:url(#SVGID_00000006680365673305240770000000762551211413217208_);">
									<path id="Path_78419" d="M99.1,133L232,55.8L135.9,0L3,77.2L99.1,133z"/>
								</g>
							</g>
						</g>
					</g>
					<path id="Path_78420" class="st10" d="M197.9,45.6c-0.1-0.5-0.3-1-0.5-1.4l0,0c-0.2-0.3-0.4-0.6-0.6-0.9
						c-0.1-0.1-0.1-0.2-0.2-0.3c-0.3-0.3-0.6-0.5-0.9-0.7c22.2,12.9,44.4,25.8,66.6,38.7c0.3,0.2,0.6,0.4,0.9,0.7
						c0.1,0.1,0.2,0.2,0.2,0.3c0.1,0.1,0.2,0.2,0.3,0.4c0.1,0.2,0.2,0.4,0.3,0.6l0,0l0,0c0.1,0.1,0.1,0.3,0.2,0.4
						c0.1,0.1,0.1,0.3,0.1,0.4c0,0.1,0.1,0.3,0.1,0.4c0,0.1,0,0.1,0,0.2c0,0,0,0,0,0c0,0.1,0,0.1,0,0.2c0,0.1,0,0.3,0.1,0.4
						c0,0.1,0,0.3,0,0.4c0,0.1,0,0.3,0,0.4c0,0.1,0,0.3,0,0.4v0l0.1,52.8l-66.6-38.7l-0.2-52.7C198.1,46.8,198,46.2,197.9,45.6
						L197.9,45.6"/>
					<path id="Path_78421" class="st10" d="M154,150l-66.6-38.7l0.1,52.7l66.6,38.7L154,150z"/>
					<path id="Path_78422" class="st11" d="M162.6,132.9C162.5,133,162.5,133,162.6,132.9c-0.4,0.3-0.7,0.6-1,0.9
						c0,0-0.1,0.1-0.1,0.1c-0.3,0.3-0.6,0.6-0.9,0.9c0,0,0,0-0.1,0.1c-0.3,0.3-0.6,0.7-0.9,1l0,0c-0.3,0.4-0.6,0.7-0.9,1.1
						c0,0,0,0,0,0.1c-0.3,0.3-0.5,0.7-0.7,1c-0.2,0.2-0.3,0.5-0.4,0.7c-0.1,0.2-0.3,0.4-0.4,0.6c-0.1,0.1-0.1,0.2-0.1,0.3
						c-0.2,0.3-0.4,0.7-0.5,1c0,0-0.1,0.1-0.1,0.1c-0.2,0.4-0.4,0.8-0.6,1.2c0,0,0,0.1,0,0.1c-0.2,0.4-0.3,0.8-0.5,1.2
						c0,0,0,0.1,0,0.1c-0.1,0.4-0.3,0.8-0.4,1.3c0,0,0,0.1,0,0.1c-0.1,0.4-0.2,0.8-0.3,1.2c0,0,0,0.1,0,0.1
						c-0.1,0.4-0.2,0.8-0.2,1.3l0,0c-0.1,0.4-0.1,0.8-0.2,1.3c0,0,0,0.1,0,0.1c0,0.4,0,0.8,0,1.2l-66.6-38.7v-0.5c0-0.2,0-0.3,0-0.5
						c0-0.1,0-0.2,0-0.3c0,0,0-0.1,0-0.1c0-0.1,0-0.1,0-0.2c0-0.2,0-0.3,0.1-0.5c0-0.2,0.1-0.3,0.1-0.5l0,0c0-0.2,0.1-0.3,0.1-0.5
						c0-0.2,0.1-0.4,0.1-0.6c0-0.1,0-0.1,0.1-0.2l0-0.1c0-0.1,0-0.2,0.1-0.2c0.1-0.2,0.1-0.4,0.2-0.6c0-0.1,0.1-0.3,0.1-0.4l0-0.1
						c0,0,0,0,0-0.1c0.1-0.2,0.1-0.4,0.2-0.6c0.1-0.2,0.1-0.4,0.2-0.5c0,0,0-0.1,0.1-0.1l0-0.1c0-0.1,0.1-0.2,0.1-0.3
						c0.1-0.2,0.1-0.3,0.2-0.5c0.1-0.1,0.1-0.3,0.2-0.4l0,0l0-0.1c0.1-0.2,0.2-0.4,0.2-0.5c0.1-0.2,0.2-0.4,0.3-0.6
						c0,0,0-0.1,0.1-0.1c0,0,0-0.1,0-0.1c0.1-0.2,0.1-0.3,0.2-0.5c0.1-0.2,0.2-0.4,0.3-0.6c0-0.1,0.1-0.1,0.1-0.2
						c0,0,0.1-0.1,0.1-0.1c0.1-0.2,0.2-0.4,0.4-0.6c0.1-0.2,0.2-0.4,0.4-0.6c0,0,0-0.1,0.1-0.1c0.2-0.3,0.4-0.7,0.7-1
						c0.1-0.2,0.3-0.4,0.5-0.6c0.1-0.2,0.3-0.3,0.4-0.5c0.1-0.2,0.3-0.3,0.4-0.5c0.1-0.1,0.3-0.3,0.4-0.5c0,0,0-0.1,0.1-0.1
						c0,0,0,0,0,0c0.1-0.1,0.2-0.2,0.3-0.3c0.1-0.2,0.3-0.3,0.4-0.5c0.1,0,0.1-0.1,0.1-0.1c0,0,0.1-0.1,0.1-0.1
						c0.1-0.1,0.2-0.2,0.2-0.2c0.2-0.1,0.3-0.3,0.5-0.4c0.1-0.1,0.1-0.1,0.2-0.2c0,0,0.1-0.1,0.1-0.1c0.1,0,0.1-0.1,0.2-0.1
						c0.2-0.1,0.3-0.2,0.5-0.4c0.1-0.1,0.2-0.2,0.3-0.3c0,0,0,0,0.1,0l0.1,0c0.1-0.1,0.3-0.2,0.5-0.3c0.2-0.1,0.3-0.2,0.4-0.3
						c0,0,0.1,0,0.1-0.1L190,39.7c0.1-0.1,0.2-0.1,0.3-0.2c0.1-0.1,0.3-0.2,0.4-0.2c0.1,0,0.2-0.1,0.3-0.1l0.1,0l0.1,0
						c0.1-0.1,0.3-0.1,0.4-0.2s0.3-0.1,0.4-0.2c0,0,0.1,0,0.1,0l0.1,0c0.1,0,0.2-0.1,0.3-0.1c0.1,0,0.3-0.1,0.4-0.1
						c0.1,0,0.1,0,0.2-0.1c0,0,0.1,0,0.1,0c0,0,0.1,0,0.1,0c0.2,0,0.3-0.1,0.5-0.1c0.1,0,0.2,0,0.3,0l0.1,0c0,0,0.1,0,0.1,0
						c0.2,0,0.3,0,0.5,0c0.1,0,0.1,0,0.2,0s0.1,0,0.2,0c0.1,0,0.1,0,0.2,0c0.2,0,0.4,0.1,0.6,0.1l0,0c0.1,0,0.1,0,0.2,0
						c0.2,0,0.4,0.1,0.6,0.2l0,0c0.3,0.1,0.6,0.2,0.8,0.4c22.2,12.9,44.4,25.8,66.6,38.7c-0.3-0.1-0.5-0.3-0.8-0.4
						c-0.2-0.1-0.4-0.1-0.7-0.2c0,0-0.1,0-0.1,0c-0.3,0-0.5-0.1-0.8-0.1h-0.2c-0.3,0-0.6,0-0.8,0c0,0-0.1,0-0.1,0
						c-0.3,0-0.6,0.1-0.9,0.1c0,0-0.1,0-0.1,0c-0.3,0.1-0.6,0.2-0.9,0.3c0,0,0,0-0.1,0c-0.4,0.1-0.7,0.3-1,0.4c0,0,0,0,0,0
						c-0.4,0.2-0.7,0.3-1.1,0.6l-91.9,53.1c-0.3,0.2-0.7,0.4-1.1,0.7l-0.1,0.1C163.2,132.4,162.9,132.7,162.6,132.9"/>
					<path id="Path_78423" class="st12" d="M164.7,131.5c-5.9,3.4-10.7,11.7-10.7,18.5l0.1,52.8l2.7-1.6l-0.1-52.7
						c0-5.1,3.6-11.3,8-13.9l91.9-53c4.4-2.6,8.1-0.5,8.1,4.6l0.1,52.8l2.7-1.6l-0.1-52.7c0-6.8-4.9-9.6-10.8-6.1L164.7,131.5z"/>
					<g id="Group_39890" transform="translate(122.178 51.281)" class="st2">
						<g id="Group_39889">
							<g>
								<defs>
									<rect id="SVGID_00000000911718318240741940000012642317527286935706_" x="3" y="0" width="85.5" height="49.7"/>
								</defs>
								<clipPath id="SVGID_00000170270047191172957020000006188393048488259757_">
									<use xlink:href="#SVGID_00000000911718318240741940000012642317527286935706_"  style="overflow:visible;"/>
								</clipPath>
								<g id="Group_39888" style="clip-path:url(#SVGID_00000170270047191172957020000006188393048488259757_);">
									<path id="Path_78424" d="M38.9,49.7l49.6-28.8L52.6,0L3,28.8L38.9,49.7z"/>
								</g>
							</g>
						</g>
					</g>
					<path id="Path_78425" class="st14" d="M154.1,80.1l0,2.1l11.9,6.9l0-2.1L154.1,80.1z"/>
					<path id="Path_78426" class="st15" d="M166,87l0,2.1l25.8-14.9v-2.1L166,87z"/>
					<path id="Path_78427" class="st12" d="M154.1,80.1L166,87l25.8-14.9l-11.9-6.9L154.1,80.1z"/>
					<path id="Path_78428" class="st15" d="M198.9,15.7c-1-0.6-2-1.2-3-1.7c-0.6-0.3-1.2-0.2-1.7,0.2l3,1.7
						C197.6,15.5,198.3,15.4,198.9,15.7"/>
				</g>
			</g>
		</g>
		<g id="Group_39894" transform="translate(191.149 13.776)">
			<g>
				<defs>
					<path id="SVGID_00000018220031083912153620000002696581425419787420_" d="M3,0.3l3,1.7c0.5-0.4,1.2-0.4,1.7-0.2
						c-1-0.6-2-1.2-3-1.7C4.5,0.1,4.3,0,4.1,0C3.7,0,3.3,0.1,3,0.3"/>
				</defs>
				<clipPath id="SVGID_00000040559165621244060960000012415164117093722245_">
					<use xlink:href="#SVGID_00000018220031083912153620000002696581425419787420_"  style="overflow:visible;"/>
				</clipPath>
				<g id="Group_39893" style="clip-path:url(#SVGID_00000040559165621244060960000012415164117093722245_);">
					<path id="Path_78429" class="st12" d="M7.7,1.9l-3-1.7c-0.1,0-0.1-0.1-0.2-0.1l3,1.7C7.6,1.8,7.7,1.9,7.7,1.9"/>
					<path id="Path_78430" class="st12" d="M7.5,1.8l-3-1.7c-0.1,0-0.1,0-0.2,0l3,1.7C7.4,1.8,7.5,1.8,7.5,1.8"/>
					<path id="Path_78431" class="st12" d="M7.4,1.8L4.4,0L4.2,0l3,1.7C7.3,1.7,7.3,1.8,7.4,1.8"/>
					<path id="Path_78432" class="st12" d="M7.2,1.7L4.2,0c0,0-0.1,0-0.1,0l3,1.7H7.2z"/>
					<path id="Path_78433" class="st12" d="M7.1,1.7L4.1,0C4.1,0,4,0,4,0l3,1.7H7.1z"/>
					<path id="Path_78434" class="st12" d="M7,1.7L4,0c0,0-0.1,0-0.1,0l3,1.7C6.9,1.7,6.9,1.7,7,1.7"/>
					<path id="Path_78435" class="st12" d="M6.9,1.8L3.9,0c0,0-0.1,0-0.1,0L6.9,1.8C6.8,1.8,6.8,1.8,6.9,1.8"/>
					<path id="Path_78436" class="st12" d="M6.8,1.8L3.8,0c0,0-0.1,0-0.1,0l3,1.7C6.7,1.8,6.7,1.8,6.8,1.8"/>
					<path id="Path_78437" class="st12" d="M6.6,1.8l-3-1.7l-0.1,0L6.6,1.8C6.6,1.8,6.6,1.8,6.6,1.8"/>
					<path id="Path_78438" class="st12" d="M6.6,1.8l-3-1.7c0,0-0.1,0-0.1,0L6.6,1.8L6.6,1.8"/>
					<path id="Path_78439" class="st12" d="M6.5,1.8l-3-1.7l-0.1,0l3,1.7C6.4,1.9,6.4,1.9,6.5,1.8"/>
					<path id="Path_78440" class="st12" d="M6.4,1.9l-3-1.7c0,0-0.1,0-0.1,0L6.4,1.9C6.3,1.9,6.3,1.9,6.4,1.9"/>
					<path id="Path_78441" class="st12" d="M6.3,1.9l-3-1.7l-0.1,0L6.3,1.9C6.2,2,6.2,1.9,6.3,1.9"/>
					<path id="Path_78442" class="st12" d="M6.2,2l-3-1.7c0,0-0.1,0-0.1,0.1L6.2,2C6.1,2,6.1,2,6.2,2"/>
					<path id="Path_78443" class="st12" d="M6.1,2l-3-1.7c0,0-0.1,0-0.1,0L6.1,2C6,2.1,6,2,6.1,2"/>
				</g>
			</g>
		</g>
		<g id="Group_39896">
			<g>
				<defs>
					<rect id="SVGID_00000183933678198979787170000002563115087441386668_" x="3" width="365.7" height="305.3"/>
				</defs>
				<clipPath id="SVGID_00000031171864486725297410000017989969543346994837_">
					<use xlink:href="#SVGID_00000183933678198979787170000002563115087441386668_"  style="overflow:visible;"/>
				</clipPath>
				<g id="Group_39895" style="clip-path:url(#SVGID_00000031171864486725297410000017989969543346994837_);">
					<path id="Path_78445" class="st12" d="M144,82l0,4.2c0,0.2,0,0.3,0,0.5v0c0,0.1,0.1,0.3,0.1,0.4v0c0.1,0.1,0.1,0.2,0.2,0.3
						c0,0,0,0.1,0.1,0.1c0.1,0.1,0.2,0.2,0.3,0.2l-3-1.7c-0.1-0.1-0.2-0.1-0.3-0.2c0,0,0,0-0.1-0.1c0,0-0.1-0.1-0.1-0.1
						c0-0.1-0.1-0.1-0.1-0.2l0,0v0c0,0,0-0.1-0.1-0.1c0,0,0-0.1,0-0.1c0,0,0-0.1,0-0.1l0-0.1l0,0l0,0c0,0,0-0.1,0-0.1
						c0,0,0-0.1,0-0.1c0,0,0-0.1,0-0.1v-0.1l0-4.2L144,82z"/>
					<path id="Path_78446" class="st14" d="M166.3,82.2l-9.6-0.6l7.5-4.3L166.3,82.2z"/>
					<path id="Path_78447" class="st12" d="M167.8,64.9l-2.4-1.4l-1.5,17.3l2.4,1.4L167.8,64.9z"/>
					<path id="Path_78448" class="st12" d="M181.8,56.8l-2.4-1.4l-14,8.1l2.4,1.4L181.8,56.8z"/>
					<path id="Path_78449" class="st18" d="M167.8,64.9l-1.5,17.3l16.5-9.5l-1.1-15.9L167.8,64.9z"/>
					<path id="Path_78450" class="st19" d="M177,69.9l-10.7,12.4l16.5-9.5l-1.1-15.9L177,69.9z"/>
					<path id="Path_78451" class="st20" d="M199.7,49.8l-3-1.7L141,80.2l3,1.7L199.7,49.8z"/>
					<path id="Path_78452" class="st21" d="M197.4,18.5l-3-1.7l0.1,30.1l3,1.7L197.4,18.5z"/>
					<path id="Path_78453" class="st22" d="M197.5,48.6l-3-1.7l-50.9,29.4l3,1.7L197.5,48.6z"/>
					<path id="Path_78454" class="st23" d="M144,82l0,4.2c0,1.5,1.1,2.2,2.4,1.4l50.9-29.4c1.4-0.9,2.3-2.5,2.4-4.2l0-4.2L144,82z"
						/>
					<path id="Path_78455" class="st24" d="M146.5,47.9l0.1,30.1l50.9-29.4l-0.1-30.1L146.5,47.9z"/>
					<path id="Path_78456" class="st25" d="M146.5,77.3l50.4-29.1l-0.1-29.4l-50.4,29.1L146.5,77.3z"/>
					<path id="Path_78457" class="st26" d="M146.5,47.9l-3-1.7l0.1,30.1l3,1.7L146.5,47.9z"/>
					<path id="Path_78458" class="st27" d="M197.4,18.5l-3-1.7l-50.9,29.4l3,1.7L197.4,18.5z"/>
					<path id="Path_78459" class="st12" d="M143.9,49.4l-3-1.7l0.1,32.6l3,1.7L143.9,49.4z"/>
					<path id="Path_78460" class="st15" d="M197.1,15.8l-3-1.7l-50.9,29.4l3,1.7L197.1,15.8z"/>
					<path id="Path_78461" class="st28" d="M197.1,15.8c1.3-0.8,2.4-0.1,2.4,1.4l0.1,32.6L144,82l-0.1-32.6c0.1-1.7,1-3.3,2.4-4.2
						L197.1,15.8z M146.5,78l50.9-29.4l-0.1-30.1l-50.9,29.4L146.5,78z"/>
					<path id="Path_78462" class="st15" d="M140.9,47.7c0,0,0-0.1,0-0.1v-0.1c0,0,0-0.1,0-0.1c0,0,0-0.1,0-0.1c0,0,0-0.1,0-0.1v0
						l0-0.1c0,0,0-0.1,0-0.1c0,0,0-0.1,0-0.1c0,0,0-0.1,0-0.1l0-0.1l0,0l0,0c0,0,0-0.1,0-0.1l0-0.1l0.1-0.1c0,0,0-0.1,0-0.1
						c0,0,0-0.1,0-0.1h0l0,0c0,0,0-0.1,0.1-0.1c0,0,0-0.1,0.1-0.1c0,0,0.1-0.1,0.1-0.1c0-0.1,0.1-0.1,0.1-0.2l0,0h0
						c0.1-0.1,0.1-0.2,0.2-0.3c0.1-0.1,0.1-0.1,0.1-0.2l0,0c0,0,0.1-0.1,0.1-0.1c0,0,0.1-0.1,0.1-0.1c0,0,0.1-0.1,0.1-0.1
						c0,0,0-0.1,0.1-0.1l0,0l0,0c0,0,0-0.1,0.1-0.1c0,0,0.1-0.1,0.1-0.1c0,0,0.1-0.1,0.1-0.1c0,0,0.1-0.1,0.1-0.1c0,0,0,0,0.1,0h0
						c0,0,0,0,0,0c0,0,0.1-0.1,0.1-0.1c0,0,0.1,0,0.1-0.1c0,0,0.1,0,0.1-0.1c0,0,0.1,0,0.1-0.1l0,0l3,1.7c-0.2,0.1-0.3,0.2-0.5,0.3
						l0,0c-0.1,0.1-0.3,0.3-0.4,0.4l0,0c-0.1,0.2-0.3,0.3-0.4,0.5h0c-0.1,0.2-0.2,0.3-0.3,0.5l0,0c-0.2,0.4-0.4,0.8-0.5,1.2
						c-0.1,0.2-0.1,0.4-0.1,0.6v0c0,0.2,0,0.4,0,0.6L140.9,47.7z"/>
					<path id="Path_78463" class="st29" d="M175.8,65.8c0.7-0.4,1.2-0.1,1.2,0.7c0,0.9-0.5,1.7-1.2,2.1c-0.7,0.4-1.2,0.1-1.2-0.7
						C174.6,67.1,175.1,66.3,175.8,65.8"/>
					<path id="Path_78464" class="st12" d="M175.7,65.8c0.6-0.4,1.2-0.1,1.2,0.7c0,0.8-0.5,1.6-1.2,2c-0.7,0.4-1.2,0.1-1.2-0.7
						C174.6,67,175.1,66.3,175.7,65.8"/>
				</g>
			</g>
		</g>
		<g id="Group_39898" transform="translate(155.052 44.774)">
			<g>
				<defs>
					<path id="SVGID_00000079446982536991298210000003590893574999484348_" d="M3,0.1c0.4,0.3,1,0.6,1.5,0.8C4.7,1,4.9,1,5,0.8
						L3.6,0C3.4,0.1,3.2,0.1,3,0.1"/>
				</defs>
				<clipPath id="SVGID_00000128449992773085218130000017736166167601261192_">
					<use xlink:href="#SVGID_00000079446982536991298210000003590893574999484348_"  style="overflow:visible;"/>
				</clipPath>
				<g id="Group_39897" style="clip-path:url(#SVGID_00000128449992773085218130000017736166167601261192_);">
					<path id="Path_78465" class="st31" d="M4.5,0.9L3,0.1L4.5,0.9L4.5,0.9z"/>
					<path id="Path_78466" class="st32" d="M4.5,0.9L3,0.1l0,0L4.5,0.9L4.5,0.9"/>
					<path id="Path_78467" class="st33" d="M4.5,0.9L3.1,0.1l0,0L4.5,0.9C4.6,0.9,4.5,0.9,4.5,0.9"/>
					<path id="Path_78468" class="st34" d="M4.6,0.9L3.1,0.1h0L4.6,0.9L4.6,0.9"/>
					<path id="Path_78469" class="st35" d="M4.6,0.9L3.1,0.1h0L4.6,0.9C4.6,1,4.6,0.9,4.6,0.9"/>
					<path id="Path_78470" class="st36" d="M4.7,1L3.2,0.1c0,0,0,0,0.1,0L4.7,1L4.7,1z"/>
					<path id="Path_78471" class="st37" d="M4.7,1L3.2,0.1l0.1,0L4.7,1C4.7,0.9,4.7,1,4.7,1"/>
					<path id="Path_78472" class="st38" d="M4.8,0.9L3.3,0.1l0.1,0L4.8,0.9L4.8,0.9"/>
					<path id="Path_78473" class="st39" d="M4.8,0.9L3.4,0.1c0,0,0.1,0,0.1,0L4.8,0.9C4.9,0.9,4.9,0.9,4.8,0.9"/>
					<path id="Path_78474" class="st40" d="M4.9,0.9L3.5,0.1c0,0,0.1,0,0.1-0.1L5,0.8C5,0.9,5,0.9,4.9,0.9"/>
				</g>
			</g>
		</g>
		<g id="Group_39900" transform="translate(155.62 42.896)">
			<g>
				<defs>
					<path id="SVGID_00000130610324164970593910000015640368121832358797_" d="M3.8,0.5c0,0.6-0.3,1.1-0.8,1.4l1.5,0.8
						c0.5-0.3,0.8-0.8,0.8-1.4C5.3,1.2,5.2,1,5,0.8L3.5,0C3.7,0.1,3.8,0.3,3.8,0.5"/>
				</defs>
				<clipPath id="SVGID_00000000186401573639574810000015283134187116391576_">
					<use xlink:href="#SVGID_00000130610324164970593910000015640368121832358797_"  style="overflow:visible;"/>
				</clipPath>
				<g id="Group_39899" style="clip-path:url(#SVGID_00000000186401573639574810000015283134187116391576_);">
					<path id="Path_78476" class="st40" d="M4.5,2.7L3,1.9c0.1-0.1,0.2-0.1,0.3-0.2l1.5,0.8C4.7,2.6,4.6,2.7,4.5,2.7"/>
					<path id="Path_78477" class="st39" d="M4.7,2.5L3.3,1.7c0,0,0.1-0.1,0.1-0.1L4.7,2.5C4.8,2.5,4.8,2.5,4.7,2.5"/>
					<path id="Path_78478" class="st38" d="M4.8,2.4L3.4,1.6c0,0,0,0,0.1-0.1L4.8,2.4C4.9,2.4,4.8,2.4,4.8,2.4"/>
					<path id="Path_78479" class="st37" d="M4.9,2.3L3.4,1.5c0,0,0-0.1,0-0.1L4.9,2.3C4.9,2.3,4.9,2.3,4.9,2.3"/>
					<path id="Path_78480" class="st36" d="M4.9,2.3L3.5,1.4l0-0.1L4.9,2.3C5,2.2,5,2.3,4.9,2.3"/>
					<path id="Path_78481" class="st35" d="M5,2.2L3.5,1.4c0,0,0,0,0-0.1L5,2.2C5,2.2,5,2.2,5,2.2"/>
					<path id="Path_78482" class="st34" d="M5,2.1L3.6,1.3c0,0,0-0.1,0-0.1L5,2.1C5.1,2.1,5,2.1,5,2.1"/>
					<path id="Path_78483" class="st33" d="M5.1,2.1L3.6,1.2c0,0,0,0,0-0.1L5.1,2.1C5.1,2,5.1,2,5.1,2.1"/>
					<path id="Path_78484" class="st32" d="M5.1,2L3.6,1.2c0,0,0,0,0-0.1L5.1,2C5.1,2,5.1,2,5.1,2"/>
					<path id="Path_78485" class="st31" d="M5.1,1.9L3.6,1.1l0-0.1L5.1,1.9C5.1,1.9,5.1,1.9,5.1,1.9"/>
					<path id="Path_78486" class="st42" d="M5.2,1.9L3.7,1c0,0,0-0.1,0-0.1L5.2,1.9L5.2,1.9"/>
					<path id="Path_78487" class="st43" d="M5.2,1.8L3.7,0.9c0,0,0-0.1,0-0.1L5.2,1.8C5.2,1.7,5.2,1.8,5.2,1.8"/>
					<path id="Path_78488" class="st44" d="M5.2,1.7L3.7,0.9c0,0,0-0.1,0-0.1L5.2,1.7L5.2,1.7"/>
					<path id="Path_78489" class="st45" d="M5.2,1.6L3.8,0.8c0,0,0-0.1,0-0.1l1.5,0.8C5.2,1.5,5.2,1.6,5.2,1.6"/>
					<path id="Path_78490" class="st46" d="M5.2,1.5L3.8,0.7c0-0.1,0-0.1,0-0.2c0-0.2-0.1-0.4-0.2-0.5L5,0.8
						c0.2,0.1,0.3,0.3,0.2,0.5C5.3,1.4,5.2,1.5,5.2,1.5"/>
				</g>
			</g>
		</g>
		<g id="Group_39902" transform="translate(153.607 44.086)">
			<g>
				<defs>
					<path id="SVGID_00000094587008215991694420000010139672329680772763_" d="M3.8,0.5c0,0.6-0.3,1.1-0.8,1.4l1.5,0.8
						c0.5-0.3,0.8-0.8,0.8-1.4C5.3,1.1,5.2,1,5,0.8L3.5,0C3.7,0.1,3.8,0.3,3.8,0.5"/>
				</defs>
				<clipPath id="SVGID_00000000901998256072461650000002042672503744359822_">
					<use xlink:href="#SVGID_00000094587008215991694420000010139672329680772763_"  style="overflow:visible;"/>
				</clipPath>
				<g id="Group_39901" style="clip-path:url(#SVGID_00000000901998256072461650000002042672503744359822_);">
					<path id="Path_78492" class="st40" d="M4.5,2.7L3,1.9c0.1-0.1,0.2-0.1,0.3-0.2l1.5,0.8C4.6,2.6,4.6,2.7,4.5,2.7"/>
					<path id="Path_78493" class="st39" d="M4.7,2.5L3.3,1.7c0,0,0.1-0.1,0.1-0.1l1.5,0.8C4.8,2.5,4.8,2.5,4.7,2.5"/>
					<path id="Path_78494" class="st38" d="M4.8,2.4L3.3,1.6c0,0,0-0.1,0.1-0.1L4.8,2.4C4.9,2.4,4.8,2.4,4.8,2.4"/>
					<path id="Path_78495" class="st37" d="M4.9,2.4L3.4,1.5c0,0,0,0,0-0.1L4.9,2.4L4.9,2.4"/>
					<path id="Path_78496" class="st36" d="M4.9,2.3L3.5,1.4c0,0,0-0.1,0-0.1L4.9,2.3L4.9,2.3"/>
					<path id="Path_78497" class="st35" d="M5,2.2L3.5,1.4c0,0,0,0,0-0.1L5,2.2L5,2.2"/>
					<path id="Path_78498" class="st34" d="M5,2.1L3.5,1.3c0,0,0-0.1,0-0.1L5,2.1C5,2.1,5,2.1,5,2.1"/>
					<path id="Path_78499" class="st33" d="M5.1,2.1L3.6,1.2c0,0,0-0.1,0-0.1L5.1,2.1L5.1,2.1"/>
					<path id="Path_78500" class="st32" d="M5.1,2L3.6,1.2l0-0.1L5.1,2C5.1,2,5.1,2,5.1,2"/>
					<path id="Path_78501" class="st31" d="M5.1,1.9L3.6,1.1c0,0,0,0,0-0.1L5.1,1.9C5.1,1.9,5.1,1.9,5.1,1.9"/>
					<path id="Path_78502" class="st42" d="M5.2,1.9L3.7,1l0-0.1L5.2,1.9C5.2,1.8,5.2,1.8,5.2,1.9"/>
					<path id="Path_78503" class="st43" d="M5.2,1.8L3.7,0.9l0-0.1L5.2,1.8C5.2,1.7,5.2,1.8,5.2,1.8"/>
					<path id="Path_78504" class="st44" d="M5.2,1.7L3.7,0.9c0,0,0-0.1,0-0.1L5.2,1.7C5.2,1.6,5.2,1.7,5.2,1.7"/>
					<path id="Path_78505" class="st45" d="M5.2,1.6L3.7,0.8c0,0,0-0.1,0-0.1l1.5,0.8L5.2,1.6"/>
					<path id="Path_78506" class="st46" d="M5.2,1.5L3.8,0.7c0-0.1,0-0.1,0-0.2c0-0.2-0.1-0.4-0.2-0.5L5,0.8C5.2,1,5.3,1.1,5.2,1.3
						L5.2,1.5z"/>
				</g>
			</g>
		</g>
		<g id="Group_39904" transform="translate(153.575 44.031)">
			<g>
				<defs>
					<path id="SVGID_00000011033468227886475770000004803180415083607480_" d="M3,0.1L4.5,1C4.6,0.8,4.9,0.8,5,0.9L3.6,0.1
						C3.5,0,3.4,0,3.4,0C3.2,0,3.1,0,3,0.1"/>
				</defs>
				<clipPath id="SVGID_00000137110979382157379970000000717935114476303235_">
					<use xlink:href="#SVGID_00000011033468227886475770000004803180415083607480_"  style="overflow:visible;"/>
				</clipPath>
				<g id="Group_39903" style="clip-path:url(#SVGID_00000137110979382157379970000000717935114476303235_);">
					<path id="Path_78508" class="st49" d="M4.5,1L3,0.1l0.1-0.1l1.5,0.8C4.6,0.9,4.5,0.9,4.5,1"/>
					<path id="Path_78509" class="st50" d="M4.6,0.9L3.1,0.1l0.1,0l1.5,0.8C4.7,0.9,4.6,0.9,4.6,0.9"/>
					<path id="Path_78510" class="st51" d="M4.7,0.9L3.2,0l0.1,0L4.7,0.9C4.7,0.8,4.7,0.9,4.7,0.9"/>
					<path id="Path_78511" class="st52" d="M4.7,0.8L3.3,0c0,0,0,0,0.1,0L4.7,0.8C4.8,0.8,4.8,0.8,4.7,0.8"/>
					<path id="Path_78512" class="st53" d="M4.8,0.8L3.3,0h0L4.8,0.8L4.8,0.8z"/>
					<path id="Path_78513" class="st54" d="M4.9,0.8L3.4,0c0,0,0,0,0.1,0L4.9,0.8L4.9,0.8z"/>
					<path id="Path_78514" class="st55" d="M4.9,0.8L3.4,0l0,0L4.9,0.8C4.9,0.9,4.9,0.8,4.9,0.8"/>
					<path id="Path_78515" class="st56" d="M5,0.9L3.5,0c0,0,0,0,0.1,0L5,0.9C5,0.9,5,0.9,5,0.9"/>
					<path id="Path_78516" class="st57" d="M5,0.9L3.5,0l0,0L5,0.9L5,0.9"/>
					<path id="Path_78517" class="st58" d="M5,0.9L3.6,0l0,0L5,0.9z"/>
				</g>
			</g>
		</g>
		<g id="Group_39906" transform="translate(152.796 44.144)">
			<g>
				<defs>
					<path id="SVGID_00000111891453086511408620000008451009830728754592_" d="M3,1.4c0,0.2,0.1,0.4,0.2,0.5l1.5,0.8
						C4.5,2.6,4.5,2.4,4.5,2.2c0-0.6,0.3-1.1,0.8-1.4L3.8,0C3.3,0.3,3,0.8,3,1.4"/>
				</defs>
				<clipPath id="SVGID_00000146500181793932943870000014572787386017261191_">
					<use xlink:href="#SVGID_00000111891453086511408620000008451009830728754592_"  style="overflow:visible;"/>
				</clipPath>
				<g id="Group_39905" style="clip-path:url(#SVGID_00000146500181793932943870000014572787386017261191_);">
					<path id="Path_78519" class="st60" d="M4.7,2.7L3.2,1.9C3.1,1.8,3,1.6,3,1.4c0-0.1,0-0.1,0-0.2l1.5,0.8v0.2
						C4.5,2.4,4.5,2.6,4.7,2.7"/>
					<path id="Path_78520" class="st61" d="M4.5,2.1L3,1.2c0,0,0-0.1,0-0.1L4.5,2L4.5,2.1"/>
					<path id="Path_78521" class="st62" d="M4.5,2L3,1.1c0,0,0-0.1,0-0.1L4.5,2L4.5,2"/>
					<path id="Path_78522" class="st63" d="M4.5,1.9L3.1,1c0,0,0,0,0-0.1L4.5,1.9C4.5,1.8,4.5,1.8,4.5,1.9"/>
					<path id="Path_78523" class="st64" d="M4.5,1.8L3.1,0.9c0,0,0-0.1,0-0.1L4.5,1.8L4.5,1.8"/>
					<path id="Path_78524" class="st58" d="M4.6,1.7L3.1,0.9c0,0,0,0,0-0.1L4.6,1.7C4.6,1.7,4.6,1.7,4.6,1.7"/>
					<path id="Path_78525" class="st57" d="M4.6,1.6L3.1,0.8l0-0.1L4.6,1.6L4.6,1.6"/>
					<path id="Path_78526" class="st56" d="M4.6,1.6L3.2,0.7c0,0,0,0,0-0.1L4.6,1.6C4.7,1.5,4.6,1.5,4.6,1.6"/>
					<path id="Path_78527" class="st55" d="M4.7,1.5L3.2,0.7l0-0.1L4.7,1.5L4.7,1.5"/>
					<path id="Path_78528" class="st54" d="M4.7,1.4L3.2,0.6c0,0,0,0,0-0.1L4.7,1.4C4.7,1.4,4.7,1.4,4.7,1.4"/>
					<path id="Path_78529" class="st53" d="M4.7,1.4L3.3,0.5l0-0.1L4.7,1.4C4.8,1.3,4.8,1.3,4.7,1.4"/>
					<path id="Path_78530" class="st52" d="M4.8,1.3L3.3,0.5c0,0,0-0.1,0.1-0.1L4.8,1.3L4.8,1.3"/>
					<path id="Path_78531" class="st51" d="M4.8,1.2L3.4,0.4c0,0,0-0.1,0.1-0.1L4.8,1.2C4.9,1.2,4.9,1.2,4.8,1.2"/>
					<path id="Path_78532" class="st50" d="M4.9,1.1L3.4,0.3c0,0,0.1-0.1,0.1-0.1L4.9,1.1C5,1.1,4.9,1.1,4.9,1.1"/>
					<path id="Path_78533" class="st49" d="M5,1L3.5,0.2C3.6,0.1,3.7,0.1,3.8,0l1.5,0.8C5.2,0.9,5.1,1,5,1"/>
				</g>
			</g>
		</g>
		<g id="Group_39908" transform="translate(151.001 47.169)">
			<g>
				<defs>
					<path id="SVGID_00000026123952354105585810000012277014154363035049_" d="M3,0.1c0.4,0.3,1,0.6,1.5,0.8C4.7,1,4.9,1,5.1,0.8
						L3.6,0C3.4,0.1,3.2,0.1,3,0.1"/>
				</defs>
				<clipPath id="SVGID_00000073711394038080633930000005115288026300466106_">
					<use xlink:href="#SVGID_00000026123952354105585810000012277014154363035049_"  style="overflow:visible;"/>
				</clipPath>
				<g id="Group_39907" style="clip-path:url(#SVGID_00000073711394038080633930000005115288026300466106_);">
					<path id="Path_78535" class="st31" d="M4.5,0.9L3,0.1h0L4.5,0.9L4.5,0.9"/>
					<path id="Path_78536" class="st32" d="M4.5,0.9L3,0.1l0,0L4.5,0.9L4.5,0.9"/>
					<path id="Path_78537" class="st33" d="M4.5,0.9L3,0.1l0,0L4.5,0.9L4.5,0.9"/>
					<path id="Path_78538" class="st34" d="M4.6,0.9L3.1,0.1c0,0,0,0,0.1,0L4.6,0.9L4.6,0.9"/>
					<path id="Path_78539" class="st35" d="M4.6,0.9L3.1,0.1h0L4.6,0.9C4.7,1,4.6,1,4.6,0.9"/>
					<path id="Path_78540" class="st36" d="M4.7,1L3.2,0.1h0.1L4.7,1L4.7,1z"/>
					<path id="Path_78541" class="st37" d="M4.7,1L3.2,0.1l0.1,0L4.7,1C4.8,1,4.7,1,4.7,1"/>
					<path id="Path_78542" class="st38" d="M4.8,0.9L3.3,0.1c0,0,0,0,0.1,0L4.8,0.9L4.8,0.9"/>
					<path id="Path_78543" class="st39" d="M4.8,0.9L3.4,0.1l0.1,0L4.8,0.9L4.8,0.9"/>
					<path id="Path_78544" class="st40" d="M4.9,0.9L3.5,0.1c0,0,0.1,0,0.1-0.1l1.5,0.8C5,0.9,5,0.9,4.9,0.9"/>
				</g>
			</g>
		</g>
		<g id="Group_39910" transform="translate(151.573 45.276)">
			<g>
				<defs>
					<path id="SVGID_00000035532669980258609290000008665850834444628360_" d="M3.8,0.5c0,0.6-0.3,1.1-0.8,1.4l1.5,0.8
						c0.5-0.3,0.8-0.8,0.8-1.4C5.3,1.1,5.2,1,5,0.8L3.5,0C3.7,0.1,3.8,0.3,3.8,0.5"/>
				</defs>
				<clipPath id="SVGID_00000069394193645661296790000009925569901288544905_">
					<use xlink:href="#SVGID_00000035532669980258609290000008665850834444628360_"  style="overflow:visible;"/>
				</clipPath>
				<g id="Group_39909" style="clip-path:url(#SVGID_00000069394193645661296790000009925569901288544905_);">
					<path id="Path_78546" class="st40" d="M4.5,2.7L3,1.9c0.1-0.1,0.2-0.1,0.3-0.2l1.5,0.8C4.7,2.6,4.6,2.7,4.5,2.7"/>
					<path id="Path_78547" class="st39" d="M4.7,2.5L3.3,1.7l0.1-0.1L4.7,2.5C4.8,2.5,4.8,2.5,4.7,2.5"/>
					<path id="Path_78548" class="st38" d="M4.8,2.4L3.3,1.6c0,0,0-0.1,0.1-0.1L4.8,2.4C4.9,2.4,4.9,2.4,4.8,2.4"/>
					<path id="Path_78549" class="st37" d="M4.9,2.3L3.4,1.5c0,0,0-0.1,0.1-0.1L4.9,2.3C4.9,2.3,4.9,2.3,4.9,2.3"/>
					<path id="Path_78550" class="st36" d="M4.9,2.3L3.5,1.4c0,0,0,0,0-0.1L4.9,2.3C5,2.2,5,2.3,4.9,2.3"/>
					<path id="Path_78551" class="st35" d="M5,2.2L3.5,1.4c0,0,0,0,0-0.1L5,2.2C5,2.2,5,2.2,5,2.2"/>
					<path id="Path_78552" class="st34" d="M5,2.1L3.6,1.3c0,0,0,0,0-0.1L5,2.1C5.1,2.1,5,2.1,5,2.1"/>
					<path id="Path_78553" class="st33" d="M5.1,2.1L3.6,1.2l0-0.1L5.1,2.1C5.1,2,5.1,2,5.1,2.1"/>
					<path id="Path_78554" class="st32" d="M5.1,2L3.6,1.2l0-0.1L5.1,2L5.1,2"/>
					<path id="Path_78555" class="st31" d="M5.1,1.9L3.7,1.1c0,0,0-0.1,0-0.1L5.1,1.9C5.2,1.9,5.1,1.9,5.1,1.9"/>
					<path id="Path_78556" class="st42" d="M5.2,1.9L3.7,1c0,0,0-0.1,0-0.1L5.2,1.9C5.2,1.8,5.2,1.8,5.2,1.9"/>
					<path id="Path_78557" class="st43" d="M5.2,1.8L3.7,1c0,0,0-0.1,0-0.1L5.2,1.8C5.2,1.7,5.2,1.8,5.2,1.8"/>
					<path id="Path_78558" class="st44" d="M5.2,1.7L3.7,0.9c0,0,0-0.1,0-0.1L5.2,1.7C5.2,1.6,5.2,1.7,5.2,1.7"/>
					<path id="Path_78559" class="st45" d="M5.2,1.6L3.8,0.8c0,0,0-0.1,0-0.1l1.5,0.8C5.2,1.5,5.2,1.6,5.2,1.6"/>
					<path id="Path_78560" class="st46" d="M5.2,1.5L3.8,0.7c0-0.1,0-0.1,0-0.2c0-0.2-0.1-0.4-0.2-0.5L5,0.8C5.2,1,5.3,1.2,5.3,1.4
						C5.3,1.4,5.3,1.5,5.2,1.5"/>
				</g>
			</g>
		</g>
		<g id="Group_39915">
			<g>
				<defs>
					<rect id="SVGID_00000007401691173715657730000008007728318653567915_" x="3" width="365.7" height="305.3"/>
				</defs>
				<clipPath id="SVGID_00000182487658158913639390000012683818187873803452_">
					<use xlink:href="#SVGID_00000007401691173715657730000008007728318653567915_"  style="overflow:visible;"/>
				</clipPath>
				<g id="Group_39914" style="clip-path:url(#SVGID_00000182487658158913639390000012683818187873803452_);">
					<path id="Path_78562" class="st68" d="M188.7,25.3c0.8-0.5,1.5-0.1,1.5,0.8l0,3.3l-36.9,21.7l0-3.3c0-1,0.6-2,1.5-2.6
						L188.7,25.3z M160.1,45.6c0.5-0.3,0.8-0.8,0.8-1.4c0-0.5-0.4-0.7-0.8-0.5c-0.5,0.3-0.8,0.8-0.8,1.4
						C159.3,45.7,159.7,45.9,160.1,45.6 M158.1,46.8c0.5-0.3,0.8-0.8,0.8-1.4c0-0.5-0.4-0.7-0.8-0.4c-0.5,0.3-0.8,0.8-0.8,1.4
						C157.3,46.9,157.6,47.1,158.1,46.8 M156.1,48c0.5-0.3,0.8-0.8,0.8-1.4c0-0.5-0.4-0.7-0.8-0.4c-0.5,0.3-0.8,0.8-0.8,1.4
						C155.3,48.1,155.6,48.3,156.1,48"/>
					<path id="Path_78563" class="st69" d="M160.1,43.8c0.4-0.3,0.8-0.1,0.8,0.5c0,0.6-0.3,1.1-0.8,1.4c-0.4,0.3-0.8,0.1-0.8-0.4
						C159.3,44.6,159.6,44.1,160.1,43.8"/>
					<path id="Path_78564" class="st70" d="M158.1,45c0.4-0.3,0.8-0.1,0.8,0.4c0,0.6-0.3,1.1-0.8,1.4c-0.4,0.3-0.8,0.1-0.8-0.4
						C157.3,45.8,157.6,45.3,158.1,45"/>
					<path id="Path_78565" class="st71" d="M156,46.2c0.4-0.3,0.8-0.1,0.8,0.4c0,0.6-0.3,1.1-0.8,1.4c-0.4,0.3-0.8,0.1-0.8-0.4
						C155.3,47,155.6,46.5,156,46.2"/>
					<path id="Path_78566" class="st72" d="M153.4,47.9l0,3.3l36.9-21.7l0.3,24.8c0,1-0.6,2-1.4,2.6l-33.9,20
						c-0.8,0.5-1.5,0.1-1.5-0.8L153.4,47.9z"/>
					<path id="Path_78567" class="st73" d="M178.4,54.9l0,1.2l-21.8,12.6v-1.2L178.4,54.9z"/>
					<path id="Path_78568" class="st73" d="M178.4,52.2l0,1.2L156.6,66v-1.2L178.4,52.2z"/>
					<path id="Path_78569" class="st73" d="M178.4,49.4v1.2l-21.8,12.6l0-1.2L178.4,49.4z"/>
					<path id="Path_78570" class="st73" d="M178.3,42.9v1.2l-21.8,12.6v-1.2L178.3,42.9z"/>
					<path id="Path_78571" class="st73" d="M178.4,45.7v1.2l-21.8,12.6v-1.2L178.4,45.7z"/>
					<path id="Path_78572" class="st73" d="M187.4,45.1l0,5.6l-7.6,4.3l0-5.6L187.4,45.1z"/>
					<path id="Path_78573" class="st73" d="M187.4,37.6l0,5.6l-7.5,4.4l0-5.6L187.4,37.6z"/>
					<g id="Group_39913" transform="translate(217.212 169.688)" class="st2">
						<g id="Group_39912">
							<g>
								<defs>
									<rect id="SVGID_00000062873759233915246610000016312536879748508043_" x="3" y="0" width="68.2" height="39.5"/>
								</defs>
								<clipPath id="SVGID_00000132054299535295333330000005320075767308902331_">
									<use xlink:href="#SVGID_00000062873759233915246610000016312536879748508043_"  style="overflow:visible;"/>
								</clipPath>
								<g id="Group_39911" style="clip-path:url(#SVGID_00000132054299535295333330000005320075767308902331_);">
									<path id="Path_78574" d="M13.1,5.8C-0.3,13.5-0.4,26,12.9,33.7s34.8,7.7,48.2,0s13.4-20.2,0.2-27.9
										C48-1.9,26.4-1.9,13.1,5.8"/>
								</g>
							</g>
						</g>
					</g>
					<path id="Path_78575" class="st75" d="M154,98.9l0,1.8l15.4,8.9v-1.8L154,98.9z"/>
					<path id="Path_78576" class="st12" d="M169.4,107.8v1.8l42.5-24.5v-1.8L169.4,107.8z"/>
					<path id="Path_78577" class="st72" d="M154,98.9l15.4,8.9l42.5-24.5l-15.4-8.9L154,98.9z"/>
					<path id="Path_78578" class="st12" d="M199.1,83.4l2.2,1.3l3-1.7l-2.2-1.3L199.1,83.4z"/>
					<path id="Path_78579" class="st12" d="M193.4,80.1l2.2,1.3l3-1.7l-2.2-1.3L193.4,80.1z"/>
					<path id="Path_78580" class="st12" d="M196.2,81.7l2.2,1.3l3-1.7l-2.2-1.3L196.2,81.7z"/>
					<path id="Path_78581" class="st12" d="M189.3,80.1l1.2,0.7l5-2.9l-1.2-0.7L189.3,80.1z"/>
					<path id="Path_78582" class="st12" d="M183.6,83.4l1.2,0.7l5-2.9l-1.2-0.7L183.6,83.4z"/>
					<path id="Path_78583" class="st12" d="M166.3,93.4l1.2,0.7l5-2.9l-1.2-0.7L166.3,93.4z"/>
					<path id="Path_78584" class="st12" d="M189.5,82.3l2.2,1.3l3-1.7l-2.2-1.3L189.5,82.3z"/>
					<path id="Path_78585" class="st12" d="M192.4,84l2.2,1.3l3-1.7l-2.2-1.3L192.4,84z"/>
					<path id="Path_78586" class="st12" d="M185.7,84.5l2.2,1.3l3-1.7l-2.2-1.3L185.7,84.5z"/>
					<path id="Path_78587" class="st12" d="M195.2,85.6l2.2,1.3l3-1.7l-2.2-1.3L195.2,85.6z"/>
					<path id="Path_78588" class="st12" d="M177.8,86.7l1.2,0.7l5-2.9l-1.2-0.7L177.8,86.7z"/>
					<path id="Path_78589" class="st12" d="M188.5,86.2l2.2,1.3l3-1.7l-2.2-1.3L188.5,86.2z"/>
					<path id="Path_78590" class="st12" d="M181.8,86.7L184,88l3-1.7l-2.2-1.3L181.8,86.7z"/>
					<path id="Path_78591" class="st12" d="M197.9,87.2l2.1,1.2l3-1.7l-2.1-1.2L197.9,87.2z"/>
					<path id="Path_78592" class="st12" d="M191.4,87.8l2.2,1.3l3-1.7l-2.2-1.3L191.4,87.8z"/>
					<path id="Path_78593" class="st12" d="M184.7,88.4l2.2,1.3l3-1.7l-2.2-1.3L184.7,88.4z"/>
					<path id="Path_78594" class="st12" d="M178,89l2.2,1.3l3-1.7l-2.2-1.3L178,89z"/>
					<path id="Path_78595" class="st12" d="M172,90.1l1.2,0.7l5-2.9l-1.2-0.7L172,90.1z"/>
					<path id="Path_78596" class="st12" d="M187.5,90.1l2.2,1.3l3-1.7l-2.2-1.3L187.5,90.1z"/>
					<path id="Path_78597" class="st12" d="M180.8,90.6l2.2,1.3l3-1.7l-2.2-1.3L180.8,90.6z"/>
					<path id="Path_78598" class="st12" d="M174.1,91.2l2.2,1.3l3-1.7l-2.2-1.3L174.1,91.2z"/>
					<path id="Path_78599" class="st12" d="M183.7,92.3l2.2,1.3l3-1.7l-2.2-1.3L183.7,92.3z"/>
					<path id="Path_78600" class="st12" d="M177,92.9l2.2,1.3l3-1.7l-2.2-1.3L177,92.9z"/>
					<path id="Path_78601" class="st12" d="M179.9,94.5l2.2,1.3l3-1.7l-2.2-1.3L179.9,94.5z"/>
					<path id="Path_78602" class="st12" d="M173.1,95.1l2.2,1.3l3-1.7l-2.2-1.3L173.1,95.1z"/>
					<path id="Path_78603" class="st12" d="M176,96.7l2.2,1.3l3-1.7L179,95L176,96.7z"/>
					<path id="Path_78604" class="st12" d="M169.3,97.3l2.2,1.3l3-1.7l-2.2-1.3L169.3,97.3z"/>
					<path id="Path_78605" class="st12" d="M162.3,98l2.2,1.3l6.1-3.5l-2.2-1.3L162.3,98z"/>
					<path id="Path_78606" class="st12" d="M178.3,98.5l2.1,1.2l18.7-10.8l-2.1-1.2L178.3,98.5z"/>
					<path id="Path_78607" class="st12" d="M172.1,99l2.2,1.3l2.8-1.6l0.2-0.1l-2.2-1.3L172.1,99z"/>
					<path id="Path_78608" class="st12" d="M174.5,100.6l2.1,1.2l3-1.7l-2.1-1.2L174.5,100.6z"/>
					<path id="Path_78609" class="st12" d="M170.7,102.8l2.1,1.2l3-1.7l-2.1-1.2L170.7,102.8z"/>
					<path id="Path_78610" class="st12" d="M201.7,84.9l2.1,1.2l3-1.7l-2.1-1.2L201.7,84.9z"/>
					<path id="Path_78611" class="st12" d="M165.2,99.7l2.2,1.3l3.2-1.9l-2.2-1.3L165.2,99.7z"/>
					<path id="Path_78612" class="st12" d="M168.1,101.3l2.2,1.3l6.8-4l-2.8,1.6l-2.2-1.3L168.1,101.3z"/>
					<path id="Path_78613" class="st12" d="M170.3,93.4l2.2,1.3l3-1.7l-2.2-1.3L170.3,93.4z"/>
					<path id="Path_78614" class="st12" d="M160.5,96.7l1.2,0.7l5-2.9l-1.2-0.7L160.5,96.7z"/>
					<path id="Path_78615" class="st76" d="M202.8,160c-0.3,0.1-14.4,0-11.3,4.6c1.5,2.3,4.1,3.6,6.9,3.5c2.1,0,6-1.2,6.9-0.7
						c0.9,0.5,5.7,3.4,8.5,0.3c0.7-1,0.9-2.3,0.6-3.4C214.1,163.2,204.4,159.7,202.8,160"/>
					<path id="Path_78616" class="st77" d="M191.5,164.6c1.5,2.3,4.1,3.6,6.9,3.5c2.1,0,6-1.2,6.9-0.7c0.9,0.5,5.7,3.4,8.5,0.3
						c0.4-0.5,0.6-1.1,0.7-1.7c-2,2.6-6.7,2-7.9,1.2c-1.6-1-3.6-1.3-5.4-0.9c-1.9,0.4-5.9,0.1-7.8-1.6c-0.9-0.7-1.3-1.9-0.9-3
						C191.1,162.3,190.6,163.3,191.5,164.6"/>
					<path id="Path_78617" class="st78" d="M205.9,141.3c0,0-1.2,13.8-1.6,21.2c-0.2,2.5,4.7,4.5,10,2.1l2.6-22.4L205.9,141.3z"/>
					<path id="Path_78618" class="st79" d="M265,123.8c0,0-6.2,19.5-18.8,18.7l-14.1-25.1L265,123.8z"/>
					<path id="Path_78619" class="st78" d="M255.5,130.7c0,0,1,10.5-7.4,11.8s-16.6-8.1-24.6-8.4c-0.7,0-4.6-4.3-6.7,8.4l-0.2,1.1
						l-10.8-1.1c0,0,0.6-17.7,3.3-22.9c3.9-7.4,26.2-1.5,26.2-1.5L255.5,130.7z"/>
					<path id="Path_78620" class="st12" d="M227.5,185.5l0,5.3c0,2.7,1.8,5.3,5.3,7.4c7.1,4.1,18.6,4.1,25.7,0
						c3.6-2.1,5.4-4.8,5.4-7.5c0-1.8,0-3.5,0-5.3c0,2.7-1.8,5.4-5.4,7.5c-7.1,4.1-18.6,4.1-25.7,0
						C229.3,190.8,227.5,188.1,227.5,185.5"/>
				</g>
			</g>
		</g>
		<g id="Group_39917" transform="translate(224.531 185.363)">
			<g>
				<defs>
					<path id="SVGID_00000042012876625031671940000013427045820905115312_" d="M34,7.5c-7.1,4.1-18.6,4.1-25.7,0
						C4.8,5.5,3,2.8,3,0.1l0,5.3c0,2.7,1.8,5.3,5.3,7.4c7.1,4.1,18.6,4.1,25.7,0c3.6-2.1,5.4-4.8,5.4-7.5c0-1.8,0-3.5,0-5.3
						C39.3,2.7,37.6,5.4,34,7.5"/>
				</defs>
				<clipPath id="SVGID_00000116215016455134368630000000176181435191616642_">
					<use xlink:href="#SVGID_00000042012876625031671940000013427045820905115312_"  style="overflow:visible;"/>
				</clipPath>
				<g id="Group_39916" style="clip-path:url(#SVGID_00000116215016455134368630000000176181435191616642_);">
					<path id="Path_78621" class="st12" d="M3,0.1l0,5.3v0.2l0-5.3V0.1z"/>
					<path id="Path_78622" class="st12" d="M3,0.3l0,5.3c0,0.3,0,0.7,0.1,1l0-5.3C3.1,1,3,0.6,3,0.3"/>
					<path id="Path_78623" class="st12" d="M3.1,1.3l0,5.3c0.1,0.4,0.2,0.7,0.3,1l0-5.3C3.3,2,3.2,1.7,3.1,1.3"/>
					<path id="Path_78624" class="st12" d="M3.4,2.3l0,5.3c0.1,0.4,0.3,0.7,0.5,1l0-5.3C3.7,3,3.6,2.7,3.4,2.3"/>
					<path id="Path_78625" class="st12" d="M3.9,3.4l0,5.3C4.1,9,4.4,9.4,4.7,9.7l0-5.3C4.4,4.1,4.1,3.7,3.9,3.4"/>
					<path id="Path_78626" class="st12" d="M4.6,4.4l0,5.3C5,10.2,5.4,10.6,5.8,11l0-5.3C5.3,5.3,5,4.9,4.6,4.4"/>
					<path id="Path_78627" class="st12" d="M5.8,5.7l0,5.3c0.7,0.6,1.5,1.2,2.3,1.7l0-5.3C7.2,6.9,6.5,6.3,5.8,5.7"/>
					<path id="Path_78628" class="st12" d="M8.1,7.4l0,5.3c0.1,0,0.1,0.1,0.2,0.1c1.3,0.7,2.6,1.3,4,1.8l0-5.3c-1.4-0.4-2.7-1-4-1.7
						C8.2,7.5,8.1,7.4,8.1,7.4"/>
					<path id="Path_78629" class="st12" d="M12.3,9.2l0,5.3c1.1,0.4,2.3,0.6,3.4,0.8l0-5.3C14.5,9.9,13.4,9.6,12.3,9.2"/>
					<path id="Path_78630" class="st12" d="M15.7,10.1l0,5.3c0.8,0.1,1.5,0.2,2.3,0.3l0-5.3C17.2,10.3,16.5,10.2,15.7,10.1"/>
					<path id="Path_78631" class="st12" d="M18,10.4l0,5.3c0.7,0.1,1.3,0.1,2,0.1l0-5.3C19.3,10.5,18.7,10.5,18,10.4"/>
					<path id="Path_78632" class="st12" d="M20,10.6l0,5.3c0.6,0,1.2,0,1.9,0l0-5.3C21.3,10.6,20.7,10.6,20,10.6"/>
					<path id="Path_78633" class="st12" d="M21.9,10.6l0,5.3c0.6,0,1.2-0.1,1.8-0.1l0-5.3C23.1,10.5,22.5,10.6,21.9,10.6"/>
					<path id="Path_78634" class="st12" d="M23.7,10.5l0,5.3c0.6,0,1.2-0.1,1.8-0.2l0-5.3C24.9,10.4,24.3,10.4,23.7,10.5"/>
					<path id="Path_78635" class="st12" d="M25.4,10.3l0,5.3c0.6-0.1,1.2-0.2,1.8-0.3l0-5.3C26.7,10.1,26.1,10.2,25.4,10.3"/>
					<path id="Path_78636" class="st12" d="M27.3,10l0,5.3c0.6-0.1,1.3-0.3,1.9-0.5l0-5.3C28.5,9.7,27.9,9.8,27.3,10"/>
					<path id="Path_78637" class="st12" d="M29.1,9.5l0,5.3c0.7-0.2,1.5-0.5,2.2-0.8l0-5.3C30.6,9,29.9,9.3,29.1,9.5"/>
					<path id="Path_78638" class="st12" d="M31.4,8.7l0,5.3c0.9-0.4,1.8-0.8,2.6-1.2c3.6-2.1,5.4-4.8,5.4-7.5l0-5.3
						c0,2.7-1.8,5.4-5.4,7.5C33.1,8,32.3,8.4,31.4,8.7"/>
				</g>
			</g>
		</g>
		<g id="Group_39922">
			<g>
				<defs>
					<rect id="SVGID_00000017491488044621446900000001164325942032226985_" x="3" width="365.7" height="305.3"/>
				</defs>
				<clipPath id="SVGID_00000004522231442839793270000014319187083286375856_">
					<use xlink:href="#SVGID_00000017491488044621446900000001164325942032226985_"  style="overflow:visible;"/>
				</clipPath>
				<g id="Group_39921" style="clip-path:url(#SVGID_00000004522231442839793270000014319187083286375856_);">
					<path id="Path_78640" class="st82" d="M232.9,178c-7.1,4.1-7.2,10.8-0.1,14.9c7.1,4.1,18.6,4.1,25.7,0s7.2-10.8,0.1-14.9
						C251.5,173.9,240,173.9,232.9,178"/>
					<path id="Path_78641" class="st83" d="M240.5,144.5c0,0.2,0,0.4,0.1,0.5l0,0c0.1,0.2,0.2,0.3,0.3,0.5c0,0,0,0.1,0.1,0.1
						c0.1,0.2,0.3,0.3,0.4,0.5c0.1,0.1,0.3,0.2,0.4,0.3c0.1,0.1,0.2,0.2,0.3,0.2c0.3,0.2,0.7,0.3,1,0.5c0.1,0,0.3,0.1,0.4,0.1
						c0.2,0.1,0.3,0.1,0.5,0.1c0.2,0,0.4,0.1,0.6,0.1c0.1,0,0.1,0,0.2,0c0.3,0,0.6,0,0.9,0c0.1,0,0.1,0,0.2,0c0.3,0,0.6,0,0.8,0
						c0,0,0.1,0,0.1,0c0.3,0,0.6-0.1,0.8-0.1c0.1,0,0.1,0,0.1,0c0.3-0.1,0.5-0.1,0.7-0.2c0.1,0,0.1,0,0.2,0c0.3-0.1,0.5-0.2,0.8-0.4
						c0.9-0.4,1.4-1.2,1.5-2.1L251,185c-0.1,0.9-0.7,1.8-1.5,2.1c-0.2,0.1-0.5,0.3-0.7,0.4l-0.1,0c0,0-0.1,0-0.1,0
						c-0.2,0.1-0.3,0.1-0.5,0.2c-0.1,0-0.2,0-0.3,0.1c0,0-0.1,0-0.1,0c0,0-0.1,0-0.1,0c-0.2,0-0.3,0.1-0.5,0.1c-0.1,0-0.1,0-0.2,0
						c0,0-0.1,0-0.1,0c-0.1,0-0.1,0-0.2,0l-0.5,0h-0.3c-0.1,0-0.2,0-0.2,0c-0.2,0-0.4,0-0.6,0h-0.1l-0.2,0c-0.1,0-0.3,0-0.4-0.1
						c-0.1,0-0.1,0-0.2-0.1c-0.2,0-0.3-0.1-0.5-0.1c-0.1,0-0.2,0-0.3-0.1c-0.1,0-0.2-0.1-0.2-0.1c-0.1,0-0.1-0.1-0.2-0.1
						c-0.3-0.1-0.5-0.2-0.7-0.3c0,0,0,0-0.1,0c-0.1-0.1-0.2-0.1-0.3-0.2c-0.1-0.1-0.2-0.2-0.3-0.3l0,0c-0.1-0.1-0.2-0.2-0.3-0.3
						c0,0,0-0.1,0-0.1c0,0,0-0.1-0.1-0.1c0,0-0.1-0.1-0.1-0.1c-0.1-0.1-0.1-0.2-0.1-0.3c0,0,0,0,0-0.1c0,0,0,0,0-0.1
						c0-0.1,0-0.1-0.1-0.2c0-0.1,0-0.2,0-0.3v-0.1l-0.1-35.2L240.5,144.5L240.5,144.5z"/>
					<path id="Path_78642" class="st83" d="M242,142.3c-2,1.2-2,3.1,0,4.2c2.3,1.2,5,1.2,7.4,0c2-1.2,2-3.1,0-4.2
						C247.1,141.1,244.4,141.1,242,142.3"/>
					<path id="Path_78643" class="st28" d="M208,144.5c-0.1,0-0.2-0.1-0.3-0.1c-0.1,0-0.1,0-0.2-0.1c-0.1,0-0.1,0-0.2,0
						c-0.1,0-0.2,0-0.3,0c0,0-0.1,0-0.1,0c-0.1,0-0.2,0-0.3,0h-0.1c-0.1,0-0.2,0-0.4,0.1l-0.1,0c-0.1,0-0.2,0-0.3,0.1
						c0,0-0.1,0-0.1,0c-0.1,0-0.2,0.1-0.3,0.2l35.1-20.4l0,0c0.1,0,0.2-0.1,0.3-0.1l0,0c0,0,0.1,0,0.1,0c0,0,0.1,0,0.1,0
						c0.1,0,0.1,0,0.1,0l0.1,0l0,0c0.1,0,0.2,0,0.3,0h0.3l0.1,0c0.1,0,0.1,0,0.2,0c0,0,0.1,0,0.1,0c0,0,0.1,0,0.1,0
						c0.1,0,0.1,0,0.2,0c0,0,0.1,0,0.1,0c0,0,0.1,0,0.1,0c0.1,0,0.2,0.1,0.4,0.1c0,0,0.1,0,0.1,0c0,0,0,0,0.1,0
						c0.2,0.1,0.4,0.2,0.6,0.3l24.5,14.1L233.3,159l-24.5-14.1c-0.2-0.1-0.4-0.2-0.6-0.3C208.1,144.5,208.1,144.5,208,144.5"/>
					<path id="Path_78644" class="st76" d="M184.6,170.4c-0.3,0-14.4,0-11.3,4.6c1.5,2.3,4.1,3.6,6.9,3.5c2.1,0,6-1.2,6.9-0.7
						s5.7,3.4,8.5,0.3c0.7-1,0.9-2.3,0.6-3.5C195.8,173.6,186.1,170.1,184.6,170.4"/>
					<path id="Path_78645" class="st77" d="M173.2,175c1.5,2.3,4.1,3.6,6.9,3.5c2.1,0,6-1.2,6.9-0.7c0.9,0.5,5.7,3.4,8.5,0.3
						c0.4-0.5,0.6-1.1,0.7-1.7c-2,2.6-6.6,2-7.9,1.2c-1.6-1-3.6-1.3-5.4-0.9c-1.9,0.4-5.9,0.1-7.8-1.6c-0.9-0.7-1.3-1.9-0.9-3
						C172.9,172.7,172.3,173.7,173.2,175"/>
					<path id="Path_78646" class="st84" d="M187.7,151.7c0,0-1.2,13.8-1.6,21.2c-0.2,2.5,4.7,4.5,10,2.1l4.8-22L187.7,151.7z"/>
					<path id="Path_78647" class="st78" d="M246.8,134.2c0,0-6.2,19.5-18.8,18.7l-14.1-25.1L246.8,134.2z"/>
					<path id="Path_78648" class="st84" d="M237.3,141.1c0,0,1,10.5-7.4,11.8c-8.3,1.2-16.1-7.2-24.1-10.4c-0.7-0.3-2.9-2.3-5,10.4
						l-2.4,1.1l-10.8-1.1c0,0,0.6-17.7,3.3-22.9c3.9-7.4,26.2-1.5,26.2-1.5L237.3,141.1z"/>
					<path id="Path_78649" class="st85" d="M200.8,76c0,0-6.8-3.4-10.2-0.6c-3.4,2.8-3.5,3.8-1.3,3.9c2.1,0,7.8,0.3,7.2,1
						c-0.7,0.7-2.6,1.3-2,1.9c0.6,0.6,6.4-1.4,6.4-1.4l2.8-3.8L200.8,76z"/>
					<path id="Path_78650" class="st86" d="M244.7,78.2c0,0,7-1.6,8.4,5.5c1.5,7.6-14.1,7.7-14.1,7.7s-13.2,1.2-17.6,0.3
						c-5.8-1.2-21.6-9.6-21.6-9.6s0.2-4.6,3.1-6.3c0,0,14.7,6.4,19.8,6.5C228.4,82.4,243.4,78.1,244.7,78.2"/>
					<path id="Path_78651" class="st87" d="M218.9,95.1c0,0-1.8-8.2,12-13.1c13.7-4.9,22.2-4.7,22.4,2.9c0.2,7.7-3.4,17.9-3.9,21.3
						c-1.1,5.8-0.6,11.8,1.6,17.3c3.3,7.9,4.8,15.4-16.9,16.6c-3.8,0.2-17.9,0.2-15.9-8.7C220.6,120.5,220.4,104.2,218.9,95.1"/>
					<path id="Path_78652" class="st85" d="M179.9,101.8c0,0-7.4-1.7-8.3-6c-0.8-4.3-0.3-5.2,1.4-3.8c1.7,1.3,6.3,4.7,6.2,3.7
						s-1.2-2.7-0.4-2.8S183,98,183,98l-0.2,4.7L179.9,101.8z"/>
					<path id="Path_78653" class="st86" d="M222.5,88.1c0,0,6.3-3.3,9.1,3.5c3,7.2-11.8,11.1-11.8,11.1s-12.3,4.4-16.6,4.6
						c-5.7,0.2-22.5-4.3-22.5-4.3s-0.8-4.6,1.6-7c0,0,15.2,2.8,20.2,1.6C208,96.3,221.3,88.3,222.5,88.1"/>
					<path id="Path_78654" class="st85" d="M231.6,73.2c0,0,1.4,5.8-1.4,9.3c-1.5,1.9,4.6,3.9,9.5,1.4c0,0,0.4-9.9,4.1-13.4
						L231.6,73.2z"/>
					<path id="Path_78655" class="st88" d="M231.9,77.4c1.9-0.3,3.7-0.8,5.5-1.6l0.2,0.1l1.1,1.6l0.6-0.9c0,0-1.1,6.1-8.4,4.7
						C231.5,80.1,231.8,78.8,231.9,77.4"/>
					<path id="Path_78656" class="st85" d="M231.4,49.9c-3.7,2.1-6.2,5.7-6.7,9.9c-1.1,6.9-3.2,12.9,0.2,15.9
						c3.5,3,16.3,2.3,20.5-6.6C249.5,60.4,244.2,45.9,231.4,49.9"/>
					<path id="Path_78657" class="st89" d="M238.9,75c0,0-1.7,11.8,4.1,19.9c3.3,4.6,3.3,8.2,2.9,10.3c-0.4,2.1,9.2-6.5,5-16.3
						c-4.2-9.8-8.3-13.9-8.3-13.9H238.9z"/>
					<path id="Path_78658" class="st89" d="M223.1,58.8c0.1,1.9,1.2,3.6,3,4.3c3.1,1.3,6.9,1.1,7.2,3.2c0.3,2.1,1.1,8.1,3.8,9.9
						c3.5,2.4,3.8-0.4,5.3-2c2-2.2,7.1-10.4,3-19.3c-2-4.2-6.6-6.6-11.3-5.8C234.1,49.2,223.5,50.6,223.1,58.8"/>
					<path id="Path_78659" class="st85" d="M236,71.7c-1.5,1.5-3.6,1.8-4.5,0.7c-1-1.1-0.5-3.2,1-4.7c1.5-1.5,3.6-1.8,4.6-0.7
						C238,68.1,237.6,70.2,236,71.7"/>
					<path id="Path_78660" class="st90" d="M238.7,74.4c0,0,4.7-3,5.5-0.6c0.6,1.8-4.3,4.1-6,3.7S237.8,74.9,238.7,74.4"/>
					<path id="Path_78661" class="st12" d="M208.8,144.8c-2.7-1.6-5-0.3-5,2.8c0.2,3.5,2,6.7,4.9,8.6l24.5,14.1
						c2.7,1.6,4.9,0.3,5-2.8c-0.2-3.5-2-6.7-4.9-8.6L208.8,144.8z"/>
					<path id="Path_78662" class="st82" d="M237.8,167.5l0.1-36.2l39-22.7l-0.1,36.2c0.1,1.4-0.5,2.7-1.6,3.5
						c-13,7.6-26,15.1-39,22.7C237.3,170.2,237.9,168.9,237.8,167.5"/>
					<path id="Path_78663" class="st83" d="M231,121.1c-0.1,0-0.3-0.1-0.4-0.1c-0.1,0-0.2,0-0.2-0.1c-0.1,0-0.2,0-0.2-0.1
						c-0.1,0-0.2,0-0.3,0l-0.2,0c-0.1,0-0.2,0-0.4,0h-0.1c-0.1,0-0.3,0-0.4,0c0,0-0.1,0-0.1,0c-0.1,0-0.2,0-0.3,0.1c0,0-0.1,0-0.1,0
						c-0.1,0-0.2,0.1-0.3,0.2c6.1-3.5,12.1-7.1,18.2-10.6L267,98.5c0.1-0.1,0.2-0.1,0.3-0.1c0,0,0,0,0.1,0c0,0,0.1,0,0.1,0
						c0,0,0.1,0,0.1,0c0.1,0,0.1,0,0.2,0c0,0,0.1,0,0.1,0c0,0,0,0,0.1,0c0.1,0,0.2,0,0.3,0h0.1c0.1,0,0.2,0,0.3,0l0.1,0
						c0.1,0,0.1,0,0.2,0c0.1,0,0.1,0,0.2,0c0,0,0.1,0,0.1,0c0.1,0,0.2,0,0.2,0.1c0,0,0.1,0,0.1,0c0,0,0.1,0,0.1,0
						c0.1,0,0.3,0.1,0.4,0.1c0.1,0,0.1,0,0.1,0.1l0.1,0c0.2,0.1,0.5,0.2,0.7,0.3l0.5,0.3c0.4,0.2,0.7,0.5,1,0.7
						c0.1,0.1,0.2,0.2,0.3,0.3c0.2,0.1,0.3,0.3,0.5,0.4c0.1,0.1,0.1,0.2,0.2,0.2c0.1,0.1,0.1,0.1,0.2,0.2c0.1,0.1,0.2,0.2,0.2,0.2
						c0.1,0.2,0.3,0.4,0.4,0.5c0.1,0.1,0.1,0.1,0.1,0.2c0,0,0,0.1,0.1,0.1c0,0.1,0.1,0.1,0.2,0.2c0.1,0.2,0.2,0.3,0.3,0.5
						c0.1,0.2,0.2,0.3,0.3,0.5c0,0,0,0,0,0l0,0c0.1,0.1,0.1,0.3,0.2,0.4c0.1,0.1,0.2,0.3,0.2,0.5c0.1,0.1,0.1,0.3,0.2,0.4l0,0v0
						c0.1,0.2,0.1,0.3,0.2,0.5s0.1,0.3,0.2,0.5c0,0.1,0.1,0.2,0.1,0.3c0,0,0,0.1,0,0.1c0,0.1,0,0.1,0.1,0.2c0.1,0.2,0.1,0.4,0.2,0.6
						c0,0.1,0,0.3,0.1,0.4c0,0.1,0,0.1,0,0.2c0,0.1,0,0.1,0,0.2c0,0.4,0.1,0.7,0.1,1.1l-39,22.7c0-0.4,0-0.8-0.1-1.3
						c0-0.1,0-0.1,0-0.2c-0.1-0.4-0.2-0.8-0.3-1.2c0,0,0-0.1,0-0.1c-0.1-0.4-0.3-0.9-0.5-1.3l0,0c-0.2-0.4-0.4-0.9-0.6-1.3l0,0
						c-0.2-0.4-0.5-0.8-0.8-1.2l-0.1-0.1c-0.2-0.3-0.5-0.7-0.8-1c-0.1-0.1-0.1-0.1-0.2-0.2c-0.2-0.2-0.5-0.4-0.7-0.6
						c-0.1-0.1-0.2-0.2-0.3-0.3c-0.3-0.3-0.7-0.5-1-0.7l-0.4-0.3c-0.2-0.1-0.5-0.2-0.7-0.3C231.2,121.2,231.1,121.1,231,121.1"/>
					<path id="Path_78664" class="st12" d="M231.9,121.5c-3-1.8-5.5-0.3-5.5,3.1l-0.1,36.2c0.2,3.9,2.2,7.4,5.5,9.5l0.4,0.3
						c3,1.8,5.5,0.4,5.5-3.1l0.1-36.2c-0.2-3.9-2.2-7.4-5.5-9.5L231.9,121.5z"/>
					<g id="Group_39920" transform="translate(112.181 90.934)" class="st2">
						<g id="Group_39919">
							<g>
								<defs>
									<rect id="SVGID_00000070817707739795749420000007579928420167215550_" x="3" y="0" width="20.4" height="11.8"/>
								</defs>
								<clipPath id="SVGID_00000152256954313575735880000007068107489925016215_">
									<use xlink:href="#SVGID_00000070817707739795749420000007579928420167215550_"  style="overflow:visible;"/>
								</clipPath>
								<g id="Group_39918" style="clip-path:url(#SVGID_00000152256954313575735880000007068107489925016215_);">
									<path id="Path_78665" d="M6,1.7C2,4,2,7.8,6,10.1c4.5,2.3,9.9,2.3,14.4,0c4-2.3,4-6,0-8.4C15.9-0.6,10.6-0.6,6,1.7"/>
								</g>
							</g>
						</g>
					</g>
					<path id="Path_78666" class="st12" d="M118.9,94.3c-2.5,1.4-2.5,3.7,0,5.1c2.8,1.4,6.1,1.4,8.8,0c2.4-1.4,2.5-3.7,0-5.1
						C125,92.9,121.7,92.9,118.9,94.3"/>
					<path id="Path_78667" class="st12" d="M117.1,97.3h12.4l2.7-16.6h-17.9L117.1,97.3z"/>
					<path id="Path_78668" class="st28" d="M117,77.4c-3.5,2-3.5,5.3,0,7.3c4,2,8.7,2,12.6,0c3.5-2,3.5-5.3,0.1-7.3
						C125.7,75.4,121,75.4,117,77.4"/>
					<path id="Path_78669" class="st15" d="M118.1,78c-2.9,1.7-2.9,4.4,0,6.1c3.3,1.7,7.2,1.7,10.5,0c2.9-1.7,2.9-4.4,0-6.1
						C125.3,76.4,121.4,76.4,118.1,78"/>
					<path id="Path_78670" class="st92" d="M128.5,84.1c-3.3,1.7-7.2,1.7-10.5,0c-0.7-0.4-1.3-1-1.8-1.7c0.3-1.1,1-1.9,2-2.4
						c3.2-1.6,6.9-1.6,10,0c1,0.5,1.7,1.4,2,2.4C129.9,83.1,129.3,83.7,128.5,84.1"/>
					<path id="Path_78671" class="st93" d="M125.8,83.1c1.1-0.8,2.9-1.3,2.7-4.8s4.4-1.3,4.4-3.9c0.1-6.4,5.2-8.4,1.7-7.8
						c-3.5,0.7-6.4,2.1-8.4,6.5c-2,4.4-7.8,10.2-3.5,10.6C123.8,84,124.9,83.7,125.8,83.1"/>
					<path id="Path_78672" class="st94" d="M121,74.2c0,0-3.6,0-3.2-3.5c0.8-6.4-2.3-5-3.4-7.5c-1.5-3.3-3.5,0-3.1,2.7
						c0.3,2.7-1.6,5.4,4,11.6c2,2.2,3.3,7,8.2,6C128.3,82.5,119.7,78.8,121,74.2"/>
					<path id="Path_78673" class="st95" d="M112.2,68.9l0.2-0.1c0.3,0.8,1,1.5,1.8,1.8c-1.4-2.5-1.3-6.5-1.3-6.7h0.2
						c0,1.4,0.2,2.8,0.5,4.2c0.5-0.5,0.6-1.2,0.5-1.9l0.2,0c0.2,0.8-0.1,1.6-0.6,2.2c0.2,1,0.6,1.9,1.2,2.8c0.3,0.3,0.6,0.8,0.9,1.2
						c0.9,1.1,2,2.6,3,4.1c0.2-0.4-0.1-1.4-0.2-1.8l0.2-0.1c0.1,0.2,0.6,1.6,0.1,2.1c1.3,2,2.4,4.2,2.2,5.8l-0.2,0
						c0.2-1.9-1.4-4.7-3.1-7.1c-1.1,0-2.3-0.4-3.1-1.2l0.2-0.1c0.7,0.7,1.7,1.1,2.7,1.1c-0.7-1-1.4-1.9-2-2.6
						c-0.4-0.5-0.7-0.9-0.9-1.2c-0.1-0.1-0.2-0.3-0.3-0.4C113.3,70.6,112.5,69.8,112.2,68.9"/>
					<path id="Path_78674" class="st95" d="M125.5,77.8c-0.3-0.5,0.4-1.6,0.5-1.8l0.2,0.1c-0.3,0.4-0.5,1-0.5,1.5
						c1.1-1.1,2.3-2.2,3.3-3c0.4-0.3,0.7-0.6,1-0.9c0.6-0.6,1.1-1.4,1.5-2.2c-0.4-0.6-0.5-1.3-0.2-2l0.2,0.1
						c-0.2,0.5-0.2,1.2,0.1,1.7c0.5-1.1,0.9-2.3,1.1-3.5l0.2,0c-0.4,2-1.1,3.8-2.3,5.5c0.8-0.2,1.4-0.6,1.8-1.3l0.2,0.1
						c-0.5,0.8-1.3,1.3-2.2,1.4c-0.1,0.1-0.2,0.2-0.3,0.3c-0.3,0.2-0.6,0.6-1,0.9c-0.6,0.5-1.4,1.2-2.1,1.9c0.9,0.1,1.8,0,2.5-0.5
						l0.1,0.1c-0.6,0.4-1.4,0.6-2.1,0.6c-0.2,0-0.5,0-0.7-0.1c-1.9,1.8-3.8,3.9-3.9,5.6l-0.2,0C122.7,81,124,79.3,125.5,77.8"/>
					<path id="Path_78675" class="st95" d="M123.7,83.7c2.8-1,5.9-5.5,4.1-10.4c-1.8-5-1.5-5.5,0.3-8c1.8-2.4-0.5-3.1,0-6.3
						c0.6-3.5-9.3,7.2-8.1,11.3c1.2,4.1-5.2,12.3,1.8,13.5C122.5,83.8,123.1,83.8,123.7,83.7"/>
					<path id="Path_78676" class="st94" d="M122.6,77.6l0.2,0.1c-0.4,1.2,0.3,2.5,1.4,2.9c0.7-2.6,0.3-5.2-0.1-7.8
						c-2-0.6-1.9-3-1.9-3.1h0.2c0,0,0,2.2,1.7,2.8l0,0c-0.3-1.4-0.4-2.8-0.5-4.2c0-0.6,0-1.2,0.1-1.8l-0.1,0.1
						c-1-1.2-0.4-3.2-0.4-3.3l0.2,0.1c-0.3,1-0.2,2.1,0.3,3.1c0.3-2.1,1.3-4,2.8-5.5l0.1,0.1c-1.8,1.9-2.9,4.5-2.8,7.1
						c1.1-0.5,1.8-1.6,1.8-2.8l0.2,0c0,1.3-0.8,2.5-2,3.1c0.1,1.4,0.2,2.7,0.5,4.1c0.3,1.4,0.4,2.7,0.5,4.1c1.2-0.6,0.8-3.6,0.8-3.6
						l0.2,0c0,0.1,0.4,3.3-1,3.9c0.2,2.5-0.5,5-2,7l-0.2-0.1c0.7-0.9,1.2-1.9,1.6-3C122.9,80.3,122.2,78.9,122.6,77.6"/>
					<path id="Path_78677" class="st96" d="M135.1,31.4l-3.2-1.9l1.1-0.6l3.2,1.8L135.1,31.4z"/>
					<path id="Path_78678" class="st97" d="M136.2,30.8l-3.2-1.8l-0.3-5.5l3.2,1.9L136.2,30.8z"/>
					<path id="Path_78679" class="st98" d="M135.1,31.4l-3.2-1.9l-0.1-2.1l3.2,1.8L135.1,31.4z"/>
					<path id="Path_78680" class="st96" d="M133,32.5l-3.2-1.9l0.9-0.5l3.2,1.8L133,32.5z"/>
					<path id="Path_78681" class="st99" d="M133.8,32l-3.2-1.8l0.6-2.5l3.2,1.9L133.8,32z"/>
				</g>
			</g>
		</g>
		<g id="Group_39924" transform="translate(127.312 28.709)">
			<g>
				<defs>
					<path id="SVGID_00000147187746942873689050000013488449075774882484_" d="M3,0c1,0.5,2.2,1.3,3.2,1.8v0C5.1,1.2,4.1,0.6,3,0
						L3,0z"/>
				</defs>
				<clipPath id="SVGID_00000161589451662366864070000011551199473608687238_">
					<use xlink:href="#SVGID_00000147187746942873689050000013488449075774882484_"  style="overflow:visible;"/>
				</clipPath>
				<g id="Group_39923" style="clip-path:url(#SVGID_00000161589451662366864070000011551199473608687238_);">
					<path id="Path_78682" class="st101" d="M6.2,1.9L3,0C2.9-0.6,2.7-1.2,2.6-1.7l3.2,1.8C5.9,0.7,6.1,1.3,6.2,1.9"/>
				</g>
			</g>
		</g>
		<g id="Group_39926" transform="translate(127.312 28.709)">
			<g>
				<defs>
					<path id="SVGID_00000052822278374662872380000010603493252537890719_" d="M6.2,1.8C5.1,1.2,4.1,0.6,3,0
						C4.1,0.6,5.1,1.2,6.2,1.8"/>
				</defs>
				<clipPath id="SVGID_00000145754154999522762200000003309714357061364897_">
					<use xlink:href="#SVGID_00000052822278374662872380000010603493252537890719_"  style="overflow:visible;"/>
				</clipPath>
				<g id="Group_39925" style="clip-path:url(#SVGID_00000145754154999522762200000003309714357061364897_);">
					<path id="Path_78684" class="st101" d="M6.2,1.9L3,0C2.9-0.6,2.7-1.2,2.6-1.7l3.2,1.8C5.9,0.7,6.1,1.3,6.2,1.9"/>
				</g>
			</g>
		</g>
		<g id="Group_39928" transform="translate(128.807 25.127)">
			<g>
				<defs>
					<path id="SVGID_00000170958584503229724810000016614215733831239562_" d="M3,2.3l3.2,1.8c0-0.7-0.1-1.5-0.1-2.3L3,0
						C3,0.8,3,1.6,3,2.3"/>
				</defs>
				<clipPath id="SVGID_00000041254009166244504840000001083458754241076613_">
					<use xlink:href="#SVGID_00000170958584503229724810000016614215733831239562_"  style="overflow:visible;"/>
				</clipPath>
				<g id="Group_39927" style="clip-path:url(#SVGID_00000041254009166244504840000001083458754241076613_);">
					<path id="Path_78686" class="st104" d="M6.2,4.1L3,2.3C3,1.6,3,0.8,3,0l3.2,1.9C6.2,2.7,6.2,3.5,6.2,4.1"/>
				</g>
			</g>
		</g>
		<g id="Group_39930" transform="translate(128.258 25.146)">
			<g>
				<defs>
					<path id="SVGID_00000154407907799774841760000017892585671650869417_" d="M3,2.5l3.2,1.9c0.2-0.8,0.4-1.7,0.5-2.5L3.5,0
						C3.4,0.8,3.2,1.7,3,2.5"/>
				</defs>
				<clipPath id="SVGID_00000003067262974401830430000011226232127728172451_">
					<use xlink:href="#SVGID_00000154407907799774841760000017892585671650869417_"  style="overflow:visible;"/>
				</clipPath>
				<g id="Group_39929" style="clip-path:url(#SVGID_00000003067262974401830430000011226232127728172451_);">
					<path id="Path_78688" class="st106" d="M6.2,4.3L3,2.5c0.1-0.4,0.2-0.9,0.3-1.4l3.2,1.8C6.4,3.4,6.3,3.9,6.2,4.3"/>
					<path id="Path_78689" class="st107" d="M6.5,2.9L3.3,1.1C3.4,0.7,3.5,0.3,3.5,0l3.2,1.8C6.6,2.2,6.6,2.6,6.5,2.9"/>
				</g>
			</g>
		</g>
		<g id="Group_39932">
			<g>
				<defs>
					<rect id="SVGID_00000124853852461984149450000006860092722799183295_" x="3" width="365.7" height="305.3"/>
				</defs>
				<clipPath id="SVGID_00000178189843823523172020000017018221844206563226_">
					<use xlink:href="#SVGID_00000124853852461984149450000006860092722799183295_"  style="overflow:visible;"/>
				</clipPath>
				<g id="Group_39931" style="clip-path:url(#SVGID_00000178189843823523172020000017018221844206563226_);">
					<path id="Path_78691" class="st96" d="M130.8,33.9l-3.2-1.8l1-0.6l3.2,1.9L130.8,33.9z"/>
				</g>
			</g>
		</g>
		<g id="Group_39934" transform="translate(127.304 26.445)">
			<g>
				<defs>
					<path id="SVGID_00000181075737178259301120000016891998882054237858_" d="M3,2.3l3.2,1.9c0.2-0.7,0.3-1.6,0.5-2.3L3.5,0
						C3.3,0.7,3.2,1.6,3,2.3"/>
				</defs>
				<clipPath id="SVGID_00000088820203182602772350000014870623754375121079_">
					<use xlink:href="#SVGID_00000181075737178259301120000016891998882054237858_"  style="overflow:visible;"/>
				</clipPath>
				<g id="Group_39933" style="clip-path:url(#SVGID_00000088820203182602772350000014870623754375121079_);">
					<path id="Path_78692" class="st110" d="M6.2,4.1L3,2.3c0.1-0.7,0.3-1.5,0.4-2.2L6.6,2C6.5,2.7,6.3,3.5,6.2,4.1"/>
					<path id="Path_78693" class="st111" d="M6.6,2L3.4,0.1c0,0,0-0.1,0-0.1l3.2,1.9C6.6,1.9,6.6,1.9,6.6,2"/>
				</g>
			</g>
		</g>
		<g id="Group_39936">
			<g>
				<defs>
					<rect id="SVGID_00000004506863084256348600000009133677594348809395_" x="3" width="365.7" height="305.3"/>
				</defs>
				<clipPath id="SVGID_00000142163504538014736240000017373839203468829863_">
					<use xlink:href="#SVGID_00000004506863084256348600000009133677594348809395_"  style="overflow:visible;"/>
				</clipPath>
				<g id="Group_39935" style="clip-path:url(#SVGID_00000142163504538014736240000017373839203468829863_);">
					<path id="Path_78695" class="st113" d="M133,32.5l-3.2-1.9l-0.5-1.9l3.2,1.8L133,32.5z"/>
					<path id="Path_78696" class="st114" d="M131.8,33.3l-3.2-1.9l0.1-2.2l3.2,1.9L131.8,33.3z"/>
				</g>
			</g>
		</g>
		<g id="Group_39938" transform="translate(126.879 26.98)">
			<g>
				<defs>
					<path id="SVGID_00000158736654111697835100000015963708447558021510_" d="M3.4,1.7C4.5,2.3,5.6,3,6.6,3.6
						C6.5,3,6.3,2.4,6.2,1.8L3,0C3.2,0.5,3.3,1.1,3.4,1.7"/>
				</defs>
				<clipPath id="SVGID_00000024692547868962304810000002118165104641784193_">
					<use xlink:href="#SVGID_00000158736654111697835100000015963708447558021510_"  style="overflow:visible;"/>
				</clipPath>
				<g id="Group_39937" style="clip-path:url(#SVGID_00000024692547868962304810000002118165104641784193_);">
					<path id="Path_78697" class="st101" d="M6.6,3.6L3.4,1.8C3.3,1.2,3.2,0.6,3,0l3.2,1.8C6.3,2.4,6.5,3,6.6,3.6"/>
				</g>
			</g>
		</g>
		<g id="Group_39940">
			<g>
				<defs>
					<rect id="SVGID_00000017517231250130262560000011835059342699910789_" x="3" width="365.7" height="305.3"/>
				</defs>
				<clipPath id="SVGID_00000102535520953949360310000007381666881869139641_">
					<use xlink:href="#SVGID_00000017517231250130262560000011835059342699910789_"  style="overflow:visible;"/>
				</clipPath>
				<g id="Group_39939" style="clip-path:url(#SVGID_00000102535520953949360310000007381666881869139641_);">
					<path id="Path_78699" class="st117" d="M134,28.3l-3.2-1.9l0.5-2.2l3.2,1.9L134,28.3z"/>
					<path id="Path_78700" class="st118" d="M134.5,26.1l-3.2-1.9l1.4-0.8l3.2,1.9L134.5,26.1z"/>
				</g>
			</g>
		</g>
		<g id="Group_39942" transform="translate(125.827 26.86)">
			<g>
				<defs>
					<path id="SVGID_00000116940183710308334720000006131995037113864368_" d="M3.4,1.9l3.2,1.8C6.4,3.2,6.3,2.5,6.2,1.8L3,0
						C3.1,0.7,3.3,1.3,3.4,1.9"/>
				</defs>
				<clipPath id="SVGID_00000169524873321211588020000018188489198472556979_">
					<use xlink:href="#SVGID_00000116940183710308334720000006131995037113864368_"  style="overflow:visible;"/>
				</clipPath>
				<g id="Group_39941" style="clip-path:url(#SVGID_00000169524873321211588020000018188489198472556979_);">
					<path id="Path_78701" class="st104" d="M6.6,3.8L3.4,1.9C3.3,1.3,3.1,0.7,3,0l3.2,1.8C6.3,2.5,6.4,3.2,6.6,3.8"/>
				</g>
			</g>
		</g>
		<g id="Group_39944" transform="translate(125.728 26.867)">
			<g>
				<defs>
					<path id="SVGID_00000147216000582109538560000012214640524860814993_" d="M3,2.4l3.2,1.9c0-0.7,0-1.6,0.1-2.4L3.1,0
						C3.1,0.8,3,1.7,3,2.4"/>
				</defs>
				<clipPath id="SVGID_00000015339285508458880940000009285206748421025413_">
					<use xlink:href="#SVGID_00000147216000582109538560000012214640524860814993_"  style="overflow:visible;"/>
				</clipPath>
				<g id="Group_39943" style="clip-path:url(#SVGID_00000015339285508458880940000009285206748421025413_);">
					<path id="Path_78703" class="st101" d="M6.2,4.2L3,2.4C3,1.7,3.1,0.8,3.1,0l3.2,1.9C6.2,2.6,6.2,3.5,6.2,4.2"/>
				</g>
			</g>
		</g>
		<g id="Group_39946">
			<g>
				<defs>
					<rect id="SVGID_00000165940557829900571020000011182431905546858116_" x="3" width="365.7" height="305.3"/>
				</defs>
				<clipPath id="SVGID_00000073700034284295515580000016094627282831955391_">
					<use xlink:href="#SVGID_00000165940557829900571020000011182431905546858116_"  style="overflow:visible;"/>
				</clipPath>
				<g id="Group_39945" style="clip-path:url(#SVGID_00000073700034284295515580000016094627282831955391_);">
					<path id="Path_78705" class="st122" d="M130.8,33.9l-3.2-1.8l0.3-5.8l3.2,1.8L130.8,33.9z"/>
					<path id="Path_78706" class="st123" d="M130.3,34.2l-3.2-1.9v-1.1l3.2,1.9L130.3,34.2z"/>
					<path id="Path_78707" class="st124" d="M133.1,28.8l-3.2-1.8l-0.5-1.6l3.2,1.9L133.1,28.8z"/>
					<path id="Path_78708" class="st96" d="M127.2,36l-3.2-1.9l3.1-1.8l3.2,1.9L127.2,36z"/>
					<path id="Path_78709" class="st118" d="M128.3,34.2l-3.2-1.8l2-1.1l3.2,1.8L128.3,34.2z"/>
					<path id="Path_78710" class="st118" d="M131.1,28.1l-3.2-1.8l1.5-0.9l3.2,1.9L131.1,28.1z"/>
					<path id="Path_78711" class="st96" d="M125.3,37.1l-3.2-1.9l1.3-0.7l3.2,1.9L125.3,37.1z"/>
					<path id="Path_78712" class="st113" d="M125.3,37.1l-3.2-1.9l-0.4-0.8l3.2,1.9L125.3,37.1z"/>
					<path id="Path_78713" class="st123" d="M128.3,34.2l-3.2-1.8l0-4.6l3.2,1.8L128.3,34.2z"/>
					<path id="Path_78714" class="st125" d="M120.7,46.2l-3.2-1.9c-0.7-0.5-1-1.2-0.9-2l3.2,1.8C119.7,45,120.1,45.7,120.7,46.2"/>
				</g>
			</g>
		</g>
		<g id="Group_39948" transform="translate(113.609 42.303)">
			<g>
				<defs>
					<path id="SVGID_00000039110644815261259700000012792540300015560630_" d="M3.9,2l3.2,1.9c-0.7-0.5-1-1.3-0.9-2.1L3,0
						C2.9,0.8,3.3,1.6,3.9,2"/>
				</defs>
				<clipPath id="SVGID_00000041982571614753297230000008950597549907050135_">
					<use xlink:href="#SVGID_00000039110644815261259700000012792540300015560630_"  style="overflow:visible;"/>
				</clipPath>
				<g id="Group_39947" style="clip-path:url(#SVGID_00000041982571614753297230000008950597549907050135_);">
					<path id="Path_78715" class="st125" d="M7.1,3.9L3.9,2C3.3,1.6,2.9,0.8,3,0l3.2,1.8C6.1,2.7,6.5,3.4,7.1,3.9"/>
				</g>
			</g>
		</g>
		<g id="Group_39950">
			<g>
				<defs>
					<rect id="SVGID_00000160182188099138716150000017061076547472442805_" x="3" width="365.7" height="305.3"/>
				</defs>
				<clipPath id="SVGID_00000144332642112791047230000011530562205835575451_">
					<use xlink:href="#SVGID_00000160182188099138716150000017061076547472442805_"  style="overflow:visible;"/>
				</clipPath>
				<g id="Group_39949" style="clip-path:url(#SVGID_00000144332642112791047230000011530562205835575451_);">
					<path id="Path_78717" class="st128" d="M123.6,38l-3.2-1.8l0.4-1.3l3.2,1.8L123.6,38z"/>
				</g>
			</g>
		</g>
		<g id="Group_39952" transform="translate(118.267 33.662)">
			<g>
				<defs>
					<path id="SVGID_00000044878254183327247560000018285391165780038542_" d="M3.4,0.8l3.2,1.9C6.4,2.3,6.3,2.1,6.2,1.9L3,0
						C3.1,0.3,3.3,0.5,3.4,0.8"/>
				</defs>
				<clipPath id="SVGID_00000042716908518234140610000014030753183944053160_">
					<use xlink:href="#SVGID_00000044878254183327247560000018285391165780038542_"  style="overflow:visible;"/>
				</clipPath>
				<g id="Group_39951" style="clip-path:url(#SVGID_00000042716908518234140610000014030753183944053160_);">
					<path id="Path_78718" class="st104" d="M6.6,2.6L3.4,0.8C3.3,0.5,3.1,0.3,3,0l3.2,1.9C6.3,2.1,6.5,2.4,6.6,2.6"/>
				</g>
			</g>
		</g>
		<g id="Group_39954" transform="translate(117.863 33.67)">
			<g>
				<defs>
					<path id="SVGID_00000170272132143339521210000015439475577427190150_" d="M3,1.2l3.2,1.8c0.2-0.5,0.3-0.8,0.4-1.2L3.4,0
						C3.3,0.4,3.2,0.8,3,1.2"/>
				</defs>
				<clipPath id="SVGID_00000031182770091003334270000015408793246515163545_">
					<use xlink:href="#SVGID_00000170272132143339521210000015439475577427190150_"  style="overflow:visible;"/>
				</clipPath>
				<g id="Group_39953" style="clip-path:url(#SVGID_00000031182770091003334270000015408793246515163545_);">
					<path id="Path_78720" class="st131" d="M6.2,3.1L3,1.2C3.2,0.8,3.3,0.4,3.4,0l3.2,1.8C6.4,2.2,6.3,2.6,6.2,3.1"/>
				</g>
			</g>
		</g>
		<g id="Group_39956">
			<g>
				<defs>
					<rect id="SVGID_00000144298768712457459680000010078282925062356874_" x="3" width="365.7" height="305.3"/>
				</defs>
				<clipPath id="SVGID_00000012474786679731213560000015175267129419626375_">
					<use xlink:href="#SVGID_00000144298768712457459680000010078282925062356874_"  style="overflow:visible;"/>
				</clipPath>
				<g id="Group_39955" style="clip-path:url(#SVGID_00000012474786679731213560000015175267129419626375_);">
					
						<rect id="Rectangle_22803" x="122.8" y="32.8" transform="matrix(0.5031 -0.8642 0.8642 0.5031 31.1459 123.352)" class="st96" width="0" height="3.7"/>
					<path id="Path_78722" class="st133" d="M127.2,36l-3.2-1.9l0-5.6l3.2,1.8L127.2,36z"/>
					<path id="Path_78723" class="st124" d="M126.6,36.3l-3.2-1.9l-1.5-2l3.2,1.8L126.6,36.3z"/>
					<path id="Path_78724" class="st96" d="M122.4,38.7l-3.2-1.8l1.3-0.7l3.2,1.8L122.4,38.7z"/>
					<path id="Path_78725" class="st118" d="M127.2,30.3l-3.2-1.8l1.1-0.6l3.2,1.8L127.2,30.3z"/>
					<path id="Path_78726" class="st82" d="M128.3,29.7l0,4.6l1.9-1.1l0,1.1l-3.1,1.8l0-5.6L128.3,29.7z"/>
					<path id="Path_78727" class="st134" d="M125.1,34.3l-3.2-1.8l1.4-3.5l3.2,1.8L125.1,34.3z"/>
					<path id="Path_78728" class="st135" d="M122.4,38.7l-3.2-1.8l1.4-3.7l3.2,1.8L122.4,38.7z"/>
				</g>
			</g>
		</g>
		<g id="Group_39958" transform="translate(118.318 31.984)">
			<g>
				<defs>
					<path id="SVGID_00000020393896685243664680000003379004756135184565_" d="M3,0c1,0.7,2,1.4,3.2,1.9l0,0C5.1,1.2,4.1,0.6,3,0
						L3,0"/>
				</defs>
				<clipPath id="SVGID_00000003797932933063062330000002047411677050703279_">
					<use xlink:href="#SVGID_00000020393896685243664680000003379004756135184565_"  style="overflow:visible;"/>
				</clipPath>
				<g id="Group_39957" style="clip-path:url(#SVGID_00000003797932933063062330000002047411677050703279_);">
					<path id="Path_78729" class="st101" d="M6.2,1.9L3,0C2.9-0.2,2.8-0.4,2.6-0.7l3.2,1.8C5.9,1.4,6.1,1.6,6.2,1.9"/>
				</g>
			</g>
		</g>
		<g id="Group_39960" transform="translate(118.318 31.984)">
			<g>
				<defs>
					<path id="SVGID_00000155826936344251446780000007973470877674579330_" d="M6.2,1.8C5.1,1.2,4.1,0.6,3,0
						C4.1,0.6,5.1,1.2,6.2,1.8"/>
				</defs>
				<clipPath id="SVGID_00000033367702470406757840000004171926645480961425_">
					<use xlink:href="#SVGID_00000155826936344251446780000007973470877674579330_"  style="overflow:visible;"/>
				</clipPath>
				<g id="Group_39959" style="clip-path:url(#SVGID_00000033367702470406757840000004171926645480961425_);">
					<path id="Path_78731" class="st101" d="M6.2,1.9L3,0C2.9-0.2,2.8-0.4,2.6-0.7l3.2,1.8C5.9,1.4,6.1,1.6,6.2,1.9"/>
				</g>
			</g>
		</g>
		<g id="Group_39962" transform="translate(118.318 30.86)">
			<g>
				<defs>
					<path id="SVGID_00000120530148511317181870000004686524859841361810_" d="M3,1.1L6.2,3c0.1-0.4,0.2-0.7,0.3-1.1L3.3,0
						C3.2,0.4,3.1,0.7,3,1.1"/>
				</defs>
				<clipPath id="SVGID_00000131350477919680354210000002943642846621269142_">
					<use xlink:href="#SVGID_00000120530148511317181870000004686524859841361810_"  style="overflow:visible;"/>
				</clipPath>
				<g id="Group_39961" style="clip-path:url(#SVGID_00000131350477919680354210000002943642846621269142_);">
					<path id="Path_78733" class="st139" d="M6.2,3L3,1.1C3.1,0.7,3.2,0.4,3.3,0l3.2,1.8C6.4,2.3,6.3,2.6,6.2,3"/>
				</g>
			</g>
		</g>
		<g id="Group_39964">
			<g>
				<defs>
					<rect id="SVGID_00000145055932698700083110000005476798869845706643_" x="3" width="365.7" height="305.3"/>
				</defs>
				<clipPath id="SVGID_00000180344335712520141470000018340512368998470314_">
					<use xlink:href="#SVGID_00000145055932698700083110000005476798869845706643_"  style="overflow:visible;"/>
				</clipPath>
				<g id="Group_39963" style="clip-path:url(#SVGID_00000180344335712520141470000018340512368998470314_);">
					<path id="Path_78735" class="st141" d="M124.8,32.7l-3.2-1.8l0.4-1.3l3.2,1.9L124.8,32.7z"/>
					<path id="Path_78736" class="st118" d="M125.2,31.5l-3.2-1.9l1.3-0.7l3.2,1.9L125.2,31.5z"/>
				</g>
			</g>
		</g>
		<g id="Group_39966" transform="translate(117.94 31.278)">
			<g>
				<defs>
					<path id="SVGID_00000123401029064653807600000001476022826469139349_" d="M3,0c2.2,1.3,2.2,1.3,3.2,1.8L3,0
						c0.1,0.3,0.3,0.5,0.4,0.7c0.1,0.1,0.2,0.2,0.4,0.2C3.8,1,3.9,1,3.9,1c0.1,0,0.1,0.1,0.2,0.1c0.1,0.1,0.3,0.2,0.4,0.2
						c0.1,0,0.2,0.1,0.2,0.1S4.9,1.6,5,1.6C5.5,1.9,6,2.2,6.6,2.6C6.4,2.3,6.3,2.1,6.2,1.8C5.2,1.3,5.2,1.3,3,0"/>
				</defs>
				<clipPath id="SVGID_00000120531030765229875460000014816394938879649469_">
					<use xlink:href="#SVGID_00000123401029064653807600000001476022826469139349_"  style="overflow:visible;"/>
				</clipPath>
				<g id="Group_39965" style="clip-path:url(#SVGID_00000120531030765229875460000014816394938879649469_);">
					<path id="Path_78737" class="st101" d="M6.6,2.6L3.4,0.7C3.3,0.5,3.2,0.3,3,0l3.2,1.8C6.3,2.1,6.4,2.3,6.6,2.6"/>
				</g>
			</g>
		</g>
		<g id="Group_39968">
			<g>
				<defs>
					<rect id="SVGID_00000042012807426680604330000004957187716795678137_" x="3" width="365.7" height="305.3"/>
				</defs>
				<clipPath id="SVGID_00000137096698194885604200000008409623146719070907_">
					<use xlink:href="#SVGID_00000042012807426680604330000004957187716795678137_"  style="overflow:visible;"/>
				</clipPath>
				<g id="Group_39967" style="clip-path:url(#SVGID_00000137096698194885604200000008409623146719070907_);">
					<path id="Path_78739" class="st124" d="M124.1,33.1l-3.2-1.8l-0.4-0.8l3.2,1.8L124.1,33.1z"/>
					<path id="Path_78740" class="st118" d="M122.4,33.1l-3.2-1.8l1.3-0.7l3.2,1.8L122.4,33.1z"/>
					<path id="Path_78741" class="st113" d="M123.8,35.1l-3.2-1.8l-1.4-2l3.2,1.8L123.8,35.1z"/>
					<path id="Path_78742" class="st82" d="M126.5,30.7l-1.4,3.5l1.5,2l-1.3,0.7l-0.4-0.8c-0.2-0.2-0.3-0.5-0.4-0.8l0,0
						c-0.1,0.4-0.2,0.8-0.4,1.2l-0.4,1.3l-1.2,0.7l1.4-3.7l-1.4-2l1.3-0.7l0.4,0.8c0.1,0.3,0.3,0.5,0.4,0.7c0.1-0.4,0.2-0.7,0.3-1.1
						l0.4-1.3L126.5,30.7z"/>
					<path id="Path_78743" class="st71" d="M135.6,16.9c1.8-1,3.2-0.2,3.2,1.8l0,14.5c-0.1,2.2-1.3,4.3-3.2,5.5L123,46
						c-1.8,1-3.2,0.2-3.2-1.8l0-14.5c0.1-2.2,1.3-4.3,3.2-5.5L135.6,16.9z M135.1,31.4l1.1-0.6l-0.3-5.5l-1.4,0.8l-0.5,2.2
						c-0.2,0.7-0.3,1.6-0.5,2.3c-0.1-0.6-0.3-1.2-0.4-1.8l-0.5-1.6l-1.5,0.8l-0.3,5.8l1-0.6l0.1-2.2c0-0.7,0-1.6,0.1-2.4
						c0.1,0.7,0.3,1.4,0.5,1.9l0.5,1.9l0.9-0.5l0.6-2.5c0.2-0.8,0.4-1.7,0.6-2.5c0,0.8,0.1,1.6,0.1,2.3L135.1,31.4z M125.3,37.1
						l1.3-0.7l-1.5-2l1.4-3.5l-1.3,0.7l-0.4,1.3c-0.1,0.4-0.2,0.7-0.3,1.1c-0.1-0.2-0.3-0.5-0.4-0.7l-0.4-0.8l-1.3,0.7l1.4,2
						l-1.4,3.7l1.2-0.7l0.4-1.3c0.2-0.5,0.3-0.8,0.4-1.2l0,0c0.1,0.3,0.3,0.5,0.4,0.8L125.3,37.1z M130.3,34.2l0-1.1l-1.9,1.1l0-4.6
						l-1.1,0.6l0,5.6L130.3,34.2z"/>
					<path id="Path_78744" class="st82" d="M135.9,25.3l0.3,5.5l-1.1,0.6l-0.1-2.1c0-0.7-0.1-1.5-0.1-2.3c-0.2,0.8-0.4,1.7-0.6,2.5
						l-0.6,2.5l-0.9,0.5l-0.5-1.9c-0.2-0.6-0.3-1.3-0.5-2c0,0.8-0.1,1.7-0.1,2.4l-0.1,2.2l-1,0.6l0.3-5.8l1.5-0.9l0.5,1.6
						c0.2,0.6,0.3,1.2,0.4,1.8c0.1-0.7,0.3-1.6,0.5-2.3l0.5-2.2L135.9,25.3z"/>
					<path id="Path_78745" class="st125" d="M134.7,14.8l3.2,1.9c-0.7-0.3-1.6-0.3-2.3,0.2l-3.2-1.8C133,14.5,133.9,14.4,134.7,14.8
						"/>
				</g>
			</g>
		</g>
		<g id="Group_39970" transform="translate(129.379 14.565)">
			<g>
				<defs>
					<path id="SVGID_00000138567348847451678700000013265347591705331390_" d="M3,0.4l3.2,1.9c0.7-0.5,1.5-0.6,2.3-0.2L5.3,0.2
						C5,0.1,4.7,0,4.4,0C3.9,0,3.4,0.2,3,0.4"/>
				</defs>
				<clipPath id="SVGID_00000030486045599259616390000012912855488495383191_">
					<use xlink:href="#SVGID_00000138567348847451678700000013265347591705331390_"  style="overflow:visible;"/>
				</clipPath>
				<g id="Group_39969" style="clip-path:url(#SVGID_00000030486045599259616390000012912855488495383191_);">
					<path id="Path_78746" class="st125" d="M6.2,2.3L3,0.4c0.1-0.1,0.3-0.2,0.5-0.2l3.2,1.9C6.5,2.1,6.3,2.2,6.2,2.3"/>
					<path id="Path_78747" class="st125" d="M6.6,2.1L3.4,0.2c0.1,0,0.3-0.1,0.4-0.1L7,1.9C6.9,2,6.8,2,6.6,2.1"/>
					<path id="Path_78748" class="st125" d="M7,1.9L3.8,0.1C3.9,0.1,4,0,4.1,0l3.2,1.8C7.2,1.9,7.1,1.9,7,1.9"/>
					<path id="Path_78749" class="st125" d="M7.3,1.9L4.1,0c0.1,0,0.2,0,0.2,0l3.2,1.9C7.5,1.8,7.4,1.9,7.3,1.9"/>
					<path id="Path_78750" class="st125" d="M7.5,1.8L4.3,0c0.1,0,0.1,0,0.2,0l3.2,1.8C7.7,1.8,7.6,1.8,7.5,1.8"/>
					<path id="Path_78751" class="st125" d="M7.7,1.8L4.6,0c0.1,0,0.1,0,0.2,0l3.2,1.9C7.9,1.9,7.8,1.9,7.7,1.8"/>
					<path id="Path_78752" class="st125" d="M7.9,1.9L4.8,0c0.1,0,0.1,0,0.2,0l3.2,1.8C8.1,1.9,8,1.9,7.9,1.9"/>
					<path id="Path_78753" class="st125" d="M8.1,1.9L4.9,0.1c0.1,0,0.1,0,0.2,0.1L8.3,2C8.2,2,8.2,1.9,8.1,1.9"/>
					<path id="Path_78754" class="st125" d="M8.3,2L5.1,0.1c0.1,0,0.1,0,0.2,0.1L8.5,2C8.4,2,8.3,2,8.3,2"/>
					<path id="Path_78755" class="st125" d="M8.5,2L5.3,0.2l0,0L8.5,2L8.5,2"/>
				</g>
			</g>
		</g>
		<g id="Group_39972">
			<g>
				<defs>
					<rect id="SVGID_00000077316382192295176770000003162955048003295162_" x="3" width="365.7" height="305.3"/>
				</defs>
				<clipPath id="SVGID_00000141450129705433254550000002720076795462677382_">
					<use xlink:href="#SVGID_00000077316382192295176770000003162955048003295162_"  style="overflow:visible;"/>
				</clipPath>
				<g id="Group_39971" style="clip-path:url(#SVGID_00000141450129705433254550000002720076795462677382_);">
					<path id="Path_78757" class="st125" d="M119.8,44.2l-3.2-1.8l0-14.5l3.2,1.8L119.8,44.2z"/>
					<path id="Path_78758" class="st125" d="M122.9,24.1l-3.2-1.8l12.6-7.3l3.2,1.9L122.9,24.1z"/>
					<path id="Path_78759" class="st125" d="M119.8,29.7l-3.2-1.8c0.1-2.2,1.3-4.3,3.2-5.5l3.2,1.8
						C121.1,25.4,119.9,27.4,119.8,29.7"/>
				</g>
			</g>
		</g>
		<g id="Group_39974" transform="translate(113.569 22.292)">
			<g>
				<defs>
					<path id="SVGID_00000140700205422446442730000005719402414185049739_" d="M3,5.5l3.2,1.8c0.1-2.2,1.3-4.3,3.2-5.5L6.2,0
						C4.3,1.2,3.1,3.3,3,5.5"/>
				</defs>
				<clipPath id="SVGID_00000022531015954913896600000012425694152045077902_">
					<use xlink:href="#SVGID_00000140700205422446442730000005719402414185049739_"  style="overflow:visible;"/>
				</clipPath>
				<g id="Group_39973" style="clip-path:url(#SVGID_00000022531015954913896600000012425694152045077902_);">
					<path id="Path_78760" class="st125" d="M6.2,7.4L3,5.5c0-0.2,0-0.4,0-0.6l3.2,1.8C6.2,7,6.2,7.2,6.2,7.4"/>
					<path id="Path_78761" class="st125" d="M6.2,6.7L3,4.9c0-0.1,0.1-0.3,0.1-0.4l3.2,1.9C6.3,6.4,6.2,6.6,6.2,6.7"/>
					<path id="Path_78762" class="st125" d="M6.3,6.3L3.1,4.4c0-0.1,0.1-0.2,0.1-0.4l3.2,1.9C6.4,6.1,6.3,6.2,6.3,6.3"/>
					<path id="Path_78763" class="st125" d="M6.4,5.9L3.2,4.1c0-0.1,0.1-0.2,0.1-0.3l3.2,1.9C6.5,5.7,6.4,5.8,6.4,5.9"/>
					<path id="Path_78764" class="st125" d="M6.5,5.6L3.3,3.8c0-0.1,0.1-0.2,0.1-0.3l3.2,1.9C6.6,5.4,6.5,5.5,6.5,5.6"/>
					<path id="Path_78765" class="st125" d="M6.6,5.3L3.4,3.5c0-0.1,0.1-0.2,0.1-0.3L6.7,5C6.7,5.1,6.6,5.2,6.6,5.3"/>
					<path id="Path_78766" class="st125" d="M6.7,5L3.5,3.2C3.6,3.1,3.6,3,3.7,2.9l3.2,1.8C6.8,4.8,6.8,4.9,6.7,5"/>
					<path id="Path_78767" class="st125" d="M6.8,4.7L3.7,2.9c0-0.1,0.1-0.2,0.1-0.3L7,4.5C6.9,4.6,6.9,4.6,6.8,4.7"/>
					<path id="Path_78768" class="st125" d="M7,4.5L3.8,2.6c0.1-0.1,0.1-0.2,0.1-0.3l3.2,1.8C7.1,4.3,7,4.4,7,4.5"/>
					<path id="Path_78769" class="st125" d="M7.1,4.2L3.9,2.4C4,2.3,4.1,2.2,4.1,2.1l3.2,1.8C7.2,4,7.2,4.1,7.1,4.2"/>
					<path id="Path_78770" class="st125" d="M7.3,3.9L4.1,2.1C4.2,2,4.2,1.9,4.3,1.8l3.2,1.9C7.4,3.7,7.4,3.8,7.3,3.9"/>
					<path id="Path_78771" class="st125" d="M7.5,3.7L4.3,1.8c0.1-0.1,0.1-0.2,0.2-0.3l3.2,1.8C7.6,3.5,7.6,3.6,7.5,3.7"/>
					<path id="Path_78772" class="st125" d="M7.7,3.4L4.5,1.5c0.1-0.1,0.2-0.2,0.3-0.3L7.9,3C7.9,3.1,7.8,3.2,7.7,3.4"/>
					<path id="Path_78773" class="st125" d="M7.9,3L4.8,1.2C4.9,1.1,5,0.9,5.1,0.8l3.2,1.8C8.2,2.8,8.1,2.9,7.9,3"/>
					<path id="Path_78774" class="st125" d="M8.3,2.7L5.1,0.8C5.4,0.5,5.8,0.2,6.2,0l3.2,1.8C9,2.1,8.6,2.3,8.3,2.7"/>
				</g>
			</g>
		</g>
		<g id="Group_39976">
			<g>
				<defs>
					<rect id="SVGID_00000090280348555858803580000008051459631155288705_" x="3" width="365.7" height="305.3"/>
				</defs>
				<clipPath id="SVGID_00000140736783788653574410000008545724201659415220_">
					<use xlink:href="#SVGID_00000090280348555858803580000008051459631155288705_"  style="overflow:visible;"/>
				</clipPath>
				<g id="Group_39975" style="clip-path:url(#SVGID_00000140736783788653574410000008545724201659415220_);">
					<path id="Path_78776" class="st69" d="M228.3,4.1c0-2-1.5-2.8-3.2-1.8l-12.6,7.3c-1.9,1.2-3.1,3.3-3.2,5.5v1.3l-0.5,0.3
						l0.5,0.8v3.4l-0.6,1.5l0.6,0.3l0,6.9c0,2,1.5,2.8,3.2,1.8l12.6-7.3c1.9-1.2,3.1-3.3,3.2-5.5L228.3,4.1z"/>
					<path id="Path_78777" class="st148" d="M225.8,2c0.2-0.1,0.3-0.1,0.5-0.1h0c0.2,0,0.4,0,0.5,0l0,0c0.2,0,0.3,0.1,0.5,0.2
						l-3.2-1.8l0,0c-0.1,0-0.1-0.1-0.2-0.1c-0.1,0-0.1,0-0.2-0.1l-0.1,0h0h0c-0.1,0-0.1,0-0.2,0h-0.2c0,0,0,0-0.1,0h0
						c0,0-0.1,0-0.1,0c-0.1,0-0.2,0-0.3,0.1c0,0-0.1,0-0.1,0l-0.1,0c-0.1,0-0.1,0-0.1,0.1c-0.2,0.1-0.3,0.1-0.5,0.2l-12.6,7.3
						c-0.4,0.2-0.8,0.5-1.1,0.8c0,0-0.1,0.1-0.1,0.1c0,0,0,0-0.1,0.1c0,0.1-0.1,0.1-0.1,0.2c-0.1,0.1-0.2,0.2-0.3,0.3
						c-0.1,0.1-0.1,0.2-0.2,0.3c-0.1,0.1-0.1,0.2-0.2,0.3c-0.1,0.1-0.1,0.2-0.2,0.3l0,0c0,0.1-0.1,0.2-0.1,0.3s-0.1,0.2-0.1,0.3
						s-0.1,0.2-0.1,0.3s-0.1,0.2-0.1,0.3c-0.1,0.1-0.1,0.2-0.1,0.3c0,0.1,0,0.1,0,0.2l0,0c0,0,0,0.1,0,0.1c0,0.1-0.1,0.2-0.1,0.4
						c0,0.1-0.1,0.3-0.1,0.4c0,0.2,0,0.4,0,0.6l0,14.5c-0.1,0.8,0.3,1.6,0.9,2.1l3.2,1.8c-0.7-0.5-1-1.2-0.9-2l0-14.5
						c0-0.5,0.1-1.1,0.3-1.6v0c0.2-0.5,0.4-1.1,0.7-1.6c0.3-0.5,0.6-0.9,1-1.3c0,0,0,0,0-0.1c0.4-0.4,0.8-0.7,1.2-1l12.6-7.3
						c0.2-0.1,0.4-0.2,0.6-0.3C225.7,2,225.8,2,225.8,2"/>
					<path id="Path_78778" class="st82" d="M215.6,16.3c0.4-0.2,0.8-0.4,1.2-0.5l-0.2,1.5c-0.3,0-0.6,0.2-0.9,0.3
						c-0.9,0.5-1.4,1.4-1.4,2.4c0,1.1,0.6,1.3,1.4,0.8c0.3-0.2,0.6-0.4,0.9-0.7l0.2,1.2c-0.4,0.4-0.9,0.8-1.4,1.1
						c-1.6,1-2.7,0.4-2.7-1.4C212.7,19.1,213.8,17.3,215.6,16.3"/>
					<path id="Path_78779" class="st82" d="M219.6,14c0.4-0.3,0.9-0.5,1.4-0.5l-0.3,1.4c-0.4,0-0.8,0.1-1.1,0.3
						c-0.3,0.2-0.6,0.5-0.6,0.8c0,0.3,0.2,0.3,0.8,0.2c1-0.2,1.4,0.1,1.4,1c-0.1,1.4-1,2.6-2.2,3.2c-0.5,0.3-1.1,0.5-1.7,0.5
						l0.3-1.5c0.5,0,1-0.1,1.4-0.4c0.5-0.3,0.7-0.6,0.7-0.9s-0.2-0.4-0.8-0.2c-1.1,0.2-1.5-0.2-1.5-0.9
						C217.6,15.8,218.4,14.6,219.6,14"/>
					<path id="Path_78780" class="st82" d="M224.1,11.3c0.4-0.3,0.9-0.4,1.4-0.5l-0.3,1.4c-0.4,0-0.8,0.1-1.1,0.3
						c-0.3,0.2-0.6,0.5-0.6,0.8c0,0.3,0.2,0.3,0.8,0.2c1-0.2,1.4,0.1,1.4,1c-0.1,1.4-1,2.6-2.2,3.2c-0.5,0.3-1.1,0.5-1.7,0.5
						l0.3-1.5c0.5,0,1-0.1,1.4-0.3c0.5-0.3,0.7-0.6,0.7-0.9s-0.2-0.4-0.7-0.3c-1.1,0.2-1.5-0.2-1.5-0.9
						C222.2,13.1,222.9,12,224.1,11.3"/>
				</g>
			</g>
		</g>
	</g>
</g>
</svg>
