<svg id="Group_39885" data-name="Group 39885" xmlns="http://www.w3.org/2000/svg" xmlns:xlink="http://www.w3.org/1999/xlink" width="1528.096" height="726.455" viewBox="0 0 1528.096 726.455">
  <defs>
    <clipPath id="clip-path">
      <rect id="Rectangle_22790" data-name="Rectangle 22790" width="1528.095" height="726.455" fill="none"/>
    </clipPath>
    <clipPath id="clip-path-2">
      <rect id="Rectangle_22789" data-name="Rectangle 22789" width="1528.097" height="726.454" fill="none"/>
    </clipPath>
    <clipPath id="clip-path-3">
      <rect id="Rectangle_22787" data-name="Rectangle 22787" width="166.315" height="46.503" fill="none"/>
    </clipPath>
    <clipPath id="clip-path-4">
      <rect id="Rectangle_22788" data-name="Rectangle 22788" width="358.38" height="157.142" fill="none"/>
    </clipPath>
  </defs>
  <g id="Group_39884" data-name="Group 39884" clip-path="url(#clip-path)">
    <g id="Group_39883" data-name="Group 39883" transform="translate(0 0.001)">
      <g id="Group_39882" data-name="Group 39882" clip-path="url(#clip-path-2)">
        <path id="Path_78415" data-name="Path 78415" d="M1286.719,723.156s167.37,13.125,218.917-84.875c76.642-145.714-72.317-263.169-180.377-242.025-235.467,46.075-87.9-425.287-604.721-314.292C612.8,105.1,394.49-167.773,295.176,171.5c-19.317,65.989-86.5,73.345-184.428,115.268C-80.907,368.816,6.725,724.541,143.67,725.937s1143.048-2.781,1143.048-2.781" transform="translate(0 -0.003)" fill="#ebf2f9"/>
        <path id="Path_78416" data-name="Path 78416" d="M1584.115,1486.583H113.236a1.313,1.313,0,0,1,0-2.625H1584.115a1.313,1.313,0,0,1,0,2.625" transform="translate(-57.331 -760.129)" fill="#283250"/>
        <path id="Path_78417" data-name="Path 78417" d="M1357.263,588.1l-34.482,410s-3.613,24.853,14.874,24.9c30.4.073,151.29,0,151.29,0s-22.877-5.174-22.6-16.814c.327-13.721,40.3-421.96,40.3-421.96Z" transform="translate(-677.422 -299.257)" fill="#1362d8"/>
        <path id="Path_78418" data-name="Path 78418" d="M1509.188,1007.743c-5.978.018-121.447.38-151.047,0-12.9-.16-15.162-11.47-15.269-18.789a36.625,36.625,0,0,1,.392-6.1l.9-10.656,2.286-27.16,2.019-24,2.594-30.835,2.185-26.026,24.5-291.331,149.385-3.877s-16.836,170.846-28.745,295.208c-1.33,13.856-2.594,27.143-3.764,39.544q-.569,5.939-1.1,11.6c-1.1,11.766-2.114,22.571-2.992,32.112-.463,5.028-.891,9.7-1.277,13.98-1.52,16.771-2.41,27.48-2.422,29.517a17.215,17.215,0,0,0,.291,3.319c2.452,13.067,19.823,13.494,22.067,13.494" transform="translate(-687.857 -291.444)" fill="#4975ee"/>
        <path id="Path_78419" data-name="Path 78419" d="M650.007,134.777,734,472.153l11.5,46.2L784.617,675.5h726.771L1367.2,134.777Z" transform="translate(-332.953 -69.038)" fill="#a8b2ef"/>
        <path id="Path_78420" data-name="Path 78420" d="M637.78,134.776l-11.64,3.88,130.777,548.58L772.394,675.5Z" transform="translate(-320.728 -69.038)" fill="#4975ee"/>
        <path id="Path_78421" data-name="Path 78421" d="M894.252,1255.075h722.3l19.946-11.736H909.728Z" transform="translate(-458.063 -636.877)" fill="#1362d8"/>
        <rect id="Rectangle_22786" data-name="Rectangle 22786" width="156.388" height="7.431" transform="translate(689.839 716.463)" fill="#a8b6f1"/>
        <path id="Path_78422" data-name="Path 78422" d="M1474.958,575.862,1357.031,141.925H647.623v-7.149H1365.98L1483.513,574.9Z" transform="translate(-331.732 -69.038)" fill="#a8b6f1"/>
        <path id="Path_78423" data-name="Path 78423" d="M1498.087,1267.394l-.807,5.682L1350.2,1302.788l2.018-24,.962-11.4Z" transform="translate(-691.615 -649.199)" fill="#1362d8"/>
        <g id="Group_39878" data-name="Group 39878" transform="translate(655.016 669.969)" opacity="0.4">
          <g id="Group_39877" data-name="Group 39877">
            <g id="Group_39876" data-name="Group 39876" clip-path="url(#clip-path-3)">
              <path id="Path_78424" data-name="Path 78424" d="M1509.193,1419.868c-5.978.018-121.446.38-151.047,0-12.9-.161-15.162-11.47-15.269-18.789l146.381-27.541c-1.52,16.771-2.411,27.48-2.422,29.517a17.2,17.2,0,0,0,.291,3.319c2.452,13.067,19.823,13.494,22.067,13.494" transform="translate(-1342.878 -1373.537)" fill="#1362d8"/>
            </g>
          </g>
        </g>
        <g id="Group_39881" data-name="Group 39881" transform="translate(412.545 449.32)" opacity="0.4">
          <g id="Group_39880" data-name="Group 39880">
            <g id="Group_39879" data-name="Group 39879" clip-path="url(#clip-path-4)">
              <path id="Path_78425" data-name="Path 78425" d="M1204.157,968.853,884.9,1078.318l-39.12-157.142Z" transform="translate(-845.778 -921.175)" fill="#1362d8"/>
            </g>
          </g>
        </g>
        <path id="Path_78426" data-name="Path 78426" d="M650,134.776h717.2l116.366,434.57H754.5Z" transform="translate(-332.952 -69.038)" fill="#699dee"/>
        <path id="Path_78427" data-name="Path 78427" d="M1669.56,1118.07c-2.072-10.658-12.391-19.3-23.049-19.3s-17.618,8.64-15.546,19.3,12.39,19.3,23.048,19.3,17.618-8.64,15.547-19.3" transform="translate(-835.243 -562.826)" fill="#1362d8"/>
        <path id="Path_78428" data-name="Path 78428" d="M1480.939,574.96H809.426L733.379,272.012,727.55,248.78l-4.976-19.816L710.911,182.5h661.835l12.807,46.465,5.464,19.816,6.4,23.232Z" transform="translate(-364.15 -93.483)" fill="#e9f3fe"/>
        <path id="Path_78429" data-name="Path 78429" d="M1385.554,228.964H722.574L710.912,182.5h661.834Z" transform="translate(-364.15 -93.483)" fill="#afcdfb"/>
        <path id="Path_78430" data-name="Path 78430" d="M771.216,213.642c-3.208,0-5.16,2.6-4.361,5.808a7.935,7.935,0,0,0,7.257,5.808c3.208,0,5.16-2.6,4.36-5.808a7.934,7.934,0,0,0-7.257-5.808" transform="translate(-392.714 -109.435)" fill="#e9f3fe"/>
        <path id="Path_78431" data-name="Path 78431" d="M810.783,213.642c-3.208,0-5.16,2.6-4.36,5.808a7.934,7.934,0,0,0,7.257,5.808c3.208,0,5.16-2.6,4.36-5.808a7.934,7.934,0,0,0-7.257-5.808" transform="translate(-412.982 -109.435)" fill="#e9f3fe"/>
        <path id="Path_78432" data-name="Path 78432" d="M860.644,219.45a7.934,7.934,0,0,0-7.256-5.808c-3.208,0-5.16,2.6-4.36,5.808a7.934,7.934,0,0,0,7.257,5.808c3.208,0,5.16-2.6,4.36-5.808" transform="translate(-434.806 -109.435)" fill="#e9f3fe"/>
        <path id="Path_78433" data-name="Path 78433" d="M1782.351,518.982c-4.848-19.444-24.626-35.264-44.089-35.264-9.385,0-17.382,3.621-22.519,10.2-5.351,6.849-6.957,16-4.524,25.757,4.848,19.444,24.627,35.264,44.089,35.264,9.385,0,17.382-3.621,22.519-10.2,5.351-6.849,6.957-16,4.524-25.757m-6.769,24c-4.585,5.869-11.786,9.1-20.274,9.1-18.235,0-36.774-14.85-41.325-33.1-2.217-8.891-.8-17.171,4-23.314,4.585-5.869,11.786-9.1,20.274-9.1,18.236,0,36.773,14.85,41.325,33.1,2.217,8.892.795,17.171-4,23.314" transform="translate(-875.97 -247.776)" fill="#c5367b"/>
        <path id="Path_78434" data-name="Path 78434" d="M1779.972,545.836l-3.544-24.787-.279-1.121h-9.982l.279,1.121,8.816,24.787Z" transform="translate(-904.684 -266.324)" fill="#c5367b"/>
        <path id="Path_78435" data-name="Path 78435" d="M1782.565,582.011l2.237,8.973h9.085l-2.237-8.973Z" transform="translate(-913.084 -298.125)" fill="#c5367b"/>
        <path id="Path_78436" data-name="Path 78436" d="M1826.794,691.624c-4.848-19.444-24.627-35.264-44.089-35.264-9.385,0-17.382,3.621-22.519,10.2-5.351,6.849-6.957,16-4.524,25.757,4.848,19.444,24.626,35.264,44.089,35.264,9.385,0,17.382-3.621,22.519-10.2,5.351-6.849,6.957-16,4.524-25.757m-6.769,24c-4.585,5.868-11.786,9.1-20.274,9.1-18.236,0-36.774-14.851-41.325-33.1-2.217-8.892-.8-17.171,4-23.314,4.585-5.869,11.785-9.1,20.274-9.1,18.235,0,36.773,14.851,41.325,33.1,2.217,8.892.795,17.172-4,23.314" transform="translate(-898.735 -336.209)" fill="#c5367b"/>
        <path id="Path_78437" data-name="Path 78437" d="M1824.415,718.478l-3.544-24.787-.28-1.121h-9.982l.28,1.121,8.815,24.787Z" transform="translate(-927.448 -354.756)" fill="#c5367b"/>
        <path id="Path_78438" data-name="Path 78438" d="M1827.007,754.652l2.237,8.973h9.085l-2.237-8.973Z" transform="translate(-935.848 -386.557)" fill="#c5367b"/>
        <path id="Path_78439" data-name="Path 78439" d="M1974.564,525.389a3.039,3.039,0,0,0,3.012-4.012,5.5,5.5,0,0,0-5.014-4.013H1901.1a3.039,3.039,0,0,0-3.013,4.013,5.5,5.5,0,0,0,5.013,4.012Z" transform="translate(-972.195 -265.011)" fill="#afcdfb"/>
        <path id="Path_78440" data-name="Path 78440" d="M1953.265,412.734a5.5,5.5,0,0,0-5.013-4.012h-71.464a3.039,3.039,0,0,0-3.012,4.012,5.5,5.5,0,0,0,5.013,4.013h71.463a3.039,3.039,0,0,0,3.012-4.013" transform="translate(-959.742 -209.361)" fill="#afcdfb"/>
        <path id="Path_78441" data-name="Path 78441" d="M1982.378,556.728a3.039,3.039,0,0,0,3.012-4.013,5.5,5.5,0,0,0-5.013-4.012h-71.463a3.039,3.039,0,0,0-3.012,4.012,5.5,5.5,0,0,0,5.013,4.013Z" transform="translate(-976.198 -281.064)" fill="#afcdfb"/>
        <path id="Path_78442" data-name="Path 78442" d="M1993.2,584.055a5.5,5.5,0,0,0-5.013-4.013h-71.464a3.039,3.039,0,0,0-3.012,4.013,5.5,5.5,0,0,0,5.013,4.013h71.463a3.039,3.039,0,0,0,3.012-4.013" transform="translate(-980.2 -297.116)" fill="#afcdfb"/>
        <path id="Path_78443" data-name="Path 78443" d="M2019.007,698.031a3.039,3.039,0,0,0,3.012-4.013,5.5,5.5,0,0,0-5.013-4.012h-71.463a3.039,3.039,0,0,0-3.012,4.012,5.5,5.5,0,0,0,5.013,4.013Z" transform="translate(-994.96 -353.443)" fill="#afcdfb"/>
        <path id="Path_78444" data-name="Path 78444" d="M2026.82,729.37a3.039,3.039,0,0,0,3.012-4.013,5.5,5.5,0,0,0-5.013-4.012h-71.463a3.039,3.039,0,0,0-3.012,4.012,5.5,5.5,0,0,0,5.013,4.013Z" transform="translate(-998.962 -369.496)" fill="#afcdfb"/>
        <path id="Path_78445" data-name="Path 78445" d="M2037.646,756.7a5.5,5.5,0,0,0-5.013-4.013h-71.464a3.039,3.039,0,0,0-3.012,4.013,5.5,5.5,0,0,0,5.013,4.013h71.463a3.039,3.039,0,0,0,3.013-4.013" transform="translate(-1002.964 -385.548)" fill="#afcdfb"/>
        <path id="Path_78446" data-name="Path 78446" d="M1409.726,354.35l-4.989-20.006a9.142,9.142,0,0,0-8.333-6.67H823.615c-3.669,0-5.922,3-5.007,6.67L823.6,354.35a9.142,9.142,0,0,0,8.334,6.67h572.789c3.67,0,5.923-3,5.008-6.67" transform="translate(-419.211 -167.846)" fill="#afcdfb"/>
        <path id="Path_78447" data-name="Path 78447" d="M1229.657,327.675l8.314,33.346H831.93a9.142,9.142,0,0,1-8.334-6.67l-4.988-20.005c-.915-3.669,1.338-6.67,5.007-6.67Z" transform="translate(-419.211 -167.846)" fill="#ffb420"/>
        <path id="Path_78448" data-name="Path 78448" d="M1811.07,349.286l.639,2.562h6.337l-3.307,10.922h3.352l3.244-11.249-.557-2.234Z" transform="translate(-927.685 -178.916)" fill="#699dee"/>
        <path id="Path_78449" data-name="Path 78449" d="M1841.753,348.811c-3.583,0-5.246,3.063-4.271,6.973.984,3.949,4.108,6.973,7.71,6.973s5.246-3.063,4.271-6.973c-.984-3.949-4.146-6.973-7.71-6.973m2.81,11.268c-1.792,0-3.423-1.83-4.037-4.3-.625-2.5.085-4.3,1.857-4.3s3.428,1.849,4.037,4.3c.619,2.485-.065,4.3-1.857,4.3" transform="translate(-941.072 -178.673)" fill="#699dee"/>
        <path id="Path_78450" data-name="Path 78450" d="M1891.561,366.556a4.426,4.426,0,0,0-4.115-3.448c-1.964,0-2.91,1.54-2.434,3.448a4.426,4.426,0,0,0,4.115,3.448c1.964,0,2.9-1.56,2.434-3.448m-2.833,1.695c-.77,0-1.468-.79-1.694-1.695-.23-.925,0-1.7.811-1.7.77,0,1.468.79,1.693,1.7s0,1.695-.81,1.695" transform="translate(-965.498 -185.996)" fill="#699dee"/>
        <path id="Path_78451" data-name="Path 78451" d="M1879.087,349.286l-6.481,13.483h2.293l6.481-13.483Z" transform="translate(-959.205 -178.916)" fill="#699dee"/>
        <path id="Path_78452" data-name="Path 78452" d="M1871.055,352.417a4.427,4.427,0,0,0-4.115-3.448c-1.965,0-2.91,1.541-2.434,3.448a4.426,4.426,0,0,0,4.115,3.448c1.965,0,2.9-1.56,2.434-3.448m-4.527,0c-.231-.924,0-1.7.81-1.7.771,0,1.468.79,1.694,1.7s0,1.7-.81,1.7c-.77,0-1.468-.79-1.694-1.7" transform="translate(-954.994 -178.754)" fill="#699dee"/>
        <path id="Path_78453" data-name="Path 78453" d="M1245.646,676.521c4.161,0,6.694-3.373,5.656-7.534a10.292,10.292,0,0,0-9.414-7.535H907.9c-4.161,0-6.694,3.373-5.656,7.535a10.292,10.292,0,0,0,9.413,7.534Z" transform="translate(-462.035 -338.817)" fill="#afcdfb"/>
        <path id="Path_78454" data-name="Path 78454" d="M1258.431,727.8c4.161,0,6.694-3.373,5.656-7.535a10.292,10.292,0,0,0-9.413-7.535H920.681c-4.161,0-6.694,3.373-5.656,7.535a10.292,10.292,0,0,0,9.413,7.535Z" transform="translate(-468.584 -365.085)" fill="#afcdfb"/>
        <path id="Path_78455" data-name="Path 78455" d="M1277.442,773.83a10.293,10.293,0,0,0-9.413-7.534H934.035c-4.161,0-6.694,3.373-5.656,7.534a10.293,10.293,0,0,0,9.413,7.535h333.994c4.162,0,6.694-3.373,5.656-7.535" transform="translate(-475.424 -392.521)" fill="#afcdfb"/>
        <path id="Path_78456" data-name="Path 78456" d="M1212.6,523.2c1.3,5.23,6.6,9.47,11.831,9.47h37.252c5.23,0,8.413-4.24,7.109-9.47l-18.007-72.221c-1.3-5.23-6.6-9.47-11.831-9.47H1201.7c-5.23,0-8.413,4.24-7.109,9.47Z" transform="translate(-611.755 -226.156)" fill="#afcdfb"/>
        <path id="Path_78457" data-name="Path 78457" d="M1344.783,523.2c1.3,5.23,6.6,9.47,11.831,9.47h37.253c5.23,0,8.412-4.24,7.109-9.47l-18.007-72.221c-1.3-5.23-6.6-9.47-11.831-9.47h-37.252c-5.23,0-8.413,4.24-7.109,9.47Z" transform="translate(-679.465 -226.156)" fill="#afcdfb"/>
        <path id="Path_78458" data-name="Path 78458" d="M1474.5,523.2c1.3,5.23,6.6,9.47,11.831,9.47h37.252c5.23,0,8.413-4.24,7.109-9.47l-18.007-72.221c-1.3-5.23-6.6-9.47-11.831-9.47H1463.6c-5.23,0-8.413,4.24-7.109,9.47Z" transform="translate(-745.911 -226.156)" fill="#afcdfb"/>
        <path id="Path_78459" data-name="Path 78459" d="M1024.073,516.8l-14.814-59.416c-2.186-8.767-11.064-15.873-19.83-15.873H863.309c-8.766,0-14.1,7.106-11.915,15.873L866.208,516.8c2.186,8.766,11.064,15.873,19.83,15.873h126.12c8.766,0,14.1-7.107,11.915-15.873" transform="translate(-435.859 -226.156)" fill="#afcdfb"/>
        <path id="Path_78460" data-name="Path 78460" d="M1003.028,480.644a2.736,2.736,0,0,0,2.713-3.613h0a4.952,4.952,0,0,0-4.514-3.613H883.384a2.736,2.736,0,0,0-2.713,3.613h0a4.953,4.953,0,0,0,4.514,3.613Z" transform="translate(-451.05 -242.5)" fill="#699dee"/>
        <path id="Path_78461" data-name="Path 78461" d="M1010.132,509.135a2.736,2.736,0,0,0,2.712-3.613,4.951,4.951,0,0,0-4.514-3.613H890.488a2.736,2.736,0,0,0-2.713,3.613,4.952,4.952,0,0,0,4.514,3.613Z" transform="translate(-454.689 -257.094)" fill="#699dee"/>
        <path id="Path_78462" data-name="Path 78462" d="M1019.948,534.012a4.952,4.952,0,0,0-4.514-3.613H897.591a2.736,2.736,0,0,0-2.712,3.613,4.953,4.953,0,0,0,4.514,3.613h117.843a2.736,2.736,0,0,0,2.712-3.613" transform="translate(-458.327 -271.688)" fill="#699dee"/>
        <path id="Path_78463" data-name="Path 78463" d="M933.349,562.307h-27.8a2.736,2.736,0,0,0-2.713,3.613,4.952,4.952,0,0,0,4.514,3.613h27.8a2.736,2.736,0,0,0,2.712-3.613,4.952,4.952,0,0,0-4.514-3.613" transform="translate(-462.402 -288.032)" fill="#699dee"/>
        <path id="Path_78464" data-name="Path 78464" d="M2117.927,879.623l-7.771-31.165a11.371,11.371,0,0,0-10.4-8.326H2033.6c-4.6,0-7.4,3.728-6.25,8.326l7.77,31.165a11.373,11.373,0,0,0,10.4,8.326h66.153c4.6,0,7.4-3.728,6.25-8.326" transform="translate(-1038.339 -430.342)" fill="#afcdfb"/>
        <path id="Path_78465" data-name="Path 78465" d="M2106.89,860.659a1.435,1.435,0,0,0,1.422-1.9,2.6,2.6,0,0,0-2.367-1.9h-61.813a1.435,1.435,0,0,0-1.423,1.9,2.6,2.6,0,0,0,2.368,1.9Z" transform="translate(-1046.307 -438.916)" fill="#699dee"/>
        <path id="Path_78466" data-name="Path 78466" d="M2110.616,875.6a1.436,1.436,0,0,0,1.423-1.9,2.6,2.6,0,0,0-2.368-1.9h-61.812a1.435,1.435,0,0,0-1.423,1.9,2.6,2.6,0,0,0,2.368,1.9Z" transform="translate(-1048.216 -446.57)" fill="#699dee"/>
        <path id="Path_78467" data-name="Path 78467" d="M2115.764,888.652a2.6,2.6,0,0,0-2.367-1.9h-61.813a1.435,1.435,0,0,0-1.422,1.9,2.6,2.6,0,0,0,2.367,1.9h61.813a1.435,1.435,0,0,0,1.423-1.9" transform="translate(-1050.125 -454.225)" fill="#699dee"/>
        <path id="Path_78468" data-name="Path 78468" d="M2070.339,903.494h-14.583a1.435,1.435,0,0,0-1.423,1.9,2.6,2.6,0,0,0,2.368,1.895h14.582a1.435,1.435,0,0,0,1.423-1.895,2.6,2.6,0,0,0-2.367-1.9" transform="translate(-1052.262 -462.798)" fill="#699dee"/>
        <path id="Path_78469" data-name="Path 78469" d="M1136.743,868.372a2.147,2.147,0,0,0,2.134-2.842,3.883,3.883,0,0,0-3.551-2.842h-125.98a2.147,2.147,0,0,0-2.133,2.842,3.882,3.882,0,0,0,3.55,2.842Z" transform="translate(-515.879 -441.896)" fill="#a8b6f1"/>
        <path id="Path_78470" data-name="Path 78470" d="M1141.566,887.716a2.147,2.147,0,0,0,2.134-2.842,3.882,3.882,0,0,0-3.551-2.842h-125.98a2.147,2.147,0,0,0-2.133,2.842,3.882,3.882,0,0,0,3.55,2.842Z" transform="translate(-518.35 -451.805)" fill="#a8b6f1"/>
        <path id="Path_78471" data-name="Path 78471" d="M1145.185,902.235H1019.2a2.147,2.147,0,0,0-2.133,2.842,3.882,3.882,0,0,0,3.55,2.842H1146.6a2.147,2.147,0,0,0,2.133-2.842,3.882,3.882,0,0,0-3.551-2.842" transform="translate(-520.93 -462.153)" fill="#a8b6f1"/>
        <path id="Path_78472" data-name="Path 78472" d="M1470.06,868.372a2.147,2.147,0,0,0,2.134-2.842,3.882,3.882,0,0,0-3.551-2.842h-125.98a2.147,2.147,0,0,0-2.134,2.842,3.882,3.882,0,0,0,3.551,2.842Z" transform="translate(-686.614 -441.896)" fill="#a8b6f1"/>
        <path id="Path_78473" data-name="Path 78473" d="M1474.882,887.716a2.147,2.147,0,0,0,2.134-2.842,3.882,3.882,0,0,0-3.551-2.842h-125.98a2.147,2.147,0,0,0-2.133,2.842,3.882,3.882,0,0,0,3.55,2.842Z" transform="translate(-689.084 -451.805)" fill="#a8b6f1"/>
        <path id="Path_78474" data-name="Path 78474" d="M1478.5,902.235h-125.98a2.147,2.147,0,0,0-2.133,2.842,3.882,3.882,0,0,0,3.55,2.842h125.98a2.147,2.147,0,0,0,2.134-2.842,3.881,3.881,0,0,0-3.551-2.842" transform="translate(-691.665 -462.153)" fill="#a8b6f1"/>
        <path id="Path_78475" data-name="Path 78475" d="M1793.121,868.372a2.147,2.147,0,0,0,2.133-2.842,3.882,3.882,0,0,0-3.55-2.842H1665.723a2.147,2.147,0,0,0-2.133,2.842,3.882,3.882,0,0,0,3.55,2.842Z" transform="translate(-852.096 -441.896)" fill="#a8b6f1"/>
        <path id="Path_78476" data-name="Path 78476" d="M1797.944,887.716a2.146,2.146,0,0,0,2.132-2.842,3.881,3.881,0,0,0-3.55-2.842h-125.98a2.147,2.147,0,0,0-2.133,2.842,3.881,3.881,0,0,0,3.55,2.842Z" transform="translate(-854.566 -451.805)" fill="#a8b6f1"/>
        <path id="Path_78477" data-name="Path 78477" d="M1805.113,905.077a3.881,3.881,0,0,0-3.551-2.842h-125.98a2.147,2.147,0,0,0-2.134,2.842,3.883,3.883,0,0,0,3.551,2.842h125.98a2.147,2.147,0,0,0,2.134-2.842" transform="translate(-857.146 -462.153)" fill="#a8b6f1"/>
        <path id="Path_78478" data-name="Path 78478" d="M1462.607,889.13H976.782a10.621,10.621,0,0,1-9.715-7.75l-9.7-38.91a6.939,6.939,0,0,1,1.1-6,6.528,6.528,0,0,1,5.29-2.435h485.825a10.621,10.621,0,0,1,9.715,7.75l9.7,38.91a6.937,6.937,0,0,1-1.1,6,6.526,6.526,0,0,1-5.29,2.435M963.755,836.88a3.742,3.742,0,0,0-3.045,1.34,4.069,4.069,0,0,0-.58,3.561l9.7,38.91a7.731,7.731,0,0,0,6.951,5.59h485.825a3.742,3.742,0,0,0,3.045-1.34,4.068,4.068,0,0,0,.579-3.561l-9.7-38.91a7.733,7.733,0,0,0-6.951-5.59Z" transform="translate(-490.267 -427.217)" fill="#a8b6f1"/>
        <path id="Path_78479" data-name="Path 78479" d="M687.422,1019.36c-.08.055-.169.129-.279.211-4.191,3.209-32.679,22.64-96.68,14.034q-.655,3.69-1.226,7.3c-.192,1.206-.382,2.406-.558,3.6s-.353,2.347-.518,3.513l-.011.062c-.167,1.172-.331,2.332-.483,3.494s-.309,2.317-.454,3.474-.283,2.277-.417,3.411l-.01.056c-.127,1.129-.259,2.25-.377,3.368s-.239,2.24-.351,3.359-.221,2.219-.318,3.321-.2,2.191-.286,3.282c-.067.8-.133,1.585-.193,2.376-.054.652-.1,1.3-.142,1.953-.042.552-.078,1.106-.114,1.659-.02.289-.04.578-.055.868-.059.925-.116,1.843-.167,2.763-.056.982-.106,1.966-.155,2.943-.008.189-.016.373-.025.562-.03.733-.065,1.458-.093,2.178-.021.575-.047,1.142-.06,1.713-.063,1.833-.108,3.638-.139,5.433-.015.824-.029,1.643-.035,2.456-.008.965-.015,1.918-.014,2.867,0,.076,0,.146,0,.222,0,.93,0,1.852.017,2.771q0,1.146.029,2.276c0,.65.021,1.3.04,1.935,0,.223.007.453.012.676.019.671.039,1.337.059,2,.024.716.049,1.421.075,2.125q.052,1.145.106,2.272c.038.884.084,1.758.137,2.632,0,.077.009.161.014.238.048.861.105,1.711.162,2.561.061.9.124,1.784.2,2.662s.14,1.762.22,2.629.151,1.738.239,2.594c.081.823.164,1.633.253,2.444.008.1.022.195.03.292.086.792.175,1.571.27,2.351.1.826.2,1.646.306,2.467,0,.02.006.039.007.064.109.809.212,1.616.328,2.419s.226,1.606.35,2.4c0,.02.005.039.007.065.121.779.242,1.552.364,2.324a.084.084,0,0,1,.005.039c.126.786.26,1.561.394,2.336s.273,1.557.415,2.326c.173.947.348,1.882.531,2.812.118.581.23,1.161.349,1.736.149.727.3,1.441.453,2.149l.064.278c.141.668.294,1.338.443,1.995.161.729.331,1.446.507,2.165q.528,2.214,1.092,4.357c.169.654.346,1.3.522,1.939.183.675.37,1.339.562,2,.135.489.277.973.419,1.456s.28.954.429,1.432c.111.376.228.747.345,1.124q.3.98.6,1.941.627,1.926,1.276,3.8c.212.623.432,1.242.652,1.854s.441,1.225.664,1.824q.919,2.475,1.882,4.844c.189.473.384.94.58,1.409.279.673.56,1.341.848,2,.225.517.45,1.035.682,1.548q1.854,4.17,3.816,7.991c.259.5.514,1,.775,1.488q.926,1.751,1.869,3.434c.215.4.443.787.666,1.176.208.363.417.724.626,1.08.242.42.486.832.725,1.238.563.934,1.124,1.85,1.693,2.748.192.315.39.624.584.926q.923,1.444,1.858,2.822.331.5.664.979,2.192,3.19,4.382,6.012c.268.347.543.7.812,1.037q2.115,2.671,4.184,5.028c.438.5.878.992,1.313,1.471.038.039.075.077.112.121.26.283.52.571.782.847,1.56,1.687,3.088,3.234,4.564,4.652.244.235.488.47.733.7.482.463.963.905,1.439,1.334q.681.618,1.331,1.194c.023.016.044.04.066.056q.652.567,1.272,1.1c.717.606,1.415,1.184,2.088,1.725.19.149.373.3.562.445,1.224.971,2.369,1.826,3.417,2.575.316.222.626.444.92.649.878.6,1.674,1.128,2.371,1.566.21.139.41.264.605.382.43.262.808.5,1.142.689.075.045.15.084.219.122s.143.089.213.128c.773.444,1.194.648,1.194.648q6.133-2,11.882-4.407c24.205-10.132,43.351-25.515,58.5-43.341.04-.05.081-.094.115-.145,32.611-38.442,46.635-88.19,52.624-121.127.657-3.647,1.226-7.089,1.706-10.285-64.332-14.639-83.584-43.775-85.6-47.109" transform="translate(-299.276 -522.148)" fill="#ceeddb"/>
        <path id="Path_78480" data-name="Path 78480" d="M769.771,1092.158c-5.46,30.028-18.244,75.382-47.975,110.428-.032.046-.068.086-.105.132-13.813,16.251-31.267,30.275-53.334,39.513q-5.241,2.2-10.832,4.017s-.384-.185-1.088-.59c-.063-.035-.126-.074-.194-.116s-.132-.07-.2-.112c-.3-.177-.649-.389-1.041-.628-.177-.107-.36-.221-.552-.348-.636-.4-1.362-.878-2.161-1.427-.268-.188-.551-.39-.839-.592-.956-.683-2-1.462-3.115-2.347l-.513-.406c-.613-.493-1.249-1.019-1.9-1.572-.377-.323-.762-.66-1.159-1-.02-.015-.04-.036-.06-.051q-.593-.524-1.214-1.089c-.434-.392-.872-.8-1.312-1.217-.223-.209-.446-.422-.668-.636-1.345-1.292-2.738-2.7-4.16-4.241-.239-.252-.476-.515-.714-.772-.033-.041-.068-.076-.1-.111-.4-.437-.8-.886-1.2-1.341q-1.883-2.148-3.814-4.584c-.245-.311-.5-.629-.74-.945q-2-2.578-3.995-5.481-.3-.438-.6-.892-.852-1.258-1.694-2.572c-.177-.276-.358-.558-.533-.844-.52-.818-1.03-1.653-1.544-2.506-.218-.369-.44-.746-.661-1.128-.191-.324-.381-.655-.571-.984-.2-.355-.411-.712-.607-1.073q-.862-1.538-1.7-3.131c-.239-.449-.471-.9-.707-1.357q-1.783-3.478-3.478-7.284c-.212-.468-.417-.939-.622-1.411-.262-.6-.518-1.213-.773-1.827-.179-.426-.357-.853-.529-1.284q-.881-2.159-1.716-4.415c-.2-.547-.4-1.1-.605-1.663s-.4-1.122-.595-1.691q-.588-1.706-1.163-3.463-.277-.877-.551-1.769c-.107-.344-.214-.683-.315-1.026-.136-.436-.267-.865-.391-1.306s-.259-.881-.381-1.327c-.175-.606-.345-1.211-.512-1.827-.161-.586-.322-1.172-.476-1.768q-.518-1.954-1-3.972c-.16-.655-.315-1.31-.462-1.974-.136-.6-.275-1.209-.4-1.818l-.059-.255c-.139-.645-.277-1.3-.413-1.958-.109-.525-.211-1.054-.318-1.583-.166-.848-.326-1.7-.484-2.563-.129-.7-.257-1.409-.378-2.121s-.244-1.413-.359-2.129a.08.08,0,0,0-.005-.036c-.111-.7-.222-1.408-.332-2.118,0-.023,0-.042-.007-.059-.112-.728-.218-1.461-.319-2.192s-.2-1.468-.3-2.205c0-.024,0-.042-.006-.059-.1-.749-.189-1.5-.279-2.249-.087-.711-.167-1.422-.246-2.144-.007-.088-.02-.177-.027-.266-.081-.739-.157-1.478-.231-2.228-.08-.781-.152-1.571-.218-2.365s-.137-1.591-.2-2.4-.121-1.612-.177-2.428c-.052-.775-.1-1.549-.148-2.335,0-.07-.008-.146-.013-.217-.048-.8-.09-1.594-.125-2.4q-.05-1.026-.1-2.071c-.023-.642-.047-1.285-.068-1.938-.019-.607-.037-1.213-.054-1.825,0-.2-.007-.413-.011-.616-.017-.583-.033-1.172-.036-1.764q-.023-1.031-.026-2.076c-.012-.837-.011-1.678-.015-2.525,0-.07,0-.134,0-.2,0-.865.005-1.734.013-2.614.006-.741.019-1.487.032-2.239.028-1.636.069-3.282.126-4.953.012-.52.036-1.037.055-1.562.025-.657.058-1.318.085-1.986.008-.172.015-.339.022-.512.045-.891.09-1.788.141-2.683.047-.839.1-1.676.152-2.518.013-.264.031-.528.05-.792.033-.5.066-1.009.1-1.512.037-.591.08-1.186.129-1.781.054-.721.114-1.44.176-2.167.08-.995.168-1.994.26-2.992s.188-2.013.29-3.028.2-2.039.32-3.062.228-2.041.344-3.07l.009-.05c.122-1.034.244-2.068.38-3.11s.27-2.109.414-3.168.288-2.117.44-3.186l.01-.056q.226-1.6.473-3.2c.16-1.085.334-2.179.509-3.278.348-2.193.72-4.418,1.118-6.66,58.347,7.845,84.319-9.87,88.14-12.8.1-.074.182-.141.255-.191,1.836,3.039,19.387,29.6,78.037,42.947-.438,2.914-.957,6.051-1.555,9.376" transform="translate(-306.949 -532.636)" fill="#1cb799"/>
        <path id="Path_78481" data-name="Path 78481" d="M693.541,1039.4l-37.1,206.033c-.384-.219-.866-.5-1.435-.855-.178-.107-.36-.221-.552-.349-.636-.4-1.362-.877-2.162-1.427-.268-.188-.551-.39-.838-.592-.956-.682-2-1.462-3.115-2.347-.173-.136-.34-.27-.513-.405-.613-.493-1.249-1.019-1.9-1.573-.377-.323-.763-.659-1.159-1-.02-.015-.04-.036-.06-.051q-.593-.525-1.214-1.089c-.434-.391-.872-.8-1.312-1.217-.223-.209-.446-.422-.668-.637-1.345-1.292-2.737-2.7-4.16-4.241-.239-.252-.476-.515-.714-.772-.034-.041-.068-.076-.1-.111-.4-.437-.8-.886-1.2-1.341q-1.883-2.149-3.814-4.585c-.246-.311-.5-.629-.74-.945q-2-2.579-3.995-5.481-.3-.438-.605-.892-.852-1.258-1.694-2.572c-.177-.276-.357-.558-.532-.844-.52-.818-1.031-1.653-1.544-2.505-.218-.37-.44-.746-.661-1.128-.191-.324-.381-.655-.571-.984-.2-.356-.411-.712-.607-1.073q-.863-1.538-1.7-3.131c-.238-.449-.471-.9-.707-1.357q-1.783-3.478-3.479-7.284c-.212-.468-.417-.939-.621-1.411-.262-.6-.519-1.213-.773-1.827-.178-.426-.357-.853-.529-1.284q-.881-2.159-1.716-4.415c-.2-.547-.4-1.1-.6-1.663s-.4-1.122-.595-1.691q-.589-1.706-1.163-3.463-.277-.877-.551-1.769c-.106-.344-.214-.683-.314-1.026-.136-.436-.267-.865-.391-1.306s-.259-.881-.381-1.327c-.175-.606-.345-1.211-.512-1.826-.161-.586-.322-1.172-.476-1.768q-.518-1.954-1-3.972c-.16-.655-.316-1.309-.462-1.974-.136-.6-.275-1.209-.4-1.818l-.059-.255c-.139-.645-.277-1.3-.413-1.958-.109-.525-.211-1.053-.318-1.583-.167-.848-.326-1.7-.484-2.563-.129-.7-.257-1.409-.378-2.121s-.244-1.413-.359-2.129a.086.086,0,0,0-.005-.036c-.111-.7-.222-1.408-.332-2.118,0-.023,0-.042-.007-.059-.113-.728-.219-1.461-.319-2.192s-.2-1.468-.3-2.205a.537.537,0,0,0-.007-.059c-.1-.749-.189-1.5-.279-2.249-.087-.711-.168-1.422-.246-2.144-.007-.088-.021-.177-.027-.266-.081-.74-.158-1.478-.231-2.228-.08-.781-.152-1.571-.218-2.365s-.137-1.591-.2-2.4-.121-1.612-.178-2.428c-.052-.775-.1-1.549-.148-2.335,0-.07-.008-.146-.013-.217-.048-.8-.09-1.594-.124-2.4q-.05-1.026-.1-2.071c-.023-.642-.047-1.285-.068-1.938-.019-.607-.037-1.213-.054-1.825,0-.2-.007-.413-.011-.617-.017-.583-.033-1.172-.037-1.764q-.023-1.031-.026-2.075c-.012-.837-.011-1.678-.015-2.525,0-.07,0-.134,0-.2,0-.865,0-1.734.013-2.614.006-.741.018-1.487.032-2.239.028-1.636.069-3.281.126-4.953.013-.52.037-1.038.055-1.562.026-.656.058-1.318.085-1.985.008-.173.015-.34.022-.512.044-.891.09-1.788.141-2.683.047-.839.1-1.676.152-2.518.013-.264.031-.528.05-.792.033-.5.065-1.009.1-1.513.037-.591.081-1.186.13-1.78.054-.721.114-1.44.175-2.167.081-.995.168-1.994.26-2.992s.189-2.013.29-3.028.2-2.039.319-3.063.228-2.041.344-3.07l.009-.05c.122-1.034.245-2.068.38-3.11s.269-2.109.414-3.167.289-2.117.44-3.187l.01-.056q.226-1.6.472-3.2c.161-1.085.335-2.179.509-3.278.349-2.193.72-4.418,1.118-6.66,63.494,8.54,88.647-13.2,88.647-13.2" transform="translate(-306.948 -532.415)" fill="#27e0c0"/>
      </g>
    </g>
  </g>
</svg>
