<svg id="ac-notworking" xmlns="http://www.w3.org/2000/svg" xmlns:xlink="http://www.w3.org/1999/xlink" width="51.983" height="50" viewBox="0 0 51.983 50">
  <defs>
    <clipPath id="clip-path">
      <rect id="Rectangle_1208" data-name="Rectangle 1208" width="51.983" height="50" fill="none" stroke="#164584" stroke-width="2.2"/>
    </clipPath>
  </defs>
  <g id="Group_274" data-name="Group 274" transform="translate(0 0)" clip-path="url(#clip-path)">
    <path id="Path_261" data-name="Path 261" d="M47.2,20.815a21.172,21.172,0,0,0-2.943-6.2l1.909-4.474a.4.4,0,0,0-.1-.452L41.745,5.773a.4.4,0,0,0-.46-.053l-4.26,2.346a21.2,21.2,0,0,0-6.464-2.309L28.748,1.25A.4.4,0,0,0,28.357,1l-5.826.291a.4.4,0,0,0-.364.288L20.815,6.248a21.172,21.172,0,0,0-6.2,2.943L10.14,7.282a.4.4,0,0,0-.452.1L5.774,11.708a.4.4,0,0,0-.053.46l2.346,4.26a21.219,21.219,0,0,0-2.309,6.464L1.25,24.7A.4.4,0,0,0,1,25.1l.291,5.826a.4.4,0,0,0,.288.364l4.669,1.352a21.172,21.172,0,0,0,2.943,6.2L7.284,43.311a.4.4,0,0,0,.1.452l4.326,3.914a.4.4,0,0,0,.46.053l4.26-2.346a21.2,21.2,0,0,0,6.464,2.309" transform="translate(0.61 0.61)" fill="none" stroke="#164584" stroke-miterlimit="10" stroke-width="2.2"/>
    <line id="Line_106" data-name="Line 106" y2="8.441" transform="translate(37.284 26.999)" fill="none" stroke="#164584" stroke-width="2.2"/>
    <line id="Line_107" data-name="Line 107" y2="1.83" transform="translate(37.284 37.507)" fill="none" stroke="#164584" stroke-width="2.2"/>
    <path id="Path_262" data-name="Path 262" d="M26.42,13.008a2.041,2.041,0,0,1,3.535,0l5.833,10.1,5.831,10.1a2.041,2.041,0,0,1-1.768,3.062H16.524a2.041,2.041,0,0,1-1.768-3.062l5.831-10.1Z" transform="translate(8.831 7.311)" fill="none" stroke="#164584" stroke-width="2.2"/>
    <path id="Path_263" data-name="Path 263" d="M13.732,25.13A8.024,8.024,0,0,1,21.257,12.1" transform="translate(7.25 7.311)" fill="none" stroke="#164584" stroke-width="2.2"/>
  </g>
</svg>
