<svg width="80" height="80" viewBox="0 0 80 80" fill="none" xmlns="http://www.w3.org/2000/svg">
<rect width="80" height="80" fill="white"/>
<path fill-rule="evenodd" clip-rule="evenodd" d="M70.2546 76.3244H22.024C19.9618 76.3244 18.2783 74.683 18.2783 72.5787V60.3317C18.2783 59.8687 18.615 59.5741 18.9938 59.5321V49.6418C18.615 49.5577 18.2783 49.3051 18.2783 48.8001V19.1715C18.2783 18.9611 18.3625 18.7507 18.5308 18.5823L31.83 4.77809C31.9563 4.60975 32.2088 4.52557 32.4192 4.52557H70.2546C72.3168 4.52557 74.0003 6.20902 74.0003 8.27123V72.6208C74.0003 74.683 72.3168 76.3244 70.2546 76.3244Z" fill="url(#paint0_linear_18_530)"/>
<path fill-rule="evenodd" clip-rule="evenodd" d="M18.2779 20.0226C18.2779 19.4334 18.1937 18.9284 18.5304 18.5917L31.8296 4.78744C32.1663 4.45075 32.6713 4.53493 33.2605 4.53493V15.4352C33.2605 17.9604 31.1983 20.0226 28.6732 20.0226H18.2779Z" fill="url(#paint1_linear_18_530)"/>
<path fill-rule="evenodd" clip-rule="evenodd" d="M67.4767 20.7708H42.5196C42.0567 20.7708 41.6779 20.392 41.6779 19.9291V13.7845C41.6779 13.3216 42.0567 12.9428 42.5196 12.9428H67.4767C67.9396 12.9428 68.3184 13.3216 68.3184 13.7845V19.9291C68.3184 20.392 67.9817 20.7708 67.4767 20.7708ZM67.4767 28.0938H53.7566C52.6624 28.0938 52.6624 26.4103 53.7566 26.4103H67.4767C68.613 26.4103 68.613 28.0938 67.4767 28.0938ZM67.4767 35.4168H55.1454C54.0512 35.4168 54.0512 33.7333 55.1454 33.7333H67.4767C68.613 33.7333 68.613 35.4168 67.4767 35.4168ZM67.4767 42.7397H53.7566C52.6624 42.7397 52.6624 41.0563 53.7566 41.0563H67.4767C68.613 41.0563 68.613 42.7397 67.4767 42.7397ZM67.4767 50.0627H49.548C48.4538 50.0627 48.4538 48.3793 49.548 48.3793H67.4767C68.613 48.3793 68.613 50.0627 67.4767 50.0627ZM67.4767 57.4278H34.1024C33.0082 57.4278 33.0082 55.7443 34.1024 55.7443H67.4767C68.613 55.7443 68.613 57.4278 67.4767 57.4278ZM67.4767 64.7508H34.1024C33.0082 64.7508 33.0082 63.0673 34.1024 63.0673H67.4767C68.613 63.0673 68.613 64.7508 67.4767 64.7508Z" fill="#DBE5FF"/>
<path fill-rule="evenodd" clip-rule="evenodd" d="M25.727 52.9666C25.0536 52.9666 24.6748 52.209 25.0536 51.6619L21.5184 48.3792C20.7608 48.758 20.0033 47.6637 20.6346 47.0324L23.4543 44.2127C24.1698 43.4551 25.3061 44.5073 24.7169 45.3069L28.0417 48.6317C28.7993 48.0425 29.8935 49.1367 29.136 49.9364C28.3363 50.736 26.4004 52.9666 25.727 52.9666Z" fill="#99B4CD"/>
<path fill-rule="evenodd" clip-rule="evenodd" d="M36.3748 52.4195C22.6547 52.4195 15.7526 35.7534 25.4324 26.0315C35.1964 16.3097 51.8625 23.2539 51.8625 36.9739C51.8625 45.6016 44.8762 52.4195 36.3748 52.4195Z" fill="#96B3FF"/>
<path fill-rule="evenodd" clip-rule="evenodd" d="M11.6705 68.6648C8.55616 68.6648 2.45368 62.5202 5.56805 59.7425L20.2982 46.6117C20.6349 46.3171 21.1399 46.3592 21.4766 46.6538L26.6953 51.8724C27.0319 52.2091 27.0319 52.7142 26.7373 53.0508L13.6065 67.781C13.1015 68.3702 12.4281 68.6648 11.6705 68.6648Z" fill="#1F268C"/>
<path fill-rule="evenodd" clip-rule="evenodd" d="M6.78857 58.6482L8.05116 57.5119L15.8371 65.2978L14.7008 66.5604L6.78857 58.6482Z" fill="#DBE5FF"/>
<path fill-rule="evenodd" clip-rule="evenodd" d="M36.3751 23.3381C24.2964 23.3381 18.1939 38.0261 26.7795 46.6117C35.323 55.1551 50.011 49.0106 50.011 36.974C50.011 29.4406 43.9085 23.3381 36.3751 23.3381Z" fill="#DEF0FF"/>
<path fill-rule="evenodd" clip-rule="evenodd" d="M29.8938 44.9282H42.4775C42.8563 44.9282 43.193 44.6336 43.193 44.2128V40.0042C42.8984 38.0682 40.0786 36.6373 38.3531 36.6373H34.0182C32.0402 36.6373 29.1362 38.4049 29.1362 40.1304V44.2128C29.1783 44.5915 29.4729 44.9282 29.8938 44.9282Z" fill="#4650EB"/>
<path fill-rule="evenodd" clip-rule="evenodd" d="M32.2085 44.9282H33.6815V40.5933C33.6815 39.6253 32.2085 39.6253 32.2085 40.5933V44.9282ZM39.1106 44.9282H40.5836V40.5933C40.5836 39.6253 39.1106 39.6253 39.1106 40.5933V44.9282Z" fill="#DBE5FF"/>
<path fill-rule="evenodd" clip-rule="evenodd" d="M39.9099 30.1139C40.0783 30.1139 40.2045 29.9876 40.2045 29.9876V28.7251C40.5833 28.3463 41.383 27.7571 40.8358 27.1258C40.0362 26.1157 38.4369 25.3582 36.9218 25.3161C35.9118 25.274 34.9859 25.5686 34.3125 26.1578C33.5129 26.3262 32.124 26.9995 32.124 29.0197V30.0718C32.1661 31.5027 35.7434 28.7671 38.3528 29.7772C39.0261 30.0718 38.7736 30.1981 39.9099 30.1139Z" fill="#333333"/>
<path fill-rule="evenodd" clip-rule="evenodd" d="M36.1644 35.6692C38.3949 35.6692 40.2046 33.6491 40.2046 31.166C40.2046 30.7872 40.2467 30.3243 40.2046 29.9455C39.8258 27.0416 32.2924 28.8933 32.1241 30.1138C31.8295 32.8494 33.4288 35.6692 36.1644 35.6692Z" fill="#FFAF8A"/>
<defs>
<linearGradient id="paint0_linear_18_530" x1="24.1094" y1="7.32481" x2="74.0003" y2="79.3896" gradientUnits="userSpaceOnUse">
<stop stop-color="#6889FF"/>
<stop offset="1" stop-color="#2933CB"/>
</linearGradient>
<linearGradient id="paint1_linear_18_530" x1="22.7232" y1="6.86286" x2="31.0384" y2="19.7976" gradientUnits="userSpaceOnUse">
<stop stop-color="#FAFBFF"/>
<stop offset="1" stop-color="#C7CFE2"/>
</linearGradient>
</defs>
</svg>
