<svg width="80" height="80" viewBox="0 0 80 80" fill="none" xmlns="http://www.w3.org/2000/svg">
<rect width="80" height="80" fill="white"/>
<path d="M70.2154 27.3299V66.1827H12.7853C10.1424 66.1827 8 64.0402 8 61.3973V27.3299L41.5005 15.3661L70.2154 27.3299Z" fill="url(#paint0_linear_18_531)"/>
<path d="M16.4519 36.9003H13.9097C13.6122 36.9003 13.3269 36.7822 13.1166 36.5718C12.9063 36.3615 12.7881 36.0762 12.7881 35.7787V33.2365C12.7881 32.9391 12.9063 32.6538 13.1166 32.4434C13.3269 32.2331 13.6122 32.1149 13.9097 32.1149H16.4519C16.7494 32.1149 17.0346 32.2331 17.245 32.4434C17.4553 32.6538 17.5735 32.9391 17.5735 33.2365V35.7787C17.5735 36.0762 17.4553 36.3615 17.245 36.5718C17.0346 36.7822 16.7494 36.9003 16.4519 36.9003ZM26.0228 36.9003H23.4806C23.1832 36.9003 22.8979 36.7822 22.6875 36.5718C22.4772 36.3615 22.359 36.0762 22.359 35.7787V33.2365C22.359 32.9391 22.4772 32.6538 22.6875 32.4434C22.8979 32.2331 23.1832 32.1149 23.4806 32.1149H26.0228C26.3203 32.1149 26.6056 32.2331 26.8159 32.4434C27.0263 32.6538 27.1444 32.9391 27.1444 33.2365V35.7787C27.1444 36.0762 27.0263 36.3615 26.8159 36.5718C26.6056 36.7822 26.3203 36.9003 26.0228 36.9003ZM35.5937 36.9003H33.0514C32.754 36.9003 32.4687 36.7822 32.2584 36.5718C32.048 36.3615 31.9298 36.0762 31.9298 35.7787V33.2365C31.9298 32.9391 32.048 32.6538 32.2584 32.4434C32.4687 32.2331 32.754 32.1149 33.0514 32.1149H35.5937C35.8911 32.1149 36.1764 32.2331 36.3867 32.4434C36.5971 32.6538 36.7152 32.9391 36.7152 33.2365V35.7787C36.7152 36.0762 36.5971 36.3615 36.3867 36.5718C36.1764 36.7822 35.8911 36.9003 35.5937 36.9003ZM45.1646 36.9003H42.6224C42.3249 36.9003 42.0396 36.7822 41.8293 36.5718C41.619 36.3615 41.5008 36.0762 41.5008 35.7787V33.2365C41.5008 32.9391 41.619 32.6538 41.8293 32.4434C42.0396 32.2331 42.3249 32.1149 42.6224 32.1149H45.1646C45.4621 32.1149 45.7474 32.2331 45.9577 32.4434C46.168 32.6538 46.2862 32.9391 46.2862 33.2365V35.7787C46.2862 36.0762 46.168 36.3615 45.9577 36.5718C45.7474 36.7822 45.4621 36.9003 45.1646 36.9003ZM54.7339 36.9003H52.1916C51.8942 36.9003 51.6089 36.7822 51.3986 36.5718C51.1882 36.3615 51.0701 36.0762 51.0701 35.7787V33.2365C51.0701 32.9391 51.1882 32.6538 51.3986 32.4434C51.6089 32.2331 51.8942 32.1149 52.1916 32.1149H54.7339C55.0313 32.1149 55.3166 32.2331 55.527 32.4434C55.7373 32.6538 55.8555 32.9391 55.8555 33.2365V35.7787C55.8555 36.0762 55.7373 36.3615 55.527 36.5718C55.3166 36.7822 55.0313 36.9003 54.7339 36.9003ZM64.3048 36.9003H61.7626C61.4651 36.9003 61.1799 36.7822 60.9695 36.5718C60.7592 36.3615 60.641 36.0762 60.641 35.7787V33.2365C60.641 32.9391 60.7592 32.6538 60.9695 32.4434C61.1799 32.2331 61.4651 32.1149 61.7626 32.1149H64.3048C64.6023 32.1149 64.8876 32.2331 65.0979 32.4434C65.3082 32.6538 65.4264 32.9391 65.4264 33.2365V35.7787C65.4264 36.0762 65.3082 36.3615 65.0979 36.5718C64.8876 36.7822 64.6023 36.9003 64.3048 36.9003ZM16.4519 46.4711H13.9097C13.6122 46.4711 13.3269 46.353 13.1166 46.1426C12.9063 45.9323 12.7881 45.647 12.7881 45.3496V42.8073C12.7881 42.5099 12.9063 42.2246 13.1166 42.0142C13.3269 41.8039 13.6122 41.6857 13.9097 41.6857H16.4519C16.7494 41.6857 17.0346 41.8039 17.245 42.0142C17.4553 42.2246 17.5735 42.5099 17.5735 42.8073V45.3496C17.5735 45.647 17.4553 45.9323 17.245 46.1426C17.0346 46.353 16.7494 46.4711 16.4519 46.4711ZM26.0228 46.4711H23.4806C23.1832 46.4711 22.8979 46.353 22.6875 46.1426C22.4772 45.9323 22.359 45.647 22.359 45.3496V42.8073C22.359 42.5099 22.4772 42.2246 22.6875 42.0142C22.8979 41.8039 23.1832 41.6857 23.4806 41.6857H26.0228C26.3203 41.6857 26.6056 41.8039 26.8159 42.0142C27.0263 42.2246 27.1444 42.5099 27.1444 42.8073V45.3496C27.1444 45.647 27.0263 45.9323 26.8159 46.1426C26.6056 46.353 26.3203 46.4711 26.0228 46.4711ZM35.5937 46.4711H33.0514C32.754 46.4711 32.4687 46.353 32.2584 46.1426C32.048 45.9323 31.9298 45.647 31.9298 45.3496V42.8073C31.9298 42.5099 32.048 42.2246 32.2584 42.0142C32.4687 41.8039 32.754 41.6857 33.0514 41.6857H35.5937C35.8911 41.6857 36.1764 41.8039 36.3867 42.0142C36.5971 42.2246 36.7152 42.5099 36.7152 42.8073V45.3496C36.7152 45.647 36.5971 45.9323 36.3867 46.1426C36.1764 46.353 35.8911 46.4711 35.5937 46.4711ZM46.2862 46.4711V42.8821C46.2862 42.725 46.2553 42.5694 46.1951 42.4242C46.135 42.2791 46.0469 42.1472 45.9358 42.0361C45.8247 41.925 45.6928 41.8369 45.5477 41.7768C45.4025 41.7167 45.247 41.6857 45.0899 41.6857H42.6971C42.3798 41.6857 42.0755 41.8118 41.8512 42.0361C41.6268 42.2605 41.5008 42.5648 41.5008 42.8821V45.2748C41.5008 45.5921 41.6268 45.8964 41.8512 46.1208C42.0755 46.3451 42.3798 46.4711 42.6971 46.4711H46.2862ZM16.4519 56.0421H13.9097C13.6122 56.0421 13.3269 55.9239 13.1166 55.7136C12.9063 55.5033 12.7881 55.218 12.7881 54.9205V52.3783C12.7881 52.0808 12.9063 51.7955 13.1166 51.5852C13.3269 51.3749 13.6122 51.2567 13.9097 51.2567H16.4519C16.7494 51.2567 17.0346 51.3749 17.245 51.5852C17.4553 51.7955 17.5735 52.0808 17.5735 52.3783V54.9205C17.5735 55.218 17.4553 55.5033 17.245 55.7136C17.0346 55.9239 16.7494 56.0421 16.4519 56.0421ZM26.0228 56.0421H23.4806C23.1832 56.0421 22.8979 55.9239 22.6875 55.7136C22.4772 55.5033 22.359 55.218 22.359 54.9205V52.3783C22.359 52.0808 22.4772 51.7955 22.6875 51.5852C22.8979 51.3749 23.1832 51.2567 23.4806 51.2567H26.0228C26.3203 51.2567 26.6056 51.3749 26.8159 51.5852C27.0263 51.7955 27.1444 52.0808 27.1444 52.3783V54.9205C27.1444 55.218 27.0263 55.5033 26.8159 55.7136C26.6056 55.9239 26.3203 56.0421 26.0228 56.0421ZM35.5937 56.0421H33.0514C32.754 56.0421 32.4687 55.9239 32.2584 55.7136C32.048 55.5033 31.9298 55.218 31.9298 54.9205V52.3783C31.9298 52.0808 32.048 51.7955 32.2584 51.5852C32.4687 51.3749 32.754 51.2567 33.0514 51.2567H35.5937C35.8911 51.2567 36.1764 51.3749 36.3867 51.5852C36.5971 51.7955 36.7152 52.0808 36.7152 52.3783V54.9205C36.7152 55.218 36.5971 55.5033 36.3867 55.7136C36.1764 55.9239 35.8911 56.0421 35.5937 56.0421Z" fill="#3C58A0"/>
<path d="M64.2682 32.1148H61.7937C61.644 32.1148 61.5014 32.1442 61.37 32.196C61.5857 32.2809 61.7708 32.4288 61.9013 32.6204C62.0318 32.812 62.1016 33.0384 62.1017 33.2702V35.7447C62.1017 36.2331 61.7982 36.6498 61.37 36.8189C61.5014 36.8708 61.644 36.9002 61.7937 36.9002H64.2682C64.5746 36.9002 64.8685 36.7785 65.0852 36.5618C65.3019 36.3451 65.4237 36.0513 65.4237 35.7448V33.2703C65.4237 32.9639 65.3019 32.67 65.0852 32.4533C64.8685 32.2366 64.5747 32.1148 64.2682 32.1148ZM54.6973 32.1148H52.2227C52.073 32.1148 51.9304 32.1442 51.7991 32.196C52.0147 32.2809 52.1999 32.4288 52.3304 32.6204C52.4609 32.812 52.5307 33.0384 52.5308 33.2702V35.7447C52.5308 36.2331 52.2272 36.6498 51.7991 36.8189C51.9304 36.8708 52.073 36.9002 52.2227 36.9002H54.6973C54.849 36.9002 54.9992 36.8704 55.1394 36.8123C55.2796 36.7542 55.407 36.6691 55.5143 36.5619C55.6216 36.4546 55.7067 36.3272 55.7647 36.187C55.8228 36.0468 55.8526 35.8966 55.8526 35.7448V33.2703C55.8526 33.1186 55.8228 32.9683 55.7647 32.8281C55.7067 32.6879 55.6216 32.5606 55.5143 32.4533C55.407 32.346 55.2796 32.2608 55.1394 32.2028C54.9992 32.1447 54.849 32.1148 54.6973 32.1148ZM45.128 32.1148H42.6535C42.5037 32.1148 42.3612 32.1442 42.2298 32.196C42.6581 32.3651 42.9616 32.7817 42.9616 33.2702V35.7447C42.9616 36.2331 42.6581 36.6498 42.2298 36.8189C42.3612 36.8708 42.5037 36.9002 42.6535 36.9002H45.128C45.4344 36.9002 45.7283 36.7785 45.945 36.5618C46.1617 36.3451 46.2835 36.0513 46.2835 35.7448V33.2703C46.2835 32.9639 46.1617 32.67 45.945 32.4533C45.7283 32.2366 45.4344 32.1148 45.128 32.1148ZM35.557 32.1148H33.0825C32.9328 32.1148 32.7902 32.1442 32.6588 32.196C33.0872 32.3651 33.3907 32.7817 33.3907 33.2702V35.7447C33.3907 36.2331 33.0872 36.6498 32.6588 36.8189C32.7902 36.8708 32.9328 36.9002 33.0825 36.9002H35.557C35.8635 36.9002 36.1574 36.7785 36.3741 36.5618C36.5908 36.3451 36.7125 36.0513 36.7126 35.7448V33.2703C36.7125 32.9639 36.5908 32.67 36.3741 32.4533C36.1574 32.2366 35.8635 32.1148 35.557 32.1148ZM25.9861 32.1148H23.5116C23.3618 32.1148 23.2193 32.1442 23.0879 32.196C23.3036 32.2809 23.4887 32.4288 23.6192 32.6204C23.7497 32.812 23.8195 33.0384 23.8196 33.2702V35.7447C23.8196 36.2331 23.5161 36.6498 23.0879 36.8189C23.2193 36.8708 23.3618 36.9002 23.5116 36.9002H25.9861C26.2925 36.9002 26.5864 36.7785 26.8031 36.5618C27.0198 36.3451 27.1416 36.0513 27.1416 35.7448V33.2703C27.1416 32.9639 27.0199 32.67 26.8032 32.4532C26.5865 32.2365 26.2925 32.1148 25.9861 32.1148ZM16.4153 32.1148H13.9408C13.791 32.1148 13.6485 32.1442 13.5171 32.196C13.9454 32.3651 14.2489 32.7817 14.2489 33.2702V35.7447C14.2489 36.2331 13.9454 36.6498 13.5171 36.8189C13.6485 36.8708 13.791 36.9002 13.9408 36.9002H16.4153C16.7217 36.9002 17.0156 36.7785 17.2323 36.5618C17.449 36.3451 17.5708 36.0513 17.5708 35.7448V33.2703C17.5708 32.9639 17.449 32.67 17.2323 32.4533C17.0156 32.2366 16.7217 32.1148 16.4153 32.1148ZM16.4153 41.6858H13.9408C13.791 41.6858 13.6485 41.7152 13.5171 41.7669C13.9454 41.936 14.2489 42.3527 14.2489 42.8411V45.3158C14.2489 45.8042 13.9454 46.2209 13.5171 46.39C13.6485 46.4419 13.791 46.4713 13.9408 46.4713H16.4153C16.7217 46.4713 17.0156 46.3496 17.2323 46.1329C17.449 45.9162 17.5708 45.6224 17.5708 45.3159V42.8413C17.5708 42.5348 17.449 42.2409 17.2323 42.0242C17.0156 41.8075 16.7217 41.6858 16.4153 41.6858ZM16.4153 51.2567H13.9408C13.791 51.2567 13.6485 51.2862 13.5171 51.3379C13.9454 51.507 14.2489 51.9236 14.2489 52.4121V54.8867C14.2489 55.3752 13.9454 55.7919 13.5171 55.9609C13.6485 56.0128 13.791 56.0423 13.9408 56.0423H16.4153C16.7217 56.0423 17.0156 55.9205 17.2323 55.7039C17.449 55.4872 17.5708 55.1933 17.5708 54.8869V52.4122C17.5708 52.1058 17.449 51.8119 17.2323 51.5952C17.0156 51.3785 16.7217 51.2567 16.4153 51.2567ZM25.9861 41.6858H23.5116C23.3618 41.6858 23.2193 41.7152 23.0879 41.7669C23.3036 41.8519 23.4887 41.9997 23.6192 42.1913C23.7497 42.3829 23.8195 42.6093 23.8196 42.8411V45.3158C23.8196 45.8042 23.5161 46.2209 23.0879 46.39C23.2193 46.4419 23.3618 46.4713 23.5116 46.4713H25.9861C26.2925 46.4713 26.5864 46.3496 26.8031 46.1329C27.0198 45.9162 27.1416 45.6224 27.1416 45.3159V42.8413C27.1416 42.5348 27.0199 42.2409 26.8032 42.0242C26.5865 41.8075 26.2925 41.6858 25.9861 41.6858ZM25.9861 51.2567H23.5116C23.3618 51.2567 23.2193 51.2862 23.0879 51.3379C23.3036 51.4228 23.4887 51.5707 23.6192 51.7623C23.7497 51.9539 23.8195 52.1803 23.8196 52.4121V54.8867C23.8196 55.3752 23.5161 55.7919 23.0879 55.9609C23.2193 56.0128 23.3618 56.0423 23.5116 56.0423H25.9861C26.2925 56.0423 26.5864 55.9205 26.8031 55.7039C27.0198 55.4872 27.1416 55.1933 27.1416 54.8869V52.4122C27.1416 52.2605 27.1117 52.1102 27.0537 51.97C26.9956 51.8298 26.9105 51.7024 26.8032 51.5951C26.6959 51.4878 26.5685 51.4027 26.4283 51.3446C26.2881 51.2866 26.1378 51.2567 25.9861 51.2567ZM35.557 41.6858H33.0825C32.9328 41.6858 32.7902 41.7152 32.6588 41.7669C33.0872 41.936 33.3907 42.3527 33.3907 42.8411V45.3158C33.3907 45.8042 33.0872 46.2209 32.6588 46.39C32.7902 46.4419 32.9328 46.4713 33.0825 46.4713H35.557C35.8635 46.4713 36.1574 46.3496 36.3741 46.1329C36.5908 45.9162 36.7125 45.6224 36.7126 45.3159V42.8413C36.7125 42.5348 36.5908 42.2409 36.3741 42.0242C36.1574 41.8075 35.8635 41.6858 35.557 41.6858ZM46.2834 46.4712V42.8411C46.2834 42.6894 46.2535 42.5391 46.1954 42.399C46.1373 42.2588 46.0522 42.1314 45.9449 42.0241C45.8376 41.9168 45.7102 41.8317 45.57 41.7737C45.4298 41.7156 45.2796 41.6857 45.1278 41.6858H42.6533C42.5036 41.6858 42.361 41.7152 42.2297 41.7669C42.658 41.936 42.9615 42.3527 42.9615 42.8411V45.3158C42.9615 45.8042 42.658 46.2209 42.2297 46.39C42.361 46.4419 42.5036 46.4713 42.6533 46.4713H46.2834V46.4712ZM35.557 51.2567H33.0825C32.9328 51.2567 32.7902 51.2862 32.6588 51.3379C33.0872 51.507 33.3907 51.9236 33.3907 52.4121V54.8867C33.3907 55.3752 33.0872 55.7919 32.6588 55.9609C32.7902 56.0128 32.9328 56.0423 33.0825 56.0423H35.557C35.8635 56.0423 36.1574 55.9205 36.3741 55.7039C36.5908 55.4872 36.7125 55.1933 36.7126 54.8869V52.4122C36.7126 52.2605 36.6827 52.1102 36.6246 51.97C36.5665 51.8298 36.4814 51.7025 36.3741 51.5952C36.2668 51.4879 36.1394 51.4027 35.9992 51.3447C35.859 51.2866 35.7088 51.2567 35.557 51.2567Z" fill="#2A428C"/>
<path d="M70.2154 27.3295V15.3658C70.2154 12.7229 68.0729 10.5805 65.4302 10.5805H12.7853C10.1424 10.5805 8 12.7229 8 15.3658V27.3295H70.2154Z" fill="url(#paint1_linear_18_531)"/>
<path d="M23.0764 16.4491H19.9616C19.6743 16.4491 19.3988 16.3349 19.1957 16.1318C18.9925 15.9287 18.8784 15.6532 18.8784 15.3659C18.8784 15.0786 18.9925 14.8031 19.1957 14.6C19.3988 14.3968 19.6743 14.2827 19.9616 14.2827H23.0764C23.3637 14.2827 23.6392 14.3968 23.8423 14.6C24.0454 14.8031 24.1596 15.0786 24.1596 15.3659C24.1596 15.6532 24.0454 15.9287 23.8423 16.1318C23.6392 16.3349 23.3637 16.4491 23.0764 16.4491ZM30.7287 16.4491H27.6139C27.3266 16.4491 27.0511 16.3349 26.848 16.1318C26.6449 15.9287 26.5307 15.6532 26.5307 15.3659C26.5307 15.0786 26.6449 14.8031 26.848 14.6C27.0511 14.3968 27.3266 14.2827 27.6139 14.2827H30.7287C31.3271 14.2827 31.8119 14.7677 31.8119 15.3659C31.8119 15.9641 31.3271 16.4491 30.7287 16.4491ZM50.5943 16.4491H47.4794C47.1921 16.4491 46.9166 16.3349 46.7135 16.1318C46.5103 15.9287 46.3962 15.6532 46.3962 15.3659C46.3962 15.0786 46.5103 14.8031 46.7135 14.6C46.9166 14.3968 47.1921 14.2827 47.4794 14.2827H50.5943C51.1927 14.2827 51.6775 14.7677 51.6775 15.3659C51.6775 15.9641 51.1927 16.4491 50.5943 16.4491ZM58.2468 16.4491H55.1319C54.8446 16.4491 54.5691 16.3349 54.3659 16.1318C54.1628 15.9287 54.0487 15.6532 54.0487 15.3659C54.0487 15.0786 54.1628 14.8031 54.3659 14.6C54.5691 14.3968 54.8446 14.2827 55.1319 14.2827H58.2468C58.5341 14.2827 58.8096 14.3968 59.0127 14.6C59.2159 14.8031 59.33 15.0786 59.33 15.3659C59.33 15.6532 59.2159 15.9287 59.0127 16.1318C58.8096 16.3349 58.5341 16.4491 58.2468 16.4491Z" fill="#D70A3E"/>
<path d="M28.3401 14.7678C28.3401 16.4196 27.0011 17.7586 25.3493 17.7586C23.6974 17.7586 22.3584 16.4196 22.3584 14.7678V8.7859C22.3583 7.13408 23.6973 5.79504 25.3491 5.79504C27.0009 5.79504 28.34 7.13408 28.34 8.7859V14.7678H28.3401ZM55.8581 14.7678C55.8581 16.4196 54.519 17.7586 52.8672 17.7586C51.2154 17.7586 49.8762 16.4196 49.8762 14.7678V8.7859C49.8762 7.13408 51.2152 5.79504 52.8671 5.79504C54.5189 5.79504 55.8579 7.13408 55.8579 8.7859V14.7678H55.8581Z" fill="#EBF5FC"/>
<path d="M52.8668 5.79504C52.2527 5.79504 51.6824 5.98067 51.2074 6.29808C52.01 6.83448 52.539 7.74815 52.539 8.78605V14.7678C52.539 15.8055 52.01 16.7193 51.2074 17.2557C51.6984 17.5844 52.276 17.7595 52.8668 17.7588C54.5186 17.7588 55.8577 16.4197 55.8577 14.7679V8.78591C55.8578 7.13408 54.5188 5.79504 52.8668 5.79504ZM25.3488 5.79504C24.7348 5.79504 24.1644 5.98067 23.6895 6.29808C24.4921 6.83448 25.0211 7.74815 25.0211 8.78605V14.7678C25.0211 15.8055 24.4921 16.7193 23.6895 17.2557C24.1804 17.5844 24.7581 17.7595 25.3488 17.7588C27.0007 17.7588 28.3397 16.4197 28.3397 14.7679V8.78591C28.3398 7.13408 27.0008 5.79504 25.3488 5.79504Z" fill="#D3DCFB"/>
<path d="M8 21.461H70.2156V23.6275H8V21.461Z" fill="#D70A3E"/>
<path d="M57.0548 77.5769C66.9658 77.5769 75.0003 69.5424 75.0003 59.6314C75.0003 49.7204 66.9658 41.686 57.0548 41.686C47.1438 41.686 39.1094 49.7204 39.1094 59.6314C39.1094 69.5424 47.1438 77.5769 57.0548 77.5769Z" fill="#4FABF7"/>
<path d="M57.0526 72.7913C64.3207 72.7913 70.2126 66.8993 70.2126 59.6312C70.2126 52.3631 64.3207 46.4712 57.0526 46.4712C49.7845 46.4712 43.8926 52.3631 43.8926 59.6312C43.8926 66.8993 49.7845 72.7913 57.0526 72.7913Z" fill="#EBF5FC"/>
<path d="M57.0544 58.3217C56.9121 58.3217 56.7713 58.2937 56.6398 58.2393C56.5084 58.1848 56.389 58.105 56.2884 58.0045C56.1878 57.9039 56.108 57.7845 56.0536 57.653C55.9992 57.5216 55.9712 57.3807 55.9712 57.2385V51.2566C55.9712 50.9694 56.0853 50.6938 56.2884 50.4907C56.4916 50.2876 56.7671 50.1735 57.0544 50.1735C57.3416 50.1735 57.6172 50.2876 57.8203 50.4907C58.0234 50.6938 58.1375 50.9694 58.1375 51.2566V57.2385C58.1375 57.5258 58.0234 57.8013 57.8203 58.0044C57.6172 58.2076 57.3416 58.3217 57.0544 58.3217ZM63.0362 60.7144H59.447C59.1597 60.7144 58.8842 60.6003 58.6811 60.3972C58.4779 60.1941 58.3638 59.9185 58.3638 59.6313C58.3638 59.344 58.4779 59.0685 58.6811 58.8653C58.8842 58.6622 59.1597 58.5481 59.447 58.5481H63.0362C63.3235 58.5481 63.599 58.6622 63.8021 58.8653C64.0053 59.0685 64.1194 59.344 64.1194 59.6313C64.1194 59.9185 64.0053 60.1941 63.8021 60.3972C63.599 60.6003 63.3235 60.7144 63.0362 60.7144Z" fill="#3C58A0"/>
<path d="M57.0524 62.0243C58.3739 62.0243 59.4452 60.953 59.4452 59.6315C59.4452 58.31 58.3739 57.2387 57.0524 57.2387C55.7309 57.2387 54.6597 58.31 54.6597 59.6315C54.6597 60.953 55.7309 62.0243 57.0524 62.0243Z" fill="#FFDD40"/>
<defs>
<linearGradient id="paint0_linear_18_531" x1="20.6441" y1="28.4268" x2="39.1077" y2="66.1827" gradientUnits="userSpaceOnUse">
<stop stop-color="white"/>
<stop offset="1" stop-color="#FFE4EB"/>
</linearGradient>
<linearGradient id="paint1_linear_18_531" x1="13.0581" y1="11.0235" x2="75.5314" y2="36.9053" gradientUnits="userSpaceOnUse">
<stop stop-color="#FE4977"/>
<stop offset="1" stop-color="#EB1047"/>
</linearGradient>
</defs>
</svg>
