<svg width="80" height="80" viewBox="0 0 80 80" fill="none" xmlns="http://www.w3.org/2000/svg">
<rect width="80" height="80" fill="white"/>
<path d="M38.9648 27.546L40.3153 21.469" stroke="#93C1FF" stroke-width="2" stroke-linecap="square" stroke-linejoin="round"/>
<path d="M52.3971 40.075C52.3971 48.2796 45.7459 54.9307 37.5413 54.9307C29.3367 54.9307 22.6855 48.2796 22.6855 40.075C22.6855 31.8704 29.3367 25.2192 37.5413 25.2192C45.7459 25.2192 52.3971 31.8704 52.3971 40.075Z" stroke="#93C1FF" stroke-opacity="0.1" stroke-width="6"/>
<path d="M45.5868 40.2444C45.5865 39.9077 45.5623 39.5715 45.5145 39.2381C45.494 39.0664 45.5264 38.8925 45.6073 38.7397C45.6882 38.5869 45.8138 38.4624 45.9674 38.3828L46.4998 38.0891C46.6031 38.0348 46.6942 37.96 46.7675 37.8693C46.8408 37.7785 46.8949 37.6737 46.9263 37.5614C46.9577 37.449 46.9659 37.3314 46.9503 37.2158C46.9347 37.1001 46.8956 36.9889 46.8355 36.8889L45.3618 34.45C45.2336 34.2458 45.0319 34.0986 44.7984 34.0387C44.5649 33.9788 44.3173 34.0108 44.1066 34.128L43.5687 34.4253C43.4041 34.5123 43.218 34.5504 43.0325 34.5352C42.8469 34.5199 42.6695 34.452 42.5213 34.3393C41.9909 33.9495 41.4133 33.6283 40.8023 33.3834C40.6312 33.3223 40.4825 33.2111 40.3756 33.0642C40.2687 32.9173 40.2086 32.7416 40.2031 32.56V31.9745C40.1976 31.737 40.0983 31.5113 39.9269 31.3467C39.7555 31.1822 39.5259 31.0922 39.2883 31.0963H36.3372C36.0996 31.0922 35.87 31.1822 35.6986 31.3467C35.5272 31.5113 35.4279 31.737 35.4223 31.9745V32.56C35.4169 32.7416 35.3568 32.9173 35.2499 33.0642C35.143 33.2111 34.9943 33.3223 34.8231 33.3834C34.2122 33.6277 33.6347 33.9483 33.1042 34.3375C32.956 34.4502 32.7786 34.5181 32.593 34.5333C32.4075 34.5486 32.2214 34.5105 32.0568 34.4235L31.5188 34.1262C31.3082 34.0089 31.0606 33.977 30.8271 34.0369C30.5935 34.0968 30.3919 34.244 30.2637 34.4482L28.79 36.8871C28.7299 36.9871 28.6908 37.0983 28.6752 37.2139C28.6596 37.3296 28.6677 37.4472 28.6992 37.5596C28.7306 37.6719 28.7846 37.7767 28.858 37.8674C28.9313 37.9582 29.0224 38.033 29.1257 38.0873L29.6581 38.381C29.8125 38.4599 29.9391 38.5841 30.0208 38.737C30.1026 38.8899 30.1356 39.0641 30.1155 39.2363C30.019 39.9037 30.019 40.5815 30.1155 41.2489C30.1356 41.4211 30.1026 41.5953 30.0208 41.7482C29.9391 41.9011 29.8125 42.0254 29.6581 42.1042L29.1257 42.3979C29.0224 42.4522 28.9313 42.527 28.858 42.6178C28.7846 42.7085 28.7306 42.8133 28.6992 42.9257C28.6677 43.038 28.6596 43.1556 28.6752 43.2713C28.6908 43.3869 28.7299 43.4981 28.79 43.5981L30.2637 46.037C30.3919 46.2412 30.5935 46.3884 30.8271 46.4483C31.0606 46.5083 31.3082 46.4763 31.5188 46.359L32.0568 46.0617C32.2214 45.9747 32.4075 45.9366 32.593 45.9519C32.7786 45.9671 32.956 46.0351 33.1042 46.1477C33.6333 46.5379 34.2097 46.8598 34.8195 47.1055C34.9906 47.1665 35.1393 47.2778 35.2462 47.4247C35.3531 47.5715 35.4132 47.7473 35.4187 47.9288V48.518C35.4242 48.7555 35.5235 48.9812 35.6949 49.1458C35.8663 49.3103 36.0959 49.4004 36.3335 49.3962H39.281C39.5186 49.4004 39.7482 49.3103 39.9196 49.1458C40.091 48.9812 40.1903 48.7555 40.1958 48.518V47.9288C40.2013 47.7473 40.2614 47.5715 40.3683 47.4247C40.4752 47.2778 40.6239 47.1665 40.795 47.1055C41.4059 46.8612 41.9835 46.5406 42.514 46.1514C42.6622 46.0387 42.8396 45.9708 43.0251 45.9555C43.2107 45.9403 43.3968 45.9784 43.5614 46.0654L44.0993 46.3627C44.31 46.4799 44.5576 46.5119 44.7911 46.452C45.0246 46.3921 45.2263 46.2449 45.3544 46.0407L46.8282 43.6018C46.8883 43.5018 46.9274 43.3906 46.943 43.2749C46.9586 43.1593 46.9504 43.0417 46.919 42.9293C46.8876 42.817 46.8335 42.7122 46.7602 42.6214C46.6868 42.5307 46.5957 42.4559 46.4925 42.4016L45.96 42.1079C45.8065 42.0283 45.6809 41.9038 45.6 41.751C45.5191 41.5982 45.4867 41.4243 45.5072 41.2526C45.5575 40.9188 45.5841 40.5819 45.5868 40.2444Z" fill="#3F8EFB"/>
<path d="M37.8129 44.3611C40.0865 44.3611 41.9296 42.518 41.9296 40.2445C41.9296 37.9709 40.0865 36.1278 37.8129 36.1278C35.5394 36.1278 33.6963 37.9709 33.6963 40.2445C33.6963 42.518 35.5394 44.3611 37.8129 44.3611Z" fill="#E4ECF2"/>
<path d="M66.5741 29.1482C69.1002 29.1482 71.1481 27.1003 71.1481 24.5741C71.1481 22.0479 69.1002 20.0001 66.5741 20.0001C64.0479 20.0001 62 22.0479 62 24.5741C62 27.1003 64.0479 29.1482 66.5741 29.1482Z" fill="#307BDE"/>
<path d="M42.4432 17.3177C46.117 17.3177 49.0953 14.3394 49.0953 10.6655C49.0953 6.99163 46.117 4.01337 42.4432 4.01337C38.7693 4.01337 35.791 6.99163 35.791 10.6655C35.791 14.3394 38.7693 17.3177 42.4432 17.3177Z" fill="#21CF71"/>
<path d="M15.8563 57.6257C18.3825 57.6257 20.4303 55.5778 20.4303 53.0517C20.4303 50.5255 18.3825 48.4776 15.8563 48.4776C13.3301 48.4776 11.2822 50.5255 11.2822 53.0517C11.2822 55.5778 13.3301 57.6257 15.8563 57.6257Z" fill="#6F9FDE"/>
<path d="M61.6592 55.3185C63.6802 55.3185 65.3185 53.6802 65.3185 51.6593C65.3185 49.6384 63.6802 48.0001 61.6592 48.0001C59.6383 48.0001 58 49.6384 58 51.6593C58 53.6802 59.6383 55.3185 61.6592 55.3185Z" fill="#D9777B"/>
<path d="M16.302 28.6041C19.7825 28.6041 22.6041 25.7825 22.6041 22.302C22.6041 18.8215 19.7825 16 16.302 16C12.8215 16 10 18.8215 10 22.302C10 25.7825 12.8215 28.6041 16.302 28.6041Z" fill="#D243AA"/>
<path d="M20.8853 49.2931L27.2871 45.6356L28.1946 47.2238L21.7927 50.8812L20.8853 49.2931ZM23.4589 28.3933L24.5 26.8894L31.9234 31.0453L30.8823 32.5493L23.4589 28.3933ZM47.3992 34.689L60.0175 26.8894L61 28.4336L48.3817 36.2332L47.3992 34.689ZM48.7577 44.0137L49.7475 42.475L56.1512 46.5934L55.1605 48.1322L48.7577 44.0137Z" fill="#93C2FF"/>
<path d="M29.1974 60.1021C29.1967 60.7491 29.4292 61.3747 29.8524 61.8641L35.3697 69.1743C36.07 69.8893 36.9006 70.4637 37.8168 70.8667L37.8113 76.8368H47.8806L47.8861 70.1916C49.1358 69.4482 50.1654 68.3861 50.8697 67.114C51.5739 65.8419 51.9274 64.4054 51.8939 62.9518L51.914 53.4268C51.914 52.893 51.702 52.3811 51.3245 52.0036C50.9471 51.6262 50.4352 51.4142 49.9014 51.4142C49.3677 51.4142 48.8558 51.6262 48.4783 52.0036C48.1009 52.3811 47.8888 52.893 47.8888 53.4268V51.4142C47.8896 51.0614 47.7969 50.7147 47.6201 50.4094C47.4433 50.1041 47.1889 49.851 46.8826 49.676C46.5796 49.4917 46.2308 49.3966 45.8763 49.4016C45.3438 49.4059 44.8344 49.6193 44.4579 49.9958C44.0814 50.3723 43.868 50.8817 43.8637 51.4142V49.4016C43.8657 49.0486 43.7734 48.7014 43.5966 48.3959C43.4197 48.0903 43.1645 47.8375 42.8574 47.6634C42.5543 47.4794 42.2056 47.3843 41.8511 47.389C41.3189 47.389 40.8084 47.5998 40.4312 47.9752C40.054 48.3507 39.8409 48.8603 39.8385 49.3924V41.3421C39.8391 40.9894 39.7463 40.6427 39.5695 40.3375C39.3928 40.0322 39.1384 39.7791 38.8322 39.604C38.5292 39.4198 38.1805 39.3247 37.8259 39.3295C37.2928 39.3314 36.782 39.5441 36.4049 39.9211C36.0279 40.2981 35.8153 40.8089 35.8133 41.3421V60.4745L33.6077 57.9779C33.3145 57.7408 32.975 57.5677 32.6108 57.4696C32.2467 57.3716 31.8661 57.3508 31.4935 57.4086C31.1209 57.4664 30.7645 57.6016 30.4472 57.8053C30.1299 58.0091 29.8588 58.277 29.6512 58.5918C29.3496 59.0373 29.1913 59.5642 29.1974 60.1021Z" fill="#FFC780"/>
<path d="M50.8887 61.9445L50.9088 52.4194C50.9069 52.1351 50.8446 51.8545 50.7258 51.5961C51.079 51.7545 51.379 52.0113 51.5899 52.3358C51.8009 52.6603 51.9138 53.0387 51.9151 53.4257L51.895 62.9507C51.9284 64.4044 51.575 65.8408 50.8707 67.113C50.1665 68.3851 49.1368 69.4472 47.8872 70.1906L47.8826 76.8367H46.8763L46.8818 69.1843C48.1314 68.4409 49.1609 67.3787 49.865 66.1066C50.569 64.8345 50.9223 63.398 50.8887 61.9445ZM46.6997 49.5753C47.0529 49.7336 47.3529 49.9904 47.5639 50.3149C47.7748 50.6395 47.8877 51.0179 47.889 51.4049V56.4364H46.8827V50.3986C46.8809 50.1143 46.8185 49.8336 46.6997 49.5753ZM42.6691 47.5627C43.0223 47.7211 43.3223 47.9779 43.5332 48.3024C43.7441 48.6269 43.857 49.0053 43.8583 49.3923V56.441H42.852V48.3915C42.8514 48.1053 42.7889 47.8226 42.6691 47.5627ZM38.6421 39.5124C38.9953 39.6707 39.2953 39.9275 39.5062 40.252C39.7171 40.5765 39.83 40.955 39.8313 41.342V56.4464H38.8196V40.3357C38.8195 40.0518 38.759 39.7711 38.6421 39.5124Z" fill="#E6B374"/>
</svg>
