<svg width="80" height="80" viewBox="0 0 80 80" fill="none" xmlns="http://www.w3.org/2000/svg">
<rect width="80" height="80" fill="white"/>
<path fill-rule="evenodd" clip-rule="evenodd" d="M3.12238 33.7619L23.7131 9.95098C23.7652 9.89217 23.8383 9.85617 23.9166 9.85075C23.995 9.84533 24.0724 9.87091 24.132 9.92198L54.6332 36.2965C54.692 36.3495 54.7279 36.4233 54.7333 36.5023C54.7387 36.5813 54.7132 36.6593 54.6622 36.7198L34.072 60.5303C34.0192 60.5893 33.9455 60.6255 33.8664 60.631C33.7874 60.6366 33.7093 60.6111 33.6487 60.56L3.15195 34.185C3.12191 34.1594 3.09729 34.128 3.07954 34.0927C3.06178 34.0574 3.05125 34.0189 3.04855 33.9795C3.04585 33.9401 3.05104 33.9006 3.06381 33.8632C3.07659 33.8258 3.09612 33.7914 3.12238 33.7619Z" fill="#ECDCFF"/>
<path fill-rule="evenodd" clip-rule="evenodd" d="M17.1711 23.3988L45.8145 10.3402C45.8864 10.3081 45.968 10.3057 46.0417 10.3334C46.1154 10.3612 46.1751 10.4169 46.208 10.4884L62.9354 47.176C62.9523 47.2115 62.962 47.2501 62.964 47.2894C62.9659 47.3287 62.96 47.368 62.9466 47.405C62.9333 47.442 62.9127 47.476 62.886 47.5049C62.8594 47.5339 62.8273 47.5573 62.7916 47.5738L34.1481 60.6318C34.0756 60.6635 33.9935 60.6658 33.9193 60.6381C33.8451 60.6105 33.7845 60.5551 33.7504 60.4836L17.023 23.7971C16.9905 23.7246 16.9879 23.6423 17.0156 23.5679C17.0433 23.4935 17.0992 23.4329 17.1711 23.3993V23.3988Z" fill="#954FE9"/>
<path fill-rule="evenodd" clip-rule="evenodd" d="M34.1731 19.8359H57.616L65.9521 28.172V60.4549C65.9518 60.5345 65.9201 60.6107 65.8638 60.667C65.8075 60.7233 65.7313 60.755 65.6517 60.7554H34.1731C34.1339 60.7551 34.0952 60.7472 34.0591 60.7319C34.023 60.7167 33.9902 60.6945 33.9627 60.6666C33.9352 60.6386 33.9135 60.6056 33.8988 60.5693C33.884 60.5329 33.8766 60.4941 33.877 60.4549V20.1362C33.8766 20.0971 33.884 20.0582 33.8988 20.0219C33.9135 19.9856 33.9352 19.9525 33.9627 19.9246C33.9902 19.8967 34.023 19.8745 34.0591 19.8593C34.0952 19.8441 34.1339 19.8361 34.1731 19.8359Z" fill="#6223AD"/>
<path fill-rule="evenodd" clip-rule="evenodd" d="M57.6162 19.8359V26.3011C57.6172 26.7968 57.8145 27.2719 58.165 27.6224C58.5155 27.9729 58.9905 28.1702 59.4862 28.1711H65.9515L57.6162 19.8359Z" fill="#E8E2FF"/>
<path fill-rule="evenodd" clip-rule="evenodd" d="M41.3838 48.2635H65.982C67.2288 48.2673 68.4235 48.7643 69.3051 49.6459C70.1867 50.5275 70.6837 51.7222 70.6875 52.969V72.2945C70.6844 73.5415 70.1877 74.7366 69.3059 75.6184C68.4241 76.5002 67.2291 76.997 65.982 77.0001H22.3716C21.1248 76.9963 19.9301 76.4993 19.0484 75.6176C18.1668 74.736 17.6698 73.5413 17.666 72.2945V43.5579C17.6688 42.5334 18.0773 41.5517 18.8022 40.8276C19.527 40.1036 20.5092 39.6962 21.5337 39.6946H29.7471C31.1097 39.6946 32.0365 40.5325 33.0096 41.4804L38.1213 46.4777C39.0946 47.4299 40.0214 48.2635 41.3838 48.2635Z" fill="url(#paint0_linear_18_528)"/>
<path d="M39.0017 28.0578C38.7266 28.0545 38.4639 27.943 38.2705 27.7473C38.0772 27.5516 37.9687 27.2876 37.9687 27.0125C37.9687 26.7374 38.0772 26.4734 38.2705 26.2777C38.4639 26.0821 38.7266 25.9705 39.0017 25.9673H52.822C53.0971 25.9705 53.3598 26.0821 53.5532 26.2777C53.7466 26.4734 53.855 26.7374 53.855 27.0125C53.855 27.2876 53.7466 27.5516 53.5532 27.7473C53.3598 27.943 53.0971 28.0545 52.822 28.0578H39.0017ZM39.0017 43.3077C38.7245 43.3077 38.4587 43.1976 38.2627 43.0016C38.0667 42.8056 37.9565 42.5397 37.9565 42.2625C37.9565 41.9853 38.0667 41.7195 38.2627 41.5235C38.4587 41.3275 38.7245 41.2173 39.0017 41.2173H60.8281C61.1053 41.2173 61.3711 41.3275 61.5671 41.5235C61.7631 41.7195 61.8733 41.9853 61.8733 42.2625C61.8733 42.5397 61.7631 42.8056 61.5671 43.0016C61.3711 43.1976 61.1053 43.3077 60.8281 43.3077H39.0017ZM39.0017 38.2256C38.7266 38.2224 38.4639 38.1109 38.2705 37.9152C38.0772 37.7195 37.9687 37.4555 37.9687 37.1804C37.9687 36.9053 38.0772 36.6413 38.2705 36.4456C38.4639 36.2499 38.7266 36.1384 39.0017 36.1352H60.8281C60.9664 36.1335 61.1036 36.1594 61.2319 36.2112C61.3601 36.263 61.4768 36.3397 61.5752 36.4369C61.6736 36.5341 61.7517 36.6499 61.805 36.7775C61.8583 36.9052 61.8857 37.0421 61.8857 37.1804C61.8857 37.3187 61.8583 37.4556 61.805 37.5833C61.7517 37.7109 61.6736 37.8267 61.5752 37.9239C61.4768 38.0211 61.3601 38.0978 61.2319 38.1496C61.1036 38.2014 60.9664 38.2273 60.8281 38.2256H39.0017ZM39.0017 33.1434C38.8645 33.1434 38.7285 33.1164 38.6017 33.0639C38.4749 33.0114 38.3597 32.9344 38.2627 32.8373C38.1656 32.7403 38.0886 32.625 38.0361 32.4982C37.9836 32.3714 37.9565 32.2355 37.9565 32.0983C37.9565 31.961 37.9836 31.8251 38.0361 31.6983C38.0886 31.5715 38.1656 31.4563 38.2627 31.3592C38.3597 31.2622 38.4749 31.1852 38.6017 31.1327C38.7285 31.0801 38.8645 31.0531 39.0017 31.0531H60.8281C60.9653 31.0531 61.1012 31.0801 61.2281 31.1327C61.3549 31.1852 61.4701 31.2622 61.5671 31.3592C61.6642 31.4563 61.7412 31.5715 61.7937 31.6983C61.8462 31.8251 61.8733 31.961 61.8733 32.0983C61.8733 32.2355 61.8462 32.3714 61.7937 32.4982C61.7412 32.625 61.6642 32.7403 61.5671 32.8373C61.4701 32.9344 61.3549 33.0114 61.2281 33.0639C61.1012 33.1164 60.9653 33.1434 60.8281 33.1434H39.0017Z" fill="#E8E2FF"/>
<path d="M24.3054 64.3814C24.0282 64.3814 23.7624 64.2713 23.5664 64.0753C23.3704 63.8793 23.2603 63.6134 23.2603 63.3362C23.2603 63.059 23.3704 62.7932 23.5664 62.5972C23.7624 62.4012 24.0282 62.2911 24.3054 62.2911H34.4992C34.7764 62.2911 35.0423 62.4012 35.2383 62.5972C35.4343 62.7932 35.5444 63.059 35.5444 63.3362C35.5444 63.6134 35.4343 63.8793 35.2383 64.0753C35.0423 64.2713 34.7764 64.3814 34.4992 64.3814H24.3054ZM24.3054 71.52C24.0282 71.52 23.7624 71.4099 23.5664 71.2139C23.3704 71.0179 23.2603 70.7521 23.2603 70.4749C23.2603 70.1977 23.3704 69.9318 23.5664 69.7358C23.7624 69.5398 24.0282 69.4297 24.3054 69.4297H64.0481C64.3253 69.4297 64.5912 69.5398 64.7872 69.7358C64.9832 69.9318 65.0933 70.1977 65.0933 70.4749C65.0933 70.7521 64.9832 71.0179 64.7872 71.2139C64.5912 71.4099 64.3253 71.52 64.0481 71.52H24.3054Z" fill="#E5DFFF"/>
<path fill-rule="evenodd" clip-rule="evenodd" d="M68.3606 62.1557C70.1223 62.1557 71.8444 61.6333 73.3093 60.6545C74.7741 59.6758 75.9158 58.2846 76.59 56.657C77.2641 55.0294 77.4405 53.2384 77.0968 51.5105C76.7531 49.7826 75.9048 48.1955 74.6591 46.9497C73.4133 45.704 71.8262 44.8557 70.0983 44.512C68.3704 44.1683 66.5795 44.3447 64.9518 45.0189C63.3242 45.693 61.9331 46.8347 60.9543 48.2996C59.9755 49.7644 59.4531 51.4865 59.4531 53.2483C59.4575 55.6093 60.3974 57.8724 62.0669 59.5419C63.7364 61.2114 65.9995 62.1513 68.3606 62.1557Z" fill="#25C73B"/>
<path d="M63.0371 54.4584C62.9375 54.362 62.858 54.2467 62.8034 54.1193C62.7488 53.9919 62.72 53.8549 62.7188 53.7162C62.7176 53.5776 62.744 53.4401 62.7964 53.3118C62.8488 53.1834 62.9262 53.0668 63.0241 52.9686C63.122 52.8705 63.2385 52.7928 63.3667 52.74C63.4949 52.6873 63.6323 52.6606 63.7709 52.6614C63.9096 52.6623 64.0467 52.6907 64.1742 52.745C64.3018 52.7993 64.4173 52.8784 64.5139 52.9778L66.5196 54.9835L72.2021 49.301C72.3979 49.1052 72.6635 48.9951 72.9405 48.9951C73.2174 48.9951 73.4831 49.1051 73.6789 49.3009C73.8747 49.4968 73.9848 49.7624 73.9848 50.0393C73.9848 50.3163 73.8748 50.5819 73.679 50.7777L67.2559 57.2005C67.0597 57.3957 66.7942 57.5052 66.5175 57.5052C66.2408 57.5052 65.9754 57.3957 65.7792 57.2005L63.0371 54.4584Z" fill="#EAF6FF"/>
<path fill-rule="evenodd" clip-rule="evenodd" d="M67.6027 44.3704C69.7882 44.5557 71.8285 45.5406 73.3329 47.1366C74.8374 48.7326 75.7003 50.8275 75.7564 53.02C75.8125 55.2126 75.0578 57.3489 73.6369 59.0197C72.216 60.6905 70.2287 61.7784 68.0555 62.0752C67.9051 62.0966 67.7541 62.1135 67.6027 62.126C67.755 62.1387 67.9032 62.1471 68.0555 62.1515C68.157 62.1557 68.2585 62.1557 68.36 62.1557C69.1461 62.1571 69.9288 62.0532 70.6873 61.8468C72.7714 61.2826 74.5796 59.9807 75.7757 58.1831C76.9717 56.3856 77.4742 54.2149 77.1897 52.0746C76.9052 49.9344 75.853 47.9703 74.2288 46.5477C72.6046 45.1251 70.519 44.3409 68.36 44.3408C68.106 44.3408 67.8526 44.3492 67.6025 44.3698L67.6027 44.3704Z" fill="#21B335"/>
<path fill-rule="evenodd" clip-rule="evenodd" d="M64.0483 28.172V45.4495C64.6506 45.1166 65.2896 44.8553 65.9525 44.6709V28.172H64.0483Z" fill="#6223AD"/>
<defs>
<linearGradient id="paint0_linear_18_528" x1="17.4793" y1="39.6298" x2="66.9592" y2="76.7397" gradientUnits="userSpaceOnUse">
<stop stop-color="#B444E9"/>
<stop offset="1" stop-color="#8C44E9"/>
</linearGradient>
</defs>
</svg>
