<svg width="80" height="80" viewBox="0 0 80 80" fill="none" xmlns="http://www.w3.org/2000/svg">
<rect width="80" height="80" fill="white"/>
<path d="M47.9922 63.8619H46.2656V58.2662C46.2656 57.7493 46.0295 57.2607 45.6215 56.9356C45.2135 56.6121 44.674 56.4837 44.1714 56.5988C42.31 56.999 39.8619 56.999 38.0005 56.5988C37.493 56.4855 36.9551 56.6121 36.5504 56.9356C36.3493 57.0957 36.187 57.2983 36.0756 57.5286C35.9641 57.7588 35.9062 58.0109 35.9063 58.2662V63.8619H34.1798C33.8547 63.8621 33.5362 63.9529 33.2609 64.124C32.9856 64.295 32.7647 64.5394 32.6235 64.829C32.4827 65.1191 32.4275 65.4425 32.4642 65.7623C32.5008 66.082 32.628 66.385 32.8309 66.6365L39.737 75.1736C39.899 75.3734 40.1043 75.5348 40.3377 75.6456C40.5712 75.7565 40.8269 75.8141 41.0859 75.8141C41.3449 75.8141 41.6006 75.7565 41.8341 75.6456C42.0675 75.5348 42.2728 75.3734 42.4348 75.1736L49.3409 66.6365C49.5439 66.385 49.671 66.082 49.7076 65.7623C49.7443 65.4425 49.6891 65.1191 49.5483 64.829C49.4072 64.5394 49.1863 64.295 48.911 64.1239C48.6357 63.9529 48.3173 63.8621 47.9922 63.8619Z" fill="url(#paint0_linear_18_529)"/>
<path d="M41.0846 5.03595C27.8975 5.03595 17.1689 15.7645 17.1689 28.9516C17.1689 41.8881 27.6236 52.8672 41.0846 52.8672C54.4673 52.8672 65.0002 41.953 65.0002 28.9516C65.0002 15.7645 54.2718 5.03595 41.0846 5.03595ZM43.2587 39.4219V41.9965C43.2587 43.1982 42.2863 44.1706 41.0846 44.1706C39.8829 44.1706 38.9104 43.1982 38.9104 41.9965V39.4004C37.7189 38.9737 36.6411 38.2456 35.8679 37.2151C35.1481 36.2532 35.3413 34.8902 36.301 34.1704C37.2671 33.4548 38.6259 33.6418 39.3457 34.6035C39.7597 35.1576 40.3945 35.474 41.0846 35.474C42.2841 35.474 43.2587 34.4994 43.2587 33.2999C43.2587 32.1003 42.2841 31.1257 41.0846 31.1257C37.488 31.1257 34.5621 28.1999 34.5621 24.6033C34.5621 21.7725 36.3852 19.3819 38.9104 18.4813V15.9067C38.9104 14.705 39.8829 13.7325 41.0846 13.7325C42.2863 13.7325 43.2587 14.705 43.2587 15.9067V18.5029C44.4503 18.9296 45.5281 19.6577 46.3012 20.6882C47.021 21.6501 46.8278 23.0131 45.8681 23.7329C44.9085 24.4547 43.5475 24.2637 42.8235 23.2998C41.6875 21.7815 38.9062 22.7137 38.9104 24.6033C38.9104 25.8028 39.885 26.7774 41.0846 26.7774C44.6812 26.7774 47.607 29.7033 47.607 33.2999C47.607 36.1306 45.7841 38.5213 43.2587 39.4219Z" fill="url(#paint1_linear_18_529)"/>
<path d="M60.1356 59.1443C60.8099 58.4774 61.9026 58.4774 62.577 59.1443C63.2515 59.8112 63.2515 60.8917 62.5771 61.5586L59.1261 64.9713C58.4661 65.6258 57.3663 65.6514 56.6804 64.9713L53.2294 61.5586C52.555 60.8917 52.555 59.8111 53.2294 59.1442C53.9038 58.4773 54.9965 58.4773 55.6709 59.1442L56.1767 59.6445V50.107C56.1767 49.1632 56.9489 48.3995 57.9033 48.3995C58.8576 48.3995 59.6298 49.1632 59.6298 50.107V59.6445L60.1356 59.1443Z" fill="url(#paint2_linear_18_529)"/>
<path d="M26.8836 59.1443C27.558 58.4774 28.6506 58.4774 29.325 59.1443C29.9995 59.8112 29.9995 60.8917 29.3251 61.5586L25.8742 64.9713C25.2142 65.6258 24.1144 65.6514 23.4285 64.9713L19.9775 61.5586C19.3031 60.8917 19.3031 59.8111 19.9775 59.1442C20.6519 58.4773 21.7445 58.4773 22.4189 59.1442L22.9248 59.6445V50.107C22.9248 49.1632 23.697 48.3995 24.6513 48.3995C25.6056 48.3995 26.3778 49.1632 26.3778 50.107V59.6445L26.8836 59.1443Z" fill="url(#paint3_linear_18_529)"/>
<defs>
<linearGradient id="paint0_linear_18_529" x1="41.0859" y1="75.8141" x2="41.0859" y2="56.8464" gradientUnits="userSpaceOnUse">
<stop stop-color="#009E88"/>
<stop offset="1" stop-color="#CBFFD3"/>
</linearGradient>
<linearGradient id="paint1_linear_18_529" x1="41.0846" y1="52.8672" x2="41.0846" y2="5.03595" gradientUnits="userSpaceOnUse">
<stop stop-color="#00B59C"/>
<stop offset="1" stop-color="#9CFFAC"/>
</linearGradient>
<linearGradient id="paint2_linear_18_529" x1="57.9033" y1="65.4718" x2="57.9033" y2="48.3995" gradientUnits="userSpaceOnUse">
<stop stop-color="#00B59C"/>
<stop offset="1" stop-color="#9CFFAC"/>
</linearGradient>
<linearGradient id="paint3_linear_18_529" x1="24.6513" y1="65.4718" x2="24.6513" y2="48.3995" gradientUnits="userSpaceOnUse">
<stop stop-color="#00B59C"/>
<stop offset="1" stop-color="#9CFFAC"/>
</linearGradient>
</defs>
</svg>
