<svg width="80" height="80" viewBox="0 0 80 80" fill="none" xmlns="http://www.w3.org/2000/svg">
<rect width="80" height="80" fill="white"/>
<path d="M77 33.8733V70.7417C77.0004 71.6251 76.8268 72.4999 76.4889 73.3161C76.1511 74.1323 75.6557 74.8739 75.031 75.4985C74.4064 76.1232 73.6648 76.6186 72.8486 76.9564C72.0324 77.2943 71.1576 77.4679 70.2742 77.4675H9.72578C8.84242 77.4679 7.96763 77.2943 7.15142 76.9564C6.33522 76.6186 5.5936 76.1232 4.96897 75.4985C4.34434 74.8739 3.84894 74.1323 3.51109 73.3161C3.17324 72.4999 2.99957 71.6251 3 70.7417V33.8733C2.99957 35.6345 3.34614 37.3785 4.01993 39.0058C4.69371 40.633 5.68151 42.1115 6.92687 43.3569C8.17223 44.6022 9.65075 45.59 11.278 46.2638C12.9052 46.9376 14.6492 47.2842 16.4104 47.2837H36.1191V50.2692C36.1195 51.0453 36.4281 51.7895 36.977 52.3382C37.5258 52.8869 38.2701 53.1953 39.0462 53.1955H40.9538C41.7299 53.1953 42.4742 52.8869 43.023 52.3382C43.5719 51.7895 43.8805 51.0453 43.8809 50.2692V47.2837H63.5896C65.3508 47.2842 67.0948 46.9376 68.722 46.2638C70.3492 45.59 71.8278 44.6022 73.0731 43.3569C74.3185 42.1115 75.3063 40.633 75.9801 39.0058C76.6539 37.3785 77.0004 35.6345 77 33.8733Z" fill="url(#paint0_linear_18_526)"/>
<path d="M77 24.8191V33.8717C77.0003 35.6329 76.6537 37.3769 75.9799 39.0041C75.306 40.6313 74.3182 42.1097 73.0729 43.3551C71.8276 44.6004 70.3491 45.5882 68.7219 46.262C67.0947 46.9359 65.3507 47.2825 63.5896 47.2822H43.8809V44.2885C43.8804 43.9047 43.8042 43.5248 43.6568 43.1705C43.5094 42.8161 43.2936 42.4943 43.0218 42.2234C42.7499 41.9525 42.4274 41.7378 42.0725 41.5916C41.7177 41.4453 41.3376 41.3705 40.9538 41.3712H39.0462C38.6624 41.3705 38.2821 41.4454 37.9273 41.5916C37.5724 41.7379 37.2498 41.9527 36.978 42.2237C36.7061 42.4947 36.4903 42.8166 36.343 43.171C36.1956 43.5254 36.1195 43.9055 36.1191 44.2893V47.283H16.4104C14.6492 47.2833 12.9051 46.9366 11.2779 46.2628C9.65069 45.5889 8.17217 44.601 6.92682 43.3556C5.68147 42.1102 4.69369 40.6316 4.01991 39.0043C3.34614 37.3771 2.99957 35.633 3 33.8717V24.8191C2.99989 24.3461 3.09296 23.8777 3.2739 23.4406C3.45483 23.0036 3.72009 22.6065 4.05452 22.272C4.38894 21.9375 4.78599 21.6722 5.22297 21.4911C5.65996 21.3101 6.12833 21.2169 6.60133 21.2169H73.3987C73.8717 21.2169 74.34 21.3101 74.777 21.4911C75.214 21.6722 75.6111 21.9375 75.9455 22.272C76.2799 22.6065 76.5452 23.0036 76.7261 23.4406C76.907 23.8777 77.0001 24.3461 77 24.8191Z" fill="url(#paint1_linear_18_526)"/>
<path d="M47.0547 5.93335H32.9371C30.3936 5.93748 27.9553 6.94974 26.1568 8.74832C24.3582 10.5469 23.3459 12.9851 23.3418 15.5287V21.2176H29.0974V15.5279C29.1 14.5103 29.5053 13.5351 30.2249 12.8156C30.9444 12.0961 31.9196 11.6907 32.9371 11.6881H47.0547C48.0736 11.6889 49.0506 12.0935 49.7718 12.8132C50.493 13.5329 50.8996 14.509 50.9027 15.5279V21.2168H56.6582V15.5279C56.6532 12.9832 55.6395 10.5443 53.8394 8.74585C52.0392 6.94735 49.5993 5.93596 47.0547 5.93335Z" fill="#FE681E"/>
<path d="M60.1254 66.2021L59.8082 66.9539L57.0044 73.5483C56.8752 73.8498 56.4601 73.889 56.28 73.6148L55.2579 72.0642C55.16 71.9154 54.9799 71.8449 54.8076 71.8919L53.0807 72.3579C52.7518 72.4479 52.462 72.1151 52.5951 71.8018L55.9471 63.8408C56.1273 63.8917 56.2761 63.9622 56.3779 64.064C56.9222 64.6083 56.5032 66.4253 57.1689 66.8169C57.8346 67.1967 59.1934 65.928 59.9531 66.1316C60.0118 66.1473 60.0666 66.1708 60.1254 66.2021Z" fill="#EFEFEF"/>
<path opacity="0.15" d="M59.9535 66.1316C60.0122 66.1473 60.067 66.1708 60.1258 66.2021L59.8086 66.9539C59.7851 66.9265 59.7616 66.907 59.742 66.8913C59.5658 66.9148 59.1977 67.0871 58.9471 67.2085C58.4654 67.4356 57.9681 67.6705 57.4669 67.6705C57.2163 67.6705 56.9852 67.6079 56.7816 67.4904C56.0689 67.0793 55.9984 66.2178 55.9397 65.4542C55.9201 65.1957 55.8849 64.7767 55.8183 64.6201C55.7752 64.6044 55.7126 64.5888 55.6382 64.5731L55.9475 63.8408C56.1277 63.8917 56.2765 63.9622 56.3783 64.064C56.9226 64.6083 56.5036 66.4253 57.1693 66.8169C57.835 67.1967 59.1938 65.928 59.9535 66.1316Z" fill="#3B3E3F"/>
<path d="M70.9533 72.3579L69.2304 71.8919C69.0581 71.8449 68.8779 71.9154 68.78 72.0642L67.7541 73.6148C67.5739 73.889 67.1628 73.8498 67.0335 73.5483L64.2298 66.9461L63.9126 66.2021C63.9674 66.1708 64.0222 66.1434 64.081 66.1316C64.8367 65.928 66.2034 67.1967 66.8613 66.8169C67.5309 66.4253 67.1119 64.6083 67.6523 64.064C67.758 63.9622 67.9107 63.8917 68.0908 63.8408L68.4002 64.577L71.4389 71.8018C71.5721 72.1151 71.2862 72.4479 70.9533 72.3579Z" fill="#EFEFEF"/>
<path opacity="0.15" d="M68.4002 64.577C68.3219 64.5888 68.2592 64.6044 68.2161 64.624C68.1496 64.7767 68.1143 65.1957 68.0948 65.4542C68.0321 66.2178 67.9655 67.0832 67.2528 67.4943C67.0492 67.6118 66.8182 67.6705 66.5636 67.6705C66.0624 67.6705 65.569 67.4356 65.0874 67.2085C64.8367 67.0871 64.4647 66.9148 64.2885 66.8913C64.2689 66.907 64.2494 66.9226 64.2298 66.9461L63.9126 66.2021C63.9674 66.1708 64.0222 66.1434 64.081 66.1316C64.8367 65.928 66.2034 67.1967 66.8613 66.8169C67.5309 66.4253 67.1119 64.6083 67.6523 64.064C67.758 63.9622 67.9107 63.8917 68.0908 63.8408L68.4002 64.577Z" fill="#3B3E3F"/>
<path d="M71.7039 58.4243C71.7039 59.215 69.9167 59.7604 69.7217 60.4896C69.52 61.2442 70.7891 62.6088 70.4069 63.2695C70.0193 63.9395 68.1995 63.5201 67.6556 64.0636C67.1121 64.6075 67.5315 66.4272 66.8615 66.8149C66.2009 67.1971 64.8366 65.9279 64.082 66.1296C63.3529 66.3242 62.8074 68.111 62.0168 68.111C61.2258 68.111 60.6811 66.3242 59.9519 66.1292C59.1977 65.9272 57.833 67.1959 57.1728 66.8137C56.5032 66.426 56.9234 64.6063 56.3799 64.0624C55.8367 63.5185 54.017 63.9379 53.6297 63.2679C53.2476 62.6073 54.5171 61.2434 54.3154 60.4892C54.1208 59.76 52.334 59.2146 52.334 58.4243C52.334 57.6337 54.1208 57.0886 54.3154 56.3595C54.5171 55.6049 53.2479 54.241 53.6297 53.5804C54.0174 52.9104 55.8367 53.3298 56.3803 52.7855C56.9238 52.242 56.5032 50.4226 57.1728 50.0346C57.833 49.6524 59.1977 50.9211 59.9519 50.7195C60.6811 50.5244 61.2262 48.7372 62.0168 48.7372C62.8078 48.7372 63.3529 50.5244 64.082 50.7191C64.8366 50.9207 66.2013 49.6516 66.8619 50.0338C67.5319 50.4215 67.1125 52.2412 67.656 52.7851C68.1999 53.329 70.0193 52.9092 70.4069 53.5792C70.7891 54.2398 69.52 55.6045 69.7217 56.3587C69.9167 57.0882 71.7039 57.6337 71.7039 58.4243Z" fill="#178BFF"/>
<path d="M62.0184 64.0033C65.0996 64.0033 67.5974 61.5055 67.5974 58.4243C67.5974 55.3432 65.0996 52.8454 62.0184 52.8454C58.9372 52.8454 56.4395 55.3432 56.4395 58.4243C56.4395 61.5055 58.9372 64.0033 62.0184 64.0033Z" fill="#EFEFEF"/>
<path d="M63.4796 59.3551L63.9969 60.9497C64.0846 61.2191 63.776 61.4431 63.5466 61.2766L62.187 60.2906C62.137 60.2542 62.0767 60.2346 62.0149 60.2346C61.953 60.2346 61.8928 60.2542 61.8428 60.2906L60.4898 61.2747C60.2604 61.4415 59.9518 61.2175 60.0395 60.9477L60.5564 59.3551C60.5754 59.2963 60.5754 59.2331 60.5563 59.1743C60.5371 59.1156 60.4999 59.0644 60.4499 59.0281L59.0958 58.0429C58.8663 57.8765 58.9846 57.5135 59.2681 57.5135H60.9417C61.0035 57.5134 61.0636 57.4939 61.1135 57.4576C61.1635 57.4213 61.2007 57.3701 61.2197 57.3114L61.7374 55.7169C61.8247 55.4475 62.2062 55.4467 62.2939 55.7165L62.8155 57.3118C62.8546 57.432 62.967 57.5135 63.0935 57.5135H64.7675C65.051 57.5135 65.1693 57.8765 64.9398 58.0429L63.5857 59.0281C63.5358 59.0645 63.4986 59.1157 63.4796 59.1744C63.4605 59.2331 63.4605 59.2964 63.4796 59.3551Z" fill="#F95353"/>
<rect x="35.647" y="40.7568" width="8.70588" height="13.0588" rx="3" fill="#9F3D0E"/>
<defs>
<linearGradient id="paint0_linear_18_526" x1="3" y1="77.7569" x2="77" y2="28.0608" gradientUnits="userSpaceOnUse">
<stop stop-color="#FE5300"/>
<stop offset="1" stop-color="#FEB28D"/>
</linearGradient>
<linearGradient id="paint1_linear_18_526" x1="14.2451" y1="21.1687" x2="70.4706" y2="47.2864" gradientUnits="userSpaceOnUse">
<stop stop-color="#EEB931"/>
<stop offset="1" stop-color="#F7D836"/>
</linearGradient>
</defs>
</svg>
