<svg width="77" height="92" viewBox="0 0 77 92" fill="none" xmlns="http://www.w3.org/2000/svg">
<path d="M38.2792 91.9782C59.5029 91.9782 76.1378 84.9299 76.1378 75.9443V16.0338C76.1378 7.04829 59.5029 0 38.2792 0C17.1013 0 0.512304 7.00708 0.420525 15.972C0.420525 15.9926 0.397583 16.0132 0.397583 16.0338V75.9237C0.420528 84.9299 17.0554 91.9782 38.2792 91.9782ZM38.2792 87.8564C18.6844 87.8564 5.00945 81.5706 5.00945 75.9443V63.7438C11.3651 68.7106 23.7323 72.008 38.2792 72.008C52.826 72.008 65.1932 68.7106 71.5489 63.7438V75.9443C71.5489 81.5706 57.8739 87.8564 38.2792 87.8564ZM71.5489 36.004C71.5489 41.6509 57.8739 47.916 38.2792 47.916C18.6844 47.916 5.00945 41.6303 5.00945 36.004V23.8035C11.3651 28.7702 23.7552 32.0883 38.2792 32.0883C52.8031 32.0883 65.1702 28.7908 71.5489 23.8241V36.004ZM38.2792 52.0378C52.826 52.0378 65.1932 48.7404 71.5489 43.7736V55.9742C71.5489 61.6004 57.8739 67.8862 38.2792 67.8862C18.6844 67.8862 5.00945 61.6004 5.00945 55.9742V43.7736C11.3651 48.7404 23.7323 52.0378 38.2792 52.0378ZM38.2792 4.12181C57.8739 4.12181 71.5259 10.387 71.5489 16.0132V16.0751C71.4571 21.7013 57.828 27.9459 38.2792 27.9459C18.6844 27.9459 5.00945 21.6601 5.00945 16.0338C5.00945 10.4076 18.6844 4.12181 38.2792 4.12181Z" fill="#3479B9"/>
</svg>
