<?xml version="1.0" encoding="utf-8"?>
<!-- Generator: Adobe Illustrator 26.1.0, SVG Export Plug-In . SVG Version: 6.00 Build 0)  -->
<svg version="1.1" id="Layer_1" xmlns="http://www.w3.org/2000/svg" xmlns:xlink="http://www.w3.org/1999/xlink" x="0px" y="0px"
	 viewBox="0 0 723.2 190" style="enable-background:new 0 0 723.2 190;" xml:space="preserve">
<style type="text/css">
	.st0{fill:#FFFDFD;}
</style>
<g>
	<g>
		<g>
			<g>
				<path class="st0" d="M11.7,52.6C38.9,38,66,23.3,93.2,8.8c0.2,11.3,0.2,22.5,0.2,33.8C76.9,51.1,60.4,59.5,44,68
					c-0.1,18-0.1,36-0.2,54c16.4,8.6,32.8,17.3,49.3,25.7c0.4,11.2,0.2,22.4-0.1,33.6c-27.3-14.8-54.6-29.8-81.9-44.7
					C11.3,108.6,11.5,80.6,11.7,52.6z"/>
			</g>
			<g>
				<path class="st0" d="M55.4,67.8c12.6,7.2,25.3,14.3,38,21.4c-0.1,11.4-0.1,22.7-0.1,34.1c-12.4-7.1-25.5-14.3-37.9-21.5
					C55.4,90.4,55.4,79.1,55.4,67.8z"/>
			</g>
		</g>
		<g>
			<g>
				<path class="st0" d="M93.2,8.8c25.3,14.6,50.7,29.1,76,43.6c0.2,8.9,0.4,17.8,0.6,26.8c-25.7,14.8-50.9,29.2-76.6,44.1
					c0-11.4,0-22.7,0.1-34.1c13.3-7.8,26.7-15.5,40.1-23.3c-13.3-7.8-26.8-15.5-40.1-23.4C93.4,31.3,93.4,20,93.2,8.8z"/>
			</g>
			<g>
				<g>
					<path class="st0" d="M546.5,63.6c4,0,8,0,12.1,0c0,24.4,0,48.7,0,73.1c-2.9,0-5.9,0.3-8.7-0.3c-2.4-1.3-1.9-4.6-2.7-6.9
						c-3.6,3.6-8,6.9-13.2,7.4c-6.2,1.1-13-1.5-16.6-6.7c-4.4-6.2-5.3-14.1-4.8-21.5c0.5-7,3.3-14.2,8.9-18.6
						c7.1-5.8,18.3-5.7,25.1,0.5C546.5,81.6,546.6,72.6,546.5,63.6z M528.2,99c-3.8,5.4-3.7,12.5-2.9,18.7c0.5,4.5,3.5,9.6,8.6,9.8
						c5,0.8,9.5-2.1,12.7-5.6c0-7.4-0.1-14.9,0-22.3C542.2,94.1,532.7,93.2,528.2,99z"/>
				</g>
			</g>
			<g>
				<path class="st0" d="M665.8,63.6c4,0,8,0,12,0c0,13.9,0,27.8,0,41.7c1.8-0.3,4.2,0.4,5.4-1.5c4.8-5.4,9-11.4,14-16.6
					c4.3-1.8,9.3-0.4,13.9-0.8c-6.4,7.2-12.1,15-19,21.7c7.2,9,13.2,19.1,19.9,28.5c-4.2-0.1-8.5,0.4-12.7-0.3
					c-1.4-0.2-2.1-1.6-2.8-2.6c-4.2-6.3-8.3-12.7-12.6-19c-1.2-2.2-4.2-1.3-6.2-1.6c0,7.8,0,15.6,0,23.4c-4,0-8,0-12,0
					C665.8,112.3,665.8,87.9,665.8,63.6z"/>
			</g>
			<g>
				<g>
					<path class="st0" d="M371.9,65.7c11-1.9,23,0.6,31.5,8.1c11.4,10,14.2,27.3,9.1,41.2c-3.3,9.2-10.8,16.7-20,19.9
						c-13,4.5-28.8,2.4-38.8-7.4c-12.5-12.2-13.8-33.5-4.2-47.7C354.6,72.2,363,67.2,371.9,65.7z M374.8,76.6
						c-5.8,0.8-11.2,4.1-14.2,9.2c-4.2,6.8-4.7,15.4-3.1,23.1c1.4,7.1,6.4,13.6,13.4,15.9c7.6,2.5,16.9,1.7,23.1-3.8
						c5.4-4.8,7.6-12.3,7.6-19.4c0.2-7.3-1.9-15.3-7.6-20.3C388.7,76.7,381.4,75.6,374.8,76.6z"/>
				</g>
			</g>
			<g>
				<path class="st0" d="M485.7,71.6c2.1-2.2,5.8-0.7,8.5-1.1c0,5.3,0,10.6,0,15.9c4.5,0,8.9,0,13.4,0c0,2.9,0,5.7,0,8.6
					c-4.5,0-8.9,0-13.4,0c0,8.6,0,17.2,0,25.8c0,2.2-0.1,5,2.2,6.2c2.7,1.3,5.5-0.5,8-1.4c1.5,2.4,3.1,4.8,4.5,7.2
					c-5.6,3.9-13.1,5.6-19.5,3.1c-4.8-1.8-7.2-7.1-7.2-11.9c-0.2-9.7,0-19.3-0.1-29c-2.3-0.2-4.9,0.6-6.9-0.8c-1-2-0.4-4.4-0.6-6.5
					c2.7-0.5,5.4-0.9,8.1-1.4C483.8,81.5,484.2,76.4,485.7,71.6z"/>
			</g>
			<g>
				<g>
					<path class="st0" d="M179.8,93.6c6.8-5.9,16.3-8.8,25.2-7.3c5.2,0.9,10,4.3,12.2,9.1c1.9,3.8,2.1,8.1,2.1,12.3
						c-0.1,9.6,0,19.3,0,28.9c-2.7-0.1-5.5,0.3-8.1-0.5c-1.7-1.4-1.8-3.8-2.6-5.7c-6.2,5.8-15.5,8.6-23.6,5.4
						c-8.5-3.2-10.3-16.2-3.2-21.8c7.1-5.9,16.9-6.5,25.8-6.9c-0.2-3.1,0.2-6.7-2-9.2c-2.4-2.8-6.5-2.7-9.9-2.2
						c-3.6,0.5-6.5,3.3-10.1,3.7C182.4,99.6,181.3,95.9,179.8,93.6z M191.8,118c-3.8,2.1-3.8,8.8,0.5,10.4c5.6,2,11.5-0.7,15.4-4.8
						c0-2.9,0-5.9,0-8.8C202.2,115,196.5,115.1,191.8,118z"/>
				</g>
			</g>
			<g>
				<path class="st0" d="M235.1,89.2c8.9-5.4,21.4-4.1,29.1,3c-1.1,1.8-2.2,3.7-3.6,5.4c-1.7,1.2-3.6-0.2-5.2-0.8
					c-4-1.9-9.1-2.8-13.1-0.5c-2.8,1.6-3,6-0.1,7.6c6.1,3.7,14.2,3.6,19.4,9c5.8,6.4,2.7,17.7-4.8,21.4c-9.4,4.9-21.5,3.3-29.8-3.3
					c1.3-2.1,2.3-4.5,4.3-6.1c2.3-0.9,4.4,0.9,6.4,1.8c3.9,2.2,9,2.7,13,0.5c2.8-1.6,3.6-6.2,0.8-8.1c-6-4-14.2-3.7-19.5-9
					C226.3,104.2,228.2,93.3,235.1,89.2z"/>
			</g>
			<g>
				<path class="st0" d="M266.7,86.4c3.8,0.1,7.6-0.2,11.4,0.1c2.5,0.3,2.9,3.2,3.9,5.1c3.6,9.6,8.2,18.8,11.1,28.6
					c3.3-9.8,7.4-19.4,11-29.2c0.8-1.7,1.3-4.2,3.5-4.5c3.5-0.4,7-0.1,10.4-0.1c-8.7,20.5-17.6,40.9-26.3,61.4
					c-0.9,1.7-1.4,4.4-3.6,4.9c-3.5,0.5-7,0.1-10.5,0.2c3.1-6.6,6.3-13.3,9.4-19.9C280.3,117.4,273.5,101.9,266.7,86.4z"/>
			</g>
			<g>
				<path class="st0" d="M423.2,86.4c4,0,8,0,12,0c0,10.9-0.1,21.7,0,32.6c-0.1,3.6,1.7,7.6,5.4,8.6c5.3,1.6,10.5-1.1,14.3-4.7
					c-0.1-12.2,0-24.3,0-36.5c4,0,8,0,12,0c0,16.7,0,33.5,0,50.2c-2.7,0-5.5,0.2-8.2-0.1c-2.7-0.5-2.4-3.9-3.1-5.9
					c-6.5,6.5-17.5,9-25.4,3.7c-5-3.4-7-9.7-7.1-15.5C423.1,108.1,423.2,97.2,423.2,86.4z"/>
			</g>
			<g>
				<g>
					<path class="st0" d="M580,88.9c7.4-4,17-4.1,24.3,0.1c7.4,4.3,10.6,13.6,9.5,21.8c-0.1,1.9-2.3,2.1-3.7,2.1
						c-10,0-20.1,0-30.1,0c0.6,4.7,1.8,9.9,5.9,12.9c5,3.4,11.8,2.9,16.9,0c2-0.9,3.9-2.6,6.2-2c1.8,1.6,3.1,3.6,4.6,5.5
						c-6.3,6.7-16.2,8.7-25,7.6c-5.9-0.8-11.6-3.9-15.2-8.7c-4.5-6.1-5.8-14-5-21.4C569.2,99.4,573.4,92.4,580,88.9z M586.7,95.7
						c-3.9,1.8-5.6,6.1-6.5,10c7.7,0.1,15.5,0,23.2,0c-0.5-2.7-0.8-5.7-2.8-7.8C597.3,94,591.2,93.7,586.7,95.7z"/>
				</g>
			</g>
			<g>
				<path class="st0" d="M624.7,90.9c8.7-7.5,23-6.4,31.3,1.3c-1.2,1.8-2.2,3.7-3.6,5.4c-1.7,1.2-3.6-0.3-5.2-0.8
					c-4-1.9-9-2.8-13-0.5c-2.8,1.6-3,6-0.1,7.6c6.3,3.8,14.8,3.6,19.9,9.5c5.1,6.5,2,17.1-5.2,20.8c-9.4,4.9-21.6,3.3-29.8-3.2
					c1.8-2.5,3.1-7.6,7.1-6.1c4.8,2.7,10.6,5.1,15.9,2.6c3.3-1.3,4.5-6.4,1.3-8.5c-5.8-3.8-13.6-3.7-18.9-8.4
					C618.9,105.6,619.4,95.9,624.7,90.9z"/>
			</g>
			<g>
				<path class="st0" d="M93.1,147.7c25.1-15.1,50.8-29.4,76.1-44.2c0,11.2,0,22.4,0,33.5c-25.4,14.8-50.9,29.4-76.2,44.3
					C93.3,170.1,93.6,158.9,93.1,147.7z"/>
			</g>
		</g>
		<g>
			<g>
				<path class="st0" d="M93.3,129.9c25.2-14.6,50.9-28.8,76.1-43.5c0.1,3.8,0.2,7.6,0.2,11.4c-25.2,14.4-51.1,29.1-76.3,43.5
					C93.1,137.4,93.4,133.8,93.3,129.9z"/>
			</g>
		</g>
		<g>
			<g>
				<path class="st0" d="M93.3,129.9v11.4c-13-6.5-25.4-14.1-38.2-21c0-4,0-8,0-12C67.8,115.5,80.5,122.7,93.3,129.9z"/>
			</g>
		</g>
	</g>
	<g>
		<path class="st0" d="M704,67.6C704,67.7,704,67.7,704,67.6c0,0.1,0,0.1,0,0.1c0,0,0,0,0,0c0,0,0,0,0,0h-1.5v4.4c0,0,0,0,0,0
			s0,0,0,0s0,0-0.1,0c0,0-0.1,0-0.1,0c0,0-0.1,0-0.1,0c0,0-0.1,0-0.1,0s0,0,0,0s0,0,0,0v-4.4h-1.5c0,0,0,0-0.1,0c0,0,0,0,0,0
			c0,0,0,0,0-0.1c0,0,0-0.1,0-0.1c0,0,0-0.1,0-0.1c0,0,0,0,0-0.1c0,0,0,0,0,0c0,0,0,0,0.1,0h3.4c0,0,0,0,0,0c0,0,0,0,0,0
			C704,67.5,704,67.5,704,67.6C704,67.6,704,67.6,704,67.6z"/>
		<path class="st0" d="M709.9,72.2C709.9,72.2,709.9,72.3,709.9,72.2C709.9,72.3,709.9,72.3,709.9,72.2c-0.1,0.1-0.1,0.1-0.1,0.1
			c0,0-0.1,0-0.1,0c0,0-0.1,0-0.1,0c0,0-0.1,0-0.1,0s0,0,0,0s0,0,0,0v-4.4h0l-1.9,4.4c0,0,0,0,0,0c0,0,0,0,0,0s0,0-0.1,0
			c0,0-0.1,0-0.1,0c0,0-0.1,0-0.1,0c0,0,0,0-0.1,0c0,0,0,0,0,0s0,0,0,0l-1.8-4.4h0v4.4c0,0,0,0,0,0c0,0,0,0,0,0c0,0,0,0-0.1,0
			c0,0-0.1,0-0.1,0c0,0-0.1,0-0.1,0c0,0-0.1,0-0.1,0s0,0,0,0c0,0,0,0,0,0v-4.6c0-0.1,0-0.2,0.1-0.2c0,0,0.1-0.1,0.1-0.1h0.2
			c0.1,0,0.1,0,0.2,0c0,0,0.1,0,0.1,0.1c0,0,0.1,0.1,0.1,0.1c0,0,0,0.1,0.1,0.1l1.6,3.9h0l1.7-3.9c0-0.1,0.1-0.1,0.1-0.2
			c0,0,0.1-0.1,0.1-0.1c0,0,0.1,0,0.1-0.1c0,0,0.1,0,0.1,0h0.3c0,0,0,0,0.1,0c0,0,0,0,0.1,0c0,0,0,0,0.1,0.1s0,0.1,0,0.1V72.2z"/>
	</g>
	<g>
		<path class="st0" d="M705.4,75.9c-3.6,0-6.6-2.9-6.6-6.6s2.9-6.6,6.6-6.6s6.6,2.9,6.6,6.6S709,75.9,705.4,75.9z M705.4,63.1
			c-3.4,0-6.2,2.8-6.2,6.2s2.8,6.2,6.2,6.2s6.2-2.8,6.2-6.2S708.8,63.1,705.4,63.1z"/>
	</g>
</g>
</svg>
