<svg xmlns="http://www.w3.org/2000/svg" width="51.157" height="47.504" viewBox="0 0 51.157 47.504">
  <g id="Icon_ionic-md-analytics" data-name="Icon ionic-md-analytics" transform="translate(-2.25 -3.375)">
    <path id="Path_78037" data-name="Path 78037" d="M41.911,12.905l-9.955,15.23a5.423,5.423,0,0,1,1.233,3.459,5.48,5.48,0,0,1-10.96,0,6,6,0,0,1,.091-1.016l-6.576-3.825a5.446,5.446,0,0,1-3.8,1.53,5.51,5.51,0,0,1-2.694-.708l-7,6.553v6.53a4.887,4.887,0,0,0,4.875,4.875H48.532a4.887,4.887,0,0,0,4.875-4.875V16.387l-6.69-4.441a5.476,5.476,0,0,1-4.806.959Z" transform="translate(0 5.346)" fill="#206ef6"/>
    <path id="Path_78038" data-name="Path 78038" d="M11.954,22.669a5.481,5.481,0,0,1,5.48,5.48c0,.24-.023.479-.046.708l6.861,3.836a5.431,5.431,0,0,1,3.471-1.233,5.734,5.734,0,0,1,1.187.126l9.978-15.458a5.422,5.422,0,0,1-1.016-3.174,5.48,5.48,0,0,1,10.96,0,5.955,5.955,0,0,1-.148,1.29L53.4,17.394V8.25a4.887,4.887,0,0,0-4.875-4.875H7.125A4.887,4.887,0,0,0,2.25,8.25V34.428l4.567-4.372a5.48,5.48,0,0,1,5.137-7.386Z" fill="#206ef6"/>
  </g>
</svg>
