<?xml version="1.0" encoding="utf-8"?>
<!-- Generator: Adobe Illustrator 26.1.0, SVG Export Plug-In . SVG Version: 6.00 Build 0)  -->
<svg version="1.1" id="Layer_1" xmlns="http://www.w3.org/2000/svg" xmlns:xlink="http://www.w3.org/1999/xlink" x="0px" y="0px"
	 viewBox="0 0 616.2 173.7" style="enable-background:new 0 0 616.2 173.7;" xml:space="preserve">
<style type="text/css">
	.st0{fill:#1B6DB4;}
	.st1{fill:#014E8D;}
	.st2{fill:#373737;}
	.st3{fill:#505050;}
</style>
<g>
	<g>
		<g>
			<path class="st0" d="M11.5,51.4c23-12.4,46.1-24.8,69.1-37.2c0.2,9.6,0.2,19.1,0.1,28.7c-13.9,7.3-27.9,14.3-41.9,21.5
				c-0.1,15.3-0.1,30.5-0.1,45.8c14,7.3,27.8,14.7,41.9,21.9c0.4,9.5,0.2,19-0.1,28.5c-23.2-12.6-46.3-25.3-69.5-38
				C11.2,98.9,11.3,75.1,11.5,51.4z"/>
			<path class="st0" d="M48.6,64.3C59.3,70.3,70,76.4,80.8,82.5c0,9.6,0,19.2,0,28.9c-10.5-6-21.7-12.2-32.2-18.3
				C48.6,83.5,48.6,73.9,48.6,64.3z"/>
		</g>
	</g>
	<g>
		<g>
			<path class="st1" d="M80.7,14.2c21.5,12.4,43,24.7,64.5,37c0.1,7.6,0.4,15.1,0.5,22.7c-21.8,12.6-43.2,24.8-65,37.5
				c0-9.7,0-19.3,0-28.9c11.3-6.6,22.7-13.1,34-19.7c-11.3-6.7-22.7-13.2-34-19.8C80.8,33.3,80.9,23.7,80.7,14.2z"/>
			<g>
				<path class="st0" d="M465.5,60.7c3.4,0,6.8,0,10.2,0c0,20.7,0,41.3,0,62c-2.5,0-5,0.3-7.4-0.2c-2-1.1-1.6-3.9-2.3-5.8
					c-3,3.1-6.8,5.8-11.2,6.3c-5.3,0.9-11-1.2-14.1-5.7c-3.7-5.2-4.5-12-4.1-18.2c0.4-5.9,2.8-12,7.6-15.8c6-4.9,15.5-4.9,21.3,0.4
					C465.4,76,465.5,68.4,465.5,60.7z M449.9,90.8c-3.3,4.5-3.1,10.6-2.4,15.9c0.5,3.9,2.9,8.2,7.3,8.3c4.2,0.7,8.1-1.7,10.8-4.8
					c0-6.3-0.1-12.6,0-18.9C461.8,86.6,453.7,85.8,449.9,90.8z"/>
			</g>
			<path class="st0" d="M566.7,60.7c3.4,0,6.8,0,10.2,0c0,11.8,0,23.6,0,35.4c1.6-0.3,3.6,0.3,4.6-1.2c4.1-4.6,7.6-9.7,11.9-14.1
				c3.7-1.5,7.9-0.4,11.8-0.7c-5.4,6.1-10.3,12.7-16.1,18.4c6.2,7.7,11.2,16.2,16.9,24.2c-3.6-0.1-7.2,0.3-10.8-0.2
				c-1.2-0.2-1.7-1.4-2.4-2.2c-3.6-5.4-7.1-10.8-10.7-16.1c-1-1.9-3.5-1.1-5.3-1.3c0,6.6,0,13.3,0,19.9c-3.4,0-6.8,0-10.2,0
				C566.7,102.1,566.7,81.4,566.7,60.7z"/>
			<g>
				<path class="st0" d="M317.2,62.5c9.3-1.6,19.5,0.5,26.7,6.9c9.7,8.5,12,23.2,7.7,35c-2.8,7.8-9.2,14.2-17,16.9
					c-11,3.8-24.4,2-32.9-6.3c-10.6-10.3-11.7-28.4-3.5-40.5C302.5,68,309.7,63.8,317.2,62.5z M319.7,71.7
					c-4.9,0.7-9.5,3.5-12.1,7.8c-3.6,5.8-4,13.1-2.7,19.6c1.2,6,5.4,11.6,11.4,13.5c6.5,2.1,14.3,1.4,19.6-3.2
					c4.6-4.1,6.4-10.4,6.4-16.4c0.1-6.2-1.6-13-6.5-17.2C331.5,71.9,325.3,70.9,319.7,71.7z"/>
			</g>
			<path class="st0" d="M413.8,67.5c1.8-1.9,4.9-0.6,7.2-0.9c0,4.5,0,9,0,13.5c3.8,0,7.6,0,11.4,0c0,2.4,0,4.9,0,7.3
				c-3.8,0-7.6,0-11.4,0c0,7.3,0,14.6,0,21.9c0,1.9,0,4.2,1.9,5.2c2.3,1.1,4.6-0.5,6.8-1.1c1.3,2,2.6,4,3.8,6.1
				c-4.7,3.3-11.1,4.7-16.6,2.6c-4-1.6-6.1-6-6.1-10.1c-0.2-8.2,0-16.4-0.1-24.6c-1.9-0.2-4.2,0.5-5.8-0.6c-0.8-1.7-0.3-3.7-0.5-5.5
				c2.3-0.4,4.6-0.8,6.9-1.1C412.2,75.9,412.6,71.6,413.8,67.5z"/>
			<g>
				<path class="st2" d="M154.2,86.2c5.8-5,13.8-7.5,21.4-6.2c4.4,0.8,8.5,3.6,10.4,7.8c1.6,3.2,1.8,6.9,1.8,10.5
					c0,8.2,0,16.4,0,24.5c-2.3-0.1-4.6,0.2-6.9-0.4c-1.4-1.2-1.5-3.2-2.2-4.9c-5.2,4.9-13.2,7.3-20,4.6c-7.2-2.7-8.8-13.8-2.7-18.5
					c6-5,14.4-5.5,21.9-5.9c-0.1-2.6,0.2-5.7-1.7-7.8c-2.1-2.4-5.5-2.3-8.4-1.9c-3.1,0.4-5.5,2.8-8.5,3.2
					C156.4,91.3,155.5,88.1,154.2,86.2z M164.3,106.9c-3.3,1.8-3.2,7.5,0.4,8.9c4.7,1.7,9.8-0.6,13-4.1c0-2.5,0-5,0-7.5
					C173.2,104.3,168.3,104.4,164.3,106.9z"/>
			</g>
			<path class="st2" d="M201.1,82.5c7.6-4.6,18.2-3.5,24.7,2.6c-1,1.5-1.8,3.2-3,4.6c-1.5,1.1-3-0.2-4.4-0.7
				c-3.4-1.6-7.7-2.4-11.1-0.4c-2.4,1.3-2.6,5.1-0.1,6.4c5.2,3.2,12.1,3.1,16.5,7.6c4.9,5.4,2.3,15-4,18.2c-8,4.1-18.3,2.8-25.3-2.8
				c1.1-1.8,2-3.8,3.6-5.2c2-0.8,3.7,0.7,5.4,1.5c3.3,1.8,7.7,2.3,11,0.4c2.4-1.3,3.1-5.3,0.6-6.9c-5.1-3.4-12.1-3.1-16.6-7.6
				C193.7,95.2,195.2,86,201.1,82.5z"/>
			<path class="st2" d="M228,80.1c3.2,0.1,6.4-0.2,9.6,0.1c2.1,0.3,2.5,2.7,3.3,4.3c3.1,8.1,6.9,15.9,9.4,24.3
				c2.8-8.4,6.3-16.5,9.3-24.7c0.6-1.5,1.1-3.5,3-3.8c2.9-0.3,5.9-0.1,8.9-0.1c-7.4,17.4-14.9,34.7-22.3,52.1
				c-0.8,1.5-1.2,3.7-3,4.2c-3,0.4-6,0.1-8.9,0.2c2.7-5.6,5.3-11.3,8-16.9C239.5,106.4,233.7,93.3,228,80.1z"/>
			<path class="st0" d="M360.8,80.1c3.4,0,6.8,0,10.2,0c0,9.2-0.1,18.4,0,27.6c0,3,1.4,6.5,4.5,7.3c4.5,1.3,9-1,12.2-4
				c-0.1-10.3,0-20.7,0-31c3.4,0,6.8,0,10.2,0c0,14.2,0,28.4,0,42.7c-2.3,0-4.6,0.1-6.9-0.1c-2.3-0.4-2-3.3-2.6-5
				c-5.5,5.5-14.8,7.7-21.6,3.2c-4.2-2.9-5.9-8.2-6-13.1C360.7,98.5,360.8,89.3,360.8,80.1z"/>
			<g>
				<path class="st0" d="M493.9,82.2c6.3-3.4,14.4-3.5,20.6,0.1c6.3,3.7,9,11.5,8.1,18.5c0,1.6-1.9,1.8-3.1,1.7c-8.5,0-17,0-25.6,0
					c0.5,4,1.5,8.4,5,10.9c4.2,2.9,10,2.4,14.3,0c1.7-0.7,3.3-2.2,5.3-1.7c1.5,1.4,2.6,3.1,3.9,4.7c-5.4,5.7-13.7,7.4-21.2,6.4
					c-5-0.7-9.9-3.3-12.9-7.4c-3.9-5.2-4.9-11.9-4.2-18.2C484.7,91.1,488.3,85.1,493.9,82.2z M499.6,87.9c-3.3,1.5-4.8,5.1-5.5,8.5
					c6.6,0,13.1,0,19.7,0c-0.4-2.3-0.7-4.8-2.4-6.6C508.5,86.5,503.4,86.3,499.6,87.9z"/>
			</g>
			<path class="st0" d="M531.8,83.9c7.4-6.4,19.5-5.4,26.6,1.1c-1,1.6-1.9,3.2-3.1,4.6c-1.5,1-3-0.2-4.4-0.7
				c-3.4-1.6-7.7-2.4-11.1-0.4c-2.4,1.3-2.6,5.1-0.1,6.5c5.3,3.3,12.6,3.1,16.9,8.1c4.3,5.5,1.7,14.5-4.4,17.7
				c-8,4.2-18.3,2.8-25.3-2.7c1.5-2.1,2.7-6.4,6.1-5.2c4,2.3,9,4.4,13.5,2.2c2.8-1.1,3.8-5.4,1.1-7.2c-5-3.2-11.5-3.1-16.1-7.2
				C526.9,96.4,527.3,88.2,531.8,83.9z"/>
			<path class="st1" d="M80.6,132.1c21.3-12.8,43.1-24.9,64.6-37.5c0,9.5,0,19,0,28.5c-21.5,12.6-43.2,24.9-64.7,37.6
				C80.8,151.1,81,141.6,80.6,132.1z"/>
		</g>
	</g>
	<g>
		<path class="st2" d="M80.7,117c21.4-12.4,43.2-24.5,64.6-36.9c0.1,3.2,0.2,6.4,0.2,9.7c-21.4,12.2-43.3,24.7-64.8,36.9
			C80.6,123.4,80.8,120.3,80.7,117z"/>
	</g>
	<g>
		<path class="st3" d="M80.7,117v9.7c-11-5.5-21.6-11.9-32.4-17.8c0-3.4,0-6.8,0-10.2C59.1,104.8,69.9,110.9,80.7,117z"/>
	</g>
</g>
</svg>
