<svg xmlns="http://www.w3.org/2000/svg" width="250" height="61.541" viewBox="0 0 250 61.541">
  <g id="EOD_Logo_Src-01" data-name="EOD Logo Src-01" transform="translate(-57.21 -166.13)">
    <g id="Group_39713" data-name="Group 39713" transform="translate(116.478 185.679)">
      <path id="Path_78021" data-name="Path 78021" d="M563.032,220.116q2.151-.005,4.306,0v26.07a17.515,17.515,0,0,1-3.114-.091c-.847-.467-.688-1.64-.952-2.448a8.015,8.015,0,0,1-4.711,2.644,6.068,6.068,0,0,1-5.939-2.394,11.915,11.915,0,0,1-1.716-7.663,9.264,9.264,0,0,1,3.19-6.634,7.048,7.048,0,0,1,8.949.167c-.026-3.219-.007-6.435-.011-9.655Zm-6.544,12.631c-1.372,1.912-1.315,4.447-1.029,6.681.2,1.622,1.231,3.433,3.057,3.48a5.162,5.162,0,0,0,4.523-2.01c-.011-2.651-.022-5.3,0-7.949C561.486,230.991,558.078,230.683,556.488,232.747Z" transform="translate(-431.365 -220.113)" fill="#036ec1"/>
      <path id="Path_78022" data-name="Path 78022" d="M701.909,220.117c1.427,0,2.857,0,4.288,0q0,7.442,0,14.887c.652-.12,1.5.127,1.941-.518,1.724-1.927,3.212-4.067,5.012-5.921,1.543-.645,3.328-.148,4.969-.3-2.281,2.56-4.331,5.334-6.768,7.742,2.586,3.227,4.693,6.812,7.087,10.183a37.712,37.712,0,0,1-4.527-.1c-.5-.087-.732-.572-1.007-.923-1.5-2.256-2.97-4.53-4.5-6.765-.435-.793-1.485-.449-2.213-.565q-.005,4.177,0,8.354h-4.284q-.011-13.042,0-26.081Z" transform="translate(-527.708 -220.115)" fill="#036ec1"/>
      <path id="Path_78023" data-name="Path 78023" d="M394.365,221.844a13.577,13.577,0,0,1,11.226,2.886c4.06,3.578,5.052,9.756,3.248,14.714a11.76,11.76,0,0,1-7.138,7.091c-4.628,1.615-10.263.84-13.844-2.654-4.454-4.346-4.936-11.936-1.492-17.024A12.075,12.075,0,0,1,394.365,221.844Zm1.021,3.871a7.148,7.148,0,0,0-5.081,3.266,11.541,11.541,0,0,0-1.115,8.239,7.432,7.432,0,0,0,4.773,5.675,8.661,8.661,0,0,0,8.239-1.344,9.088,9.088,0,0,0,2.7-6.906,9.255,9.255,0,0,0-2.72-7.239A8.389,8.389,0,0,0,395.386,225.715Z" transform="translate(-324.992 -221.081)" fill="#036ec1"/>
      <path id="Path_78024" data-name="Path 78024" d="M517.578,227.252c.746-.779,2.068-.261,3.046-.4,0,1.894,0,3.788,0,5.682,1.593,0,3.183,0,4.78,0q-.005,1.537,0,3.075c-1.593.011-3.187.007-4.78.007,0,3.071,0,6.142-.007,9.216,0,.779-.018,1.767.779,2.2.96.453,1.948-.192,2.857-.482.547.847,1.09,1.7,1.608,2.568a7.651,7.651,0,0,1-6.968,1.1,4.477,4.477,0,0,1-2.564-4.248c-.072-3.448-.007-6.9-.029-10.346-.807-.076-1.746.2-2.455-.268a6.17,6.17,0,0,1-.2-2.325q1.44-.244,2.886-.482c.38-1.76.525-3.574,1.047-5.3Z" transform="translate(-407.617 -224.386)" fill="#036ec1"/>
      <path id="Path_78025" data-name="Path 78025" d="M221.712,244.872a11.066,11.066,0,0,1,9-2.6,5.952,5.952,0,0,1,4.367,3.259,9.435,9.435,0,0,1,.746,4.393c-.018,3.44,0,6.877-.007,10.317a10.661,10.661,0,0,1-2.883-.181c-.6-.493-.645-1.365-.923-2.042a8.17,8.17,0,0,1-8.42,1.919c-3.038-1.141-3.69-5.787-1.137-7.764,2.542-2.1,6.033-2.329,9.191-2.466-.062-1.108.076-2.379-.717-3.274-.866-.989-2.325-.956-3.516-.779-1.289.185-2.307,1.166-3.589,1.336C222.632,247.031,222.255,245.676,221.712,244.872Zm4.262,8.7a2.143,2.143,0,0,0,.17,3.723,5.257,5.257,0,0,0,5.483-1.717c-.007-1.047,0-2.093,0-3.14-1.916.051-3.965.105-5.649,1.133Z" transform="translate(-220.873 -234.158)" fill="#373737"/>
      <path id="Path_78026" data-name="Path 78026" d="M272.683,243.283a8.889,8.889,0,0,1,10.372,1.083,16.16,16.16,0,0,1-1.275,1.916c-.612.445-1.271-.083-1.865-.275a5.1,5.1,0,0,0-4.661-.163,1.582,1.582,0,0,0-.033,2.705c2.18,1.333,5.077,1.3,6.935,3.2,2.079,2.274.956,6.3-1.695,7.634a10.067,10.067,0,0,1-10.621-1.162,8.422,8.422,0,0,1,1.528-2.187c.829-.333,1.564.3,2.285.627a4.9,4.9,0,0,0,4.639.167,1.771,1.771,0,0,0,.268-2.9c-2.147-1.416-5.074-1.322-6.96-3.2a4.961,4.961,0,0,1,1.083-7.431Z" transform="translate(-252.107 -234.134)" fill="#373737"/>
      <path id="Path_78027" data-name="Path 78027" d="M308.82,242.6c1.351.025,2.705-.08,4.052.043.887.112,1.05,1.148,1.383,1.811,1.282,3.415,2.908,6.7,3.962,10.2,1.188-3.513,2.647-6.924,3.925-10.4.268-.612.46-1.488,1.246-1.608,1.235-.127,2.481-.029,3.723-.047-3.118,7.3-6.269,14.587-9.368,21.895-.337.612-.485,1.557-1.275,1.745a31.629,31.629,0,0,1-3.752.069q1.673-3.558,3.353-7.109-3.629-8.3-7.25-16.6Z" transform="translate(-276.971 -234.442)" fill="#373737"/>
      <path id="Path_78028" data-name="Path 78028" d="M462.929,242.62q2.146-.011,4.291,0c.014,3.871-.025,7.742.014,11.614a3.024,3.024,0,0,0,1.912,3.085c1.887.558,3.763-.409,5.11-1.68-.022-4.342,0-8.68-.011-13.019,1.43,0,2.861-.007,4.295,0v17.926a27.035,27.035,0,0,1-2.919-.047c-.978-.174-.847-1.4-1.1-2.118-2.314,2.314-6.229,3.219-9.061,1.333a6.659,6.659,0,0,1-2.524-5.512C462.914,250.341,462.939,246.481,462.929,242.62Z" transform="translate(-375.271 -234.466)" fill="#036ec1"/>
      <path id="Path_78029" data-name="Path 78029" d="M609.966,243.177a9.145,9.145,0,0,1,8.677.04,7.813,7.813,0,0,1,3.39,7.764c-.018.692-.8.739-1.322.732-3.582.011-7.163-.014-10.745.007.2,1.684.645,3.549,2.1,4.6a5.818,5.818,0,0,0,6.011,0c.71-.308,1.394-.934,2.224-.7a14.216,14.216,0,0,1,1.63,1.966c-2.256,2.386-5.762,3.114-8.923,2.7a8.083,8.083,0,0,1-5.432-3.114,10.753,10.753,0,0,1-1.771-7.638,8.271,8.271,0,0,1,4.157-6.348Zm2.4,2.415c-1.405.634-2.01,2.162-2.325,3.567,2.756.018,5.512.014,8.268,0a5.246,5.246,0,0,0-.989-2.781,4.364,4.364,0,0,0-4.954-.789Z" transform="translate(-466.356 -234.14)" fill="#036ec1"/>
      <path id="Path_78030" data-name="Path 78030" d="M657.89,243.89c3.107-2.68,8.21-2.285,11.165.464a16.355,16.355,0,0,1-1.286,1.927c-.623.424-1.271-.094-1.861-.29a5.1,5.1,0,0,0-4.65-.163,1.582,1.582,0,0,0-.033,2.712c2.242,1.372,5.294,1.3,7.109,3.393,1.825,2.325.706,6.109-1.854,7.424a10.06,10.06,0,0,1-10.64-1.152c.63-.887,1.119-2.709,2.549-2.184,1.7.949,3.77,1.832,5.682.913a1.8,1.8,0,0,0,.478-3.038c-2.082-1.354-4.845-1.315-6.754-3.006a4.914,4.914,0,0,1,.094-7Z" transform="translate(-498.323 -234.121)" fill="#036ec1"/>
    </g>
    <g id="Group_39715" data-name="Group 39715" transform="translate(57.21 166.13)">
      <g id="Group_39714" data-name="Group 39714">
        <path id="Path_78031" data-name="Path 78031" d="M57.21,181.724c9.687-5.211,19.5-10.408,29.2-15.594.083,4.02.018,8.057-.007,12.077-5.852,3.053-11.682,6.015-17.549,9.039-.022,6.417-.029,12.834-.054,19.251,5.867,3.06,11.7,6.185,17.6,9.184.159,3.994.12,8,0,11.99q-14.623-7.942-29.2-15.92c.076-9.988,0-20.033,0-30.028Z" transform="translate(-57.21 -166.13)" fill="#036ec1"/>
        <path id="Path_78032" data-name="Path 78032" d="M100.61,224.27c4.512,2.553,8.959,5.1,13.479,7.641-.018,4.052,0,8.1,0,12.16-4.425-2.535-9.068-5.113-13.479-7.677Q100.626,230.332,100.61,224.27Z" transform="translate(-84.893 -203.216)" fill="#036ec1"/>
      </g>
      <path id="Path_78033" data-name="Path 78033" d="M137.823,166.13q13.558,7.789,27.128,15.561c.025,3.158-.014,6.326,0,9.6-9.18,5.28-17.98,10.368-27.135,15.691,0-4.063-.018-8.108,0-12.16,4.755-2.792,9.6-5.519,14.37-8.293-4.762-2.8-9.615-5.519-14.37-8.325C137.816,174.184,137.816,170.175,137.823,166.13Z" transform="translate(-108.62 -166.13)" fill="#004e8e"/>
      <path id="Path_78034" data-name="Path 78034" d="M137.82,275.194c8.966-5.385,18.107-10.484,27.142-15.764q-.016,5.981,0,11.965c-9.057,5.276-18.1,10.48-27.135,15.789,0-4.027,0-7.916,0-11.99Z" transform="translate(-108.628 -225.643)" fill="#004e8e"/>
      <path id="Path_78035" data-name="Path 78035" d="M137.83,258.215c9-5.215,18.139-10.219,27.135-15.445,0,1.394-.014,2.731,0,4.085-9.006,5.135-18.125,10.321-27.135,15.449v-4.085Z" transform="translate(-108.635 -215.016)" fill="#373737"/>
      <path id="Path_78036" data-name="Path 78036" d="M113.878,271.865v4.074c-4.632-2.321-9.032-5.019-13.591-7.482,0-1.43,0-2.857-.007-4.288,4.541,2.575,9.043,5.139,13.6,7.692Z" transform="translate(-84.683 -228.666)" fill="#505050"/>
    </g>
  </g>
</svg>
