<svg id="Group_39838" data-name="Group 39838" xmlns="http://www.w3.org/2000/svg" xmlns:xlink="http://www.w3.org/1999/xlink" width="899.439" height="413.181" viewBox="0 0 899.439 413.181">
  <defs>
    <clipPath id="clip-path">
      <rect id="Rectangle_22730" data-name="Rectangle 22730" width="899.439" height="413.181" fill="none"/>
    </clipPath>
    <clipPath id="clip-path-2">
      <rect id="Rectangle_22729" data-name="Rectangle 22729" width="899.439" height="413.182" fill="none"/>
    </clipPath>
    <clipPath id="clip-path-3">
      <rect id="Rectangle_22698" data-name="Rectangle 22698" width="93.113" height="25.984" fill="none"/>
    </clipPath>
    <clipPath id="clip-path-4">
      <rect id="Rectangle_22721" data-name="Rectangle 22721" width="34.922" height="9.559" fill="none"/>
    </clipPath>
    <clipPath id="clip-path-5">
      <rect id="Rectangle_22723" data-name="Rectangle 22723" width="5.245" height="26.882" fill="none"/>
    </clipPath>
    <clipPath id="clip-path-6">
      <rect id="Rectangle_22724" data-name="Rectangle 22724" width="22.102" height="11.453" fill="none"/>
    </clipPath>
  </defs>
  <g id="Group_39837" data-name="Group 39837" clip-path="url(#clip-path)">
    <rect id="Rectangle_22696" data-name="Rectangle 22696" width="93.111" height="136.715" transform="translate(401.859 275.675)" fill="#d3dfff"/>
    <g id="Group_39836" data-name="Group 39836" transform="translate(0 -0.001)">
      <g id="Group_39835" data-name="Group 39835" clip-path="url(#clip-path-2)">
        <g id="Group_39825" data-name="Group 39825" transform="translate(401.857 289.667)" opacity="0.3">
          <g id="Group_39824" data-name="Group 39824">
            <g id="Group_39823" data-name="Group 39823" clip-path="url(#clip-path-3)">
              <rect id="Rectangle_22697" data-name="Rectangle 22697" width="93.111" height="25.984" transform="translate(0.002)" fill="#1f3c88"/>
            </g>
          </g>
        </g>
        <path id="Path_78126" data-name="Path 78126" d="M1462.415,956.374a24.884,24.884,0,1,1-24.884-24.884,24.884,24.884,0,0,1,24.884,24.884" transform="translate(-989.116 -652.216)" fill="#fff"/>
        <rect id="Rectangle_22699" data-name="Rectangle 22699" width="459.268" height="302.711" transform="translate(218.78)" fill="#d3dfff"/>
        <rect id="Rectangle_22700" data-name="Rectangle 22700" width="428.426" height="273.943" transform="translate(234.201 11.461)" fill="#fff"/>
        <rect id="Rectangle_22701" data-name="Rectangle 22701" width="192.68" height="18.511" transform="translate(351.781 393.88)" fill="#708cd5"/>
        <path id="Path_78127" data-name="Path 78127" d="M1010.96,354.452l8.281-59.764a61.193,61.193,0,1,0,48.728,53.4Z" transform="translate(-662.377 -205.497)" fill="#fff"/>
        <path id="Path_78128" data-name="Path 78128" d="M1010.96,354.452l8.281-59.764a61.193,61.193,0,1,0,48.728,53.4Z" transform="translate(-662.377 -205.497)" fill="none" stroke="#708cd5" stroke-miterlimit="10" stroke-width="4"/>
        <path id="Path_78129" data-name="Path 78129" d="M1253.675,314.882a61.2,61.2,0,0,0-48.728-53.4l-8.28,59.764Z" transform="translate(-837.89 -183.088)" fill="#fff"/>
        <path id="Path_78130" data-name="Path 78130" d="M1253.675,314.882a61.2,61.2,0,0,0-48.728-53.4l-8.28,59.764Z" transform="translate(-837.89 -183.088)" fill="none" stroke="#708cd5" stroke-miterlimit="10" stroke-width="4"/>
        <path id="Path_78131" data-name="Path 78131" d="M1096.4,557.813c0-2.643,1.613-4.323,3.9-4.323s3.875,1.657,3.875,4.323-1.591,4.324-3.875,4.324-3.9-1.68-3.9-4.324m5.533,0c0-1.68-.65-2.486-1.635-2.486-.963,0-1.635.829-1.635,2.486s.672,2.487,1.635,2.487c.986,0,1.635-.806,1.635-2.487m7.707-4.144h2.666l-10.708,15.681h-2.666Zm-2.577,11.537c0-2.643,1.613-4.324,3.875-4.324,2.286,0,3.9,1.681,3.9,4.324s-1.612,4.324-3.9,4.324c-2.263,0-3.875-1.681-3.875-4.324m5.51,0c0-1.658-.649-2.487-1.635-2.487-.963,0-1.635.807-1.635,2.487s.672,2.486,1.635,2.486c.986,0,1.635-.828,1.635-2.486" transform="translate(-767.682 -387.546)" fill="#708cd5"/>
        <rect id="Rectangle_22702" data-name="Rectangle 22702" width="156.035" height="115.092" transform="translate(451.211 91.808)" fill="#fff"/>
        <rect id="Rectangle_22703" data-name="Rectangle 22703" width="156.035" height="115.092" transform="translate(451.211 91.808)" fill="none" stroke="#708cd5" stroke-miterlimit="10" stroke-width="4"/>
        <rect id="Rectangle_22704" data-name="Rectangle 22704" width="10.194" height="18.867" transform="translate(466.567 165.366)" fill="#d3dfff"/>
        <rect id="Rectangle_22705" data-name="Rectangle 22705" width="10.194" height="41.926" transform="translate(485.755 142.307)" fill="#efd3ff"/>
        <rect id="Rectangle_22706" data-name="Rectangle 22706" width="10.194" height="63.717" transform="translate(504.943 120.516)" fill="#b0f9ea"/>
        <rect id="Rectangle_22707" data-name="Rectangle 22707" width="10.194" height="47.265" transform="translate(524.131 136.968)" fill="#cff9b2"/>
        <rect id="Rectangle_22708" data-name="Rectangle 22708" width="10.194" height="51.161" transform="translate(543.32 133.072)" fill="#c7c3fc"/>
        <rect id="Rectangle_22709" data-name="Rectangle 22709" width="10.194" height="50.327" transform="translate(562.508 133.906)" fill="#f1c2cf"/>
        <rect id="Rectangle_22710" data-name="Rectangle 22710" width="10.194" height="72.499" transform="translate(581.696 111.734)" fill="#efefa4"/>
        <path id="Path_78132" data-name="Path 78132" d="M1570.4,503.99l-.9-.794,20.436-23.141,20.534-14.1,17.93,15.838,13.393-12.617.822.873-14.19,13.367-18.048-15.943-19.641,13.485Z" transform="translate(-1098.944 -326.256)" fill="#708cd5"/>
        <rect id="Rectangle_22711" data-name="Rectangle 22711" width="168.062" height="18.945" transform="translate(366.382 28.111)" fill="#708cd5"/>
        <rect id="Rectangle_22712" data-name="Rectangle 22712" width="279.426" height="2.63" transform="translate(310.101 65.986)" fill="#d3dfff"/>
        <rect id="Rectangle_22713" data-name="Rectangle 22713" width="279.426" height="2.63" transform="translate(310.101 58.19)" fill="#d3dfff"/>
        <rect id="Rectangle_22714" data-name="Rectangle 22714" width="279.426" height="2.63" transform="translate(310.101 247.672)" fill="#d3dfff"/>
        <rect id="Rectangle_22715" data-name="Rectangle 22715" width="279.426" height="2.63" transform="translate(310.101 255.667)" fill="#d3dfff"/>
        <rect id="Rectangle_22716" data-name="Rectangle 22716" width="279.426" height="2.63" transform="translate(310.101 263.662)" fill="#d3dfff"/>
        <rect id="Rectangle_22717" data-name="Rectangle 22717" width="63.56" height="8.195" transform="translate(311.806 220.411)" fill="#d3dfff"/>
        <rect id="Rectangle_22718" data-name="Rectangle 22718" width="63.56" height="8.195" transform="translate(497.448 220.411)" fill="#d3dfff"/>
        <rect id="Rectangle_22719" data-name="Rectangle 22719" width="2.05" height="110.771" transform="translate(107.129 248.83)" fill="#1f3c88"/>
        <path id="Path_78133" data-name="Path 78133" d="M247.267,832.988c11.605,3.373,17.678-1.128,20.528-3a2.082,2.082,0,0,0,.332-3.072c-2.781-3.726-9.24-10.551-18.8-12.867-12.347-2.992-23.63,2.313-23.63,2.313s12.6,14.019,21.568,16.624" transform="translate(-158.031 -569.346)" fill="#1f3c88"/>
        <path id="Path_78134" data-name="Path 78134" d="M254.116,874.066c12.979-7.815,15.208-17.049,16.43-21.185a2.12,2.12,0,0,0-1.936-2.825c-5.235-.523-16.856-3.042-27.208,3.773-13.374,8.8-18.947,26.258-18.947,26.258s21.636.016,31.662-6.021" transform="translate(-155.759 -594.576)" fill="#708cd5"/>
        <path id="Path_78135" data-name="Path 78135" d="M336.649,887.69c-2.991-12.941,3.041-20.195,5.578-23.581a2.756,2.756,0,0,1,3.755-.614c4.254,2.877,11.916,9.7,13.819,20.391,2.459,13.814-5.041,27.057-5.041,27.057s-15.8-13.257-18.112-23.253" transform="translate(-235.148 -604.271)" fill="#1f3c88"/>
        <path id="Path_78136" data-name="Path 78136" d="M306.392,745.4c4.416,11.462,12.8,13.892,16.494,15.171a2.548,2.548,0,0,0,3.195-1.476c1.768-4.408,4.1-13.6.017-22.78-5.276-11.855-17.884-18.111-17.884-18.111s-5.233,18.344-1.821,27.2" transform="translate(-213.723 -502.874)" fill="#d3dfff"/>
        <path id="Path_78137" data-name="Path 78137" d="M398.029,745.454c-13.1,14.116-25.894,13.473-31.668,13.481a3.355,3.355,0,0,1-3.375-3.656c.377-7.123,2.984-21.319,14.211-32.352,14.5-14.254,35.376-16.978,35.376-16.978s-4.423,28.6-14.544,39.5" transform="translate(-254.154 -494.295)" fill="#708cd5"/>
        <path id="Path_78138" data-name="Path 78138" d="M389.765,861.8c-11.715-9.6-22.182-7.11-26.927-6.229a3.143,3.143,0,0,0-2.528,3.528c.788,5.8,3.884,17.088,13.851,24.443,12.876,9.5,30.208,8.537,30.208,8.537s-5.556-22.86-14.6-30.279" transform="translate(-252.264 -598.393)" fill="#d3dfff"/>
        <path id="Path_78139" data-name="Path 78139" d="M310.382,1210.758H266.961l-8.832-70.811h61.084Z" transform="translate(-180.739 -798.175)" fill="#fff"/>
        <path id="Path_78140" data-name="Path 78140" d="M310.382,1210.758H266.961l-8.832-70.811h61.084Z" transform="translate(-180.739 -798.175)" fill="none" stroke="#708cd5" stroke-miterlimit="10" stroke-width="4"/>
        <path id="Path_78141" data-name="Path 78141" d="M311.224,1151.714h-73.05l1.2-11.766h70.651Z" transform="translate(-166.767 -798.175)" fill="#fff"/>
        <path id="Path_78142" data-name="Path 78142" d="M311.224,1151.714h-73.05l1.2-11.766h70.651Z" transform="translate(-166.767 -798.175)" fill="none" stroke="#708cd5" stroke-miterlimit="10" stroke-width="4"/>
        <path id="Path_78143" data-name="Path 78143" d="M298.829,1350H249.112a11.979,11.979,0,0,1-11.979-11.979h73.674A11.979,11.979,0,0,1,298.829,1350" transform="translate(-166.037 -936.861)" fill="#708cd5"/>
        <path id="Path_78144" data-name="Path 78144" d="M2374.478,798.156l3.5,5.082c8.4-.529,15.893,5.64,15.587,8.122h-22.261l-7.1-11.885Z" transform="translate(-1655.385 -558.857)" fill="#f9b384"/>
        <path id="Path_78145" data-name="Path 78145" d="M1850.669,470.475l-6.89-15.836-15.166-2.631s.186,4.019,11.036,5.414l2.169,2.862Z" transform="translate(-1280.371 -316.489)" fill="#e28b6d"/>
        <path id="Path_78146" data-name="Path 78146" d="M1845.935,475.441l-5.022-13.267-11.917,4.8s1.8,2.548,9.744,1.2l2.209,1.582Z" transform="translate(-1280.639 -323.607)" fill="#e28b6d"/>
        <path id="Path_78147" data-name="Path 78147" d="M1851.48,481l-7.72-11.9-10.63,7.214s2.3,2.109,9.777-.893l2.494,1.078Z" transform="translate(-1283.534 -328.454)" fill="#e28b6d"/>
        <rect id="Rectangle_22720" data-name="Rectangle 22720" width="35.819" height="4.189" transform="translate(545.504 140.337) rotate(-20.417)" fill="#708cd5"/>
        <path id="Path_78148" data-name="Path 78148" d="M1812.85,468.079l-2.839,3.18,4.3.746" transform="translate(-1267.346 -327.742)" fill="#102048"/>
        <path id="Path_78149" data-name="Path 78149" d="M1862.226,476.822s-5.373-8.06-7.833-9.706-5.557-2.786-6.552-5.043-2.711-.114-2.722.753a7.84,7.84,0,0,0,4.081,7.1s2.955,9.33,7.986,10.022Z" transform="translate(-1291.928 -322.836)" fill="#f9b384"/>
        <path id="Path_78150" data-name="Path 78150" d="M1882.446,512.953l4.8,3.878,2.036,8.21-6.371,3.373L1874,512.674Z" transform="translate(-1312.148 -358.967)" fill="#f9b384"/>
        <path id="Path_78151" data-name="Path 78151" d="M2006.866,1329.8c12.115-2.093,18.469-6.6,24.978-11.037V1329.8h2.033l2.891-19.575c-6.427,4.633-14.744,9.131-21.615,10.353Z" transform="translate(-1405.181 -917.401)" fill="#102048"/>
        <path id="Path_78152" data-name="Path 78152" d="M2046.261,1054.077l-2.033,69.417-9.721,10.818c6.871-1.222,15.188-5.72,21.615-10.353L2067.9,1044.2Z" transform="translate(-1424.535 -731.136)" fill="#f9b384"/>
        <path id="Path_78153" data-name="Path 78153" d="M2184.353,1010.743l-14.148,11.781,35.915,73.942-1.694,13.484a79.091,79.091,0,0,0,13.19-18.4c-7.852-27.34-15.992-55.7-33.263-80.808" transform="translate(-1519.549 -707.708)" fill="#f9b384"/>
        <path id="Path_78154" data-name="Path 78154" d="M2281.394,1298.669l-1.263,10.047c10.075-7.046,11.551-11.844,13.1-18.346l4.693,9.99,1.84-.865q-2.441-9.642-5.175-19.226a79.082,79.082,0,0,1-13.19,18.4" transform="translate(-1596.518 -896.427)" fill="#102048"/>
        <path id="Path_78155" data-name="Path 78155" d="M2111.167,796.123c-19.992,8-38.916,4.665-54.65,8.886-6.656-16.706-10.949-37.621-3.274-79.822a70.117,70.117,0,0,1,2.434-9.486l6.488-19.692.156-.492,22.462-7.028,12.1,8.191.2.624.252.743a156.865,156.865,0,0,0,9.078,21.635c12.988,25.724,13.564,52.083,4.749,76.44" transform="translate(-1434.789 -482.071)" fill="#1f3c88"/>
        <path id="Path_78156" data-name="Path 78156" d="M2038.5,595.531l-13.659,7.555-37.177-58.092a63.334,63.334,0,0,1-9.138,24.285c-.144.24-.288.468-.444.7-13.192,3.6-23.218,3.874-34.562-1.163l-.468-.792c-4.641-7.891-8.071-17.7-10.853-28.542l-13.06,8.143a12.961,12.961,0,0,1-15.866-1.655L1879.48,523.06l9.438-11.765,26.431,18.444,16.526-12.064a43.314,43.314,0,0,1,15.758-7.208l8.958-2.075,9.294-.863,11.549,4.018a39.416,39.416,0,0,1,20.759,16.885Z" transform="translate(-1315.987 -355.365)" fill="#e659ae"/>
        <path id="Path_78157" data-name="Path 78157" d="M2180.68,343.253c-.244,5.116-4.861,8.157-9.681,7.927s-6.526-4.3-7.886-9.238c-1.526-5.54,2.941-8.508,7.766-8.584a9.533,9.533,0,0,1,9.8,9.895" transform="translate(-1514.37 -233.411)" fill="#102048"/>
        <path id="Path_78158" data-name="Path 78158" d="M2141.221,460.73l-.8,13.779a9.485,9.485,0,0,1-9.894,8.97,6.485,6.485,0,0,1-6.164-6.488c0-.108.012-.228.012-.336l.012-.168.456-9.762,5.792-2.123Z" transform="translate(-1487.449 -322.596)" fill="#f9b384"/>
        <path id="Path_78159" data-name="Path 78159" d="M2137.7,474.5a23.79,23.79,0,0,1-13.264,11.033l.456-9.762,5.792-2.123Z" transform="translate(-1487.505 -331.643)" fill="#102048"/>
        <path id="Path_78160" data-name="Path 78160" d="M2120.2,390.375l-2.231,13.276s-7.615,11.321-18.5,10.326c-4.485-.408-6.572-3.25-7.471-6.44a20.886,20.886,0,0,1-.5-7.148,25.181,25.181,0,0,1,.372-2.7l-1.463-6.86,3.73-7.076,14.463-4.785Z" transform="translate(-1463.671 -265.349)" fill="#f9b384"/>
        <path id="Path_78161" data-name="Path 78161" d="M2116.31,380.641c1.063-2.494,2.45-4.28,2.492-10.721-.316-9.158-8.264-16.212-19.094-13.833a13.694,13.694,0,0,0-1.957.6c-15.436,5.927-15.434,17.327-10.931,21.7,2.57-7.449,9.022-9.24,16.319-9.31,2.371,7.384,7.795,11.593,11.581,11.3Z" transform="translate(-1459.34 -249)" fill="#1f3c88"/>
        <path id="Path_78162" data-name="Path 78162" d="M2182.1,439.62c-.592,2.473-2.489,4.692-4.117,4.466s-2.678-2.35-2.345-4.746,1.922-4.153,3.549-3.927,3.617,1.263,2.912,4.207" transform="translate(-1523.31 -304.856)" fill="#f9b384"/>
        <g id="Group_39828" data-name="Group 39828" transform="translate(627.377 213.447)" opacity="0.6">
          <g id="Group_39827" data-name="Group 39827">
            <g id="Group_39826" data-name="Group 39826" clip-path="url(#clip-path-4)">
              <path id="Path_78163" data-name="Path 78163" d="M2127.482,713.717c-5.1,10.232-27.415,10.922-34.922-1.3l.156-.492c11.345,5.037,21.371,4.761,34.563,1.163Z" transform="translate(-2092.56 -711.93)" fill="#102048"/>
            </g>
          </g>
        </g>
        <path id="Path_78164" data-name="Path 78164" d="M2054.074,599.268c-2.281-4.91-3.668-11.828-4.239-21.149l.9-.055c.564,9.207,1.924,16.019,4.157,20.825Z" transform="translate(-1435.268 -404.752)" fill="#6f3428"/>
        <path id="Path_78165" data-name="Path 78165" d="M2232.751,610.106l-.873-.219c.132-.524.267-1.042.4-1.56,1.281-4.942,2.605-10.051,1.786-20.882l.9-.068c.83,10.98-.513,16.163-1.812,21.176-.134.516-.268,1.032-.4,1.554" transform="translate(-1562.732 -411.272)" fill="#6f3428"/>
        <path id="Path_78166" data-name="Path 78166" d="M983.046,540.456c1.619-3.649.933-8.168-6.446-15.216l-.6,9.369Z" transform="translate(-683.382 -367.765)" fill="#6f3428"/>
        <path id="Path_78167" data-name="Path 78167" d="M1004.693,475.293c-.334.144-14.542,10.24-15.2,10.491-.339.129-5.939-3.494-6.98-5.145-.195-.31,1.964-17.268,3.853-16.457,2.419,1.039,1.184,5.754,1.1,7.268.447-.032.24-.046.7-.079a.632.632,0,0,1,.09,0l6.325-10.678a1.122,1.122,0,0,1,.452-.441.967.967,0,0,1,1.361.868c.146,2.066-1.923,6.5-2.736,8.233,2.261-1.9,5.587-5.328,7.926-7.142,1.087-.836,2.153.46,1.352,1.738a87.705,87.705,0,0,1-6.588,7.7c1.9-.865,7.462-4.62,7.759-4.362a1,1,0,0,1,.689,1.711,41.754,41.754,0,0,1-6.782,5.96,21,21,0,0,0,6.074-1.675c1.261-.544,1.86,1.462.6,2" transform="translate(-687.938 -322.195)" fill="#f9b384"/>
        <path id="Path_78168" data-name="Path 78168" d="M973.714,514.538l-5.214,7.117,3.034,16.3L985.218,519.2Z" transform="translate(-678.131 -360.272)" fill="#f9b384"/>
        <path id="Path_78169" data-name="Path 78169" d="M1002.017,504.93l-.61-.258c1.122-2.652-.976-5.206-1-5.231l.508-.425c.1.117,2.377,2.893,1.1,5.914" transform="translate(-700.474 -349.404)" fill="#e28b6d"/>
        <path id="Path_78170" data-name="Path 78170" d="M1020.141,500.513c-1.12-2.854-2.687-4.689-4.79-5.611l.266-.607c2.241.982,3.97,2.992,5.141,5.975Z" transform="translate(-710.935 -346.099)" fill="#e28b6d"/>
        <path id="Path_78171" data-name="Path 78171" d="M774.167,484.071c3.794-.59,9.818-.279,15.724.693a26.049,26.049,0,0,1,17.872,12.177l10.227,16.512L835.279,496.2a31.105,31.105,0,0,0,6.446,15.215l-19.237,20.242a8.827,8.827,0,0,1-11.569.22L797.5,521.947l-14.991-4.7Z" transform="translate(-542.062 -338.73)" fill="#e4d946"/>
        <path id="Path_78172" data-name="Path 78172" d="M714.823,1235.571l8.459-13.045-10.752-9.09-7.909,12.072a48.941,48.941,0,0,0,10.2,10.063" transform="translate(-493.366 -849.631)" fill="#e28b6d"/>
        <path id="Path_78173" data-name="Path 78173" d="M693.383,1263.763a48.942,48.942,0,0,1-10.2-10.063L674,1267.712l25.062,22.382c1.621-7.092-3.11-18.659-7.073-24.181Z" transform="translate(-471.926 -877.823)" fill="#102048"/>
        <path id="Path_78174" data-name="Path 78174" d="M774.5,1338.95c-4.8-5.6-16.19-9.394-22.586-10.793l-.128-3.07a48.744,48.744,0,0,1-11.9-1.474l.835,15.338Z" transform="translate(-518.056 -926.775)" fill="#1f3c88"/>
        <path id="Path_78175" data-name="Path 78175" d="M750,1290.886l-.672-16.118-11.992.6.764,14.044a48.736,48.736,0,0,0,11.9,1.474" transform="translate(-516.271 -892.575)" fill="#f9b384"/>
        <path id="Path_78176" data-name="Path 78176" d="M754.58,793.129l-8.21-55.694-29.981,1.5,6.2,51.759,0,.067,6.887,15.684a7.527,7.527,0,0,1,.165,5.589l-7.056,19v-.156L699,885.543l19.788,15.29,30.732-70.04a68.776,68.776,0,0,0,5.061-37.665" transform="translate(-489.431 -516.341)" fill="#1f3c88"/>
        <path id="Path_78177" data-name="Path 78177" d="M684.617,732.673l-3.314,20.88a126.127,126.127,0,0,0-.767,33.9l12.875,115.717H714.4l-2-138.1,22.786-15.79-2.6-17.789Z" transform="translate(-475.948 -512.179)" fill="#708cd5"/>
        <path id="Path_78178" data-name="Path 78178" d="M669.7,573.039s-3.6-2.59-.9-7.087a2.887,2.887,0,0,0,.24-.54c.648-1.859.732-6.177.528-11.309-.492-12.149-2.566-28.926-2.566-28.926l5.1-22.786,10.589-10.1,25.988-.2,12.988,17.389,3.406,39.983a44.757,44.757,0,0,0,3.79,13.383c5.852,12.424-54.17,14.967-59.159,10.194" transform="translate(-467.025 -344.553)" fill="#e4d946"/>
        <rect id="Rectangle_22722" data-name="Rectangle 22722" width="0.899" height="20.212" transform="translate(251.194 159.171) rotate(-2.834)" fill="#6f3428"/>
        <path id="Path_78179" data-name="Path 78179" d="M808,596.473l-30.093,4.233.26-41.819,30.093-4.233Z" transform="translate(-544.68 -388.36)" fill="#f6f5f5"/>
        <path id="Path_78180" data-name="Path 78180" d="M796.868,586.754l-.178-1.326,20.512-2.913.178,1.326Z" transform="translate(-557.832 -407.869)" fill="#708cd5"/>
        <path id="Path_78181" data-name="Path 78181" d="M796.781,605.736l-.178-1.326,20.512-2.913.178,1.326Z" transform="translate(-557.771 -421.159)" fill="#708cd5"/>
        <path id="Path_78182" data-name="Path 78182" d="M797.231,625.836l-.178-1.326,20.512-2.914.178,1.326Z" transform="translate(-558.086 -435.233)" fill="#708cd5"/>
        <path id="Path_78183" data-name="Path 78183" d="M797.131,647.608l-.178-1.326,20.512-2.913.178,1.326Z" transform="translate(-558.016 -450.478)" fill="#d3dfff"/>
        <path id="Path_78184" data-name="Path 78184" d="M797.04,667.7l-.178-1.326,20.512-2.913.178,1.326Z" transform="translate(-557.952 -464.549)" fill="#d3dfff"/>
        <path id="Path_78185" data-name="Path 78185" d="M735.947,657.163a15.755,15.755,0,0,0,3.548-17.673L731,649.062Z" transform="translate(-511.837 -447.762)" fill="#6f3428"/>
        <g id="Group_39831" data-name="Group 39831" transform="translate(206.343 173.323)" opacity="0.3">
          <g id="Group_39830" data-name="Group 39830">
            <g id="Group_39829" data-name="Group 39829" clip-path="url(#clip-path-5)">
              <path id="Path_78186" data-name="Path 78186" d="M688.238,604.984c1.129-.7,3.639-.054,4.272-1.543,2.511-5.905-.286-18.671-3.3-25.338Z" transform="translate(-688.238 -578.102)" fill="#6f3428"/>
            </g>
          </g>
        </g>
        <g id="Group_39834" data-name="Group 39834" transform="translate(202.014 209.405)" opacity="0.3">
          <g id="Group_39833" data-name="Group 39833">
            <g id="Group_39832" data-name="Group 39832" clip-path="url(#clip-path-6)">
              <path id="Path_78187" data-name="Path 78187" d="M695.9,698.45s-4.185,9.354-22.1,11.453c.648-1.859.732-6.176.528-11.309Z" transform="translate(-673.8 -698.45)" fill="#6f3428"/>
            </g>
          </g>
        </g>
        <path id="Path_78188" data-name="Path 78188" d="M744.471,634.109l-13.914,5.354.536,12.3,16.709-7.05Z" transform="translate(-511.526 -443.994)" fill="#f9b384"/>
        <path id="Path_78189" data-name="Path 78189" d="M779.618,621.031c-.5.105-1,.153-1.5.228a1.833,1.833,0,0,1-1.155,2.874c-.113.018-.228.031-.341.049a1.52,1.52,0,0,1-.269,1.452,18.782,18.782,0,0,1-3.277,2.189c-13.136,6.255-15.366-.923-14.731-3.4.493-1.915,2.54-4.123,4.21-5.872,5.334-4.5,8.677-6.4,14.061-7.289,2.164-.359,1.921,1.719.133,2.821a12.4,12.4,0,0,1-2.662,1.246.611.611,0,0,1-.126.109,37.919,37.919,0,0,0-4.052,3.332c1.72-.048,10.952-1.1,11.9.275.329.479-.942,1.726-2.185,1.99" transform="translate(-530.913 -427.966)" fill="#f9b384"/>
        <rect id="Rectangle_22725" data-name="Rectangle 22725" width="7.568" height="0.666" transform="translate(239.633 193.613) rotate(-4.932)" fill="#e28b6d"/>
        <rect id="Rectangle_22726" data-name="Rectangle 22726" width="6.11" height="0.666" transform="matrix(0.989, -0.146, 0.146, 0.989, 239.613, 196.781)" fill="#e28b6d"/>
        <path id="Path_78190" data-name="Path 78190" d="M664.3,480.769a46.271,46.271,0,0,0-19.245,6.021,28.833,28.833,0,0,0-14.434,24.343c-.213,8.525-.5,20.037-.729,29.145A11.5,11.5,0,0,0,644,551.772l21.157-5.743c-.694-5.5.947-11.523,3.9-17.839l-21.886,3.448.55-21.487,20.387-4Z" transform="translate(-441.043 -336.627)" fill="#e4d946"/>
        <path id="Path_78191" data-name="Path 78191" d="M667.746,643.605l-.35-.829c6.587-2.783,18.352-4.311,27.866-5.332l.1.894c-9.453,1.014-21.133,2.529-27.611,5.266" transform="translate(-467.302 -446.33)" fill="#6f3428"/>
        <path id="Path_78192" data-name="Path 78192" d="M746.822,516.663a12.309,12.309,0,0,1-7.771-2.723l.569-.7a11.481,11.481,0,0,0,8.614,2.435,9.882,9.882,0,0,0,6.832-3.756l.719.541a10.771,10.771,0,0,1-7.442,4.108,12.662,12.662,0,0,1-1.521.092" transform="translate(-517.474 -358.44)" fill="#6f3428"/>
        <path id="Path_78193" data-name="Path 78193" d="M748.569,441.74v10.778a8.111,8.111,0,0,1-.111,1.351,8.138,8.138,0,0,1-16.208-1.351V441.74Z" transform="translate(-512.712 -309.3)" fill="#f9b384"/>
        <path id="Path_78194" data-name="Path 78194" d="M756.8,454.53v7.519a7.233,7.233,0,0,1-.108,1.259A13.183,13.183,0,0,1,744,455.342Z" transform="translate(-520.939 -318.255)" fill="#102048"/>
        <path id="Path_78195" data-name="Path 78195" d="M749.532,386.026a10.4,10.4,0,0,1-4.137,7.723c-4.006,2.974-12.808,3.706-21.179-9.966L724,364.764l13.288-2.195,10.973,4.617-.36,9.294a21.568,21.568,0,0,1,1.043,3.19,19.52,19.52,0,0,1,.588,6.356" transform="translate(-506.935 -253.865)" fill="#f9b384"/>
        <path id="Path_78196" data-name="Path 78196" d="M709.431,361.69c-.9-5.353,1.286-9.651,5.145-11.707,5.64,1.953,14.084,2.736,18.289-1.168,4.5-3.376,3.329-15.022-6.68-14.708-3.693.512-5.168,2.49-5.544,5.2-16.826-10.051-28.935,14.008-15.057,21.641Z" transform="translate(-489.805 -233.932)" fill="#102048"/>
        <path id="Path_78197" data-name="Path 78197" d="M717.89,420.883a4.176,4.176,0,0,1-4.183,4.421c-2.195.11-5.093-2.743-5.234-5.486s1.73-4.055,3.925-4.165,5.35,2.487,5.492,5.23" transform="translate(-496.058 -291.032)" fill="#f9b384"/>
        <path id="Path_78198" data-name="Path 78198" d="M719.464,423.895c-.294-.393-.589-.787-.9-1.135a3.58,3.58,0,0,0-1-.832,1.319,1.319,0,0,0-1.08-.066,4.793,4.793,0,0,0-1.164.726l-.275-.219a2.782,2.782,0,0,1,1.1-1.221,1.957,1.957,0,0,1,.9-.244,2.008,2.008,0,0,1,.916.226,3.25,3.25,0,0,1,1.213,1.169,4.482,4.482,0,0,1,.612,1.461Z" transform="translate(-500.662 -294.71)" fill="#e28b6d"/>
        <line id="Line_91" data-name="Line 91" y2="155.903" transform="translate(781.313 254.664)" fill="none" stroke="#102048" stroke-miterlimit="10" stroke-width="4"/>
        <rect id="Rectangle_22727" data-name="Rectangle 22727" width="137.114" height="7.136" transform="translate(712.756 251.866)" fill="#d3dfff"/>
        <path id="Path_78199" data-name="Path 78199" d="M2567.261,1356.2h-58.019a9.286,9.286,0,0,1,9.286-9.286h39.446a9.286,9.286,0,0,1,9.286,9.286" transform="translate(-1756.938 -943.092)" fill="#708cd5"/>
        <rect id="Rectangle_22728" data-name="Rectangle 22728" width="40.975" height="5.996" transform="translate(752.031 245.869)" fill="#102048"/>
        <path id="Path_78200" data-name="Path 78200" d="M2600.75,733.527h-46.743l19.207-45.621h46.743Z" transform="translate(-1788.282 -481.662)" fill="#708cd5"/>
        <line id="Line_92" data-name="Line 92" x2="899.439" transform="translate(0 412.391)" fill="none" stroke="#102048" stroke-miterlimit="10" stroke-width="4.8"/>
        <path id="Path_78201" data-name="Path 78201" d="M2407.187,205.371a37.688,37.688,0,0,0-33.83,54.291l-11.249,12.083,16.224-4.462a37.682,37.682,0,1,0,28.856-61.912" transform="translate(-1653.917 -143.797)" fill="#fff"/>
        <path id="Path_78202" data-name="Path 78202" d="M2407.187,205.371a37.688,37.688,0,0,0-33.83,54.291l-11.249,12.083,16.224-4.462a37.682,37.682,0,1,0,28.856-61.912Z" transform="translate(-1653.917 -143.797)" fill="none" stroke="#708cd5" stroke-miterlimit="10" stroke-width="4"/>
        <path id="Path_78203" data-name="Path 78203" d="M2445.727,318.927a5.2,5.2,0,1,1-5.2-5.2,5.2,5.2,0,0,1,5.2,5.2" transform="translate(-1705.188 -219.669)" fill="#708cd5"/>
        <path id="Path_78204" data-name="Path 78204" d="M2505.06,318.927a5.2,5.2,0,1,1-5.2-5.2,5.2,5.2,0,0,1,5.2,5.2" transform="translate(-1746.732 -219.669)" fill="#d3dfff"/>
        <path id="Path_78205" data-name="Path 78205" d="M2564.394,318.927a5.2,5.2,0,1,1-5.2-5.2,5.2,5.2,0,0,1,5.2,5.2" transform="translate(-1788.277 -219.669)" fill="#d3dfff"/>
        <path id="Path_78206" data-name="Path 78206" d="M352.914,173.165a37.688,37.688,0,0,1,33.83,54.291l11.249,12.083-16.224-4.462a37.681,37.681,0,1,1-28.856-61.912" transform="translate(-220.72 -121.247)" fill="#fff"/>
        <path id="Path_78207" data-name="Path 78207" d="M352.914,173.165a37.688,37.688,0,0,1,33.83,54.291l11.249,12.083-16.224-4.462a37.681,37.681,0,1,1-28.856-61.912Z" transform="translate(-220.72 -121.247)" fill="none" stroke="#708cd5" stroke-miterlimit="10" stroke-width="4"/>
        <path id="Path_78208" data-name="Path 78208" d="M482.667,283.354a5.2,5.2,0,1,0,5.2-5.2,5.2,5.2,0,0,0-5.2,5.2" transform="translate(-337.957 -194.761)" fill="#708cd5"/>
        <path id="Path_78209" data-name="Path 78209" d="M423.333,283.354a5.2,5.2,0,1,0,5.2-5.2,5.2,5.2,0,0,0-5.2,5.2" transform="translate(-296.412 -194.761)" fill="#d3dfff"/>
        <path id="Path_78210" data-name="Path 78210" d="M364,283.354a5.2,5.2,0,1,0,5.2-5.2,5.2,5.2,0,0,0-5.2,5.2" transform="translate(-254.868 -194.761)" fill="#d3dfff"/>
      </g>
    </g>
  </g>
</svg>
