<svg id="Group_39870" data-name="Group 39870" xmlns="http://www.w3.org/2000/svg" xmlns:xlink="http://www.w3.org/1999/xlink" width="750" height="514.391" viewBox="0 0 750 514.391">
  <defs>
    <clipPath id="clip-path">
      <rect id="Rectangle_22785" data-name="Rectangle 22785" width="750" height="514.391" fill="none"/>
    </clipPath>
    <clipPath id="clip-path-2">
      <rect id="Rectangle_22784" data-name="Rectangle 22784" width="749.999" height="514.391" fill="none"/>
    </clipPath>
    <clipPath id="clip-path-3">
      <rect id="Rectangle_22770" data-name="Rectangle 22770" width="31.614" height="73.628" fill="none"/>
    </clipPath>
    <clipPath id="clip-path-4">
      <rect id="Rectangle_22771" data-name="Rectangle 22771" width="63.38" height="83.963" fill="none"/>
    </clipPath>
    <clipPath id="clip-path-5">
      <rect id="Rectangle_22772" data-name="Rectangle 22772" width="50.449" height="45.558" fill="none"/>
    </clipPath>
    <clipPath id="clip-path-6">
      <rect id="Rectangle_22773" data-name="Rectangle 22773" width="78.091" height="41.335" fill="none"/>
    </clipPath>
  </defs>
  <g id="Group_39869" data-name="Group 39869" clip-path="url(#clip-path)">
    <g id="Group_39868" data-name="Group 39868" transform="translate(0 0)">
      <g id="Group_39867" data-name="Group 39867" clip-path="url(#clip-path-2)">
        <path id="Path_78287" data-name="Path 78287" d="M70.229,513.006S-26.872,407.86,7.28,285.29c22.306-80.057,96.267-31.554,92.329-161.338S317.534-19.319,379.046,18.334s62.814,61.71,189.831,46.758S751.17,164.25,685.361,260.117c-57.629,83.951,130.094,75.529,18.5,253.124Z" transform="translate(0 -0.001)" fill="#ebf3fa"/>
        <path id="Path_78288" data-name="Path 78288" d="M976.8,343.645l11.068-1.247a2.469,2.469,0,0,1,2.324,1.112q.961,1.492,2.06,2.923a41.435,41.435,0,0,0,4.383,4.894,2.435,2.435,0,0,1,.6,2.679l-4.245,10.839a2.391,2.391,0,0,0,1.178,3.033l9.537,4.723a2.364,2.364,0,0,0,3.032-.841l5.766-9.035a2.374,2.374,0,0,1,2.658-1.028,43.027,43.027,0,0,0,13.5,1.345,2.451,2.451,0,0,1,2.454,1.7l1.954,6.221a2.476,2.476,0,0,0,2.814,1.671l10.357-2.095a2.162,2.162,0,0,0,.6-.2,2.374,2.374,0,0,0,1.324-2.426l-.921-8.269-.229-2.015a42.588,42.588,0,0,0,5.022-3.317,43.185,43.185,0,0,0,5.893-5.456,2.373,2.373,0,0,1,2.65-.639l8.728,3.429a2.461,2.461,0,0,0,3.106-1.2l3.612-7.291,1.03-2.092a2.492,2.492,0,0,0-.886-3.211l-7.547-4.825a2.37,2.37,0,0,1-1.063-2.584,42.746,42.746,0,0,0,1.15-9.062,7.524,7.524,0,0,0,.023-.768,1.325,1.325,0,0,1,.017-.258,2.429,2.429,0,0,1,1.713-2.08l10.094-3.2a1.789,1.789,0,0,0,.329-.13,2.469,2.469,0,0,0,1.332-2.676l-2.072-10.327a2.458,2.458,0,0,0-2.681-1.956l-11.545,1.305a2.375,2.375,0,0,1-2.383-1.25,43.413,43.413,0,0,0-3.615-5.529q-1.088-1.417-2.269-2.717a2.5,2.5,0,0,1-.473-2.593l4.076-10.419a2.389,2.389,0,0,0-1.163-3.014l-9.441-4.658a2.5,2.5,0,0,0-3.221.893l-4.564,7.148a2.453,2.453,0,0,1-2.855,1.011,42.919,42.919,0,0,0-13.023-2.339,2.437,2.437,0,0,1-2.3-1.715l-2.876-9.1a2.522,2.522,0,0,0-2.887-1.706l-10.291,2.06a2.41,2.41,0,0,0-1.925,2.641l.049.483,1.075,9.607a2.465,2.465,0,0,1-1.332,2.477l-.01.007a42.712,42.712,0,0,0-6.385,4.057c-1.09.836-2.116,1.715-3.112,2.632a2.417,2.417,0,0,1-2.544.5l-8.859-3.481a2.5,2.5,0,0,0-3.159,1.214l-4.644,9.4a2.716,2.716,0,0,0-.239.827,2.49,2.49,0,0,0,1.115,2.331l6.039,3.838a2.488,2.488,0,0,1,1.128,2.168,2.651,2.651,0,0,1-.124.677,42.764,42.764,0,0,0-2.174,16.772,2.408,2.408,0,0,1-1.292,2.309,2.488,2.488,0,0,1-.385.157l-8.176,2.581a2.448,2.448,0,0,0-1.661,2.806l.046.24,2.011,10.068a2.492,2.492,0,0,0,2.722,1.971m70.812-31.43a28.61,28.61,0,0,1,1.5,5.112,22.5,22.5,0,0,1-1.6,12.15c-.167.342-.34.675-.515,1.007-10.83,20.1-39.219,16.106-43.894-6.578a23.314,23.314,0,0,1,.832-10.6,15.206,15.206,0,0,1,.847-2.09,26.444,26.444,0,0,1,5.283-7.27,23.072,23.072,0,0,1,37.544,8.264" transform="translate(-669.953 -182.835)" fill="#dfebfd"/>
        <path id="Path_78289" data-name="Path 78289" d="M1801.275,366.912c-10.626-21.416-47.416-6.755-47.416-6.755s-18.066,44.761-25.423,47.2,7.973-41.286,7.973-41.286c-14.9,1.489-48.59,26.808-48.59,26.808s11.538,45.742,3.806,46.3-8.149-41.024-8.149-41.024c-13.3,7.055-23.227,26.181-23.227,26.181-11.165,30.156,28.135,42.935,28.135,42.935s3.656,15.939-2.592,36.3h0a55.628,55.628,0,0,0-2.685,10.062l3.856-.766c.11-1.1.258-2.165.452-3.2a.024.024,0,0,1,0-.019c0-.015.006-.03.008-.045.146-.648.357-1.572.625-2.7v0s0,0,0-.006c.72-2.541,1.178-4.4,1.437-5.733a.057.057,0,0,0,0-.012c2.092-7.942,5.3-18.386,8.3-21.038a7.6,7.6,0,0,1-1.177-1.6l1.177,1.6c9.412,12.835,42.888,8.635,60.528,1.21s8.594-11.02-2.981-17.471-31.881-.111-38.667-2.193,1.518-7.164,13.965-8.656,21.013,9.55,41.192,7.5,27.868-42.3,27.868-42.3c-12.831,6.96-38.85,4.287-40.73-.241s34.522-11.269,39.9-13.808,13.031-15.823,2.405-37.239" transform="translate(-1142.981 -244.87)" fill="#dfebfd"/>
        <path id="Path_78290" data-name="Path 78290" d="M164.292,817.81c-4.325-23.513,33.913-33.82,33.913-33.82S239.49,809,246.843,806.547s-31.122-28.276-31.122-28.276c12.82-7.735,54.965-7.653,54.965-7.653s18.172,43.534,24.7,39.346-18.057-37.727-18.057-37.727c14.877-2.324,34.283,7.042,34.283,7.042,27.008,17.453,3.2,51.232,3.2,51.232s6.623,14.951,23.824,27.5h0a55.624,55.624,0,0,1,8.179,6.447l-3.547,1.7c-.745-.812-1.5-1.579-2.28-2.292a.024.024,0,0,0-.015-.013l-.034-.031c-.505-.432-1.228-1.045-2.118-1.786l0,0s0,0,0,0c-2.1-1.6-3.581-2.819-4.585-3.729l-.009-.009c-6.434-5.1-15.263-11.541-19.254-11.868a7.617,7.617,0,0,0-.019-1.99c.006.635.012,1.3.019,1.99.156,15.915-29.161,32.612-47.734,37.237s-13.484-3.673-8.082-15.773,25.458-19.192,29.642-24.926-5.507-4.825-16.367,1.438-11.1,20.236-28.483,30.688-47.656-17.164-47.656-17.164c14.443-2.116,33.672-19.847,32.464-24.6s-34.391,11.664-40.217,12.853-19.914-4.859-24.239-28.372" transform="translate(-113.007 -531.163)" fill="#dfebfd"/>
        <path id="Path_78291" data-name="Path 78291" d="M1819.684,1126.8c18.816-14.749-3-47.8-3-47.8s-47.495-8.613-51.378-15.322,42.045-.565,42.045-.565c-4.48-14.287-36.106-42.144-36.106-42.144s-42.451,20.575-44.564,13.116,38.518-16.3,38.518-16.3c-9.605-11.6-30.347-17.435-30.347-17.435-31.793-4.816-36.337,36.258-36.337,36.258s-14.866,6.813-36.067,4.822h0a55.625,55.625,0,0,0-10.4-.589l1.532,3.621c1.1-.115,2.173-.186,3.227-.207a.024.024,0,0,1,.02,0h.045c.665.011,1.612.031,2.77.065h0s0,0,.006,0c2.634.19,4.55.26,5.905.244h.012c8.2.438,19.079,1.465,22.285,3.864a7.635,7.635,0,0,1,1.333-1.478l-1.333,1.478c-10.659,11.819.242,43.747,11.091,59.515s12.534,6.181,16.5-6.462-6.358-31.241-5.694-38.308,7.322.033,11.308,11.92-5.09,22.513,1.008,41.857,47.07,18.711,47.07,18.711c-9.418-11.154-12.077-37.173-8.024-39.933s18.036,31.519,21.613,36.271,18.136,9.552,36.952-5.2" transform="translate(-1138.706 -689.242)" fill="#dfebfd"/>
        <g id="Group_39857" data-name="Group 39857" transform="translate(510.156 87.138)" opacity="0.5">
          <g id="Group_39856" data-name="Group 39856">
            <g id="Group_39855" data-name="Group 39855" clip-path="url(#clip-path-3)">
              <path id="Path_78292" data-name="Path 78292" d="M1641.795,354.055s2.207-44.053,22.8-71.669a4.9,4.9,0,0,1,8.8,2.716c0,.076.007.154.01.232.247,7.814-22.556,42.419-31.611,68.721" transform="translate(-1641.793 -280.427)" fill="#c5ddff"/>
            </g>
          </g>
        </g>
        <g id="Group_39860" data-name="Group 39860" transform="translate(508.298 89.5)" opacity="0.5">
          <g id="Group_39859" data-name="Group 39859">
            <g id="Group_39858" data-name="Group 39858" clip-path="url(#clip-path-4)">
              <path id="Path_78293" data-name="Path 78293" d="M1635.812,372s18.548-56.15,54.991-82.928a5.2,5.2,0,0,1,7.12.845c1.116,1.407,1.731,3.682.841,7.363-2.375,9.815-42.648,45.076-62.952,74.72" transform="translate(-1635.811 -288.034)" fill="#c5ddff"/>
            </g>
          </g>
        </g>
        <g id="Group_39863" data-name="Group 39863" transform="translate(142.364 186.765)" opacity="0.5">
          <g id="Group_39862" data-name="Group 39862">
            <g id="Group_39861" data-name="Group 39861" clip-path="url(#clip-path-5)">
              <path id="Path_78294" data-name="Path 78294" d="M508.607,646.609s-18.484-32.242-44.5-45.118a4.127,4.127,0,0,0-5.573,5.4q.04.088.082.178c2.8,5.963,33.143,23.242,49.991,39.537" transform="translate(-458.158 -601.052)" fill="#c5ddff"/>
            </g>
          </g>
        </g>
        <g id="Group_39866" data-name="Group 39866" transform="translate(120.969 199.812)" opacity="0.5">
          <g id="Group_39865" data-name="Group 39865">
            <g id="Group_39864" data-name="Group 39864" clip-path="url(#clip-path-6)">
              <path id="Path_78295" data-name="Path 78295" d="M467.395,684.376S432.016,649.29,394.417,643.1a4.378,4.378,0,0,0-5.025,3.354c-.3,1.483.107,3.427,2.181,5.851,5.533,6.464,49.248,17.563,75.821,32.071" transform="translate(-389.304 -643.04)" fill="#c5ddff"/>
            </g>
          </g>
        </g>
        <path id="Path_78296" data-name="Path 78296" d="M1003.99,503.7v279.69c0,4.893-3.532,8.862-7.888,8.862H592.572c-4.355,0-7.888-3.969-7.888-8.862V503.7c0-4.9,3.533-8.862,7.888-8.862H996.1c4.355,0,7.888,3.965,7.888,8.862" transform="translate(-403.004 -341.079)" fill="#fffeff"/>
        <path id="Path_78297" data-name="Path 78297" d="M1003.783,453.184v22.682H584.18V453.184a8.471,8.471,0,0,1,8.471-8.471H995.312a8.471,8.471,0,0,1,8.471,8.471" transform="translate(-402.657 -306.526)" fill="#3f436a"/>
        <path id="Path_78298" data-name="Path 78298" d="M628.514,486.092a3.944,3.944,0,1,1,3.944,3.944,3.944,3.944,0,0,1-3.944-3.944" transform="translate(-433.215 -332.33)" fill="#dfebfd"/>
        <path id="Path_78299" data-name="Path 78299" d="M678.526,486.092a3.944,3.944,0,1,1,3.944,3.944,3.944,3.944,0,0,1-3.944-3.944" transform="translate(-467.687 -332.33)" fill="#dfebfd"/>
        <path id="Path_78300" data-name="Path 78300" d="M729.8,486.092a3.944,3.944,0,1,1,3.944,3.944,3.944,3.944,0,0,1-3.944-3.944" transform="translate(-503.029 -332.33)" fill="#dfebfd"/>
        <path id="Path_78301" data-name="Path 78301" d="M1354.319,281.408l5.39-.607a1.2,1.2,0,0,1,1.131.542q.468.727,1,1.424a20.165,20.165,0,0,0,2.135,2.383,1.186,1.186,0,0,1,.293,1.3l-2.067,5.279a1.165,1.165,0,0,0,.573,1.477l4.645,2.3a1.152,1.152,0,0,0,1.477-.409l2.808-4.4a1.156,1.156,0,0,1,1.294-.5,20.958,20.958,0,0,0,6.575.655,1.193,1.193,0,0,1,1.2.828l.952,3.03a1.206,1.206,0,0,0,1.37.814l5.044-1.02a1.064,1.064,0,0,0,.291-.1,1.157,1.157,0,0,0,.645-1.181l-.449-4.027-.111-.981a20.745,20.745,0,0,0,2.446-1.615,21.031,21.031,0,0,0,2.87-2.657,1.156,1.156,0,0,1,1.291-.311l4.25,1.67a1.2,1.2,0,0,0,1.512-.586l1.759-3.55.5-1.019a1.214,1.214,0,0,0-.431-1.564l-3.675-2.35a1.155,1.155,0,0,1-.518-1.259,20.79,20.79,0,0,0,.561-4.413,3.532,3.532,0,0,0,.011-.374.623.623,0,0,1,.008-.126,1.183,1.183,0,0,1,.834-1.013l4.916-1.556a.881.881,0,0,0,.16-.063,1.2,1.2,0,0,0,.648-1.3l-1.009-5.029a1.2,1.2,0,0,0-1.305-.953l-5.622.636a1.156,1.156,0,0,1-1.161-.609,21.188,21.188,0,0,0-1.76-2.693q-.53-.69-1.1-1.323a1.219,1.219,0,0,1-.23-1.263l1.985-5.075a1.163,1.163,0,0,0-.566-1.468l-4.6-2.269a1.216,1.216,0,0,0-1.568.435L1386.493,250a1.2,1.2,0,0,1-1.39.493,20.9,20.9,0,0,0-6.342-1.139,1.188,1.188,0,0,1-1.119-.836l-1.4-4.431a1.228,1.228,0,0,0-1.406-.831l-5.012,1a1.174,1.174,0,0,0-.937,1.286l.024.235.523,4.679a1.2,1.2,0,0,1-.649,1.206l0,0a20.771,20.771,0,0,0-3.11,1.976c-.53.407-1.03.835-1.515,1.282a1.177,1.177,0,0,1-1.239.242l-4.315-1.7a1.217,1.217,0,0,0-1.538.591l-2.262,4.578a1.316,1.316,0,0,0-.116.4,1.214,1.214,0,0,0,.543,1.135l2.941,1.869a1.211,1.211,0,0,1,.549,1.056,1.315,1.315,0,0,1-.06.33,20.834,20.834,0,0,0-1.059,8.168,1.172,1.172,0,0,1-.629,1.124,1.192,1.192,0,0,1-.187.076l-3.981,1.257a1.192,1.192,0,0,0-.809,1.367l.023.117.979,4.9a1.214,1.214,0,0,0,1.326.96M1388.8,266.1a13.967,13.967,0,0,1,.731,2.49,10.955,10.955,0,0,1-.779,5.917c-.081.167-.166.328-.25.49-5.274,9.791-19.1,7.844-21.377-3.2a11.36,11.36,0,0,1,.405-5.16,7.361,7.361,0,0,1,.413-1.018,12.871,12.871,0,0,1,2.573-3.54A11.236,11.236,0,0,1,1388.8,266.1" transform="translate(-931.869 -167.654)" fill="#dfebfd"/>
        <path id="Path_78302" data-name="Path 78302" d="M504.039,1165.957s.6-6.545-6.713-6.545a8.589,8.589,0,0,1,3.362,1.8s-4.665-2.739-9.741,1.469-1.922,14.76-3.466,16.764-7.555,2.4-6.82,8.883,19.077,14.593,17.9,19.953c0,0,7.188-10.567,2.048-15.389,0,0,2.505,2.36,2.761,5.165,0,0,.68-5.477-2.805-7.228-3.084-1.551-5.61-7.22-5.343-8.233s8.816-16.642,8.816-16.642" transform="translate(-331.263 -799.147)" fill="#2c3a64"/>
        <path id="Path_78303" data-name="Path 78303" d="M515.672,1281.611s5.464,22.6,10.827,27.122c3.224,2.716,12.809,8.948,12.809,8.948l-3.987,1.447s-13.295-4.49-16.271-7.99-11.126-21.035-11.126-21.035Z" transform="translate(-350.096 -883.374)" fill="#ffb27d"/>
        <path id="Path_78304" data-name="Path 78304" d="M360.053,1362.009c.048.086.1.176.15.266,1.2,2.078,3.938,7.17,6.959,12.742,1.429,2.644,2.925,5.4,4.344,7.985,2.445,4.469,4.67,8.448,5.968,10.552,1.32,2.138,2.292,3.641,2.685,4.242l0,0a.992.992,0,0,1,.128.62,32.431,32.431,0,0,0,.086,5.6,42.988,42.988,0,0,0,14.046,27.843l3.635.537s-5.144-19.055-6.659-29.828a20.733,20.733,0,0,1-.278-4.271c.269-2.807-.23-6.927-1.173-11.658a261.118,261.118,0,0,0-7.432-26.986c-.169-.527-5.281-19.017-5.281-19.017-4.29,3.75-19.937,5.3-19.937,5.3s-2.653,6.451,2.756,16.069" transform="translate(-245.826 -924.063)" fill="#2f539b"/>
        <path id="Path_78305" data-name="Path 78305" d="M480.634,1632.023H465.464a8.33,8.33,0,0,1,.428-4.066c.759-1.683,1.841-1.736.138-4.375.964.992,4.063,1.4,6.256,1.108.269.435,1.732,3.358,2.63,4,.991.712,5.412.459,5.717,3.329" transform="translate(-320.772 -1119.085)" fill="#081528"/>
        <path id="Path_78306" data-name="Path 78306" d="M367.609,1389.564c.048.086.1.176.15.266,1.2,2.078,7.661,14.02,10.682,19.592-3.5-14.4-1.066-28.8-1.066-28.8Z" transform="translate(-253.381 -951.618)" fill="#233862"/>
        <path id="Path_78307" data-name="Path 78307" d="M523.132,1177.278c.1-.4-8.664,3.961-9.108,4.454-4.11,4.559-2.938,10.508-.586,10.565,1.508.037,1.216,2.544,1.216,2.544l16.8-7.108s-2.023-11.8-8.323-10.455" transform="translate(-352.424 -811.388)" fill="#2c3a64"/>
        <path id="Path_78308" data-name="Path 78308" d="M511.589,1270.689s2.557,5.107,2.238,9.253c0,0-3.083,4.867-11.079,6.1,0,0,6.875-15.356,8.841-15.352" transform="translate(-346.528 -875.846)" fill="#f9d348"/>
        <path id="Path_78309" data-name="Path 78309" d="M321.206,1340.048l.052-2.837c-5.653.713-19.491-6.755-19.491-6.755s-5.913,3.933-6.723,15.166c-.395,5.483-2.895,28.669-3.171,35.593-.1,2.51-.134,4.3-.146,5.016a.011.011,0,0,1,0,.007.981.981,0,0,1-.24.584,32.434,32.434,0,0,0-3.063,4.7c-8.626,16.048-4.115,37.855-4.115,37.855l2-.51s7.293-22.606,12.06-32.384a20.451,20.451,0,0,1,2.159-3.695c1.792-2.177,3.682-5.874,5.545-10.323,3.521-8.411,15.13-42.412,15.13-42.412" transform="translate(-195.153 -917.042)" fill="#2f539b"/>
        <path id="Path_78310" data-name="Path 78310" d="M291.913,1631.78H276.743a8.331,8.331,0,0,1,.429-4.066c.759-1.683,1.949-2.448,1.664-4.484a5.462,5.462,0,0,0,4.728,1.809,16.637,16.637,0,0,0,2.632,3.412c.991.712,5.412.459,5.717,3.329" transform="translate(-190.693 -1118.842)" fill="#081528"/>
        <path id="Path_78311" data-name="Path 78311" d="M390.351,1270.227c-2.038.347.333,1.967-2.47,2.272-3.989.435-8.107.733-10.264,1.594a2.314,2.314,0,0,0-1.477,1.2c-.935,2.812-6.858,7.644-6.858,7.644-26.414-1.2-28.115-12.975-28.115-12.975,17.143-16.65,31.727-25.725,43.781-26.848,2.934-.274,6.888.093,8.743.919,4.216,1.877,6.526,7.588,6.526,7.588s-2.123,17.289-9.865,18.609" transform="translate(-235.156 -856.775)" fill="#f9d348"/>
        <path id="Path_78312" data-name="Path 78312" d="M468.546,1290.221c-3.989.435-8.107.733-10.264,1.594a42.063,42.063,0,0,1,5.335-23.083s4.056,16.5,4.929,21.489" transform="translate(-315.82 -874.497)" fill="#bf9a22"/>
        <path id="Path_78313" data-name="Path 78313" d="M509.355,1236.348c.754,2.362,3.267,9.092,6.751,6.5-.118-.5.614-1.963,1.477-3.446,1.1-1.9,2.417-3.833,2.417-3.833l-5.677-4.974-.339-.3a14.463,14.463,0,0,1-4.223,4.794,1.134,1.134,0,0,0-.406,1.254" transform="translate(-351.046 -848.008)" fill="#ffb27d"/>
        <path id="Path_78314" data-name="Path 78314" d="M530.906,1236.232s-1.312,1.933-2.416,3.831c-3.529-2.175-3.532-6.544-3.261-8.807Z" transform="translate(-361.952 -848.666)" fill="#ed985f"/>
        <path id="Path_78315" data-name="Path 78315" d="M530.541,1216.22s-8.568-4.768-5.517-10.058,4-9.468,9.6-6.647,5.489,5.447,4.9,7.46-6.675,10.349-8.982,9.245" transform="translate(-361.43 -826.162)" fill="#ffb27d"/>
        <path id="Path_78316" data-name="Path 78316" d="M538.974,1202.3c-.393-2.349-1.586-2.573-2.418-2.416a6.853,6.853,0,0,0-8.334-3.191,11.665,11.665,0,0,1-6.753,4.056s.994,1.85,5.091,2.995a7,7,0,0,0,4.041-.323,22.875,22.875,0,0,1-5.814,2.192c5.4.494,10.535-4.442,11.067-4.97a7.679,7.679,0,0,1,.424,3.537c-.355,1.591-1.767,4.472-.905,4.845,0,0,4.188-3.2,3.6-6.726" transform="translate(-359.433 -824.573)" fill="#2c3a64"/>
        <path id="Path_78317" data-name="Path 78317" d="M519.824,1443.655a5.668,5.668,0,0,0,.86,2.421c.675.824,2.638,2.819,2.672,3.987,0,0-.1.519-.52.424s-1.883-1.543-2.633-1.439a14.53,14.53,0,0,0,.8,3c.4.659,1.127,3.142.889,3.711s-4.21-2.742-5.414-4.36-.019-8.183-.019-8.183Z" transform="translate(-355.618 -994.765)" fill="#ffb27d"/>
        <path id="Path_78318" data-name="Path 78318" d="M475.548,1261.528s-10.031-.548-11.813,5.75,3.344,31.435,4.449,34.029c2.011,4.723,11.8,18.2,11.8,18.2l3.6-1.1s-6.529-20.595-7.986-22.632c-2.288-3.2,2.95-31.514-.053-34.254" transform="translate(-319.381 -869.524)" fill="#ffb27d"/>
        <path id="Path_78319" data-name="Path 78319" d="M458.2,1271.573c.026.148,9.492,1.741,15.413-1.264,0,0,4.946-15.5-2.122-14.754s-11.254,2.968-11.432,6.352a65.167,65.167,0,0,1-1.859,9.666" transform="translate(-315.82 -865.398)" fill="#f9d348"/>
        <path id="Path_78320" data-name="Path 78320" d="M587.943,1365.226a3.919,3.919,0,0,0-1.662.42c-.547.422-1.162,1.155.063,1.766,1.839.916,5.515.509,5.371-.042-.452-1.738-1.116-2.266-3.772-2.143" transform="translate(-403.658 -940.996)" fill="#ffb27d"/>
        <rect id="Rectangle_22774" data-name="Rectangle 22774" width="70.587" height="0.341" transform="translate(345.332 200.377) rotate(-61.896)" fill="#2a4e96"/>
        <rect id="Rectangle_22775" data-name="Rectangle 22775" width="0.341" height="54.966" transform="translate(462.94 138.302) rotate(-42.827)" fill="#2a4e96"/>
        <path id="Path_78321" data-name="Path 78321" d="M1248.168,583.83a14.951,14.951,0,0,1-2.788,10.949,14.255,14.255,0,0,1-9.534,5.7l-167.059,22.955c-8.527,1.172-16.411-4.477-17.52-12.552a14.382,14.382,0,0,1,3.13-10.994,16.037,16.037,0,0,1,10.356-5.817l167.059-22.955a14.692,14.692,0,0,1,16.356,12.711" transform="translate(-724.514 -393.564)" fill="#ebf3fa"/>
        <path id="Path_78322" data-name="Path 78322" d="M1581.888,583.83a14.949,14.949,0,0,1-2.788,10.949,14.254,14.254,0,0,1-9.534,5.7l-30.23,4.154-4.035-29.363,30.231-4.154a14.692,14.692,0,0,1,16.356,12.711" transform="translate(-1058.235 -393.564)" fill="#3f436a"/>
        <path id="Path_78323" data-name="Path 78323" d="M1606.951,604.612a7.7,7.7,0,0,1-1.132.07,7.52,7.52,0,1,1,1.132-.07m-5.453-11.995a6.309,6.309,0,1,0,8.921.1,6.316,6.316,0,0,0-8.921-.1" transform="translate(-1101.698 -406.38)" fill="#fff"/>
        <rect id="Rectangle_22776" data-name="Rectangle 22776" width="10.307" height="1.244" transform="matrix(0.715, -0.699, 0.699, 0.715, 491.445, 202.353)" fill="#fff"/>
        <path id="Path_78324" data-name="Path 78324" d="M1574.026,647.107h0a1.11,1.11,0,0,1,.018-1.571l4.342-4.242a1.111,1.111,0,0,1,1.552,1.589l-4.342,4.242a1.11,1.11,0,0,1-1.571-.018" transform="translate(-1084.709 -441.806)" fill="#fff"/>
        <path id="Path_78325" data-name="Path 78325" d="M702.047,1118.715h-34.9a1.315,1.315,0,0,1-1.315-1.315v-.554a1.315,1.315,0,0,1,1.315-1.315h34.9a1.315,1.315,0,0,1,1.315,1.315v.554a1.315,1.315,0,0,1-1.315,1.315" transform="translate(-458.935 -768.9)" fill="#163042"/>
        <path id="Path_78326" data-name="Path 78326" d="M684.137,1156.2H666.916a1.087,1.087,0,1,1,0-2.173h17.221a1.087,1.087,0,1,1,0,2.173" transform="translate(-458.935 -795.433)" fill="#739af0"/>
        <path id="Path_78327" data-name="Path 78327" d="M697.324,1141.531H666.84a1.012,1.012,0,0,1-1.011-1.012v-.15a1.011,1.011,0,0,1,1.011-1.011h30.483a1.011,1.011,0,0,1,1.011,1.011v.15a1.011,1.011,0,0,1-1.011,1.012" transform="translate(-458.935 -785.324)" fill="#739af0"/>
        <path id="Path_78328" data-name="Path 78328" d="M809.351,1141.531h-28.4a.977.977,0,0,1-.977-.977v-.219a.977.977,0,0,1,.977-.977h28.4a.977.977,0,0,1,.977.977v.219a.977.977,0,0,1-.977.977" transform="translate(-537.612 -785.324)" fill="#739af0"/>
        <path id="Path_78329" data-name="Path 78329" d="M753.264,1156.2H736.043a1.087,1.087,0,1,1,0-2.173h17.221a1.087,1.087,0,1,1,0,2.173" transform="translate(-506.582 -795.433)" fill="#739af0"/>
        <path id="Path_78330" data-name="Path 78330" d="M838.824,1118.715h-34.9a1.315,1.315,0,0,1-1.315-1.315v-.554a1.315,1.315,0,0,1,1.315-1.315h34.9a1.315,1.315,0,0,1,1.315,1.315v.554a1.315,1.315,0,0,1-1.315,1.315" transform="translate(-553.211 -768.9)" fill="#163042"/>
        <path id="Path_78331" data-name="Path 78331" d="M702.047,1195.876h-34.9a1.315,1.315,0,0,1-1.315-1.315v-.554a1.315,1.315,0,0,1,1.315-1.315h34.9a1.315,1.315,0,0,1,1.315,1.315v.554a1.315,1.315,0,0,1-1.315,1.315" transform="translate(-458.935 -822.085)" fill="#163042"/>
        <path id="Path_78332" data-name="Path 78332" d="M684.137,1233.358H666.916a1.087,1.087,0,1,1,0-2.173h17.221a1.087,1.087,0,1,1,0,2.173" transform="translate(-458.935 -848.617)" fill="#739af0"/>
        <path id="Path_78333" data-name="Path 78333" d="M697.324,1218.691H666.84a1.011,1.011,0,0,1-1.011-1.011v-.151a1.011,1.011,0,0,1,1.011-1.011h30.483a1.011,1.011,0,0,1,1.011,1.011v.151a1.011,1.011,0,0,1-1.011,1.011" transform="translate(-458.935 -838.508)" fill="#739af0"/>
        <path id="Path_78334" data-name="Path 78334" d="M809.351,1218.691h-28.4a.977.977,0,0,1-.977-.978v-.219a.977.977,0,0,1,.977-.977h28.4a.977.977,0,0,1,.977.977v.219a.977.977,0,0,1-.977.978" transform="translate(-537.612 -838.508)" fill="#739af0"/>
        <path id="Path_78335" data-name="Path 78335" d="M753.264,1233.358H736.043a1.087,1.087,0,1,1,0-2.173h17.221a1.087,1.087,0,1,1,0,2.173" transform="translate(-506.582 -848.617)" fill="#739af0"/>
        <path id="Path_78336" data-name="Path 78336" d="M838.824,1195.876h-34.9a1.315,1.315,0,0,1-1.315-1.315v-.554a1.315,1.315,0,0,1,1.315-1.315h34.9a1.315,1.315,0,0,1,1.315,1.315v.554a1.315,1.315,0,0,1-1.315,1.315" transform="translate(-553.211 -822.085)" fill="#163042"/>
        <path id="Path_78337" data-name="Path 78337" d="M1287.693,716.586l-8.584,2-4.245,7.724-3.241-17.6Z" transform="translate(-876.49 -488.488)" fill="#233862"/>
        <rect id="Rectangle_22777" data-name="Rectangle 22777" width="1.569" height="9.079" transform="matrix(0.797, -0.604, 0.604, 0.797, 400.9, 229.347)" fill="#233862"/>
        <path id="Path_78338" data-name="Path 78338" d="M1207.533,881.214h-49.016a3.592,3.592,0,0,1-3.592-3.592V828.607a3.592,3.592,0,0,1,3.592-3.592h49.016a3.592,3.592,0,0,1,3.592,3.592v49.016a3.592,3.592,0,0,1-3.592,3.592" transform="translate(-796.054 -568.657)" fill="#8486f7"/>
        <path id="Path_78339" data-name="Path 78339" d="M1177.021,920.273l10.92-19.687a3.592,3.592,0,0,1,6.038-.382l6.3,8.591a3.592,3.592,0,0,0,5.547.3,3.592,3.592,0,0,1,5.665.472l6.8,10.495a3.592,3.592,0,0,1-3.015,5.545h-35.11a3.592,3.592,0,0,1-3.141-5.335" transform="translate(-810.969 -619.47)" fill="#fff"/>
        <path id="Path_78340" data-name="Path 78340" d="M1247.39,865.547a4.3,4.3,0,1,1,4.3,4.3,4.3,4.3,0,0,1-4.3-4.3" transform="translate(-859.787 -593.634)" fill="#fff"/>
        <path id="Path_78341" data-name="Path 78341" d="M1424.136,887.156l-48.566,6.625a3.592,3.592,0,0,1-4.045-3.073l-6.625-48.566a3.592,3.592,0,0,1,3.074-4.045l48.566-6.625a3.591,3.591,0,0,1,4.044,3.073l6.625,48.566a3.593,3.593,0,0,1-3.074,4.045" transform="translate(-940.76 -573.085)" fill="#8486f7"/>
        <path id="Path_78342" data-name="Path 78342" d="M1405.087,941.4l8.159-20.983a3.592,3.592,0,0,1,5.931-1.194l7.4,7.661a3.592,3.592,0,0,0,5.537-.452,3.592,3.592,0,0,1,5.677-.3l8.153,9.48a3.592,3.592,0,0,1-2.238,5.9l-34.788,4.745a3.592,3.592,0,0,1-3.833-4.86" transform="translate(-968.31 -632.834)" fill="#fff"/>
        <path id="Path_78343" data-name="Path 78343" d="M1461.706,880.715a4.3,4.3,0,1,1,4.837,3.676,4.3,4.3,0,0,1-4.837-3.676" transform="translate(-1007.48 -603.688)" fill="#fff"/>
        <rect id="Rectangle_22778" data-name="Rectangle 22778" width="28.323" height="24.284" transform="translate(312.253 487.689)" fill="#163042"/>
        <rect id="Rectangle_22779" data-name="Rectangle 22779" width="30.425" height="1.876" transform="translate(311.109 486.649)" fill="#aec3ff"/>
        <rect id="Rectangle_22780" data-name="Rectangle 22780" width="28.323" height="7.714" transform="translate(312.253 494.259)" fill="#fffeff"/>
        <path id="Path_78344" data-name="Path 78344" d="M1143.686,1633.248h-26.744a1.773,1.773,0,0,1-1.773-1.773v-2.966a1.773,1.773,0,0,1,1.969-1.762l26.743,2.966a1.773,1.773,0,0,1-.195,3.535" transform="translate(-768.651 -1121.259)" fill="#163042"/>
        <path id="Path_78345" data-name="Path 78345" d="M757.109,1649.793l-744.569-.257a.911.911,0,0,1-.907-.908v-.465a.91.91,0,0,1,.908-.907l744.569.257a.91.91,0,0,1,.907.908v.465a.911.911,0,0,1-.908.907" transform="translate(-8.018 -1135.403)" fill="#2e3552"/>
        <path id="Path_78346" data-name="Path 78346" d="M807.044,860.117h-3.082a.507.507,0,1,1,0-1.014h3.061a.516.516,0,0,1,.517.507.5.5,0,0,1-.5.507m-6.143,0H797.84a.507.507,0,0,1,0-1.014H800.9a.507.507,0,1,1,0,1.014m-6.122,0h-3.061a.507.507,0,0,1,0-1.014h3.061a.507.507,0,1,1,0,1.014m-6.122,0H785.6a.507.507,0,0,1,0-1.014h3.061a.507.507,0,0,1,0,1.014m-6.122,0h-3.061a.507.507,0,0,1,0-1.014h3.061a.507.507,0,1,1,0,1.014m-6.122,0h-3.061a.507.507,0,0,1,0-1.014h3.061a.507.507,0,0,1,0,1.014m-6.122,0h-3.061a.507.507,0,0,1,0-1.014h3.061a.507.507,0,1,1,0,1.014m-6.122,0h-3.061a.507.507,0,0,1,0-1.014h3.061a.507.507,0,0,1,0,1.014m-6.122,0h-3.061a.507.507,0,1,1,0-1.014h3.061a.507.507,0,0,1,0,1.014m-6.122,0h-3.061a.507.507,0,0,1,0-1.014h3.061a.507.507,0,0,1,0,1.014m-6.122,0h-3.061a.507.507,0,0,1,0-1.014H745.8a.507.507,0,0,1,0,1.014m-6.122,0h-3.061a.507.507,0,0,1,0-1.014h3.061a.507.507,0,0,1,0,1.014m-6.122,0H730.5a.507.507,0,0,1,0-1.014h3.061a.507.507,0,1,1,0,1.014m-6.122,0h-3.061a.507.507,0,0,1,0-1.014h3.061a.507.507,0,0,1,0,1.014m-6.122,0h-3.061a.507.507,0,0,1,0-1.014h3.061a.507.507,0,0,1,0,1.014m-6.122,0H712.13a.507.507,0,0,1,0-1.014h3.061a.507.507,0,0,1,0,1.014m-6.122,0h-3.061a.507.507,0,1,1,0-1.014h3.061a.507.507,0,0,1,0,1.014m-6.122,0h-2.729q-.183,0-.364-.012a.507.507,0,1,1,.064-1.011q.149.009.3.009h2.729a.507.507,0,0,1,0,1.014m106.978-.891a.507.507,0,0,1-.285-.926,4.661,4.661,0,0,0,1.71-2.117.507.507,0,1,1,.94.379,5.67,5.67,0,0,1-2.08,2.577.5.5,0,0,1-.284.088m-112.861-.183a.5.5,0,0,1-.309-.106,5.657,5.657,0,0,1-1.921-2.7.507.507,0,1,1,.961-.321,4.653,4.653,0,0,0,1.579,2.216.507.507,0,0,1-.31.908m115.128-5.177a.507.507,0,0,1-.507-.507V850.3a.507.507,0,0,1,1.013,0v3.061a.507.507,0,0,1-.507.507m-117.144-.312a.507.507,0,0,1-.507-.507v-3.061a.507.507,0,0,1,1.014,0v3.061a.507.507,0,0,1-.507.507m117.144-5.811a.507.507,0,0,1-.507-.507v-3.061a.507.507,0,1,1,1.013,0v3.061a.507.507,0,0,1-.507.507m-117.144-.312a.507.507,0,0,1-.507-.507v-3.061a.507.507,0,0,1,1.014,0v3.061a.507.507,0,0,1-.507.507m117.144-5.811a.507.507,0,0,1-.507-.507v-3.061a.507.507,0,0,1,1.013,0v3.061a.507.507,0,0,1-.507.507m-117.144-.311a.507.507,0,0,1-.507-.507v-3.061a.507.507,0,1,1,1.014,0V840.8a.507.507,0,0,1-.507.507M812.192,835.5a.507.507,0,0,1-.507-.507v-3.061a.507.507,0,1,1,1.013,0v3.061a.507.507,0,0,1-.507.507m-117.144-.311a.507.507,0,0,1-.507-.506v-3.061a.507.507,0,1,1,1.014,0v3.061a.507.507,0,0,1-.507.506m117.144-5.81a.507.507,0,0,1-.507-.507v-3.061a.507.507,0,0,1,1.013,0v3.061a.507.507,0,0,1-.507.507m-117.144-.312a.507.507,0,0,1-.507-.507V825.5a.507.507,0,0,1,1.014,0v3.061a.507.507,0,0,1-.507.507m117.144-5.811a.506.506,0,0,1-.507-.506v-3.061a.507.507,0,0,1,1.013,0v3.061a.507.507,0,0,1-.507.506m-117.144-.311a.507.507,0,0,1-.507-.507v-3.061a.507.507,0,0,1,1.014,0v3.061a.507.507,0,0,1-.507.507m117.144-5.811a.507.507,0,0,1-.507-.507v-3.061a.507.507,0,0,1,1.013,0v3.061a.507.507,0,0,1-.507.507m-117.144-.311a.507.507,0,0,1-.507-.507v-3.061a.507.507,0,1,1,1.014,0v3.061a.507.507,0,0,1-.507.507m117.144-5.811a.507.507,0,0,1-.507-.507v-3.062a.507.507,0,0,1,1.013,0v3.062a.507.507,0,0,1-.507.507M695.049,810.7a.507.507,0,0,1-.507-.507v-3.061a.507.507,0,0,1,1.014,0v3.061a.507.507,0,0,1-.507.507m117.144-5.811a.507.507,0,0,1-.507-.506v-3.061a.507.507,0,0,1,1.013,0v3.061a.507.507,0,0,1-.507.506m-117.144-.311a.507.507,0,0,1-.507-.507v-3.061a.507.507,0,0,1,1.014,0v3.061a.507.507,0,0,1-.507.507m117.144-5.811a.507.507,0,0,1-.507-.507V796.88a4.657,4.657,0,0,0-.242-1.488.507.507,0,1,1,.96-.323,5.665,5.665,0,0,1,.3,1.811v1.381a.507.507,0,0,1-.507.507m-117.144-.311a.507.507,0,0,1-.507-.507v-1.07a5.656,5.656,0,0,1,.414-2.132.507.507,0,1,1,.939.381,4.635,4.635,0,0,0-.34,1.751v1.07a.507.507,0,0,1-.507.507m115.119-5.173a.507.507,0,0,1-.308-.105,4.633,4.633,0,0,0-2.546-.953.507.507,0,0,1,.062-1.011,5.64,5.64,0,0,1,3.1,1.161.507.507,0,0,1-.309.909M697.326,793.1a.507.507,0,0,1-.284-.927,5.65,5.65,0,0,1,3.165-.972h0a.507.507,0,0,1,0,1.014,4.642,4.642,0,0,0-2.6.8.5.5,0,0,1-.283.087m106.958-.885h-3.061a.507.507,0,1,1,0-1.014h3.061a.507.507,0,1,1,0,1.014m-6.122,0H795.1a.507.507,0,0,1,0-1.014h3.061a.507.507,0,0,1,0,1.014m-6.122,0h-3.061a.507.507,0,0,1,0-1.014h3.061a.507.507,0,0,1,0,1.014m-6.122,0h-3.061a.507.507,0,0,1,0-1.014h3.061a.507.507,0,0,1,0,1.014m-6.122,0h-3.061a.507.507,0,1,1,0-1.014H779.8a.507.507,0,0,1,0,1.014m-6.122,0h-3.061a.507.507,0,1,1,0-1.014h3.061a.507.507,0,0,1,0,1.014m-6.122,0H764.49a.507.507,0,0,1,0-1.014h3.061a.507.507,0,0,1,0,1.014m-6.122,0h-3.061a.507.507,0,1,1,0-1.014h3.061a.507.507,0,0,1,0,1.014m-6.122,0h-3.061a.507.507,0,0,1,0-1.014h3.061a.507.507,0,0,1,0,1.014m-6.122,0h-3.061a.507.507,0,0,1,0-1.014h3.061a.507.507,0,0,1,0,1.014m-6.122,0H740a.507.507,0,1,1,0-1.014h3.061a.507.507,0,0,1,0,1.014m-6.122,0h-3.061a.507.507,0,0,1,0-1.014h3.061a.507.507,0,0,1,0,1.014m-6.122,0h-3.061a.507.507,0,0,1,0-1.014h3.061a.507.507,0,1,1,0,1.014m-6.122,0h-3.061a.507.507,0,1,1,0-1.014H724.7a.507.507,0,0,1,0,1.014m-6.122,0h-3.061a.507.507,0,0,1,0-1.014h3.061a.507.507,0,1,1,0,1.014m-6.122,0h-3.061a.507.507,0,0,1,0-1.014h3.061a.507.507,0,0,1,0,1.014m-6.122,0h-3.061a.507.507,0,0,1,0-1.014h3.061a.507.507,0,0,1,0,1.014" transform="translate(-478.726 -545.352)" fill="#e05b80"/>
        <path id="Path_78347" data-name="Path 78347" d="M1497.53,1246.554H1494.8a.449.449,0,1,1,0-.9h2.711a.458.458,0,0,1,.459.449.44.44,0,0,1-.439.449m-5.444,0h-2.712a.449.449,0,1,1,0-.9h2.712a.449.449,0,1,1,0,.9m-5.423,0h-2.712a.449.449,0,1,1,0-.9h2.712a.449.449,0,1,1,0,.9m-5.423,0h-2.711a.449.449,0,1,1,0-.9h2.711a.449.449,0,1,1,0,.9m-5.423,0H1473.1a.449.449,0,0,1,0-.9h2.712a.449.449,0,1,1,0,.9m-5.423,0h-2.712a.449.449,0,1,1,0-.9h2.712a.449.449,0,0,1,0,.9m-5.423,0h-2.712a.449.449,0,1,1,0-.9h2.712a.449.449,0,0,1,0,.9m-5.423,0h-2.712a.449.449,0,0,1,0-.9h2.712a.449.449,0,0,1,0,.9m-5.423,0h-2.712a.449.449,0,0,1,0-.9h2.712a.449.449,0,1,1,0,.9m-5.423,0h-2.618l-.115,0a.449.449,0,1,1,.044-.9l.071,0h2.618a.449.449,0,1,1,0,.9m50.584-1.718h-.015a.449.449,0,0,1-.434-.463v-2.7a.449.449,0,1,1,.9,0v2.726a.449.449,0,0,1-.449.434m-54.978-.072a.449.449,0,0,1-.449-.449V1241.6a.449.449,0,0,1,.9,0v2.712a.449.449,0,0,1-.449.449m54.978-5.351a.448.448,0,0,1-.449-.449v-2.712a.449.449,0,0,1,.9,0v2.712a.449.449,0,0,1-.449.449m-54.978-.072a.449.449,0,0,1-.449-.449v-2.712a.449.449,0,0,1,.9,0v2.712a.449.449,0,0,1-.449.449m54.978-5.351a.449.449,0,0,1-.449-.449v-2.712a.449.449,0,0,1,.9,0v2.712a.449.449,0,0,1-.449.449m-54.978-.073a.449.449,0,0,1-.449-.449v-2.644c0-.029,0-.057,0-.086a.441.441,0,0,1,.467-.43.449.449,0,0,1,.43.467v2.693a.449.449,0,0,1-.449.449m53.287-4.418h-2.712a.449.449,0,0,1,0-.9h2.629l.1,0a.449.449,0,0,1-.02.9m-5.424,0h-2.712a.449.449,0,0,1,0-.9h2.712a.449.449,0,0,1,0,.9m-5.423,0h-2.712a.449.449,0,0,1,0-.9h2.712a.449.449,0,1,1,0,.9m-5.423,0h-2.712a.449.449,0,0,1,0-.9h2.712a.449.449,0,0,1,0,.9m-5.424,0h-2.711a.449.449,0,0,1,0-.9h2.711a.449.449,0,1,1,0,.9m-5.423,0h-2.711a.449.449,0,1,1,0-.9h2.711a.449.449,0,1,1,0,.9m-5.423,0h-2.712a.449.449,0,1,1,0-.9h2.712a.449.449,0,0,1,0,.9m-5.424,0h-2.711a.449.449,0,1,1,0-.9h2.711a.449.449,0,0,1,0,.9m-5.423,0h-2.711a.449.449,0,1,1,0-.9h2.711a.449.449,0,0,1,0,.9m-5.423,0h-2.7a.453.453,0,0,1-.454-.449.444.444,0,0,1,.443-.449h2.712a.449.449,0,0,1,0,.9" transform="translate(-995.205 -846.835)" fill="#739af0"/>
        <path id="Path_78348" data-name="Path 78348" d="M896.223,673.6H893.2a.507.507,0,1,1,0-1.013h3a.515.515,0,0,1,.516.507.5.5,0,0,1-.5.507m-6.02,0h-3a.507.507,0,1,1,0-1.013h3a.507.507,0,0,1,0,1.013m-6,0h-3a.507.507,0,1,1,0-1.013h3a.507.507,0,0,1,0,1.013m-6,0h-3a.507.507,0,0,1,0-1.013h3a.507.507,0,1,1,0,1.013m-6,0h-3a.507.507,0,1,1,0-1.013h3a.507.507,0,1,1,0,1.013m-6,0h-3a.507.507,0,1,1,0-1.013h3a.507.507,0,1,1,0,1.013m-6,0h-3a.507.507,0,1,1,0-1.013h3a.507.507,0,1,1,0,1.013m-5.945-.323a.5.5,0,0,1-.249-.066,3.006,3.006,0,0,1-1.522-2.61v-.368a.507.507,0,1,1,1.013,0v.368a1.992,1.992,0,0,0,1.008,1.729.507.507,0,0,1-.25.947m44.287-1.292a.507.507,0,0,1-.474-.685,1.977,1.977,0,0,0,.127-.7v-2.1a.507.507,0,1,1,1.013,0v2.1a2.991,2.991,0,0,1-.191,1.057.507.507,0,0,1-.475.328m-45.551-4.247a.507.507,0,0,1-.507-.507v-3a.507.507,0,1,1,1.013,0v3a.507.507,0,0,1-.507.507M898.7,666a.507.507,0,0,1-.507-.507v-3a.507.507,0,0,1,1.013,0v3a.507.507,0,0,1-.506.507m-45.711-4.266a.507.507,0,0,1-.507-.507v-3a.507.507,0,0,1,1.013,0v3a.507.507,0,0,1-.507.507M898.7,660a.507.507,0,0,1-.507-.507v-3a.507.507,0,1,1,1.013,0v3a.507.507,0,0,1-.506.507m-45.711-4.266a.507.507,0,0,1-.507-.507v-3a.507.507,0,1,1,1.013,0v3a.507.507,0,0,1-.507.507M898.7,654a.507.507,0,0,1-.507-.507v-3a.507.507,0,1,1,1.013,0v3a.507.507,0,0,1-.506.507m-45.711-4.266a.507.507,0,0,1-.507-.507v-3a.507.507,0,1,1,1.013,0v3a.507.507,0,0,1-.507.507M898.7,648a.507.507,0,0,1-.507-.507v-3a.507.507,0,1,1,1.013,0v3a.507.507,0,0,1-.506.507m-45.711-4.266a.507.507,0,0,1-.507-.507v-3a.507.507,0,1,1,1.013,0v3a.507.507,0,0,1-.507.507M898.7,642a.507.507,0,0,1-.507-.507v-3a.507.507,0,1,1,1.013,0v3a.507.507,0,0,1-.506.507m-45.711-4.266a.507.507,0,0,1-.507-.507v-2.094a2.99,2.99,0,0,1,.2-1.067.507.507,0,0,1,.947.36,1.977,1.977,0,0,0-.129.707v2.094a.507.507,0,0,1-.507.507M898.7,636a.507.507,0,0,1-.507-.507v-.359a1.991,1.991,0,0,0-1.015-1.733.507.507,0,0,1,.5-.883,3.005,3.005,0,0,1,1.531,2.616v.359a.507.507,0,0,1-.506.507m-4.219-2.851h-3a.507.507,0,0,1,0-1.014h3a.507.507,0,1,1,0,1.014m-6,0h-3a.507.507,0,0,1,0-1.014h3a.507.507,0,0,1,0,1.014m-6,0h-3a.507.507,0,0,1,0-1.014h3a.507.507,0,1,1,0,1.014m-6,0h-3a.507.507,0,1,1,0-1.014h3a.507.507,0,0,1,0,1.014m-6,0h-3a.507.507,0,0,1,0-1.014h3a.507.507,0,0,1,0,1.014m-6,0h-3a.507.507,0,0,1,0-1.014h3a.507.507,0,0,1,0,1.014m-6,0h-2.991a.511.511,0,0,1-.511-.507.5.5,0,0,1,.5-.507h3a.507.507,0,1,1,0,1.014" transform="translate(-587.588 -435.71)" fill="#739af0"/>
        <path id="Path_78349" data-name="Path 78349" d="M1497.53,1327.094H1494.8a.449.449,0,1,1,0-.9h2.711a.458.458,0,0,1,.459.449.44.44,0,0,1-.439.449m-5.444,0h-2.712a.449.449,0,1,1,0-.9h2.712a.449.449,0,1,1,0,.9m-5.423,0h-2.712a.449.449,0,1,1,0-.9h2.712a.449.449,0,1,1,0,.9m-5.423,0h-2.711a.449.449,0,1,1,0-.9h2.711a.449.449,0,1,1,0,.9m-5.423,0H1473.1a.449.449,0,0,1,0-.9h2.712a.449.449,0,1,1,0,.9m-5.423,0h-2.712a.449.449,0,1,1,0-.9h2.712a.449.449,0,0,1,0,.9m-5.423,0h-2.712a.449.449,0,1,1,0-.9h2.712a.449.449,0,1,1,0,.9m-5.423,0h-2.712a.449.449,0,1,1,0-.9h2.712a.449.449,0,0,1,0,.9m-5.423,0h-2.712a.449.449,0,1,1,0-.9h2.712a.449.449,0,1,1,0,.9m-5.423,0h-2.618l-.115,0a.449.449,0,0,1-.427-.471.442.442,0,0,1,.471-.426l.071,0h2.618a.449.449,0,1,1,0,.9m50.584-1.718h-.015a.449.449,0,0,1-.434-.464v-2.7a.449.449,0,0,1,.9,0v2.726a.449.449,0,0,1-.449.434m-54.978-.073a.449.449,0,0,1-.449-.449v-2.712a.449.449,0,0,1,.9,0v2.712a.449.449,0,0,1-.449.449m54.978-5.351a.449.449,0,0,1-.449-.449v-2.712a.449.449,0,0,1,.9,0v2.712a.449.449,0,0,1-.449.449m-54.978-.073a.449.449,0,0,1-.449-.449v-2.712a.449.449,0,1,1,.9,0v2.712a.449.449,0,0,1-.449.449m54.978-5.351a.448.448,0,0,1-.449-.448v-2.712a.449.449,0,0,1,.9,0v2.712a.449.449,0,0,1-.449.448m-54.978-.072a.449.449,0,0,1-.449-.449v-2.644c0-.028,0-.057,0-.085a.442.442,0,0,1,.467-.43.449.449,0,0,1,.43.467v2.693a.449.449,0,0,1-.449.449m53.287-4.418h-.02l-.063,0h-2.629a.449.449,0,1,1,0-.9h2.629l.1,0a.449.449,0,0,1-.02.9m-5.424,0h-2.712a.449.449,0,0,1,0-.9h2.712a.449.449,0,0,1,0,.9m-5.423,0h-2.712a.449.449,0,0,1,0-.9h2.712a.449.449,0,1,1,0,.9m-5.423,0h-2.712a.449.449,0,0,1,0-.9h2.712a.449.449,0,1,1,0,.9m-5.424,0h-2.711a.449.449,0,0,1,0-.9h2.711a.449.449,0,1,1,0,.9m-5.423,0h-2.711a.449.449,0,1,1,0-.9h2.711a.449.449,0,1,1,0,.9m-5.423,0h-2.712a.449.449,0,1,1,0-.9h2.712a.449.449,0,1,1,0,.9m-5.424,0h-2.711a.449.449,0,1,1,0-.9h2.711a.449.449,0,0,1,0,.9m-5.423,0h-2.711a.449.449,0,1,1,0-.9h2.711a.449.449,0,0,1,0,.9m-5.423,0h-2.7a.453.453,0,0,1-.454-.449.444.444,0,0,1,.443-.449h2.712a.449.449,0,0,1,0,.9" transform="translate(-995.205 -902.349)" fill="#739af0"/>
        <path id="Path_78350" data-name="Path 78350" d="M733.046,1153.636h-2.707a.449.449,0,1,1,0-.9h2.688a.457.457,0,0,1,.458.449.441.441,0,0,1-.44.449m-5.395,0h-2.688a.449.449,0,1,1,0-.9h2.688a.449.449,0,1,1,0,.9m-5.377,0h-2.688a.449.449,0,1,1,0-.9h2.688a.449.449,0,1,1,0,.9m-5.377,0h-2.688a.449.449,0,1,1,0-.9H716.9a.449.449,0,1,1,0,.9m-5.377,0h-2.688a.449.449,0,1,1,0-.9h2.688a.449.449,0,1,1,0,.9m-5.376,0h-2.688a.449.449,0,1,1,0-.9h2.688a.449.449,0,0,1,0,.9m-5.377,0H698.08a.449.449,0,0,1,0-.9h2.688a.449.449,0,1,1,0,.9m-5.377,0H692.7a.449.449,0,1,1,0-.9h2.688a.449.449,0,1,1,0,.9m-5.377,0h-2.688a.449.449,0,0,1,0-.9h2.688a.449.449,0,1,1,0,.9m-5.377,0H681.95a.449.449,0,1,1,0-.9h2.688a.449.449,0,1,1,0,.9m-5.377,0h-2.688a.449.449,0,1,1,0-.9h2.688a.449.449,0,1,1,0,.9m-5.376,0H671.2a.449.449,0,1,1,0-.9h2.688a.449.449,0,0,1,0,.9m-5.377,0h-2.688a.449.449,0,1,1,0-.9h2.688a.449.449,0,1,1,0,.9m-5.377,0h-2.688a.449.449,0,1,1,0-.9h2.688a.449.449,0,1,1,0,.9m-5.377,0h-2.688a.449.449,0,1,1,0-.9h2.688a.449.449,0,1,1,0,.9m-5.377,0h-2.146a5.015,5.015,0,0,1-.593-.035.449.449,0,0,1,.105-.892,4.146,4.146,0,0,0,.488.029h2.146a.449.449,0,1,1,0,.9m83.2-.775a.449.449,0,0,1-.251-.822,4.128,4.128,0,0,0,1.516-1.848.449.449,0,1,1,.829.345,5.024,5.024,0,0,1-1.845,2.249.447.447,0,0,1-.25.077m-88.314-.317a.445.445,0,0,1-.291-.107,5.014,5.014,0,0,1-1.577-2.444.449.449,0,0,1,.863-.247,4.117,4.117,0,0,0,1.3,2.008.449.449,0,0,1-.291.79m90.343-4.374a.449.449,0,0,1-.449-.449v-2.688a.449.449,0,0,1,.9,0v2.688a.449.449,0,0,1-.449.449m-91.954-.524a.449.449,0,0,1-.449-.449v-2.688a.449.449,0,0,1,.9,0v2.688a.449.449,0,0,1-.449.449m91.954-4.852a.449.449,0,0,1-.449-.449v-2.688a.449.449,0,0,1,.9,0v2.688a.449.449,0,0,1-.449.449m-91.954-.524a.449.449,0,0,1-.449-.449v-2.688a.449.449,0,0,1,.9,0v2.688a.449.449,0,0,1-.449.449m91.954-4.853a.449.449,0,0,1-.449-.449v-2.688a.449.449,0,0,1,.9,0v2.688a.449.449,0,0,1-.449.449m-91.954-.524a.449.449,0,0,1-.449-.449v-2.688a.449.449,0,0,1,.9,0v2.688a.449.449,0,0,1-.449.449m91.954-4.853a.449.449,0,0,1-.449-.449V1128.9a.449.449,0,0,1,.9,0v2.688a.449.449,0,0,1-.449.449m-91.954-.524a.449.449,0,0,1-.449-.449v-2.688a.449.449,0,0,1,.9,0v2.688a.449.449,0,0,1-.449.449m91.954-4.853a.449.449,0,0,1-.449-.449v-2.688a.449.449,0,0,1,.9,0v2.688a.449.449,0,0,1-.449.449m-91.954-.524a.449.449,0,0,1-.449-.449V1123a.449.449,0,1,1,.9,0v2.688a.449.449,0,0,1-.449.449m91.954-4.853a.449.449,0,0,1-.449-.449v-2.688a.449.449,0,0,1,.9,0v2.688a.449.449,0,0,1-.449.449m-91.954-.524a.449.449,0,0,1-.449-.449v-2.688a.449.449,0,0,1,.9,0v2.688a.449.449,0,0,1-.449.449m91.954-4.853a.449.449,0,0,1-.449-.449v-2.688a.449.449,0,0,1,.9,0v2.688a.449.449,0,0,1-.449.449m-91.954-.524a.449.449,0,0,1-.449-.449v-2.688a.449.449,0,0,1,.9,0v2.688a.449.449,0,0,1-.449.449m91.954-4.853a.449.449,0,0,1-.449-.449V1107.4a.449.449,0,0,1,.9,0v2.688a.449.449,0,0,1-.449.449m-91.954-.524a.449.449,0,0,1-.449-.449v-2.688a.449.449,0,0,1,.9,0v2.688a.449.449,0,0,1-.449.449m91.954-4.853a.449.449,0,0,1-.449-.449v-2.688a.449.449,0,0,1,.9,0v2.688a.449.449,0,0,1-.449.449m-91.954-.524a.449.449,0,0,1-.449-.449V1101.5a.449.449,0,0,1,.9,0v2.688a.449.449,0,0,1-.449.449m91.954-4.853a.449.449,0,0,1-.449-.449v-2.688a.449.449,0,0,1,.9,0v2.688a.449.449,0,0,1-.449.449m-91.954-.524a.449.449,0,0,1-.449-.449v-2.688a.449.449,0,0,1,.9,0v2.688a.449.449,0,0,1-.449.449m91.954-4.853a.449.449,0,0,1-.449-.449v-2.688a.449.449,0,1,1,.9,0v2.688a.449.449,0,0,1-.449.449m-91.954-.524a.449.449,0,0,1-.449-.449v-2.688a.449.449,0,0,1,.9,0v2.688a.449.449,0,0,1-.449.449m91.776-4.836a.45.45,0,0,1-.431-.324,4.123,4.123,0,0,0-1.3-2.006.449.449,0,0,1,.581-.684,5.013,5.013,0,0,1,1.581,2.441.449.449,0,0,1-.307.556.442.442,0,0,1-.125.018m-91.424-.494a.45.45,0,0,1-.414-.622,5.02,5.02,0,0,1,1.849-2.245.449.449,0,1,1,.5.746,4.127,4.127,0,0,0-1.52,1.845.449.449,0,0,1-.415.276m87.554-2.785c-.017,0-.034,0-.052,0a4.172,4.172,0,0,0-.48-.028h-2.155a.449.449,0,1,1,0-.9h2.155a5.206,5.206,0,0,1,.583.033.449.449,0,0,1-.05.9m-5.376-.031H725.5a.449.449,0,1,1,0-.9h2.688a.449.449,0,1,1,0,.9m-5.376,0h-2.688a.449.449,0,1,1,0-.9h2.688a.449.449,0,0,1,0,.9m-5.377,0h-2.688a.449.449,0,0,1,0-.9h2.688a.449.449,0,1,1,0,.9m-5.377,0h-2.688a.449.449,0,1,1,0-.9h2.688a.449.449,0,1,1,0,.9m-5.377,0h-2.688a.449.449,0,1,1,0-.9h2.688a.449.449,0,1,1,0,.9m-5.377,0h-2.688a.449.449,0,1,1,0-.9H701.3a.449.449,0,1,1,0,.9m-5.377,0h-2.688a.449.449,0,1,1,0-.9h2.688a.449.449,0,1,1,0,.9m-5.376,0H687.86a.449.449,0,1,1,0-.9h2.688a.449.449,0,0,1,0,.9m-5.377,0h-2.688a.449.449,0,1,1,0-.9h2.688a.449.449,0,1,1,0,.9m-5.377,0h-2.688a.449.449,0,1,1,0-.9h2.688a.449.449,0,1,1,0,.9m-5.377,0H671.73a.449.449,0,1,1,0-.9h2.688a.449.449,0,1,1,0,.9m-5.377,0h-2.688a.449.449,0,1,1,0-.9h2.688a.449.449,0,1,1,0,.9m-5.377,0h-2.688a.449.449,0,1,1,0-.9h2.688a.449.449,0,1,1,0,.9m-5.376,0H655.6a.449.449,0,0,1,0-.9h2.689a.449.449,0,0,1,0,.9m-5.377,0h-2.679a.453.453,0,0,1-.454-.449.445.445,0,0,1,.444-.449h2.688a.449.449,0,1,1,0,.9" transform="translate(-444.719 -747.745)" fill="#739af0"/>
        <path id="Path_78351" data-name="Path 78351" d="M761.556,890.449H652.9a4.246,4.246,0,0,1-4.246-4.246V826.794a4.246,4.246,0,0,1,4.246-4.246H761.556a4.246,4.246,0,0,1,4.246,4.246V886.2a4.246,4.246,0,0,1-4.246,4.246" transform="translate(-447.1 -566.957)" fill="#ec6b95"/>
        <path id="Path_78352" data-name="Path 78352" d="M794.613,883.76V910.7a2.117,2.117,0,0,0,3.28,1.768L818.364,899a2.117,2.117,0,0,0,0-3.536l-20.472-13.469a2.116,2.116,0,0,0-3.28,1.768" transform="translate(-547.702 -607.687)" fill="#fff"/>
        <path id="Path_78353" data-name="Path 78353" d="M668.255,1016.691a2.1,2.1,0,1,1,2.1,2.1,2.1,2.1,0,0,1-2.1-2.1" transform="translate(-460.607 -699.324)" fill="#aec3ff"/>
        <path id="Path_78354" data-name="Path 78354" d="M770.678,1020.664h-95.09a.566.566,0,0,1,0-1.132h95.09a.566.566,0,0,1,0,1.132" transform="translate(-465.271 -702.732)" fill="#fff"/>
        <rect id="Rectangle_22781" data-name="Rectangle 22781" width="60.604" height="90.468" transform="translate(311.11 337.542)" fill="#66dfc0"/>
        <path id="Path_78355" data-name="Path 78355" d="M1115.62,1143.58h-.829v-3.728a2.427,2.427,0,0,1,2.425-2.425h10.254a1.6,1.6,0,0,0,1.543-1.19l1.622-6.165a1.6,1.6,0,0,0-1.543-2h-13.379v-.829h13.379a2.425,2.425,0,0,1,2.345,3.042l-1.622,6.165a2.426,2.426,0,0,1-2.345,1.808h-10.254a1.6,1.6,0,0,0-1.6,1.6Z" transform="translate(-768.39 -776.972)" fill="#2b478b"/>
        <path id="Path_78356" data-name="Path 78356" d="M1103.421,1124.315H1085.8a2.692,2.692,0,0,1-2.692-2.693v-1.61a2.692,2.692,0,0,1,2.692-2.693h17.62a2.692,2.692,0,0,1,2.692,2.693v1.61a2.692,2.692,0,0,1-2.692,2.693" transform="translate(-746.553 -770.134)" fill="#41af8f"/>
        <path id="Path_78357" data-name="Path 78357" d="M1111.068,1188.86h0a2.28,2.28,0,0,1-2.28-2.28v-13.817a2.28,2.28,0,1,1,4.56,0v13.817a2.28,2.28,0,0,1-2.28,2.28" transform="translate(-764.253 -806.778)" fill="#2b478b"/>
        <path id="Path_78358" data-name="Path 78358" d="M1387.738,1325.605s1.569,4.83,1.433,5.935a21.5,21.5,0,0,1-1.823,5.846c-.7.966-1.051-3.935-1.607-4.672s-.115,1.845-.507,2.084-1.211-1.9-1.562-2.655.86-3.537.863-5.477,3.2-1.061,3.2-1.061" transform="translate(-953.678 -913.562)" fill="#ffb27d"/>
        <path id="Path_78359" data-name="Path 78359" d="M1278.135,1186.044a6.858,6.858,0,0,1,10.333-6.456c.1.059.194.119.29.181,7.112,4.578,22.461,25.941,23.516,28.081s4.174,19.166,4.174,19.166-3.853,1.409-5.654-.053c0,0-6.249-16.146-7.172-16.954s-24.992-14.311-25.2-19.374c-.054-1.339-.162-2.948-.291-4.591" transform="translate(-880.963 -812.372)" fill="#233862"/>
        <path id="Path_78360" data-name="Path 78360" d="M1393.354,1602.223s2.868,2.617,2.308,4.477-3.148,3.1-3.5,5.372-1.749,3.512-3.008,3.512h-6s-.927-1.6,1.311-2.081,3.082-3.153,2.942-5.633a43.7,43.7,0,0,1,.21-5.785l4.756-1.1Z" transform="translate(-953.234 -1103.508)"/>
        <path id="Path_78361" data-name="Path 78361" d="M1265.778,1621.643s.515,5.956-.745,6.576l-16.113-.033s0-1.86,2.588-2.273,7.135-1.929,7.9-5.3,6.365,1.033,6.365,1.033" transform="translate(-860.842 -1116.159)"/>
        <path id="Path_78362" data-name="Path 78362" d="M1259.392,1352.776s.85,10.441,1.849,22.991c1.358,17.049,2.99,37.99,3.152,41.957.279,6.889,1.4,17.908,1.4,17.908s2.657,2.618,7.973,1.515a177.778,177.778,0,0,0,6.092-32.374c.021-.273.043-.548.064-.822,1.259-16.943,3.217-52.621,3.217-52.621Z" transform="translate(-868.059 -931.429)" fill="#a6d4e8"/>
        <path id="Path_78363" data-name="Path 78363" d="M1259.392,1352.776s.85,10.441,1.849,22.991l18.617,29.006c.021-.273.043-.548.064-.822,1.259-16.943,3.217-52.621,3.217-52.621Z" transform="translate(-868.059 -931.429)" fill="#8bc4d8"/>
        <path id="Path_78364" data-name="Path 78364" d="M1271.882,1344.85s15.319,37.812,25.391,55.582,13.22,22.729,13.22,22.729,5.771-2.273,6.3-3.823c0,0-3.852-34.3-10.6-42.668-3.812-4.725-8.289-18.906-8.5-23.865s-1.364-14.774-1.364-14.774Z" transform="translate(-876.668 -922.264)" fill="#a6d4e8"/>
        <path id="Path_78365" data-name="Path 78365" d="M1278.29,1149.814s-10.263,5.205-16.274,3.469a14.1,14.1,0,0,1,3.98-3.316c-.23-1.2-.412-2.232-.522-3.113a28.947,28.947,0,0,1-.316-3.185l3.936-3.224,3.731-3.084a15.281,15.281,0,0,0,5.465,12.453" transform="translate(-869.868 -783.947)" fill="#ffb27d"/>
        <path id="Path_78366" data-name="Path 78366" d="M1277,1223.2a42.273,42.273,0,0,1-12.658,5.453c-5.416,1.284-12.071.906-14.3,1.245a.926.926,0,0,1-.65-.165c-.175-.089-1.157-6.7-2.142-15.033-.043-.335-.089-.674-.108-1.013l-.015-.113c-.383-3.259-.718-6.683-1.009-10.114-.237-2.671-.433-5.312-.568-7.792-.171-3.1-.242-5.954-.171-8.3.031-1.072.094-2.035.19-2.872a20.435,20.435,0,0,1,5.1-10.941l1.815-2.065a9.95,9.95,0,0,0,6.279-1.6c2.216-1.459,4.608-3.028,5.06-2.766,3.4,1.859,6.162,6.674,8.137,13.035a72.539,72.539,0,0,1,2.558,12.214c.179,1.366.331,2.766.447,4.16.023.258.042.516.063.77.267,3.813.7,7.386,1.185,10.577.649,4.3,1.388,7.909,1.91,10.448.262,1.293.462,2.292.581,3.007.106.625-1.145,1.52-1.7,1.867" transform="translate(-858.385 -804.442)" fill="#2b478b"/>
        <path id="Path_78367" data-name="Path 78367" d="M1279.929,1147.437s-2.525,4.826-7.484,6.26a28.957,28.957,0,0,1-.316-3.185l3.935-3.224Z" transform="translate(-876.838 -790.789)" fill="#ed985f"/>
        <path id="Path_78368" data-name="Path 78368" d="M1261.646,1121.433s9.918,1.421,10.725-4.675,2.631-10.018-3.667-11.183-7.839,1-8.611,2.974-1.006,12.357,1.553,12.884" transform="translate(-868.181 -761.813)" fill="#ffb27d"/>
        <path id="Path_78369" data-name="Path 78369" d="M1268.3,1096.42c.088-.1.293-.192.753-.226a1.872,1.872,0,0,0-.865-.225,2.318,2.318,0,0,0-1.58-2.019,1.382,1.382,0,0,1,.69.983c-1.3-1.286-4.058-2.186-11.622-1.438-9.969.986-6.552,7.314-5.244,8.05s4.52-1.417,6.932-1.274,2.939,3.614,3.766,4.076.488-.377,1.584-.9,1.237,1.308.941,2.505,1.255,2.738,1.255,2.738l1.5-1.684c1.5-1.684,2.81-8.714,2.083-10.193-.064-.131-.128-.263-.193-.4" transform="translate(-860.756 -753.525)" fill="#2c3a64"/>
        <path id="Path_78370" data-name="Path 78370" d="M1262.782,1232.887s-8.362,6.363-17.226,7.757c-.171-3.1-.242-5.954-.171-8.3Z" transform="translate(-858.386 -849.416)" fill="#233862"/>
        <path id="Path_78371" data-name="Path 78371" d="M1115.853,1195.586c-.132-.141-1.837-5.842-4.785-5.426-1.924.271-5.068,1.385-4.233,3.92.328,1,6.19,4.429,6.19,4.429Z" transform="translate(-762.811 -820.325)" fill="#ffb27d"/>
        <path id="Path_78372" data-name="Path 78372" d="M1181.452,1188.229a6.858,6.858,0,0,1-.718,12.163c-.1.045-.209.089-.315.131-7.851,3.15-34.155,3.3-36.512,2.918s-18.044-7.692-18.044-7.692,1.081-3.957,3.317-4.579c0,0,16.783,4.252,17.976,3.966s26.137-12.092,30.385-9.328c1.123.731,2.5,1.574,3.912,2.421" transform="translate(-776.023 -817.052)" fill="#2b478b"/>
        <path id="Path_78373" data-name="Path 78373" d="M1824.242,585.169H1803.3a1.6,1.6,0,0,1,0-3.2h20.939a1.6,1.6,0,1,1,0,3.2" transform="translate(-1241.857 -401.133)" fill="#ebf3fa"/>
        <path id="Path_78374" data-name="Path 78374" d="M1824.242,605.289H1803.3a1.6,1.6,0,0,1,0-3.2h20.939a1.6,1.6,0,1,1,0,3.2" transform="translate(-1241.857 -415.001)" fill="#ebf3fa"/>
        <path id="Path_78375" data-name="Path 78375" d="M1824.242,625.929H1803.3a1.6,1.6,0,0,1,0-3.2h20.939a1.6,1.6,0,1,1,0,3.2" transform="translate(-1241.857 -429.228)" fill="#ebf3fa"/>
        <path id="Path_78376" data-name="Path 78376" d="M1495.074,1109.492h-49.849a2.122,2.122,0,1,1,0-4.244h49.849a2.122,2.122,0,1,1,0,4.244" transform="translate(-994.686 -761.813)" fill="#ebf3fa"/>
        <path id="Path_78377" data-name="Path 78377" d="M710.885,640.783H661.036a2.122,2.122,0,0,1,0-4.244h49.849a2.122,2.122,0,1,1,0,4.244" transform="translate(-454.169 -438.747)" fill="#ebf3fa"/>
        <path id="Path_78378" data-name="Path 78378" d="M1495.074,1177.238h-49.849a2.122,2.122,0,1,1,0-4.244h49.849a2.122,2.122,0,1,1,0,4.244" transform="translate(-994.686 -808.508)" fill="#ebf3fa"/>
        <path id="Path_78379" data-name="Path 78379" d="M1473.4,1143.365h-59.62a2.122,2.122,0,1,1,0-4.244h59.62a2.122,2.122,0,1,1,0,4.244" transform="translate(-973.01 -785.161)" fill="#ebf3fa"/>
        <path id="Path_78380" data-name="Path 78380" d="M712.573,683.723H684.445a1.621,1.621,0,0,1-1.616-1.616v-1.012a1.62,1.62,0,0,1,1.616-1.616h28.127a1.62,1.62,0,0,1,1.615,1.616v1.012a1.621,1.621,0,0,1-1.615,1.616" transform="translate(-470.653 -468.344)" fill="#ebf3fa"/>
        <path id="Path_78381" data-name="Path 78381" d="M652.853,681.6a2.122,2.122,0,1,1,2.122,2.122,2.122,2.122,0,0,1-2.122-2.122" transform="translate(-449.991 -468.344)" fill="#ebf3fa"/>
        <path id="Path_78382" data-name="Path 78382" d="M717.911,710.9H684.581a1.756,1.756,0,0,1-1.751-1.751v-.742a1.756,1.756,0,0,1,1.751-1.751h33.331a1.756,1.756,0,0,1,1.751,1.751v.742a1.756,1.756,0,0,1-1.751,1.751" transform="translate(-470.653 -487.077)" fill="#ebf3fa"/>
        <path id="Path_78383" data-name="Path 78383" d="M652.853,708.778a2.122,2.122,0,1,1,2.122,2.122,2.122,2.122,0,0,1-2.122-2.122" transform="translate(-449.991 -487.076)" fill="#ebf3fa"/>
        <path id="Path_78384" data-name="Path 78384" d="M712.573,740.4H684.445a1.62,1.62,0,0,1-1.616-1.615v-1.013a1.621,1.621,0,0,1,1.616-1.616h28.127a1.621,1.621,0,0,1,1.615,1.616v1.013a1.62,1.62,0,0,1-1.615,1.615" transform="translate(-470.653 -507.41)" fill="#ebf3fa"/>
        <path id="Path_78385" data-name="Path 78385" d="M652.853,738.279a2.122,2.122,0,1,1,2.122,2.122,2.122,2.122,0,0,1-2.122-2.122" transform="translate(-449.991 -507.41)" fill="#ebf3fa"/>
        <path id="Path_78386" data-name="Path 78386" d="M924.317,675.384a7.643,7.643,0,0,1-1.122.07,7.45,7.45,0,1,1,1.122-.07M918.912,663.5a6.253,6.253,0,1,0,8.843.1,6.26,6.26,0,0,0-8.843-.1" transform="translate(-631.232 -455.252)" fill="#739af0"/>
        <rect id="Rectangle_22782" data-name="Rectangle 22782" width="10.216" height="1.233" transform="matrix(0.715, -0.699, 0.699, 0.715, 279.398, 224.216)" fill="#739af0"/>
        <path id="Path_78387" data-name="Path 78387" d="M891.681,717.5h0a1.1,1.1,0,0,1,.018-1.557l4.3-4.2a1.1,1.1,0,0,1,1.539,1.575l-4.3,4.205a1.1,1.1,0,0,1-1.556-.018" transform="translate(-614.392 -490.366)" fill="#739af0"/>
        <path id="Path_78388" data-name="Path 78388" d="M1687.458,1253.062h0a2.459,2.459,0,0,1-2.239-1.542L1627.7,1076.39a1.154,1.154,0,0,1,1.219-1.562,2.459,2.459,0,0,1,2.238,1.542l57.519,175.131a1.154,1.154,0,0,1-1.219,1.562" transform="translate(-1121.872 -740.845)" fill="#2a4e96"/>
        <path id="Path_78389" data-name="Path 78389" d="M1836.642,1252.2h0a2.458,2.458,0,0,1-2.238-1.542l-57.519-175.131a1.154,1.154,0,0,1,1.219-1.562,2.458,2.458,0,0,1,2.238,1.542l57.519,175.131a1.154,1.154,0,0,1-1.219,1.562" transform="translate(-1224.7 -740.251)" fill="#2a4e96"/>
        <path id="Path_78390" data-name="Path 78390" d="M1700.63,1151.026l-46.55.269a2.328,2.328,0,0,1-2.113-1.455,1.091,1.091,0,0,1,1.151-1.474l46.55-.27a2.329,2.329,0,0,1,2.113,1.455,1.091,1.091,0,0,1-1.151,1.474" transform="translate(-1138.601 -791.347)" fill="#2a4e96"/>
        <path id="Path_78391" data-name="Path 78391" d="M1732.95,1249.43l-46.55.269a2.328,2.328,0,0,1-2.113-1.455,1.091,1.091,0,0,1,1.151-1.474l46.55-.27a2.329,2.329,0,0,1,2.113,1.455,1.091,1.091,0,0,1-1.151,1.474" transform="translate(-1160.878 -859.174)" fill="#2a4e96"/>
        <path id="Path_78392" data-name="Path 78392" d="M1764.077,1344.2l-46.55.27a2.328,2.328,0,0,1-2.113-1.455,1.091,1.091,0,0,1,1.151-1.474l46.55-.269a2.329,2.329,0,0,1,2.113,1.455,1.091,1.091,0,0,1-1.15,1.474" transform="translate(-1182.333 -924.499)" fill="#2a4e96"/>
        <path id="Path_78393" data-name="Path 78393" d="M1799.12,1450.9l-46.55.269a2.328,2.328,0,0,1-2.113-1.455,1.091,1.091,0,0,1,1.151-1.475l46.55-.269a2.329,2.329,0,0,1,2.113,1.456,1.091,1.091,0,0,1-1.151,1.474" transform="translate(-1206.487 -998.042)" fill="#2a4e96"/>
        <path id="Path_78394" data-name="Path 78394" d="M1835.8,1562.576l-46.551.269a2.328,2.328,0,0,1-2.113-1.455,1.092,1.092,0,0,1,1.151-1.475l46.55-.269a2.328,2.328,0,0,1,2.113,1.455,1.091,1.091,0,0,1-1.15,1.474" transform="translate(-1231.767 -1075.015)" fill="#2a4e96"/>
        <path id="Path_78395" data-name="Path 78395" d="M1617.966,810.212h0a.678.678,0,0,1-.792-.535l-.745-3.848a.676.676,0,0,1,1.327-.257l.745,3.848a.678.678,0,0,1-.535.792" transform="translate(-1114.146 -554.878)" fill="#2a4e96"/>
        <rect id="Rectangle_22783" data-name="Rectangle 22783" width="0.465" height="5.665" transform="matrix(0.982, -0.19, 0.19, 0.982, 501.335, 243.712)" fill="#2a4e96"/>
        <path id="Path_78396" data-name="Path 78396" d="M1601.258,666.619s-.44-3.831-1.368-5.295-4.437-2.4-4.66-2.19c-.687.665,2.03,3.018,2.136,3.885s-1.379.268-.666,1.958a13.211,13.211,0,0,0,2.588,3.279Z" transform="translate(-1099.465 -454.3)" fill="#ffb27d"/>
        <path id="Path_78397" data-name="Path 78397" d="M1606.374,679.73c1.28-1,1.552-.985,1.552-.985s11.837,10.254,12.989,11.167,18.93,6.069,18.93,6.069l2.825,14.452s-24.055-11.619-26.93-13.99c-4.75-3.918-10.744-14.884-10.744-14.884a4.536,4.536,0,0,1,1.377-1.829" transform="translate(-1106.274 -467.838)" fill="#7abae2"/>
        <path id="Path_78398" data-name="Path 78398" d="M1686.551,1124.286s-.2,4.939-1.152,6.14l-13.194.076a2.064,2.064,0,0,1,1.972-2.006,8.851,8.851,0,0,0,6.408-5.057c1.47-3.205,5.966.846,5.966.846" transform="translate(-1152.598 -773.502)" fill="#b0b8c1"/>
        <path id="Path_78399" data-name="Path 78399" d="M1767.261,1122.158s.92,6.562-.329,6.676c-.166.015-5.317.1-7.548.135-2.623.044-6.933-.048-6.933-.048a.686.686,0,0,1-.621-1.032,2.764,2.764,0,0,1,1.982-1.271c2.3-.443,6.127-2.13,7.469-5.2,1.413-3.23,5.979.741,5.979.741" transform="translate(-1207.415 -772.085)" fill="#b0b8c1"/>
        <path id="Path_78400" data-name="Path 78400" d="M1696.3,882.307s3.669,12.838,14.184,35.131,10.969,33.037,10.969,33.037a9.241,9.241,0,0,0,3.7.338,9.953,9.953,0,0,0,3.9-1.263s-.681-26.535-5.647-37.785-5.979-42.036-5.979-42.036Z" transform="translate(-1169.203 -599.477)" fill="#d19f80"/>
        <path id="Path_78401" data-name="Path 78401" d="M1677.327,874.66a320.154,320.154,0,0,0,3.147,44.286c3.44,24.407,1.831,35.758,1.831,35.758s.912.663,3.716.653a8.335,8.335,0,0,0,4.964-1.369s4.923-24.416,3.511-36.633,6.741-41.92,6.741-41.92Z" transform="translate(-1156.125 -602.876)" fill="#d4ae90"/>
        <path id="Path_78402" data-name="Path 78402" d="M1708.576,703.154l-3.885,2.878-5.615-1.182c.078-.512.448-2.634.785-4.557.021-.113.041-.226.06-.338.289-1.636.539-3.04.539-3.04l5.244-2.614,1.955-.975c-.005.034-.152,1.815-.172,2.075a16.789,16.789,0,0,0,1.088,7.752" transform="translate(-1171.12 -477.888)" fill="#ffb27d"/>
        <path id="Path_78403" data-name="Path 78403" d="M1703.114,770.227c-1.27,5.81-28.459,3.26-28.1-.287.014-.118.084-1.76.182-3.972.207-4.787.521-12.265.561-12.85,0-.01,0-.02,0-.03.49-4.939.959-9.769.99-12.924a44.768,44.768,0,0,1,.905-8.073c.463-2.344,1.03-4.473,1.523-6.131a6.779,6.779,0,0,1,3.972-4.354,5.9,5.9,0,0,1,.658-.23c3.2-.929,7.628-2.077,8.827-1.726,3.249.956,5.665,6.678,7.374,13.971,3.2,13.65,3.939,32.819,3.108,36.606" transform="translate(-1154.529 -495.987)" fill="#8dcbfa"/>
        <path id="Path_78404" data-name="Path 78404" d="M1708.838,697.643c-1.151,2.2-5.443,4.109-7.233,4.81.021-.113.041-.227.06-.337.289-1.636.539-3.04.539-3.04l5.244-2.614c1.159-.018,1.865.275,1.39,1.182" transform="translate(-1172.863 -480.049)" fill="#fca56b"/>
        <path id="Path_78405" data-name="Path 78405" d="M1692.707,669.344s9.461,2.951,11.209-2.969,4.146-9.527-1.822-11.661-7.813-.224-8.877,1.611-2.927,12.1-.51,13.02" transform="translate(-1165.914 -450.625)" fill="#ffb27d"/>
        <path id="Path_78406" data-name="Path 78406" d="M1696.2,648.584s.6,6.89,2.028,6.59,2.717-.521,2.509,1.556-2.185,4.475,2.206,4.842,10.7-10.957,9.5-13.1c-3.48-6.187-21.271-7.435-16.24.112" transform="translate(-1168.521 -443.454)" fill="#163560"/>
        <path id="Path_78407" data-name="Path 78407" d="M1675.6,818.981c.206-4.787.521-12.265.561-12.85,0-.01,0-.02,0-.03l16.062-9.6s.622,22.42-16.626,22.484" transform="translate(-1154.941 -549.001)" fill="#7abae2"/>
        <path id="Path_78408" data-name="Path 78408" d="M1616.789,798.193a42.468,42.468,0,0,0-3.883-2.4,8.156,8.156,0,0,0-2.743-.241c-.094.16-.372.649-.018.815s.8.107.664.223-1.467-.519-1.775.161-.579,3.012.987,3.719,5.43.068,5.709.149c2.363.687,1.059-2.426,1.059-2.426" transform="translate(-1108.894 -548.31)" fill="#ffb27d"/>
        <path id="Path_78409" data-name="Path 78409" d="M1632.139,758.123s15.932,2.708,17.344,2.021c2.253-1.1-.874-17.261-.874-17.261s-.134-3.663,4.145-4.528c3.719-.751,7.306,2.035,7.306,2.035s3.263,2.92,2.846,6.158c-.924,7.179-2.362,21.778-7.163,24.016-6.193,2.886-24.112-8-24.112-8a3.132,3.132,0,0,1-.512-2.087,4.866,4.866,0,0,1,1.019-2.349" transform="translate(-1124.274 -508.837)" fill="#8dcbfa"/>
        <path id="Path_78410" data-name="Path 78410" d="M1597.26,671.457s-1.02-2.027-1.183-2.408.234-.3.626-.086.927,1.389,1.533,1.247c.48-.113-.976,1.247-.976,1.247" transform="translate(-1100.1 -460.972)" fill="#ffb27d"/>
        <path id="Path_78411" data-name="Path 78411" d="M545.472,1351.65l-.745-1.845a5.233,5.233,0,0,0-4.853-3.274H526.13v45.955h56.857v-37.234H550.812a5.759,5.759,0,0,1-5.34-3.6" transform="translate(-362.645 -928.122)" fill="#739af0"/>
        <path id="Path_78412" data-name="Path 78412" d="M553.73,1417.829v-3.312l11.619-5.09v3.385l-8.114,3.337,8.114,3.337v3.433Z" transform="translate(-381.669 -971.474)" fill="#fff"/>
        <path id="Path_78413" data-name="Path 78413" d="M606.39,1396.68h3.1l-10.634,22.229h-3.1Z" transform="translate(-410.635 -962.688)" fill="#fff"/>
        <path id="Path_78414" data-name="Path 78414" d="M655.735,1414.516v3.313l-11.619,5.089v-3.385l8.114-3.336-8.114-3.337v-3.433Z" transform="translate(-443.969 -971.474)" fill="#fff"/>
      </g>
    </g>
  </g>
</svg>
