<svg xmlns="http://www.w3.org/2000/svg" width="38" height="38" viewBox="0 0 38 38">
  <g id="Group_46" data-name="Group 46" transform="translate(-383 -8430)">
    <g id="XMLID_798_" transform="translate(361.819 8440)">
      <path id="XMLID_799_" d="M45.527,1.762A7.116,7.116,0,0,0,40.686,0a7.805,7.805,0,0,0-5.613,2.062,5.956,5.956,0,0,0-1.892,4.224,3.933,3.933,0,0,0,2.248,3.931.776.776,0,0,0,.283.055.622.622,0,0,0,.614-.482c.048-.17.158-.591.205-.773a.7.7,0,0,0-.2-.784,2.426,2.426,0,0,1-.6-1.708A4.409,4.409,0,0,1,40.408,2.2c2.411,0,3.908,1.306,3.908,3.407a6.811,6.811,0,0,1-.844,3.459,2.494,2.494,0,0,1-2.065,1.377,1.4,1.4,0,0,1-1.089-.474A1.15,1.15,0,0,1,40.1,8.929c.107-.433.254-.886.4-1.323A7.858,7.858,0,0,0,41,5.452a1.6,1.6,0,0,0-1.652-1.72A2.517,2.517,0,0,0,37.106,6.5a3.948,3.948,0,0,0,.308,1.548c-.158.639-1.1,4.435-1.277,5.151-.1.418-.724,3.719.3,3.982,1.155.3,2.187-2.919,2.293-3.282.085-.3.383-1.413.566-2.1a3.589,3.589,0,0,0,2.329.858,5.285,5.285,0,0,0,4.17-1.988,7.725,7.725,0,0,0,1.568-4.88A5.507,5.507,0,0,0,45.527,1.762Z" transform="translate(0 0)" fill="#004e8e"/>
    </g>
    <g id="Ellipse_18" data-name="Ellipse 18" transform="translate(383 8430)" fill="none" stroke="#004e8e" stroke-width="1">
      <circle cx="19" cy="19" r="19" stroke="none"/>
      <circle cx="19" cy="19" r="18.5" fill="none"/>
    </g>
  </g>
</svg>
