<svg xmlns="http://www.w3.org/2000/svg" width="13.852" height="13.928" viewBox="0 0 13.852 13.928">
  <g id="Group_39873" data-name="Group 39873" transform="translate(-282.552 -791.361)">
    <g id="arrow-down-sign-to-navigate" transform="translate(288.466 805.289) rotate(-90)">
      <path id="Path_36455" data-name="Path 36455" d="M6.964,7.939a.972.972,0,0,1-.69-.286L.286,1.665A.975.975,0,0,1,1.665.286l5.3,5.3,5.3-5.3a.975.975,0,0,1,1.379,1.379L7.653,7.654A.972.972,0,0,1,6.964,7.939Z" transform="translate(0 0)" fill="#053d87"/>
    </g>
    <path id="Path_36455-2" data-name="Path 36455" d="M6.964,7.939a.972.972,0,0,1-.69-.286L.286,1.665A.975.975,0,0,1,1.665.286l5.3,5.3,5.3-5.3a.975.975,0,0,1,1.379,1.379L7.653,7.654A.972.972,0,0,1,6.964,7.939Z" transform="translate(282.552 805.289) rotate(-90)" fill="#053d87"/>
  </g>
</svg>
