<svg id="Group_39854" data-name="Group 39854" xmlns="http://www.w3.org/2000/svg" xmlns:xlink="http://www.w3.org/1999/xlink" width="525.41" height="425.213" viewBox="0 0 525.41 425.213">
  <defs>
    <clipPath id="clip-path">
      <rect id="Rectangle_22769" data-name="Rectangle 22769" width="525.41" height="425.213" fill="none"/>
    </clipPath>
    <clipPath id="clip-path-2">
      <rect id="Rectangle_22768" data-name="Rectangle 22768" width="525.411" height="425.213" fill="none"/>
    </clipPath>
    <clipPath id="clip-path-3">
      <rect id="Rectangle_22731" data-name="Rectangle 22731" width="52.463" height="52.463" fill="none"/>
    </clipPath>
    <clipPath id="clip-path-4">
      <rect id="Rectangle_22732" data-name="Rectangle 22732" width="80.037" height="80.035" fill="none"/>
    </clipPath>
    <clipPath id="clip-path-5">
      <rect id="Rectangle_22733" data-name="Rectangle 22733" width="41.734" height="41.734" fill="none"/>
    </clipPath>
    <clipPath id="clip-path-6">
      <rect id="Rectangle_22734" data-name="Rectangle 22734" width="111.292" height="111.292" fill="none"/>
    </clipPath>
  </defs>
  <g id="Group_39853" data-name="Group 39853" clip-path="url(#clip-path)">
    <g id="Group_39852" data-name="Group 39852" transform="translate(0 0)">
      <g id="Group_39851" data-name="Group 39851" clip-path="url(#clip-path-2)">
        <g id="Group_39841" data-name="Group 39841" transform="translate(472.948 256.029)" opacity="0.4">
          <g id="Group_39840" data-name="Group 39840">
            <g id="Group_39839" data-name="Group 39839" clip-path="url(#clip-path-3)">
              <path id="Path_78211" data-name="Path 78211" d="M1539.833,831.414a26.232,26.232,0,1,1-26.232-26.232,26.232,26.232,0,0,1,26.232,26.232" transform="translate(-1487.37 -805.182)" fill="#e5e5ff"/>
            </g>
          </g>
        </g>
        <g id="Group_39844" data-name="Group 39844" transform="translate(27.501 59.144)" opacity="0.4">
          <g id="Group_39843" data-name="Group 39843">
            <g id="Group_39842" data-name="Group 39842" clip-path="url(#clip-path-4)">
              <path id="Path_78212" data-name="Path 78212" d="M126.507,186a40.018,40.018,0,1,1-40.019,40.019A40.018,40.018,0,0,1,126.507,186" transform="translate(-86.488 -185.997)" fill="#e5e5ff"/>
            </g>
          </g>
        </g>
        <g id="Group_39847" data-name="Group 39847" transform="translate(185.071 18.958)" opacity="0.4">
          <g id="Group_39846" data-name="Group 39846">
            <g id="Group_39845" data-name="Group 39845" clip-path="url(#clip-path-5)">
              <path id="Path_78213" data-name="Path 78213" d="M622.375,73.021a20.861,20.861,0,1,1-26.948-12.007,20.861,20.861,0,0,1,26.948,12.007" transform="translate(-582.03 -59.623)" fill="#e5e5ff"/>
            </g>
          </g>
        </g>
        <path id="Path_78214" data-name="Path 78214" d="M499.906,50.139a25.057,25.057,0,0,1-3.872-.3l.123-.785a24.3,24.3,0,0,0,3.75.293h.145l0,.795Zm4.171-.352L503.944,49a24.427,24.427,0,0,0,3.786-.961l.256.752a25.207,25.207,0,0,1-3.91.993m-11.965-.894a25.279,25.279,0,0,1-3.721-1.557l.364-.706a24.518,24.518,0,0,0,3.6,1.508Zm19.577-1.7-.373-.7a24.258,24.258,0,0,0,3.291-2.1l.481.633a25.094,25.094,0,0,1-3.4,2.171m-26.723-1.987a25.111,25.111,0,0,1-3.04-2.65L482.5,42a24.287,24.287,0,0,0,2.943,2.566Zm33.128-2.875-.576-.548a24.341,24.341,0,0,0,2.452-3.04l.657.448a25.172,25.172,0,0,1-2.532,3.139m-38.741-2.882a25.111,25.111,0,0,1-2.039-3.48l.716-.346A24.279,24.279,0,0,0,480,38.995Zm43.272-3.762-.72-.337a24.531,24.531,0,0,0,1.37-3.659l.764.218a25.311,25.311,0,0,1-1.414,3.778m-46.771-3.478a25.077,25.077,0,0,1-.843-3.945l.788-.1a24.331,24.331,0,0,0,.817,3.82Zm48.978-4.255-.789-.093a24.278,24.278,0,0,0,.167-2.83c0-.357-.008-.718-.024-1.074l.794-.035c.016.367.025.741.025,1.109a25.042,25.042,0,0,1-.172,2.923m-49.223-3.7-.795-.026a25.086,25.086,0,0,1,.456-4.009l.78.153a24.3,24.3,0,0,0-.441,3.881M523.7,20.084a24.585,24.585,0,0,0-1.1-3.747l.742-.285a25.433,25.433,0,0,1,1.141,3.869Zm-46.588-3.466-.746-.276a25.332,25.332,0,0,1,1.7-3.659l.692.391a24.534,24.534,0,0,0-1.644,3.544m45.411-.467a24.512,24.512,0,0,0-1.713-3.51l.684-.4a25.34,25.34,0,0,1,1.768,3.625Zm-41.58-6.312-.621-.5a25.058,25.058,0,0,1,2.765-2.936l.533.59a24.271,24.271,0,0,0-2.677,2.843m37.614-.388a24.28,24.28,0,0,0-2.738-2.784l.52-.6a25.044,25.044,0,0,1,2.828,2.875ZM486.716,4.621l-.431-.668a25.207,25.207,0,0,1,3.555-1.9l.318.728a24.429,24.429,0,0,0-3.443,1.845m25.949-.264a24.524,24.524,0,0,0-3.479-1.777l.3-.735a25.343,25.343,0,0,1,3.592,1.835ZM493.852,1.5l-.2-.77A25.04,25.04,0,0,1,497.628.04l.072.791a24.273,24.273,0,0,0-3.848.669m11.616-.12a24.322,24.322,0,0,0-3.862-.59L501.663,0a25.139,25.139,0,0,1,3.988.609Z" transform="translate(-323.835 0.001)" fill="#9192ff"/>
        <path id="Path_78215" data-name="Path 78215" d="M1156.2,667.582l-.014-.795c1.317-.023,2.646-.077,3.952-.16l.05.793c-1.317.084-2.66.139-3.989.162m-3.992-.023c-1.324-.038-2.665-.108-3.985-.208l.06-.792c1.308.1,2.637.168,3.949.206Zm11.957-.486-.088-.79c1.306-.145,2.624-.323,3.919-.529l.125.785c-1.307.208-2.638.387-3.956.534m-19.915-.116c-1.312-.161-2.641-.356-3.95-.58l.134-.784c1.3.222,2.613.415,3.912.575Zm27.8-1.137-.162-.778c1.289-.268,2.585-.57,3.852-.9l.2.77c-1.279.329-2.587.634-3.888.9m-35.664-.208c-1.294-.285-2.6-.6-3.877-.951l.208-.768c1.266.343,2.559.659,3.841.942Zm43.393-1.785-.235-.759c1.255-.388,2.517-.811,3.749-1.257l.271.747c-1.244.45-2.517.877-3.785,1.268m-51.1-.3c-1.26-.406-2.532-.849-3.779-1.316l.279-.744c1.235.463,2.495.9,3.743,1.3Zm58.594-2.412-.306-.734c1.205-.5,2.419-1.04,3.606-1.6l.34.719c-1.2.567-2.423,1.111-3.64,1.617m-66.084-.4c-1.22-.525-2.443-1.087-3.634-1.668l.348-.714c1.18.576,2.392,1.132,3.6,1.652Zm73.285-3.005-.373-.7c1.156-.615,2.314-1.266,3.442-1.936l.406.684c-1.138.676-2.307,1.333-3.474,1.954m-80.47-.5c-1.161-.636-2.324-1.31-3.459-2l.414-.678c1.124.686,2.277,1.354,3.427,1.984Zm87.325-3.57-.438-.664c1.1-.724,2.19-1.481,3.247-2.251l.468.642c-1.067.777-2.169,1.542-3.277,2.273m-94.144-.6c-1.095-.742-2.189-1.522-3.254-2.318l.477-.637c1.054.789,2.139,1.562,3.223,2.3Zm100.588-4.1-.5-.62c1.022-.821,2.039-1.678,3.023-2.547l.526.6c-.993.877-2.02,1.742-3.052,2.571m-106.983-.684c-1.024-.844-2.04-1.722-3.021-2.612l.534-.589c.971.881,1.978,1.751,2.992,2.587Zm112.964-4.6-.553-.571c.942-.914,1.875-1.863,2.773-2.82l.579.544c-.906.966-1.848,1.924-2.8,2.847m-118.879-.764c-.942-.937-1.871-1.906-2.763-2.881l.586-.537c.884.966,1.8,1.926,2.737,2.854Zm124.342-5.058-.6-.516c.855-1,1.7-2.033,2.5-3.068l.628.488c-.811,1.044-1.659,2.086-2.522,3.1m-129.729-.83c-.849-1.019-1.683-2.071-2.48-3.125l.634-.479c.79,1.045,1.616,2.086,2.457,3.1Zm134.627-5.479-.65-.457c.757-1.076,1.5-2.183,2.2-3.29l.67.426c-.709,1.117-1.457,2.234-2.221,3.321m-139.436-.884c-.747-1.091-1.479-2.216-2.175-3.342l.676-.418c.689,1.115,1.415,2.229,2.155,3.311Zm143.721-5.86-.69-.394c.651-1.139,1.284-2.311,1.882-3.484l.708.361c-.6,1.184-1.243,2.367-1.9,3.517m-147.912-.922c-.642-1.158-1.265-2.345-1.85-3.53l.712-.352c.581,1.173,1.2,2.349,1.833,3.5Zm151.545-6.2-.725-.328c.543-1.2,1.063-2.429,1.545-3.648l.739.293c-.487,1.231-1.012,2.47-1.56,3.683m-155.077-.942c-.53-1.213-1.038-2.453-1.508-3.686l.743-.284c.466,1.221.969,2.449,1.494,3.651Zm158.021-6.5-.752-.257c.424-1.24.824-2.509,1.19-3.771l.763.221c-.369,1.275-.773,2.555-1.2,3.807m-160.865-.952c-.415-1.262-.8-2.548-1.156-3.821l.766-.212c.349,1.262.734,2.535,1.145,3.785Zm163.085-6.714-.773-.185c.3-1.273.583-2.574.828-3.867l.781.148c-.247,1.3-.528,2.618-.836,3.9m-165.214-.979c-.291-1.287-.557-2.6-.789-3.913l.783-.139c.23,1.3.493,2.6.781,3.877Zm166.7-6.863-.787-.111c.183-1.3.337-2.617.459-3.928l.791.074c-.123,1.323-.28,2.657-.464,3.965m-168.091-1c-.169-1.31-.309-2.646-.417-3.97l.792-.065c.107,1.312.246,2.635.413,3.933Zm168.833-6.952-.794-.037c.061-1.306.092-2.636.092-3.953h.795c0,1.329-.031,2.672-.092,3.99m-169.48-1c-.034-.987-.052-1.992-.052-2.987q0-.5.006-1.005l.8.01q-.006.5-.006,1c0,.986.017,1.982.051,2.959Zm168.755-4.94c-.03-1.314-.091-2.644-.182-3.95l.793-.055c.092,1.32.153,2.661.184,3.988Zm-167.868-2.994-.794-.046c.077-1.326.186-2.665.325-3.978l.791.083c-.137,1.3-.245,2.627-.321,3.941m167.32-4.893c-.152-1.3-.337-2.618-.55-3.916l.784-.129c.215,1.31.4,2.64.555,3.953Zm-166.494-2.969-.785-.12c.2-1.311.435-2.634.7-3.931l.779.157c-.26,1.285-.491,2.595-.691,3.893m165.208-4.832c-.273-1.281-.582-2.575-.918-3.846l.769-.2c.338,1.283.65,2.59.926,3.883Zm-163.645-2.918-.771-.194c.323-1.286.682-2.58,1.065-3.847l.76.231c-.38,1.255-.735,2.537-1.055,3.811m161.628-4.726c-.395-1.253-.825-2.511-1.278-3.742l.746-.274c.457,1.242.892,2.513,1.29,3.778Zm-159.335-2.851-.749-.266c.445-1.252.925-2.51,1.429-3.737l.735.3c-.5,1.216-.974,2.462-1.415,3.7m156.607-4.56c-.509-1.2-1.054-2.413-1.622-3.6l.717-.344c.573,1.195,1.125,2.417,1.638,3.631Zm-153.6-2.771-.721-.336c.559-1.2,1.157-2.4,1.776-3.583l.7.37c-.612,1.167-1.2,2.361-1.758,3.549M1228.7,542.97c-.62-1.15-1.277-2.3-1.955-3.431l.681-.41c.684,1.137,1.348,2.3,1.974,3.463ZM1082.2,540.3l-.686-.4c.671-1.143,1.379-2.286,2.1-3.4l.666.434c-.718,1.1-1.419,2.234-2.084,3.366m142.436-4.1c-.727-1.09-1.49-2.178-2.269-3.234l.639-.472c.787,1.066,1.557,2.165,2.292,3.265Zm-138.111-2.529-.645-.465c.775-1.073,1.587-2.144,2.413-3.184l.622.495c-.819,1.03-1.623,2.091-2.39,3.154m133.422-3.83c-.827-1.018-1.689-2.031-2.564-3.009l.593-.529c.883.988,1.753,2.01,2.588,3.038Zm-128.5-2.361-.6-.523c.873-1,1.782-1.988,2.7-2.943l.573.551c-.908.945-1.808,1.926-2.674,2.915m123.232-3.534c-.921-.939-1.875-1.867-2.835-2.758l.541-.582c.969.9,1.932,1.836,2.861,2.784Zm-117.751-2.167-.546-.577c.962-.911,1.958-1.812,2.96-2.676l.519.6c-.993.857-1.98,1.748-2.933,2.652m111.955-3.214c-1-.845-2.037-1.68-3.082-2.482l.483-.631c1.055.809,2.1,1.652,3.111,2.505Zm-105.969-1.948-.491-.626c1.042-.816,2.117-1.619,3.2-2.387l.461.648c-1.069.76-2.135,1.556-3.166,2.365m99.691-2.868c-1.08-.751-2.191-1.485-3.3-2.183l.422-.673c1.122.7,2.243,1.445,3.334,2.2Zm-93.252-1.709-.43-.669c1.114-.715,2.259-1.414,3.4-2.075l.4.688c-1.134.656-2.269,1.348-3.372,2.056m86.547-2.5c-1.144-.646-2.32-1.272-3.494-1.863l.357-.71c1.186.6,2.373,1.229,3.528,1.881Zm-79.71-1.452-.365-.706c1.173-.606,2.379-1.194,3.582-1.745l.331.723c-1.192.547-2.385,1.128-3.548,1.729m72.636-2.107c-1.2-.534-2.432-1.047-3.657-1.525l.288-.741c1.237.482,2.48,1,3.692,1.539Zm-65.463-1.18-.3-.737c1.232-.5,2.489-.967,3.738-1.4l.261.751c-1.237.431-2.483.9-3.7,1.388m58.079-1.694c-1.245-.418-2.516-.811-3.778-1.169l.217-.765c1.274.361,2.557.758,3.814,1.18Zm-50.612-.906-.225-.763c1.268-.375,2.565-.726,3.854-1.041l.189.772c-1.276.313-2.561.66-3.817,1.032m43.005-1.251c-1.278-.3-2.58-.569-3.872-.806l.144-.782c1.3.239,2.618.513,3.908.813Zm-35.326-.63-.152-.78c1.3-.254,2.624-.48,3.934-.672l.116.787c-1.3.19-2.609.414-3.9.666m27.55-.8c-1.3-.176-2.623-.323-3.931-.437l.069-.792c1.32.115,2.655.264,3.967.441Zm-19.728-.349-.078-.791c1.315-.13,2.655-.231,3.981-.3l.041.794c-1.314.068-2.64.168-3.943.3m11.852-.341c-1.155-.047-2.326-.071-3.482-.071h-.472l0-.795h.477c1.166,0,2.349.024,3.514.072Z" transform="translate(-729.69 -339.628)" fill="#9192ff"/>
        <path id="Path_78216" data-name="Path 78216" d="M135.456,499.434c-1.334-.008-2.679-.063-4-.164l.061-.792c1.3.1,2.625.154,3.941.161Zm4-.118-.052-.793c1.306-.085,2.626-.218,3.924-.4l.108.788c-1.316.18-2.655.315-3.98.4m-11.972-.493c-1.317-.2-2.64-.442-3.934-.732l.174-.776c1.275.285,2.579.528,3.877.721Zm19.894-.594-.164-.777c1.28-.27,2.568-.591,3.827-.954l.22.764c-1.277.368-2.583.693-3.882.967m-27.7-1.151c-1.274-.383-2.55-.818-3.793-1.292l.283-.743c1.225.467,2.483.9,3.738,1.273Zm35.383-1.061-.274-.746c1.226-.451,2.453-.953,3.646-1.493l.328.725c-1.21.547-2.454,1.056-3.7,1.514M112.2,494.224c-1.2-.562-2.4-1.175-3.566-1.823l.387-.694c1.146.639,2.328,1.243,3.515,1.8Zm50.144-1.5-.379-.7c1.149-.623,2.292-1.3,3.4-2l.428.67c-1.121.715-2.28,1.4-3.446,2.03m-57.134-2.4c-1.11-.728-2.21-1.507-3.267-2.313l.482-.632c1.042.795,2.126,1.563,3.221,2.28Zm63.872-1.9-.475-.638c1.051-.782,2.086-1.611,3.078-2.466l.519.6c-1.006.867-2.057,1.708-3.122,2.5m-70.232-2.95c-.995-.879-1.972-1.8-2.9-2.753l.567-.557c.919.935,1.882,1.848,2.863,2.714Zm76.291-2.268-.56-.564c.929-.923,1.837-1.892,2.7-2.879l.6.522c-.873,1-1.794,1.983-2.737,2.92m-81.895-3.438c-.861-1.012-1.7-2.068-2.482-3.137l.641-.471c.775,1.054,1.6,2.095,2.447,3.093Zm87.153-2.59-.635-.479c.789-1.047,1.55-2.135,2.261-3.234l.667.432c-.722,1.115-1.493,2.219-2.294,3.281m-91.887-3.852c-.708-1.123-1.384-2.287-2.009-3.457l.7-.375c.617,1.154,1.283,2.3,1.981,3.408Zm96.234-2.866-.7-.383c.632-1.149,1.23-2.336,1.776-3.526l.722.332c-.555,1.207-1.161,2.411-1.8,3.577m-100-4.183c-.54-1.213-1.042-2.461-1.492-3.707L84,462.3c.444,1.229.939,2.459,1.471,3.655Zm103.341-3.091-.744-.279c.459-1.227.88-2.485,1.249-3.741l.763.224c-.375,1.274-.8,2.55-1.267,3.8M82.03,458.759c-.36-1.279-.678-2.587-.944-3.888l.779-.16c.263,1.282.576,2.571.931,3.832Zm108.313-3.246-.777-.169c.278-1.278.513-2.584.7-3.882l.787.113c-.188,1.316-.427,2.64-.708,3.937M80.424,450.926c-.172-1.315-.3-2.655-.378-3.982l.794-.047c.077,1.309.2,2.63.372,3.926ZM191.476,447.6l-.793-.056c.092-1.3.139-2.63.139-3.942h.795c0,1.33-.047,2.675-.141,4m-110.73-4.645-.795-.009c.015-1.33.078-2.675.187-4l.792.065c-.107,1.3-.169,2.628-.184,3.94m110.013-2c-.062-1.311-.172-2.633-.327-3.93l.79-.094c.156,1.315.268,2.657.331,3.987ZM81.395,435.1l-.785-.122c.2-1.314.458-2.636.755-3.929l.775.178c-.293,1.275-.543,2.578-.744,3.873m108.431-1.971c-.248-1.285-.546-2.578-.885-3.843l.768-.206c.345,1.283.647,2.595.9,3.9ZM83.16,427.414l-.76-.234c.391-1.272.833-2.545,1.315-3.785l.741.288c-.474,1.222-.91,2.477-1.3,3.731m104.621-1.9c-.43-1.235-.91-2.47-1.427-3.671l.73-.315c.525,1.219,1.012,2.472,1.448,3.725ZM86.017,420.057l-.718-.34c.569-1.2,1.189-2.4,1.844-3.555l.692.391c-.645,1.142-1.257,2.321-1.818,3.5m98.648-1.776c-.6-1.162-1.256-2.316-1.94-3.431l.677-.416c.694,1.131,1.357,2.3,1.968,3.481ZM89.9,413.189l-.662-.44c.735-1.107,1.52-2.2,2.332-3.253l.629.486c-.8,1.037-1.575,2.116-2.3,3.207m90.645-1.623c-.763-1.064-1.574-2.114-2.411-3.121l.611-.508c.849,1.022,1.672,2.087,2.445,3.166ZM94.72,406.948l-.593-.529c.885-.991,1.817-1.962,2.771-2.888l.554.57c-.94.912-1.859,1.87-2.731,2.847m80.786-1.444c-.907-.945-1.859-1.87-2.831-2.748l.533-.59c.985.891,1.951,1.828,2.871,2.787Zm-75.128-4.047-.512-.608c1.016-.854,2.076-1.683,3.151-2.464l.467.644c-1.06.77-2.105,1.587-3.107,2.429m69.279-1.24c-1.033-.807-2.107-1.587-3.194-2.318l.444-.66c1.1.742,2.192,1.533,3.24,2.351Zm-62.9-3.389-.42-.675c1.128-.7,2.295-1.37,3.469-1.989l.37.7c-1.157.61-2.308,1.269-3.42,1.96m56.355-1.013c-1.137-.652-2.313-1.271-3.493-1.839l.345-.716c1.2.576,2.39,1.2,3.544,1.865Zm-49.385-2.657-.319-.728c1.215-.532,2.465-1.027,3.716-1.47l.266.749c-1.233.437-2.465.924-3.663,1.449M156,392.393c-1.219-.482-2.472-.925-3.723-1.317l.238-.759c1.27.4,2.54.848,3.777,1.337Zm-34.85-1.867-.211-.766c1.28-.352,2.59-.662,3.894-.921l.155.78c-1.286.256-2.577.561-3.838.908m27.324-.494c-1.274-.3-2.576-.559-3.868-.767l.127-.785c1.312.211,2.632.473,3.924.778Zm-19.593-1.043-.1-.789c1.315-.164,2.656-.284,3.985-.354l.042.794c-1.31.07-2.632.187-3.928.349m11.811-.212c-1.3-.115-2.627-.185-3.938-.208l.014-.795c1.33.023,2.674.094,3.995.211Z" transform="translate(-54.529 -264.471)" fill="#9192ff"/>
        <path id="Path_78217" data-name="Path 78217" d="M929.874,84.86a13.414,13.414,0,1,1,13.414-13.414A13.43,13.43,0,0,1,929.874,84.86m0-26.232a12.818,12.818,0,1,0,12.818,12.818,12.832,12.832,0,0,0-12.818-12.818" transform="translate(-625.048 -39.579)" fill="#9192ff"/>
        <path id="Path_78218" data-name="Path 78218" d="M605.057,274.3V516.012a9.107,9.107,0,0,1-9.1,9.11H244.687a9.109,9.109,0,0,1-9.11-9.11V274.3a9.109,9.109,0,0,1,9.11-9.11H595.955a9.107,9.107,0,0,1,9.1,9.11" transform="translate(-160.669 -180.862)" fill="#fff"/>
        <path id="Path_78219" data-name="Path 78219" d="M595.1,524.667H243.835a9.518,9.518,0,0,1-9.507-9.508V273.442a9.518,9.518,0,0,1,9.507-9.507H595.1a9.514,9.514,0,0,1,9.5,9.507V515.16a9.514,9.514,0,0,1-9.5,9.508M243.835,264.73a8.723,8.723,0,0,0-8.713,8.713V515.16a8.723,8.723,0,0,0,8.713,8.713H595.1a8.718,8.718,0,0,0,8.7-8.713V273.442a8.718,8.718,0,0,0-8.7-8.713Z" transform="translate(-159.817 -180.01)" fill="#9192ff"/>
        <path id="Path_78220" data-name="Path 78220" d="M605.057,274.3v14.341H235.577V274.3a9.109,9.109,0,0,1,9.11-9.11H595.955a9.107,9.107,0,0,1,9.1,9.11" transform="translate(-160.669 -180.862)" fill="#fff"/>
        <path id="Path_78221" data-name="Path 78221" d="M604.6,288.181H234.327V273.442a9.518,9.518,0,0,1,9.507-9.507H595.1a9.514,9.514,0,0,1,9.5,9.507Zm-369.48-.795H603.807V273.442a8.718,8.718,0,0,0-8.7-8.713H243.835a8.722,8.722,0,0,0-8.713,8.713Z" transform="translate(-159.817 -180.01)" fill="#9192ff"/>
        <path id="Path_78222" data-name="Path 78222" d="M295.24,292.967a4.24,4.24,0,1,1-4.24-4.24,4.24,4.24,0,0,1,4.24,4.24" transform="translate(-195.577 -196.919)" fill="#3335cf"/>
        <path id="Path_78223" data-name="Path 78223" d="M341.833,288.727a4.24,4.24,0,1,0,4.24,4.24,4.245,4.245,0,0,0-4.24-4.24" transform="translate(-230.247 -196.919)" fill="#3335cf"/>
        <path id="Path_78224" data-name="Path 78224" d="M392.666,297.207a4.24,4.24,0,1,1,4.24-4.24,4.245,4.245,0,0,1-4.24,4.24m0-7.685a3.445,3.445,0,1,0,3.445,3.445,3.449,3.449,0,0,0-3.445-3.445" transform="translate(-264.916 -196.919)" fill="#9192ff"/>
        <path id="Path_78225" data-name="Path 78225" d="M550.7,296.656H471.9a4.72,4.72,0,1,1,0-9.44h78.8a4.72,4.72,0,1,1,0,9.44m-78.8-8.645a3.925,3.925,0,1,0,0,7.85h78.8a3.925,3.925,0,1,0,0-7.85Z" transform="translate(-318.626 -195.888)" fill="#9192ff"/>
        <path id="Path_78226" data-name="Path 78226" d="M749.328,545.607a68.917,68.917,0,1,1-75.885-68.571l2.3,22.616a46.152,46.152,0,1,0,49.04,33.133l21.853-6.312a68.782,68.782,0,0,1,2.7,19.134" transform="translate(-417.053 -325.349)" fill="#9192ff"/>
        <path id="Path_78227" data-name="Path 78227" d="M764.529,573.327a55.646,55.646,0,1,1-55.646-55.646,55.646,55.646,0,0,1,55.646,55.646" transform="translate(-445.523 -353.071)" fill="#fff"/>
        <g id="Group_39850" data-name="Group 39850" transform="translate(207.714 164.61)" opacity="0.5">
          <g id="Group_39849" data-name="Group 39849">
            <g id="Group_39848" data-name="Group 39848" clip-path="url(#clip-path-6)">
              <path id="Path_78228" data-name="Path 78228" d="M764.529,573.327a55.646,55.646,0,1,1-55.646-55.646,55.646,55.646,0,0,1,55.646,55.646" transform="translate(-653.237 -517.681)" fill="#d1d1ff"/>
            </g>
          </g>
        </g>
        <path id="Path_78229" data-name="Path 78229" d="M783.112,608.12A39.414,39.414,0,1,1,743.7,568.7a39.419,39.419,0,0,1,39.414,39.425" transform="translate(-480.338 -387.864)" fill="#fff"/>
        <path id="Path_78230" data-name="Path 78230" d="M796.295,657.63v5.993h-7.614V657.9c-5.4-.323-10.634-1.783-13.874-3.779l4.1-9.289a25.922,25.922,0,0,0,12.472,3.456c3.618,0,4.915-.756,4.915-2.053,0-4.751-20.894-.917-20.894-15.012,0-6.1,4.427-11.232,13.28-12.474v-5.886h7.614v5.778a28.211,28.211,0,0,1,10.959,3.133l-3.834,9.234a23.314,23.314,0,0,0-10.528-2.808c-3.728,0-4.915,1.079-4.915,2.375,0,4.538,20.894.756,20.894,14.689,0,5.833-4.211,10.909-12.577,12.367" transform="translate(-528.437 -417.987)" fill="#9192ff"/>
        <rect id="Rectangle_22735" data-name="Rectangle 22735" width="149.93" height="91.676" transform="translate(358.765 37.169)" fill="#fff"/>
        <path id="Path_78231" data-name="Path 78231" d="M1277.753,208.112H1127.028V115.641h150.725Zm-149.93-.795h149.135V116.436H1127.823Z" transform="translate(-768.661 -78.87)" fill="#9192ff"/>
        <rect id="Rectangle_22736" data-name="Rectangle 22736" width="8.629" height="15.847" transform="translate(377.64 99.664)" fill="#d1d1ff"/>
        <rect id="Rectangle_22737" data-name="Rectangle 22737" width="8.629" height="23.088" transform="translate(394.898 92.423)" fill="#d1d1ff"/>
        <rect id="Rectangle_22738" data-name="Rectangle 22738" width="8.629" height="17.168" transform="translate(412.157 98.342)" fill="#d1d1ff"/>
        <rect id="Rectangle_22739" data-name="Rectangle 22739" width="8.629" height="29.249" transform="translate(429.415 86.262)" fill="#d1d1ff"/>
        <rect id="Rectangle_22740" data-name="Rectangle 22740" width="8.629" height="36.976" transform="translate(446.674 78.535)" fill="#d1d1ff"/>
        <rect id="Rectangle_22741" data-name="Rectangle 22741" width="8.629" height="48.012" transform="translate(463.933 67.499)" fill="#d1d1ff"/>
        <rect id="Rectangle_22742" data-name="Rectangle 22742" width="8.629" height="65.008" transform="translate(481.191 50.503)" fill="#d1d1ff"/>
        <rect id="Rectangle_22743" data-name="Rectangle 22743" width="6.857" height="7.765" transform="translate(377.64 58.217)" fill="#d1d1ff"/>
        <rect id="Rectangle_22744" data-name="Rectangle 22744" width="46.444" height="1.99" transform="translate(395.095 61.81)" fill="#d1d1ff"/>
        <path id="Path_78232" data-name="Path 78232" d="M1115.7,495.117l-9.5-26.23a27.9,27.9,0,1,0,34.249,13.381Z" transform="translate(-741.912 -319.792)" fill="#ebebff"/>
        <path id="Path_78233" data-name="Path 78233" d="M1191.571,447.456a27.907,27.907,0,0,0-34.248-13.381l9.5,26.23Z" transform="translate(-789.322 -294.917)" fill="#9192ff"/>
        <rect id="Rectangle_22745" data-name="Rectangle 22745" width="65.98" height="62.8" transform="translate(347.286 264.702)" fill="#ebebff"/>
        <rect id="Rectangle_22746" data-name="Rectangle 22746" width="36.965" height="2.652" transform="translate(357.62 281.396)" fill="#fff"/>
        <rect id="Rectangle_22747" data-name="Rectangle 22747" width="36.965" height="2.652" transform="translate(357.62 289.345)" fill="#fff"/>
        <rect id="Rectangle_22748" data-name="Rectangle 22748" width="57.374" height="96.983" transform="translate(104.034 144.667)" fill="#ebebff"/>
        <rect id="Rectangle_22749" data-name="Rectangle 22749" width="37.627" height="34.447" transform="translate(112.779 158.711)" fill="#fff"/>
        <rect id="Rectangle_22750" data-name="Rectangle 22750" width="0.795" height="51.014" transform="translate(112.51 159.004) rotate(-47.526)" fill="#ebebff"/>
        <rect id="Rectangle_22751" data-name="Rectangle 22751" width="51.014" height="0.795" transform="translate(112.51 192.864) rotate(-42.471)" fill="#ebebff"/>
        <rect id="Rectangle_22752" data-name="Rectangle 22752" width="131.232" height="86.467" transform="translate(0.379 184.277)" fill="#fff"/>
        <path id="Path_78234" data-name="Path 78234" d="M131.991,665.563H0V578.337H131.991ZM.759,664.8H131.232V579.1H.759Z" transform="translate(0 -394.44)" fill="#9192ff"/>
        <path id="Path_78235" data-name="Path 78235" d="M44.677,680.079l8.479-15.9L70.645,680.61,82.3,646.692l21.729,23.848,14.309-5.829,25.968-33.918" transform="translate(-30.471 -430.216)" fill="#fff"/>
        <path id="Path_78236" data-name="Path 78236" d="M70.069,680.8,52.51,664.308l-8.235,15.441-.7-.374L52.3,663.017,69.717,679.38l11.677-33.97,21.993,24.139,13.952-5.684,25.9-33.832.631.483-26.034,34-14.666,5.975-.187-.205L81.71,646.937Z" transform="translate(-29.719 -429.698)" fill="#9192ff"/>
        <path id="Path_78237" data-name="Path 78237" d="M69.049,730.9a2.186,2.186,0,1,1-2.186-2.186,2.186,2.186,0,0,1,2.186,2.186" transform="translate(-44.111 -496.998)" fill="#9192ff"/>
        <path id="Path_78238" data-name="Path 78238" d="M123.424,781.521a2.186,2.186,0,1,1-2.186-2.186,2.186,2.186,0,0,1,2.186,2.186" transform="translate(-81.196 -531.525)" fill="#9192ff"/>
        <path id="Path_78239" data-name="Path 78239" d="M160.924,676.521a2.186,2.186,0,1,1-2.186-2.186,2.186,2.186,0,0,1,2.186,2.186" transform="translate(-106.772 -459.913)" fill="#9192ff"/>
        <line id="Line_93" data-name="Line 93" x2="55.646" transform="translate(38.173 198.457)" fill="#fff"/>
        <rect id="Rectangle_22753" data-name="Rectangle 22753" width="55.646" height="0.795" transform="translate(38.173 198.06)" fill="#9192ff"/>
        <path id="Path_78240" data-name="Path 78240" d="M974.886,1078.784a67.157,67.157,0,0,1,44.693-73.686c-8.357,5.849-13.459,15.3-17.018,24.864s-5.894,19.594-10.286,28.8-11.316,17.809-20.918,21.254Z" transform="translate(-662.489 -685.501)" fill="#9192ff"/>
        <path id="Path_78241" data-name="Path 78241" d="M896.576,1075.98a154.2,154.2,0,0,0-10.176-52.208c-2.266-5.908-4.984-11.8-9.4-16.334s-10.845-7.513-17.075-6.407c7.758,5.807,11.777,15.359,14.04,24.782s3.135,19.2,6.322,28.352,9.282,17.973,18.4,21.245Z" transform="translate(-586.488 -682.569)" fill="#9192ff"/>
        <path id="Path_78242" data-name="Path 78242" d="M857.883,1145.451c-4.435-11.945-9.257-24.191-18.177-33.29s-23.051-14.307-34.732-9.218a43.13,43.13,0,0,1,24.128,15.245c4.4,5.59,7.359,12.217,11.884,17.706s11.427,9.91,18.419,8.6Z" transform="translate(-549.012 -750.872)" fill="#d1d1ff"/>
        <path id="Path_78243" data-name="Path 78243" d="M961.469,1081.957c-1.818-13.109-3.636-26.429-1.721-39.524s8.107-26.17,19.2-33.385c-6.141,6.022-8.191,15.144-8.194,23.744s1.738,17.123,1.886,25.723-1.561,17.735-7.378,24.071Z" transform="translate(-654.015 -688.194)" fill="#d1d1ff"/>
        <path id="Path_78244" data-name="Path 78244" d="M986.214,1148.408c4.252-10.834,8.784-22.082,17.443-29.858a37.8,37.8,0,0,1,20.047-9.27c-5.191,4.143-8.443,10.213-11.14,16.284s-5.023,12.392-8.927,17.766-9.77,9.794-16.406,10.078Z" transform="translate(-672.622 -756.556)" fill="#d1d1ff"/>
        <path id="Path_78245" data-name="Path 78245" d="M935.9,1257.2H888.141l-7.363-36.736h62.48Z" transform="translate(-600.712 -832.389)" fill="#fff"/>
        <path id="Path_78246" data-name="Path 78246" d="M935.181,1256.75H886.775l-7.522-37.531H942.7Zm-47.755-.795h47.1l7.2-35.941h-61.51Z" transform="translate(-599.672 -831.537)" fill="#9192ff"/>
        <path id="Path_78247" data-name="Path 78247" d="M1261.54,1262.086v22.09h-28.648l13.116-10.7.69-13.461Z" transform="translate(-840.862 -859.361)" fill="#d1d1ff"/>
        <rect id="Rectangle_22754" data-name="Rectangle 22754" width="0.795" height="7.548" transform="matrix(0.689, -0.725, 0.725, 0.689, 404.872, 414.404)" fill="#1b1b43"/>
        <rect id="Rectangle_22755" data-name="Rectangle 22755" width="9.804" height="0.795" transform="translate(408.098 408.586)" fill="#1b1b43"/>
        <path id="Path_78248" data-name="Path 78248" d="M1369.054,1265.343l1.036,21.055h-28.648l12.08-10.355v-12.771Z" transform="translate(-914.896 -861.582)" fill="#d1d1ff"/>
        <rect id="Rectangle_22756" data-name="Rectangle 22756" width="0.795" height="5.936" transform="matrix(0.662, -0.749, 0.749, 0.662, 438.363, 414.759)" fill="#1b1b43"/>
        <rect id="Rectangle_22757" data-name="Rectangle 22757" width="9.672" height="0.795" transform="translate(441.883 408.984)" fill="#1b1b43"/>
        <path id="Path_78249" data-name="Path 78249" d="M1332.062,848.12a862.065,862.065,0,0,0,11.117,129.912h24.14c-5.021-32.562-7.292-72.1-4.484-124.529L1345.4,839.226Z" transform="translate(-908.499 -572.372)" fill="#fe5b52"/>
        <path id="Path_78250" data-name="Path 78250" d="M1244.082,868.932l-10.923,48.579a86.768,86.768,0,0,0-.535,35.51l7.673,39.68h24.14l-7.305-52.092L1274.6,861.2Z" transform="translate(-839.603 -587.36)" fill="#fe5b52"/>
        <path id="Path_78251" data-name="Path 78251" d="M1320.262,969.25c-.062-1-1.436-23.343-1.579-26.174l-6.308-2.294.271-.747,6.82,2.48v.279c0,.489,1.04,17.487,1.589,26.407Z" transform="translate(-895.072 -641.126)" fill="#be443d"/>
        <path id="Path_78252" data-name="Path 78252" d="M1496.87,489.43l1.292-3.081s-4.67-9.837-3.18-11.129,3.875,2.385,3.875,2.385-.7-11.924,1.59-12.023c1.927-.084,1.789,3.378,1.987,8.546,0,0,1.192-1.59,3.386.053.986-1.643,3.073-.55,3.669.444.7-.795,3.577-.6,3.18,2.782-.5,4.285-2.484,12.222-2.484,12.222l-6.359,5.266Z" transform="translate(-1019.414 -317.537)" fill="#ffbc96"/>
        <path id="Path_78253" data-name="Path 78253" d="M1340.924,581.723l9.67-.077c16.962-1.513,30.211-15.292,30.211-15.292L1392,540.585l13.315.2-7.816,30.286a22.157,22.157,0,0,1-6.934,11.2l-27.779,24.1Z" transform="translate(-914.543 -368.692)" fill="#3335cf"/>
        <path id="Path_78254" data-name="Path 78254" d="M1257.567,691.889l4.6,46.612,49.857-.441-1.722-56.176-26.233-11.924-18.151,7.685Z" transform="translate(-857.691 -456.929)" fill="#3335cf"/>
        <path id="Path_78255" data-name="Path 78255" d="M1105.779,748.255a5.029,5.029,0,0,0-2.923-1.254c-5.511-.459-22.74-1.789-22.573-.453.2,1.59,13.315,7.552,13.315,7.552l8.415,9.47,7.707-11.818Z" transform="translate(-736.778 -508.769)" fill="#ffbc96"/>
        <path id="Path_78256" data-name="Path 78256" d="M1189.97,678.507a11.457,11.457,0,0,0-8.239,6.091l-14.693,28.879-10.707-9.5-7.707,11.818,2.813,3.166c4.163,4.684,9.016,10.978,15.515,12.343,3.312.7,6.4-.68,8.769-2.958a28.436,28.436,0,0,0,4.537-5.8l5.859-9.659,18.681-36.965Z" transform="translate(-783.39 -460.991)" fill="#3335cf"/>
        <rect id="Rectangle_22758" data-name="Rectangle 22758" width="0.795" height="28.818" transform="translate(399.48 234.998) rotate(-5.558)" fill="#d1d1ff"/>
        <path id="Path_78257" data-name="Path 78257" d="M1414.345,734.335l-4.671,4.173,4.969,8.248Z" transform="translate(-961.432 -500.834)" fill="#1b1b43"/>
        <path id="Path_78258" data-name="Path 78258" d="M1520.133,498.389c-1.875,0-2.02-2.457-2.021-5.929h.6c0,4.087.334,5.333,1.425,5.333a.755.755,0,0,0,.572-.266,5.63,5.63,0,0,0,.8-3.1c-.041-.864-.02-1.617-.008-1.929l.6-.009a17.658,17.658,0,0,1,.013,1.866c.082,1.619.355,3.219.9,3.381a.864.864,0,0,0,.8-.118c.643-.464,1-1.775,1.192-2.946a14.509,14.509,0,0,1,.177-1.764l.592.056a15.531,15.531,0,0,1-.151,1.6c-.043,1.239.1,2.44.6,2.651a.982.982,0,0,0,.937,0c.682-.417.93-1.822.968-2.328l.595.045c-.007.086-.172,2.132-1.251,2.792a1.556,1.556,0,0,1-1.48.044c-.138-.058-.578-.313-.823-1.243a3.252,3.252,0,0,1-1.007,1.578,1.444,1.444,0,0,1-1.319.205c-.524-.157-.849-.826-1.047-1.663a3.14,3.14,0,0,1-.641,1.286,1.339,1.339,0,0,1-1.008.456" transform="translate(-1035.389 -335.869)" fill="#d28572"/>
        <path id="Path_78259" data-name="Path 78259" d="M1307.153,653.326a7.688,7.688,0,0,1-8.283-7.043l-.087-1.073-1.208-14.993,9.341-.747,5.994-.485,1.288,16.058a7.688,7.688,0,0,1-7.043,8.283" transform="translate(-884.977 -428.983)" fill="#ffbc96"/>
        <path id="Path_78260" data-name="Path 78260" d="M1309.9,635.566a25.734,25.734,0,0,1-11.121,10.684l-1.208-14.993,9.341-.747Z" transform="translate(-884.977 -430.023)" fill="#1b1b43"/>
        <path id="Path_78261" data-name="Path 78261" d="M1294.05,582.269l-1.852,15.636a22.028,22.028,0,0,1-14.706,5.429c-3.188-.1-5.064-3.116-6.161-6.956a35.537,35.537,0,0,1-.994-5.088,70.211,70.211,0,0,1-.4-11.407l13.514-4.5Z" transform="translate(-866.077 -392.426)" fill="#ffbc96"/>
        <path id="Path_78262" data-name="Path 78262" d="M1274.246,574.559c-1.407-5.016-3.935-7.539-7.353-8.082-10.864,5.9-17.918,2.385-23.053-4.174,12.586,2.451,18.085-15.435,30.141-3.511,8.943,2.716,8.778,11.262,3.711,18.217Z" transform="translate(-848.329 -378.288)" fill="#1b1b43"/>
        <path id="Path_78263" data-name="Path 78263" d="M1341.012,612.43a3.814,3.814,0,1,1-2.871-5,4.1,4.1,0,0,1,2.871,5" transform="translate(-909.484 -414.241)" fill="#ffbc96"/>
        <path id="Path_78264" data-name="Path 78264" d="M1345.011,615.332a1.964,1.964,0,0,0-1.329,1.113,5.937,5.937,0,0,0-.608,1.8l-.232.014a2.48,2.48,0,0,1-.04-1.079,3.124,3.124,0,0,1,.364-1.031,2.418,2.418,0,0,1,.754-.833,1.388,1.388,0,0,1,1.109-.221Z" transform="translate(-915.796 -419.486)" fill="#1b1b43"/>
        <rect id="Rectangle_22759" data-name="Rectangle 22759" width="55.301" height="3.723" transform="translate(145.719 294.51)" fill="#9192ff"/>
        <path id="Path_78265" data-name="Path 78265" d="M532,833.711H485.3l17.687-43.125h46.7Z" transform="translate(-330.988 -539.198)" fill="#fff"/>
        <path id="Path_78266" data-name="Path 78266" d="M531,833.255H483.438l18.014-43.92h47.562Zm-46.377-.795h45.844l17.361-42.331H501.985Z" transform="translate(-329.716 -538.345)" fill="#9192ff"/>
        <path id="Path_78267" data-name="Path 78267" d="M540.772,842.117h-36.7l13.9-33.892h36.7Z" transform="translate(-343.787 -551.229)" fill="#ebebff"/>
        <rect id="Rectangle_22760" data-name="Rectangle 22760" width="0.795" height="125.593" transform="translate(181.629 299.425)" fill="#1b1b43"/>
        <rect id="Rectangle_22761" data-name="Rectangle 22761" width="89.209" height="7.095" transform="translate(137.422 298.237)" fill="#d1d1ff"/>
        <rect id="Rectangle_22762" data-name="Rectangle 22762" width="0.795" height="72.837" transform="translate(64.637 352.18)" fill="#1b1b43"/>
        <path id="Path_78268" data-name="Path 78268" d="M179.549,1101.886H135.916a9.559,9.559,0,0,1,9.357-7.6h24.918A9.559,9.559,0,0,1,179.549,1101.886Z" transform="translate(-92.698 -746.327)" fill="#d1d1ff"/>
        <path id="Path_78269" data-name="Path 78269" d="M191.559,1325.27H168.906a4.987,4.987,0,0,1,4.987-4.987h12.678A4.987,4.987,0,0,1,191.559,1325.27Z" transform="translate(-115.198 -900.465)" fill="#d1d1ff"/>
        <path id="Path_78270" data-name="Path 78270" d="M307.122,767.7c1.116,1.6,2.716,3.876,2.893,5.861.257,2.886-4.361.863-4.416,1.113l1.523-6.974" transform="translate(-208.426 -523.587)" fill="#d28572"/>
        <rect id="Rectangle_22763" data-name="Rectangle 22763" width="14.603" height="21.4" transform="translate(77.04 247.506)" fill="#ffbc96"/>
        <path id="Path_78271" data-name="Path 78271" d="M262.433,789.922V805.2a43.06,43.06,0,0,1-12.017-12.139Z" transform="translate(-170.79 -538.746)" fill="#1b1b43"/>
        <path id="Path_78272" data-name="Path 78272" d="M262.824,742.013c-.455,7.393-3.3,15.755-11.061,13.692-6.1-1.62-12.808-6.754-12.808-14.161s5.126-13.411,11.45-13.411c3.952,0,8.928,1.918,11.27,5.623,1.405,2.223,1.348,5.033,1.15,8.257" transform="translate(-162.972 -496.604)" fill="#ffbc96"/>
        <path id="Path_78273" data-name="Path 78273" d="M223.259,726.779a8.942,8.942,0,0,1,6.8-6.021s10.956,10.837,10.278-.36c-.539-8.9-9.236-8.056-9.236-8.056-4.248-5.531-11.062-3.367-13.547-.161s-1.6,1.363-7.455,3.447-2.725,10.982-3.767,11.623c-7.775,0-6.333,7.7-6.333,7.7l18.407,6,4.434-12.1Z" transform="translate(-136.332 -483.516)" fill="#1b1b43"/>
        <path id="Path_78274" data-name="Path 78274" d="M266.151,762.034c1.138,1.971.831,4.28-.687,5.156s-3.671-.011-4.809-1.983-.831-4.28.687-5.156,3.671.011,4.809,1.983" transform="translate(-177.304 -518.143)" fill="#ffbc96"/>
        <path id="Path_78275" data-name="Path 78275" d="M267.4,769.517a5.075,5.075,0,0,0-.825-1.325,2.525,2.525,0,0,0-.594-.433c-.225-.122-.476-.224-.734-.345l.039-.207a2.342,2.342,0,0,1,.878.116,1.967,1.967,0,0,1,.793.493,2.176,2.176,0,0,1,.482.786,2.778,2.778,0,0,1,.164.864Z" transform="translate(-180.906 -523.25)" fill="#1b1b43"/>
        <path id="Path_78276" data-name="Path 78276" d="M235.815,690.672a6.724,6.724,0,1,1-5.862,6.987,6.46,6.46,0,0,1,5.862-6.987" transform="translate(-156.828 -471.05)" fill="#1b1b43"/>
        <path id="Path_78277" data-name="Path 78277" d="M228.118,880.943l-46.766-5.962,8.816-46.48a10.2,10.2,0,0,1,13.752-7.584L219.859,828a9.463,9.463,0,0,1,5.565,7.576l.9,15.183,1.025,17.211Z" transform="translate(-123.686 -559.402)" fill="#ffa121"/>
        <path id="Path_78278" data-name="Path 78278" d="M460.136,898.131l12.378-3.639a3.138,3.138,0,0,1,2.625.4c3.388,2.249,12.407,8.613,10.13,11.215-1.137,1.3-11.487-1.746-11.487-1.746L458.8,908.539Z" transform="translate(-312.91 -609.977)" fill="#ffbc96"/>
        <path id="Path_78279" data-name="Path 78279" d="M311.032,928.329q-5.843-7.441-6.98-19.619l5.954,2.409Z" transform="translate(-207.371 -619.762)" fill="#1b1b43"/>
        <path id="Path_78280" data-name="Path 78280" d="M286.359,842.877l1.863.8a29.262,29.262,0,0,1,10.082,7.2l15.347,16.9,25.173-4.77,3.312,13.514-31.63,9.885a7.421,7.421,0,0,1-6.766-2.285l-22.814-24.824Z" transform="translate(-191.599 -574.862)" fill="#ffa121"/>
        <path id="Path_78281" data-name="Path 78281" d="M317.866,864.2c-.075-.081-7.563-8.234-14.048-15.506-6.411-7.188-16.185-10.683-16.283-10.717l.264-.75c.1.035,10.062,3.594,16.613,10.938,6.481,7.267,13.965,15.416,14.04,15.5Z" transform="translate(-196.106 -571.01)" fill="#1b1b43"/>
        <rect id="Rectangle_22764" data-name="Rectangle 22764" width="0.795" height="30.504" transform="translate(90.632 287.635) rotate(-44.091)" fill="#1b1b43"/>
        <path id="Path_78282" data-name="Path 78282" d="M301.456,1232.3l-10.089,19.652,25.486,13.084-6.782-15.509,5.534-12.291Z" transform="translate(-198.72 -840.462)" fill="#d1d1ff"/>
        <rect id="Rectangle_22765" data-name="Rectangle 22765" width="7.548" height="0.795" transform="translate(103.999 410.82) rotate(-16.406)" fill="#1b1b43"/>
        <path id="Path_78283" data-name="Path 78283" d="M323.488,1129.576l-23.088-8.615,15.811-49.2c2.718-7.285,11.09-10.889,18.7-8.049s11.575,11.047,8.857,18.331Z" transform="translate(-204.88 -724.817)" fill="#26289c"/>
        <path id="Path_78284" data-name="Path 78284" d="M443.427,1260.755l2.254,23.384h28.648l-13.116-10.7-3.08-13.479Z" transform="translate(-302.428 -859.323)" fill="#d1d1ff"/>
        <rect id="Rectangle_22766" data-name="Rectangle 22766" width="7.754" height="0.795" transform="translate(151.803 417.512) rotate(-28.872)" fill="#1b1b43"/>
        <path id="Path_78285" data-name="Path 78285" d="M281.366,1081.1l-25.041,3.975-17.147-50.423-3.124-9.2-42.585.342a17.562,17.562,0,0,1-17.878-19.277l1.773-14.054,42.132,5.3,27.688,3.045c11.527,1.987,15.064,8.967,17.465,17.934Z" transform="translate(-119.699 -676.882)" fill="#3335cf"/>
        <path id="Path_78286" data-name="Path 78286" d="M369.051,1104.981l-3.124-9.2,5.763-.2a12.563,12.563,0,0,1-2.639,9.4" transform="translate(-249.571 -747.215)" fill="#1b1b43"/>
        <rect id="Rectangle_22767" data-name="Rectangle 22767" width="482.528" height="0.795" transform="translate(16.988 424.418)" fill="#1b1b43"/>
      </g>
    </g>
  </g>
</svg>
