<svg xmlns="http://www.w3.org/2000/svg" width="43.318" height="49.506" viewBox="0 0 43.318 49.506">
  <path id="Icon_awesome-database" data-name="Icon awesome-database" d="M43.318,7.072v4.42c0,3.9-9.7,7.072-21.659,7.072S0,15.388,0,11.492V7.072C0,3.177,9.7,0,21.659,0S43.318,3.177,43.318,7.072Zm0,9.945v9.945c0,3.9-9.7,7.072-21.659,7.072S0,30.858,0,26.963V17.018c4.653,3.2,13.17,4.7,21.659,4.7S38.664,20.222,43.318,17.018Zm0,15.471v9.945c0,3.9-9.7,7.072-21.659,7.072S0,46.329,0,42.434V32.488c4.653,3.2,13.17,4.7,21.659,4.7S38.664,35.693,43.318,32.488Z" fill="#53cb5b"/>
</svg>
