<svg width="108" height="95" viewBox="0 0 108 95" fill="none" xmlns="http://www.w3.org/2000/svg">
<path d="M89.9047 20V31.6501C89.9047 38.4431 72.2983 45.7143 46.0839 45.7143C22.4275 45.7143 5.63036 39.6012 2.76104 33.6033H2.74972L2.64785 33.3555C2.40449 32.7736 2.28564 32.1974 2.28564 31.6616V20L3.23077 20.8815C10.1975 27.3692 26.2193 31.241 46.0839 31.241C65.9484 31.241 81.9645 27.3692 88.9596 20.8815L89.9047 20Z" fill="url(#paint0_linear_683_1320)"/>
<path d="M89.9047 35V46.6501C89.9047 53.4431 72.2983 60.7143 46.0839 60.7143C19.8694 60.7143 2.28564 53.4431 2.28564 46.6501V35.0288L3.23077 35.9103C7.72434 40.0818 16.2927 43.2853 27.3512 44.9331L28.2963 45.0714C28.7321 45.129 29.1735 45.1924 29.615 45.2442L29.9998 45.2961C34.9914 45.9126 40.4075 46.2295 46.0839 46.2295C50.2379 46.2295 54.273 46.0566 58.0761 45.7282L58.3591 45.6994C58.8968 45.6533 59.4344 45.6015 59.9607 45.5438C60.2777 45.515 60.5889 45.4805 60.9059 45.4459C61.1718 45.4113 61.4435 45.3825 61.7095 45.3537C62.1396 45.3018 62.5697 45.25 63.0451 45.1866L63.1017 45.1751C75.0318 43.6022 84.217 40.3007 88.9596 35.8815L89.9047 35Z" fill="url(#paint1_linear_683_1320)"/>
<path d="M91.7553 48.4839C91.6991 41.7588 91.8003 34.9888 91.8003 28.2525V16.144C91.8003 12.2819 87.6006 8.39165 80.2808 5.47821C74.3383 3.10928 63.5834 0.285645 46.0877 0.285645C28.5921 0.285645 17.8372 3.10928 11.8947 5.47821C4.57487 8.39165 0.380859 12.2819 0.380859 16.144V78.8926C0.380859 85.7636 13.5869 93.3588 38.8073 94.5714H53.4863C78.6392 93.3307 91.8003 85.7468 91.8003 78.8926C91.8003 68.7545 91.8396 58.6164 91.7553 48.4839ZM89.6189 78.8926C89.6189 85.511 72.1289 92.5954 46.0877 92.5954C20.0466 92.5954 2.57906 85.511 2.57906 78.8926V67.57L3.51794 68.4289C7.98181 72.4931 16.4935 75.6143 27.4789 77.2198L28.4178 77.3545C28.8507 77.4106 29.2892 77.4724 29.7277 77.5229L30.11 77.5734C35.0686 78.1741 40.4489 78.4828 46.0877 78.4828C50.2143 78.4828 54.2228 78.3144 58.0008 77.9944L58.2819 77.9664C58.816 77.9215 59.3501 77.8709 59.8729 77.8148C60.1877 77.7867 60.4969 77.7531 60.8118 77.7194C61.076 77.6857 61.3459 77.6576 61.6101 77.6296C62.0374 77.579 62.4646 77.5285 62.9369 77.4668L62.9931 77.4555C74.8443 75.923 83.9688 72.7065 88.68 68.4008L89.6189 67.542V78.8926ZM89.6189 62.602C89.6189 69.2204 72.1289 76.3048 46.0877 76.3048C22.5878 76.3048 5.90167 70.3487 3.05131 64.505H3.04007L2.93887 64.2636C2.69712 63.6967 2.57906 63.1353 2.57906 62.6132V51.2513L3.51794 52.1102C10.4386 58.4311 26.3545 62.2034 46.0877 62.2034C65.821 62.2034 81.7313 58.4311 88.68 52.1102L89.6189 51.2513V62.602ZM89.6189 46.3226C89.6189 52.941 72.1289 60.0254 46.0877 60.0254C20.0466 60.0254 2.57906 52.941 2.57906 46.3226V36.3361L3.51232 37.1669C3.94521 37.5486 4.34437 37.8854 4.74353 38.1829C12.1252 43.6113 28.3503 47.1141 46.0877 47.1141C63.8252 47.1141 80.0559 43.6113 87.4376 38.1829C87.9492 37.8124 88.3708 37.4475 88.6857 37.1669L89.6189 36.3417V46.3226ZM89.6189 31.2333C89.6189 32.9623 88.4552 34.7081 86.1558 36.4259C79.1339 41.596 63.4091 44.9417 46.0877 44.9417C28.7664 44.9417 13.0641 41.596 6.04222 36.4259C4.46243 35.2639 2.57906 33.4226 2.57906 31.2333V21.2524L3.51232 22.0776C3.95083 22.4705 4.34437 22.7961 4.74353 23.0936C8.16733 25.6141 13.5476 27.7754 20.2996 29.3528C27.9568 31.1042 36.8733 32.0248 46.0877 32.0248C55.3022 32.0248 64.2412 31.1042 71.8703 29.3584C78.6167 27.7866 83.9969 25.6197 87.4376 23.0936C87.9436 22.7287 88.3708 22.3582 88.6857 22.0776L89.6189 21.2524V31.2333ZM86.1558 21.3366C82.9456 23.6887 77.8408 25.7208 71.3868 27.2196C63.9995 28.943 55.2516 29.8524 46.0877 29.8524C36.9239 29.8524 28.1985 28.943 20.8112 27.2196C14.3234 25.7152 9.21865 23.6774 6.04784 21.3422C4.46243 20.2026 2.57906 18.3726 2.57906 16.144C2.57906 9.53683 20.0635 2.46371 46.0877 2.46371C72.112 2.46371 89.6189 9.53683 89.6189 16.144C89.6189 17.873 88.4552 19.6188 86.1558 21.3366Z" fill="#B9C2C9"/>
<path d="M89.9047 50.762V62.412C89.9047 69.205 72.2983 76.4762 46.0839 76.4762C22.4275 76.4762 5.63036 70.3631 2.76104 64.3652H2.74972L2.64785 64.1175C2.40449 63.5356 2.28564 62.9594 2.28564 62.4236V50.762L3.23077 51.6435C10.1975 58.1311 26.2193 62.003 46.0839 62.003C65.9484 62.003 81.9645 58.1311 88.9596 51.6435L89.9047 50.762Z" fill="url(#paint2_linear_683_1320)"/>
<path d="M89.9047 66.9524V78.6025C89.9047 85.3955 72.2983 92.6667 46.0839 92.6667C19.8694 92.6667 2.28564 85.3955 2.28564 78.6025V66.9812L3.23077 67.8627C7.72434 72.0342 16.2927 75.2377 27.3512 76.8855L28.2963 77.0238C28.7321 77.0814 29.1735 77.1448 29.615 77.1966L29.9998 77.2485C34.9914 77.865 40.4075 78.1819 46.0839 78.1819C50.2379 78.1819 54.273 78.009 58.0761 77.6806L58.3591 77.6518C58.8968 77.6057 59.4344 77.5538 59.9607 77.4962C60.2777 77.4674 60.5889 77.4329 60.9059 77.3983C61.1718 77.3637 61.4435 77.3349 61.7095 77.3061C62.1396 77.2542 62.5697 77.2024 63.0451 77.139L63.1017 77.1275C75.0318 75.5546 84.217 72.2531 88.9596 67.8339L89.9047 66.9524Z" fill="url(#paint3_linear_683_1320)"/>
<path d="M81.3332 90.7618C95.0088 90.7618 106.095 79.6756 106.095 65.9999C106.095 52.3243 95.0088 41.238 81.3332 41.238C67.6576 41.238 56.5713 52.3243 56.5713 65.9999C56.5713 79.6756 67.6576 90.7618 81.3332 90.7618Z" fill="#F6F8F9" stroke="#B9C2C9" stroke-width="2" stroke-miterlimit="10"/>
<path d="M63.1738 75.44V75.2884C63.1907 72.7503 64.3699 70.6839 66.8855 67.8706C68.8565 65.6582 69.3674 64.9675 69.3674 63.2324C69.3674 61.9185 69.053 60.8853 67.6604 60.8853C66.2678 60.8853 65.8467 61.9802 65.7793 63.7378H63.2693C63.2918 61.2109 64.4092 58.7908 67.7334 58.7908C70.8386 58.7908 72.0235 60.6887 72.0235 63.3054C72.0235 65.3606 71.4395 66.4443 69.3057 68.7073C67.6211 70.5098 66.5037 72.0484 66.1668 73.2051H72.4614L72.1133 75.44H63.1738Z" fill="#434F62"/>
<path d="M78.908 75.4402V71.3748H73.0625V69.2354L78.0039 58.9875H81.3113V69.241H82.8555L82.6196 71.3692H81.3169V75.4346H78.9136L78.908 75.4402ZM78.908 65.4675C78.908 63.8167 78.9361 62.3792 78.9922 61.0483C78.3745 62.8677 76.5776 66.8264 75.4883 69.2466H78.908V65.4675Z" fill="#434F62"/>
<path d="M83.8721 75.94L88.7349 58.4036H90.7227L85.8767 75.94H83.8721Z" fill="#434F62"/>
<path d="M100.178 58.9875V61.0315C98.0335 64.7881 96.2815 70.1731 95.5964 75.4402H92.8618C93.5862 70.0945 95.72 64.4231 97.5786 61.2393H91.6265V58.9875H100.173H100.178Z" fill="#434F62"/>
<defs>
<linearGradient id="paint0_linear_683_1320" x1="2" y1="33.238" x2="90" y2="33.238" gradientUnits="userSpaceOnUse">
<stop stop-color="#1A8DF8"/>
<stop offset="0.671875" stop-color="#3B4EFD" stop-opacity="0.51"/>
</linearGradient>
<linearGradient id="paint1_linear_683_1320" x1="2" y1="48.238" x2="90" y2="48.238" gradientUnits="userSpaceOnUse">
<stop stop-color="#1A8DF8"/>
<stop offset="0.671875" stop-color="#3B4EFD" stop-opacity="0.51"/>
</linearGradient>
<linearGradient id="paint2_linear_683_1320" x1="2" y1="64" x2="90" y2="64" gradientUnits="userSpaceOnUse">
<stop stop-color="#1A8DF8"/>
<stop offset="0.671875" stop-color="#3B4EFD" stop-opacity="0.51"/>
</linearGradient>
<linearGradient id="paint3_linear_683_1320" x1="2" y1="80.1904" x2="90" y2="80.1904" gradientUnits="userSpaceOnUse">
<stop stop-color="#1A8DF8"/>
<stop offset="0.671875" stop-color="#3B4EFD" stop-opacity="0.51"/>
</linearGradient>
</defs>
</svg>
