<?xml version="1.0" encoding="UTF-8"?><svg id="Layer_1" xmlns="http://www.w3.org/2000/svg" viewBox="0 0 100 100"><path d="M43.76,95.47c-.52,0-.96-.39-1.02-.92l-1.01-9.68-.26-.08c-2.54-.74-5-1.76-7.31-3.04l-.24-.13-7.56,6.13c-.18,.15-.41,.23-.64,.23-.27,0-.53-.11-.73-.3l-10.95-10.94c-.37-.37-.4-.97-.07-1.38l6.13-7.56-.13-.24c-1.28-2.32-2.3-4.78-3.03-7.32l-.07-.26-9.68-1.01c-.53-.06-.92-.5-.92-1.03v-15.48c0-.53,.39-.97,.92-1.03l9.68-1.01,.08-.26c.74-2.54,1.76-5,3.03-7.32l.13-.24-6.13-7.56c-.33-.41-.3-1,.07-1.38l10.95-10.94c.19-.2,.45-.3,.73-.3,.23,0,.46,.08,.64,.23l7.57,6.13,.24-.13c2.31-1.28,4.77-2.3,7.31-3.04l.26-.08,1.01-9.68c.05-.52,.49-.92,1.02-.92h15.49c.53,0,.96,.39,1.02,.92l1.01,9.68,.26,.08c2.54,.74,5,1.76,7.31,3.04l.24,.13,7.57-6.13c.18-.15,.41-.23,.64-.23,.28,0,.53,.11,.73,.3l10.96,10.94c.37,.37,.4,.97,.07,1.38l-6.13,7.56,.13,.24c1.28,2.32,2.3,4.78,3.03,7.32l.08,.26,9.68,1.01c.53,.06,.92,.5,.92,1.03v15.48c0,.53-.39,.97-.92,1.03l-9.68,1.01-.08,.26c-.74,2.54-1.76,5-3.03,7.32l-.13,.24,6.13,7.56c.33,.41,.3,1-.07,1.38l-10.95,10.94c-.19,.2-.45,.3-.73,.3-.23,0-.46-.08-.64-.23l-7.57-6.13-.24,.13c-2.31,1.28-4.78,2.3-7.31,3.04l-.26,.08-1.01,9.68c-.06,.52-.49,.92-1.02,.92h-15.5Zm-9.93-16.11c.18,0,.36,.05,.52,.14,2.68,1.58,5.57,2.78,8.59,3.57,.42,.1,.72,.46,.77,.88l.99,9.47h13.64l.99-9.47c.04-.42,.35-.77,.76-.88,3.02-.79,5.91-1.99,8.6-3.57,.16-.09,.33-.14,.51-.14,.24,0,.47,.08,.65,.23l7.39,6,9.64-9.64-5.99-7.4c-.27-.33-.3-.8-.09-1.16,1.58-2.69,2.78-5.58,3.56-8.6,.11-.41,.47-.72,.89-.76l9.46-.99v-13.63l-9.46-.99c-.42-.04-.78-.35-.89-.76-.78-3.02-1.98-5.91-3.56-8.6-.22-.37-.18-.83,.09-1.16l5.99-7.4-9.64-9.64-7.39,6c-.18,.15-.42,.23-.65,.23-.18,0-.36-.05-.52-.14-2.69-1.58-5.58-2.78-8.59-3.57-.42-.1-.72-.46-.76-.88l-.99-9.47h-13.64l-.99,9.47c-.04,.42-.35,.77-.76,.88-3.02,.79-5.91,1.99-8.6,3.57-.15,.09-.33,.14-.51,.14-.24,0-.47-.08-.65-.23l-7.4-6-9.64,9.64,5.99,7.4c.27,.33,.3,.8,.09,1.16-1.58,2.69-2.78,5.58-3.56,8.6-.11,.41-.46,.72-.89,.76l-9.46,.99v13.63l9.46,.99c.42,.04,.78,.35,.89,.76,.79,3.02,1.99,5.91,3.56,8.6,.22,.37,.18,.83-.09,1.16l-5.99,7.4,9.64,9.64,7.39-6c.18-.15,.42-.23,.65-.23Zm17.68-6.54c-12.46,0-22.6-10.14-22.6-22.59s10.14-22.61,22.6-22.61c12.45,.01,22.59,10.16,22.6,22.61,0,12.46-10.14,22.59-22.6,22.59Zm0-18.41c-6.47,0-12.2,4.36-13.93,10.6l-.07,.24,.18,.17c3.79,3.45,8.69,5.35,13.82,5.35s10.03-1.9,13.82-5.35l.18-.17-.07-.24c-1.35-4.87-5.21-8.73-10.08-10.07-1.27-.35-2.57-.53-3.87-.53Zm0-2.05c2.04,0,4.05,.38,5.97,1.12,4.31,1.68,7.75,5.11,9.42,9.43l.25,.65,.43-.54c7.06-8.86,5.6-21.82-3.27-28.88-3.68-2.93-8.1-4.48-12.8-4.48-6.3,0-12.16,2.82-16.09,7.75-6,7.54-6.01,18.07-.01,25.61l.43,.54,.25-.65c2.45-6.3,8.64-10.54,15.4-10.54Zm0-3.08c-3.9,0-7.08-3.17-7.08-7.07,0-1.89,.73-3.67,2.07-5.01,1.34-1.34,3.11-2.07,5-2.08,3.9,0,7.07,3.18,7.08,7.08,0,3.9-3.17,7.08-7.07,7.08h0Zm0-12.1c-2.77,0-5.02,2.25-5.02,5.02,0,1.34,.52,2.6,1.47,3.55,.95,.95,2.21,1.47,3.55,1.47,2.77,0,5.02-2.26,5.03-5.02,0-2.77-2.25-5.02-5.02-5.03h0Z" style="fill:#fff; fill-rule:evenodd;"/></svg>