<?xml version="1.0" encoding="UTF-8"?><svg id="Layer_1" xmlns="http://www.w3.org/2000/svg" viewBox="0 0 100 100"><path d="M70.55,88.89c-.59,0-1.07-.48-1.07-1.07v-8.81c0-.59,.48-1.07,1.06-1.07h17.61c.59,0,1.07,.48,1.07,1.07v8.81c0,.59-.48,1.07-1.07,1.07h-17.61Zm1.07-2.13h15.48v-6.67h-15.48v6.67Z" style="fill:#fff;"/><path d="M35.32,94.76c-.59,0-1.07-.48-1.07-1.07v-7.74H5.97c-.59,0-1.07-.48-1.07-1.07V34.99c0-.59,.48-1.07,1.07-1.07h28.29v-3.34c0-.59,.48-1.07,1.07-1.07h5.43l.07-.31c.59-2.48,1.57-4.83,2.89-7.01l.17-.27-3.83-3.83c-.2-.2-.31-.47-.31-.75s.11-.55,.31-.75l6.23-6.23c.2-.2,.47-.31,.75-.31s.55,.11,.75,.31l3.83,3.83,.27-.17c2.17-1.33,4.53-2.3,7.01-2.89l.31-.07V5.64c0-.59,.48-1.07,1.07-1.07h8.81c.59,0,1.07,.48,1.07,1.07v5.43l.31,.07c2.48,.59,4.84,1.57,7.01,2.9l.27,.17,3.83-3.83c.19-.19,.46-.3,.75-.3s.57,.11,.75,.29l6.23,6.23c.2,.2,.31,.47,.31,.75s-.11,.55-.31,.76l-3.83,3.83,.17,.27c1.33,2.17,2.3,4.53,2.9,7.01l.07,.31h5.43c.59,0,1.07,.48,1.07,1.07v8.8c0,.59-.48,1.07-1.07,1.07h-5.43s-.07,.31-.07,.31c-.59,2.48-1.57,4.83-2.89,7.01l-.17,.27,3.83,3.83c.2,.2,.31,.47,.31,.75s-.11,.55-.31,.75l-2.55,2.55h7.28c.59,0,1.07,.48,1.07,1.07v36.69c0,.59-.48,1.07-1.07,1.07H35.32Zm1.07-2.13h56.57v-28.69h-19.48c-.38,0-.74-.21-.93-.54l-5.56-9.74h-30.6v38.96Zm-29.35-8.81h27.22v-31.22c0-.59,.48-1.07,1.07-1.07h32.29c.38,0,.74,.21,.93,.54l2.21,3.86h7.54v-8.14H41.19c-.41,0-.77-.23-.95-.59l-5.58-11.15H7.04v47.76Zm67.06-22.01h18.86v-3.74h-21l2.13,3.74Zm-37.71-27.07l2.53,5.05h40.43c.59,0,1.07,.48,1.07,1.07v15.08h3.31l3.3-3.31-3.69-3.69c-.36-.36-.42-.93-.13-1.36,1.72-2.53,2.89-5.36,3.46-8.39,.1-.5,.54-.87,1.05-.87h5.23v-6.67h-5.23c-.51,0-.95-.37-1.05-.87-.58-3.03-1.74-5.86-3.46-8.39-.29-.42-.24-.99,.13-1.36l3.69-3.69-4.72-4.72-3.69,3.69c-.2,.2-.47,.31-.75,.31-.21,0-.42-.06-.6-.19-2.53-1.72-5.35-2.89-8.39-3.47-.5-.1-.87-.54-.87-1.05V6.7h-6.67v5.23c0,.51-.37,.95-.87,1.05-3.03,.58-5.86,1.74-8.39,3.46-.18,.12-.39,.19-.6,.19-.29,0-.55-.11-.76-.31l-3.69-3.69-4.72,4.72,3.69,3.69c.36,.36,.42,.93,.13,1.36-1.72,2.54-2.89,5.36-3.46,8.39-.1,.5-.54,.87-1.05,.87h-5.23v3.08Zm5.46,10.92h36.43v-3.74H39.99l1.87,3.74Z" style="fill:#fff;"/><path d="M81.19,35.97c.02-.32,.03-.65,.03-.98,0-9.12-7.42-16.54-16.54-16.54s-16.54,7.42-16.54,16.54c0,.33,0,.65,.03,.98l-2.13,.18c-.02-.38-.04-.77-.04-1.16,0-10.3,8.38-18.68,18.68-18.68s18.68,8.38,18.68,18.68c0,.39-.01,.77-.04,1.16l-2.13-.18Z" style="fill:#fff;"/></svg>