<?xml version="1.0" encoding="UTF-8"?><svg id="Layer_1" xmlns="http://www.w3.org/2000/svg" viewBox="0 0 100 100"><path d="M28.68,96.36c-2.29,0-4.15-1.86-4.15-4.15v-6.2c0-2.29,1.86-4.15,4.15-4.15h12.4c1.75,0,3.31,1.12,3.9,2.77l.12,.33h28.55c4.54,0,8.25-3.71,8.25-8.25v-2.05h-5.15c-2.29,0-4.15-1.86-4.15-4.15v-24.81c0-2.29,1.86-4.15,4.15-4.15h5.1l-.03-.53c-.84-15.89-13.97-28.36-29.88-28.38h-3.1c-9.67,.03-18.78,4.74-24.39,12.61l-.56,.79H59.7c4.85,0,8.8,3.95,8.8,8.8v31.01c0,4.85-3.95,8.8-8.8,8.8H25.97l-12.16,9.09c-.18,.14-.4,.21-.63,.21-.58,0-1.05-.47-1.05-1.05v-8.3l-.42-.07c-4.25-.72-7.33-4.38-7.34-8.68v-31.01c0-4.85,3.95-8.8,8.8-8.8h1.2l.14-.28C21,12.58,34.16,4.37,48.84,4.33h3.1c20.67,.03,37.46,16.23,38.23,36.89v.39s.4,.08,.4,.08c3.38,.68,5.83,3.67,5.84,7.11v18.61c0,3.43-2.44,6.42-5.8,7.11l-.4,.08v2.11c0,9.12-7.44,16.55-16.56,16.56h-28.55l-.12,.33c-.58,1.65-2.15,2.76-3.9,2.77h-12.4Zm0-12.4c-1.13,0-2.05,.92-2.05,2.05v6.2c0,1.13,.92,2.05,2.05,2.05h12.4c1.13,0,2.05-.92,2.05-2.05v-6.2c0-1.13-.92-2.05-2.05-2.05h-12.4Zm16.56,7.2h28.41c7.96,0,14.45-6.49,14.45-14.45v-2.05h-4.1v2.05c0,5.7-4.65,10.35-10.35,10.35h-28.41v4.1ZM13.18,28.14c-3.7,0-6.7,3.01-6.7,6.7v31.01c0,3.7,3.01,6.7,6.7,6.7,.58,0,1.05,.47,1.05,1.05v7.2l10.72-8.04c.18-.14,.4-.21,.63-.21H59.7c3.7,0,6.7-3.01,6.7-6.7v-31.01c0-3.7-3.01-6.7-6.7-6.7H13.18Zm70.83,44.42h5.15c2.84,0,5.15-2.31,5.15-5.15v-18.61c0-2.84-2.31-5.15-5.15-5.15h-5.15v28.91Zm-7.25-28.91c-1.13,0-2.05,.92-2.05,2.05v24.81c0,1.13,.92,2.05,2.05,2.05h5.15v-28.91h-5.15ZM51.94,10.53c17.11,.03,31.16,13.44,31.98,30.54l.02,.48h4.14l-.02-.52c-.86-19.37-16.73-34.57-36.12-34.59h-3.1c-13.23,.03-25.39,7.26-31.74,18.87l-.41,.74h4.67l.2-.24c5.88-9.53,16.08-15.24,27.27-15.27h3.1Z" style="fill:#fff;"/></svg>