<?xml version="1.0" encoding="UTF-8"?><svg id="Layer_1" xmlns="http://www.w3.org/2000/svg" xmlns:xlink="http://www.w3.org/1999/xlink" viewBox="0 0 100 100"><defs><linearGradient id="linear-gradient" x1="10.3" y1="55.08" x2="93.18" y2="55.08" gradientUnits="userSpaceOnUse"><stop offset="0" stop-color="#1073ba"/><stop offset="1" stop-color="#085996"/></linearGradient><linearGradient id="linear-gradient-2" x1="9.75" y1="46.94" x2="64.45" y2="46.94" xlink:href="#linear-gradient"/></defs><path d="M22.94,96.17c-3.63,0-6.8-2.47-7.72-6l-1.76-6.75c-.13-.51,.18-1.04,.69-1.18,.08-.02,.16-.03,.24-.03,.44,0,.82,.3,.93,.72l1.75,6.75c.7,2.68,3.11,4.56,5.86,4.56,.46,0,.92-.05,1.37-.15l8.64-1.96c1.89-.67,3.25-1.86,4-3.45,.79-1.7,.74-3.58,.35-4.61l-8.73-23.29-11.79,3.37c-3.31,.95-5.23,4.3-4.36,7.63l1.4,5.38c.06,.25,.03,.51-.1,.73-.13,.22-.34,.38-.59,.45-.08,.02-.16,.03-.24,.03-.44,0-.82-.3-.93-.72l-1.4-5.38c-.54-2.09-.25-4.27,.82-6.15,1.07-1.87,2.8-3.23,4.88-3.83l12.51-3.58,4.75-2.51v-12.7c0-2.84,2.31-5.15,5.15-5.15h3.66c2.84,0,5.15,2.31,5.15,5.15v5.29l3.3-1.75v-14.14c0-3.18,2.58-5.76,5.76-5.76h2.43c3.18,0,5.76,2.59,5.76,5.76v29.21l.44-.04c.87-.08,1.73-.24,2.57-.48l.29-.08V19.73c0-3.16,2.57-5.73,5.73-5.73h2.49c3.16,0,5.73,2.57,5.73,5.73v4.07c0,.53-.43,.96-.96,.96s-.96-.43-.96-.96v-4.07c0-2.1-1.71-3.8-3.8-3.8h-2.49c-2.1,0-3.8,1.71-3.8,3.8V60.74l.56-.25c2.81-1.26,9.12-6.22,9.39-6.43l.15-.12V29.38c0-.56,.44-.99,.96-.99,.27,0,.51,.11,.69,.29,.18,.18,.28,.43,.27,.69v23.27l.65-.52s2.03-1.61,4.5-1.61c1.55,0,2.96,.62,4.19,1.85,.66,.66,1.9,2.47,1.83,4.61-.05,1.65-.84,3.16-2.35,4.5l-14.54,11.95c-1.92,1.58-4.21,2.73-6.63,3.32l-30.28,7.41,.08,.38c.9,4.25-1.82,8.5-6.06,9.46-.1,.03-7.78,2.17-10.45,2.17ZM55.28,47.24c-.5,0-.99,.12-1.45,.37l-23.44,12.44,8.35,22.28,30.47-7.46c2.14-.53,4.16-1.54,5.86-2.93l14.55-11.96c3.18-3.18,.64-5.96,.34-6.27-.8-.83-1.89-1.29-3.04-1.29-.88,0-1.73,.27-2.45,.78l-11.11,7.81c-2.83,1.99-6.15,3.04-9.61,3.04h-9.95c-1.14,0-2.12-.7-2.49-1.77-.38-1.07-.05-2.23,.83-2.94l2.48-2.01c1.88-1.52,3.12-3.68,3.67-6.4,.24-1.2-.2-2.35-1.17-3.08-.54-.41-1.18-.62-1.83-.62Zm0-1.93c1.08,0,2.11,.35,2.99,1.01,1.57,1.17,2.3,3.09,1.91,5.01-.65,3.17-2.11,5.7-4.35,7.51l-2.48,2.01c-.06,.05-.5,.43-.34,.86,.1,.27,.36,.41,.79,.42h9.01s0-29.23,0-29.23c0-2.12-1.72-3.84-3.83-3.84h-2.43c-2.11,0-3.83,1.72-3.83,3.84v13.08l.56-.25c.64-.28,1.32-.42,2.01-.42Zm-19.83,9.86l10.1-5.36v-6.31c0-1.78-1.45-3.22-3.22-3.22h-3.66c-1.78,0-3.22,1.45-3.22,3.22h0v11.68Z" style="fill:url(#linear-gradient);"/><path d="M26.34,90.05c-2.74,0-4.98-2.23-4.98-4.98s2.23-4.98,4.98-4.98,4.97,2.23,4.97,4.98-2.23,4.98-4.97,4.98Zm0-8.02c-1.68,0-3.05,1.37-3.05,3.05s1.37,3.05,3.05,3.05,3.05-1.37,3.05-3.05-1.37-3.05-3.05-3.05ZM13.66,47.16c-1.29,0-2.39-.75-2.79-1.15-1.49-1.47-1.5-3.88-.02-5.37l22-22.17c.72-.73,1.68-1.13,2.69-1.13,.6,0,1.21,.15,1.75,.43l4.78,2.47,9.26-8.91-1.12,.1s-.1,0-.26,0c-1.2,0-4-.37-4-3.81,0-2.09,1.7-3.8,3.8-3.8h10.91c1.74,0,3.78,.98,3.8,3.76v11.04c0,2.09-1.7,3.8-3.8,3.8-1.08,0-1.94-.34-2.57-1-1.34-1.42-1.23-3.89-1.23-3.92l.05-1.01-11.53,11.1c-.71,.68-1.65,1.06-2.63,1.06-.6,0-1.21-.15-1.74-.42l-4.72-2.44-20.04,20.2c-.78,.78-1.64,1.17-2.58,1.17h0Zm21.79-27.95c-.62,0-.99,.37-1.2,.59L12.22,41.99c-.72,.73-.72,1.92,0,2.64,.28,.28,.78,.58,1.35,.58,.47,0,.91-.2,1.3-.58l20.54-20.7c.18-.18,.43-.29,.69-.29,.15,0,.31,.04,.44,.11l5.35,2.77c.26,.14,.56,.21,.86,.21,.49,0,.95-.19,1.29-.52l13.11-12.62c.18-.17,.42-.27,.67-.27s.5,.1,.68,.28c.18,.18,.28,.42,.28,.68v4.35c0,1.03,.84,1.87,1.87,1.87s1.87-.84,1.87-1.87V7.65c0-.89-.33-1.9-1.87-1.9h-10.91c-1.03,0-1.87,.84-1.87,1.87s.84,1.87,1.87,1.87h3.88c.26,0,.51,.11,.7,.3,.37,.38,.36,.99-.03,1.36l-11.38,10.95c-.18,.17-.42,.27-.67,.27-.15,0-.31-.04-.44-.11l-5.39-2.79c-.34-.18-.66-.27-.96-.27Z" style="fill:url(#linear-gradient-2);"/></svg>