<svg width="512" height="512" viewBox="0 0 512 512" fill="none" xmlns="http://www.w3.org/2000/svg">
<g clip-path="url(#clip0_165_1186)">
<mask id="mask0_165_1186" style="mask-type:luminance" maskUnits="userSpaceOnUse" x="0" y="0" width="512" height="512">
<path d="M512 0H0V512H512V0Z" fill="white"/>
</mask>
<g mask="url(#mask0_165_1186)">
<path d="M436.796 362.77C425.508 347.603 409.584 336.526 391.437 331.219L346.153 317.098H346.143L313.75 306.998C310.9 306.109 307.836 306.186 305.033 307.215C303.881 306.192 302.958 304.937 302.325 303.532C301.692 302.127 301.362 300.604 301.358 299.063V297.037L351.382 284.03C359.677 281.872 367.022 277.023 372.265 270.242C377.508 263.461 380.353 255.132 380.354 246.56V221.845C383.906 220.44 386.955 218.001 389.105 214.843C391.255 211.685 392.407 207.955 392.412 204.134V171.906C392.426 168.084 391.281 164.347 389.129 161.187C386.977 158.028 383.919 155.594 380.357 154.206V147.753C380.357 142.778 380.043 137.808 379.418 132.872C379.197 131.135 378.295 129.557 376.911 128.485C375.526 127.412 373.773 126.934 372.036 127.155C370.298 127.376 368.72 128.278 367.648 129.662C366.576 131.047 366.097 132.8 366.318 134.537C366.873 138.921 367.152 143.335 367.152 147.753V160.259C362.699 159.187 358.358 157.692 354.188 155.795C353.956 155.689 353.727 155.581 353.497 155.474C344.176 151.096 333.797 143.631 327.058 130.974C326.697 130.293 326.35 129.605 326.015 128.91C325.83 128.518 325.649 128.123 325.472 127.726C325.307 127.359 325.139 126.997 324.98 126.626C324.637 125.817 324.306 124.998 323.995 124.164C323.539 122.935 322.727 121.87 321.662 121.104C320.598 120.338 319.33 119.906 318.019 119.864C317.919 119.864 317.819 119.87 317.726 119.872C317.565 119.872 317.404 119.872 317.244 119.885C316.098 119.988 314.998 120.388 314.054 121.047C313.93 121.133 313.803 121.214 313.683 121.309C313.58 121.391 313.477 121.473 313.373 121.553L313.173 121.706L313.016 121.826L312.506 122.216L312.344 122.339L311.859 122.706L311.748 122.79C299.534 131.951 231.571 180.158 166.348 170.958L166.002 170.907C163.741 170.579 161.492 170.182 159.255 169.717C158.965 169.656 158.673 169.598 158.384 169.535C157.34 169.309 156.299 169.068 155.262 168.81C154.84 168.71 154.421 168.591 154.001 168.481C152.847 168.181 151.698 167.861 150.554 167.522C149.221 167.122 147.894 166.697 146.575 166.247C145.449 165.865 144.33 165.462 143.219 165.039C142.274 164.679 141.33 164.309 140.389 163.919C140.303 163.883 140.215 163.85 140.129 163.819V147.75C140.16 120.269 151.091 93.9216 170.524 74.4896C189.957 55.0576 216.304 44.1278 243.786 44.0985H263.502C283.765 44.0884 303.587 50.0197 320.514 61.1585C337.441 72.2973 350.73 88.1547 358.738 106.768C359.081 107.565 359.577 108.285 360.199 108.889C360.821 109.494 361.555 109.97 362.361 110.29C363.166 110.61 364.027 110.769 364.893 110.757C365.76 110.744 366.616 110.561 367.412 110.218C368.208 109.875 368.929 109.379 369.533 108.757C370.137 108.136 370.613 107.401 370.933 106.596C371.254 105.791 371.412 104.93 371.4 104.063C371.388 103.196 371.205 102.341 370.862 101.544C361.834 80.5615 346.852 62.6858 327.77 50.1294C308.688 37.573 286.344 30.8869 263.501 30.8985H243.787C212.807 30.9334 183.105 43.2558 161.199 65.1622C139.292 87.0686 126.97 116.77 126.935 147.75V156.905C124.653 158.685 122.806 160.96 121.534 163.559C120.262 166.158 119.597 169.012 119.592 171.905V204.132C119.593 207.028 120.254 209.886 121.527 212.487C122.799 215.088 124.649 217.365 126.935 219.142V246.298C126.924 254.939 129.809 263.335 135.129 270.144C140.449 276.953 147.896 281.783 156.283 283.863L210.643 297.418V299.059C210.639 300.601 210.31 302.124 209.676 303.529C209.043 304.934 208.12 306.19 206.968 307.213C204.166 306.185 201.103 306.108 198.253 306.994L165.859 317.094H165.848L120.566 331.22C108.196 334.853 96.7835 341.177 87.1461 349.74C77.5087 358.303 69.8854 368.892 64.823 380.748C64.023 382.608 63.2897 384.494 62.623 386.405C62.3374 387.224 62.2158 388.09 62.2651 388.956C62.3144 389.821 62.5336 390.668 62.9104 391.449C63.2871 392.23 63.8139 392.929 64.4607 393.506C65.1075 394.083 65.8616 394.527 66.68 394.812C67.4984 395.098 68.3651 395.22 69.2305 395.17C70.0959 395.121 70.9431 394.902 71.7238 394.525C72.5044 394.148 73.2032 393.622 73.7803 392.975C74.3574 392.328 74.8014 391.574 75.087 390.755C75.6537 389.133 76.2757 387.531 76.953 385.949C81.2557 375.872 87.7366 366.872 95.9303 359.596C104.124 352.32 113.827 346.949 124.343 343.868L124.443 343.838L165.688 330.978L200.162 370.323C203.534 374.185 207.979 376.955 212.931 378.281C217.884 379.606 223.118 379.426 227.968 377.764L255.999 368.215L281.205 376.801C286.891 378.75 293.028 378.961 298.834 377.407C304.641 375.853 309.852 372.605 313.805 368.077L346.312 330.977L387.557 343.837L387.657 343.867C403.07 348.406 416.6 357.811 426.224 370.678C435.848 383.544 441.049 399.18 441.049 415.247V467.036C441.049 467.265 440.958 467.485 440.796 467.647C440.634 467.809 440.415 467.9 440.186 467.9H404.531V407.559C404.531 406.693 404.36 405.834 404.029 405.034C403.697 404.233 403.211 403.505 402.598 402.893C401.985 402.28 401.258 401.794 400.457 401.462C399.656 401.13 398.798 400.959 397.931 400.959C397.064 400.959 396.206 401.13 395.405 401.462C394.605 401.794 393.877 402.28 393.264 402.893C392.651 403.505 392.165 404.233 391.833 405.034C391.502 405.834 391.331 406.693 391.331 407.559V467.898H120.671V407.559C120.671 405.809 119.976 404.13 118.738 402.893C117.5 401.655 115.821 400.959 114.071 400.959C112.321 400.959 110.642 401.655 109.404 402.893C108.166 404.13 107.471 405.809 107.471 407.559V467.898H71.812C71.583 467.898 71.3635 467.807 71.2017 467.645C71.0399 467.483 70.949 467.263 70.949 467.034V419.498C70.949 417.748 70.2537 416.069 69.0159 414.832C67.7782 413.594 66.0995 412.898 64.349 412.898C62.5986 412.898 60.9199 413.594 59.6821 414.832C58.4444 416.069 57.749 417.748 57.749 419.498V467.033C57.7535 470.762 59.2365 474.337 61.8728 476.973C64.5091 479.61 68.0835 481.093 71.812 481.098H440.186C443.915 481.094 447.49 479.611 450.127 476.974C452.764 474.337 454.247 470.762 454.251 467.032V415.247C454.297 396.322 448.168 377.898 436.796 362.77ZM348.059 271.252L316.359 279.495C316.765 279.201 317.159 278.889 317.559 278.595C317.724 278.472 317.888 278.346 318.052 278.222C319.179 277.372 320.289 276.499 321.381 275.603L321.807 275.251C322.97 274.286 324.112 273.296 325.233 272.281L325.396 272.135C327.183 270.509 328.913 268.821 330.584 267.072C330.709 266.942 330.831 266.809 330.954 266.679C331.779 265.806 332.591 264.92 333.388 264.021L340.838 262.743C346.71 261.747 352.222 259.243 356.835 255.476C361.448 251.708 365.003 246.807 367.152 241.252V246.565C367.152 252.214 365.277 257.703 361.822 262.172C358.367 266.64 353.527 269.836 348.06 271.258L348.059 271.252ZM358.266 209.725C358.561 207.552 358.787 205.358 358.945 203.142C358.961 202.918 358.973 202.694 358.988 202.47C359.043 201.604 359.088 200.737 359.122 199.87C359.133 199.59 359.146 199.31 359.154 199.029C359.187 197.956 359.209 196.882 359.209 195.801V171.81C363.771 173.228 368.461 174.193 373.212 174.692H373.235C374.263 174.773 375.295 174.611 376.248 174.221C377.202 173.83 378.052 173.222 378.728 172.444C378.783 172.381 378.828 172.312 378.884 172.244C378.984 172.124 379.078 172.003 379.166 171.876C379.177 171.859 379.192 171.843 379.204 171.827V204.127C379.202 205.627 378.623 207.069 377.587 208.154C376.552 209.239 375.139 209.885 373.641 209.957C373.605 209.957 373.569 209.957 373.532 209.957C373.432 209.957 373.325 209.966 373.21 209.974H358.234C358.247 209.891 358.255 209.807 358.267 209.723L358.266 209.725ZM347.793 242.95C348.254 242.056 348.702 241.156 349.137 240.25C349.774 238.917 350.384 237.569 350.969 236.205C351.169 235.743 351.356 235.278 351.547 234.813C351.88 234.005 352.202 233.191 352.512 232.371C352.655 231.993 352.804 231.617 352.944 231.238C353.325 230.193 353.688 229.142 354.035 228.085C354.165 227.69 354.295 227.296 354.421 226.9C354.766 225.812 355.093 224.715 355.402 223.611C355.442 223.468 355.49 223.328 355.53 223.185H356.281V228.772C356.288 232.55 355.285 236.26 353.377 239.52C351.468 242.779 348.724 245.47 345.427 247.313C345.595 247.023 345.747 246.724 345.912 246.433C346.292 245.761 346.665 245.084 347.03 244.403C347.286 243.92 347.543 243.439 347.793 242.954V242.95ZM136.244 209.458L136.226 209.452C135.204 208.989 134.336 208.241 133.727 207.298C133.118 206.355 132.794 205.257 132.792 204.134V175.029C132.985 175.114 133.182 175.195 133.375 175.28C134.333 175.698 135.296 176.103 136.265 176.493C136.554 176.61 136.842 176.728 137.132 176.842C138.022 177.194 138.917 177.536 139.817 177.866L139.927 177.907C144.138 179.446 148.433 180.746 152.79 181.801V195.801C152.79 196.882 152.812 197.956 152.845 199.029C152.854 199.31 152.866 199.589 152.877 199.87C152.911 200.741 152.956 201.608 153.011 202.47C153.025 202.694 153.037 202.918 153.054 203.142C153.211 205.356 153.437 207.551 153.733 209.725C153.744 209.809 153.751 209.894 153.764 209.977H138.636C137.81 209.976 136.995 209.798 136.243 209.456L136.244 209.458ZM159.475 271.058C153.948 269.687 149.04 266.504 145.535 262.017C142.029 257.53 140.128 251.998 140.135 246.303V223.18H156.473C156.512 223.321 156.559 223.458 156.598 223.599C157.025 225.123 157.488 226.637 157.986 228.139C158.343 229.22 158.713 230.294 159.105 231.358C159.249 231.749 159.405 232.137 159.55 232.527C160.403 234.765 161.337 236.969 162.35 239.141C162.55 239.579 162.75 240.018 162.964 240.453C163.412 241.384 163.878 242.305 164.354 243.219C165.327 245.101 166.361 246.949 167.454 248.763C168.266 250.115 169.109 251.449 169.982 252.763C170.855 254.078 171.763 255.378 172.705 256.663C173.005 257.068 173.305 257.474 173.605 257.875C174.302 258.796 175.013 259.705 175.74 260.602C175.982 260.902 176.22 261.202 176.465 261.502C176.956 262.096 177.452 262.683 177.955 263.264C178.075 263.403 178.198 263.537 178.318 263.675C179.251 264.742 180.204 265.789 181.177 266.815C181.341 266.987 181.506 267.157 181.671 267.329C183.767 269.508 185.955 271.592 188.234 273.581C188.361 273.691 188.485 273.803 188.612 273.912C190.449 275.5 192.339 277.022 194.284 278.477L194.378 278.546C195.213 279.169 196.045 279.796 196.9 280.395L159.479 271.063L159.475 271.058ZM171.499 226.808L171.427 226.608C171.191 225.964 170.963 225.317 170.742 224.667L170.7 224.54C170.041 222.588 169.451 220.615 168.929 218.621C168.892 218.48 168.853 218.34 168.816 218.2C168.693 217.72 168.578 217.236 168.462 216.753C168.38 216.412 168.298 216.072 168.221 215.729C168.044 214.948 167.877 214.164 167.721 213.378C167.5 212.262 167.3 211.141 167.121 210.016C167.039 209.503 166.964 208.989 166.891 208.475C166.855 208.224 166.819 207.975 166.785 207.72C166.709 207.15 166.642 206.58 166.577 206.008C166.553 205.798 166.527 205.588 166.505 205.377C166.441 204.771 166.385 204.164 166.333 203.558C166.317 203.372 166.298 203.186 166.283 203C166.234 202.378 166.193 201.756 166.157 201.133C166.146 200.955 166.132 200.779 166.123 200.6C166.09 199.966 166.067 199.332 166.046 198.7C166.041 198.531 166.031 198.364 166.027 198.2C166.006 197.4 165.995 196.6 165.994 195.8V184.24C176.198 185.504 186.509 185.656 196.745 184.693C197.092 184.662 197.445 184.624 197.79 184.593C198.657 184.511 199.523 184.421 200.39 184.325C201.16 184.241 201.929 184.15 202.698 184.054C202.915 184.027 203.133 183.997 203.351 183.968C221.27 181.668 240.122 176.348 259.598 167.99C279.146 159.521 297.757 149.034 315.126 136.698C321.93 149.713 332.745 160.19 345.969 166.578C345.986 167.278 346.005 167.973 346.005 168.647V195.798C346.005 196.598 345.994 197.398 345.972 198.198C345.972 198.367 345.958 198.534 345.953 198.698C345.934 199.332 345.909 199.966 345.876 200.598C345.866 200.777 345.852 200.953 345.842 201.131C345.805 201.754 345.765 202.376 345.716 202.998C345.701 203.184 345.683 203.37 345.666 203.556C345.615 204.164 345.558 204.77 345.494 205.375C345.472 205.586 345.446 205.795 345.422 206.006C345.357 206.578 345.289 207.148 345.214 207.718C345.181 207.97 345.144 208.218 345.108 208.473C344.991 209.296 344.864 210.117 344.725 210.937C344.525 212.109 344.303 213.276 344.058 214.437C343.967 214.868 343.874 215.297 343.777 215.725C343.7 216.069 343.617 216.411 343.535 216.753C343.42 217.234 343.306 217.716 343.182 218.194C343.144 218.342 343.103 218.488 343.064 218.635C342.545 220.615 341.959 222.576 341.304 224.517L341.253 224.67C341.034 225.314 340.808 225.954 340.575 226.591L340.495 226.811C337.163 235.846 332.402 244.286 326.395 251.811L311.57 254.354C309.608 250.896 306.625 248.127 303.031 246.427C299.436 244.726 295.404 244.177 291.485 244.854L269.967 248.544C265.873 249.247 262.113 251.247 259.243 254.251C256.373 257.254 254.545 261.1 254.029 265.222C253.512 269.344 254.335 273.522 256.376 277.141C258.416 280.759 261.567 283.625 265.361 285.315C262.251 285.638 259.127 285.8 256.001 285.8C243.341 285.814 230.822 283.141 219.271 277.957C219.022 277.845 218.771 277.731 218.526 277.617C196.737 267.579 179.825 249.301 171.504 226.8L171.499 226.808ZM299.787 267.498C299.321 268.161 298.729 268.724 298.044 269.155C297.36 269.587 296.596 269.879 295.798 270.013L274.276 273.703C272.676 273.955 271.042 273.566 269.726 272.622C268.411 271.678 267.52 270.253 267.247 268.657C266.973 267.061 267.339 265.422 268.266 264.093C269.192 262.765 270.604 261.855 272.196 261.559L293.716 257.869C294.917 257.664 296.152 257.819 297.264 258.315C298.377 258.811 299.318 259.626 299.968 260.656C300.618 261.687 300.947 262.887 300.915 264.105C300.883 265.323 300.49 266.504 299.787 267.498ZM223.712 365.267C221.337 366.082 218.772 366.17 216.347 365.521C213.921 364.872 211.743 363.515 210.092 361.623L179.475 326.68L202.183 319.6C202.247 319.581 202.316 319.578 202.381 319.594C202.447 319.609 202.507 319.641 202.556 319.687L243.529 358.517L223.712 365.267ZM217.34 315.51C221.506 311.046 223.828 305.17 223.84 299.063V293.898C224.269 294.039 224.704 294.16 225.14 294.298C225.357 294.367 225.576 294.432 225.793 294.498C227.1 294.898 228.413 295.272 229.734 295.62C229.971 295.682 230.208 295.747 230.446 295.807C231.179 295.995 231.917 296.176 232.658 296.349C232.85 296.394 233.042 296.433 233.235 296.476C234.948 296.863 236.671 297.206 238.402 297.504C239.023 297.61 239.644 297.719 240.267 297.814C241.205 297.958 242.148 298.089 243.095 298.206C243.595 298.268 244.088 298.322 244.585 298.377C245.385 298.466 246.188 298.545 246.993 298.614C247.332 298.643 247.668 298.678 248.008 298.705C249.138 298.792 250.274 298.855 251.408 298.905C251.729 298.919 252.051 298.931 252.372 298.942C253.572 298.983 254.782 299.012 255.996 299.012C257.21 299.012 258.416 298.983 259.62 298.942C261.077 298.894 262.533 298.815 263.988 298.705C264.327 298.68 264.664 298.643 265.003 298.614C265.808 298.544 266.611 298.465 267.411 298.377C267.911 298.322 268.405 298.268 268.901 298.206C269.847 298.088 270.79 297.957 271.729 297.814C272.352 297.719 272.973 297.614 273.594 297.504C275.327 297.206 277.05 296.863 278.761 296.476C278.953 296.433 279.146 296.393 279.338 296.348C280.077 296.177 280.815 295.996 281.55 295.806C281.788 295.745 282.025 295.681 282.262 295.619C283.583 295.272 284.896 294.898 286.203 294.497C286.421 294.43 286.639 294.365 286.856 294.297C287.287 294.162 287.721 294.041 288.156 293.897V299.063C288.168 305.17 290.49 311.046 294.656 315.51L255.998 352.146L217.338 315.51H217.34ZM303.876 359.379C301.644 361.937 298.7 363.772 295.421 364.65C292.141 365.527 288.674 365.408 285.463 364.306L268.471 358.518L309.444 319.688C309.493 319.642 309.554 319.61 309.619 319.594C309.685 319.579 309.754 319.582 309.818 319.602L332.525 326.682L303.876 359.379Z" fill="url(#paint0_linear_165_1186)"/>
<path d="M198.293 397.545H148.568C145.493 397.548 142.544 398.772 140.369 400.946C138.195 403.121 136.971 406.069 136.968 409.145V431.173C136.971 434.248 138.195 437.197 140.369 439.372C142.544 441.546 145.493 442.77 148.568 442.773H198.293C201.369 442.77 204.317 441.547 206.492 439.372C208.667 437.197 209.89 434.248 209.893 431.173V409.146C209.89 406.07 208.666 403.122 206.492 400.947C204.317 398.772 201.369 397.549 198.293 397.545ZM196.693 429.568H150.168V410.747H196.689L196.693 429.568Z" fill="url(#paint1_linear_165_1186)"/>
</g>
</g>
<defs>
<linearGradient id="paint0_linear_165_1186" x1="256" y1="30.8984" x2="256" y2="481.098" gradientUnits="userSpaceOnUse">
<stop stop-color="#1B6DB4"/>
<stop offset="1" stop-color="#014E8D"/>
</linearGradient>
<linearGradient id="paint1_linear_165_1186" x1="173.431" y1="397.545" x2="173.431" y2="442.773" gradientUnits="userSpaceOnUse">
<stop stop-color="#1B6DB4"/>
<stop offset="1" stop-color="#014E8D"/>
</linearGradient>
<clipPath id="clip0_165_1186">
<rect width="512" height="512" fill="white"/>
</clipPath>
</defs>
</svg>
