<svg width="512" height="512" viewBox="0 0 512 512" fill="none" xmlns="http://www.w3.org/2000/svg">
<g clip-path="url(#clip0_165_1195)">
<mask id="mask0_165_1195" style="mask-type:luminance" maskUnits="userSpaceOnUse" x="0" y="0" width="512" height="512">
<path d="M512 0H0V512H512V0Z" fill="white"/>
</mask>
<g mask="url(#mask0_165_1195)">
<mask id="mask1_165_1195" style="mask-type:luminance" maskUnits="userSpaceOnUse" x="21" y="8" width="491" height="480">
<path d="M21.826 8.64453H512V487.374H21.826V8.64453Z" fill="white"/>
</mask>
<g mask="url(#mask1_165_1195)">
<path d="M297.609 289.291V338.86C297.609 343.464 299.438 347.879 302.693 351.134C305.949 354.39 310.364 356.219 314.968 356.219H381.976C383.15 342.567 389.402 329.853 399.497 320.588C409.592 311.323 422.794 306.182 436.496 306.18C446.194 306.167 455.719 308.742 464.089 313.641V156.204C464.089 151.6 462.26 147.184 459.004 143.929C455.748 140.674 451.333 138.845 446.729 138.845H314.968C310.364 138.845 305.949 140.674 302.693 143.929C299.438 147.185 297.609 151.6 297.609 156.204V207.039" stroke="url(#paint0_linear_165_1195)" stroke-width="17" stroke-miterlimit="10" stroke-linecap="round" stroke-linejoin="round"/>
<path d="M132.356 291.215C121.301 291.215 110.699 286.823 102.882 279.006C95.065 271.189 90.6733 260.587 90.673 249.532C90.6733 238.477 95.065 227.875 102.882 220.058C110.699 212.241 121.301 207.849 132.356 207.849C137.83 207.849 143.251 208.926 148.309 211.021C153.367 213.115 157.963 216.186 161.834 220.056C165.705 223.927 168.776 228.522 170.872 233.58C172.967 238.637 174.046 244.058 174.046 249.532C174.046 255.007 172.967 260.427 170.872 265.485C168.776 270.542 165.705 275.137 161.834 279.008C157.963 282.879 153.367 285.949 148.309 288.043C143.251 290.138 137.83 291.216 132.356 291.215ZM221.611 268.663C220.426 267.463 219.525 266.013 218.973 264.42C218.421 262.826 218.233 261.129 218.423 259.453C218.799 256.16 218.986 252.847 218.984 249.532C218.986 246.217 218.799 242.905 218.423 239.611C218.233 237.937 218.421 236.241 218.973 234.649C219.524 233.057 220.426 231.609 221.611 230.411L228.885 223.011C231.374 220.479 232.963 217.201 233.411 213.679C233.858 210.157 233.139 206.585 231.363 203.511L221.714 186.784C219.936 183.713 217.201 181.308 213.927 179.937C210.653 178.566 207.02 178.304 203.584 179.192L193.551 181.792C191.916 182.222 190.206 182.28 188.546 181.963C186.885 181.646 185.317 180.961 183.956 179.958C178.632 175.996 172.868 172.661 166.78 170.019C165.236 169.344 163.863 168.332 162.762 167.057C161.66 165.782 160.857 164.277 160.413 162.651L157.664 152.684C156.715 149.264 154.672 146.249 151.847 144.1C149.022 141.951 145.571 140.786 142.021 140.784H122.705C119.155 140.785 115.703 141.949 112.878 144.098C110.053 146.247 108.01 149.263 107.062 152.684L104.304 162.661C103.86 164.285 103.057 165.79 101.955 167.063C100.854 168.336 99.4805 169.347 97.937 170.02C91.8466 172.664 86.0801 175.999 80.751 179.959C79.3926 180.963 77.8266 181.649 76.168 181.968C74.5094 182.286 72.8005 182.229 71.167 181.8L61.134 179.2C57.6989 178.312 54.0675 178.574 50.7951 179.945C47.5227 181.316 44.7894 183.721 43.013 186.792L33.356 203.52C31.5769 206.594 30.8567 210.167 31.3061 213.69C31.7554 217.213 33.3494 220.491 35.843 223.02L43.108 230.407C44.293 231.607 45.1943 233.057 45.746 234.651C46.2976 236.244 46.4856 237.941 46.296 239.617C45.9198 242.911 45.7325 246.223 45.735 249.538C45.7328 252.856 45.9201 256.172 46.296 259.468C46.4852 261.142 46.297 262.838 45.7454 264.43C45.1937 266.022 44.2925 267.47 43.108 268.668L35.843 276.055C33.3494 278.584 31.7554 281.862 31.3061 285.385C30.8567 288.908 31.5769 292.481 33.356 295.555L43.015 312.283C44.7915 315.354 47.5249 317.759 50.7973 319.13C54.0697 320.501 57.701 320.762 61.136 319.874L71.169 317.274C72.8026 316.845 74.5116 316.788 76.1701 317.107C77.8287 317.426 79.3947 318.112 80.753 319.116C86.0816 323.073 91.847 326.405 97.936 329.046C99.4806 329.72 100.854 330.732 101.956 332.007C103.058 333.282 103.86 334.788 104.303 336.414L107.061 346.381C108.009 349.802 110.051 352.818 112.877 354.968C115.702 357.117 119.154 358.281 122.704 358.281H142.021C145.571 358.28 149.022 357.115 151.847 354.966C154.672 352.817 156.715 349.802 157.664 346.381L160.413 336.414C160.858 334.789 161.66 333.284 162.762 332.009C163.864 330.734 165.237 329.722 166.78 329.046C172.868 326.404 178.632 323.069 183.956 319.107C185.316 318.104 186.884 317.418 188.544 317.099C190.204 316.78 191.914 316.837 193.549 317.265L203.582 319.865C207.018 320.753 210.651 320.492 213.925 319.121C217.198 317.75 219.933 315.346 221.712 312.274L231.361 295.546C233.137 292.472 233.856 288.9 233.409 285.379C232.961 281.857 231.371 278.578 228.883 276.046L221.611 268.663Z" stroke="url(#paint1_linear_165_1195)" stroke-width="17" stroke-miterlimit="10" stroke-linecap="round" stroke-linejoin="round"/>
<path d="M491.206 360.89C491.205 375.399 485.44 389.314 475.179 399.574C464.919 409.833 451.004 415.597 436.494 415.597C421.984 415.597 408.068 409.833 397.807 399.572C387.547 389.312 381.783 375.396 381.783 360.886C381.783 353.701 383.198 346.586 385.947 339.949C388.697 333.311 392.727 327.279 397.807 322.199C402.888 317.118 408.919 313.088 415.557 310.339C422.195 307.589 429.309 306.174 436.494 306.174C443.679 306.174 450.794 307.589 457.432 310.339C464.071 313.089 470.102 317.119 475.183 322.2C480.263 327.281 484.293 333.313 487.042 339.951C489.792 346.59 491.207 353.705 491.206 360.89Z" stroke="url(#paint2_linear_165_1195)" stroke-width="17" stroke-miterlimit="10" stroke-linecap="round" stroke-linejoin="round"/>
<path d="M344.408 195.306H418.274" stroke="url(#paint3_linear_165_1195)" stroke-width="17" stroke-miterlimit="10" stroke-linecap="round" stroke-linejoin="round"/>
<path d="M344.408 247.471H418.274" stroke="url(#paint4_linear_165_1195)" stroke-width="17" stroke-miterlimit="10" stroke-linecap="round" stroke-linejoin="round"/>
<path d="M344.408 301.504H369.055" stroke="url(#paint5_linear_165_1195)" stroke-width="17" stroke-miterlimit="10" stroke-linecap="round" stroke-linejoin="round"/>
<path d="M416.608 364.623L429.081 377.095L454.57 351.607" stroke="url(#paint6_linear_165_1195)" stroke-width="17" stroke-miterlimit="10" stroke-linecap="round" stroke-linejoin="round"/>
<path d="M361.749 414.686C328.238 437.634 288.558 449.885 247.942 449.823C202.981 449.891 159.296 434.878 123.875 407.186" stroke="url(#paint7_linear_165_1195)" stroke-width="17" stroke-miterlimit="10" stroke-linecap="round" stroke-linejoin="round"/>
<path d="M119.769 92.1223C155.883 62.4281 201.187 46.1943 247.941 46.1943C294.695 46.1943 339.999 62.4281 376.113 92.1223" stroke="url(#paint8_linear_165_1195)" stroke-width="17" stroke-miterlimit="10" stroke-linecap="round" stroke-linejoin="round"/>
<path d="M131.315 442.646L123.874 407.076L160.531 401.24" stroke="url(#paint9_linear_165_1195)" stroke-width="17" stroke-miterlimit="10" stroke-linecap="round" stroke-linejoin="round"/>
<path d="M368.675 56.5488L376.113 92.1228L339.459 97.9558" stroke="url(#paint10_linear_165_1195)" stroke-width="17" stroke-miterlimit="10" stroke-linecap="round" stroke-linejoin="round"/>
</g>
</g>
</g>
<defs>
<linearGradient id="paint0_linear_165_1195" x1="380.849" y1="138.845" x2="380.849" y2="356.219" gradientUnits="userSpaceOnUse">
<stop stop-color="#1B6DB4"/>
<stop offset="1" stop-color="#014E8D"/>
</linearGradient>
<linearGradient id="paint1_linear_165_1195" x1="132.358" y1="140.784" x2="132.358" y2="358.281" gradientUnits="userSpaceOnUse">
<stop stop-color="#1B6DB4"/>
<stop offset="1" stop-color="#014E8D"/>
</linearGradient>
<linearGradient id="paint2_linear_165_1195" x1="436.495" y1="306.174" x2="436.495" y2="415.597" gradientUnits="userSpaceOnUse">
<stop stop-color="#1B6DB4"/>
<stop offset="1" stop-color="#014E8D"/>
</linearGradient>
<linearGradient id="paint3_linear_165_1195" x1="381.341" y1="195.306" x2="381.341" y2="196.306" gradientUnits="userSpaceOnUse">
<stop stop-color="#1B6DB4"/>
<stop offset="1" stop-color="#014E8D"/>
</linearGradient>
<linearGradient id="paint4_linear_165_1195" x1="381.341" y1="247.471" x2="381.341" y2="248.471" gradientUnits="userSpaceOnUse">
<stop stop-color="#1B6DB4"/>
<stop offset="1" stop-color="#014E8D"/>
</linearGradient>
<linearGradient id="paint5_linear_165_1195" x1="356.732" y1="301.504" x2="356.732" y2="302.504" gradientUnits="userSpaceOnUse">
<stop stop-color="#1B6DB4"/>
<stop offset="1" stop-color="#014E8D"/>
</linearGradient>
<linearGradient id="paint6_linear_165_1195" x1="435.589" y1="351.607" x2="435.589" y2="377.095" gradientUnits="userSpaceOnUse">
<stop stop-color="#1B6DB4"/>
<stop offset="1" stop-color="#014E8D"/>
</linearGradient>
<linearGradient id="paint7_linear_165_1195" x1="242.812" y1="407.186" x2="242.812" y2="449.823" gradientUnits="userSpaceOnUse">
<stop stop-color="#1B6DB4"/>
<stop offset="1" stop-color="#014E8D"/>
</linearGradient>
<linearGradient id="paint8_linear_165_1195" x1="247.941" y1="46.1943" x2="247.941" y2="92.1223" gradientUnits="userSpaceOnUse">
<stop stop-color="#1B6DB4"/>
<stop offset="1" stop-color="#014E8D"/>
</linearGradient>
<linearGradient id="paint9_linear_165_1195" x1="142.203" y1="401.24" x2="142.203" y2="442.646" gradientUnits="userSpaceOnUse">
<stop stop-color="#1B6DB4"/>
<stop offset="1" stop-color="#014E8D"/>
</linearGradient>
<linearGradient id="paint10_linear_165_1195" x1="357.786" y1="56.5488" x2="357.786" y2="97.9558" gradientUnits="userSpaceOnUse">
<stop stop-color="#1B6DB4"/>
<stop offset="1" stop-color="#014E8D"/>
</linearGradient>
<clipPath id="clip0_165_1195">
<rect width="512" height="512" fill="white"/>
</clipPath>
</defs>
</svg>
