<svg width="512" height="512" viewBox="0 0 512 512" fill="none" xmlns="http://www.w3.org/2000/svg">
<g clip-path="url(#clip0_165_1217)">
<mask id="mask0_165_1217" style="mask-type:luminance" maskUnits="userSpaceOnUse" x="0" y="0" width="512" height="512">
<path d="M512 0H0V512H512V0Z" fill="white"/>
</mask>
<g mask="url(#mask0_165_1217)">
<path d="M326.667 323.697C316.26 323.697 307.793 316.369 307.793 307.362C307.793 298.355 316.26 291.026 326.667 291.026C337.074 291.026 345.541 298.354 345.541 307.362C345.541 309.637 346.445 311.819 348.054 313.428C349.663 315.037 351.845 315.941 354.12 315.941C356.395 315.941 358.577 315.037 360.186 313.428C361.795 311.819 362.699 309.637 362.699 307.362C362.699 291.641 350.985 278.422 335.246 274.834V270.372C335.246 268.097 334.342 265.914 332.733 264.306C331.124 262.697 328.942 261.793 326.667 261.793C324.392 261.793 322.21 262.697 320.601 264.306C318.992 265.914 318.088 268.097 318.088 270.372V274.834C302.349 278.422 290.635 291.64 290.635 307.362C290.635 325.83 306.799 340.856 326.667 340.856C337.074 340.856 345.541 348.184 345.541 357.192C345.541 366.2 337.074 373.528 326.667 373.528C316.26 373.528 307.793 366.2 307.793 357.192C307.793 354.917 306.889 352.734 305.28 351.126C303.671 349.517 301.489 348.613 299.214 348.613C296.939 348.613 294.757 349.517 293.148 351.126C291.539 352.734 290.635 354.917 290.635 357.192C290.635 372.913 302.349 386.132 318.088 389.72V393.426C318.088 395.701 318.992 397.883 320.601 399.492C322.21 401.101 324.392 402.005 326.667 402.005C328.942 402.005 331.124 401.101 332.733 399.492C334.342 397.883 335.246 395.701 335.246 393.426V389.72C350.985 386.132 362.699 372.914 362.699 357.192C362.699 338.723 346.535 323.697 326.667 323.697ZM420.632 272.667C409.451 255.227 393.642 241.237 374.972 232.259C373.957 231.771 372.855 231.487 371.73 231.425C370.605 231.362 369.479 231.522 368.416 231.895C367.353 232.268 366.373 232.846 365.534 233.597C364.694 234.349 364.011 235.258 363.523 236.273C363.034 237.289 362.751 238.39 362.688 239.515C362.626 240.64 362.786 241.766 363.158 242.83C363.531 243.893 364.11 244.872 364.861 245.712C365.612 246.551 366.522 247.235 367.537 247.723C378.999 253.231 389.23 260.997 397.618 270.556C406.006 280.114 412.377 291.268 416.349 303.348C420.322 315.428 421.814 328.186 420.736 340.857C419.659 353.528 416.034 365.851 410.078 377.087C409.538 378.082 409.201 379.175 409.086 380.301C408.97 381.427 409.079 382.565 409.406 383.649C409.732 384.734 410.27 385.742 410.988 386.618C411.707 387.493 412.591 388.217 413.59 388.749C414.59 389.281 415.685 389.61 416.812 389.716C417.939 389.823 419.077 389.705 420.158 389.37C421.24 389.035 422.244 388.49 423.114 387.765C423.984 387.04 424.701 386.15 425.225 385.146C434.491 367.671 438.949 348.048 438.142 328.285C437.336 308.521 431.293 289.327 420.633 272.666L420.632 272.667ZM340.153 221.297H339.578C337.303 221.297 335.121 222.201 333.512 223.81C331.903 225.418 330.999 227.601 330.999 229.876C330.999 232.151 331.903 234.333 333.512 235.942C335.121 237.551 337.303 238.455 339.578 238.455H340.116C342.391 238.46 344.575 237.561 346.188 235.955C347.8 234.35 348.709 232.17 348.714 229.894C348.718 227.619 347.819 225.435 346.214 223.823C344.608 222.21 342.428 221.302 340.153 221.297ZM285.878 417.932C274.416 412.423 264.185 404.657 255.797 395.099C247.409 385.54 241.038 374.386 237.066 362.306C233.094 350.225 231.602 337.467 232.68 324.796C233.758 312.125 237.383 299.802 243.339 288.566C244.387 286.559 244.599 284.22 243.929 282.057C243.259 279.895 241.762 278.085 239.764 277.022C237.765 275.958 235.428 275.728 233.26 276.381C231.093 277.034 229.271 278.517 228.192 280.507C221.145 293.783 216.854 308.346 215.574 323.322C214.295 338.298 216.055 353.377 220.748 367.656C225.441 381.935 232.97 395.119 242.885 406.416C252.799 417.713 264.893 426.89 278.442 433.397C279.458 433.89 280.562 434.178 281.689 434.243C282.817 434.309 283.946 434.151 285.013 433.779C286.079 433.408 287.062 432.829 287.904 432.076C288.746 431.324 289.432 430.413 289.921 429.395C290.41 428.377 290.694 427.272 290.755 426.145C290.817 425.017 290.655 423.888 290.279 422.823C289.903 421.758 289.321 420.777 288.565 419.938C287.81 419.098 286.896 418.416 285.876 417.931L285.878 417.932ZM313.842 427.197H313.342C311.067 427.187 308.881 428.08 307.264 429.682C305.648 431.284 304.734 433.462 304.724 435.737C304.714 438.012 305.608 440.198 307.209 441.815C308.811 443.431 310.989 444.345 313.264 444.355H313.839C316.114 444.355 318.296 443.451 319.905 441.842C321.514 440.233 322.418 438.051 322.418 435.776C322.418 433.501 321.514 431.318 319.905 429.71C318.296 428.101 316.114 427.197 313.839 427.197H313.842Z" fill="url(#paint0_linear_165_1217)"/>
<path d="M365.663 192.267C364.633 189.809 363.356 187.461 361.851 185.26H384.186C394.653 185.26 404.69 181.103 412.091 173.702C419.492 166.301 423.65 156.263 423.65 145.796C423.65 135.33 419.492 125.292 412.091 117.891C404.69 110.49 394.653 106.332 384.186 106.332H315.486C319.554 100.408 321.927 93.4855 322.347 86.3113C322.767 79.1372 321.219 71.9845 317.87 65.6262C314.521 59.2678 309.498 53.9454 303.344 50.234C297.191 46.5225 290.139 44.5631 282.953 44.5674H72.765C62.2985 44.5674 52.2607 48.7252 44.8598 56.1261C37.4588 63.5271 33.301 73.5649 33.301 84.0314C33.301 94.4979 37.4588 104.536 44.8598 111.937C52.2607 119.338 62.2985 123.495 72.765 123.495H141.465C136.95 130.058 134.533 137.836 134.533 145.801C134.533 153.766 136.95 161.544 141.465 168.106H119.092C110.902 168.102 102.914 170.647 96.2365 175.388C89.5587 180.129 84.5225 186.831 81.8267 194.565C79.131 202.298 78.9094 210.679 81.1927 218.544C83.4761 226.409 88.1511 233.368 94.569 238.455C89.9108 242.143 86.1472 246.837 83.5598 252.186C80.9725 257.534 79.6286 263.399 79.6286 269.34C79.6286 275.281 80.9725 281.146 83.5598 286.494C86.1472 291.843 89.9108 296.536 94.569 300.224C89.9106 303.912 86.1468 308.606 83.5594 313.955C80.972 319.303 79.6279 325.168 79.6279 331.109C79.6279 337.051 80.972 342.915 83.5594 348.264C86.1468 353.613 89.9106 358.306 94.569 361.994C88.1511 367.082 83.4761 374.041 81.1927 381.906C78.9094 389.771 79.131 398.152 81.8267 405.885C84.5225 413.618 89.5587 420.321 96.2365 425.062C102.914 429.803 110.902 432.348 119.092 432.343H220.201C233.82 446.966 250.306 458.627 268.63 466.597C286.954 474.567 306.724 478.676 326.707 478.667C407.126 478.667 472.552 413.241 472.552 332.822C472.552 265.89 427.229 209.353 365.663 192.268V192.267ZM384.186 123.49C387.128 123.471 390.044 124.033 392.768 125.145C395.491 126.257 397.968 127.897 400.055 129.97C402.142 132.044 403.799 134.509 404.929 137.225C406.059 139.941 406.641 142.854 406.641 145.796C406.641 148.738 406.059 151.65 404.929 154.367C403.799 157.083 402.142 159.548 400.055 161.621C397.968 163.695 395.491 165.334 392.768 166.447C390.044 167.559 387.128 168.121 384.186 168.101H174.001C168.111 168.062 162.476 165.695 158.325 161.516C154.174 157.337 151.844 151.686 151.844 145.796C151.844 139.906 154.174 134.255 158.325 130.076C162.476 125.897 168.111 123.53 174.001 123.49H384.186ZM72.765 106.336C66.8751 106.297 61.2399 103.93 57.0889 99.7507C52.938 95.5719 50.6084 89.9209 50.6084 84.0309C50.6084 78.1408 52.938 72.4899 57.0889 68.3111C61.2399 64.1322 66.8751 61.7648 72.765 61.7254H282.953C288.843 61.7648 294.478 64.1322 298.629 68.3111C302.78 72.4899 305.11 78.1408 305.11 84.0309C305.11 89.9209 302.78 95.5719 298.629 99.7507C294.478 103.93 288.843 106.297 282.953 106.336H72.765ZM119.092 185.267H329.28C332.652 185.269 335.98 186.035 339.013 187.508C334.955 187.167 330.853 186.984 326.707 186.984C307.525 186.972 288.531 190.756 270.818 198.117C253.105 205.478 237.024 216.272 223.501 229.875H119.092C116.15 229.895 113.234 229.333 110.51 228.221C107.787 227.108 105.31 225.469 103.223 223.395C101.136 221.322 99.4793 218.857 98.3489 216.141C97.2186 213.424 96.6367 210.512 96.6367 207.57C96.6367 204.628 97.2186 201.715 98.3489 198.999C99.4793 196.283 101.136 193.818 103.223 191.744C105.31 189.671 107.787 188.031 110.51 186.919C113.234 185.807 116.15 185.245 119.092 185.264V185.267ZM119.092 247.036H208.842C198.983 260.529 191.524 275.621 186.791 291.647H119.091C113.201 291.608 107.566 289.241 103.415 285.062C99.264 280.883 96.9344 275.232 96.9344 269.342C96.9344 263.452 99.264 257.801 103.415 253.622C107.566 249.443 113.202 247.076 119.092 247.036ZM119.092 308.805H182.852C180.391 323.561 180.212 338.607 182.323 353.416H119.092C116.15 353.436 113.234 352.874 110.51 351.762C107.787 350.649 105.31 349.01 103.223 346.936C101.136 344.863 99.4793 342.398 98.3489 339.682C97.2186 336.966 96.6367 334.053 96.6367 331.111C96.6367 328.169 97.2186 325.256 98.3489 322.54C99.4793 319.824 101.136 317.359 103.223 315.285C105.31 313.212 107.787 311.572 110.51 310.46C113.234 309.348 116.15 308.786 119.092 308.805ZM119.092 415.186C116.15 415.206 113.234 414.644 110.51 413.532C107.787 412.419 105.31 410.78 103.223 408.706C101.136 406.633 99.4793 404.168 98.3489 401.452C97.2186 398.735 96.6367 395.823 96.6367 392.881C96.6367 389.939 97.2186 387.026 98.3489 384.31C99.4793 381.594 101.136 379.129 103.223 377.055C105.31 374.982 107.787 373.342 110.51 372.23C113.234 371.118 116.15 370.556 119.092 370.575H185.825C190.104 386.507 197.065 401.593 206.409 415.186H119.092ZM326.707 461.514C301.255 461.514 276.375 453.967 255.213 439.827C234.051 425.687 217.557 405.589 207.817 382.075C198.077 358.561 195.528 332.687 200.493 307.724C205.459 282.762 217.714 259.832 235.711 241.835C253.708 223.838 276.637 211.581 301.6 206.615C326.562 201.65 352.437 204.198 375.951 213.937C399.465 223.677 419.564 240.17 433.704 261.332C447.845 282.494 455.392 307.374 455.393 332.825C455.355 366.943 441.784 399.653 417.659 423.778C393.534 447.903 360.825 461.474 326.707 461.512V461.514Z" fill="url(#paint1_linear_165_1217)"/>
</g>
</g>
<defs>
<linearGradient id="paint0_linear_165_1217" x1="326.702" y1="221.297" x2="326.702" y2="444.355" gradientUnits="userSpaceOnUse">
<stop stop-color="#1B6DB4"/>
<stop offset="1" stop-color="#014E8D"/>
</linearGradient>
<linearGradient id="paint1_linear_165_1217" x1="252.927" y1="44.5674" x2="252.927" y2="478.667" gradientUnits="userSpaceOnUse">
<stop stop-color="#1B6DB4"/>
<stop offset="1" stop-color="#014E8D"/>
</linearGradient>
<clipPath id="clip0_165_1217">
<rect width="512" height="512" fill="white"/>
</clipPath>
</defs>
</svg>
