<svg width="100" height="100" viewBox="0 0 100 100" fill="none" xmlns="http://www.w3.org/2000/svg">
<path d="M24.68 67.9499C22.92 67.9499 21.48 66.5099 21.48 64.7499V57.1599C21.48 56.4899 21.69 55.8499 22.08 55.3099L22.26 55.0499L22.08 54.7899C21.69 54.2399 21.48 53.5999 21.48 52.9399V45.3499C21.48 43.5899 22.92 42.1499 24.68 42.1499H74.32C76.08 42.1499 77.52 43.5899 77.52 45.3499V52.9399C77.52 53.6099 77.31 54.2499 76.92 54.7899L76.74 55.0499L76.92 55.3099C77.31 55.8599 77.52 56.4999 77.52 57.1599V64.7499C77.52 66.5099 76.08 67.9499 74.32 67.9499H24.68ZM24.68 56.1299C24.12 56.1299 23.66 56.5899 23.66 57.1499V64.7399C23.66 65.2999 24.12 65.7599 24.68 65.7599H74.32C74.88 65.7599 75.34 65.2999 75.34 64.7399V57.1499C75.34 56.5899 74.88 56.1299 74.32 56.1299H24.68ZM24.68 44.3199C24.12 44.3199 23.66 44.7799 23.66 45.3399V52.9299C23.66 53.4899 24.12 53.9499 24.68 53.9499H74.32C74.88 53.9499 75.34 53.4899 75.34 52.9299V45.3399C75.34 44.7799 74.88 44.3199 74.32 44.3199H24.68Z" fill="white"/>
<path d="M61.9098 62.0398C61.8398 62.0398 61.7698 62.0298 61.6998 62.0198C61.6398 62.0098 61.5598 61.9898 61.4998 61.9598C61.4298 61.9298 61.3698 61.8998 61.3098 61.8598C61.2498 61.8198 61.1998 61.7798 61.1398 61.7198C61.0898 61.6698 61.0398 61.6098 60.9998 61.5498C60.9598 61.4898 60.9298 61.4298 60.8998 61.3598C60.8798 61.2998 60.8498 61.2298 60.8398 61.1598C60.8098 61.0098 60.8098 60.8698 60.8398 60.7298C60.8698 60.5798 60.9198 60.4498 60.9998 60.3298C61.0398 60.2698 61.0898 60.2198 61.1398 60.1598C61.1898 60.1098 61.2398 60.0598 61.2998 60.0298C61.3698 59.9898 61.4298 59.9498 61.4998 59.9198C61.5698 59.8898 61.6398 59.8698 61.6998 59.8598C61.7598 59.8498 61.8398 59.8398 61.9098 59.8398C61.9798 59.8398 62.0498 59.8498 62.1298 59.8598C62.2698 59.8898 62.3998 59.9398 62.5198 60.0198C62.5798 60.0598 62.6298 60.0998 62.6898 60.1598C62.7398 60.2098 62.7898 60.2698 62.8298 60.3298C62.8698 60.3898 62.8998 60.4498 62.9298 60.5198C62.9498 60.5798 62.9798 60.6498 62.9898 60.7198C63.0198 60.8698 63.0198 61.0098 62.9898 61.1498C62.9698 61.2298 62.9498 61.2998 62.9298 61.3598C62.8998 61.4198 62.8698 61.4898 62.8298 61.5398C62.7898 61.5998 62.7398 61.6498 62.6898 61.6998C62.6398 61.7498 62.5898 61.7998 62.5298 61.8298C62.3998 61.9098 62.2698 61.9698 62.1298 61.9998C62.0498 62.0298 61.9798 62.0398 61.9098 62.0398ZM67.3398 62.0398C67.1298 62.0398 66.9198 61.9798 66.7398 61.8598C66.6698 61.8098 66.6098 61.7698 66.5598 61.7198C66.5198 61.6798 66.4698 61.6198 66.4298 61.5598C66.3498 61.4498 66.2998 61.3098 66.2698 61.1698C66.2398 61.0298 66.2398 60.8798 66.2698 60.7498C66.2998 60.5998 66.3498 60.4698 66.4298 60.3498C66.4698 60.2898 66.5198 60.2298 66.5698 60.1798C66.6098 60.1398 66.6598 60.0998 66.7198 60.0598C66.8498 59.9798 66.9798 59.9198 67.1198 59.8898C67.1898 59.8798 67.2598 59.8698 67.3298 59.8698C67.3998 59.8698 67.4698 59.8798 67.5398 59.8898C67.6098 59.8998 67.6798 59.9198 67.7398 59.9498C67.8098 59.9798 67.8698 60.0098 67.9298 60.0498C67.9898 60.0898 68.0498 60.1398 68.0998 60.1898C68.2998 60.3898 68.4198 60.6698 68.4198 60.9598C68.4198 61.0298 68.4098 61.0998 68.3998 61.1698C68.3898 61.2398 68.3698 61.3098 68.3398 61.3798C68.3098 61.4498 68.2798 61.5098 68.2398 61.5698C68.1998 61.6298 68.1498 61.6898 68.0998 61.7398C67.9998 61.8398 67.8798 61.9198 67.7498 61.9798C67.6298 62.0098 67.4898 62.0398 67.3398 62.0398ZM31.6598 62.0398C31.0598 62.0398 30.5698 61.5498 30.5698 60.9498C30.5698 60.3498 31.0598 59.8598 31.6598 59.8598H55.7198C56.3198 59.8598 56.8098 60.3498 56.8098 60.9498C56.8098 61.5498 56.3198 62.0398 55.7198 62.0398H31.6598ZM67.3498 50.2298C67.2798 50.2298 67.1998 50.2198 67.1298 50.2098C66.9998 50.1798 66.8698 50.1298 66.7498 50.0498C66.6898 50.0098 66.6298 49.9598 66.5798 49.9098C66.5398 49.8698 66.4898 49.8098 66.4498 49.7498C66.4098 49.6898 66.3798 49.6298 66.3498 49.5598C66.3298 49.4998 66.3098 49.4298 66.2898 49.3698C66.2698 49.2898 66.2698 49.2198 66.2698 49.1498C66.2698 49.0798 66.2798 49.0098 66.2898 48.9398C66.3098 48.8598 66.3298 48.7898 66.3498 48.7198C66.3998 48.5998 66.4798 48.4798 66.5798 48.3798C66.6298 48.3298 66.6798 48.2898 66.7498 48.2398C66.8098 48.1998 66.8698 48.1698 66.9298 48.1398C66.9998 48.1098 67.0698 48.0898 67.1398 48.0698C67.2098 48.0598 67.2798 48.0498 67.3498 48.0498C67.4198 48.0498 67.4898 48.0598 67.5598 48.0698C67.6298 48.0898 67.6998 48.0998 67.7598 48.1298C67.8298 48.1598 67.8998 48.1898 67.9498 48.2298C67.9998 48.2698 68.0598 48.3098 68.1098 48.3598C68.1598 48.4098 68.2098 48.4598 68.2498 48.5298C68.2898 48.5898 68.3198 48.6498 68.3498 48.7098C68.3798 48.7798 68.3998 48.8498 68.4098 48.9198C68.4398 49.0598 68.4398 49.1998 68.4098 49.3398C68.3998 49.4098 68.3798 49.4798 68.3498 49.5398C68.3198 49.6098 68.2898 49.6698 68.2498 49.7298C68.2098 49.7998 68.1598 49.8498 68.1098 49.8998C68.0098 49.9998 67.8898 50.0798 67.7598 50.1398C67.6898 50.1698 67.6198 50.1898 67.5498 50.1998C67.4898 50.2198 67.4198 50.2298 67.3498 50.2298ZM31.6598 50.2298C31.0598 50.2298 30.5698 49.7398 30.5698 49.1398C30.5698 48.5398 31.0598 48.0498 31.6598 48.0498H55.7198C56.3198 48.0498 56.8098 48.5398 56.8098 49.1398C56.8098 49.7398 56.3198 50.2298 55.7198 50.2298H31.6598ZM61.9098 50.2298C61.7598 50.2298 61.6198 50.1998 61.4898 50.1498C61.4298 50.1198 61.3698 50.0898 61.3098 50.0498C61.2498 50.0098 61.1898 49.9598 61.1498 49.9198C60.9398 49.7098 60.8298 49.4298 60.8298 49.1498C60.8298 48.8598 60.9398 48.5898 61.1498 48.3798C61.1998 48.3298 61.2498 48.2798 61.3098 48.2498C61.3798 48.2098 61.4398 48.1698 61.4998 48.1498C61.5798 48.1198 61.6398 48.0998 61.6998 48.0898C61.7698 48.0698 61.8498 48.0698 61.9198 48.0698C61.9898 48.0698 62.0598 48.0798 62.1298 48.0898C62.1998 48.0998 62.2698 48.1198 62.3298 48.1498C62.3998 48.1798 62.4598 48.2098 62.5198 48.2498C62.5798 48.2898 62.6398 48.3298 62.6798 48.3798C62.8898 48.5898 62.9998 48.8698 62.9998 49.1498C62.9998 49.4398 62.8798 49.7198 62.6798 49.9198C62.6298 49.9698 62.5798 50.0198 62.5098 50.0598C62.4498 50.0998 62.3898 50.1298 62.3198 50.1598C62.1998 50.1998 62.0498 50.2198 61.9098 50.2298Z" fill="white"/>
<path d="M17.9 87.4201C11.91 87.4201 7.04004 82.5501 7.04004 76.5601V74.4301C7.04004 73.8301 7.53004 73.3401 8.13004 73.3401H13.38V32.9901C13.38 30.3101 15.56 28.1401 18.23 28.1401H32.68C33.28 28.1401 33.77 28.6301 33.77 29.2301C33.77 29.8301 33.28 30.3201 32.68 30.3201H18.23C16.75 30.3201 15.55 31.5201 15.55 32.9901V73.3401H36.52C37.12 73.3401 37.61 73.8301 37.61 74.4301C37.61 76.1701 39.03 77.5901 40.77 77.5901H58.23C59.97 77.5901 61.39 76.1701 61.39 74.4301C61.39 73.8301 61.88 73.3401 62.48 73.3401H83.16V32.9901C83.16 31.5201 81.96 30.3201 80.48 30.3201H65.32C64.72 30.3201 64.23 29.8301 64.23 29.2301C64.23 28.6301 64.72 28.1401 65.32 28.1401H80.48C83.16 28.1401 85.33 30.3201 85.33 32.9901V73.3401H90.86C91.46 73.3401 91.95 73.8301 91.95 74.4301V76.5601C91.95 82.5501 87.08 87.4201 81.1 87.4201H17.9ZM9.22004 76.5601C9.22004 81.3401 13.11 85.2401 17.9 85.2401H81.1C85.88 85.2401 89.78 81.3501 89.78 76.5601V75.5201H63.46L63.37 75.8501C62.74 78.1601 60.62 79.7701 58.23 79.7701H40.77C38.38 79.7701 36.26 78.1601 35.63 75.8501L35.54 75.5201H9.22004V76.5601Z" fill="white"/>
<path d="M49.4998 37.35C48.8998 37.35 48.4098 36.86 48.4098 36.26V19.58L48.0998 19.48C46.1198 18.86 44.7898 17.05 44.7898 14.98C44.7898 12.38 46.8998 10.27 49.4998 10.27C52.0998 10.27 54.2098 12.38 54.2098 14.98C54.2098 17.05 52.8798 18.86 50.8998 19.48L50.5898 19.58V36.26C50.5898 36.86 50.0998 37.35 49.4998 37.35ZM49.4998 12.45C48.0998 12.45 46.9698 13.59 46.9698 14.98C46.9698 16.38 48.1098 17.51 49.4998 17.51C50.8998 17.51 52.0298 16.37 52.0298 14.98C52.0298 13.59 50.8998 12.45 49.4998 12.45ZM40.7298 37.35C40.1298 37.35 39.6398 36.86 39.6398 36.26V20.12H35.3598L35.2598 20.43C34.6398 22.41 32.8298 23.74 30.7598 23.74C28.1598 23.74 26.0498 21.63 26.0498 19.03C26.0498 16.43 28.1598 14.32 30.7598 14.32C32.8298 14.32 34.6398 15.65 35.2598 17.63L35.3598 17.94H40.7298C41.3298 17.94 41.8198 18.43 41.8198 19.03V36.27C41.8198 36.86 41.3298 37.35 40.7298 37.35ZM30.7598 16.49C29.3598 16.49 28.2298 17.63 28.2298 19.02C28.2298 20.42 29.3698 21.55 30.7598 21.55C32.1498 21.55 33.2898 20.41 33.2898 19.02C33.2898 17.63 32.1598 16.49 30.7598 16.49ZM58.2698 37.17C57.6698 37.17 57.1798 36.68 57.1798 36.08V19.03C57.1798 18.43 57.6698 17.94 58.2698 17.94H63.6398L63.7398 17.63C64.3598 15.65 66.1698 14.32 68.2398 14.32C70.8398 14.32 72.9498 16.43 72.9498 19.03C72.9498 21.63 70.8398 23.74 68.2398 23.74C66.1698 23.74 64.3598 22.41 63.7398 20.43L63.6398 20.12H59.3598V36.08C59.3598 36.68 58.8698 37.17 58.2698 37.17ZM68.2398 16.49C66.8398 16.49 65.7098 17.63 65.7098 19.02C65.7098 20.42 66.8498 21.55 68.2398 21.55C69.6398 21.55 70.7698 20.41 70.7698 19.02C70.7698 17.63 69.6398 16.49 68.2398 16.49Z" fill="white"/>
</svg>
