<svg width="100" height="100" viewBox="0 0 100 100" fill="none" xmlns="http://www.w3.org/2000/svg">
<path d="M24.68 70.7902C22.92 70.7902 21.48 69.3502 21.48 67.5902V60.0002C21.48 59.3302 21.69 58.6902 22.08 58.1502L22.26 57.8902L22.08 57.6302C21.69 57.0802 21.48 56.4402 21.48 55.7802V48.1902C21.48 46.4302 22.92 44.9902 24.68 44.9902H74.32C76.08 44.9902 77.52 46.4302 77.52 48.1902V55.7802C77.52 56.4502 77.31 57.0902 76.92 57.6302L76.74 57.8902L76.92 58.1502C77.31 58.7002 77.52 59.3402 77.52 60.0002V67.5902C77.52 69.3502 76.08 70.7902 74.32 70.7902H24.68ZM24.68 58.9802C24.12 58.9802 23.66 59.4402 23.66 60.0002V67.5902C23.66 68.1502 24.12 68.6102 24.68 68.6102H74.32C74.88 68.6102 75.34 68.1502 75.34 67.5902V60.0002C75.34 59.4402 74.88 58.9802 74.32 58.9802H24.68ZM24.68 47.1702C24.12 47.1702 23.66 47.6302 23.66 48.1902V55.7802C23.66 56.3402 24.12 56.8002 24.68 56.8002H74.32C74.88 56.8002 75.34 56.3402 75.34 55.7802V48.1902C75.34 47.6302 74.88 47.1702 74.32 47.1702H24.68Z" fill="url(#paint0_linear_158_715)"/>
<path d="M61.9098 64.8899C61.8398 64.8899 61.7698 64.8799 61.6998 64.8699C61.6398 64.8599 61.5598 64.8399 61.4998 64.8099C61.4298 64.7799 61.3698 64.7499 61.3098 64.7099C61.2498 64.6699 61.1998 64.6299 61.1398 64.5699C61.0898 64.5199 61.0398 64.4599 60.9998 64.3999C60.9598 64.3399 60.9298 64.2799 60.8998 64.2099C60.8798 64.1499 60.8498 64.0799 60.8398 64.0099C60.8098 63.8599 60.8098 63.7199 60.8398 63.5799C60.8698 63.4299 60.9198 63.2999 60.9998 63.1799C61.0398 63.1199 61.0898 63.0699 61.1398 63.0099C61.1898 62.9599 61.2398 62.9099 61.2998 62.8799C61.3698 62.8399 61.4298 62.7999 61.4998 62.7699C61.5698 62.7399 61.6398 62.7199 61.6998 62.7099C61.7598 62.6999 61.8398 62.6899 61.9098 62.6899C61.9798 62.6899 62.0498 62.6999 62.1298 62.7099C62.2698 62.7399 62.3998 62.7899 62.5198 62.8699C62.5798 62.9099 62.6298 62.9499 62.6898 63.0099C62.7398 63.0599 62.7898 63.1199 62.8298 63.1799C62.8698 63.2399 62.8998 63.2999 62.9298 63.3699C62.9498 63.4299 62.9798 63.4999 62.9898 63.5699C63.0198 63.7199 63.0198 63.8599 62.9898 63.9999C62.9698 64.0799 62.9498 64.1499 62.9298 64.2099C62.8998 64.2699 62.8698 64.3399 62.8298 64.3899C62.7898 64.4499 62.7398 64.4999 62.6898 64.5499C62.6398 64.5999 62.5898 64.6499 62.5298 64.6799C62.3998 64.7599 62.2698 64.8199 62.1298 64.8499C62.0498 64.8799 61.9798 64.8899 61.9098 64.8899ZM67.3398 64.8899C67.1298 64.8899 66.9198 64.8299 66.7398 64.7099C66.6698 64.6599 66.6098 64.6199 66.5598 64.5699C66.5198 64.5299 66.4698 64.4699 66.4298 64.4099C66.3498 64.2999 66.2998 64.1599 66.2698 64.0199C66.2398 63.8799 66.2398 63.7299 66.2698 63.5999C66.2998 63.4499 66.3498 63.3199 66.4298 63.1999C66.4698 63.1399 66.5198 63.0799 66.5698 63.0299C66.6098 62.9899 66.6598 62.9499 66.7198 62.9099C66.8498 62.8299 66.9798 62.7699 67.1198 62.7399C67.1898 62.7299 67.2598 62.7199 67.3298 62.7199C67.3998 62.7199 67.4698 62.7299 67.5398 62.7399C67.6098 62.7499 67.6798 62.7699 67.7398 62.7999C67.8098 62.8299 67.8698 62.8599 67.9298 62.8999C67.9898 62.9399 68.0498 62.9899 68.0998 63.0399C68.2998 63.2399 68.4198 63.5199 68.4198 63.8099C68.4198 63.8799 68.4098 63.9499 68.3998 64.0199C68.3898 64.0899 68.3698 64.1599 68.3398 64.2299C68.3098 64.2999 68.2798 64.3599 68.2398 64.4199C68.1998 64.4799 68.1498 64.5399 68.0998 64.5899C67.9998 64.6899 67.8798 64.7699 67.7498 64.8299C67.6298 64.8599 67.4898 64.8899 67.3398 64.8899ZM31.6598 64.8899C31.0598 64.8899 30.5698 64.3999 30.5698 63.7999C30.5698 63.1999 31.0598 62.7099 31.6598 62.7099H55.7198C56.3198 62.7099 56.8098 63.1999 56.8098 63.7999C56.8098 64.3999 56.3198 64.8899 55.7198 64.8899H31.6598ZM67.3498 53.0799C67.2798 53.0799 67.1998 53.0699 67.1298 53.0599C66.9998 53.0299 66.8698 52.9799 66.7498 52.8999C66.6898 52.8599 66.6298 52.8099 66.5798 52.7599C66.5398 52.7199 66.4898 52.6599 66.4498 52.5999C66.4098 52.5399 66.3798 52.4799 66.3498 52.4099C66.3298 52.3499 66.3098 52.2799 66.2898 52.2199C66.2698 52.1399 66.2698 52.0699 66.2698 51.9999C66.2698 51.9299 66.2798 51.8599 66.2898 51.7899C66.3098 51.7099 66.3298 51.6399 66.3498 51.5699C66.3998 51.4499 66.4798 51.3299 66.5798 51.2299C66.6298 51.1799 66.6798 51.1399 66.7498 51.0899C66.8098 51.0499 66.8698 51.0199 66.9298 50.9899C66.9998 50.9599 67.0698 50.9399 67.1398 50.9199C67.2098 50.9099 67.2798 50.8999 67.3498 50.8999C67.4198 50.8999 67.4898 50.9099 67.5598 50.9199C67.6298 50.9399 67.6998 50.9499 67.7598 50.9799C67.8298 51.0099 67.8998 51.0399 67.9498 51.0799C68.0098 51.1199 68.0598 51.1599 68.1098 51.2099C68.1598 51.2599 68.2098 51.3099 68.2498 51.3799C68.2898 51.4399 68.3198 51.4999 68.3498 51.5599C68.3798 51.6299 68.3998 51.6999 68.4098 51.7699C68.4398 51.9099 68.4398 52.0499 68.4098 52.1899C68.3998 52.2599 68.3798 52.3299 68.3498 52.3899C68.3198 52.4599 68.2898 52.5199 68.2498 52.5799C68.2098 52.6499 68.1598 52.6999 68.1098 52.7499C68.0098 52.8499 67.8898 52.9299 67.7598 52.9899C67.6898 53.0199 67.6198 53.0399 67.5498 53.0499C67.4898 53.0699 67.4198 53.0799 67.3498 53.0799ZM31.6598 53.0799C31.0598 53.0799 30.5698 52.5899 30.5698 51.9899C30.5698 51.3899 31.0598 50.8999 31.6598 50.8999H55.7198C56.3198 50.8999 56.8098 51.3899 56.8098 51.9899C56.8098 52.5899 56.3198 53.0799 55.7198 53.0799H31.6598ZM61.9098 53.0799C61.7598 53.0799 61.6198 53.0499 61.4898 52.9999C61.4298 52.9699 61.3698 52.9399 61.3098 52.8999C61.2498 52.8599 61.1898 52.8099 61.1498 52.7699C60.9398 52.5599 60.8298 52.2799 60.8298 51.9999C60.8298 51.7099 60.9398 51.4399 61.1498 51.2299C61.1998 51.1799 61.2498 51.1299 61.3098 51.0999C61.3798 51.0599 61.4398 51.0199 61.4998 50.9999C61.5798 50.9699 61.6398 50.9499 61.6998 50.9399C61.7698 50.9199 61.8498 50.9199 61.9198 50.9199C61.9898 50.9199 62.0598 50.9299 62.1298 50.9399C62.1998 50.9499 62.2698 50.9699 62.3298 50.9999C62.3998 51.0299 62.4598 51.0599 62.5198 51.0999C62.5798 51.1399 62.6398 51.1799 62.6798 51.2299C62.8798 51.4199 62.9998 51.6999 62.9998 51.9899C62.9998 52.2799 62.8798 52.5599 62.6798 52.7599C62.6298 52.8099 62.5798 52.8599 62.5098 52.8999C62.4498 52.9399 62.3898 52.9699 62.3198 52.9999C62.1998 53.0499 62.0498 53.0699 61.9098 53.0799Z" fill="url(#paint1_linear_158_715)"/>
<path d="M17.9 90.2602C11.91 90.2602 7.04004 85.3902 7.04004 79.4002V77.2702C7.04004 76.6702 7.53004 76.1802 8.13004 76.1802H13.38V35.8402C13.38 33.1602 15.56 30.9902 18.23 30.9902H32.68C33.28 30.9902 33.77 31.4802 33.77 32.0802C33.77 32.6802 33.28 33.1702 32.68 33.1702H18.23C16.75 33.1702 15.55 34.3702 15.55 35.8402V76.1902H36.52C37.12 76.1902 37.61 76.6802 37.61 77.2802C37.61 79.0202 39.03 80.4402 40.77 80.4402H58.23C59.97 80.4402 61.39 79.0202 61.39 77.2802C61.39 76.6802 61.88 76.1902 62.48 76.1902H83.16V35.8402C83.16 34.3702 81.96 33.1702 80.48 33.1702H65.32C64.72 33.1702 64.23 32.6802 64.23 32.0802C64.23 31.4802 64.72 30.9902 65.32 30.9902H80.48C83.16 30.9902 85.33 33.1702 85.33 35.8402V76.1902H90.86C91.46 76.1902 91.95 76.6802 91.95 77.2802V79.4102C91.95 85.4002 87.08 90.2702 81.1 90.2702H17.9V90.2602ZM9.22004 79.4102C9.22004 84.1902 13.11 88.0902 17.9 88.0902H81.1C85.88 88.0902 89.78 84.2002 89.78 79.4102V78.3702H63.46L63.37 78.7002C62.74 81.0102 60.62 82.6202 58.23 82.6202H40.77C38.38 82.6202 36.26 81.0102 35.63 78.7002L35.54 78.3702H9.22004V79.4102Z" fill="url(#paint2_linear_158_715)"/>
<path d="M49.4998 40.2001C48.8998 40.2001 48.4098 39.7101 48.4098 39.1101V22.4301L48.0998 22.3301C46.1198 21.7101 44.7898 19.9001 44.7898 17.8301C44.7898 15.2301 46.8998 13.1201 49.4998 13.1201C52.0998 13.1201 54.2098 15.2301 54.2098 17.8301C54.2098 19.9001 52.8798 21.7101 50.8998 22.3301L50.5898 22.4301V39.1101C50.5898 39.7101 50.0998 40.2001 49.4998 40.2001ZM49.4998 15.3001C48.0998 15.3001 46.9698 16.4401 46.9698 17.8301C46.9698 19.2301 48.1098 20.3601 49.4998 20.3601C50.8998 20.3601 52.0298 19.2201 52.0298 17.8301C52.0298 16.4301 50.8998 15.3001 49.4998 15.3001ZM40.7298 40.2001C40.1298 40.2001 39.6398 39.7101 39.6398 39.1101V22.9601H35.3598L35.2598 23.2701C34.6398 25.2501 32.8298 26.5801 30.7598 26.5801C28.1598 26.5801 26.0498 24.4701 26.0498 21.8701C26.0498 19.2701 28.1598 17.1601 30.7598 17.1601C32.8298 17.1601 34.6398 18.4901 35.2598 20.4701L35.3598 20.7801H40.7298C41.3298 20.7801 41.8198 21.2701 41.8198 21.8701V39.1101C41.8198 39.7101 41.3298 40.2001 40.7298 40.2001ZM30.7598 19.3401C29.3598 19.3401 28.2298 20.4801 28.2298 21.8701C28.2298 23.2701 29.3698 24.4001 30.7598 24.4001C32.1498 24.4001 33.2898 23.2601 33.2898 21.8701C33.2898 20.4801 32.1598 19.3401 30.7598 19.3401ZM58.2698 40.0201C57.6698 40.0201 57.1798 39.5301 57.1798 38.9301V21.8801C57.1798 21.2801 57.6698 20.7901 58.2698 20.7901H63.6398L63.7398 20.4801C64.3598 18.5001 66.1698 17.1701 68.2398 17.1701C70.8398 17.1701 72.9498 19.2801 72.9498 21.8801C72.9498 24.4801 70.8398 26.5901 68.2398 26.5901C66.1698 26.5901 64.3598 25.2601 63.7398 23.2801L63.6398 22.9701H59.3598V38.9301C59.3598 39.5301 58.8698 40.0201 58.2698 40.0201ZM68.2398 19.3401C66.8398 19.3401 65.7098 20.4801 65.7098 21.8701C65.7098 23.2701 66.8498 24.4001 68.2398 24.4001C69.6398 24.4001 70.7698 23.2601 70.7698 21.8701C70.7698 20.4801 69.6398 19.3401 68.2398 19.3401Z" fill="url(#paint3_linear_158_715)"/>
<defs>
<linearGradient id="paint0_linear_158_715" x1="21.4797" y1="57.893" x2="77.5203" y2="57.893" gradientUnits="userSpaceOnUse">
<stop stop-color="#1073BA"/>
<stop offset="1" stop-color="#085996"/>
</linearGradient>
<linearGradient id="paint1_linear_158_715" x1="30.5669" y1="57.8932" x2="68.435" y2="57.8932" gradientUnits="userSpaceOnUse">
<stop stop-color="#1073BA"/>
<stop offset="1" stop-color="#085996"/>
</linearGradient>
<linearGradient id="paint2_linear_158_715" x1="7.04354" y1="60.6252" x2="91.9565" y2="60.6252" gradientUnits="userSpaceOnUse">
<stop stop-color="#1073BA"/>
<stop offset="1" stop-color="#085996"/>
</linearGradient>
<linearGradient id="paint3_linear_158_715" x1="26.0497" y1="26.6612" x2="72.951" y2="26.6612" gradientUnits="userSpaceOnUse">
<stop stop-color="#1073BA"/>
<stop offset="1" stop-color="#085996"/>
</linearGradient>
</defs>
</svg>
