<svg width="100" height="100" viewBox="0 0 100 100" fill="none" xmlns="http://www.w3.org/2000/svg">
<path d="M56.8173 86C51.9821 86 47.1835 85.1099 42.5498 83.3474C35.5991 80.6949 30.654 80.2943 28.3188 80.2943H27.8335V81.7986C27.8335 83.0537 26.7803 84.0773 25.4891 84.0773H19.3444C18.0531 84.0773 17 83.0537 17 81.7986V56.2787C17 55.0236 18.0531 54 19.3444 54H25.4891C26.7803 54 27.8335 55.0236 27.8335 56.2787V58.7711L28.2456 58.5485C31.7346 56.6437 35.2328 55.6823 38.6395 55.6823C43.9234 55.6823 47.9894 57.9789 50.462 59.9015C52.2477 61.2901 54.3448 62.02 56.5243 62.02H65.6087C67.3394 62.02 68.9512 62.7499 70.0501 64.0139C71.3596 65.5093 71.7717 67.6011 71.149 69.4704L70.975 69.9867L88.0906 64.0139C88.7316 63.7914 89.391 63.6846 90.0687 63.6846C91.0394 63.6846 92.0009 63.916 92.8617 64.37C95.2244 65.6072 96.4515 68.2242 95.8471 70.7433C95.4991 72.2209 94.5376 73.5382 93.2097 74.3394C82.8433 80.5079 72.019 83.6323 64.7662 85.1722C62.1562 85.7152 59.4914 86 56.8173 86ZM38.5845 57.2668C35.0955 57.2668 31.5148 58.3616 27.9525 60.5157L27.8243 60.5958V78.7099H28.3738C30.7914 78.7099 35.938 79.1193 43.1633 81.8698C47.5865 83.5522 52.1836 84.4067 56.8173 84.4067C59.3815 84.4067 61.9365 84.1396 64.4273 83.6145C71.552 82.1013 82.1839 79.0303 92.3672 72.9686C93.3013 72.4167 93.9973 71.4732 94.2629 70.3783C94.7024 68.5446 93.8324 66.6754 92.1383 65.8209C91.5156 65.4915 90.8013 65.3135 90.0961 65.3135C89.6108 65.3135 89.1254 65.3936 88.6675 65.5538L68.475 72.5858C67.5043 73.1021 66.442 73.3691 65.3614 73.3691H52.5682C52.1103 73.3691 51.744 73.0131 51.744 72.568C51.744 72.123 52.1103 71.7669 52.5682 71.7669H65.3339C66.1215 71.7669 66.8999 71.58 67.5775 71.2239C67.6508 71.1705 67.6783 71.1527 67.7332 71.126C68.8413 70.4762 69.5556 69.4793 69.7387 68.3755C69.9494 67.1561 69.6197 65.9722 68.8047 65.0465C68.008 64.1296 66.8449 63.6045 65.5995 63.6045H56.5151C53.9968 63.6045 51.4784 62.7232 49.4363 61.1299C47.1652 59.3675 43.4381 57.2668 38.5845 57.2668ZM19.3444 55.5755C18.9597 55.5755 18.6301 55.896 18.6301 56.2698V81.7897C18.6301 82.1636 18.9597 82.484 19.3444 82.484H25.4891C25.8737 82.484 26.2034 82.1636 26.2034 81.7897V56.2698C26.2034 55.896 25.8737 55.5755 25.4891 55.5755H19.3444Z" fill="url(#paint0_linear_158_720)"/>
<path d="M57.5941 57C57.271 57 56.9479 56.9546 56.634 56.8548C55.009 56.3285 54.1689 54.5864 53.4303 53.0529C52.9041 51.9732 52.3686 50.8662 51.6761 50.3762C50.9929 49.8862 49.765 49.7229 48.574 49.5595C46.7276 49.3146 44.8718 49.0605 43.884 47.7357C42.9053 46.4382 43.2285 44.6597 43.5424 42.9448L43.5608 42.8268C43.7732 41.6654 43.9947 40.4586 43.727 39.642C43.4962 38.907 42.7114 38.1448 41.7143 37.2284C40.4218 36.0216 39 34.6877 39 33.0091C39 31.3123 40.431 29.9694 41.6959 28.7898L41.8159 28.6718C42.6283 27.9006 43.4593 27.1021 43.7085 26.3671C43.9763 25.5233 43.7455 24.2983 43.5331 23.1187C43.2192 21.3766 42.8869 19.58 43.8655 18.2733C44.8441 16.9395 46.6814 16.6945 48.4633 16.4586L48.574 16.4405C49.7558 16.2771 50.9745 16.1138 51.6577 15.6238C52.3593 15.1157 52.9133 13.9633 53.4026 12.9471C54.1412 11.4045 54.9814 9.66238 56.6063 9.14518C56.9109 9.04537 57.2248 9 57.5664 9C58.8036 9 60.0777 9.67146 61.3148 10.3248C62.3858 10.8964 63.5675 11.5225 64.5 11.5225C65.4325 11.5225 66.605 10.8964 67.6483 10.3429C68.9131 9.68053 70.1964 9 71.4243 9C71.7567 9 72.0706 9.04537 72.3845 9.14518C74.0186 9.67146 74.8496 11.4136 75.5882 12.9471C76.1144 14.0268 76.6499 15.1338 77.3331 15.6238C78.0163 16.1138 79.235 16.2771 80.4167 16.4405C82.2817 16.6945 84.1282 16.9395 85.1253 18.2733C86.1039 19.5709 85.7808 21.3493 85.4669 23.0643L85.4484 23.1822C85.2361 24.3437 85.0145 25.5505 85.2822 26.3671C85.513 27.1021 86.2978 27.8643 87.2949 28.7807C88.569 29.9694 90 31.3123 90 33.0091C90 34.7059 88.569 36.0488 87.3041 37.2284L87.1287 37.3917C86.2978 38.1811 85.513 38.9251 85.2822 39.651C85.0237 40.4949 85.2453 41.7198 85.4669 42.8994C85.7808 44.6416 86.1131 46.4382 85.1345 47.7448C84.1559 49.0605 82.3186 49.3055 80.5367 49.5505L80.4444 49.5595C79.2534 49.7229 78.0255 49.8862 77.3423 50.3762C76.6407 50.8843 76.0867 52.0367 75.5974 53.0529C74.8588 54.5955 74.0186 56.3376 72.3937 56.8548C72.0798 56.9546 71.7659 57 71.4336 57C70.2056 57 68.9408 56.3376 67.7129 55.6934C66.6142 55.1127 65.4325 54.4775 64.5092 54.4775C63.586 54.4775 62.4042 55.1036 61.361 55.6571C60.1885 56.2832 58.8682 57 57.5941 57ZM57.6126 10.606C57.4372 10.606 57.2895 10.6242 57.1602 10.6696C56.2 10.9871 55.5261 12.3936 54.926 13.6276C54.2889 14.9251 53.6703 16.1955 52.664 16.9123C51.6207 17.6654 50.162 17.856 48.7495 18.0374C47.2815 18.228 45.7951 18.4276 45.2319 19.1989C44.6595 19.9611 44.9365 21.4038 45.195 22.8102C45.4535 24.2166 45.7212 25.6412 45.315 26.8389C44.9272 28.0276 43.8378 29.0348 42.8684 29.924C41.7697 30.9493 40.6711 31.9837 40.6711 32.9909C40.6711 33.989 41.7697 35.0144 42.8315 36.0125L42.9423 36.1214C43.9209 37.0469 44.9365 38.0087 45.315 39.1338C45.712 40.3588 45.435 41.856 45.195 43.1716C44.9365 44.569 44.6595 46.0117 45.2319 46.783C45.8043 47.5543 47.2815 47.7448 48.7125 47.9354C50.199 48.135 51.6392 48.3346 52.664 49.0696C53.6796 49.7955 54.3074 51.0839 54.9075 52.318C55.5722 53.679 56.2277 55.0219 57.1694 55.3123C57.3079 55.3577 57.4649 55.3758 57.6311 55.3758C58.4804 55.3758 59.5699 54.7951 60.6224 54.2416C61.9057 53.5611 63.2259 52.8624 64.5554 52.8624C65.8849 52.8624 67.2051 53.5611 68.4884 54.2416C69.5871 54.8132 70.6673 55.3758 71.489 55.3758C71.6551 55.3758 71.8029 55.3577 71.9413 55.3123C72.8461 55.0129 73.4647 53.8514 74.1848 52.3543C74.8219 51.0567 75.4404 49.7864 76.4468 49.0696C77.4993 48.3074 78.9488 48.1259 80.3613 47.9444C81.9031 47.7357 83.3157 47.5543 83.8789 46.783C84.4421 46.0117 84.1743 44.569 83.9158 43.1716C83.6573 41.7652 83.3896 40.3406 83.7958 39.1429C84.1836 37.9543 85.273 36.9471 86.2424 36.0578C87.3226 35.0597 88.4397 34.0253 88.4397 33C88.4397 32.0019 87.3411 30.9766 86.2701 29.9785L86.1593 29.8696C85.1807 28.944 84.1651 27.9822 83.7958 26.8571C83.3988 25.6321 83.6758 24.135 83.9158 22.8193C84.1743 21.4219 84.4421 19.9792 83.8789 19.2079C83.3065 18.4367 81.8293 18.2371 80.389 18.0556C78.9118 17.856 77.4623 17.6563 76.4375 16.9214C75.422 16.1955 74.7942 14.907 74.1941 13.673C73.5293 12.3119 72.8738 10.969 71.9321 10.6786C71.7936 10.6333 71.6367 10.6151 71.4705 10.6151C70.6211 10.6151 69.5317 11.1958 68.4792 11.7493C67.2051 12.4299 65.8756 13.1285 64.5462 13.1285C63.2167 13.1285 61.8872 12.4299 60.6131 11.7493C59.5237 11.1777 58.4343 10.606 57.6126 10.606Z" fill="url(#paint1_linear_158_720)"/>
<path d="M64.5 48C56.5104 48 50 41.2743 50 33C50 24.7257 56.5015 18 64.5 18C72.4985 18 79 24.7257 79 33C79 41.2743 72.4985 48 64.5 48ZM64.5 19.6402C57.3784 19.6402 51.5855 25.6329 51.5855 33C51.5855 40.3671 57.3784 46.3598 64.5 46.3598C71.6216 46.3598 77.4145 40.3671 77.4145 33C77.4145 25.6329 71.6216 19.6402 64.5 19.6402Z" fill="url(#paint2_linear_158_720)"/>
<path d="M61.8577 40C60.944 40 60.0962 39.6548 59.4556 39.0369L55.9891 35.7026C54.6703 34.4216 54.6703 32.3319 55.9891 31.0509C56.6296 30.4331 57.4869 30.0878 58.4006 30.0878C59.3143 30.0878 60.1715 30.4331 60.8121 31.0509L61.8577 32.0594L68.1785 25.9631C68.819 25.3452 69.6762 25 70.59 25C71.5037 25 72.3609 25.3452 73.0015 25.9631C73.642 26.5809 74 27.4076 74 28.2798C74 29.152 73.642 29.9788 73.0015 30.5966L64.2598 39.0279C63.6287 39.6638 62.7714 40 61.8577 40ZM58.4194 31.7232C57.9579 31.7232 57.5151 31.8958 57.1948 32.2138C56.8651 32.5318 56.6862 32.9497 56.6862 33.3949C56.6862 33.8401 56.8746 34.258 57.2043 34.5669L60.652 37.8922C60.9628 38.192 61.4056 38.3646 61.8765 38.3646C62.3381 38.3646 62.7903 38.192 63.0917 37.8922L71.8334 29.4609C72.1631 29.1339 72.3421 28.7068 72.3421 28.2798C72.3421 27.8437 72.1631 27.4258 71.8334 27.1078C71.5037 26.7898 71.0704 26.6172 70.6182 26.6172C70.1567 26.6172 69.7234 26.7898 69.3937 27.1078L62.4794 33.7765C62.3193 33.931 62.112 34.0127 61.886 34.0127C61.6599 34.0127 61.4527 33.931 61.2925 33.7765L59.644 32.2047C59.3237 31.8958 58.8904 31.7232 58.4194 31.7232Z" fill="url(#paint3_linear_158_720)"/>
<defs>
<linearGradient id="paint0_linear_158_720" x1="17.0004" y1="69.9964" x2="95.9931" y2="69.9964" gradientUnits="userSpaceOnUse">
<stop stop-color="#1073BA"/>
<stop offset="1" stop-color="#085996"/>
</linearGradient>
<linearGradient id="paint1_linear_158_720" x1="39.0149" y1="32.9925" x2="90.0186" y2="32.9925" gradientUnits="userSpaceOnUse">
<stop stop-color="#1073BA"/>
<stop offset="1" stop-color="#085996"/>
</linearGradient>
<linearGradient id="paint2_linear_158_720" x1="50.005" y1="33.004" x2="78.9982" y2="33.004" gradientUnits="userSpaceOnUse">
<stop stop-color="#1073BA"/>
<stop offset="1" stop-color="#085996"/>
</linearGradient>
<linearGradient id="paint3_linear_158_720" x1="54.9978" y1="32.5056" x2="74.0055" y2="32.5056" gradientUnits="userSpaceOnUse">
<stop stop-color="#1073BA"/>
<stop offset="1" stop-color="#085996"/>
</linearGradient>
</defs>
</svg>
