<svg width="100" height="100" viewBox="0 0 100 100" fill="none" xmlns="http://www.w3.org/2000/svg">
<path d="M43.8173 84C38.9821 84 34.1835 83.0821 29.5498 81.2645C22.5991 78.5291 17.654 78.116 15.3188 78.116L14.8243 78.1252V79.6765C14.8243 80.9708 13.7712 82.0264 12.48 82.0264H6.34435C5.05313 82.0264 4 80.9708 4 79.6765V53.3499C4 52.0556 5.05313 51 6.34435 51H12.4891C13.7803 51 14.8335 52.0556 14.8335 53.3499V55.9202L15.2456 55.6907C18.7346 53.7263 22.2328 52.7349 25.6395 52.7349C30.9234 52.7349 34.9894 55.1032 37.462 57.086C39.2477 58.5179 41.3448 59.2707 43.5243 59.2707H52.6087C54.3394 59.2707 55.9512 60.0234 57.0501 61.3268C58.3596 62.869 58.7717 65.0261 58.149 66.9538L57.975 67.4862L75.0906 61.3268C75.7316 61.0974 76.391 60.9872 77.0687 60.9872C78.0394 60.9872 79.0009 61.2259 79.8617 61.694C82.2244 62.97 83.4515 65.6687 82.8471 68.2665C82.4991 69.7903 81.5376 71.1488 80.2097 71.975C69.8433 78.3363 59.019 81.5583 51.7662 83.1463C49.1562 83.7063 46.4914 84 43.8173 84ZM25.5845 54.3688C22.0955 54.3688 18.5148 55.4979 14.9525 57.7193L14.8243 57.8019V76.4821H15.3738C17.7914 76.4821 22.938 76.9043 30.1633 79.7408C34.5865 81.4757 39.1836 82.3569 43.8173 82.3569C46.3815 82.3569 48.9365 82.0815 51.4273 81.5399C58.552 79.9794 69.1839 76.8125 79.3672 70.5613C80.3013 69.9922 80.9973 69.0192 81.2629 67.8901C81.7024 65.9992 80.8324 64.0715 79.1383 63.1903C78.5156 62.8506 77.8013 62.667 77.0961 62.667C76.6108 62.667 76.1254 62.7497 75.6675 62.9149L55.475 70.1666C54.5043 70.699 53.442 70.9744 52.3614 70.9744H39.5682C39.1103 70.9744 38.744 70.6072 38.744 70.1483C38.744 69.6893 39.1103 69.3221 39.5682 69.3221H52.3339C53.1215 69.3221 53.8999 69.1293 54.5775 68.7622C54.6508 68.7071 54.6783 68.6887 54.7332 68.6612C55.8413 67.9911 56.5556 66.963 56.7387 65.8248C56.9494 64.5672 56.6197 63.3463 55.8047 62.3917C55.008 61.4462 53.8449 60.9046 52.5995 60.9046H43.5151C40.9968 60.9046 38.4784 59.9958 36.4363 58.3527C34.1652 56.5352 30.4381 54.3688 25.5845 54.3688ZM6.34435 52.6248C5.95973 52.6248 5.63006 52.9552 5.63006 53.3408V79.6581C5.63006 80.0437 5.95973 80.3741 6.34435 80.3741H12.4891C12.8737 80.3741 13.2034 80.0437 13.2034 79.6581V53.3408C13.2034 52.9552 12.8737 52.6248 12.4891 52.6248H6.34435Z" fill="white"/>
<path d="M45.2295 54C44.9127 54 44.5959 53.9546 44.2882 53.8548C42.6951 53.3285 41.8715 51.5864 41.1474 50.0529C40.6314 48.9732 40.1064 47.8662 39.4276 47.3762C38.7578 46.8862 37.5539 46.7229 36.3863 46.5595C34.576 46.3146 32.7567 46.0605 31.7882 44.7357C30.8287 43.4382 31.1455 41.6597 31.4533 39.9448L31.4714 39.8268C31.6796 38.6654 31.8968 37.4586 31.6343 36.642C31.408 35.907 30.6387 35.1448 29.6611 34.2284C28.3939 33.0215 27 31.6877 27 30.0091C27 28.3123 28.403 26.9694 29.643 25.7898L29.7607 25.6718C30.5572 24.9006 31.3718 24.1021 31.6162 23.3671C31.8787 22.5233 31.6524 21.2983 31.4442 20.1187C31.1365 18.3766 30.8106 16.58 31.7701 15.2733C32.7295 13.9395 34.5308 13.6945 36.2777 13.4586L36.3863 13.4405C37.5449 13.2771 38.7397 13.1138 39.4095 12.6238C40.0974 12.1157 40.6405 10.9633 41.1202 9.94707C41.8443 8.40454 42.668 6.66238 44.261 6.14518C44.5597 6.04537 44.8675 6 45.2024 6C46.4153 6 47.6644 6.67146 48.8773 7.32476C49.9272 7.89641 51.0858 8.5225 52 8.5225C52.9142 8.5225 54.0637 7.89641 55.0865 7.34291C56.3266 6.68053 57.5847 6 58.7886 6C59.1144 6 59.4222 6.04537 59.7299 6.14518C61.332 6.67146 62.1466 8.41361 62.8707 9.94707C63.3867 11.0268 63.9117 12.1338 64.5815 12.6238C65.2513 13.1138 66.446 13.2771 67.6046 13.4405C69.433 13.6945 71.2433 13.9395 72.2209 15.2733C73.1803 16.5709 72.8635 18.3493 72.5558 20.0643L72.5377 20.1822C72.3295 21.3437 72.1122 22.5505 72.3747 23.3671C72.601 24.1021 73.3704 24.8643 74.3479 25.7807C75.597 26.9694 77 28.3123 77 30.0091C77 31.7059 75.597 33.0488 74.357 34.2284L74.185 34.3917C73.3704 35.1811 72.601 35.9251 72.3747 36.651C72.1213 37.4949 72.3385 38.7198 72.5558 39.8994C72.8635 41.6416 73.1894 43.4382 72.2299 44.7448C71.2705 46.0605 69.4692 46.3055 67.7223 46.5505L67.6318 46.5595C66.4642 46.7229 65.2603 46.8862 64.5905 47.3762C63.9026 47.8843 63.3595 49.0367 62.8798 50.0529C62.1557 51.5955 61.332 53.3376 59.739 53.8548C59.4312 53.9546 59.1235 54 58.7976 54C57.5938 54 56.3537 53.3376 55.1499 52.6934C54.0728 52.1127 52.9142 51.4775 52.0091 51.4775C51.1039 51.4775 49.9453 52.1036 48.9225 52.6571C47.773 53.2832 46.4786 54 45.2295 54ZM45.2476 7.60605C45.0757 7.60605 44.9308 7.6242 44.8041 7.66957C43.8628 7.98715 43.202 9.39357 42.6137 10.6276C41.9891 11.9251 41.3827 13.1955 40.3961 13.9123C39.3733 14.6654 37.9432 14.856 36.5583 15.0374C35.1191 15.228 33.6618 15.4276 33.1097 16.1989C32.5485 16.9611 32.8201 18.4038 33.0735 19.8102C33.3269 21.2166 33.5894 22.6412 33.1912 23.8389C32.811 25.0276 31.7429 26.0348 30.7925 26.924C29.7154 27.9493 28.6383 28.9837 28.6383 29.9909C28.6383 30.989 29.7154 32.0144 30.7563 33.0125L30.865 33.1214C31.8244 34.0469 32.8201 35.0087 33.1912 36.1338C33.5804 37.3588 33.3088 38.856 33.0735 40.1716C32.8201 41.569 32.5485 43.0117 33.1097 43.783C33.6709 44.5543 35.1191 44.7448 36.5221 44.9353C37.9794 45.135 39.3914 45.3346 40.3961 46.0696C41.3917 46.7955 42.0072 48.0839 42.5956 49.318C43.2473 50.679 43.8899 52.0219 44.8132 52.3123C44.9489 52.3577 45.1028 52.3758 45.2657 52.3758C46.0985 52.3758 47.1665 51.7951 48.1984 51.2416C49.4566 50.5611 50.7509 49.8624 52.0543 49.8624C53.3577 49.8624 54.6521 50.5611 55.9102 51.2416C56.9873 51.8132 58.0463 52.3758 58.8519 52.3758C59.0148 52.3758 59.1597 52.3577 59.2954 52.3123C60.1825 52.0129 60.7889 50.8514 61.4949 49.3543C62.1195 48.0567 62.7259 46.7864 63.7125 46.0696C64.7444 45.3074 66.1655 45.1259 67.5503 44.9444C69.0619 44.7357 70.4468 44.5543 70.9989 43.783C71.551 43.0117 71.2886 41.569 71.0351 40.1716C70.7817 38.7652 70.5192 37.3406 70.9175 36.1429C71.2976 34.9543 72.3657 33.9471 73.3161 33.0578C74.3751 32.0597 75.4703 31.0253 75.4703 30C75.4703 29.0019 74.3932 27.9766 73.3432 26.9784L73.2346 26.8696C72.2752 25.944 71.2795 24.9822 70.9175 23.8571C70.5282 22.6321 70.7998 21.135 71.0351 19.8193C71.2886 18.4219 71.551 16.9792 70.9989 16.2079C70.4377 15.4367 68.9895 15.2371 67.5775 15.0556C66.1293 14.856 64.7082 14.6563 63.7035 13.9214C62.7078 13.1955 62.0923 11.907 61.504 10.673C60.8523 9.31191 60.2096 7.969 59.2864 7.67864C59.1506 7.63327 58.9967 7.61512 58.8338 7.61512C58.0011 7.61512 56.933 8.19584 55.9012 8.74934C54.6521 9.42987 53.3487 10.1285 52.0453 10.1285C50.7419 10.1285 49.4384 9.42987 48.1894 8.74934C47.1213 8.17769 46.0532 7.60605 45.2476 7.60605Z" fill="white"/>
<path d="M52 45C43.7349 45 37 38.2743 37 30C37 21.7257 43.7257 15 52 15C60.2743 15 67 21.7257 67 30C67 38.2743 60.2743 45 52 45ZM52 16.6402C44.6329 16.6402 38.6402 22.6329 38.6402 30C38.6402 37.3671 44.6329 43.3598 52 43.3598C59.3671 43.3598 65.3598 37.3671 65.3598 30C65.3598 22.6329 59.3671 16.6402 52 16.6402Z" fill="white"/>
<path d="M49.4968 38C48.6311 38 47.828 37.6548 47.2211 37.0369L43.937 33.7026C42.6877 32.4216 42.6877 30.3319 43.937 29.0509C44.5439 28.4331 45.356 28.0878 46.2216 28.0878C47.0873 28.0878 47.8994 28.4331 48.5062 29.0509L49.4968 30.0594L55.4849 23.9631C56.0917 23.3452 56.9038 23 57.7695 23C58.6351 23 59.4472 23.3452 60.054 23.9631C60.6609 24.5809 61 25.4076 61 26.2798C61 27.152 60.6609 27.9788 60.054 28.5966L51.7724 37.0279C51.1745 37.6638 50.3624 38 49.4968 38ZM46.2395 29.7232C45.8022 29.7232 45.3827 29.8958 45.0793 30.2138C44.767 30.5318 44.5974 30.9497 44.5974 31.3949C44.5974 31.8401 44.7759 32.258 45.0883 32.5669L48.3545 35.8922C48.649 36.192 49.0684 36.3646 49.5146 36.3646C49.9519 36.3646 50.3803 36.192 50.6658 35.8922L58.9474 27.4609C59.2598 27.1339 59.4293 26.7068 59.4293 26.2798C59.4293 25.8437 59.2598 25.4258 58.9474 25.1078C58.6351 24.7898 58.2246 24.6172 57.7962 24.6172C57.359 24.6172 56.9484 24.7898 56.6361 25.1078L50.0858 31.7765C49.9341 31.9309 49.7377 32.0127 49.5235 32.0127C49.3094 32.0127 49.113 31.9309 48.9613 31.7765L47.3996 30.2047C47.0962 29.8958 46.6857 29.7232 46.2395 29.7232Z" fill="white"/>
</svg>
