<svg width="100" height="100" viewBox="0 0 100 100" fill="none" xmlns="http://www.w3.org/2000/svg">
<g clip-path="url(#clip0_158_732)">
<path d="M51.34 0.359863L53.83 5.40986L59.41 6.21986L55.37 10.1599L56.33 15.7099L51.34 13.0899L46.35 15.7099L47.3 10.1599L43.27 6.21986L48.84 5.40986L51.34 0.359863Z" stroke="white" stroke-width="2" stroke-miterlimit="10" stroke-linecap="round" stroke-linejoin="round"/>
<path d="M74.7098 6.00977L75.1198 11.6298L79.9798 14.4798L74.7598 16.6098L73.5498 22.1098L69.9098 17.7998L64.2998 18.3498L67.2798 13.5598L65.0298 8.39977L70.4998 9.74977L74.7098 6.00977Z" stroke="white" stroke-width="2" stroke-miterlimit="10" stroke-linecap="round" stroke-linejoin="round"/>
<path d="M26.5898 7.91016L31.4298 10.8002L36.5498 8.44016L35.3098 13.9402L39.1298 18.0802L33.5198 18.5902L30.7598 23.5102L28.5398 18.3302L23.0098 17.2302L27.2498 13.5102L26.5898 7.91016Z" stroke="white" stroke-width="2" stroke-miterlimit="10" stroke-linecap="round" stroke-linejoin="round"/>
<path d="M19.7699 91.76C19.2499 91.76 18.8699 91.64 18.6499 91.41C18.4399 91.19 18.3499 90.83 18.3699 90.36C18.8499 81.94 22.7199 75.84 29.8699 72.23C31.5099 71.4 33.3199 70.85 35.0699 70.33C35.8199 70.11 36.5599 69.88 37.2999 69.63C38.0799 69.37 38.5399 68.98 38.8299 68.31C39.3299 67.19 39.9099 66.08 40.5099 64.94C40.7199 64.53 40.8499 64.09 40.3299 63.56C39.4099 62.63 38.7299 61.67 38.2999 60.69C37.8999 59.78 37.3099 59.6 36.5399 59.6H36.4199C34.7299 59.6 33.4999 58.83 32.7699 57.31C32.3799 56.51 32.3699 55.62 32.4099 54.85C32.4399 54.29 32.3199 53.84 31.6399 53.49C30.3199 52.81 29.6299 51.69 29.6199 50.24C29.6199 49.28 29.5999 48.31 29.5799 47.34C29.5299 44.73 29.4799 42.03 29.7299 39.4C30.3499 32.76 33.5399 27.5 39.1899 23.78C41.9799 21.94 45.1599 20.87 48.6399 20.59C48.7599 20.58 48.8499 20.55 48.9399 20.52L51.7499 20.5C52.0899 20.56 52.4899 20.62 52.8899 20.68C53.9199 20.84 54.9799 21 55.9899 21.3C61.6599 22.98 65.9499 26.49 68.7499 31.71C70.3499 34.71 71.1199 38.02 71.0999 41.83C71.0899 43.43 71.0899 45.02 71.0999 46.62V49.69C71.0999 52.38 69.4999 53.99 66.8199 54H66.0499C64.4699 54 64.3399 54.11 64.1099 55.64C63.6399 58.71 62.3499 61.41 60.2899 63.64C59.9399 64.02 59.8999 64.36 60.1399 64.83C60.7999 66.09 61.4299 67.37 62.0399 68.65C62.2499 69.08 62.5499 69.34 63.0299 69.49L64.1899 69.86C65.8799 70.41 67.6399 70.97 69.3299 71.6C74.6999 73.58 78.5999 77.52 80.9299 83.29C81.7999 85.45 82.2699 87.8 82.3199 90.3C82.3299 90.84 82.2299 91.21 82.0099 91.43C81.7899 91.65 81.4299 91.76 80.8899 91.76H52.5099H19.7699ZM38.0199 71.74C37.8999 71.74 37.7599 71.77 37.5899 71.83C36.8699 72.08 36.1399 72.32 35.4099 72.55C34.4199 72.87 33.3999 73.2 32.3999 73.57C25.8399 76.03 21.8999 81.06 20.6999 88.5C20.6599 88.78 20.6399 89.09 20.8299 89.31C21.0199 89.54 21.3399 89.57 21.6499 89.57C26.7399 89.56 31.8199 89.56 36.8999 89.56H48.3699L48.0799 89.1C47.8499 88.74 47.6399 88.4 47.4399 88.06C47.0099 87.35 46.5999 86.69 46.1399 86.05C42.9699 81.68 40.4799 77.08 38.7399 72.36C38.6599 72.18 38.4999 71.74 38.0199 71.74ZM62.5999 71.71C62.1699 71.71 62.0499 72.08 61.9799 72.28L61.9399 72.38C60.1899 77.08 57.7199 81.64 54.5999 85.95C54.1199 86.61 53.6999 87.3 53.2599 88.02C53.0499 88.37 52.8299 88.72 52.5999 89.09L52.3099 89.55H78.1199C79.0699 89.55 79.5499 89.55 79.8199 89.22C80.0899 88.89 79.9899 88.36 79.8099 87.49C78.5499 81.22 75.1899 76.75 69.8199 74.19C68.3799 73.5 66.8399 73.02 65.3499 72.56C64.5399 72.31 63.7199 72.06 62.9199 71.77C62.8099 71.73 62.6999 71.71 62.5999 71.71ZM50.2199 74.67C49.9699 74.67 49.7899 74.83 49.6299 75C48.2099 76.52 46.7899 78.03 45.3399 79.53C44.9599 79.92 44.9299 80.27 45.2199 80.73C45.8699 81.79 46.5899 82.83 47.2799 83.83C48.1499 85.09 49.0499 86.4 49.8199 87.75C49.8799 87.86 50.0399 88.14 50.3399 88.14C50.6299 88.14 50.7999 87.85 50.8599 87.74C51.6099 86.43 52.4799 85.17 53.3199 83.95C54.0399 82.91 54.7799 81.83 55.4499 80.72L55.6499 80.38L55.6899 80.26C55.7299 79.92 55.5299 79.72 55.4199 79.62L54.0499 78.25C52.9599 77.16 51.8599 76.06 50.7799 74.96C50.6499 74.84 50.4599 74.67 50.2199 74.67ZM56.5299 67.71C55.0399 69.28 53.5699 70.84 52.0999 72.39C51.9599 72.54 51.7699 72.85 52.1399 73.21L56.8999 77.96L57.0999 77.67C57.7899 76.67 59.9499 71.83 60.2599 70.57C60.3199 70.32 60.2999 70.11 60.1899 69.9C59.7299 68.98 58.3999 66.33 58.3999 66.33L58.2099 65.95L56.5299 67.71ZM42.3399 66.77C42.0099 66.77 41.8599 67.1 41.7999 67.24C41.4299 68.03 41.0299 68.8 40.6399 69.58L40.5299 69.8C40.3699 70.11 40.3499 70.38 40.4699 70.7C41.2999 73.03 42.2599 75.24 43.3099 77.28C43.3899 77.45 43.4899 77.68 43.8899 77.76L44.0999 77.8L44.2099 77.62C44.2599 77.52 44.2899 77.46 44.3199 77.43L44.5699 77.17C45.7499 75.92 46.9399 74.66 48.1299 73.42C48.3599 73.18 48.6199 72.8 48.1299 72.32C46.3699 70.58 44.6199 68.83 42.8799 67.07C42.7199 66.91 42.5499 66.77 42.3399 66.77ZM49.7299 70.81C49.8599 70.94 49.9999 71.01 50.1499 71.01C50.2999 71.01 50.4399 70.94 50.5699 70.8L53.3799 67.82L52.5599 67.92C51.7699 68.01 51.0599 68.06 50.3699 68.06C49.3899 68.06 48.4399 67.97 47.4699 67.78L46.5099 67.59C46.5199 67.58 49.1999 70.27 49.7299 70.81ZM40.4599 60.08C41.8599 62.36 43.5699 63.92 45.6799 64.85C47.2199 65.52 48.8099 65.87 50.3999 65.87C55.6399 65.87 60.1199 62.25 61.5299 56.86C62.5599 52.95 62.8399 48.86 63.1099 44.91L63.1299 44.66C63.1699 44.06 62.9099 43.75 62.3199 43.68C60.9199 43.52 59.6999 43.31 58.5599 43.03C54.3899 42 50.7099 40.05 47.5999 37.22C47.3799 37.02 47.1199 36.79 46.7099 36.79C46.6699 36.79 46.6199 36.79 46.5699 36.8C44.7299 37.02 43.0499 37.66 41.5699 38.7C40.3299 39.58 39.4499 40.76 38.5899 41.91C38.3599 42.22 38.1299 42.53 37.8899 42.83C37.5999 43.2 37.4799 43.58 37.5099 44.06C37.6099 46.04 37.7699 47.97 37.9799 49.81C38.2599 52.24 38.5199 54.42 39.0099 56.63C39.1399 57.2 39.4299 57.44 39.9799 57.44C40.5399 57.42 41.0199 57.41 41.4999 57.41C41.9999 57.41 42.4899 57.42 42.9799 57.43C43.6099 57.43 43.8599 57.11 44.0299 56.76C44.6999 55.46 45.7499 54.75 47.1699 54.64C47.7299 54.6 48.2999 54.58 48.8699 54.58C49.4399 54.58 49.9999 54.6 50.5699 54.64C52.6499 54.78 54.2499 56.51 54.2199 58.58C54.1899 60.67 52.5699 62.32 50.4499 62.41C49.9399 62.43 49.4299 62.44 48.9099 62.44C48.3599 62.44 47.7999 62.43 47.2499 62.4C46.4799 62.36 45.0999 62.12 44.5399 60.97C43.9499 59.75 43.0599 59.59 42.2699 59.59C42.0699 59.59 41.8599 59.6 41.6499 59.61C41.5599 59.62 41.4599 59.62 41.3599 59.62L40.1599 59.61L40.4599 60.08ZM49.7999 60.23C49.9899 60.23 50.1699 60.23 50.3499 60.21C51.3199 60.14 52.0199 59.44 52.0299 58.53C52.0299 57.61 51.3199 56.88 50.3599 56.83C49.8899 56.81 49.4099 56.8 48.9399 56.8C48.4699 56.8 47.9999 56.81 47.5299 56.83C46.5699 56.87 45.8499 57.59 45.8399 58.51C45.8399 59.42 46.5399 60.14 47.5099 60.21C47.6999 60.22 47.8899 60.23 48.0699 60.23L48.8999 60.22L49.7999 60.23ZM35.4499 53.98C35.1299 53.98 34.8799 54.08 34.7299 54.26C34.5599 54.46 34.5199 54.74 34.5999 55.12C34.5999 55.99 34.7499 57.09 35.9799 57.36C36.1099 57.39 36.1999 57.4 36.2899 57.4C36.5099 57.4 36.6299 57.3 36.6899 57.23C36.8399 57.05 36.7999 56.8 36.7599 56.61C36.6499 56.14 36.5799 55.65 36.4999 55.17L36.4299 54.7C36.3799 54.38 36.2499 54.05 35.6999 53.99C35.6099 53.98 35.5299 53.98 35.4499 53.98ZM66.2099 42.35C65.4499 42.35 65.4199 42.98 65.3999 43.22L65.3799 43.56C65.2699 45.57 65.1699 47.66 64.9299 49.69C64.9099 49.84 64.8699 50 64.8299 50.17C64.7099 50.67 64.5699 51.24 64.9599 51.61C65.2199 51.86 65.5699 51.89 65.8099 51.89C65.9999 51.89 66.2099 51.87 66.4099 51.84C66.5899 51.82 66.7599 51.8 66.9299 51.8C68.1899 51.8 68.8599 51.13 68.8799 49.87C68.8899 49.11 68.8899 48.34 68.8799 47.58V45.63C68.8799 44.83 68.8699 44.02 68.8899 43.22C68.8899 42.99 68.8799 42.72 68.6999 42.54C68.5699 42.41 68.3999 42.35 68.1599 42.35H68.0399C67.7599 42.37 67.4699 42.38 67.1799 42.38C66.8999 42.38 66.6099 42.37 66.3299 42.35H66.2099ZM34.4999 51.79C34.6299 51.79 34.7599 51.79 34.8899 51.81C34.9799 51.82 35.0599 51.83 35.1299 51.83C35.3899 51.83 35.5899 51.75 35.7299 51.6C35.9299 51.37 35.9199 51.04 35.8799 50.72C35.5999 48.62 35.4199 46.44 35.3199 44.06C35.2599 42.49 35.1199 42.37 33.5299 42.37L32.9699 42.38C32.8599 42.38 32.7499 42.38 32.6399 42.37C32.5899 42.37 32.5399 42.36 32.4999 42.36C32.2699 42.36 32.0999 42.42 31.9799 42.54C31.7999 42.72 31.7799 42.98 31.7899 43.16C31.7999 44.33 31.7999 45.5 31.7999 46.67C31.7999 47.76 31.7999 48.85 31.8099 49.95C31.8199 51.1 32.4999 51.78 33.6799 51.81H33.8399C33.9399 51.8 34.4999 51.79 34.4999 51.79ZM47.0799 34.55C47.7199 34.55 48.2299 34.76 48.7299 35.24C52.4199 38.76 57.0499 40.86 62.4899 41.49C62.5599 41.5 62.6199 41.5 62.6699 41.5C63.2299 41.5 63.2599 41.03 63.2699 40.83C63.6099 35.73 60.4899 30.89 55.6899 29.08C53.9199 28.41 52.1299 28.32 50.6099 28.32C50.0299 28.32 49.4499 28.33 48.8699 28.35H48.7199C44.0999 28.47 39.8699 31.47 38.2099 35.82C37.9099 36.6 37.5999 37.55 37.5299 38.61L37.5099 38.97L37.8699 38.92C38.2099 38.88 38.3699 38.68 38.4699 38.54C40.7599 36.12 43.4699 34.84 46.8099 34.56C46.8999 34.55 46.9899 34.55 47.0799 34.55ZM49.7799 26.07C50.6399 26.07 51.4899 26.11 52.5099 26.17C59.0299 26.56 64.5499 31.73 65.3499 38.2C65.3699 38.36 65.3599 38.53 65.3599 38.71C65.3499 39.18 65.3299 39.71 65.7299 40C65.9899 40.18 66.3199 40.21 66.5399 40.21C66.7099 40.21 66.8799 40.2 67.0599 40.18C67.2199 40.17 67.3799 40.15 67.5199 40.15H67.7399C68.1599 40.15 68.4399 40.13 68.6299 39.93C68.8299 39.7 68.7899 39.4 68.7099 38.8C67.5099 29.71 59.5999 22.79 50.3099 22.72C48.8799 22.74 47.5599 22.88 46.3799 23.16C38.6599 24.96 33.1399 30.89 31.9799 38.64C31.8799 39.32 31.8299 39.66 32.0399 39.91C32.2499 40.16 32.6099 40.16 33.2999 40.16C33.3899 40.16 33.8299 40.15 33.8299 40.15C33.9199 40.15 34.0099 40.15 34.0999 40.17C34.1999 40.19 34.2999 40.19 34.3799 40.19C35.1499 40.19 35.2099 39.51 35.2499 39.15C35.8499 33.17 38.9899 29.04 44.5899 26.9C46.0599 26.33 47.6999 26.07 49.7799 26.07Z" fill="white"/>
<path d="M74.21 85.2898C73.88 85.2898 73.61 85.1198 73.4 84.7998C73.27 84.5998 73.14 84.3898 73.01 84.1798C72.52 83.3998 72.01 82.5898 71.32 81.9098C71.11 81.6998 70.89 81.4998 70.67 81.2998C70.49 81.1398 70.31 80.9698 70.14 80.8098C69.54 80.2398 69.46 79.6298 69.92 79.1298C70.14 78.8898 70.4 78.7598 70.68 78.7598C70.97 78.7598 71.28 78.8898 71.58 79.1298C73.07 80.3398 74.28 81.7998 75.16 83.4898C75.24 83.6398 75.29 83.8198 75.34 83.9598L75.38 84.0898C75.34 84.6998 75.11 85.0298 74.64 85.1998C74.48 85.2698 74.34 85.2898 74.21 85.2898Z" fill="white"/>
<path d="M65.7498 78.2801C65.4798 78.2701 65.1998 78.1401 64.9898 77.9301C64.7798 77.7101 64.6698 77.4401 64.6798 77.1701C64.6998 76.6101 65.2198 76.1001 65.7698 76.1001C66.0698 76.1101 66.3498 76.2401 66.5498 76.4501C66.7598 76.6701 66.8698 76.9501 66.8598 77.2101C66.8398 77.7701 66.3198 78.2801 65.7698 78.2801H65.7498Z" fill="white"/>
</g>
<defs>
<clipPath id="clip0_158_732">
<rect width="100" height="100" fill="white"/>
</clipPath>
</defs>
</svg>
