<svg width="100" height="100" viewBox="0 0 100 100" fill="none" xmlns="http://www.w3.org/2000/svg">
<path d="M51.34 3.20996L53.83 8.25996L59.41 9.06996L55.37 13.01L56.33 18.56L51.34 15.94L46.35 18.56L47.3 13.01L43.27 9.06996L48.84 8.25996L51.34 3.20996Z" stroke="url(#paint0_linear_158_725)" stroke-width="2" stroke-miterlimit="10" stroke-linecap="round" stroke-linejoin="round"/>
<path d="M74.7098 8.85986L75.1198 14.4799L79.9798 17.3299L74.7598 19.4599L73.5498 24.9599L69.9098 20.6499L64.2998 21.1999L67.2798 16.4099L65.0298 11.2499L70.4998 12.5999L74.7098 8.85986Z" stroke="url(#paint1_linear_158_725)" stroke-width="2" stroke-miterlimit="10" stroke-linecap="round" stroke-linejoin="round"/>
<path d="M26.5898 10.7598L31.4298 13.6398L36.5498 11.2898L35.3098 16.7898L39.1298 20.9298L33.5198 21.4398L30.7598 26.3598L28.5398 21.1798L23.0098 20.0798L27.2498 16.3598L26.5898 10.7598Z" stroke="url(#paint2_linear_158_725)" stroke-width="2" stroke-miterlimit="10" stroke-linecap="round" stroke-linejoin="round"/>
<path d="M19.7699 94.6101C19.2499 94.6101 18.8699 94.4901 18.6499 94.2601C18.4399 94.0401 18.3499 93.6801 18.3699 93.2101C18.8499 84.7901 22.7199 78.6901 29.8699 75.0801C31.5099 74.2501 33.3199 73.7001 35.0699 73.1801C35.8199 72.9601 36.5599 72.7301 37.2999 72.4801C38.0799 72.2201 38.5399 71.8301 38.8299 71.1601C39.3299 70.0401 39.9099 68.9301 40.5099 67.7901C40.7199 67.3801 40.8499 66.9401 40.3299 66.4101C39.4099 65.4801 38.7299 64.5201 38.2999 63.5401C37.8999 62.6301 37.3099 62.4501 36.5399 62.4501H36.4199C34.7299 62.4501 33.4999 61.6801 32.7699 60.1601C32.3799 59.3601 32.3699 58.4701 32.4099 57.7001C32.4399 57.1401 32.3199 56.6901 31.6399 56.3401C30.3199 55.6601 29.6299 54.5401 29.6199 53.0901C29.6199 52.1301 29.5999 51.1601 29.5799 50.1901C29.5299 47.5801 29.4799 44.8801 29.7299 42.2501C30.3499 35.6101 33.5399 30.3501 39.1899 26.6301C41.9799 24.7901 45.1599 23.7201 48.6399 23.4401C48.7599 23.4301 48.8499 23.4001 48.9399 23.3701L51.7499 23.3501C52.0899 23.4101 52.4899 23.4701 52.8899 23.5301C53.9199 23.6901 54.9799 23.8501 55.9899 24.1501C61.6599 25.8301 65.9499 29.3401 68.7499 34.5601C70.3499 37.5601 71.1199 40.8701 71.0999 44.6801C71.0899 46.2801 71.0899 47.8701 71.0999 49.4701V52.5401C71.0999 55.2301 69.4999 56.8401 66.8199 56.8501H66.0499C64.4699 56.8501 64.3399 56.9601 64.1099 58.4901C63.6399 61.5601 62.3499 64.2601 60.2899 66.4901C59.9399 66.8701 59.8999 67.2101 60.1399 67.6801C60.7999 68.9401 61.4299 70.2201 62.0399 71.5001C62.2499 71.9301 62.5499 72.1901 63.0299 72.3401L64.1899 72.7101C65.8799 73.2601 67.6399 73.8201 69.3299 74.4501C74.6999 76.4301 78.5999 80.3701 80.9299 86.1401C81.7999 88.3001 82.2699 90.6501 82.3199 93.1501C82.3299 93.6901 82.2299 94.0601 82.0099 94.2801C81.7899 94.5001 81.4299 94.6101 80.8899 94.6101H52.5099H19.7699ZM38.0199 74.5901C37.8999 74.5901 37.7599 74.6201 37.5899 74.6801C36.8699 74.9301 36.1399 75.1701 35.4099 75.4001C34.4199 75.7201 33.3999 76.0501 32.3999 76.4201C25.8299 78.8801 21.8899 83.9101 20.6899 91.3501C20.6499 91.6301 20.6299 91.9401 20.8199 92.1601C21.0099 92.3901 21.3299 92.4201 21.6399 92.4201C26.7299 92.4101 31.8099 92.4101 36.8899 92.4101H48.3599L48.0699 91.9501C47.8399 91.5901 47.6299 91.2501 47.4299 90.9101C46.9999 90.2001 46.5899 89.5401 46.1299 88.9001C42.9599 84.5301 40.4699 79.9301 38.7299 75.2101C38.6599 75.0201 38.4999 74.5901 38.0199 74.5901ZM62.5999 74.5601C62.1699 74.5601 62.0499 74.9301 61.9799 75.1301L61.9399 75.2301C60.1899 79.9301 57.7199 84.4901 54.5999 88.8001C54.1199 89.4601 53.6999 90.1501 53.2599 90.8701C53.0499 91.2201 52.8299 91.5701 52.5999 91.9401L52.3099 92.4001H78.1199C79.0699 92.4001 79.5499 92.4001 79.8199 92.0701C80.0899 91.7401 79.9899 91.2101 79.8099 90.3401C78.5499 84.0701 75.1899 79.6001 69.8199 77.0401C68.3799 76.3501 66.8399 75.8701 65.3499 75.4101C64.5399 75.1601 63.7199 74.9101 62.9199 74.6201C62.8099 74.5801 62.6999 74.5601 62.5999 74.5601ZM50.2199 77.5201C49.9699 77.5201 49.7899 77.6801 49.6299 77.8501C48.2099 79.3701 46.7899 80.8801 45.3399 82.3801C44.9599 82.7701 44.9299 83.1201 45.2199 83.5801C45.8699 84.6401 46.5899 85.6801 47.2799 86.6801C48.1499 87.9401 49.0499 89.2501 49.8199 90.6001C49.8799 90.7101 50.0399 90.9901 50.3399 90.9901C50.6299 90.9901 50.7999 90.7001 50.8599 90.5901C51.6099 89.2801 52.4799 88.0201 53.3199 86.8001C54.0399 85.7601 54.7799 84.6801 55.4499 83.5701L55.6499 83.2301L55.6899 83.1101C55.7299 82.7701 55.5299 82.5701 55.4199 82.4701L54.0499 81.1001C52.9599 80.0101 51.8599 78.9101 50.7799 77.8101C50.6499 77.6901 50.4599 77.5201 50.2199 77.5201ZM56.5299 70.5601C55.0399 72.1301 53.5699 73.6901 52.0999 75.2401C51.9599 75.3901 51.7699 75.7001 52.1399 76.0601L56.8999 80.8101L57.0999 80.5201C57.7899 79.5201 59.9499 74.6801 60.2599 73.4201C60.3199 73.1701 60.2999 72.9601 60.1899 72.7501C59.7299 71.8301 58.3999 69.1801 58.3999 69.1801L58.2099 68.8001L56.5299 70.5601ZM42.3399 69.6201C42.0099 69.6201 41.8599 69.9501 41.7999 70.0901C41.4299 70.8801 41.0299 71.6501 40.6399 72.4301L40.5299 72.6501C40.3699 72.9601 40.3499 73.2301 40.4699 73.5501C41.2999 75.8801 42.2599 78.0901 43.3099 80.1301C43.3899 80.3001 43.4899 80.5301 43.8899 80.6101L44.0999 80.6501L44.2099 80.4701C44.2599 80.3701 44.2899 80.3101 44.3199 80.2801L44.5699 80.0201C45.7499 78.7701 46.9399 77.5101 48.1299 76.2701C48.3599 76.0301 48.6199 75.6501 48.1299 75.1701C46.3699 73.4301 44.6199 71.6801 42.8799 69.9201C42.7199 69.7601 42.5499 69.6201 42.3399 69.6201ZM49.7299 73.6601C49.8599 73.7901 49.9999 73.8601 50.1499 73.8601C50.2999 73.8601 50.4399 73.7901 50.5699 73.6501L53.3799 70.6701L52.5599 70.7701C51.7699 70.8601 51.0599 70.9101 50.3699 70.9101C49.3899 70.9101 48.4399 70.8201 47.4699 70.6301L46.5099 70.4401C46.5199 70.4301 49.1999 73.1201 49.7299 73.6601ZM40.4599 62.9301C41.8599 65.2101 43.5699 66.7701 45.6799 67.7001C47.2199 68.3701 48.8099 68.7201 50.3999 68.7201C55.6399 68.7201 60.1199 65.1001 61.5299 59.7101C62.5599 55.8001 62.8399 51.7101 63.1099 47.7601L63.1299 47.5101C63.1699 46.9101 62.9099 46.6001 62.3199 46.5301C60.9199 46.3701 59.6999 46.1601 58.5599 45.8801C54.3899 44.8501 50.7099 42.9001 47.5999 40.0701C47.3799 39.8701 47.1199 39.6401 46.7099 39.6401C46.6699 39.6401 46.6199 39.6401 46.5699 39.6501C44.7299 39.8701 43.0499 40.5101 41.5699 41.5501C40.3299 42.4301 39.4499 43.6101 38.5899 44.7601C38.3599 45.0701 38.1299 45.3801 37.8899 45.6801C37.5999 46.0501 37.4799 46.4301 37.5099 46.9101C37.6099 48.8901 37.7699 50.8201 37.9799 52.6601C38.2599 55.0901 38.5199 57.2701 39.0099 59.4801C39.1399 60.0501 39.4299 60.2901 39.9799 60.2901C40.5399 60.2701 41.0199 60.2601 41.4999 60.2601C41.9999 60.2601 42.4899 60.2701 42.9799 60.2801C43.6099 60.2801 43.8599 59.9601 44.0299 59.6101C44.6999 58.3101 45.7499 57.6001 47.1699 57.4901C47.7299 57.4501 48.2999 57.4301 48.8699 57.4301C49.4399 57.4301 49.9999 57.4501 50.5699 57.4901C52.6499 57.6301 54.2499 59.3601 54.2199 61.4301C54.1899 63.5201 52.5699 65.1701 50.4499 65.2601C49.9399 65.2801 49.4299 65.2901 48.9099 65.2901C48.3599 65.2901 47.7999 65.2801 47.2499 65.2501C46.4799 65.2101 45.0999 64.9701 44.5399 63.8201C43.9499 62.6001 43.0599 62.4401 42.2699 62.4401C42.0699 62.4401 41.8599 62.4501 41.6499 62.4601C41.5599 62.4701 41.4599 62.4701 41.3599 62.4701L40.1599 62.4601L40.4599 62.9301ZM49.7999 63.0801C49.9899 63.0801 50.1699 63.0801 50.3499 63.0601C51.3199 62.9901 52.0199 62.2901 52.0299 61.3801C52.0299 60.4601 51.3199 59.7301 50.3599 59.6801C49.8899 59.6601 49.4099 59.6501 48.9399 59.6501C48.4699 59.6501 47.9999 59.6601 47.5299 59.6801C46.5699 59.7201 45.8499 60.4401 45.8399 61.3601C45.8399 62.2701 46.5399 62.9901 47.5099 63.0601C47.6999 63.0701 47.8899 63.0801 48.0699 63.0801L48.8999 63.0701L49.7999 63.0801ZM35.4499 56.8301C35.1299 56.8301 34.8799 56.9301 34.7299 57.1101C34.5599 57.3101 34.5199 57.5901 34.5999 57.9701C34.5999 58.8401 34.7499 59.9401 35.9799 60.2101C36.1099 60.2401 36.1999 60.2501 36.2899 60.2501C36.5099 60.2501 36.6299 60.1501 36.6899 60.0801C36.8399 59.9001 36.7999 59.6501 36.7599 59.4601C36.6499 58.9901 36.5799 58.5001 36.4999 58.0201L36.4299 57.5501C36.3799 57.2301 36.2499 56.9001 35.6999 56.8401C35.6099 56.8301 35.5299 56.8301 35.4499 56.8301ZM66.2099 45.1901C65.4499 45.1901 65.4199 45.8201 65.3999 46.0601L65.3799 46.4001C65.2699 48.4101 65.1699 50.5001 64.9299 52.5301C64.9099 52.6801 64.8699 52.8401 64.8299 53.0101C64.7099 53.5101 64.5699 54.0801 64.9599 54.4501C65.2199 54.7001 65.5699 54.7301 65.8099 54.7301C65.9999 54.7301 66.2099 54.7101 66.4099 54.6801C66.5899 54.6601 66.7599 54.6401 66.9299 54.6401C68.1899 54.6401 68.8599 53.9701 68.8799 52.7101C68.8899 51.9501 68.8899 51.1801 68.8799 50.4201V48.4701C68.8799 47.6701 68.8699 46.8601 68.8899 46.0601C68.8899 45.8301 68.8799 45.5601 68.6999 45.3801C68.5699 45.2501 68.3999 45.1901 68.1599 45.1901H68.0399C67.7599 45.2101 67.4699 45.2201 67.1799 45.2201C66.8999 45.2201 66.6099 45.2101 66.3299 45.1901H66.2099ZM34.4999 54.6401C34.6299 54.6401 34.7599 54.6401 34.8899 54.6601C34.9799 54.6701 35.0599 54.6801 35.1299 54.6801C35.3899 54.6801 35.5899 54.6001 35.7299 54.4501C35.9299 54.2201 35.9199 53.8901 35.8799 53.5701C35.5999 51.4701 35.4199 49.2901 35.3199 46.9101C35.2599 45.3401 35.1199 45.2201 33.5299 45.2201L32.9699 45.2301C32.8599 45.2301 32.7499 45.2301 32.6399 45.2201C32.5899 45.2201 32.5399 45.2101 32.4999 45.2101C32.2699 45.2101 32.0999 45.2701 31.9799 45.3901C31.7999 45.5701 31.7799 45.8301 31.7899 46.0101C31.7999 47.1801 31.7999 48.3501 31.7999 49.5201C31.7999 50.6101 31.7999 51.7001 31.8099 52.8001C31.8199 53.9501 32.4999 54.6301 33.6799 54.6601H33.8399C33.9399 54.6501 34.4999 54.6401 34.4999 54.6401ZM47.0799 37.3901C47.7199 37.3901 48.2299 37.6001 48.7299 38.0801C52.4199 41.6001 57.0499 43.7001 62.4899 44.3301C62.5599 44.3401 62.6199 44.3401 62.6699 44.3401C63.2299 44.3401 63.2599 43.8701 63.2699 43.6701C63.6099 38.5701 60.4899 33.7301 55.6899 31.9201C53.9199 31.2501 52.1299 31.1601 50.6099 31.1601C50.0299 31.1601 49.4499 31.1701 48.8699 31.1901H48.7199C44.0999 31.3101 39.8699 34.3101 38.2099 38.6601C37.9099 39.4401 37.5999 40.3901 37.5299 41.4501L37.5099 41.8101L37.8699 41.7601C38.2099 41.7201 38.3699 41.5201 38.4699 41.3801C40.7599 38.9601 43.4699 37.6801 46.8099 37.4001C46.8999 37.4001 46.9899 37.3901 47.0799 37.3901ZM49.7799 28.9201C50.6399 28.9201 51.4899 28.9601 52.5099 29.0201C59.0299 29.4101 64.5499 34.5801 65.3499 41.0501C65.3699 41.2101 65.3599 41.3801 65.3599 41.5601C65.3499 42.0301 65.3299 42.5601 65.7299 42.8501C65.9899 43.0301 66.3199 43.0601 66.5399 43.0601C66.7099 43.0601 66.8799 43.0501 67.0599 43.0301C67.2199 43.0201 67.3799 43.0001 67.5199 43.0001H67.7399C68.1599 43.0001 68.4399 42.9801 68.6299 42.7801C68.8299 42.5501 68.7899 42.2501 68.7099 41.6501C67.5099 32.5601 59.5999 25.6401 50.3099 25.5701C48.8799 25.5901 47.5599 25.7301 46.3799 26.0101C38.6599 27.8101 33.1399 33.7401 31.9799 41.4901C31.8799 42.1701 31.8299 42.5101 32.0399 42.7601C32.2499 43.0101 32.6199 43.0001 33.3099 43.0001C33.3999 43.0001 33.8399 42.9901 33.8399 42.9901C33.9299 42.9901 34.0199 42.9901 34.1099 43.0101C34.2099 43.0301 34.3099 43.0301 34.3899 43.0301C35.1599 43.0301 35.2199 42.3501 35.2599 41.9901C35.8599 36.0101 38.9999 31.8801 44.5999 29.7401C46.0599 29.1801 47.6999 28.9201 49.7799 28.9201Z" fill="url(#paint3_linear_158_725)"/>
<path d="M74.21 88.1399C73.88 88.1399 73.61 87.9699 73.4 87.6499C73.27 87.4499 73.14 87.2399 73.01 87.0299C72.52 86.2499 72.01 85.4399 71.32 84.7599C71.11 84.5499 70.89 84.3499 70.67 84.1499C70.49 83.9899 70.31 83.8199 70.14 83.6599C69.54 83.0899 69.46 82.4799 69.92 81.9799C70.14 81.7399 70.4 81.6099 70.68 81.6099C70.97 81.6099 71.28 81.7399 71.58 81.9799C73.07 83.1899 74.28 84.6499 75.16 86.3399C75.24 86.4899 75.29 86.6699 75.34 86.8099L75.38 86.9399C75.34 87.5499 75.11 87.8799 74.64 88.0499C74.48 88.1199 74.34 88.1399 74.21 88.1399Z" fill="url(#paint4_linear_158_725)"/>
<path d="M65.7498 81.1302C65.4798 81.1202 65.1998 80.9902 64.9898 80.7802C64.7798 80.5602 64.6698 80.2902 64.6798 80.0202C64.6998 79.4602 65.2198 78.9502 65.7698 78.9502C66.0698 78.9602 66.3498 79.0902 66.5498 79.3002C66.7598 79.5202 66.8698 79.8002 66.8598 80.0602C66.8398 80.6202 66.3198 81.1302 65.7698 81.1302H65.7498Z" fill="url(#paint5_linear_158_725)"/>
<defs>
<linearGradient id="paint0_linear_158_725" x1="42.2651" y1="10.8833" x2="60.4104" y2="10.8833" gradientUnits="userSpaceOnUse">
<stop stop-color="#1073BA"/>
<stop offset="1" stop-color="#085996"/>
</linearGradient>
<linearGradient id="paint1_linear_158_725" x1="63.3048" y1="16.9091" x2="80.98" y2="16.9091" gradientUnits="userSpaceOnUse">
<stop stop-color="#1073BA"/>
<stop offset="1" stop-color="#085996"/>
</linearGradient>
<linearGradient id="paint2_linear_158_725" x1="22.0073" y1="18.5607" x2="40.1303" y2="18.5607" gradientUnits="userSpaceOnUse">
<stop stop-color="#1073BA"/>
<stop offset="1" stop-color="#085996"/>
</linearGradient>
<linearGradient id="paint3_linear_158_725" x1="18.3667" y1="58.9826" x2="82.3088" y2="58.9826" gradientUnits="userSpaceOnUse">
<stop stop-color="#1073BA"/>
<stop offset="1" stop-color="#085996"/>
</linearGradient>
<linearGradient id="paint4_linear_158_725" x1="69.6172" y1="84.8823" x2="75.3666" y2="84.8823" gradientUnits="userSpaceOnUse">
<stop stop-color="#1073BA"/>
<stop offset="1" stop-color="#085996"/>
</linearGradient>
<linearGradient id="paint5_linear_158_725" x1="64.6834" y1="80.035" x2="66.8687" y2="80.035" gradientUnits="userSpaceOnUse">
<stop stop-color="#1073BA"/>
<stop offset="1" stop-color="#085996"/>
</linearGradient>
</defs>
</svg>
