<svg width="100" height="100" viewBox="0 0 100 100" fill="none" xmlns="http://www.w3.org/2000/svg">
<g clip-path="url(#clip0_158_868)">
<path d="M10.8702 43.74C10.5502 42.89 8.90016 39.45 8.66016 38.56L15.2202 34.71L15.1702 27.1L9.12016 23.66C9.64016 22.08 10.3302 20.53 11.1802 19.03C12.3702 16.93 13.8202 15.06 15.4502 13.44V13.45L22.0702 17.21L28.6402 13.37L28.5902 6.40997C32.5102 5.60997 36.6302 5.69997 40.6102 6.77997L40.6002 6.78997L40.6502 14.4L47.2702 18.16L53.2802 14.64C56.0002 17.71 57.9202 21.35 58.9502 25.23L52.3902 29.08L52.4402 36.69L58.4902 40.13C57.9702 41.71 57.2802 43.26 56.4302 44.76C55.2402 46.86 53.7902 48.73 52.1602 50.35V50.34L45.5402 46.58L38.9702 50.42L39.0202 57.38C35.1002 58.18 30.9802 58.09 27.0002 57.01V57L26.9502 49.39L23.1002 47.2" stroke="white" stroke-width="2" stroke-miterlimit="10" stroke-linecap="round" stroke-linejoin="round"/>
<path d="M21.96 31.9001C21.96 25.3601 27.26 20.0601 33.8 20.0601C40.34 20.0601 45.64 25.3601 45.64 31.9001C45.64 38.4401 40.34 43.7401 33.8 43.7401" stroke="white" stroke-width="2" stroke-miterlimit="10" stroke-linecap="round" stroke-linejoin="round"/>
<path d="M45.6503 28.6301L38.6703 36.6101L32.1503 26.6201L6.57031 55.7601" stroke="white" stroke-width="2" stroke-miterlimit="10" stroke-linecap="round" stroke-linejoin="round"/>
<path d="M71.7002 0.510254L55.6802 17.8103" stroke="white" stroke-width="2" stroke-miterlimit="10" stroke-linecap="round" stroke-linejoin="round"/>
<path d="M64.75 0.510039L72.82 -0.709961V6.97004" stroke="white" stroke-width="2" stroke-miterlimit="10" stroke-linecap="round" stroke-linejoin="round"/>
<path d="M44.25 95.0102V62.4102H60.34V95.0102" stroke="white" stroke-width="2" stroke-miterlimit="10" stroke-linecap="round" stroke-linejoin="round"/>
<path d="M75.54 95.0099V31.8799H92.12V95.0099" stroke="white" stroke-width="2" stroke-miterlimit="10" stroke-linecap="round" stroke-linejoin="round"/>
<path d="M11.7202 95.0099V81.9399H29.0702V95.0099" stroke="white" stroke-width="2" stroke-miterlimit="10" stroke-linecap="round" stroke-linejoin="round"/>
<path d="M3.43018 95.0103H96.7402" stroke="white" stroke-width="2" stroke-miterlimit="10" stroke-linecap="round" stroke-linejoin="round"/>
</g>
<defs>
<clipPath id="clip0_158_868">
<rect width="100" height="100" fill="white"/>
</clipPath>
</defs>
</svg>
