<svg width="100" height="100" viewBox="0 0 100 100" fill="none" xmlns="http://www.w3.org/2000/svg">
<path d="M70.4401 94.7902V94.9102H5.1001C5.1001 76.8702 19.7301 62.2402 37.7701 62.2402C44.4201 62.2402 50.6101 64.2302 55.7601 67.6502C54.8801 69.9202 54.3901 72.3902 54.3901 74.9802C54.4001 84.7202 61.2701 92.8502 70.4401 94.7902Z" stroke="url(#paint0_linear_158_907)" stroke-width="2" stroke-miterlimit="10" stroke-linecap="round" stroke-linejoin="round"/>
<path d="M54.5103 40.9199C54.5103 50.1699 47.0103 57.6599 37.7703 57.6599C28.5303 57.6599 21.0303 50.1599 21.0303 40.9199" stroke="url(#paint1_linear_158_907)" stroke-width="2" stroke-miterlimit="10" stroke-linecap="round" stroke-linejoin="round"/>
<path d="M58.3501 38.4402H17.6901C16.9701 38.4402 16.3901 37.8602 16.3901 37.1402V34.4802C16.3901 33.7602 16.9701 33.1802 17.6901 33.1802H58.3501C59.0701 33.1802 59.6501 33.7602 59.6501 34.4802V37.1402C59.6501 37.8602 59.0701 38.4402 58.3501 38.4402Z" stroke="url(#paint2_linear_158_907)" stroke-width="2" stroke-miterlimit="10" stroke-linecap="round" stroke-linejoin="round"/>
<path d="M70.4403 94.79C71.8003 95.07 73.2103 95.22 74.6503 95.22C85.8303 95.22 94.9003 86.15 94.9003 74.96C94.9003 63.78 85.8303 54.71 74.6503 54.71C66.0503 54.71 58.7003 60.07 55.7603 67.63" stroke="url(#paint3_linear_158_907)" stroke-width="2" stroke-miterlimit="10" stroke-linecap="round" stroke-linejoin="round"/>
<path d="M74.8999 84.8203V89.3303" stroke="url(#paint4_linear_158_907)" stroke-width="2" stroke-miterlimit="10" stroke-linecap="round" stroke-linejoin="round"/>
<path d="M74.8999 59.8301V64.2001" stroke="url(#paint5_linear_158_907)" stroke-width="2" stroke-miterlimit="10" stroke-linecap="round" stroke-linejoin="round"/>
<path d="M80.1501 65.31C78.7001 64.84 77.2201 64.36 75.6901 64.23C72.9801 64.01 70.1301 65.37 69.7301 68.31C68.8301 74.89 78.8401 73.34 79.9501 78.85C80.2401 80.3 79.7801 81.87 78.7501 82.93C77.6701 84.05 76.0701 84.55 74.5201 84.56C72.5001 84.58 70.4201 83.96 68.6401 83.03" stroke="url(#paint6_linear_158_907)" stroke-width="2" stroke-miterlimit="10" stroke-linecap="round" stroke-linejoin="round"/>
<path d="M19.23 32.97C19.23 32.97 22.37 24.96 22.85 19.48C22.86 19.42 22.86 19.35 22.87 19.29C22.87 19.27 22.88 19.26 22.88 19.24C22.88 19.23 22.88 19.22 22.88 19.21" stroke="url(#paint7_linear_158_907)" stroke-width="2" stroke-miterlimit="10" stroke-linecap="round" stroke-linejoin="round"/>
<path d="M22.8803 19.1802C22.8803 19.1802 22.8803 19.1902 22.8703 19.2202C22.8603 19.2602 22.8603 19.3502 22.8403 19.4502C22.8303 19.5102 22.8303 19.5702 22.8203 19.6402C22.8103 19.6502 22.8103 19.6702 22.8103 19.6802V19.6902C22.8003 19.7202 22.8003 19.7402 22.8003 19.7702C22.8003 19.7802 22.8003 19.7802 22.8003 19.7902C22.8003 19.8102 22.7903 19.8302 22.7903 19.8402C22.7803 19.8502 22.7803 19.8602 22.7803 19.8702C22.7803 19.8802 22.7803 19.8902 22.7803 19.9002C22.7703 19.9102 22.7703 19.9102 22.7703 19.9202C22.7703 19.9302 22.7703 19.9302 22.7703 19.9402C22.7603 19.9602 22.7603 19.9802 22.7603 19.9902" stroke="url(#paint8_linear_158_907)" stroke-width="2" stroke-miterlimit="10" stroke-linecap="round" stroke-linejoin="round"/>
<path d="M22.7803 20.02C22.7803 20.02 22.7803 20.01 22.7903 19.98C22.7903 19.97 22.7903 19.95 22.8003 19.93C22.8003 19.92 22.8003 19.92 22.8003 19.91C22.8003 19.9 22.8003 19.9 22.8103 19.89C22.8103 19.88 22.8103 19.87 22.8103 19.86C22.8103 19.85 22.8103 19.84 22.8203 19.83C22.8203 19.82 22.8303 19.8 22.8303 19.78C22.8303 19.77 22.8303 19.77 22.8303 19.76C22.8403 19.73 22.8403 19.72 22.8403 19.68V19.67C22.8403 19.66 22.8403 19.64 22.8503 19.63C22.8503 19.59 22.8603 19.53 22.8703 19.48C22.8703 19.47 22.8703 19.46 22.8703 19.45C22.8803 19.41 22.8803 19.35 22.8903 19.3C22.8903 19.28 22.9003 19.27 22.9003 19.25C23.5503 14.14 27.9503 9.69002 33.1403 8.02002" stroke="url(#paint9_linear_158_907)" stroke-width="2" stroke-miterlimit="10" stroke-linecap="round" stroke-linejoin="round"/>
<path d="M41.8301 7.77979C47.5901 9.14979 51.3101 13.4498 52.3701 20.6598C52.8001 26.1398 55.6701 32.6998 55.6701 32.6998" stroke="url(#paint10_linear_158_907)" stroke-width="2" stroke-miterlimit="10" stroke-linecap="round" stroke-linejoin="round"/>
<path d="M32.9102 20.75V9.38002C32.9102 6.84002 34.9702 4.77002 37.5202 4.77002C40.0602 4.77002 42.1302 6.83002 42.1302 9.38002V20.75" stroke="url(#paint11_linear_158_907)" stroke-width="2" stroke-miterlimit="10" stroke-linecap="round" stroke-linejoin="round"/>
<path d="M80.1503 33.1899H84.5403L75.3003 43.4499L66.0503 33.1899H70.3103L70.4403 9.68994H80.1503V33.1899Z" stroke="url(#paint12_linear_158_907)" stroke-width="2" stroke-miterlimit="10" stroke-linecap="round" stroke-linejoin="round"/>
<defs>
<linearGradient id="paint0_linear_158_907" x1="4.1004" y1="78.5735" x2="71.4404" y2="78.5735" gradientUnits="userSpaceOnUse">
<stop stop-color="#1073BA"/>
<stop offset="1" stop-color="#085996"/>
</linearGradient>
<linearGradient id="paint1_linear_158_907" x1="20.0277" y1="49.293" x2="55.5108" y2="49.293" gradientUnits="userSpaceOnUse">
<stop stop-color="#1073BA"/>
<stop offset="1" stop-color="#085996"/>
</linearGradient>
<linearGradient id="paint2_linear_158_907" x1="15.3917" y1="35.8175" x2="60.6465" y2="35.8175" gradientUnits="userSpaceOnUse">
<stop stop-color="#1073BA"/>
<stop offset="1" stop-color="#085996"/>
</linearGradient>
<linearGradient id="paint3_linear_158_907" x1="54.7637" y1="74.976" x2="95.9" y2="74.976" gradientUnits="userSpaceOnUse">
<stop stop-color="#1073BA"/>
<stop offset="1" stop-color="#085996"/>
</linearGradient>
<linearGradient id="paint4_linear_158_907" x1="-nan" y1="-nan" x2="-nan" y2="-nan" gradientUnits="userSpaceOnUse">
<stop stop-color="#1073BA"/>
<stop offset="1" stop-color="#085996"/>
</linearGradient>
<linearGradient id="paint5_linear_158_907" x1="-nan" y1="-nan" x2="-nan" y2="-nan" gradientUnits="userSpaceOnUse">
<stop stop-color="#1073BA"/>
<stop offset="1" stop-color="#085996"/>
</linearGradient>
<linearGradient id="paint6_linear_158_907" x1="67.6474" y1="74.3831" x2="81.1487" y2="74.3831" gradientUnits="userSpaceOnUse">
<stop stop-color="#1073BA"/>
<stop offset="1" stop-color="#085996"/>
</linearGradient>
<linearGradient id="paint7_linear_158_907" x1="18.2277" y1="26.0924" x2="23.8762" y2="26.0924" gradientUnits="userSpaceOnUse">
<stop stop-color="#1073BA"/>
<stop offset="1" stop-color="#085996"/>
</linearGradient>
<linearGradient id="paint8_linear_158_907" x1="21.787" y1="19.5784" x2="23.8828" y2="19.5784" gradientUnits="userSpaceOnUse">
<stop stop-color="#1073BA"/>
<stop offset="1" stop-color="#085996"/>
</linearGradient>
<linearGradient id="paint9_linear_158_907" x1="21.7806" y1="14.0128" x2="34.1126" y2="14.0128" gradientUnits="userSpaceOnUse">
<stop stop-color="#1073BA"/>
<stop offset="1" stop-color="#085996"/>
</linearGradient>
<linearGradient id="paint10_linear_158_907" x1="40.8278" y1="20.2393" x2="56.6677" y2="20.2393" gradientUnits="userSpaceOnUse">
<stop stop-color="#1073BA"/>
<stop offset="1" stop-color="#085996"/>
</linearGradient>
<linearGradient id="paint11_linear_158_907" x1="31.9094" y1="12.7623" x2="43.1204" y2="12.7623" gradientUnits="userSpaceOnUse">
<stop stop-color="#1073BA"/>
<stop offset="1" stop-color="#085996"/>
</linearGradient>
<linearGradient id="paint12_linear_158_907" x1="65.051" y1="26.5719" x2="85.5361" y2="26.5719" gradientUnits="userSpaceOnUse">
<stop stop-color="#1073BA"/>
<stop offset="1" stop-color="#085996"/>
</linearGradient>
</defs>
</svg>
