<svg width="100" height="100" viewBox="0 0 100 100" fill="none" xmlns="http://www.w3.org/2000/svg">
<path d="M70.4401 91.9401V92.0601H5.1001C5.1001 74.0201 19.7301 59.3901 37.7701 59.3901C44.4201 59.3901 50.6101 61.3801 55.7601 64.8001C54.8801 67.0701 54.3901 69.5401 54.3901 72.1301C54.4001 81.8701 61.2701 90.0001 70.4401 91.9401Z" stroke="white" stroke-width="2" stroke-miterlimit="10" stroke-linecap="round" stroke-linejoin="round"/>
<path d="M54.5103 38.0698C54.5103 47.3198 47.0103 54.8098 37.7703 54.8098C28.5303 54.8098 21.0303 47.3098 21.0303 38.0698" stroke="white" stroke-width="2" stroke-miterlimit="10" stroke-linecap="round" stroke-linejoin="round"/>
<path d="M58.3501 35.5901H17.6901C16.9701 35.5901 16.3901 35.0101 16.3901 34.2901V31.6301C16.3901 30.9101 16.9701 30.3301 17.6901 30.3301H58.3501C59.0701 30.3301 59.6501 30.9101 59.6501 31.6301V34.2901C59.6501 35.0101 59.0701 35.5901 58.3501 35.5901Z" stroke="white" stroke-width="2" stroke-miterlimit="10" stroke-linecap="round" stroke-linejoin="round"/>
<path d="M70.4403 91.9399C71.8003 92.2199 73.2103 92.3699 74.6503 92.3699C85.8303 92.3699 94.9003 83.2999 94.9003 72.1099C94.9003 60.9299 85.8303 51.8599 74.6503 51.8599C66.0503 51.8599 58.7003 57.2199 55.7603 64.7799" stroke="white" stroke-width="2" stroke-miterlimit="10" stroke-linecap="round" stroke-linejoin="round"/>
<path d="M74.8999 81.9702V86.4902" stroke="white" stroke-width="2" stroke-miterlimit="10" stroke-linecap="round" stroke-linejoin="round"/>
<path d="M74.8999 56.98V61.35" stroke="white" stroke-width="2" stroke-miterlimit="10" stroke-linecap="round" stroke-linejoin="round"/>
<path d="M80.1501 62.4599C78.7001 61.9899 77.2201 61.5099 75.6901 61.3799C72.9801 61.1599 70.1301 62.5199 69.7301 65.4599C68.8301 72.0399 78.8401 70.4899 79.9501 75.9999C80.2401 77.4499 79.7801 79.0199 78.7501 80.0799C77.6701 81.1999 76.0701 81.6999 74.5201 81.7099C72.5001 81.7299 70.4201 81.1099 68.6401 80.1799" stroke="white" stroke-width="2" stroke-miterlimit="10" stroke-linecap="round" stroke-linejoin="round"/>
<path d="M19.23 30.1199C19.23 30.1199 22.37 22.1099 22.85 16.6299C22.86 16.5699 22.86 16.4999 22.87 16.4399C22.87 16.4199 22.88 16.4099 22.88 16.3899C22.88 16.3799 22.88 16.3699 22.88 16.3599" stroke="white" stroke-width="2" stroke-miterlimit="10" stroke-linecap="round" stroke-linejoin="round"/>
<path d="M22.8803 16.3301C22.8803 16.3301 22.8803 16.3401 22.8703 16.3701C22.8603 16.4101 22.8603 16.5001 22.8403 16.6001C22.8303 16.6601 22.8303 16.7201 22.8203 16.7901C22.8103 16.8001 22.8103 16.8201 22.8103 16.8301V16.8401C22.8003 16.8701 22.8003 16.8901 22.8003 16.9201C22.8003 16.9301 22.8003 16.9301 22.8003 16.9401C22.8003 16.9601 22.7903 16.9801 22.7903 16.9901C22.7803 17.0001 22.7803 17.0101 22.7803 17.0201C22.7803 17.0301 22.7803 17.0401 22.7803 17.0501C22.7703 17.0601 22.7703 17.0601 22.7703 17.0701C22.7703 17.0801 22.7703 17.0801 22.7703 17.0901C22.7603 17.1101 22.7603 17.1301 22.7603 17.1401" stroke="white" stroke-width="2" stroke-miterlimit="10" stroke-linecap="round" stroke-linejoin="round"/>
<path d="M22.7803 17.1699C22.7803 17.1699 22.7803 17.1599 22.7903 17.1299C22.7903 17.1199 22.7903 17.0999 22.8003 17.0799C22.8003 17.0699 22.8003 17.0699 22.8003 17.0599C22.8003 17.0499 22.8003 17.0499 22.8103 17.0399C22.8103 17.0299 22.8103 17.0199 22.8103 17.0099C22.8103 16.9999 22.8103 16.9899 22.8203 16.9799C22.8203 16.9699 22.8303 16.9499 22.8303 16.9299C22.8303 16.9199 22.8303 16.9199 22.8303 16.9099C22.8403 16.8799 22.8403 16.8699 22.8403 16.8299V16.8199C22.8403 16.8099 22.8403 16.7899 22.8503 16.7799C22.8503 16.7399 22.8603 16.6799 22.8703 16.6299C22.8703 16.6199 22.8703 16.6099 22.8703 16.5999C22.8803 16.5599 22.8803 16.4999 22.8903 16.4499C22.8903 16.4299 22.9003 16.4199 22.9003 16.3999C23.5503 11.2899 27.9503 6.83992 33.1403 5.16992" stroke="white" stroke-width="2" stroke-miterlimit="10" stroke-linecap="round" stroke-linejoin="round"/>
<path d="M41.8301 4.92969C47.5901 6.29969 51.3101 10.5997 52.3701 17.8097C52.8001 23.2897 55.6701 29.8497 55.6701 29.8497" stroke="white" stroke-width="2" stroke-miterlimit="10" stroke-linecap="round" stroke-linejoin="round"/>
<path d="M32.9102 17.8999V6.52992C32.9102 3.98992 34.9702 1.91992 37.5202 1.91992C40.0602 1.91992 42.1302 3.97992 42.1302 6.52992V17.8999" stroke="white" stroke-width="2" stroke-miterlimit="10" stroke-linecap="round" stroke-linejoin="round"/>
<path d="M80.1503 30.3398H84.5403L75.3003 40.5998L66.0503 30.3398H70.3103L70.4403 6.83984H80.1503V30.3398Z" stroke="white" stroke-width="2" stroke-miterlimit="10" stroke-linecap="round" stroke-linejoin="round"/>
</svg>
