<svg width="100" height="100" viewBox="0 0 100 100" fill="none" xmlns="http://www.w3.org/2000/svg">
<g clip-path="url(#clip0_158_954)">
<path d="M50.1401 24.7902V15.7402" stroke="white" stroke-width="2" stroke-miterlimit="10" stroke-linecap="round" stroke-linejoin="round"/>
<path d="M30.7401 35.6998L23.6001 31.0898" stroke="white" stroke-width="2" stroke-miterlimit="10" stroke-linecap="round" stroke-linejoin="round"/>
<path d="M31.4499 57.7202L24.4399 62.2102" stroke="white" stroke-width="2" stroke-miterlimit="10" stroke-linecap="round" stroke-linejoin="round"/>
<path d="M76.01 32.1602L68.79 36.6602" stroke="white" stroke-width="2" stroke-miterlimit="10" stroke-linecap="round" stroke-linejoin="round"/>
<path d="M50 67.96V78.31" stroke="white" stroke-width="2" stroke-miterlimit="10" stroke-linecap="round" stroke-linejoin="round"/>
<path d="M68.1299 57.2998L75.0599 62.2098" stroke="white" stroke-width="2" stroke-miterlimit="10" stroke-linecap="round" stroke-linejoin="round"/>
<path d="M39.8701 58.65L43.8201 60.9L43.8601 67.2099L43.8501 67.22C47.1501 68.12 50.5701 68.1899 53.8301 67.5299L53.7901 61.75L59.2401 58.56L64.7301 61.68V61.6899C66.0801 60.3399 67.2801 58.7899 68.2701 57.0499C68.9801 55.7999 69.5501 54.5199 69.9801 53.2099L64.9601 50.3499L64.9201 44.04L70.3701 40.84C69.5201 37.62 67.9301 34.6 65.6701 32.05L60.6801 34.97L55.1901 31.85L55.1501 25.54L55.1601 25.53C51.8601 24.63 48.4401 24.56 45.1801 25.22L45.2201 31L39.7701 34.1899L34.2801 31.07V31.06C32.9301 32.41 31.7301 33.96 30.7401 35.7C30.0301 36.95 29.4601 38.23 29.0301 39.54L34.0501 42.4L34.0901 48.7099L28.6401 51.91C28.8301 52.64 30.2001 55.4999 30.4701 56.2099L33.5201 60.9599L39.8701 58.65Z" stroke="white" stroke-width="2" stroke-miterlimit="10" stroke-linecap="round" stroke-linejoin="round"/>
<path d="M49.5102 53.47C53.4314 53.47 56.6102 50.2912 56.6102 46.37C56.6102 42.4488 53.4314 39.27 49.5102 39.27C45.5889 39.27 42.4102 42.4488 42.4102 46.37C42.4102 50.2912 45.5889 53.47 49.5102 53.47Z" stroke="white" stroke-width="2" stroke-miterlimit="10" stroke-linecap="round" stroke-linejoin="round"/>
<path d="M50.2099 15.7299C54.5232 15.7299 58.0199 12.2332 58.0199 7.91986C58.0199 3.60652 54.5232 0.109863 50.2099 0.109863C45.8966 0.109863 42.3999 3.60652 42.3999 7.91986C42.3999 12.2332 45.8966 15.7299 50.2099 15.7299Z" stroke="white" stroke-width="2" stroke-miterlimit="10" stroke-linecap="round" stroke-linejoin="round"/>
<path d="M16.8398 34.9999C21.1531 34.9999 24.6498 31.5032 24.6498 27.1899C24.6498 22.8765 21.1531 19.3799 16.8398 19.3799C12.5264 19.3799 9.02979 22.8765 9.02979 27.1899C9.02979 31.5032 12.5264 34.9999 16.8398 34.9999Z" stroke="white" stroke-width="2" stroke-miterlimit="10" stroke-linecap="round" stroke-linejoin="round"/>
<path d="M18.1699 74.7299C22.4832 74.7299 25.9799 71.2332 25.9799 66.9199C25.9799 62.6065 22.4832 59.1099 18.1699 59.1099C13.8565 59.1099 10.3599 62.6065 10.3599 66.9199C10.3599 71.2332 13.8565 74.7299 18.1699 74.7299Z" stroke="white" stroke-width="2" stroke-miterlimit="10" stroke-linecap="round" stroke-linejoin="round"/>
<path d="M50.2099 93.9301C54.5232 93.9301 58.0199 90.4334 58.0199 86.1201C58.0199 81.8067 54.5232 78.3101 50.2099 78.3101C45.8966 78.3101 42.3999 81.8067 42.3999 86.1201C42.3999 90.4334 45.8966 93.9301 50.2099 93.9301Z" stroke="white" stroke-width="2" stroke-miterlimit="10" stroke-linecap="round" stroke-linejoin="round"/>
<path d="M81.9399 73.89C86.2532 73.89 89.7499 70.3934 89.7499 66.08C89.7499 61.7667 86.2532 58.27 81.9399 58.27C77.6265 58.27 74.1299 61.7667 74.1299 66.08C74.1299 70.3934 77.6265 73.89 81.9399 73.89Z" stroke="white" stroke-width="2" stroke-miterlimit="10" stroke-linecap="round" stroke-linejoin="round"/>
<path d="M83.1 36.4999C87.4134 36.4999 90.91 33.0032 90.91 28.6899C90.91 24.3765 87.4134 20.8799 83.1 20.8799C78.7867 20.8799 75.29 24.3765 75.29 28.6899C75.29 33.0032 78.7867 36.4999 83.1 36.4999Z" stroke="white" stroke-width="2" stroke-miterlimit="10" stroke-linecap="round" stroke-linejoin="round"/>
</g>
<defs>
<clipPath id="clip0_158_954">
<rect width="100" height="100" fill="white"/>
</clipPath>
</defs>
</svg>
