<svg width="100" height="100" viewBox="0 0 100 100" fill="none" xmlns="http://www.w3.org/2000/svg">
<path d="M50.1401 27.6401V18.5801" stroke="url(#paint0_linear_158_923)" stroke-width="2" stroke-miterlimit="10" stroke-linecap="round" stroke-linejoin="round"/>
<path d="M30.7401 38.5499L23.6001 33.9399" stroke="url(#paint1_linear_158_923)" stroke-width="2" stroke-miterlimit="10" stroke-linecap="round" stroke-linejoin="round"/>
<path d="M31.4499 60.5698L24.4399 65.0598" stroke="url(#paint2_linear_158_923)" stroke-width="2" stroke-miterlimit="10" stroke-linecap="round" stroke-linejoin="round"/>
<path d="M76.01 35.0098L68.79 39.5098" stroke="url(#paint3_linear_158_923)" stroke-width="2" stroke-miterlimit="10" stroke-linecap="round" stroke-linejoin="round"/>
<path d="M50 70.8101V81.1501" stroke="url(#paint4_linear_158_923)" stroke-width="2" stroke-miterlimit="10" stroke-linecap="round" stroke-linejoin="round"/>
<path d="M68.1299 60.1499L75.0599 65.0599" stroke="url(#paint5_linear_158_923)" stroke-width="2" stroke-miterlimit="10" stroke-linecap="round" stroke-linejoin="round"/>
<path d="M39.8701 61.5L43.8201 63.75L43.8601 70.06L43.8501 70.07C47.1501 70.97 50.5701 71.04 53.8301 70.38L53.7901 64.6L59.2401 61.41L64.7301 64.53V64.5401C66.0801 63.1901 67.2801 61.6401 68.2701 59.9001C68.9801 58.6501 69.5501 57.3701 69.9801 56.0601L64.9601 53.2001L64.9201 46.89L70.3701 43.69C69.5201 40.47 67.9301 37.4501 65.6701 34.9001L60.6801 37.82L55.1901 34.7L55.1501 28.39L55.1601 28.38C51.8601 27.48 48.4401 27.41 45.1801 28.07L45.2201 33.85L39.7701 37.04L34.2801 33.92V33.91C32.9301 35.26 31.7301 36.81 30.7401 38.55C30.0301 39.8 29.4601 41.08 29.0301 42.39L34.0501 45.25L34.0901 51.5601L28.6401 54.76C28.8301 55.49 30.2001 58.3501 30.4701 59.0601L33.5201 63.8101L39.8701 61.5Z" stroke="url(#paint6_linear_158_923)" stroke-width="2" stroke-miterlimit="10" stroke-linecap="round" stroke-linejoin="round"/>
<path d="M49.5102 56.3201C53.4314 56.3201 56.6102 53.1413 56.6102 49.2201C56.6102 45.2989 53.4314 42.1201 49.5102 42.1201C45.5889 42.1201 42.4102 45.2989 42.4102 49.2201C42.4102 53.1413 45.5889 56.3201 49.5102 56.3201Z" stroke="url(#paint7_linear_158_923)" stroke-width="2" stroke-miterlimit="10" stroke-linecap="round" stroke-linejoin="round"/>
<path d="M50.2099 18.58C54.5232 18.58 58.0199 15.0833 58.0199 10.77C58.0199 6.45662 54.5232 2.95996 50.2099 2.95996C45.8966 2.95996 42.3999 6.45662 42.3999 10.77C42.3999 15.0833 45.8966 18.58 50.2099 18.58Z" stroke="url(#paint8_linear_158_923)" stroke-width="2" stroke-miterlimit="10" stroke-linecap="round" stroke-linejoin="round"/>
<path d="M16.8398 37.85C21.1531 37.85 24.6498 34.3533 24.6498 30.04C24.6498 25.7266 21.1531 22.23 16.8398 22.23C12.5264 22.23 9.02979 25.7266 9.02979 30.04C9.02979 34.3533 12.5264 37.85 16.8398 37.85Z" stroke="url(#paint9_linear_158_923)" stroke-width="2" stroke-miterlimit="10" stroke-linecap="round" stroke-linejoin="round"/>
<path d="M18.1699 77.58C22.4832 77.58 25.9799 74.0833 25.9799 69.77C25.9799 65.4566 22.4832 61.96 18.1699 61.96C13.8565 61.96 10.3599 65.4566 10.3599 69.77C10.3599 74.0833 13.8565 77.58 18.1699 77.58Z" stroke="url(#paint10_linear_158_923)" stroke-width="2" stroke-miterlimit="10" stroke-linecap="round" stroke-linejoin="round"/>
<path d="M50.2099 96.7802C54.5232 96.7802 58.0199 93.2835 58.0199 88.9702C58.0199 84.6568 54.5232 81.1602 50.2099 81.1602C45.8966 81.1602 42.3999 84.6568 42.3999 88.9702C42.3999 93.2835 45.8966 96.7802 50.2099 96.7802Z" stroke="url(#paint11_linear_158_923)" stroke-width="2" stroke-miterlimit="10" stroke-linecap="round" stroke-linejoin="round"/>
<path d="M81.9399 76.7401C86.2532 76.7401 89.7499 73.2435 89.7499 68.9301C89.7499 64.6168 86.2532 61.1201 81.9399 61.1201C77.6265 61.1201 74.1299 64.6168 74.1299 68.9301C74.1299 73.2435 77.6265 76.7401 81.9399 76.7401Z" stroke="url(#paint12_linear_158_923)" stroke-width="2" stroke-miterlimit="10" stroke-linecap="round" stroke-linejoin="round"/>
<path d="M83.1 39.35C87.4134 39.35 90.91 35.8533 90.91 31.54C90.91 27.2266 87.4134 23.73 83.1 23.73C78.7867 23.73 75.29 27.2266 75.29 31.54C75.29 35.8533 78.7867 39.35 83.1 39.35Z" stroke="url(#paint13_linear_158_923)" stroke-width="2" stroke-miterlimit="10" stroke-linecap="round" stroke-linejoin="round"/>
<defs>
<linearGradient id="paint0_linear_158_923" x1="-nan" y1="-nan" x2="-nan" y2="-nan" gradientUnits="userSpaceOnUse">
<stop stop-color="#1073BA"/>
<stop offset="1" stop-color="#085996"/>
</linearGradient>
<linearGradient id="paint1_linear_158_923" x1="22.605" y1="36.246" x2="31.7401" y2="36.246" gradientUnits="userSpaceOnUse">
<stop stop-color="#1073BA"/>
<stop offset="1" stop-color="#085996"/>
</linearGradient>
<linearGradient id="paint2_linear_158_923" x1="23.4403" y1="62.8172" x2="32.4488" y2="62.8172" gradientUnits="userSpaceOnUse">
<stop stop-color="#1073BA"/>
<stop offset="1" stop-color="#085996"/>
</linearGradient>
<linearGradient id="paint3_linear_158_923" x1="67.7938" y1="37.2604" x2="77.0136" y2="37.2604" gradientUnits="userSpaceOnUse">
<stop stop-color="#1073BA"/>
<stop offset="1" stop-color="#085996"/>
</linearGradient>
<linearGradient id="paint4_linear_158_923" x1="-nan" y1="-nan" x2="-nan" y2="-nan" gradientUnits="userSpaceOnUse">
<stop stop-color="#1073BA"/>
<stop offset="1" stop-color="#085996"/>
</linearGradient>
<linearGradient id="paint5_linear_158_923" x1="67.1288" y1="62.6057" x2="76.061" y2="62.6057" gradientUnits="userSpaceOnUse">
<stop stop-color="#1073BA"/>
<stop offset="1" stop-color="#085996"/>
</linearGradient>
<linearGradient id="paint6_linear_158_923" x1="27.6423" y1="49.2216" x2="71.375" y2="49.2216" gradientUnits="userSpaceOnUse">
<stop stop-color="#1073BA"/>
<stop offset="1" stop-color="#085996"/>
</linearGradient>
<linearGradient id="paint7_linear_158_923" x1="41.411" y1="49.2217" x2="57.6064" y2="49.2217" gradientUnits="userSpaceOnUse">
<stop stop-color="#1073BA"/>
<stop offset="1" stop-color="#085996"/>
</linearGradient>
<linearGradient id="paint8_linear_158_923" x1="41.3937" y1="10.7732" x2="59.0169" y2="10.7732" gradientUnits="userSpaceOnUse">
<stop stop-color="#1073BA"/>
<stop offset="1" stop-color="#085996"/>
</linearGradient>
<linearGradient id="paint9_linear_158_923" x1="8.02679" y1="30.0367" x2="25.6526" y2="30.0367" gradientUnits="userSpaceOnUse">
<stop stop-color="#1073BA"/>
<stop offset="1" stop-color="#085996"/>
</linearGradient>
<linearGradient id="paint10_linear_158_923" x1="9.36066" y1="69.7709" x2="26.9864" y2="69.7709" gradientUnits="userSpaceOnUse">
<stop stop-color="#1073BA"/>
<stop offset="1" stop-color="#085996"/>
</linearGradient>
<linearGradient id="paint11_linear_158_923" x1="41.3924" y1="88.966" x2="59.0182" y2="88.966" gradientUnits="userSpaceOnUse">
<stop stop-color="#1073BA"/>
<stop offset="1" stop-color="#085996"/>
</linearGradient>
<linearGradient id="paint12_linear_158_923" x1="73.1246" y1="68.9259" x2="90.7503" y2="68.9259" gradientUnits="userSpaceOnUse">
<stop stop-color="#1073BA"/>
<stop offset="1" stop-color="#085996"/>
</linearGradient>
<linearGradient id="paint13_linear_158_923" x1="74.2899" y1="31.5382" x2="91.9156" y2="31.5382" gradientUnits="userSpaceOnUse">
<stop stop-color="#1073BA"/>
<stop offset="1" stop-color="#085996"/>
</linearGradient>
</defs>
</svg>
