<svg width="100" height="100" viewBox="0 0 100 100" fill="none" xmlns="http://www.w3.org/2000/svg">
<path d="M86.3301 50.8899C87.1601 50.6699 87.7701 49.9099 87.7701 49.0199V40.3999C87.7701 39.3299 86.9001 38.4599 85.8301 38.4599H78.4601L78.2801 37.7599C77.6301 35.2399 76.6301 32.8399 75.2901 30.6099L74.9201 29.9799L80.1501 24.7399C80.9001 23.9899 80.9001 22.7699 80.1501 22.0199L74.0501 15.9099C73.6801 15.5499 73.2001 15.3599 72.6901 15.3599C72.1901 15.3599 71.7001 15.5499 71.3401 15.8999L66.0901 21.1499L65.4601 20.7699C63.2301 19.4399 60.8201 18.4299 58.3001 17.7799L57.6001 17.5999V10.2199C57.6001 9.1499 56.7301 8.2799 55.6601 8.2799H47.0401C45.9701 8.2799 45.1001 9.1499 45.1001 10.2199V17.5899L44.4001 17.7699C41.8901 18.4199 39.4801 19.4199 37.2501 20.7499L36.6201 21.1299L31.3801 15.8999C31.0101 15.5399 30.5301 15.3499 30.0201 15.3499C29.5101 15.3499 29.0301 15.5399 28.6601 15.8899L22.5501 21.9999C21.8001 22.7499 21.8001 23.9699 22.5501 24.7199L27.8001 29.9699L27.4201 30.5999C26.0901 32.8299 25.0801 35.2299 24.4301 37.7499L24.2501 38.4499H16.8701C15.8001 38.4499 14.9301 39.3199 14.9301 40.3899V49.0099C14.9301 49.8999 15.5401 50.6599 16.3701 50.8799V52.7899C14.5001 52.5399 13.0601 50.9399 13.0601 49.0099V40.3999C13.0601 38.2999 14.7701 36.5899 16.8701 36.5899H22.8001L22.9101 36.2299C23.4901 34.2799 24.2801 32.3899 25.2601 30.6099L25.4401 30.2799L21.2201 26.0599C20.5101 25.3499 20.1001 24.3699 20.1001 23.3699C20.1001 22.3499 20.5001 21.3999 21.2201 20.6799L27.3301 14.5699C28.0501 13.8799 29.0101 13.4899 30.0201 13.4899C31.0301 13.4899 31.9901 13.8699 32.7201 14.5699L36.9301 18.7799L37.2601 18.5999C39.0401 17.6199 40.9401 16.8299 42.8801 16.2499L43.2401 16.1399V10.2099C43.2401 8.1099 44.9501 6.3999 47.0501 6.3999H55.6701C57.7701 6.3999 59.4801 8.1099 59.4801 10.2099V16.1399L59.8401 16.2499C61.7901 16.8299 63.6801 17.6199 65.4601 18.5999L65.7901 18.7799L70.0001 14.5799C70.7201 13.8899 71.6801 13.4999 72.6901 13.4999C73.7001 13.4999 74.6601 13.8799 75.3901 14.5799L81.4901 20.6799C82.2001 21.3899 82.6001 22.3699 82.6001 23.3699C82.6001 24.3899 82.2101 25.3399 81.4901 26.0599L77.2701 30.2799L77.4501 30.6099C78.4301 32.3899 79.2201 34.2799 79.8001 36.2399L79.9101 36.5999H85.8401C87.9401 36.5999 89.6501 38.3099 89.6501 40.4099V49.0299C89.6501 50.9599 88.2101 52.5599 86.3401 52.8099V50.8899H86.3301Z" fill="url(#paint0_linear_158_895)"/>
<path d="M69.0802 44.2098C68.8102 34.6598 60.9602 26.9698 51.3402 26.9698C41.7202 26.9698 33.8702 34.6598 33.6102 44.2098H31.7402C32.0102 33.6198 40.7002 25.0898 51.3502 25.0898C62.0002 25.0898 70.6902 33.6198 70.9602 44.2098H69.0802Z" fill="url(#paint1_linear_158_895)"/>
<path d="M26.9198 61.45C22.4398 61.45 18.7998 57.81 18.7998 53.33C18.7998 48.85 22.4398 45.21 26.9198 45.21C31.3998 45.21 35.0398 48.85 35.0398 53.33C35.0398 57.8 31.3998 61.44 26.9198 61.45ZM26.9198 47.08C23.4798 47.08 20.6698 49.88 20.6698 53.33C20.6698 56.78 23.4698 59.58 26.9198 59.58C30.3698 59.58 33.1698 56.78 33.1698 53.33C33.1698 49.88 30.3698 47.08 26.9198 47.08ZM75.7698 61.45C71.2898 61.45 67.6498 57.81 67.6498 53.33C67.6498 48.85 71.2898 45.21 75.7698 45.21C80.2498 45.21 83.8898 48.85 83.8898 53.33C83.8898 57.8 80.2498 61.44 75.7698 61.45ZM75.7698 47.08C72.3298 47.08 69.5198 49.88 69.5198 53.33C69.5198 56.78 72.3198 59.58 75.7698 59.58C79.2198 59.58 82.0198 56.78 82.0198 53.33C82.0198 49.88 79.2198 47.08 75.7698 47.08ZM51.3498 55.7C46.8698 55.7 43.2298 52.06 43.2298 47.58C43.2298 43.1 46.8698 39.46 51.3498 39.46C55.8298 39.46 59.4698 43.1 59.4698 47.58C59.4598 52.05 55.8198 55.7 51.3498 55.7ZM51.3498 41.33C47.9098 41.33 45.0998 44.13 45.0998 47.58C45.0998 51.03 47.8998 53.83 51.3498 53.83C54.7998 53.83 57.5998 51.03 57.5998 47.58C57.5998 44.13 54.7898 41.33 51.3498 41.33Z" fill="url(#paint2_linear_158_895)"/>
<path d="M70.53 91.6201V89.7501H83.46V73.9501H85.33V89.7201L85.93 89.6001C86.5 89.4901 87.06 89.3001 87.59 89.0501C90.31 87.8101 92.08 85.0701 92.08 82.0701V76.3201C92.08 72.8201 90.35 69.5601 87.46 67.6001C85.71 66.4001 83.67 65.7701 81.55 65.7701H70.03C69.83 65.7701 69.64 65.7801 69.45 65.8001L68.6 65.8601L68.82 66.4801C69.29 67.8001 69.53 69.1801 69.53 70.5801V84.9501C69.53 88.6301 66.53 91.6301 62.85 91.6301H59.04V69.6301H60.91V89.7501H62.85C65.5 89.7501 67.66 87.5901 67.66 84.9401V70.5701C67.66 68.8501 67.23 67.1301 66.42 65.6201C65.62 64.1201 64.45 62.8201 63.04 61.8501C62.9 61.7501 62.74 61.6501 62.58 61.5601C60.95 60.5601 59.04 60.0201 57.1 60.0201H45.6C39.78 60.0201 35.04 64.7601 35.04 70.5801V84.9501C35.04 87.6001 37.2 89.7601 39.85 89.7601H41.79V69.6301H43.66V91.6201H39.85C36.17 91.6101 33.17 88.6201 33.17 84.9301V70.5701C33.18 69.1701 33.42 67.7901 33.89 66.4701L34.11 65.8501L33.26 65.7901C33.07 65.7801 32.87 65.7601 32.68 65.7601H21.18C19.03 65.7601 16.99 66.3901 15.24 67.5901C12.35 69.5601 10.62 72.8201 10.62 76.3201V82.0701C10.62 85.0601 12.38 87.7901 15.09 89.0401C15.62 89.2901 16.19 89.4801 16.76 89.6001L17.36 89.7201V73.9401H19.23V89.7401H32.16V91.6101H18.3C16.89 91.6101 15.53 91.3101 14.31 90.7301C10.93 89.1701 8.75 85.7701 8.75 82.0501V76.3001C8.75 72.1801 10.79 68.3401 14.19 66.0301C16.25 64.6201 18.65 63.8701 21.15 63.8701H32.68C33.35 63.8801 34.02 63.9401 34.68 64.0501L35 64.1201L35.18 63.8401C37.45 60.2701 41.32 58.1401 45.55 58.1401H57.1C59.37 58.1401 61.58 58.7601 63.51 59.9201C63.74 60.0501 63.94 60.1801 64.13 60.3201C65.5 61.2701 66.64 62.4501 67.53 63.8401L67.71 64.1201L68.04 64.0601C68.7 63.9401 69.37 63.8801 70.04 63.8801H81.53C84.06 63.8801 86.47 64.6301 88.53 66.0401C91.93 68.3601 93.96 72.2001 93.97 76.3101V82.0601C93.96 85.7801 91.77 89.1901 88.39 90.7501C87.17 91.3201 85.82 91.6201 84.47 91.6201H70.53Z" fill="url(#paint3_linear_158_895)"/>
<path d="M56.6001 89.75H46.1001V91.62H56.6001V89.75Z" fill="url(#paint4_linear_158_895)"/>
<defs>
<linearGradient id="paint0_linear_158_895" x1="13.0545" y1="29.604" x2="89.6414" y2="29.604" gradientUnits="userSpaceOnUse">
<stop stop-color="#1073BA"/>
<stop offset="1" stop-color="#085996"/>
</linearGradient>
<linearGradient id="paint1_linear_158_895" x1="31.7392" y1="34.6483" x2="70.9569" y2="34.6483" gradientUnits="userSpaceOnUse">
<stop stop-color="#1073BA"/>
<stop offset="1" stop-color="#085996"/>
</linearGradient>
<linearGradient id="paint2_linear_158_895" x1="18.8013" y1="50.4537" x2="83.894" y2="50.4537" gradientUnits="userSpaceOnUse">
<stop stop-color="#1073BA"/>
<stop offset="1" stop-color="#085996"/>
</linearGradient>
<linearGradient id="paint3_linear_158_895" x1="8.7438" y1="74.8796" x2="93.9519" y2="74.8796" gradientUnits="userSpaceOnUse">
<stop stop-color="#1073BA"/>
<stop offset="1" stop-color="#085996"/>
</linearGradient>
<linearGradient id="paint4_linear_158_895" x1="46.1004" y1="90.6842" x2="56.5955" y2="90.6842" gradientUnits="userSpaceOnUse">
<stop stop-color="#1073BA"/>
<stop offset="1" stop-color="#085996"/>
</linearGradient>
</defs>
</svg>
