<svg width="100" height="100" viewBox="0 0 100 100" fill="none" xmlns="http://www.w3.org/2000/svg">
<path d="M86.3298 48.0401C87.1598 47.8201 87.7698 47.0601 87.7698 46.1701V37.5501C87.7698 36.4801 86.8998 35.6101 85.8298 35.6101H78.4598L78.2798 34.9101C77.6298 32.3901 76.6298 29.9901 75.2898 27.7601L74.9198 27.1301L80.1498 21.8901C80.8998 21.1401 80.8998 19.9201 80.1498 19.1701L74.0498 13.0601C73.6798 12.7001 73.1998 12.5101 72.6898 12.5101C72.1898 12.5101 71.6998 12.7001 71.3398 13.0501L66.0898 18.3001L65.4598 17.9201C63.2298 16.5901 60.8198 15.5801 58.2998 14.9301L57.5998 14.7501V7.37006C57.5998 6.30006 56.7298 5.43006 55.6598 5.43006H47.0398C45.9698 5.43006 45.0998 6.30006 45.0998 7.37006V14.7401L44.3998 14.9201C41.8898 15.5701 39.4798 16.5701 37.2498 17.9001L36.6198 18.2801L31.3798 13.0501C30.9998 12.7001 30.5198 12.5001 30.0098 12.5001C29.4998 12.5001 29.0198 12.6901 28.6498 13.0401L22.5398 19.1501C21.7898 19.9001 21.7898 21.1201 22.5398 21.8701L27.7898 27.1201L27.4098 27.7501C26.0798 29.9801 25.0698 32.3801 24.4198 34.9001L24.2398 35.6001H16.8598C15.7898 35.6001 14.9198 36.4701 14.9198 37.5401V46.1601C14.9198 47.0501 15.5298 47.8101 16.3598 48.0301V49.9401C14.4898 49.6901 13.0498 48.0901 13.0498 46.1601V37.5401C13.0498 35.4401 14.7598 33.7301 16.8598 33.7301H22.7898L22.8998 33.3701C23.4798 31.4201 24.2698 29.5301 25.2498 27.7501L25.4298 27.4201L21.2098 23.2001C20.4998 22.4901 20.0898 21.5101 20.0898 20.5101C20.0898 19.4901 20.4898 18.5401 21.2098 17.8201L27.3198 11.7101C28.0398 11.0201 28.9998 10.6301 30.0098 10.6301C31.0198 10.6301 31.9798 11.0101 32.7098 11.7101L36.9198 15.9201L37.2498 15.7401C39.0298 14.7601 40.9298 13.9701 42.8698 13.3901L43.2298 13.2801V7.37006C43.2298 5.27006 44.9398 3.56006 47.0398 3.56006H55.6598C57.7598 3.56006 59.4698 5.27006 59.4698 7.37006V13.3001L59.8298 13.4101C61.7798 13.9901 63.6698 14.7801 65.4498 15.7601L65.7798 15.9401L69.9998 11.7301C70.7198 11.0401 71.6798 10.6501 72.6898 10.6501C73.6998 10.6501 74.6598 11.0301 75.3898 11.7301L81.4898 17.8301C82.1998 18.5401 82.5998 19.5201 82.5998 20.5201C82.5998 21.5401 82.2098 22.4901 81.4898 23.2101L77.2698 27.4301L77.4498 27.7601C78.4298 29.5401 79.2198 31.4301 79.7998 33.3901L79.9098 33.7501H85.8398C87.9398 33.7501 89.6498 35.4601 89.6498 37.5601V46.1801C89.6498 48.1101 88.2098 49.7101 86.3398 49.9601V48.0401H86.3298Z" fill="white"/>
<path d="M69.0802 41.3602C68.8102 31.8102 60.9602 24.1202 51.3402 24.1202C41.7202 24.1202 33.8702 31.8102 33.6102 41.3602H31.7402C32.0102 30.7702 40.7002 22.2402 51.3502 22.2402C62.0002 22.2402 70.6902 30.7702 70.9602 41.3602H69.0802Z" fill="white"/>
<path d="M26.9198 58.5999C22.4398 58.5999 18.7998 54.9599 18.7998 50.4799C18.7998 45.9999 22.4398 42.3599 26.9198 42.3599C31.3998 42.3599 35.0398 45.9999 35.0398 50.4799C35.0398 54.9499 31.3998 58.5899 26.9198 58.5999ZM26.9198 44.2299C23.4798 44.2299 20.6698 47.0299 20.6698 50.4799C20.6698 53.9299 23.4698 56.7299 26.9198 56.7299C30.3698 56.7299 33.1698 53.9299 33.1698 50.4799C33.1698 47.0299 30.3698 44.2299 26.9198 44.2299ZM75.7698 58.5999C71.2898 58.5999 67.6498 54.9599 67.6498 50.4799C67.6498 45.9999 71.2898 42.3599 75.7698 42.3599C80.2498 42.3599 83.8898 45.9999 83.8898 50.4799C83.8898 54.9499 80.2498 58.5899 75.7698 58.5999ZM75.7698 44.2299C72.3298 44.2299 69.5198 47.0299 69.5198 50.4799C69.5198 53.9299 72.3198 56.7299 75.7698 56.7299C79.2198 56.7299 82.0198 53.9299 82.0198 50.4799C82.0198 47.0299 79.2198 44.2299 75.7698 44.2299ZM51.3498 52.8499C46.8698 52.8499 43.2298 49.2099 43.2298 44.7299C43.2298 40.2499 46.8698 36.6099 51.3498 36.6099C55.8298 36.6099 59.4698 40.2499 59.4698 44.7299C59.4598 49.1999 55.8198 52.8499 51.3498 52.8499ZM51.3498 38.4799C47.9098 38.4799 45.0998 41.2799 45.0998 44.7299C45.0998 48.1799 47.8998 50.9799 51.3498 50.9799C54.7998 50.9799 57.5998 48.1799 57.5998 44.7299C57.5998 41.2799 54.7898 38.4799 51.3498 38.4799Z" fill="white"/>
<path d="M70.53 88.77V86.9H83.46V71.1H85.33V86.87L85.93 86.75C86.5 86.64 87.06 86.45 87.59 86.2C90.31 84.96 92.08 82.22 92.08 79.22V73.47C92.08 69.97 90.35 66.71 87.46 64.75C85.71 63.55 83.67 62.92 81.55 62.92H70.03C69.83 62.92 69.64 62.93 69.45 62.95L68.59 63L68.81 63.62C69.28 64.94 69.52 66.32 69.52 67.72V82.09C69.52 85.77 66.52 88.77 62.84 88.77H59.03V66.78H60.9V86.9H62.84C65.49 86.9 67.65 84.74 67.65 82.09V67.72C67.65 66 67.22 64.28 66.41 62.77C65.61 61.27 64.44 59.97 63.03 59C62.89 58.9 62.73 58.8 62.57 58.71C60.94 57.71 59.03 57.17 57.09 57.17H45.6C39.78 57.17 35.04 61.91 35.04 67.73V82.1C35.04 84.75 37.2 86.91 39.85 86.91H41.79V66.78H43.66V88.77H39.85C36.17 88.76 33.17 85.77 33.17 82.08V67.72C33.18 66.32 33.42 64.94 33.89 63.62L34.11 63L33.26 62.94C33.07 62.93 32.87 62.91 32.68 62.91H21.18C19.03 62.91 16.99 63.54 15.24 64.74C12.35 66.71 10.62 69.97 10.62 73.47V79.22C10.62 82.21 12.38 84.94 15.09 86.19C15.62 86.44 16.19 86.63 16.76 86.75L17.36 86.87V71.09H19.23V86.89H32.16V88.76H18.3C16.89 88.76 15.53 88.46 14.31 87.88C10.93 86.32 8.75 82.92 8.75 79.2V73.45C8.75 69.33 10.79 65.49 14.19 63.18C16.25 61.77 18.65 61.02 21.15 61.02H32.68C33.35 61.03 34.02 61.09 34.68 61.2L35 61.27L35.18 60.99C37.45 57.42 41.32 55.29 45.55 55.29H57.1C59.37 55.29 61.58 55.91 63.51 57.07C63.74 57.2 63.94 57.33 64.13 57.47C65.5 58.42 66.64 59.6 67.53 60.99L67.71 61.27L68.04 61.21C68.7 61.09 69.37 61.03 70.04 61.03H81.53C84.06 61.03 86.47 61.78 88.53 63.19C91.93 65.51 93.96 69.35 93.97 73.46V79.21C93.96 82.93 91.77 86.34 88.39 87.9C87.17 88.47 85.82 88.77 84.47 88.77H70.53Z" fill="white"/>
<path d="M56.6001 86.8999H46.1001V88.7699H56.6001V86.8999Z" fill="white"/>
</svg>
