<svg width="100" height="100" viewBox="0 0 100 100" fill="none" xmlns="http://www.w3.org/2000/svg">
<path d="M40.4499 73.3199L34.1799 70.7999L27.0899 76.3699C24.4399 74.2999 22.1199 71.8999 20.1599 69.2499L25.8999 61.5999L22.0799 52.6899L13.1399 51.6099C12.7399 48.3499 12.7699 45.0199 13.2699 41.6799V41.6699L22.7299 40.3199L26.3399 31.3299L20.7799 24.2399C22.8499 21.5899 25.2499 19.2699 27.8899 17.3099L35.5399 23.0499L44.4599 19.2399L45.5399 10.2799C48.7999 9.88994 52.1299 9.91994 55.4599 10.4099H55.4699L56.8199 19.8799L65.8199 23.4899L72.9099 17.9199C75.5599 19.9899 77.8799 22.3899 79.8399 25.0399L74.0999 32.6999L77.9099 41.6099L86.8599 42.6899C87.2599 45.9499 87.2299 49.2799 86.7299 52.6199V52.6299L80.0299 53.5799" stroke="white" stroke-width="2" stroke-miterlimit="10" stroke-linecap="round" stroke-linejoin="round"/>
<path d="M44.53 63.7499C37.56 61.4499 32.52 54.8899 32.52 47.1499C32.52 37.4999 40.35 29.6699 50 29.6699C57.24 29.6699 63.45 34.0699 66.1 40.3399" stroke="white" stroke-width="2" stroke-miterlimit="10" stroke-linecap="round" stroke-linejoin="round"/>
<path d="M63.0602 47.6198L44.9302 79.0198C43.0302 82.3098 45.4002 86.4098 49.2002 86.4098H85.4602C89.2502 86.4098 91.6302 82.2998 89.7302 79.0198L71.6002 47.6198C69.7002 44.3298 64.9502 44.3298 63.0602 47.6198Z" stroke="white" stroke-width="2" stroke-miterlimit="10" stroke-linecap="round" stroke-linejoin="round"/>
<path d="M67.27 56.6401L67.52 70.8201L67.83 56.6401H67.27Z" stroke="white" stroke-width="2" stroke-miterlimit="10" stroke-linecap="round" stroke-linejoin="round"/>
<path d="M67.55 76.9902C67.7047 76.9902 67.83 76.8648 67.83 76.7102C67.83 76.5555 67.7047 76.4302 67.55 76.4302C67.3954 76.4302 67.27 76.5555 67.27 76.7102C67.27 76.8648 67.3954 76.9902 67.55 76.9902Z" stroke="white" stroke-width="2" stroke-miterlimit="10" stroke-linecap="round" stroke-linejoin="round"/>
</svg>
