<svg width="100" height="100" viewBox="0 0 100 100" fill="none" xmlns="http://www.w3.org/2000/svg">
<path d="M51.0601 17.52V19.62" stroke="white" stroke-width="2" stroke-miterlimit="10" stroke-linecap="round" stroke-linejoin="round"/>
<path d="M71.0601 25.8101L69.5801 27.2901" stroke="white" stroke-width="2" stroke-miterlimit="10" stroke-linecap="round" stroke-linejoin="round"/>
<path d="M79.3397 45.8003H77.2397" stroke="white" stroke-width="2" stroke-miterlimit="10" stroke-linecap="round" stroke-linejoin="round"/>
<path d="M31.0698 25.8101L32.5498 27.2901" stroke="white" stroke-width="2" stroke-miterlimit="10" stroke-linecap="round" stroke-linejoin="round"/>
<path d="M69.5796 64.3101L71.0596 65.7901" stroke="white" stroke-width="2" stroke-miterlimit="10" stroke-linecap="round" stroke-linejoin="round"/>
<path d="M51.0601 25.8101V42.3001" stroke="white" stroke-width="2" stroke-miterlimit="10" stroke-linecap="round" stroke-linejoin="round"/>
<path d="M53.7397 48.5503L58.7797 54.4903" stroke="white" stroke-width="2" stroke-miterlimit="10" stroke-linecap="round" stroke-linejoin="round"/>
<path d="M51.0598 48.83C52.8823 48.83 54.3598 47.3525 54.3598 45.53C54.3598 43.7074 52.8823 42.23 51.0598 42.23C49.2372 42.23 47.7598 43.7074 47.7598 45.53C47.7598 47.3525 49.2372 48.83 51.0598 48.83Z" stroke="white" stroke-width="2" stroke-miterlimit="10" stroke-linecap="round" stroke-linejoin="round"/>
<path d="M20.5698 75.7202L42.9898 51.9502" stroke="white" stroke-width="2" stroke-miterlimit="10" stroke-linecap="round" stroke-linejoin="round"/>
<path d="M30.5102 60.7803V48.5503L22.4702 57.5203H33.1102" stroke="white" stroke-width="2" stroke-miterlimit="10" stroke-linecap="round" stroke-linejoin="round"/>
<path d="M13.71 51.4998C13.71 51.4998 14.91 49.0198 17.16 48.9998C18.99 48.9798 20.47 49.8698 20.57 51.7298C20.61 52.4598 20.31 53.1798 19.8 53.6998L13.23 60.4898H20.45" stroke="white" stroke-width="2" stroke-miterlimit="10" stroke-linecap="round" stroke-linejoin="round"/>
<path d="M33.8498 75.35L31.3198 71.98H41.2998L37.3998 84.6" stroke="white" stroke-width="2" stroke-miterlimit="10" stroke-linecap="round" stroke-linejoin="round"/>
<path d="M15.9502 45.53C16.8002 26.87 32.1902 12 51.0602 12C70.4702 12 86.2102 27.74 86.2102 47.15C86.2102 66.56 70.4802 82.3 51.0602 82.3C48.3002 82.3 45.6102 81.98 43.0302 81.38" stroke="white" stroke-width="2" stroke-miterlimit="10" stroke-linecap="round" stroke-linejoin="round"/>
<path d="M9.47998 47.1501C9.47998 46.6101 9.48998 46.0701 9.50998 45.5301C10.36 23.3101 28.64 5.56006 51.06 5.56006C74.03 5.56006 92.65 24.1801 92.65 47.1501C92.65 70.1201 74.03 88.7401 51.06 88.7401C47.98 88.7401 44.99 88.4101 42.1 87.7701" stroke="white" stroke-width="2" stroke-miterlimit="10" stroke-linecap="round" stroke-linejoin="round"/>
</svg>
