<svg width="100" height="100" viewBox="0 0 100 100" fill="none" xmlns="http://www.w3.org/2000/svg">
<g clip-path="url(#clip0_158_819)">
<path d="M45.4702 84.1304V78.1504" stroke="white" stroke-width="2" stroke-miterlimit="10" stroke-linecap="round"/>
<path d="M54.4502 78.1504V84.1304" stroke="white" stroke-width="2" stroke-miterlimit="10" stroke-linecap="round"/>
<path d="M55.9402 71.79V78.15H43.9702V71.79" stroke="white" stroke-width="2" stroke-miterlimit="10" stroke-linecap="round"/>
<path d="M72.3999 32.5225C72.3999 36.6558 69.0532 40.0024 64.9199 40.0024C60.7866 40.0024 57.4399 36.6558 57.4399 32.5225C57.4399 28.3892 60.7866 25.0425 64.9199 25.0425C69.0532 25.0425 72.3999 28.3892 72.3999 32.5225Z" stroke="white" stroke-width="2.66666" stroke-miterlimit="10" stroke-linecap="round"/>
<path d="M61.1733 40.0022H69.7733C73.4933 40.0022 76.5066 43.0155 76.5066 46.7355V49.5889" stroke="white" stroke-width="2.66666" stroke-miterlimit="10" stroke-linecap="round"/>
<path d="M70.5332 57.5757V49.909" stroke="white" stroke-width="2.66666" stroke-miterlimit="10" stroke-linecap="round"/>
<path d="M29.3867 49.909V57.5757" stroke="white" stroke-width="2.66666" stroke-miterlimit="10" stroke-linecap="round"/>
<path d="M27.52 32.5225C27.52 36.6558 30.8667 40.0024 35 40.0024C39.1333 40.0024 42.48 36.6558 42.48 32.5225C42.48 28.3892 39.1333 25.0425 35 25.0425C30.8667 25.0425 27.52 28.3892 27.52 32.5225Z" stroke="white" stroke-width="2.66666" stroke-miterlimit="10" stroke-linecap="round"/>
<path d="M23.3999 49.5889V46.7355C23.3999 43.0155 26.4132 40.0022 30.1332 40.0022H38.7332" stroke="white" stroke-width="2.66666" stroke-miterlimit="10" stroke-linecap="round"/>
<path d="M38.3599 63.749V54.2691" stroke="white" stroke-width="2.66666" stroke-miterlimit="10" stroke-linecap="round"/>
<path d="M38.3599 47.7891V42.6157C38.3599 38.8957 41.3732 35.8824 45.0932 35.8824H54.8132C58.5331 35.8824 61.5465 38.8957 61.5465 42.6157V63.749" stroke="white" stroke-width="2.66666" stroke-miterlimit="10" stroke-linecap="round"/>
<path d="M57.4399 28.4023C57.4399 32.5356 54.0933 35.8823 49.96 35.8823C45.8266 35.8823 42.48 32.5356 42.48 28.4023C42.48 24.269 45.8266 20.9224 49.96 20.9224C54.0933 20.9224 57.4399 24.2823 57.4399 28.4023Z" stroke="white" stroke-width="2.66666" stroke-miterlimit="10" stroke-linecap="round"/>
<path d="M55.5732 46.1756V65.6289" stroke="white" stroke-width="2.66666" stroke-miterlimit="10" stroke-linecap="round"/>
<path d="M44.3467 65.6157V46.1624" stroke="white" stroke-width="2.66666" stroke-miterlimit="10" stroke-linecap="round"/>
<path d="M26.2932 18.9492C31.6932 11.7492 40.2799 7.08258 49.9465 7.08258C66.2398 7.08258 79.4931 20.3359 79.4931 36.6292C79.4931 52.9225 66.2398 66.1758 49.9465 66.1758C33.6532 66.1758 20.3999 52.9225 20.3999 36.6292C20.3999 32.3092 21.3332 28.2159 22.9999 24.5092" stroke="white" stroke-width="2.66666" stroke-miterlimit="10" stroke-linecap="round"/>
<path d="M43.9731 93.1089V84.1356H55.9464V93.1089" stroke="white" stroke-width="2.66666" stroke-miterlimit="10" stroke-linecap="round"/>
<path d="M71.9333 64.5625C80.1866 58.0558 85.4932 47.9625 85.4932 36.6425C85.4932 17.0159 69.5866 1.10927 49.96 1.10927C30.3334 1.10927 14.4268 17.0159 14.4268 36.6425C14.4268 56.2692 30.3334 72.1758 49.96 72.1758C55.9333 72.1758 61.56 70.6958 66.5066 68.0958" stroke="white" stroke-width="2.66666" stroke-miterlimit="10" stroke-linecap="round"/>
</g>
<defs>
<clipPath id="clip0_158_819">
<rect width="100" height="100" fill="white"/>
</clipPath>
</defs>
</svg>
