<svg width="100" height="100" viewBox="0 0 100 100" fill="none" xmlns="http://www.w3.org/2000/svg">
<g clip-path="url(#clip0_159_1011)">
<path d="M72.9371 81.0061L69.5186 76.0996" stroke="white" stroke-width="2" stroke-miterlimit="10" stroke-linecap="round"/>
<path d="M76.8862 70.9658L80.3048 75.8723" stroke="white" stroke-width="2" stroke-miterlimit="10" stroke-linecap="round"/>
<path d="M74.4731 64.8959L78.1089 70.1142L68.2877 76.9571L64.6519 71.7388" stroke="white" stroke-width="2" stroke-miterlimit="10" stroke-linecap="round"/>
<path d="M72.3999 35.3755C72.3999 39.5088 69.0532 42.8555 64.9199 42.8555C60.7866 42.8555 57.4399 39.5088 57.4399 35.3755C57.4399 31.2421 60.7866 27.8955 64.9199 27.8955C69.0532 27.8955 72.3999 31.2421 72.3999 35.3755Z" stroke="white" stroke-width="2" stroke-miterlimit="10" stroke-linecap="round"/>
<path d="M61.1733 42.8553H69.7733C73.4933 42.8553 76.5066 45.8686 76.5066 49.5886V52.4419" stroke="white" stroke-width="2" stroke-miterlimit="10" stroke-linecap="round"/>
<path d="M70.5332 60.4287V52.7621" stroke="white" stroke-width="2" stroke-miterlimit="10" stroke-linecap="round"/>
<path d="M29.3867 52.7621V60.4287" stroke="white" stroke-width="2" stroke-miterlimit="10" stroke-linecap="round"/>
<path d="M27.52 35.3755C27.52 39.5088 30.8667 42.8555 35 42.8555C39.1333 42.8555 42.48 39.5088 42.48 35.3755C42.48 31.2421 39.1333 27.8955 35 27.8955C30.8667 27.8955 27.52 31.2421 27.52 35.3755Z" stroke="white" stroke-width="2" stroke-miterlimit="10" stroke-linecap="round"/>
<path d="M23.3999 52.4287V49.5754C23.3999 45.8554 26.4132 42.8421 30.1332 42.8421H38.7332" stroke="white" stroke-width="2" stroke-miterlimit="10" stroke-linecap="round"/>
<path d="M38.3599 66.6021V57.1221" stroke="white" stroke-width="2" stroke-miterlimit="10" stroke-linecap="round"/>
<path d="M38.3599 50.6421V45.4688C38.3599 41.7488 41.3732 38.7354 45.0932 38.7354H54.8132C58.5331 38.7354 61.5465 41.7488 61.5465 45.4688V66.6021" stroke="white" stroke-width="2" stroke-miterlimit="10" stroke-linecap="round"/>
<path d="M57.4399 31.2554C57.4399 35.3887 54.0933 38.7354 49.96 38.7354C45.8266 38.7354 42.48 35.3887 42.48 31.2554C42.48 27.1221 45.8266 23.7754 49.96 23.7754C54.0933 23.7754 57.4399 27.1221 57.4399 31.2554Z" stroke="white" stroke-width="2" stroke-miterlimit="10" stroke-linecap="round"/>
<path d="M55.5732 49.0287V68.4819" stroke="white" stroke-width="2" stroke-miterlimit="10" stroke-linecap="round"/>
<path d="M44.3467 68.4688V49.0155" stroke="white" stroke-width="2" stroke-miterlimit="10" stroke-linecap="round"/>
<path d="M26.2932 21.8023C31.6932 14.6023 40.2799 9.93565 49.9465 9.93565C66.2398 9.93565 79.4931 23.1889 79.4931 39.4822C79.4931 55.7755 66.2398 69.0288 49.9465 69.0288C33.6532 69.0288 20.3999 55.7755 20.3999 39.4822C20.3999 35.1622 21.3332 31.0689 22.9999 27.3622" stroke="white" stroke-width="2" stroke-miterlimit="10" stroke-linecap="round"/>
<path d="M76.8433 89.2314L71.7135 81.869L81.5374 75.0242L86.6672 82.3867" stroke="white" stroke-width="2" stroke-miterlimit="10" stroke-linecap="round"/>
<path d="M83.4574 49.8143C86.5095 39.7575 85.0935 28.4424 78.6222 19.1546C67.4023 3.05123 45.2578 -0.906592 29.1545 10.3133C13.0511 21.5332 9.0933 43.6777 20.3132 59.781C31.5331 75.8844 53.6776 79.8422 69.781 68.6223C74.682 65.2076 78.4525 60.7767 81.0248 55.8156" stroke="white" stroke-width="2" stroke-miterlimit="10" stroke-linecap="round"/>
</g>
<defs>
<clipPath id="clip0_159_1011">
<rect width="100" height="100" fill="white"/>
</clipPath>
</defs>
</svg>
