<svg width="100" height="100" viewBox="0 0 100 100" fill="none" xmlns="http://www.w3.org/2000/svg">
<path d="M74.493 90.7887H21.5731C21.2264 90.7887 20.9331 91.0821 20.9331 91.4287V93.6287C20.9331 95.2687 22.2531 96.6021 23.8798 96.6021H72.173C73.7863 96.6021 75.1196 95.2687 75.1196 93.6287V91.4287C75.133 91.0821 74.8396 90.7887 74.493 90.7887Z" stroke="url(#paint0_linear_158_840)" stroke-width="2" stroke-miterlimit="10" stroke-linecap="round" stroke-linejoin="round"/>
<path d="M34.3732 36.5623V26.9623H32.7066C32.1999 26.9623 31.7199 26.869 31.2666 26.6956C29.4666 27.5756 28.0933 29.6556 28.0933 31.7356C28.0933 34.6956 31.0933 37.1356 34.3999 36.9489C34.3732 36.8156 34.3732 36.6823 34.3732 36.5623Z" stroke="url(#paint1_linear_158_840)" stroke-width="2" stroke-miterlimit="10" stroke-linecap="round" stroke-linejoin="round"/>
<path d="M84.7597 64.6151C77.6398 71.7351 66.1065 71.7351 58.9865 64.6151C51.8665 57.4951 51.8665 45.9618 58.9865 38.8418C66.1065 31.7219 77.6398 31.7219 84.7597 38.8418C91.8797 45.9618 91.8797 57.4951 84.7597 64.6151Z" stroke="url(#paint2_linear_158_840)" stroke-width="2" stroke-miterlimit="10" stroke-linecap="round" stroke-linejoin="round"/>
<path d="M71.88 69.962C62.84 69.962 55.3334 63.3753 53.9067 54.7353H27.9201C25.8268 54.7353 24.1201 56.442 24.1201 58.5353V87.1486C24.1201 88.8419 25.2668 90.3219 26.8401 90.7886H69.2133C70.8 90.3219 71.9333 88.8286 71.9333 87.1486V69.962C71.92 69.962 71.9067 69.962 71.88 69.962Z" stroke="url(#paint3_linear_158_840)" stroke-width="2" stroke-miterlimit="10" stroke-linecap="round" stroke-linejoin="round"/>
<path d="M53.6532 51.7352C53.6532 50.6819 53.7466 49.6419 53.9199 48.6419C52.1199 49.5086 50.1466 49.9485 48.1599 49.9485C45.2266 49.9485 42.6399 49.1486 40.5333 47.8019V52.2286C40.5333 53.2686 39.6133 53.5219 39.2133 53.6685L36.4399 54.7485H53.9066C53.7332 53.7485 53.6532 52.7352 53.6532 51.7352Z" stroke="url(#paint4_linear_158_840)" stroke-width="2" stroke-miterlimit="10" stroke-linecap="round" stroke-linejoin="round"/>
<path d="M67.1332 34.1354C67.5732 33.4154 67.8265 32.602 67.8265 31.7354C67.8265 29.442 66.3332 27.1087 64.1599 26.3887C63.7065 26.7621 63.1332 26.9754 62.5465 26.9754C62.1999 26.9754 61.8665 26.9354 61.5332 26.8687V36.5754C61.5332 36.6287 61.5332 36.682 61.5332 36.7354C63.2399 35.5487 65.1332 34.6687 67.1332 34.1354Z" stroke="url(#paint5_linear_158_840)" stroke-width="2" stroke-miterlimit="10" stroke-linecap="round" stroke-linejoin="round"/>
<path d="M61.5335 36.7221C61.5335 36.6688 61.5335 36.6155 61.5335 36.5621V26.8555C59.3335 26.3888 57.6668 24.4155 57.6668 22.0821C57.6668 21.8155 57.3201 21.7355 57.1868 21.9621C55.6001 24.9355 52.4535 26.9621 48.8535 26.9621H34.3735V36.5621C34.3735 43.5621 39.8535 49.9487 48.1468 49.9487C50.1468 49.9487 52.1068 49.5088 53.9068 48.6421C54.7602 43.7088 57.5735 39.4554 61.5335 36.7221Z" stroke="url(#paint6_linear_158_840)" stroke-width="2" stroke-miterlimit="10" stroke-linecap="round" stroke-linejoin="round"/>
<path d="M44.7598 74.1885H49.0664" stroke="url(#paint7_linear_158_840)" stroke-width="2" stroke-miterlimit="10" stroke-linecap="round" stroke-linejoin="round"/>
<path d="M82.3196 48.4818C82.1863 47.8285 81.3863 47.5885 80.9063 48.0685L75.053 53.9218C74.8663 54.1085 74.613 54.1751 74.3596 54.1085L71.0263 53.2152C70.773 53.1485 70.5863 52.9618 70.5196 52.7085L69.6263 49.3752C69.5596 49.1218 69.6263 48.8685 69.813 48.6818L75.733 42.7619C76.1996 42.2952 75.9596 41.5085 75.3196 41.3618C72.173 40.6285 68.7063 41.5485 66.333 44.1352C63.0663 47.6818 63.0797 53.2152 66.3463 56.7618C69.9596 60.6685 76.053 60.7618 79.7863 57.0285C82.1063 54.6818 82.9463 51.4685 82.3196 48.4818Z" stroke="url(#paint8_linear_158_840)" stroke-width="2" stroke-miterlimit="10" stroke-linecap="round" stroke-linejoin="round"/>
<path d="M66.3464 56.7352C65.3597 55.6552 64.6664 54.4018 64.2664 53.0685L56.2397 61.0952C57.0131 62.3752 57.9331 63.5618 58.9864 64.6152C60.0397 65.6685 61.2264 66.6018 62.5064 67.3618L70.533 59.3352C68.9864 58.8819 67.533 58.0152 66.3464 56.7352Z" stroke="url(#paint9_linear_158_840)" stroke-width="2" stroke-miterlimit="10" stroke-linecap="round" stroke-linejoin="round"/>
<path d="M41.9602 3.14862H38.1735C32.9469 3.14862 28.7202 7.37531 28.7202 12.602V22.9753C28.7202 25.1753 30.5069 26.9619 32.7069 26.9619H48.8535C52.4668 26.9619 55.6001 24.9353 57.2001 21.9619C57.3201 21.7353 57.6801 21.8153 57.6801 22.0819C57.6801 24.7619 59.8801 26.9619 62.5601 26.9619C63.9735 26.9619 65.1201 25.8152 65.1201 24.4019V13.5753C65.1201 11.0286 62.8935 9.17529 60.6801 9.33529C59.4001 9.42862 58.2268 8.62862 57.9868 7.37529C57.5735 5.2553 56.5201 3.14862 52.4268 3.14862H48.5602" stroke="url(#paint10_linear_158_840)" stroke-width="2" stroke-miterlimit="10" stroke-linecap="round" stroke-linejoin="round"/>
<path d="M82.7198 79.1886V72.2287C82.7198 70.4287 82.3198 68.6953 81.6265 67.1353C78.8265 68.9087 75.5065 69.9486 71.9599 69.962V87.1486C71.9599 88.8419 70.8132 90.3219 69.2399 90.7886H26.84C25.2533 90.3219 24.12 88.8286 24.12 87.1486V59.5087L20.6933 60.842C17.56 62.1353 13.3467 66.202 13.3467 72.2287V94.1753C13.3467 95.5219 14.44 96.6152 15.7867 96.6152H80.2665C81.6132 96.6152 82.7065 95.5219 82.7065 94.1753V85.7753" stroke="url(#paint11_linear_158_840)" stroke-width="2" stroke-miterlimit="10" stroke-linecap="round" stroke-linejoin="round"/>
<defs>
<linearGradient id="paint0_linear_158_840" x1="19.9424" y1="93.7016" x2="94.8568" y2="93.7016" gradientUnits="userSpaceOnUse">
<stop stop-color="#1073BA"/>
<stop offset="1" stop-color="#085996"/>
</linearGradient>
<linearGradient id="paint1_linear_158_840" x1="27.0826" y1="31.8184" x2="38.1494" y2="31.8184" gradientUnits="userSpaceOnUse">
<stop stop-color="#1073BA"/>
<stop offset="1" stop-color="#085996"/>
</linearGradient>
<linearGradient id="paint2_linear_158_840" x1="52.6504" y1="51.7302" x2="103.923" y2="51.7302" gradientUnits="userSpaceOnUse">
<stop stop-color="#1073BA"/>
<stop offset="1" stop-color="#085996"/>
</linearGradient>
<linearGradient id="paint3_linear_158_840" x1="23.1216" y1="72.7643" x2="89.5597" y2="72.7643" gradientUnits="userSpaceOnUse">
<stop stop-color="#1073BA"/>
<stop offset="1" stop-color="#085996"/>
</linearGradient>
<linearGradient id="paint4_linear_158_840" x1="35.4299" y1="51.2677" x2="61.4072" y2="51.2677" gradientUnits="userSpaceOnUse">
<stop stop-color="#1073BA"/>
<stop offset="1" stop-color="#085996"/>
</linearGradient>
<linearGradient id="paint5_linear_158_840" x1="60.5304" y1="31.5514" x2="71.5906" y2="31.5514" gradientUnits="userSpaceOnUse">
<stop stop-color="#1073BA"/>
<stop offset="1" stop-color="#085996"/>
</linearGradient>
<linearGradient id="paint6_linear_158_840" x1="33.3735" y1="35.8849" x2="72.255" y2="35.8849" gradientUnits="userSpaceOnUse">
<stop stop-color="#1073BA"/>
<stop offset="1" stop-color="#085996"/>
</linearGradient>
<linearGradient id="paint7_linear_158_840" x1="-nan" y1="-nan" x2="-nan" y2="-nan" gradientUnits="userSpaceOnUse">
<stop stop-color="#1073BA"/>
<stop offset="1" stop-color="#085996"/>
</linearGradient>
<linearGradient id="paint8_linear_158_840" x1="62.8882" y1="50.4114" x2="90.3896" y2="50.4114" gradientUnits="userSpaceOnUse">
<stop stop-color="#1073BA"/>
<stop offset="1" stop-color="#085996"/>
</linearGradient>
<linearGradient id="paint9_linear_158_840" x1="55.2392" y1="60.2181" x2="76.9654" y2="60.2181" gradientUnits="userSpaceOnUse">
<stop stop-color="#1073BA"/>
<stop offset="1" stop-color="#085996"/>
</linearGradient>
<linearGradient id="paint10_linear_158_840" x1="27.72" y1="15.0533" x2="78.897" y2="15.0533" gradientUnits="userSpaceOnUse">
<stop stop-color="#1073BA"/>
<stop offset="1" stop-color="#085996"/>
</linearGradient>
<linearGradient id="paint11_linear_158_840" x1="12.3528" y1="78.0592" x2="107.507" y2="78.0592" gradientUnits="userSpaceOnUse">
<stop stop-color="#1073BA"/>
<stop offset="1" stop-color="#085996"/>
</linearGradient>
</defs>
</svg>
