<svg width="100" height="100" viewBox="0 0 100 100" fill="none" xmlns="http://www.w3.org/2000/svg">
<g clip-path="url(#clip0_158_854)">
<path d="M74.493 87.9484H21.5731C21.2264 87.9484 20.9331 88.2417 20.9331 88.5884V90.7884C20.9331 92.4284 22.2531 93.7617 23.8798 93.7617H72.173C73.7863 93.7617 75.1196 92.4284 75.1196 90.7884V88.5884C75.133 88.2284 74.8396 87.9484 74.493 87.9484Z" stroke="white" stroke-width="2.66666" stroke-miterlimit="10" stroke-linecap="round" stroke-linejoin="round"/>
<path d="M34.3732 33.7087V24.1088H32.7066C32.1999 24.1088 31.7199 24.0154 31.2666 23.8421C29.4666 24.7221 28.0933 26.8021 28.0933 28.8821C28.0933 31.8421 31.0933 34.2821 34.3999 34.0954C34.3732 33.9621 34.3732 33.8421 34.3732 33.7087Z" stroke="white" stroke-width="2.66666" stroke-miterlimit="10" stroke-linecap="round" stroke-linejoin="round"/>
<path d="M84.7597 61.7752C77.6398 68.8952 66.1065 68.8952 58.9865 61.7752C51.8665 54.6553 51.8665 43.122 58.9865 36.002C66.1065 28.882 77.6398 28.882 84.7597 36.002C91.8797 43.1086 91.8797 54.6553 84.7597 61.7752Z" stroke="white" stroke-width="2.66666" stroke-miterlimit="10" stroke-linecap="round" stroke-linejoin="round"/>
<path d="M71.88 67.1084C62.84 67.1084 55.3334 60.5218 53.9067 51.8818H27.9201C25.8268 51.8818 24.1201 53.5885 24.1201 55.6818V84.2951C24.1201 85.9884 25.2668 87.4684 26.8401 87.9351H69.2133C70.8 87.4684 71.9333 85.975 71.9333 84.2951V67.1084C71.92 67.1084 71.9067 67.1084 71.88 67.1084Z" stroke="white" stroke-width="2.66666" stroke-miterlimit="10" stroke-linecap="round" stroke-linejoin="round"/>
<path d="M53.6532 48.8817C53.6532 47.8283 53.7466 46.7883 53.9199 45.7883C52.1199 46.655 50.1466 47.095 48.1599 47.095C45.2266 47.095 42.6399 46.295 40.5333 44.9483V49.375C40.5333 50.415 39.6133 50.6683 39.2133 50.815L36.4399 51.895H53.9066C53.7332 50.895 53.6532 49.8817 53.6532 48.8817Z" stroke="white" stroke-width="2.66666" stroke-miterlimit="10" stroke-linecap="round" stroke-linejoin="round"/>
<path d="M67.1332 31.2818C67.5732 30.5618 67.8265 29.7485 67.8265 28.8818C67.8265 26.5885 66.3332 24.2552 64.1599 23.5352C63.7065 23.9085 63.1332 24.1219 62.5465 24.1219C62.1999 24.1219 61.8665 24.0819 61.5332 24.0152V33.7218C61.5332 33.7752 61.5332 33.8285 61.5332 33.8818C63.2399 32.6952 65.1332 31.8152 67.1332 31.2818Z" stroke="white" stroke-width="2.66666" stroke-miterlimit="10" stroke-linecap="round" stroke-linejoin="round"/>
<path d="M61.5335 33.8686C61.5335 33.8152 61.5335 33.7619 61.5335 33.7086V24.0019C59.3335 23.5353 57.6668 21.562 57.6668 19.2286C57.6668 18.962 57.3201 18.8819 57.1868 19.1086C55.6001 22.0819 52.4535 24.1086 48.8535 24.1086H34.3735V33.7086C34.3735 40.7086 39.8535 47.0952 48.1468 47.0952C50.1468 47.0952 52.1068 46.6552 53.9068 45.7885C54.7602 40.8552 57.5735 36.6019 61.5335 33.8686Z" stroke="white" stroke-width="2.66666" stroke-miterlimit="10" stroke-linecap="round" stroke-linejoin="round"/>
<path d="M44.7598 71.3486H49.0664" stroke="white" stroke-width="2.66666" stroke-miterlimit="10" stroke-linecap="round" stroke-linejoin="round"/>
<path d="M82.3196 45.6283C82.1863 44.975 81.3863 44.735 80.9063 45.215L75.053 51.0683C74.8663 51.2549 74.613 51.3216 74.3596 51.255L71.0263 50.3616C70.773 50.2949 70.5863 50.1083 70.5196 49.855L69.6263 46.5217C69.5596 46.2683 69.6263 46.015 69.813 45.8283L75.733 39.9083C76.1996 39.4416 75.9596 38.655 75.3196 38.5083C72.173 37.775 68.7063 38.695 66.333 41.2816C63.0663 44.8283 63.0797 50.3616 66.3463 53.9083C69.9596 57.8149 76.053 57.9083 79.7863 54.175C82.1063 51.8416 82.9463 48.615 82.3196 45.6283Z" stroke="white" stroke-width="2.66666" stroke-miterlimit="10" stroke-linecap="round" stroke-linejoin="round"/>
<path d="M66.3464 53.8817C65.3597 52.8017 64.6664 51.5483 64.2664 50.215L56.2397 58.2416C57.0131 59.5216 57.9331 60.7083 58.9864 61.7616C60.0397 62.815 61.2264 63.7483 62.5064 64.5083L70.533 56.4816C68.9864 56.0283 67.533 55.1617 66.3464 53.8817Z" stroke="white" stroke-width="2.66666" stroke-miterlimit="10" stroke-linecap="round" stroke-linejoin="round"/>
<path d="M41.9602 0.295146H38.1735C32.9469 0.295146 28.7202 4.5218 28.7202 9.74845V20.1218C28.7202 22.3217 30.5069 24.1084 32.7069 24.1084H48.8535C52.4668 24.1084 55.6001 22.0817 57.2001 19.1084C57.3201 18.8817 57.6801 18.9618 57.6801 19.2284C57.6801 21.9084 59.8801 24.1084 62.5601 24.1084C63.9735 24.1084 65.1201 22.9618 65.1201 21.5484V10.7218C65.1201 8.17514 62.8935 6.32178 60.6801 6.48178C59.4001 6.57511 58.2268 5.77515 57.9868 4.52182C57.5735 2.40182 56.5201 0.295146 52.4268 0.295146H48.5602" stroke="white" stroke-width="2.66666" stroke-miterlimit="10" stroke-linecap="round" stroke-linejoin="round"/>
<path d="M82.7198 76.3351V69.3751C82.7198 67.5751 82.3198 65.8418 81.6265 64.2818C78.8265 66.0551 75.5065 67.0951 71.9599 67.1084V84.2951C71.9599 85.9884 70.8132 87.4684 69.2399 87.9351H26.84C25.2533 87.4684 24.12 85.9751 24.12 84.2951V56.6551L20.6933 57.9885C17.56 59.2818 13.3467 63.3484 13.3467 69.3751V91.3217C13.3467 92.6684 14.44 93.7617 15.7867 93.7617H80.2665C81.6132 93.7617 82.7065 92.6684 82.7065 91.3217V82.9217" stroke="white" stroke-width="2.66666" stroke-miterlimit="10" stroke-linecap="round" stroke-linejoin="round"/>
</g>
<defs>
<clipPath id="clip0_158_854">
<rect width="100" height="100" fill="white"/>
</clipPath>
</defs>
</svg>
