<svg width="45" height="50" viewBox="0 0 45 50" fill="none" xmlns="http://www.w3.org/2000/svg">
<path fill-rule="evenodd" clip-rule="evenodd" d="M33.9784 50H5.27251C2.34334 50 0 47.559 0 44.6299V10.3586C0 7.42938 2.34334 4.9884 5.27251 4.9884H5.66307C6.05362 4.9884 6.34654 5.28132 6.34654 5.67188C6.34654 5.96479 6.15126 6.25771 5.76071 6.35535L9.86155 43.9464H38.0792C38.1769 43.7511 38.3722 43.5558 38.6651 43.5558C39.0556 43.5558 39.3485 43.8487 39.3485 44.2393V44.6299C39.3485 47.559 36.9076 50 33.9784 50Z" fill="#2382F7"/>
<path fill-rule="evenodd" clip-rule="evenodd" d="M4.00311 5.18368C4.39367 5.08604 4.88186 4.9884 5.27242 4.9884H5.66298C6.05353 4.9884 6.34645 5.28132 6.34645 5.67188C6.34645 5.96479 6.15117 6.25771 5.76062 6.35535L9.86146 43.9464H38.0792C38.1768 43.7511 38.3721 43.5558 38.665 43.5558C39.0555 43.5558 39.3485 43.8487 39.3485 44.2393V44.6299C39.3485 45.0204 39.2508 45.5086 39.1532 45.8992H10.3497C6.93229 45.8992 4.00311 43.1653 4.00311 39.6503V5.18368Z" fill="#1557C0"/>
<path fill-rule="evenodd" clip-rule="evenodd" d="M38.958 44.9227H10.3498C7.42059 44.9227 4.97961 42.5794 4.97961 39.6502V5.37894C4.97961 2.44977 7.42059 0.00878906 10.3498 0.00878906H35.0524C35.443 0.00878906 35.7359 0.301706 35.7359 0.692262C35.7359 1.08282 35.443 1.37574 35.0524 1.37574V9.18686H42.9612C43.0589 8.89394 43.2541 8.60102 43.6447 8.60102C44.0352 8.60102 44.3282 8.89394 44.3282 9.2845V39.6502C44.3282 41.1148 43.7423 42.3841 42.7659 43.3605C41.7895 44.3369 40.4226 44.9227 38.958 44.9227Z" fill="#DBEBFF"/>
<path fill-rule="evenodd" clip-rule="evenodd" d="M43.6446 9.96799H35.0524C34.6619 9.96799 34.3689 9.67507 34.3689 9.28452V0.692278C34.3689 0.39936 34.5642 0.204082 34.7595 0.106443C35.0524 -0.088835 35.3453 0.00880411 35.5406 0.204082L44.1328 8.79632C44.3281 8.9916 44.3281 9.28452 44.2305 9.57743C44.1328 9.77271 43.9376 9.96799 43.6446 9.96799ZM24.7027 7.72229H10.6426C10.2521 7.72229 9.95917 7.42937 9.95917 7.03882C9.95917 6.64826 10.2521 6.35534 10.6426 6.35534H24.7027C25.0932 6.35534 25.3861 6.64826 25.3861 7.03882C25.3861 7.42937 25.0932 7.72229 24.7027 7.72229ZM38.6651 12.8972H10.6426C10.2521 12.8972 9.95917 12.6042 9.95917 12.2137C9.95917 11.8231 10.2521 11.5302 10.6426 11.5302H38.6651C39.0556 11.5302 39.3485 11.8231 39.3485 12.2137C39.3485 12.6042 39.0556 12.8972 38.6651 12.8972ZM38.6651 17.9744H10.6426C10.2521 17.9744 9.95917 17.6815 9.95917 17.2909C9.95917 16.9004 10.2521 16.6074 10.6426 16.6074H38.6651C39.0556 16.6074 39.3485 16.9004 39.3485 17.2909C39.3485 17.6815 39.0556 17.9744 38.6651 17.9744ZM38.6651 23.1493H10.6426C10.2521 23.1493 9.95917 22.8563 9.95917 22.4658C9.95917 22.0752 10.2521 21.7823 10.6426 21.7823H38.6651C39.0556 21.7823 39.3485 22.0752 39.3485 22.4658C39.3485 22.8563 39.0556 23.1493 38.6651 23.1493ZM38.6651 28.3241H10.6426C10.2521 28.3241 9.95917 28.0312 9.95917 27.6407C9.95917 27.2501 10.2521 26.9572 10.6426 26.9572H38.6651C39.0556 26.9572 39.3485 27.2501 39.3485 27.6407C39.3485 28.0312 39.0556 28.3241 38.6651 28.3241ZM38.6651 33.4014H10.6426C10.2521 33.4014 9.95917 33.1084 9.95917 32.7179C9.95917 32.3273 10.2521 32.0344 10.6426 32.0344H38.6651C39.0556 32.0344 39.3485 32.3273 39.3485 32.7179C39.3485 33.1084 39.0556 33.4014 38.6651 33.4014ZM38.6651 38.5762H10.6426C10.2521 38.5762 9.95917 38.2833 9.95917 37.8928C9.95917 37.5022 10.2521 37.2093 10.6426 37.2093H38.6651C39.0556 37.2093 39.3485 37.5022 39.3485 37.8928C39.3485 38.2833 39.0556 38.5762 38.6651 38.5762Z" fill="#024FA1"/>
</svg>
