<svg width="50" height="50" viewBox="0 0 50 50" fill="none" xmlns="http://www.w3.org/2000/svg">
<path d="M8.88672 19.1406C8.88672 10.2636 16.1229 2.92969 25 2.92969C33.8771 2.92969 41.1133 10.2636 41.1133 19.1406V22.0703C41.1133 22.2965 41.1709 22.5036 41.259 22.6933L44.043 22.0703V19.1406C44.043 8.65225 35.4884 0 25 0C14.5116 0 5.95703 8.65225 5.95703 19.1406V22.0703L8.88672 21.1859V19.1406Z" fill="#00397A"/>
<path d="M41.1133 19.1406V22.0703C41.1133 22.2965 41.1709 22.5036 41.259 22.6933L44.043 22.0703V19.1406C44.043 8.65225 35.4884 0 25 0V2.92969C33.8771 2.92969 41.1133 10.2636 41.1133 19.1406Z" fill="#00397A"/>
<path d="M25 41.2109C22.5683 41.2109 20.6055 43.1737 20.6055 45.6055C20.6055 48.037 22.5683 50 25 50C27.4317 50 29.3945 48.037 29.3945 45.6055C29.3945 43.1737 27.4317 41.2109 25 41.2109Z" fill="#73BCFF"/>
<path d="M36.7188 47.0703H27.9297C27.12 47.0703 26.4648 46.4151 26.4648 45.6055C26.4648 44.7958 27.12 44.1406 27.9297 44.1406H36.7188C37.527 44.1406 38.1836 43.484 38.1836 42.6758V39.7461C38.1836 38.9364 38.8388 38.2812 39.6484 38.2812C40.4581 38.2812 41.1133 38.9364 41.1133 39.7461V42.6758C41.1133 45.099 39.142 47.0703 36.7188 47.0703Z" fill="#00397A"/>
<path d="M45.6055 20.6055H42.5781C41.7685 20.6055 41.1133 21.2606 41.1133 22.0703V36.8164C41.1133 37.6261 41.7685 38.2812 42.5781 38.2812H45.6055C48.0287 38.2812 50 36.31 50 33.8867V25C50 22.5768 48.0287 20.6055 45.6055 20.6055Z" fill="#01458D"/>
<path d="M7.42188 20.6055H4.39453C1.97129 20.6055 0 22.5768 0 25V33.8867C0 36.31 1.97129 38.2812 4.39453 38.2812H7.42188C8.23154 38.2812 8.88672 37.6261 8.88672 36.8164V22.0703C8.88672 21.2606 8.23154 20.6055 7.42188 20.6055Z" fill="#01458D"/>
<path d="M29.3945 45.6055C29.3945 48.037 27.4317 50 25 50V41.2109C27.4317 41.2109 29.3945 43.1737 29.3945 45.6055Z" fill="#3AAAFF"/>
<path d="M10.3516 41.2109C7.92832 41.2109 5.95703 39.2396 5.95703 36.8164V22.0703C5.95703 19.6471 7.92832 17.6758 10.3516 17.6758C12.7748 17.6758 14.7461 19.6471 14.7461 22.0703V36.8164C14.7461 39.2396 12.7748 41.2109 10.3516 41.2109Z" fill="#73BCFF"/>
<path d="M39.6484 41.2109C37.2252 41.2109 35.2539 39.2396 35.2539 36.8164V22.0703C35.2539 19.6471 37.2252 17.6758 39.6484 17.6758C42.0717 17.6758 44.043 19.6471 44.043 22.0703V36.8164C44.043 39.2396 42.0717 41.2109 39.6484 41.2109Z" fill="#3AAAFF"/>
</svg>
