<svg width="46" height="50" viewBox="0 0 46 50" fill="none" xmlns="http://www.w3.org/2000/svg">
<path d="M32.2267 28.1179C32.1908 28.2607 32.1551 28.4037 32.1551 28.5823C32.1551 29.5112 27.2247 32.1551 17.8639 32.1551C8.50324 32.1551 3.57279 29.5112 3.57279 28.5823V28.5107L0 28.5823V39.3007C0 44.1954 9.25388 46.4463 17.8639 46.4463C26.474 46.4463 35.7279 44.1954 35.7279 39.3007V28.5823L32.2267 28.1179Z" fill="#DBEBFF"/>
<path d="M32.2269 28.1179L35.7281 28.5823V39.3007C35.7281 44.1954 26.4742 46.4463 17.8641 46.4463V32.1551C27.2248 32.1551 32.1553 29.5112 32.1553 28.5823C32.1553 28.4037 32.191 28.2607 32.2269 28.1179Z" fill="#BDDBFF"/>
<path d="M32.1908 17.6139C32.1551 17.6854 32.1551 17.7925 32.1551 17.864C32.1551 18.7929 27.2247 21.4367 17.8639 21.4367C8.50324 21.4367 3.57279 18.7929 3.57279 17.864C3.57279 17.7924 3.57279 17.6853 3.53706 17.6139L0 17.864V28.5823C0 33.4771 9.25388 35.7279 17.8639 35.7279C26.474 35.7279 35.7279 33.4771 35.7279 28.5823V17.864L32.1908 17.6139Z" fill="#2382F7"/>
<path d="M32.191 17.6139L35.7281 17.864V28.5823C35.7281 33.4771 26.4742 35.7279 17.8641 35.7279V21.4367C27.2248 21.4367 32.1553 18.7929 32.1553 17.864C32.1553 17.7924 32.1553 17.6853 32.191 17.6139Z" fill="#1872E1"/>
<path d="M32.1908 6.93121C32.1551 7.00255 32.1551 7.07401 32.1551 7.14558C32.1551 8.07451 27.2247 10.7184 17.8639 10.7184C8.50324 10.7184 3.57279 8.07451 3.57279 7.14558V7.10985C1.82212 7.25265 0.178759 7.28849 0 7.14558V17.864C0 22.7587 9.25388 25.0095 17.8639 25.0095C26.474 25.0095 35.7279 22.7587 35.7279 17.864V7.14558C35.7279 7.14558 33.9415 7.03828 32.1908 6.93121Z" fill="#DBEBFF"/>
<path d="M17.8639 0C9.25388 0 0 2.25086 0 7.14558C0 12.0403 9.25388 14.2912 17.8639 14.2912C26.474 14.2912 35.7279 12.0403 35.7279 7.14558C35.7279 2.25086 26.474 0 17.8639 0Z" fill="#2382F7"/>
<path d="M35.7281 7.14558V17.864C35.7281 22.7587 26.4742 25.0095 17.8641 25.0095V10.7184C27.2248 10.7184 32.1553 8.07451 32.1553 7.14558C32.1553 7.07401 32.1553 7.00255 32.191 6.93121C33.9417 7.03828 35.7281 7.14558 35.7281 7.14558Z" fill="#BDDBFF"/>
<path d="M17.8641 14.2912V0C26.4742 0 35.7281 2.25086 35.7281 7.14558C35.7281 12.0403 26.4742 14.2912 17.8641 14.2912Z" fill="#1872E1"/>
<path d="M44.2351 37.5831H42.887C42.7983 37.317 42.6919 37.051 42.5679 36.8026L43.5256 35.8447C43.8627 35.5077 43.8627 34.9402 43.5256 34.6031L41.0067 32.0842C40.6698 31.7649 40.0842 31.7649 39.7473 32.0842L38.8071 33.0421C38.5589 32.9179 38.2928 32.8115 38.0267 32.7228V31.3747C38.0267 30.878 37.6365 30.4878 37.1398 30.4878H33.5921C33.0954 30.4878 32.7052 30.878 32.7052 31.3747V32.7228C32.4391 32.8115 32.173 32.9179 31.9248 33.0421L30.9846 32.0842C30.8071 31.9246 30.5767 31.8359 30.3459 31.8359C30.1155 31.8359 29.8847 31.9246 29.7253 32.0842L27.2064 34.6031C26.8692 34.9401 26.8692 35.5076 27.2064 35.8447L28.1641 36.8026C28.0401 37.051 27.9338 37.317 27.845 37.5831H26.4968C26 37.5831 25.6099 37.9733 25.6099 38.4701V42.0177C25.6099 42.5143 26 42.9046 26.4968 42.9046H27.8449C27.9336 43.1707 28.04 43.4368 28.1641 43.6851L27.2063 44.6429C26.8692 44.98 26.8692 45.5476 27.2063 45.8846L29.7252 48.4034C30.0621 48.7227 30.6477 48.7227 30.9846 48.4034L31.9248 47.4456C32.1729 47.5698 32.4391 47.6762 32.7051 47.7649V49.1131C32.7051 49.6097 33.0953 50 33.5921 50H37.1397C37.6365 50 38.0267 49.6097 38.0267 49.1131V47.765C38.2928 47.6763 38.5589 47.5698 38.807 47.4457L39.7472 48.4035C40.1269 48.7449 40.6868 48.7239 41.0066 48.4035L43.5255 45.8847C43.8626 45.5477 43.8626 44.98 43.5255 44.643L42.5679 43.6851C42.6919 43.4368 42.7982 43.1707 42.887 42.9046H44.2351C44.7319 42.9046 45.1221 42.5143 45.1221 42.0177V38.4701C45.1221 37.9733 44.7319 37.5831 44.2351 37.5831ZM38.5057 43.3835C36.7451 45.1084 33.9869 45.1084 32.2263 43.3835C30.4975 41.6547 30.4976 38.833 32.2263 37.1042C33.0954 36.235 34.2307 35.8093 35.366 35.8093C36.5012 35.8093 37.6365 36.235 38.5057 37.1041C40.2344 38.833 40.2344 41.6547 38.5057 43.3835Z" fill="#01458D"/>
<path d="M45.1216 38.4701V42.0177C45.1216 42.5143 44.7314 42.9046 44.2347 42.9046H42.8865C42.7978 43.1707 42.6914 43.4368 42.5674 43.6851L43.5251 44.6429C43.8623 44.98 43.8623 45.5476 43.5251 45.8846L41.0062 48.4034C40.6865 48.7238 40.1265 48.7449 39.7469 48.4034L38.8066 47.4457C38.5584 47.5698 38.2923 47.6763 38.0262 47.765V49.1131C38.0262 49.6097 37.636 50 37.1393 50H35.3655V44.6785C36.5007 44.6785 37.636 44.235 38.5052 43.3835C40.234 41.6547 40.2339 38.833 38.5052 37.1042C37.636 36.235 36.5007 35.8093 35.3655 35.8093V30.4878H37.1393C37.636 30.4878 38.0262 30.878 38.0262 31.3747V32.7228C38.2924 32.8115 38.5584 32.9179 38.8066 33.0421L39.7468 32.0842C40.0837 31.7649 40.6692 31.7649 41.0062 32.0842L43.5251 34.6031C43.8622 34.9401 43.8622 35.5076 43.5251 35.8447L42.5674 36.8026C42.6914 37.051 42.7977 37.317 42.8865 37.5831H44.2347C44.7314 37.5831 45.1216 37.9733 45.1216 38.4701Z" fill="#00397A"/>
</svg>
