<svg width="70" height="33" viewBox="0 0 70 33" fill="none" xmlns="http://www.w3.org/2000/svg">
<path d="M39.5739 15.677C40.278 14.9245 41.6922 13.4596 43.4408 11.8931L45.436 7.19645L40.3151 6.62422C38.4332 8.24339 36.7081 10.0406 37.2153 9.57858C36.4537 10.2681 29.9352 17.2432 29.2058 18.0206C29.2058 18.0206 25.0515 22.0454 22.2236 23.9516L26.8503 24.7894L25.3043 29.1303C26.6731 28.2313 28.0997 27.146 29.5907 25.8691C31.8062 23.9718 33.6605 22.0824 34.6475 21.0374L37.7727 17.5404C38.361 16.9076 38.9615 16.2863 39.5739 15.677Z" fill="#77B6FB"/>
<path d="M15.8585 6.03033C15.9757 6.02636 16.0926 6.02148 16.2107 6.02148C20.0791 6.02148 25.5798 10.8364 28.639 13.8445L27.1945 9.12447L32.3879 9.09029C31.566 8.29695 30.6183 7.42015 29.5909 6.54015C24.452 2.13936 20.0753 0 16.2107 0C15.5825 0 14.9631 0.0372334 14.3532 0.106968L11.1149 4.01824L15.8585 6.03033Z" fill="#2382F7"/>
<path d="M6.11212 17.5311C6.05385 17.0914 6.02419 16.6483 6.02331 16.2048C6.02331 10.6988 10.3951 6.21634 15.8573 6.03048L11.1138 4.01839L14.3522 0.107117C6.28577 1.03137 0 7.89746 0 16.2046C0 17.3189 0.113224 18.4073 0.328381 19.4588L4.64616 22.3302L6.11212 17.5311Z" fill="#77B6FB"/>
<path d="M22.2211 23.9517C20.1363 25.3569 17.9975 26.388 16.2079 26.388C11.0321 26.388 6.761 22.528 6.11034 17.5311L4.64453 22.3302L0.326904 19.4589C1.83804 26.8399 8.38459 32.4093 16.208 32.4093C18.9514 32.4093 21.953 31.33 25.3018 29.1304L26.8478 24.7894L22.2211 23.9517Z" fill="#DBEBFF"/>
<path d="M43.4404 11.8933C46.5408 9.11592 50.6907 6.02148 53.792 6.02148C55.5647 6.02148 57.231 6.47483 58.6828 7.27091L63.2278 7.0257L62.1984 2.35421C59.7458 0.861081 56.8676 0.000152588 53.792 0.000152588C49.9275 0.000152588 45.5508 2.13951 40.4119 6.5403C40.3791 6.56837 40.3474 6.5963 40.3147 6.62438L45.4356 7.1966L43.4404 11.8933Z" fill="#2382F7"/>
<path d="M62.1966 2.35406L63.226 7.02555L58.681 7.27077C61.8368 9.00102 63.9766 12.3526 63.9766 16.2046C63.9779 17.4024 63.7674 18.5909 63.3548 19.7154L64.2969 24.0493L68.8266 22.2557C69.5826 20.3852 69.9999 18.3429 69.9999 16.2048C69.9998 10.3441 66.8715 5.20023 62.1966 2.35406Z" fill="#DBEBFF"/>
<path d="M63.356 19.7154C61.9253 23.6096 58.1831 26.388 53.7914 26.388C52.1526 26.388 50.2209 25.5231 48.3059 24.2984L43.845 24.7093L45.0576 29.3642C48.2621 31.4069 51.1467 32.4095 53.7913 32.4095C60.5905 32.4095 66.4245 28.2025 68.8275 22.2557L64.2978 24.0493L63.356 19.7154Z" fill="#2382F7"/>
<path d="M48.3049 24.2982C43.6461 21.3185 39.0868 16.2046 39.0868 16.2046L35.0269 11.8313L35.0554 11.8011C34.5638 11.2762 34.0645 10.7586 33.5575 10.2485L33.5569 10.2479C33.1701 9.85784 32.7791 9.47197 32.3841 9.09029L27.1923 9.12447L28.6367 13.8445L28.635 13.843C29.9902 15.1754 30.8649 16.152 30.9088 16.201L30.9213 16.1877C32.6162 17.9759 34.9994 20.6591 34.9994 20.6591C35.8415 21.5675 37.8935 23.7139 40.4103 25.8691C42.0326 27.2583 43.5786 28.4216 45.0568 29.364L43.8442 24.7091L48.3049 24.2982Z" fill="#4B9CF9"/>
</svg>
