<svg width="50" height="52" viewBox="0 0 50 52" fill="none" xmlns="http://www.w3.org/2000/svg">
<path d="M22.873 1.04746C22.5831 0.761344 22.1922 0.600922 21.7849 0.600922C21.3776 0.600922 20.9867 0.761344 20.6968 1.04746L15.0631 6.69453C13.8623 7.99134 15.2863 9.11183 16.1791 9.98902C16.4675 10.2772 16.8585 10.439 17.2661 10.439C17.6738 10.439 18.0648 10.2772 18.3531 9.98902L23.9957 4.34642C25.1966 3.05183 23.7815 1.92465 22.873 1.04746ZM46.9411 25.1156C46.0617 24.2094 44.9323 22.792 43.6422 23.9996L38.0085 29.6355C36.8099 30.9301 38.2317 32.055 39.1245 32.93C39.267 33.0732 39.4364 33.1868 39.6229 33.2643C39.8095 33.3419 40.0095 33.3818 40.2115 33.3818C40.4136 33.3818 40.6136 33.3419 40.8001 33.2643C40.9867 33.1868 41.1561 33.0732 41.2985 32.93L46.9322 27.2985C47.2226 27.0101 47.3867 26.6182 47.3884 26.2089C47.39 25.7996 47.2292 25.4064 46.9411 25.1156Z" fill="#1557C0"/>
<path d="M39.6669 14.2835C37.59 12.0572 35.3871 9.95186 33.069 7.97795L9.49862 2.90005C7.10116 2.58063 4.67199 3.18553 2.70428 4.59194C2.48454 4.7028 2.30082 4.8738 2.1745 5.08503C2.04818 5.29627 1.98447 5.53904 1.99078 5.78508C1.9971 6.03112 2.07318 6.2703 2.21017 6.47478C2.34715 6.67925 2.53941 6.84061 2.76455 6.94005L24.9466 16.7387C25.0939 16.8024 25.228 16.8932 25.3417 17.0066L30.991 22.6559C31.1042 22.77 31.1958 22.9039 31.261 23.0509L41.0463 45.233C41.1462 45.458 41.3078 45.6501 41.5124 45.787C41.7171 45.9238 41.9563 45.9998 42.2024 46.0061C42.4485 46.0124 42.6914 45.9488 42.9028 45.8226C43.1142 45.6964 43.2854 45.5129 43.3967 45.2932C44.7984 43.3243 45.4022 40.8974 45.0863 38.5011L40.0196 14.9196C39.965 14.6783 39.8426 14.4576 39.6669 14.2835Z" fill="#2382F7"/>
<path d="M11.6727 32.9123L3.63731 32.7225C2.47665 32.5775 1.13296 34.122 0.289245 34.718C0.185968 34.8012 0.105736 34.9096 0.0561958 35.0326C0.00665542 35.1557 -0.010542 35.2894 0.00624275 35.421C0.0230275 35.5526 0.0732349 35.6777 0.15208 35.7844C0.230924 35.891 0.335779 35.9758 0.456649 36.0304L11.1169 40.8717L15.9582 51.5409C16.0129 51.6618 16.0976 51.7666 16.2043 51.8455C16.3109 51.9243 16.436 51.9745 16.5676 51.9913C16.6992 52.0081 16.8329 51.9909 16.956 51.9413C17.079 51.8918 17.1874 51.8116 17.2706 51.7083C17.8822 50.8289 19.4 49.5432 19.2683 48.3602L19.0763 40.3249C19.068 40.0075 19.1249 39.6918 19.2436 39.3973C19.3622 39.1028 19.54 38.8359 19.766 38.6129C23.3976 35.0416 39.8701 18.7901 45.8542 12.9801C47.6867 11.1945 51.3584 4.40238 49.479 2.52077C47.5996 0.643618 40.8008 4.3064 39.0197 6.1456C33.2096 12.1186 16.9648 28.591 13.3936 32.2226C13.1694 32.4495 12.901 32.6278 12.6049 32.7465C12.3088 32.8651 11.9915 32.9216 11.6727 32.9123Z" fill="#DBEBFF"/>
<path d="M17.8264 33.7717L12.1146 41.2669C10.5254 43.2757 7.68174 40.4254 9.69504 38.8451L17.1902 33.1311C17.2752 33.0467 17.3902 32.9996 17.5099 33C17.6296 33.0004 17.7442 33.0484 17.8286 33.1333C17.913 33.2183 17.9601 33.3333 17.9597 33.453C17.9593 33.5727 17.9113 33.6873 17.8264 33.7717Z" fill="#1557C0"/>
<path d="M42.1563 5.00014C42.8488 4.96592 43.5408 5.07715 44.1876 5.32666C44.8345 5.57616 45.422 5.95842 45.9121 6.44878C46.4023 6.93915 46.7843 7.52677 47.0335 8.17376C47.2828 8.82076 47.3937 9.51279 47.3592 10.2053C47.3597 10.2414 47.3727 10.2762 47.396 10.3039C47.4193 10.3315 47.4514 10.3502 47.487 10.3567C47.5225 10.3633 47.5592 10.3574 47.5908 10.3399C47.6225 10.3225 47.6471 10.2946 47.6605 10.2611C49.6448 5.07603 47.2855 2.71453 42.0983 4.69881C42.0645 4.71229 42.0366 4.7371 42.0191 4.76897C42.0017 4.80084 41.996 4.83778 42.0028 4.87345C42.0097 4.90911 42.0288 4.94126 42.0568 4.96439C42.0848 4.98751 42.12 5.00015 42.1563 5.00014Z" fill="#1557C0"/>
</svg>
