<svg width="50" height="51" viewBox="0 0 50 51" fill="none" xmlns="http://www.w3.org/2000/svg">
<path fill-rule="evenodd" clip-rule="evenodd" d="M19.7064 4.92173C17.8721 5.40403 16.1424 6.13038 14.5444 7.06398C14.1609 7.28867 13.7212 7.30029 13.3261 7.09691L10.3219 5.5648C9.82219 5.31299 9.24111 5.40597 8.84404 5.8011L5.79724 8.8479C5.40211 9.24303 5.30914 9.82605 5.56094 10.3258L7.09305 13.33C7.29643 13.7309 7.28481 14.1648 7.06012 14.5483C6.12652 16.1463 5.40211 17.8759 4.91981 19.7102C4.8036 20.1383 4.50724 20.4559 4.08499 20.5935L0.879369 21.6375C0.346713 21.8079 0 22.2844 0 22.8461V27.1616C0 27.7214 0.346713 28.194 0.879369 28.3703L4.08499 29.4084C4.50724 29.5518 4.8036 29.8636 4.91981 30.2975C5.40211 32.126 6.12846 33.8615 7.06012 35.4594C7.28481 35.8429 7.29643 36.2768 7.09305 36.6778L5.56094 39.6819C5.30914 40.1817 5.40211 40.7589 5.79724 41.1598L8.84404 44.2066C9.23917 44.6018 9.82219 44.6947 10.3219 44.4429L13.3261 42.9108C13.727 42.7074 14.1609 42.7191 14.5444 42.9437C16.1424 43.8773 17.8721 44.6017 19.7064 45.086C20.1344 45.1964 20.454 45.4986 20.5896 45.9208L21.6336 49.1264C21.8041 49.6591 22.2805 50.0058 22.8423 50.0058H27.1519C27.7175 50.0058 28.1901 49.6591 28.3645 49.1264L29.4026 45.9208C29.5402 45.4986 29.8578 45.1964 30.2917 45.086C32.1202 44.6037 33.8557 43.8773 35.4536 42.9437C35.8371 42.7191 36.271 42.7074 36.672 42.9108L39.6761 44.4429C40.1759 44.6947 40.7531 44.6018 41.154 44.2066L44.2008 41.1598C44.596 40.7589 44.6889 40.1817 44.4371 39.6819L42.905 36.6778C42.7016 36.2768 42.7133 35.8429 42.9379 35.4594C43.8715 33.8615 44.596 32.126 45.0802 30.2975C45.1906 29.8636 45.4928 29.5518 45.915 29.4084L49.1206 28.3703C49.6533 28.194 50 27.7233 50 27.1616V22.8461C50 22.2863 49.6533 21.8079 49.1206 21.6375L45.915 20.5935C45.4928 20.4559 45.1906 20.1383 45.0802 19.7102C44.5979 17.8759 43.8715 16.1463 42.9379 14.5483C42.7133 14.1648 42.7016 13.7309 42.905 13.33L44.4371 10.3258C44.6889 9.82605 44.596 9.24497 44.2008 8.8479L41.154 5.8011C40.7531 5.40597 40.1759 5.31299 39.6761 5.5648L36.672 7.09691C36.271 7.30029 35.8371 7.28867 35.4536 7.06398C33.8557 6.13038 32.1202 5.40597 30.2917 4.92173C29.8578 4.80552 29.5402 4.50917 29.4026 4.08692L28.3645 0.88129C28.1882 0.348634 27.7175 0.00192261 27.1519 0.00192261H22.8423C22.2825 0.00192261 21.8041 0.348634 21.6336 0.88129L20.5896 4.08692C20.4521 4.5111 20.1344 4.80745 19.7064 4.92173Z" fill="#2382F7"/>
<path fill-rule="evenodd" clip-rule="evenodd" d="M24.998 38.6554C32.5192 38.6554 38.6534 32.523 38.6534 25C38.6534 17.4789 32.5211 11.3388 24.998 11.3388C17.4769 11.3388 11.3369 17.4769 11.3369 25C11.3388 32.523 17.4769 38.6554 24.998 38.6554Z" fill="#EBF5FC"/>
<path fill-rule="evenodd" clip-rule="evenodd" d="M24.998 11.3408C25.3331 11.3408 25.6682 11.3582 25.9975 11.3795C18.92 11.8908 13.3416 17.7927 13.3416 25.002C13.3416 32.2054 18.92 38.1072 25.9975 38.6244C25.6682 38.6457 25.3331 38.6573 24.998 38.6573C17.4537 38.6573 11.3369 32.5463 11.3369 25.002C11.3388 17.4576 17.4556 11.3408 24.998 11.3408Z" fill="#D4DDE3"/>
<path fill-rule="evenodd" clip-rule="evenodd" d="M28.3702 17.0508C31.2582 18.3408 33.2726 21.2404 33.2726 24.6049C33.2726 27.58 31.7018 30.1948 29.3406 31.6495C28.8138 31.973 28.5232 32.5056 28.5232 33.1274V38.2002C27.3979 38.4965 26.2164 38.6554 24.998 38.6554C23.7797 38.6554 22.5982 38.4965 21.4728 38.2002V33.1274C21.4728 32.5075 21.1765 31.9749 20.6496 31.6495C18.2943 30.1948 16.7234 27.5819 16.7234 24.6049C16.7234 21.2385 18.7379 18.3408 21.6258 17.0508C21.8834 16.9346 22.1527 16.9578 22.389 17.1051C22.6253 17.2581 22.7512 17.5002 22.7512 17.781V23.9076C22.7512 24.8625 23.5318 25.6431 24.4867 25.6431H25.5016C26.4565 25.6431 27.2371 24.8625 27.2371 23.9076V17.781C27.2371 17.5002 27.3688 17.26 27.6051 17.1051C27.8434 16.9578 28.1126 16.9346 28.3702 17.0508Z" fill="#2F5274"/>
<path fill-rule="evenodd" clip-rule="evenodd" d="M19.7064 4.92175C17.9825 5.37112 16.3516 6.04129 14.8369 6.89742L15.2262 7.09499C15.6214 7.29836 16.0611 7.28674 16.4446 7.06206C18.0425 6.12846 19.7722 5.40404 21.6065 4.91981C22.0346 4.80359 22.3541 4.50724 22.4897 4.08499L23.5337 0.879368C23.7042 0.346711 24.1807 0 24.7424 0H22.8423C22.2825 0 21.8041 0.346711 21.6336 0.879368L20.5896 4.08499C20.4521 4.51112 20.1344 4.80747 19.7064 4.92175ZM10.7558 5.78949L10.3219 5.56481C9.82219 5.31301 9.24111 5.40598 8.84404 5.80112L5.79724 8.84791C5.40211 9.24305 5.30914 9.82606 5.56094 10.3258L7.09305 13.33C7.29643 13.7309 7.28481 14.1648 7.06012 14.5483C6.12652 16.1463 5.40211 17.876 4.91981 19.7102C4.8036 20.1383 4.50724 20.456 4.08499 20.5935L0.879369 21.6375C0.346713 21.8079 0 22.2844 0 22.8461V27.1558C0 27.7214 0.346713 28.194 0.879369 28.3683L4.08499 29.4065C4.50724 29.5499 4.8036 29.8617 4.91981 30.2956C5.40211 32.124 6.12846 33.8595 7.06012 35.4575C7.28481 35.841 7.29643 36.2749 7.09305 36.6758L5.56094 39.68C5.30914 40.1797 5.40211 40.7569 5.79724 41.1579L8.84404 44.2047C9.23917 44.5998 9.82219 44.6928 10.3219 44.441L10.7558 44.2163L10.7442 44.2047L7.69737 41.1579C7.30224 40.7569 7.20927 40.1797 7.46107 39.68L8.99318 36.6758C9.19656 36.2749 9.18494 35.841 8.96026 35.4575C8.02665 33.8595 7.30224 32.124 6.81994 30.2956C6.70373 29.8617 6.40738 29.5499 5.98513 29.4065L2.7795 28.3683C2.24684 28.1921 1.90013 27.7214 1.90013 27.1558V22.8461C1.90013 22.2864 2.24684 21.8079 2.7795 21.6375L5.98513 20.5935C6.40738 20.456 6.70373 20.1383 6.81994 19.7102C7.30224 17.876 8.02859 16.1463 8.96026 14.5483C9.18494 14.1648 9.19656 13.7309 8.99318 13.33L7.46107 10.3258C7.20927 9.82606 7.30224 9.24498 7.69737 8.84791L10.7442 5.80112L10.7558 5.78949ZM14.835 43.1026C16.3497 43.9587 17.9806 44.6231 19.7044 45.0802C20.1325 45.1906 20.4521 45.4928 20.5877 45.915L21.6317 49.1206C21.8021 49.6533 22.2786 50 22.8403 50H24.7404C24.1807 50 23.7023 49.6533 23.5318 49.1206L22.4878 45.915C22.3503 45.4928 22.0326 45.1906 21.6046 45.0802C19.7703 44.5979 18.0406 43.8715 16.4426 42.9379C16.0591 42.7133 15.6252 42.7016 15.2243 42.905L14.835 43.1026Z" fill="#4B9CF9"/>
</svg>
