<svg width="32" height="50" viewBox="0 0 32 50" fill="none" xmlns="http://www.w3.org/2000/svg">
<path d="M4.67275 50C2.10334 50 0.00012207 47.8975 0.00012207 45.3274V4.6733C0.00012207 2.10238 2.10334 0.000671387 4.67275 0.000671387H27.196C29.7654 0.000671387 31.8687 2.10238 31.8687 4.6733V45.3274C31.8687 47.8976 29.7654 50 27.196 50H4.67275Z" fill="#FFF5F5"/>
<path d="M20.5368 0H11.3319C9.61056 0 8.20276 1.40847 8.20276 3.12913C8.20276 4.8498 9.61056 6.2576 11.3319 6.2576H20.5368C22.2574 6.2576 23.6659 4.8498 23.6659 3.12897C23.6659 1.40814 22.2574 0 20.5368 0Z" fill="#635656"/>
<path d="M27.1959 0H4.67263C2.10322 0 0 2.10255 0 4.67263V45.3274C0 47.8976 2.10322 49.9993 4.67263 49.9993H27.1961C29.7655 49.9993 31.8687 47.8976 31.8687 45.3274V4.6733C31.8687 2.10238 29.7655 0 27.1961 0H27.1959ZM29.3495 45.3274C29.3495 46.5147 28.3832 47.481 27.1959 47.481H4.67263C3.48533 47.481 2.51903 46.5147 2.51903 45.3274V4.6733C2.51903 3.48532 3.48533 2.5197 4.67263 2.5197H8.26358C8.22327 2.72035 8.20286 2.92448 8.20263 3.12913C8.20263 4.8498 9.6111 6.2581 11.3318 6.2581H20.5366C22.258 6.2581 23.6658 4.8498 23.6658 3.12913C23.6655 2.92442 23.6451 2.72023 23.6048 2.51953H27.1958C28.3831 2.51953 29.3493 3.48516 29.3493 4.6733L29.3495 45.3274Z" fill="#635656"/>
<path d="M27.1959 0H4.67263C2.10322 0 0 2.10255 0 4.67263V45.3274C0 47.8976 2.10322 49.9993 4.67263 49.9993H27.1961C29.7655 49.9993 31.8687 47.8976 31.8687 45.3274V4.6733C31.8687 2.10238 29.7653 0 27.1959 0ZM29.3495 45.3274C29.3495 46.5147 28.3832 47.481 27.1959 47.481H4.67263C3.48533 47.481 2.51903 46.5147 2.51903 45.3274V4.6733C2.51903 3.48532 3.48533 2.5197 4.67263 2.5197H8.26358C8.22327 2.72035 8.20286 2.92448 8.20263 3.12913C8.20263 4.8498 9.6111 6.2581 11.3318 6.2581H20.5366C22.2573 6.2581 23.6658 4.8498 23.6658 3.12913C23.6655 2.92442 23.6451 2.72023 23.6048 2.51953H27.1958C28.3831 2.51953 29.3493 3.48516 29.3493 4.6733L29.3495 45.3274Z" fill="#043A73"/>
<path d="M15.9343 6.2576H20.5368C22.2574 6.2576 23.6659 4.8498 23.6659 3.12897C23.6657 2.92414 23.6452 2.71985 23.6049 2.51903H27.1959C28.3832 2.51903 29.3495 3.48533 29.3495 4.67263V45.3274C29.3495 46.5147 28.3832 47.4803 27.1959 47.4803H15.9343V49.9993H27.1959C29.7653 49.9993 31.8685 47.8976 31.8685 45.3274V4.6733C31.8685 2.10238 29.7653 0.000671387 27.1959 0.000671387H15.9343V6.2576Z" fill="#01458D"/>
<path d="M24.8934 23.219C24.6609 22.0414 24.1971 20.9217 23.5289 19.9245L24.732 18.7214L22.213 16.2024L21.0099 17.4055C20.0127 16.7373 18.8929 16.2735 17.7153 16.041V14.3395H14.1534V16.041C12.9758 16.2735 11.856 16.7373 10.8589 17.4055L9.65512 16.2024L7.1361 18.7214L8.33985 19.9245C7.67168 20.9217 7.2079 22.0414 6.97538 23.219H5.27319V26.781H6.97538C7.2079 27.9586 7.67168 29.0783 8.33985 30.0755L7.1361 31.2793L9.65512 33.7983L10.8589 32.5945C11.856 33.2627 12.9758 33.7265 14.1534 33.959V35.6612H17.7153V33.959C18.8929 33.7265 20.0127 33.2627 21.0099 32.5945L22.213 33.7983L24.732 31.2793L23.5289 30.0755C24.1971 29.0783 24.6609 27.9586 24.8934 26.781H26.5949V23.219H24.8934ZM15.9344 28.5995C13.9467 28.5995 12.3349 26.9877 12.3349 25C12.3349 23.0123 13.9467 21.4005 15.9344 21.4005C17.9221 21.4005 19.5339 23.0123 19.5339 25C19.5339 26.9877 17.9221 28.5995 15.9344 28.5995Z" fill="#0095FF"/>
<path d="M21.0098 32.5945L22.2129 33.7976L24.7319 31.2786L23.5282 30.0755C24.1963 29.0782 24.6603 27.9585 24.8933 26.781H26.5949V23.219H24.8933C24.6602 22.0415 24.1962 20.9218 23.528 19.9245L24.7319 18.7207L22.2129 16.2017L21.0098 17.4055C20.0127 16.7373 18.8929 16.2735 17.7153 16.041V14.3388H15.9343V21.4005C17.922 21.4005 19.5338 23.0116 19.5338 25C19.5338 26.9877 17.922 28.5988 15.9343 28.5988V35.6605H17.7153V33.959C18.8929 33.7265 20.0127 33.2627 21.0098 32.5945Z" fill="#0050C3"/>
</svg>
