<svg width="50" height="47" viewBox="0 0 50 47" fill="none" xmlns="http://www.w3.org/2000/svg">
<path d="M48.1666 23.8889V43.585C48.1668 43.9399 48.097 44.2913 47.9612 44.6193C47.8255 44.9472 47.6264 45.2451 47.3755 45.4961C47.1245 45.747 46.8266 45.9461 46.4987 46.0818C46.1708 46.2176 45.8193 46.2874 45.4644 46.2872H4.53773C4.18283 46.2874 3.83138 46.2176 3.50346 46.0818C3.17555 45.9461 2.8776 45.747 2.62665 45.4961C2.37569 45.2451 2.17665 44.9472 2.04091 44.6193C1.90516 44.2913 1.83536 43.9399 1.83551 43.585V23.8889L22.4811 29.1167V32.0783C22.4819 32.4406 22.6263 32.7877 22.8826 33.0437C23.1388 33.2998 23.486 33.4439 23.8483 33.4444H26.0444C26.224 33.4447 26.4019 33.4094 26.5679 33.3408C26.7338 33.2722 26.8847 33.1715 27.0117 33.0445C27.1387 32.9175 27.2394 32.7667 27.308 32.6007C27.3766 32.4347 27.4118 32.2568 27.4116 32.0772V29.1472L48.1666 23.8889Z" fill="#1557C0"/>
<path d="M50 12.3833V23.4278L48.1667 23.8889L27.4111 29.1445V27.2444C27.4118 27.0645 27.377 26.8862 27.3087 26.7197C27.2403 26.5533 27.1398 26.402 27.0128 26.2745C26.8858 26.147 26.7349 26.0458 26.5687 25.9768C26.4026 25.9078 26.2244 25.8722 26.0444 25.8722H23.85C23.4869 25.8733 23.139 26.0183 22.8828 26.2756C22.6266 26.5329 22.4829 26.8813 22.4833 27.2444V29.1167L1.83333 23.8889L2.05442e-06 23.4278V12.3833C-0.000436646 12.0272 0.069389 11.6744 0.20548 11.3453C0.34157 11.0162 0.541252 10.7172 0.793089 10.4653C1.04493 10.2135 1.34397 10.0138 1.6731 9.87771C2.00222 9.74162 2.35496 9.67179 2.71111 9.67223H47.2889C47.645 9.67179 47.9978 9.74162 48.3269 9.87771C48.656 10.0138 48.9551 10.2135 49.2069 10.4653C49.4587 10.7172 49.6584 11.0162 49.7945 11.3453C49.9306 11.6744 50.0004 12.0272 50 12.3833Z" fill="#2382F7"/>
<path d="M31.4334 0H18.4611C17.106 0.00117689 15.8066 0.540046 14.8483 1.49831C13.8901 2.45657 13.3512 3.75592 13.35 5.11111V9.67222H17.2389V5.11111C17.2398 4.78723 17.3689 4.47686 17.5979 4.24784C17.8269 4.01882 18.1373 3.88977 18.4611 3.88889H31.4334C31.7573 3.88977 32.0676 4.01882 32.2966 4.24784C32.5257 4.47686 32.6547 4.78723 32.6556 5.11111V9.67222H36.5445V5.11111C36.5433 3.75592 36.0044 2.45657 35.0462 1.49831C34.0879 0.540046 32.7886 0.00117689 31.4334 0Z" fill="#4B9CF9"/>
</svg>
