<svg width="33" height="50" viewBox="0 0 33 50" fill="none" xmlns="http://www.w3.org/2000/svg">
<path d="M17.5785 0.00224609L14.7465 0V8.88936H17.5785V0.00224609ZM16.1136 20.6074C16.9213 20.6074 17.5785 19.9505 17.5785 19.1429C17.5785 18.3353 16.9213 17.678 16.1136 17.678C15.3056 17.678 14.6488 18.3353 14.6488 19.1429C14.6488 19.9505 15.3056 20.6074 16.1136 20.6074Z" fill="#2382F7"/>
<path d="M26.8562 5.96005H20.5082V10.3546C20.5082 11.1633 19.8524 11.8194 19.0434 11.8194H13.2816C12.4726 11.8194 11.8168 11.1633 11.8168 10.3546V5.96005H5.37109C2.40938 5.96005 0 8.36943 0 11.3308V44.6289C0 47.5906 2.40938 50 5.37109 50H26.8562C29.8176 50 32.2273 47.5906 32.2273 44.6289V11.3308C32.2273 8.36943 29.8176 5.96005 26.8562 5.96005ZM8.78906 28.0281C8.78906 25.431 10.167 22.9424 12.468 21.5942C10.5122 18.6954 12.5954 14.7483 16.1137 14.7483C19.6217 14.7483 21.7125 18.6783 19.7666 21.5823C21.9769 22.858 23.4379 25.2251 23.4379 27.9312V30.8605C23.4379 31.6696 22.7821 32.3258 21.973 32.3258H10.2543C9.44521 32.3258 8.78906 31.6695 8.78906 30.8605V28.0281ZM13.184 44.0434H7.32422C6.51553 44.0434 5.85938 43.3876 5.85938 42.5785C5.85938 41.7694 6.51553 41.1137 7.32422 41.1137H13.184C13.9927 41.1137 14.6488 41.7694 14.6488 42.5785C14.6488 43.3876 13.9927 44.0434 13.184 44.0434ZM24.9027 44.0434H19.0434C18.2343 44.0434 17.5785 43.3876 17.5785 42.5785C17.5785 41.7694 18.2343 41.1137 19.0434 41.1137H24.9027C25.7118 41.1137 26.3676 41.7694 26.3676 42.5785C26.3676 43.3876 25.7118 44.0434 24.9027 44.0434ZM24.9027 38.1844H7.32422C6.51553 38.1844 5.85938 37.5286 5.85938 36.7195C5.85938 35.9108 6.51553 35.2547 7.32422 35.2547H24.9027C25.7118 35.2547 26.3676 35.9108 26.3676 36.7195C26.3676 37.5286 25.7118 38.1844 24.9027 38.1844Z" fill="#2382F7"/>
<path d="M20.5082 27.9313C20.5082 25.5563 18.5771 23.5856 16.2037 23.5382C13.7275 23.4894 11.7191 25.5436 11.7191 28.0282V29.3958H20.5082V27.9313Z" fill="#2382F7"/>
</svg>
