<svg width="48" height="48" viewBox="0 0 48 48" fill="none" xmlns="http://www.w3.org/2000/svg">
<path d="M47.0557 31.4338V44.739C47.0565 45.3532 46.8134 45.9426 46.3797 46.3776C45.9461 46.8126 45.3575 47.0577 44.7432 47.0588H8.96971C4.01383 47.0588 0.0057373 43.0338 0.0057373 38.0941V38.086C0.0057373 33.1375 4.01456 29.1132 8.97044 29.1132H44.744C45.3582 29.1144 45.9468 29.3594 46.3805 29.7944C46.8141 30.2295 47.0573 30.8189 47.0565 31.4331L47.0557 31.4338Z" fill="#E5E8EF"/>
<path d="M32.8587 29.1132L16.4278 45.5434C15.8514 46.1202 15.2104 46.6287 14.5175 47.0588H8.96971C4.01383 47.0588 0.0057373 43.0338 0.0057373 38.0941V38.086C0.0057373 33.1375 4.01456 29.1132 8.97044 29.1132H32.8587Z" fill="#CDD4DF"/>
<path d="M33.9918 43.9007H42.3241C42.7427 43.9007 43.1441 43.7345 43.4401 43.4386C43.7362 43.1427 43.9026 42.7414 43.9028 42.3228V33.8507C43.9028 33.4322 43.7366 33.0307 43.4407 32.7347C43.1448 32.4387 42.7434 32.2723 42.3248 32.2721H33.9925C33.5738 32.2721 33.1723 32.4384 32.8762 32.7344C32.5801 33.0305 32.4138 33.432 32.4138 33.8507V42.3228C32.4138 43.1941 33.1197 43.9007 33.9918 43.9007Z" fill="#0470DC"/>
<path d="M29.7888 33.8478V42.3235C29.7888 43.1919 29.0858 43.9022 28.2101 43.9022H19.8843C19.6487 43.9021 19.4161 43.8497 19.2032 43.7488C18.9904 43.6478 18.8026 43.5008 18.6535 43.3184C18.4286 43.0355 18.306 42.6849 18.3057 42.3235V33.8478C18.3057 32.9801 19.0086 32.2699 19.8843 32.2699H28.2101C28.6204 32.2699 28.999 32.4272 29.2836 32.6875C29.591 32.9801 29.7888 33.3904 29.7888 33.8478Z" fill="#024FA1"/>
<path d="M29.2836 32.6875L18.6527 43.3184C18.4279 43.0355 18.3053 42.6849 18.3049 42.3235V33.8478C18.3049 32.9801 19.0079 32.2699 19.8836 32.2699H28.2093C28.6196 32.2699 28.999 32.4272 29.2836 32.6875Z" fill="#024FA1"/>
<path d="M7.58294 40.1581C7.03388 40.1579 6.50724 39.9403 6.11824 39.5528C5.72923 39.1653 5.50954 38.6395 5.5072 38.0904C5.5072 36.9463 6.43808 36.0147 7.58294 36.0147C8.72779 36.0147 9.65794 36.9463 9.65794 38.0904C9.6556 38.6394 9.43601 39.165 9.04716 39.5525C8.65832 39.94 8.13187 40.1577 7.58294 40.1581Z" fill="#33527D"/>
<path d="M40.6086 19.1375L15.3145 44.4309C11.8108 47.9346 6.12849 47.9272 2.63291 44.4309L2.62555 44.4235C-0.871507 40.9272 -0.878859 35.2448 2.62555 31.7485L27.9263 6.44705C28.3616 6.01465 28.9502 5.77197 29.5638 5.77197C30.1773 5.77197 30.766 6.01465 31.2013 6.44705L40.6079 15.8625C40.8236 16.0772 40.9948 16.3323 41.1115 16.6133C41.2283 16.8944 41.2885 17.1957 41.2885 17.5C41.2885 17.8043 41.2283 18.1056 41.1115 18.3866C40.9948 18.6677 40.8243 18.9228 40.6086 19.1375Z" fill="#E5E8EF"/>
<path d="M19.5211 14.8529V38.0941C19.5211 38.9221 19.4263 39.7353 19.2373 40.5088L15.3153 44.4309C11.8108 47.9346 6.12849 47.9272 2.63291 44.4309L2.62555 44.4235C-0.871507 40.9272 -0.878859 35.2448 2.62555 31.7485L19.5211 14.8529Z" fill="#CDD4DF"/>
<path d="M30.7777 24.5066L36.6689 18.6147C36.9649 18.3187 37.1312 17.9172 37.1312 17.4985C37.1312 17.0799 36.9649 16.6784 36.6689 16.3824L30.6784 10.3919C30.3824 10.0959 29.9809 9.92964 29.5623 9.92964C29.1436 9.92964 28.7421 10.0959 28.4461 10.3919L22.5542 16.2831C22.2582 16.5791 22.0919 16.9806 22.0919 17.3993C22.0919 17.8179 22.2582 18.2194 22.5542 18.5154L28.5446 24.5066C28.8407 24.8026 29.2422 24.9689 29.6608 24.9689C30.0794 24.9689 30.4817 24.8026 30.7777 24.5066Z" fill="#63A9FF"/>
<path d="M26.6873 28.5919L20.7998 34.4868C20.6338 34.6524 20.4327 34.7788 20.2115 34.8567C19.9902 34.9345 19.7543 34.9619 19.5211 34.9368C19.1598 34.9037 18.8216 34.7443 18.566 34.4868L12.5763 28.4971C12.2808 28.2006 12.1149 27.7991 12.1149 27.3805C12.1149 26.9619 12.2808 26.5604 12.5763 26.264L18.4719 20.3691C18.7503 20.0891 19.1264 19.9278 19.5211 19.9191C19.9476 19.8956 20.3741 20.0449 20.6976 20.3691L26.6873 26.3588C27.3101 26.9743 27.3101 27.9765 26.6873 28.5919Z" fill="#2382F7"/>
<path d="M19.5211 19.9191V34.9368C19.1598 34.9037 18.8216 34.7443 18.566 34.4868L12.5763 28.4971C12.2808 28.2006 12.1149 27.7991 12.1149 27.3805C12.1149 26.9619 12.2808 26.5604 12.5763 26.264L18.4719 20.3691C18.7503 20.0891 19.1264 19.9278 19.5211 19.9191Z" fill="#2382F7"/>
<path d="M9.45571 40.5338C9.06737 40.9218 8.54118 41.1403 7.99221 41.1414C7.44325 41.1425 6.91619 40.9261 6.5263 40.5397C5.71747 39.7309 5.71747 38.414 6.5263 37.6044C7.33512 36.7948 8.65203 36.7956 9.46159 37.6044C9.84804 37.9943 10.0644 38.5214 10.0633 39.0703C10.0622 39.6193 9.84372 40.1455 9.45571 40.5338Z" fill="#33527D"/>
<path d="M17.9455 2.31765V38.0904C17.9455 43.0456 13.9241 47.0574 8.97781 47.0574H8.96972C4.0234 47.0574 0.00280762 43.0456 0.00280762 38.0904V2.31765C0.00280759 1.7031 0.246887 1.11371 0.681371 0.679083C1.11585 0.244461 1.70517 0.000194972 2.31972 0H15.6278C16.9072 0 17.9455 1.03676 17.9455 2.31765Z" fill="#E5E8EF"/>
<path d="M14.7881 13.0676V4.73529C14.7881 4.31673 14.6219 3.9153 14.326 3.61926C14.0301 3.32322 13.6287 3.15681 13.2102 3.15662H4.7381C4.31941 3.15662 3.91787 3.32294 3.62181 3.619C3.32575 3.91506 3.15942 4.3166 3.15942 4.73529V13.0676C3.15942 13.939 3.86604 14.6463 4.7381 14.6463H13.2102C13.6287 14.6461 14.0301 14.4797 14.326 14.1837C14.6219 13.8876 14.7881 13.4862 14.7881 13.0676Z" fill="#5CBEFF"/>
<path d="M14.7881 27.1794V18.8471C14.7881 18.4285 14.6219 18.0271 14.326 17.731C14.0301 17.435 13.6287 17.2686 13.2102 17.2684H4.7381C4.31941 17.2684 3.91787 17.4347 3.62181 17.7308C3.32575 18.0268 3.15942 18.4284 3.15942 18.8471V27.1794C3.15942 28.0507 3.86604 28.7581 4.7381 28.7581H13.2102C13.6287 28.7579 14.0301 28.5915 14.326 28.2954C14.6219 27.9994 14.7881 27.598 14.7881 27.1794Z" fill="#079CFF"/>
<path d="M11.8513 39.4779C11.8513 41.0669 10.5572 42.3603 8.97928 42.3603C8.21513 42.3593 7.48256 42.0553 6.94222 41.515C6.40188 40.9747 6.0979 40.2421 6.09692 39.4779C6.0977 38.7137 6.4016 37.9809 6.94196 37.4404C7.48232 36.8999 8.215 36.5958 8.97928 36.5948C10.558 36.5948 11.8513 37.889 11.8513 39.4779Z" fill="#33527D"/>
<path d="M10.0638 39.4779C10.0638 40.0794 9.57337 40.5691 8.97558 40.5691C8.3741 40.5691 7.8844 40.0794 7.8844 39.4772C7.8844 38.875 8.3741 38.386 8.97558 38.386C9.57337 38.386 10.0638 38.8765 10.0638 39.4779Z" fill="white"/>
</svg>
