<svg width="50" height="42" viewBox="0 0 50 42" fill="none" xmlns="http://www.w3.org/2000/svg">
<path d="M2.49101 41.3009H47.5089C48.8827 41.3009 50 40.1836 50 38.8099V2.49101C50 1.11767 48.8827 0 47.5089 0H2.49101C1.11719 0 0 1.11767 0 2.49101V38.8103C0 40.1836 1.11728 41.3009 2.49101 41.3009Z" fill="#006DFF"/>
<path d="M0 10.6503V38.8103C0 40.1836 1.11728 41.3013 2.49101 41.3013H47.5089C48.8827 41.3013 50 40.1836 50 38.8103V10.6502L0 10.6503Z" fill="#D2ECFF"/>
<path d="M44.6075 6.82031H30.3086C29.4831 6.82031 28.8137 6.15077 28.8137 5.32528C28.8137 4.49941 29.4831 3.82997 30.3086 3.82997H44.6076C45.4335 3.82997 46.103 4.49941 46.103 5.32528C46.103 6.15077 45.4335 6.82031 44.6076 6.82031H44.6075Z" fill="#00DE7B"/>
<path d="M14.0683 5.32529C14.0683 6.4793 13.1325 7.41465 11.9785 7.41465C10.8245 7.41465 9.88885 6.4793 9.88885 5.32529C9.88885 4.17099 10.8246 3.23564 11.9785 3.23564C13.1324 3.23564 14.0684 4.1709 14.0684 5.32519L14.0683 5.32529Z" fill="#FFF474"/>
<path d="M8.00176 5.3253C8.00176 6.4793 7.06592 7.41466 5.91201 7.41466C4.75811 7.41466 3.82275 6.4793 3.82275 5.3252C3.82275 4.1709 4.75811 3.23555 5.91201 3.23555C7.06592 3.23555 8.00166 4.1709 8.00166 5.3252L8.00176 5.3253Z" fill="#FF2C49"/>
<path d="M32.7663 32.2567C32.354 32.2567 31.943 32.0869 31.6474 31.7539C31.0996 31.1363 31.1557 30.1914 31.7734 29.6432L35.9058 25.9758L31.7733 22.308C31.1557 21.7601 31.0997 20.8148 31.6478 20.1972C32.1957 19.5797 33.141 19.5232 33.7586 20.0718L39.151 24.8573C39.3091 24.9976 39.4356 25.1698 39.5223 25.3626C39.6089 25.5554 39.6538 25.7644 39.6538 25.9758C39.6538 26.403 39.4707 26.81 39.151 27.0939L33.7585 31.8798C33.4852 32.1228 33.1321 32.257 32.7663 32.2567Z" fill="#0050C2"/>
<path d="M17.2337 32.2567C16.8679 32.257 16.5148 32.1228 16.2415 31.8798L10.8494 27.0938C10.6912 26.9536 10.5646 26.7814 10.478 26.5886C10.3913 26.3958 10.3465 26.1868 10.3466 25.9754C10.3466 25.5481 10.5297 25.1411 10.8494 24.8573L16.2418 20.0714C16.8595 19.5232 17.8043 19.5797 18.3525 20.1973C18.9007 20.8149 18.8442 21.7599 18.2265 22.308L14.0941 25.9754L18.2266 29.6433C18.8442 30.1914 18.9007 31.1363 18.3525 31.7539C18.2123 31.9122 18.04 32.0388 17.8471 32.1255C17.6542 32.2122 17.4451 32.2569 17.2337 32.2567Z" fill="#006DFF"/>
<path d="M22.4033 32.2567C22.1497 32.2567 21.8929 32.1923 21.6572 32.0564C20.9423 31.6436 20.6969 30.7289 21.1101 30.014L26.3 21.0243C26.7128 20.3091 27.6275 20.0637 28.3424 20.4769C29.0577 20.8896 29.3026 21.8044 28.8898 22.5193L23.6996 31.509C23.423 31.9885 22.9203 32.2567 22.4033 32.2567Z" fill="#0050C2"/>
<path d="M21.1102 30.0137C20.6971 30.7289 20.9423 31.6433 21.6572 32.056C21.8839 32.1875 22.1413 32.2568 22.4033 32.2567C22.9202 32.2567 23.423 31.9886 23.7 31.509L25 29.2568V23.2762L21.1102 30.0137Z" fill="#006DFF"/>
</svg>
