<svg width="409" height="323" viewBox="0 0 409 323" fill="none" xmlns="http://www.w3.org/2000/svg">
<g clip-path="url(#clip0_146_275)">
<path d="M459 287.381H-41V287.631H459V287.381Z" fill="#EBEBEB"/>
<path d="M408.899 303.48H375.779V303.73H408.899V303.48Z" fill="#EBEBEB"/>
<path d="M290.219 306.191H281.529V306.441H290.219V306.191Z" fill="#EBEBEB"/>
<path d="M374.78 294.191H355.59V294.441H374.78V294.191Z" fill="#EBEBEB"/>
<path d="M54.6509 295.871H11.4609V296.121H54.6509V295.871Z" fill="#EBEBEB"/>
<path d="M69.8905 295.871H63.5605V296.121H69.8905V295.871Z" fill="#EBEBEB"/>
<path d="M184.151 300.092H90.4707V300.342H184.151V300.092Z" fill="#EBEBEB"/>
<path d="M343.09 99.8093C343.09 96.9093 345.44 94.5493 348.35 94.5493C348.88 94.5493 349.38 94.6293 349.86 94.7693C349.78 94.2393 349.74 93.6993 349.74 93.1593C349.74 87.0093 354.73 82.0193 360.88 82.0193C361.58 82.0193 362.27 82.0893 362.93 82.2093C364.64 79.4093 367.72 77.5293 371.24 77.5293C376.57 77.5293 380.9 81.8093 380.98 87.1293C381.03 87.1293 381.09 87.1293 381.14 87.1293C386.09 87.1293 390.11 91.1493 390.11 96.0993C390.11 101.049 386.09 105.069 381.14 105.069H348.2C345.36 104.989 343.09 102.669 343.09 99.8193V99.8093Z" fill="#F0F0F0"/>
<path d="M325.72 7.97C322.72 3.19 317.42 0 311.37 0C305.32 0 299.84 3.3 296.87 8.21C296.09 7.99 295.27 7.87 294.42 7.87C289.41 7.87 285.34 11.93 285.34 16.95C285.34 16.95 285.34 16.95 285.34 16.96H280.55C278.06 16.96 276.02 19 276.02 21.49C276.02 23.98 278.06 26.02 280.55 26.02H297.07C300.08 30.74 305.35 33.89 311.36 33.89C316.1 33.89 320.39 31.94 323.46 28.8C323.75 28.82 324.03 28.84 324.32 28.84C330.11 28.84 334.81 24.15 334.81 18.35C334.81 13.03 330.85 8.65 325.71 7.97H325.72Z" fill="#F0F0F0"/>
<path d="M224.819 72.0794C221.819 67.2994 216.519 64.1094 210.469 64.1094C204.419 64.1094 198.939 67.4094 195.969 72.3194C195.189 72.0994 194.369 71.9794 193.519 71.9794C188.509 71.9794 184.439 76.0394 184.439 81.0594C184.439 81.0594 184.439 81.0594 184.439 81.0694H179.649C177.159 81.0694 175.119 83.1094 175.119 85.5994C175.119 88.0894 177.159 90.1294 179.649 90.1294H196.169C199.179 94.8494 204.449 97.9994 210.459 97.9994C215.199 97.9994 219.489 96.0494 222.559 92.9094C222.849 92.9294 223.129 92.9494 223.419 92.9494C229.209 92.9494 233.909 88.2594 233.909 82.4594C233.909 77.1394 229.949 72.7594 224.809 72.0794H224.819Z" fill="#F0F0F0"/>
<path d="M15.4395 287.231V239.431H19.5195V216.661H25.4995V137.481H34.1395V127.261L52.5695 118.661V108.361H55.1295V137.481H58.6995V216.661H62.2795V175.031H71.9895V153.571H74.6895V216.661H82.0695V192.651H86.9194V186.521H98.1595V165.581H104.309V150.761H111.879V129.181H114.579V150.761H122.139V165.581H128.299V186.521H139.539V192.651H144.389V216.661H150.149V186.521H161.389V121.641H164.959V114.491H188.969V121.641H194.079V168.641H214.509V173.241H222.179V176.821H214.509V195.211H235.969V133.901H240.569V120.881H250.529V74.6406H253.339V120.881H260.489V133.901H302.419V129.621H304.969V158.731H308.549V159.251H310.699V188.361H314.269V196.281H321.829V174.831H324.539V225.911H327.549V204.461H330.259V237.921H331.909V213.911H336.759V207.781H347.999V186.831H354.159V172.021H361.719V150.431H364.419V172.021H371.989V186.831H378.139V207.781H389.379V213.911H394.239V237.411H395.109V237.921H397.509V287.231H15.4395Z" fill="#E6E6E6"/>
<path d="M279.019 136.77H276.129V139.66H279.019V136.77Z" fill="#F0F0F0"/>
<path d="M279.019 141.619H276.129V144.509H279.019V141.619Z" fill="#F0F0F0"/>
<path d="M279.019 161.029H276.129V163.919H279.019V161.029Z" fill="#F0F0F0"/>
<path d="M279.019 165.891H276.129V168.781H279.019V165.891Z" fill="#F0F0F0"/>
<path d="M279.019 170.74H276.129V173.64H279.019V170.74Z" fill="#F0F0F0"/>
<path d="M279.019 185.301H276.129V188.191H279.019V185.301Z" fill="#F0F0F0"/>
<path d="M279.019 190.15H276.129V193.05H279.019V190.15Z" fill="#F0F0F0"/>
<path d="M274.419 156.18H271.529V159.08H274.419V156.18Z" fill="#F0F0F0"/>
<path d="M274.419 161.029H271.529V163.919H274.419V161.029Z" fill="#F0F0F0"/>
<path d="M274.419 165.891H271.529V168.781H274.419V165.891Z" fill="#F0F0F0"/>
<path d="M274.419 170.74H271.529V173.64H274.419V170.74Z" fill="#F0F0F0"/>
<path d="M274.419 175.59H271.529V178.49H274.419V175.59Z" fill="#F0F0F0"/>
<path d="M274.419 185.301H271.529V188.191H274.419V185.301Z" fill="#F0F0F0"/>
<path d="M274.419 190.15H271.529V193.05H274.419V190.15Z" fill="#F0F0F0"/>
<path d="M269.82 136.77H266.93V139.66H269.82V136.77Z" fill="#F0F0F0"/>
<path d="M269.82 141.619H266.93V144.509H269.82V141.619Z" fill="#F0F0F0"/>
<path d="M269.82 146.471H266.93V149.371H269.82V146.471Z" fill="#F0F0F0"/>
<path d="M269.82 151.33H266.93V154.23H269.82V151.33Z" fill="#F0F0F0"/>
<path d="M269.82 156.18H266.93V159.08H269.82V156.18Z" fill="#F0F0F0"/>
<path d="M269.82 161.029H266.93V163.919H269.82V161.029Z" fill="#F0F0F0"/>
<path d="M269.82 165.891H266.93V168.781H269.82V165.891Z" fill="#F0F0F0"/>
<path d="M269.82 170.74H266.93V173.64H269.82V170.74Z" fill="#F0F0F0"/>
<path d="M269.82 175.59H266.93V178.49H269.82V175.59Z" fill="#F0F0F0"/>
<path d="M269.82 180.449H266.93V183.349H269.82V180.449Z" fill="#F0F0F0"/>
<path d="M269.82 190.15H266.93V193.05H269.82V190.15Z" fill="#F0F0F0"/>
<path d="M265.23 136.77H262.34V139.66H265.23V136.77Z" fill="#F0F0F0"/>
<path d="M265.23 141.619H262.34V144.509H265.23V141.619Z" fill="#F0F0F0"/>
<path d="M265.23 146.471H262.34V149.371H265.23V146.471Z" fill="#F0F0F0"/>
<path d="M265.23 151.33H262.34V154.23H265.23V151.33Z" fill="#F0F0F0"/>
<path d="M265.23 156.18H262.34V159.08H265.23V156.18Z" fill="#F0F0F0"/>
<path d="M265.23 161.029H262.34V163.919H265.23V161.029Z" fill="#F0F0F0"/>
<path d="M265.23 165.891H262.34V168.781H265.23V165.891Z" fill="#F0F0F0"/>
<path d="M265.23 209.561H262.34V212.451H265.23V209.561Z" fill="#F0F0F0"/>
<path d="M260.628 136.77H257.738V139.66H260.628V136.77Z" fill="#F0F0F0"/>
<path d="M260.628 141.619H257.738V144.509H260.628V141.619Z" fill="#F0F0F0"/>
<path d="M260.628 146.471H257.738V149.371H260.628V146.471Z" fill="#F0F0F0"/>
<path d="M260.628 151.33H257.738V154.23H260.628V151.33Z" fill="#F0F0F0"/>
<path d="M260.628 156.18H257.738V159.08H260.628V156.18Z" fill="#F0F0F0"/>
<path d="M260.628 161.029H257.738V163.919H260.628V161.029Z" fill="#F0F0F0"/>
<path d="M260.628 165.891H257.738V168.781H260.628V165.891Z" fill="#F0F0F0"/>
<path d="M260.628 170.74H257.738V173.64H260.628V170.74Z" fill="#F0F0F0"/>
<path d="M260.628 199.859H257.738V202.749H260.628V199.859Z" fill="#F0F0F0"/>
<path d="M260.628 204.709H257.738V207.599H260.628V204.709Z" fill="#F0F0F0"/>
<path d="M260.628 209.561H257.738V212.451H260.628V209.561Z" fill="#F0F0F0"/>
<path d="M260.628 214.42H257.738V217.32H260.628V214.42Z" fill="#F0F0F0"/>
<path d="M260.628 233.83H257.738V236.72H260.628V233.83Z" fill="#F0F0F0"/>
<path d="M256.029 136.77H253.139V139.66H256.029V136.77Z" fill="#F0F0F0"/>
<path d="M256.029 141.619H253.139V144.509H256.029V141.619Z" fill="#F0F0F0"/>
<path d="M256.029 146.471H253.139V149.371H256.029V146.471Z" fill="#F0F0F0"/>
<path d="M256.029 151.33H253.139V154.23H256.029V151.33Z" fill="#F0F0F0"/>
<path d="M256.029 156.18H253.139V159.08H256.029V156.18Z" fill="#F0F0F0"/>
<path d="M256.029 161.029H253.139V163.919H256.029V161.029Z" fill="#F0F0F0"/>
<path d="M256.029 165.891H253.139V168.781H256.029V165.891Z" fill="#F0F0F0"/>
<path d="M256.029 170.74H253.139V173.64H256.029V170.74Z" fill="#F0F0F0"/>
<path d="M256.029 175.59H253.139V178.49H256.029V175.59Z" fill="#F0F0F0"/>
<path d="M256.029 180.449H253.139V183.349H256.029V180.449Z" fill="#F0F0F0"/>
<path d="M256.029 195.01H253.139V197.9H256.029V195.01Z" fill="#F0F0F0"/>
<path d="M256.029 199.859H253.139V202.749H256.029V199.859Z" fill="#F0F0F0"/>
<path d="M256.029 204.709H253.139V207.599H256.029V204.709Z" fill="#F0F0F0"/>
<path d="M256.029 209.561H253.139V212.451H256.029V209.561Z" fill="#F0F0F0"/>
<path d="M256.029 214.42H253.139V217.32H256.029V214.42Z" fill="#F0F0F0"/>
<path d="M256.029 233.83H253.139V236.72H256.029V233.83Z" fill="#F0F0F0"/>
<path d="M251.429 136.77H248.539V139.66H251.429V136.77Z" fill="#F0F0F0"/>
<path d="M251.429 141.619H248.539V144.509H251.429V141.619Z" fill="#F0F0F0"/>
<path d="M251.429 146.471H248.539V149.371H251.429V146.471Z" fill="#F0F0F0"/>
<path d="M251.429 151.33H248.539V154.23H251.429V151.33Z" fill="#F0F0F0"/>
<path d="M251.429 156.18H248.539V159.08H251.429V156.18Z" fill="#F0F0F0"/>
<path d="M251.429 161.029H248.539V163.919H251.429V161.029Z" fill="#F0F0F0"/>
<path d="M251.429 165.891H248.539V168.781H251.429V165.891Z" fill="#F0F0F0"/>
<path d="M251.429 170.74H248.539V173.64H251.429V170.74Z" fill="#F0F0F0"/>
<path d="M251.429 175.59H248.539V178.49H251.429V175.59Z" fill="#F0F0F0"/>
<path d="M251.429 180.449H248.539V183.349H251.429V180.449Z" fill="#F0F0F0"/>
<path d="M251.429 185.301H248.539V188.191H251.429V185.301Z" fill="#F0F0F0"/>
<path d="M251.429 190.15H248.539V193.05H251.429V190.15Z" fill="#F0F0F0"/>
<path d="M251.429 195.01H248.539V197.9H251.429V195.01Z" fill="#F0F0F0"/>
<path d="M251.429 199.859H248.539V202.749H251.429V199.859Z" fill="#F0F0F0"/>
<path d="M251.429 204.709H248.539V207.599H251.429V204.709Z" fill="#F0F0F0"/>
<path d="M251.429 209.561H248.539V212.451H251.429V209.561Z" fill="#F0F0F0"/>
<path d="M251.429 214.42H248.539V217.32H251.429V214.42Z" fill="#F0F0F0"/>
<path d="M251.429 219.27H248.539V222.16H251.429V219.27Z" fill="#F0F0F0"/>
<path d="M246.839 136.77H243.949V139.66H246.839V136.77Z" fill="#F0F0F0"/>
<path d="M246.839 141.619H243.949V144.509H246.839V141.619Z" fill="#F0F0F0"/>
<path d="M246.839 146.471H243.949V149.371H246.839V146.471Z" fill="#F0F0F0"/>
<path d="M246.839 151.33H243.949V154.23H246.839V151.33Z" fill="#F0F0F0"/>
<path d="M246.839 156.18H243.949V159.08H246.839V156.18Z" fill="#F0F0F0"/>
<path d="M246.839 161.029H243.949V163.919H246.839V161.029Z" fill="#F0F0F0"/>
<path d="M246.839 165.891H243.949V168.781H246.839V165.891Z" fill="#F0F0F0"/>
<path d="M246.839 170.74H243.949V173.64H246.839V170.74Z" fill="#F0F0F0"/>
<path d="M246.839 175.59H243.949V178.49H246.839V175.59Z" fill="#F0F0F0"/>
<path d="M246.839 180.449H243.949V183.349H246.839V180.449Z" fill="#F0F0F0"/>
<path d="M246.839 195.01H243.949V197.9H246.839V195.01Z" fill="#F0F0F0"/>
<path d="M246.839 199.859H243.949V202.749H246.839V199.859Z" fill="#F0F0F0"/>
<path d="M246.839 204.709H243.949V207.599H246.839V204.709Z" fill="#F0F0F0"/>
<path d="M246.839 209.561H243.949V212.451H246.839V209.561Z" fill="#F0F0F0"/>
<path d="M242.24 136.77H239.35V139.66H242.24V136.77Z" fill="#F0F0F0"/>
<path d="M242.24 141.619H239.35V144.509H242.24V141.619Z" fill="#F0F0F0"/>
<path d="M242.24 146.471H239.35V149.371H242.24V146.471Z" fill="#F0F0F0"/>
<path d="M242.24 151.33H239.35V154.23H242.24V151.33Z" fill="#F0F0F0"/>
<path d="M242.24 156.18H239.35V159.08H242.24V156.18Z" fill="#F0F0F0"/>
<path d="M242.24 161.029H239.35V163.919H242.24V161.029Z" fill="#F0F0F0"/>
<path d="M242.24 165.891H239.35V168.781H242.24V165.891Z" fill="#F0F0F0"/>
<path d="M242.24 170.74H239.35V173.64H242.24V170.74Z" fill="#F0F0F0"/>
<path d="M242.24 175.59H239.35V178.49H242.24V175.59Z" fill="#F0F0F0"/>
<path d="M242.24 180.449H239.35V183.349H242.24V180.449Z" fill="#F0F0F0"/>
<path d="M242.24 195.01H239.35V197.9H242.24V195.01Z" fill="#F0F0F0"/>
<path d="M242.24 199.859H239.35V202.749H242.24V199.859Z" fill="#F0F0F0"/>
<path d="M242.24 204.709H239.35V207.599H242.24V204.709Z" fill="#F0F0F0"/>
<path d="M190.468 124.17H187.578V127.06H190.468V124.17Z" fill="#F0F0F0"/>
<path d="M190.468 129.02H187.578V131.91H190.468V129.02Z" fill="#F0F0F0"/>
<path d="M190.468 133.869H187.578V136.759H190.468V133.869Z" fill="#F0F0F0"/>
<path d="M190.468 138.73H187.578V141.62H190.468V138.73Z" fill="#F0F0F0"/>
<path d="M190.468 143.58H187.578V146.47H190.468V143.58Z" fill="#F0F0F0"/>
<path d="M190.468 148.43H187.578V151.32H190.468V148.43Z" fill="#F0F0F0"/>
<path d="M190.468 153.289H187.578V156.179H190.468V153.289Z" fill="#F0F0F0"/>
<path d="M190.468 158.141H187.578V161.031H190.468V158.141Z" fill="#F0F0F0"/>
<path d="M190.468 172.699H187.578V175.589H190.468V172.699Z" fill="#F0F0F0"/>
<path d="M190.468 177.551H187.578V180.441H190.468V177.551Z" fill="#F0F0F0"/>
<path d="M185.879 124.17H182.979V127.06H185.879V124.17Z" fill="#F0F0F0"/>
<path d="M185.879 129.02H182.979V131.91H185.879V129.02Z" fill="#F0F0F0"/>
<path d="M185.879 133.869H182.979V136.759H185.879V133.869Z" fill="#F0F0F0"/>
<path d="M185.879 138.73H182.979V141.62H185.879V138.73Z" fill="#F0F0F0"/>
<path d="M185.879 143.58H182.979V146.47H185.879V143.58Z" fill="#F0F0F0"/>
<path d="M185.879 148.43H182.979V151.32H185.879V148.43Z" fill="#F0F0F0"/>
<path d="M185.879 153.289H182.979V156.179H185.879V153.289Z" fill="#F0F0F0"/>
<path d="M185.879 158.141H182.979V161.031H185.879V158.141Z" fill="#F0F0F0"/>
<path d="M185.879 177.551H182.979V180.441H185.879V177.551Z" fill="#F0F0F0"/>
<path d="M181.289 124.17H178.389V127.06H181.289V124.17Z" fill="#F0F0F0"/>
<path d="M181.289 129.02H178.389V131.91H181.289V129.02Z" fill="#F0F0F0"/>
<path d="M181.289 133.869H178.389V136.759H181.289V133.869Z" fill="#F0F0F0"/>
<path d="M181.289 138.73H178.389V141.62H181.289V138.73Z" fill="#F0F0F0"/>
<path d="M181.289 143.58H178.389V146.47H181.289V143.58Z" fill="#F0F0F0"/>
<path d="M181.289 148.43H178.389V151.32H181.289V148.43Z" fill="#F0F0F0"/>
<path d="M181.289 153.289H178.389V156.179H181.289V153.289Z" fill="#F0F0F0"/>
<path d="M181.289 158.141H178.389V161.031H181.289V158.141Z" fill="#F0F0F0"/>
<path d="M176.679 124.17H173.789V127.06H176.679V124.17Z" fill="#F0F0F0"/>
<path d="M176.679 129.02H173.789V131.91H176.679V129.02Z" fill="#F0F0F0"/>
<path d="M176.679 133.869H173.789V136.759H176.679V133.869Z" fill="#F0F0F0"/>
<path d="M176.679 138.73H173.789V141.62H176.679V138.73Z" fill="#F0F0F0"/>
<path d="M176.679 143.58H173.789V146.47H176.679V143.58Z" fill="#F0F0F0"/>
<path d="M176.679 148.43H173.789V151.32H176.679V148.43Z" fill="#F0F0F0"/>
<path d="M176.679 158.141H173.789V161.031H176.679V158.141Z" fill="#F0F0F0"/>
<path d="M176.679 162.99H173.789V165.89H176.679V162.99Z" fill="#F0F0F0"/>
<path d="M176.679 177.551H173.789V180.441H176.679V177.551Z" fill="#F0F0F0"/>
<path d="M176.679 182.4H173.789V185.29H176.679V182.4Z" fill="#F0F0F0"/>
<path d="M176.679 187.26H173.789V190.15H176.679V187.26Z" fill="#F0F0F0"/>
<path d="M176.679 192.109H173.789V194.999H176.679V192.109Z" fill="#F0F0F0"/>
<path d="M176.679 196.959H173.789V199.849H176.679V196.959Z" fill="#F0F0F0"/>
<path d="M176.679 201.82H173.789V204.71H176.679V201.82Z" fill="#F0F0F0"/>
<path d="M176.679 206.67H173.789V209.57H176.679V206.67Z" fill="#F0F0F0"/>
<path d="M172.079 124.17H169.189V127.06H172.079V124.17Z" fill="#F0F0F0"/>
<path d="M172.079 129.02H169.189V131.91H172.079V129.02Z" fill="#F0F0F0"/>
<path d="M172.079 133.869H169.189V136.759H172.079V133.869Z" fill="#F0F0F0"/>
<path d="M172.079 138.73H169.189V141.62H172.079V138.73Z" fill="#F0F0F0"/>
<path d="M172.079 143.58H169.189V146.47H172.079V143.58Z" fill="#F0F0F0"/>
<path d="M172.079 148.43H169.189V151.32H172.079V148.43Z" fill="#F0F0F0"/>
<path d="M172.079 162.99H169.189V165.89H172.079V162.99Z" fill="#F0F0F0"/>
<path d="M172.079 167.84H169.189V170.73H172.079V167.84Z" fill="#F0F0F0"/>
<path d="M172.079 172.699H169.189V175.589H172.079V172.699Z" fill="#F0F0F0"/>
<path d="M172.079 177.551H169.189V180.441H172.079V177.551Z" fill="#F0F0F0"/>
<path d="M172.079 182.4H169.189V185.29H172.079V182.4Z" fill="#F0F0F0"/>
<path d="M172.079 187.26H169.189V190.15H172.079V187.26Z" fill="#F0F0F0"/>
<path d="M172.079 192.109H169.189V194.999H172.079V192.109Z" fill="#F0F0F0"/>
<path d="M172.079 196.959H169.189V199.849H172.079V196.959Z" fill="#F0F0F0"/>
<path d="M172.079 201.82H169.189V204.71H172.079V201.82Z" fill="#F0F0F0"/>
<path d="M172.079 206.67H169.189V209.57H172.079V206.67Z" fill="#F0F0F0"/>
<path d="M172.079 211.52H169.189V214.41H172.079V211.52Z" fill="#F0F0F0"/>
<path d="M172.079 221.23H169.189V224.12H172.079V221.23Z" fill="#F0F0F0"/>
<path d="M167.49 124.17H164.59V127.06H167.49V124.17Z" fill="#F0F0F0"/>
<path d="M167.49 129.02H164.59V131.91H167.49V129.02Z" fill="#F0F0F0"/>
<path d="M167.49 133.869H164.59V136.759H167.49V133.869Z" fill="#F0F0F0"/>
<path d="M167.49 138.73H164.59V141.62H167.49V138.73Z" fill="#F0F0F0"/>
<path d="M167.49 143.58H164.59V146.47H167.49V143.58Z" fill="#F0F0F0"/>
<path d="M167.49 148.43H164.59V151.32H167.49V148.43Z" fill="#F0F0F0"/>
<path d="M167.49 162.99H164.59V165.89H167.49V162.99Z" fill="#F0F0F0"/>
<path d="M167.49 167.84H164.59V170.73H167.49V167.84Z" fill="#F0F0F0"/>
<path d="M167.49 172.699H164.59V175.589H167.49V172.699Z" fill="#F0F0F0"/>
<path d="M167.49 177.551H164.59V180.441H167.49V177.551Z" fill="#F0F0F0"/>
<path d="M167.49 192.109H164.59V194.999H167.49V192.109Z" fill="#F0F0F0"/>
<path d="M167.49 196.959H164.59V199.849H167.49V196.959Z" fill="#F0F0F0"/>
<path d="M167.49 201.82H164.59V204.71H167.49V201.82Z" fill="#F0F0F0"/>
<path d="M167.49 206.67H164.59V209.57H167.49V206.67Z" fill="#F0F0F0"/>
<path d="M167.49 211.52H164.59V214.41H167.49V211.52Z" fill="#F0F0F0"/>
<path d="M167.49 221.23H164.59V224.12H167.49V221.23Z" fill="#F0F0F0"/>
<path d="M167.49 226.08H164.59V228.97H167.49V226.08Z" fill="#F0F0F0"/>
<path d="M125.759 169.289H122.869V172.179H125.759V169.289Z" fill="#F0F0F0"/>
<path d="M125.759 174.15H122.869V177.04H125.759V174.15Z" fill="#F0F0F0"/>
<path d="M125.759 179H122.869V181.89H125.759V179Z" fill="#F0F0F0"/>
<path d="M125.759 183.85H122.869V186.74H125.759V183.85Z" fill="#F0F0F0"/>
<path d="M125.759 188.699H122.869V191.589H125.759V188.699Z" fill="#F0F0F0"/>
<path d="M125.759 193.561H122.869V196.451H125.759V193.561Z" fill="#F0F0F0"/>
<path d="M125.759 198.41H122.869V201.3H125.759V198.41Z" fill="#F0F0F0"/>
<path d="M125.759 212.971H122.869V215.861H125.759V212.971Z" fill="#F0F0F0"/>
<path d="M125.759 217.82H122.869V220.71H125.759V217.82Z" fill="#F0F0F0"/>
<path d="M125.759 222.68H122.869V225.57H125.759V222.68Z" fill="#F0F0F0"/>
<path d="M121.169 169.289H118.279V172.179H121.169V169.289Z" fill="#F0F0F0"/>
<path d="M121.169 174.15H118.279V177.04H121.169V174.15Z" fill="#F0F0F0"/>
<path d="M121.169 179H118.279V181.89H121.169V179Z" fill="#F0F0F0"/>
<path d="M121.169 183.85H118.279V186.74H121.169V183.85Z" fill="#F0F0F0"/>
<path d="M121.169 188.699H118.279V191.589H121.169V188.699Z" fill="#F0F0F0"/>
<path d="M121.169 193.561H118.279V196.451H121.169V193.561Z" fill="#F0F0F0"/>
<path d="M121.169 198.41H118.279V201.3H121.169V198.41Z" fill="#F0F0F0"/>
<path d="M116.57 169.289H113.68V172.179H116.57V169.289Z" fill="#F0F0F0"/>
<path d="M116.57 174.15H113.68V177.04H116.57V174.15Z" fill="#F0F0F0"/>
<path d="M116.57 179H113.68V181.89H116.57V179Z" fill="#F0F0F0"/>
<path d="M116.57 183.85H113.68V186.74H116.57V183.85Z" fill="#F0F0F0"/>
<path d="M116.57 188.699H113.68V191.589H116.57V188.699Z" fill="#F0F0F0"/>
<path d="M116.57 193.561H113.68V196.451H116.57V193.561Z" fill="#F0F0F0"/>
<path d="M116.57 198.41H113.68V201.3H116.57V198.41Z" fill="#F0F0F0"/>
<path d="M111.968 169.289H109.078V172.179H111.968V169.289Z" fill="#F0F0F0"/>
<path d="M111.968 174.15H109.078V177.04H111.968V174.15Z" fill="#F0F0F0"/>
<path d="M111.968 179H109.078V181.89H111.968V179Z" fill="#F0F0F0"/>
<path d="M111.968 183.85H109.078V186.74H111.968V183.85Z" fill="#F0F0F0"/>
<path d="M111.968 188.699H109.078V191.589H111.968V188.699Z" fill="#F0F0F0"/>
<path d="M111.968 193.561H109.078V196.451H111.968V193.561Z" fill="#F0F0F0"/>
<path d="M111.968 198.41H109.078V201.3H111.968V198.41Z" fill="#F0F0F0"/>
<path d="M111.968 203.26H109.078V206.15H111.968V203.26Z" fill="#F0F0F0"/>
<path d="M111.968 208.119H109.078V211.009H111.968V208.119Z" fill="#F0F0F0"/>
<path d="M111.968 212.971H109.078V215.861H111.968V212.971Z" fill="#F0F0F0"/>
<path d="M111.968 217.82H109.078V220.71H111.968V217.82Z" fill="#F0F0F0"/>
<path d="M107.369 169.289H104.479V172.179H107.369V169.289Z" fill="#F0F0F0"/>
<path d="M107.369 174.15H104.479V177.04H107.369V174.15Z" fill="#F0F0F0"/>
<path d="M107.369 179H104.479V181.89H107.369V179Z" fill="#F0F0F0"/>
<path d="M107.369 183.85H104.479V186.74H107.369V183.85Z" fill="#F0F0F0"/>
<path d="M107.369 188.699H104.479V191.589H107.369V188.699Z" fill="#F0F0F0"/>
<path d="M107.369 193.561H104.479V196.451H107.369V193.561Z" fill="#F0F0F0"/>
<path d="M107.369 198.41H104.479V201.3H107.369V198.41Z" fill="#F0F0F0"/>
<path d="M107.369 203.26H104.479V206.15H107.369V203.26Z" fill="#F0F0F0"/>
<path d="M107.369 208.119H104.479V211.009H107.369V208.119Z" fill="#F0F0F0"/>
<path d="M107.369 212.971H104.479V215.861H107.369V212.971Z" fill="#F0F0F0"/>
<path d="M107.369 217.82H104.479V220.71H107.369V217.82Z" fill="#F0F0F0"/>
<path d="M107.369 222.68H104.479V225.57H107.369V222.68Z" fill="#F0F0F0"/>
<path d="M107.369 237.24H104.479V240.13H107.369V237.24Z" fill="#F0F0F0"/>
<path d="M107.369 242.09H104.479V244.99H107.369V242.09Z" fill="#F0F0F0"/>
<path d="M102.779 169.289H99.8887V172.179H102.779V169.289Z" fill="#F0F0F0"/>
<path d="M102.779 174.15H99.8887V177.04H102.779V174.15Z" fill="#F0F0F0"/>
<path d="M102.779 179H99.8887V181.89H102.779V179Z" fill="#F0F0F0"/>
<path d="M102.779 193.561H99.8887V196.451H102.779V193.561Z" fill="#F0F0F0"/>
<path d="M102.779 198.41H99.8887V201.3H102.779V198.41Z" fill="#F0F0F0"/>
<path d="M102.779 203.26H99.8887V206.15H102.779V203.26Z" fill="#F0F0F0"/>
<path d="M102.779 208.119H99.8887V211.009H102.779V208.119Z" fill="#F0F0F0"/>
<path d="M102.779 212.971H99.8887V215.861H102.779V212.971Z" fill="#F0F0F0"/>
<path d="M102.779 217.82H99.8887V220.71H102.779V217.82Z" fill="#F0F0F0"/>
<path d="M102.779 222.68H99.8887V225.57H102.779V222.68Z" fill="#F0F0F0"/>
<path d="M102.779 237.24H99.8887V240.13H102.779V237.24Z" fill="#F0F0F0"/>
<path d="M102.779 242.09H99.8887V244.99H102.779V242.09Z" fill="#F0F0F0"/>
<path d="M102.779 246.939H99.8887V249.839H102.779V246.939Z" fill="#F0F0F0"/>
<path d="M54.5992 140.17H51.6992V143.06H54.5992V140.17Z" fill="#F0F0F0"/>
<path d="M54.5992 145.029H51.6992V147.919H54.5992V145.029Z" fill="#F0F0F0"/>
<path d="M54.5992 149.881H51.6992V152.771H54.5992V149.881Z" fill="#F0F0F0"/>
<path d="M54.5992 154.73H51.6992V157.62H54.5992V154.73Z" fill="#F0F0F0"/>
<path d="M54.5992 159.59H51.6992V162.48H54.5992V159.59Z" fill="#F0F0F0"/>
<path d="M54.5992 164.439H51.6992V167.329H54.5992V164.439Z" fill="#F0F0F0"/>
<path d="M54.5992 169.289H51.6992V172.179H54.5992V169.289Z" fill="#F0F0F0"/>
<path d="M54.5992 174.15H51.6992V177.04H54.5992V174.15Z" fill="#F0F0F0"/>
<path d="M54.5992 179H51.6992V181.89H54.5992V179Z" fill="#F0F0F0"/>
<path d="M54.5992 183.85H51.6992V186.74H54.5992V183.85Z" fill="#F0F0F0"/>
<path d="M54.5992 188.699H51.6992V191.589H54.5992V188.699Z" fill="#F0F0F0"/>
<path d="M54.5992 193.561H51.6992V196.451H54.5992V193.561Z" fill="#F0F0F0"/>
<path d="M54.5992 198.41H51.6992V201.3H54.5992V198.41Z" fill="#F0F0F0"/>
<path d="M54.5992 203.26H51.6992V206.15H54.5992V203.26Z" fill="#F0F0F0"/>
<path d="M54.5992 208.119H51.6992V211.009H54.5992V208.119Z" fill="#F0F0F0"/>
<path d="M54.5992 212.971H51.6992V215.861H54.5992V212.971Z" fill="#F0F0F0"/>
<path d="M54.5992 217.82H51.6992V220.71H54.5992V217.82Z" fill="#F0F0F0"/>
<path d="M54.5992 222.68H51.6992V225.57H54.5992V222.68Z" fill="#F0F0F0"/>
<path d="M54.5992 227.529H51.6992V230.419H54.5992V227.529Z" fill="#F0F0F0"/>
<path d="M54.5992 232.381H51.6992V235.271H54.5992V232.381Z" fill="#F0F0F0"/>
<path d="M54.5992 237.24H51.6992V240.13H54.5992V237.24Z" fill="#F0F0F0"/>
<path d="M54.5992 242.09H51.6992V244.99H54.5992V242.09Z" fill="#F0F0F0"/>
<path d="M54.5992 246.939H51.6992V249.839H54.5992V246.939Z" fill="#F0F0F0"/>
<path d="M49.9996 140.17H47.0996V143.06H49.9996V140.17Z" fill="#F0F0F0"/>
<path d="M49.9996 145.029H47.0996V147.919H49.9996V145.029Z" fill="#F0F0F0"/>
<path d="M49.9996 149.881H47.0996V152.771H49.9996V149.881Z" fill="#F0F0F0"/>
<path d="M49.9996 154.73H47.0996V157.62H49.9996V154.73Z" fill="#F0F0F0"/>
<path d="M49.9996 159.59H47.0996V162.48H49.9996V159.59Z" fill="#F0F0F0"/>
<path d="M49.9996 164.439H47.0996V167.329H49.9996V164.439Z" fill="#F0F0F0"/>
<path d="M49.9996 169.289H47.0996V172.179H49.9996V169.289Z" fill="#F0F0F0"/>
<path d="M49.9996 174.15H47.0996V177.04H49.9996V174.15Z" fill="#F0F0F0"/>
<path d="M49.9996 179H47.0996V181.89H49.9996V179Z" fill="#F0F0F0"/>
<path d="M49.9996 183.85H47.0996V186.74H49.9996V183.85Z" fill="#F0F0F0"/>
<path d="M49.9996 188.699H47.0996V191.589H49.9996V188.699Z" fill="#F0F0F0"/>
<path d="M49.9996 193.561H47.0996V196.451H49.9996V193.561Z" fill="#F0F0F0"/>
<path d="M49.9996 198.41H47.0996V201.3H49.9996V198.41Z" fill="#F0F0F0"/>
<path d="M49.9996 203.26H47.0996V206.15H49.9996V203.26Z" fill="#F0F0F0"/>
<path d="M49.9996 208.119H47.0996V211.009H49.9996V208.119Z" fill="#F0F0F0"/>
<path d="M49.9996 212.971H47.0996V215.861H49.9996V212.971Z" fill="#F0F0F0"/>
<path d="M49.9996 217.82H47.0996V220.71H49.9996V217.82Z" fill="#F0F0F0"/>
<path d="M49.9996 222.68H47.0996V225.57H49.9996V222.68Z" fill="#F0F0F0"/>
<path d="M49.9996 227.529H47.0996V230.419H49.9996V227.529Z" fill="#F0F0F0"/>
<path d="M45.388 140.17H42.498V143.06H45.388V140.17Z" fill="#F0F0F0"/>
<path d="M45.388 145.029H42.498V147.919H45.388V145.029Z" fill="#F0F0F0"/>
<path d="M45.388 149.881H42.498V152.771H45.388V149.881Z" fill="#F0F0F0"/>
<path d="M45.388 154.73H42.498V157.62H45.388V154.73Z" fill="#F0F0F0"/>
<path d="M45.388 159.59H42.498V162.48H45.388V159.59Z" fill="#F0F0F0"/>
<path d="M45.388 164.439H42.498V167.329H45.388V164.439Z" fill="#F0F0F0"/>
<path d="M45.388 169.289H42.498V172.179H45.388V169.289Z" fill="#F0F0F0"/>
<path d="M45.388 174.15H42.498V177.04H45.388V174.15Z" fill="#F0F0F0"/>
<path d="M45.388 179H42.498V181.89H45.388V179Z" fill="#F0F0F0"/>
<path d="M45.388 183.85H42.498V186.74H45.388V183.85Z" fill="#F0F0F0"/>
<path d="M45.388 188.699H42.498V191.589H45.388V188.699Z" fill="#F0F0F0"/>
<path d="M45.388 193.561H42.498V196.451H45.388V193.561Z" fill="#F0F0F0"/>
<path d="M45.388 198.41H42.498V201.3H45.388V198.41Z" fill="#F0F0F0"/>
<path d="M45.388 203.26H42.498V206.15H45.388V203.26Z" fill="#F0F0F0"/>
<path d="M45.388 208.119H42.498V211.009H45.388V208.119Z" fill="#F0F0F0"/>
<path d="M45.388 212.971H42.498V215.861H45.388V212.971Z" fill="#F0F0F0"/>
<path d="M45.388 217.82H42.498V220.71H45.388V217.82Z" fill="#F0F0F0"/>
<path d="M45.388 222.68H42.498V225.57H45.388V222.68Z" fill="#F0F0F0"/>
<path d="M45.388 227.529H42.498V230.419H45.388V227.529Z" fill="#F0F0F0"/>
<path d="M40.7984 140.17H37.8984V143.06H40.7984V140.17Z" fill="#F0F0F0"/>
<path d="M40.7984 145.029H37.8984V147.919H40.7984V145.029Z" fill="#F0F0F0"/>
<path d="M40.7984 149.881H37.8984V152.771H40.7984V149.881Z" fill="#F0F0F0"/>
<path d="M40.7984 154.73H37.8984V157.62H40.7984V154.73Z" fill="#F0F0F0"/>
<path d="M40.7984 159.59H37.8984V162.48H40.7984V159.59Z" fill="#F0F0F0"/>
<path d="M40.7984 164.439H37.8984V167.329H40.7984V164.439Z" fill="#F0F0F0"/>
<path d="M40.7984 169.289H37.8984V172.179H40.7984V169.289Z" fill="#F0F0F0"/>
<path d="M40.7984 174.15H37.8984V177.04H40.7984V174.15Z" fill="#F0F0F0"/>
<path d="M40.7984 179H37.8984V181.89H40.7984V179Z" fill="#F0F0F0"/>
<path d="M40.7984 183.85H37.8984V186.74H40.7984V183.85Z" fill="#F0F0F0"/>
<path d="M40.7984 188.699H37.8984V191.589H40.7984V188.699Z" fill="#F0F0F0"/>
<path d="M40.7984 193.561H37.8984V196.451H40.7984V193.561Z" fill="#F0F0F0"/>
<path d="M40.7984 198.41H37.8984V201.3H40.7984V198.41Z" fill="#F0F0F0"/>
<path d="M40.7984 203.26H37.8984V206.15H40.7984V203.26Z" fill="#F0F0F0"/>
<path d="M40.7984 208.119H37.8984V211.009H40.7984V208.119Z" fill="#F0F0F0"/>
<path d="M36.2086 140.17H33.3086V143.06H36.2086V140.17Z" fill="#F0F0F0"/>
<path d="M36.2086 145.029H33.3086V147.919H36.2086V145.029Z" fill="#F0F0F0"/>
<path d="M36.2086 149.881H33.3086V152.771H36.2086V149.881Z" fill="#F0F0F0"/>
<path d="M36.2086 154.73H33.3086V157.62H36.2086V154.73Z" fill="#F0F0F0"/>
<path d="M36.2086 159.59H33.3086V162.48H36.2086V159.59Z" fill="#F0F0F0"/>
<path d="M36.2086 164.439H33.3086V167.329H36.2086V164.439Z" fill="#F0F0F0"/>
<path d="M36.2086 169.289H33.3086V172.179H36.2086V169.289Z" fill="#F0F0F0"/>
<path d="M36.2086 174.15H33.3086V177.04H36.2086V174.15Z" fill="#F0F0F0"/>
<path d="M36.2086 179H33.3086V181.89H36.2086V179Z" fill="#F0F0F0"/>
<path d="M36.2086 183.85H33.3086V186.74H36.2086V183.85Z" fill="#F0F0F0"/>
<path d="M36.2086 188.699H33.3086V191.589H36.2086V188.699Z" fill="#F0F0F0"/>
<path d="M36.2086 193.561H33.3086V196.451H36.2086V193.561Z" fill="#F0F0F0"/>
<path d="M36.2086 198.41H33.3086V201.3H36.2086V198.41Z" fill="#F0F0F0"/>
<path d="M31.599 140.17H28.709V143.06H31.599V140.17Z" fill="#F0F0F0"/>
<path d="M31.599 145.029H28.709V147.919H31.599V145.029Z" fill="#F0F0F0"/>
<path d="M31.599 149.881H28.709V152.771H31.599V149.881Z" fill="#F0F0F0"/>
<path d="M31.599 154.73H28.709V157.62H31.599V154.73Z" fill="#F0F0F0"/>
<path d="M31.599 159.59H28.709V162.48H31.599V159.59Z" fill="#F0F0F0"/>
<path d="M31.599 164.439H28.709V167.329H31.599V164.439Z" fill="#F0F0F0"/>
<path d="M31.599 169.289H28.709V172.179H31.599V169.289Z" fill="#F0F0F0"/>
<path d="M31.599 174.15H28.709V177.04H31.599V174.15Z" fill="#F0F0F0"/>
<path d="M31.599 179H28.709V181.89H31.599V179Z" fill="#F0F0F0"/>
<path d="M31.599 183.85H28.709V186.74H31.599V183.85Z" fill="#F0F0F0"/>
<path d="M31.599 188.699H28.709V191.589H31.599V188.699Z" fill="#F0F0F0"/>
<path d="M31.599 193.561H28.709V196.451H31.599V193.561Z" fill="#F0F0F0"/>
<path d="M369.439 175.59H366.549V178.49H369.439V175.59Z" fill="#F0F0F0"/>
<path d="M369.439 180.449H366.549V183.349H369.439V180.449Z" fill="#F0F0F0"/>
<path d="M369.439 185.301H366.549V188.191H369.439V185.301Z" fill="#F0F0F0"/>
<path d="M369.439 190.15H366.549V193.05H369.439V190.15Z" fill="#F0F0F0"/>
<path d="M369.439 195.01H366.549V197.9H369.439V195.01Z" fill="#F0F0F0"/>
<path d="M369.439 199.859H366.549V202.749H369.439V199.859Z" fill="#F0F0F0"/>
<path d="M369.439 204.709H366.549V207.599H369.439V204.709Z" fill="#F0F0F0"/>
<path d="M369.439 209.561H366.549V212.451H369.439V209.561Z" fill="#F0F0F0"/>
<path d="M369.439 214.42H366.549V217.32H369.439V214.42Z" fill="#F0F0F0"/>
<path d="M369.439 219.27H366.549V222.16H369.439V219.27Z" fill="#F0F0F0"/>
<path d="M369.439 224.119H366.549V227.019H369.439V224.119Z" fill="#F0F0F0"/>
<path d="M369.439 228.98H366.549V231.87H369.439V228.98Z" fill="#F0F0F0"/>
<path d="M369.439 233.83H366.549V236.72H369.439V233.83Z" fill="#F0F0F0"/>
<path d="M369.439 238.68H366.549V241.57H369.439V238.68Z" fill="#F0F0F0"/>
<path d="M369.439 243.539H366.549V246.429H369.439V243.539Z" fill="#F0F0F0"/>
<path d="M369.439 248.391H366.549V251.281H369.439V248.391Z" fill="#F0F0F0"/>
<path d="M369.439 253.24H366.549V256.13H369.439V253.24Z" fill="#F0F0F0"/>
<path d="M369.439 258.1H366.549V260.99H369.439V258.1Z" fill="#F0F0F0"/>
<path d="M369.439 262.949H366.549V265.839H369.439V262.949Z" fill="#F0F0F0"/>
<path d="M369.439 267.801H366.549V270.691H369.439V267.801Z" fill="#F0F0F0"/>
<path d="M364.839 175.59H361.949V178.49H364.839V175.59Z" fill="#F0F0F0"/>
<path d="M364.839 180.449H361.949V183.349H364.839V180.449Z" fill="#F0F0F0"/>
<path d="M364.839 185.301H361.949V188.191H364.839V185.301Z" fill="#F0F0F0"/>
<path d="M364.839 190.15H361.949V193.05H364.839V190.15Z" fill="#F0F0F0"/>
<path d="M364.839 195.01H361.949V197.9H364.839V195.01Z" fill="#F0F0F0"/>
<path d="M364.839 199.859H361.949V202.749H364.839V199.859Z" fill="#F0F0F0"/>
<path d="M364.839 204.709H361.949V207.599H364.839V204.709Z" fill="#F0F0F0"/>
<path d="M364.839 209.561H361.949V212.451H364.839V209.561Z" fill="#F0F0F0"/>
<path d="M364.839 214.42H361.949V217.32H364.839V214.42Z" fill="#F0F0F0"/>
<path d="M364.839 219.27H361.949V222.16H364.839V219.27Z" fill="#F0F0F0"/>
<path d="M364.839 224.119H361.949V227.019H364.839V224.119Z" fill="#F0F0F0"/>
<path d="M364.839 228.98H361.949V231.87H364.839V228.98Z" fill="#F0F0F0"/>
<path d="M364.839 233.83H361.949V236.72H364.839V233.83Z" fill="#F0F0F0"/>
<path d="M364.839 238.68H361.949V241.57H364.839V238.68Z" fill="#F0F0F0"/>
<path d="M364.839 243.539H361.949V246.429H364.839V243.539Z" fill="#F0F0F0"/>
<path d="M364.839 248.391H361.949V251.281H364.839V248.391Z" fill="#F0F0F0"/>
<path d="M364.839 253.24H361.949V256.13H364.839V253.24Z" fill="#F0F0F0"/>
<path d="M364.839 258.1H361.949V260.99H364.839V258.1Z" fill="#F0F0F0"/>
<path d="M360.24 175.59H357.35V178.49H360.24V175.59Z" fill="#F0F0F0"/>
<path d="M360.24 180.449H357.35V183.349H360.24V180.449Z" fill="#F0F0F0"/>
<path d="M360.24 185.301H357.35V188.191H360.24V185.301Z" fill="#F0F0F0"/>
<path d="M360.24 190.15H357.35V193.05H360.24V190.15Z" fill="#F0F0F0"/>
<path d="M360.24 195.01H357.35V197.9H360.24V195.01Z" fill="#F0F0F0"/>
<path d="M360.24 199.859H357.35V202.749H360.24V199.859Z" fill="#F0F0F0"/>
<path d="M360.24 204.709H357.35V207.599H360.24V204.709Z" fill="#F0F0F0"/>
<path d="M360.24 209.561H357.35V212.451H360.24V209.561Z" fill="#F0F0F0"/>
<path d="M360.24 214.42H357.35V217.32H360.24V214.42Z" fill="#F0F0F0"/>
<path d="M360.24 219.27H357.35V222.16H360.24V219.27Z" fill="#F0F0F0"/>
<path d="M360.24 224.119H357.35V227.019H360.24V224.119Z" fill="#F0F0F0"/>
<path d="M360.24 228.98H357.35V231.87H360.24V228.98Z" fill="#F0F0F0"/>
<path d="M360.24 233.83H357.35V236.72H360.24V233.83Z" fill="#F0F0F0"/>
<path d="M360.24 238.68H357.35V241.57H360.24V238.68Z" fill="#F0F0F0"/>
<path d="M360.24 243.539H357.35V246.429H360.24V243.539Z" fill="#F0F0F0"/>
<path d="M360.24 248.391H357.35V251.281H360.24V248.391Z" fill="#F0F0F0"/>
<path d="M360.24 253.24H357.35V256.13H360.24V253.24Z" fill="#F0F0F0"/>
<path d="M360.24 258.1H357.35V260.99H360.24V258.1Z" fill="#F0F0F0"/>
<path d="M386.638 211.01H383.748V213.91H386.638V211.01Z" fill="#F0F0F0"/>
<path d="M386.638 215.859H383.748V218.749H386.638V215.859Z" fill="#F0F0F0"/>
<path d="M386.638 220.721H383.748V223.611H386.638V220.721Z" fill="#F0F0F0"/>
<path d="M386.638 225.57H383.748V228.46H386.638V225.57Z" fill="#F0F0F0"/>
<path d="M386.638 230.42H383.748V233.31H386.638V230.42Z" fill="#F0F0F0"/>
<path d="M386.638 235.279H383.748V238.169H386.638V235.279Z" fill="#F0F0F0"/>
<path d="M386.638 240.131H383.748V243.021H386.638V240.131Z" fill="#F0F0F0"/>
<path d="M386.638 244.98H383.748V247.87H386.638V244.98Z" fill="#F0F0F0"/>
<path d="M386.638 249.84H383.748V252.73H386.638V249.84Z" fill="#F0F0F0"/>
<path d="M386.638 254.689H383.748V257.579H386.638V254.689Z" fill="#F0F0F0"/>
<path d="M386.638 259.539H383.748V262.429H386.638V259.539Z" fill="#F0F0F0"/>
<path d="M386.638 264.4H383.748V267.29H386.638V264.4Z" fill="#F0F0F0"/>
<path d="M386.638 269.25H383.748V272.14H386.638V269.25Z" fill="#F0F0F0"/>
<path d="M382.038 211.01H379.148V213.91H382.038V211.01Z" fill="#F0F0F0"/>
<path d="M382.038 215.859H379.148V218.749H382.038V215.859Z" fill="#F0F0F0"/>
<path d="M382.038 220.721H379.148V223.611H382.038V220.721Z" fill="#F0F0F0"/>
<path d="M382.038 225.57H379.148V228.46H382.038V225.57Z" fill="#F0F0F0"/>
<path d="M382.038 230.42H379.148V233.31H382.038V230.42Z" fill="#F0F0F0"/>
<path d="M382.038 235.279H379.148V238.169H382.038V235.279Z" fill="#F0F0F0"/>
<path d="M382.038 240.131H379.148V243.021H382.038V240.131Z" fill="#F0F0F0"/>
<path d="M382.038 244.98H379.148V247.87H382.038V244.98Z" fill="#F0F0F0"/>
<path d="M382.038 249.84H379.148V252.73H382.038V249.84Z" fill="#F0F0F0"/>
<path d="M382.038 254.689H379.148V257.579H382.038V254.689Z" fill="#F0F0F0"/>
<path d="M382.038 259.539H379.148V262.429H382.038V259.539Z" fill="#F0F0F0"/>
<path d="M382.038 264.4H379.148V267.29H382.038V264.4Z" fill="#F0F0F0"/>
<path d="M382.038 269.25H379.148V272.14H382.038V269.25Z" fill="#F0F0F0"/>
<path d="M377.439 211.01H374.549V213.91H377.439V211.01Z" fill="#F0F0F0"/>
<path d="M377.439 215.859H374.549V218.749H377.439V215.859Z" fill="#F0F0F0"/>
<path d="M377.439 220.721H374.549V223.611H377.439V220.721Z" fill="#F0F0F0"/>
<path d="M377.439 225.57H374.549V228.46H377.439V225.57Z" fill="#F0F0F0"/>
<path d="M377.439 230.42H374.549V233.31H377.439V230.42Z" fill="#F0F0F0"/>
<path d="M377.439 235.279H374.549V238.169H377.439V235.279Z" fill="#F0F0F0"/>
<path d="M377.439 240.131H374.549V243.021H377.439V240.131Z" fill="#F0F0F0"/>
<path d="M377.439 244.98H374.549V247.87H377.439V244.98Z" fill="#F0F0F0"/>
<path d="M377.439 249.84H374.549V252.73H377.439V249.84Z" fill="#F0F0F0"/>
<path d="M377.439 254.689H374.549V257.579H377.439V254.689Z" fill="#F0F0F0"/>
<path d="M377.439 259.539H374.549V262.429H377.439V259.539Z" fill="#F0F0F0"/>
<path d="M377.439 264.4H374.549V267.29H377.439V264.4Z" fill="#F0F0F0"/>
<path d="M377.439 269.25H374.549V272.14H377.439V269.25Z" fill="#F0F0F0"/>
<path d="M377.439 274.1H374.549V276.99H377.439V274.1Z" fill="#F0F0F0"/>
<path d="M351.9 212.459H349.01V215.349H351.9V212.459Z" fill="#F0F0F0"/>
<path d="M351.9 217.311H349.01V220.201H351.9V217.311Z" fill="#F0F0F0"/>
<path d="M351.9 222.17H349.01V225.06H351.9V222.17Z" fill="#F0F0F0"/>
<path d="M351.9 227.02H349.01V229.91H351.9V227.02Z" fill="#F0F0F0"/>
<path d="M351.9 231.869H349.01V234.759H351.9V231.869Z" fill="#F0F0F0"/>
<path d="M351.9 236.721H349.01V239.611H351.9V236.721Z" fill="#F0F0F0"/>
<path d="M351.9 241.58H349.01V244.47H351.9V241.58Z" fill="#F0F0F0"/>
<path d="M351.9 246.43H349.01V249.33H351.9V246.43Z" fill="#F0F0F0"/>
<path d="M351.9 251.279H349.01V254.169H351.9V251.279Z" fill="#F0F0F0"/>
<path d="M351.9 256.141H349.01V259.031H351.9V256.141Z" fill="#F0F0F0"/>
<path d="M351.9 270.699H349.01V273.589H351.9V270.699Z" fill="#F0F0F0"/>
<path d="M347.308 212.459H344.408V215.349H347.308V212.459Z" fill="#F0F0F0"/>
<path d="M347.308 217.311H344.408V220.201H347.308V217.311Z" fill="#F0F0F0"/>
<path d="M347.308 222.17H344.408V225.06H347.308V222.17Z" fill="#F0F0F0"/>
<path d="M347.308 227.02H344.408V229.91H347.308V227.02Z" fill="#F0F0F0"/>
<path d="M347.308 231.869H344.408V234.759H347.308V231.869Z" fill="#F0F0F0"/>
<path d="M347.308 236.721H344.408V239.611H347.308V236.721Z" fill="#F0F0F0"/>
<path d="M347.308 241.58H344.408V244.47H347.308V241.58Z" fill="#F0F0F0"/>
<path d="M347.308 246.43H344.408V249.33H347.308V246.43Z" fill="#F0F0F0"/>
<path d="M347.308 251.279H344.408V254.169H347.308V251.279Z" fill="#F0F0F0"/>
<path d="M347.308 265.84H344.408V268.74H347.308V265.84Z" fill="#F0F0F0"/>
<path d="M347.308 270.699H344.408V273.589H347.308V270.699Z" fill="#F0F0F0"/>
<path d="M342.718 212.459H339.818V215.349H342.718V212.459Z" fill="#F0F0F0"/>
<path d="M342.718 217.311H339.818V220.201H342.718V217.311Z" fill="#F0F0F0"/>
<path d="M342.718 222.17H339.818V225.06H342.718V222.17Z" fill="#F0F0F0"/>
<path d="M342.718 227.02H339.818V229.91H342.718V227.02Z" fill="#F0F0F0"/>
<path d="M342.718 231.869H339.818V234.759H342.718V231.869Z" fill="#F0F0F0"/>
<path d="M342.718 236.721H339.818V239.611H342.718V236.721Z" fill="#F0F0F0"/>
<path d="M342.718 241.58H339.818V244.47H342.718V241.58Z" fill="#F0F0F0"/>
<path d="M342.718 246.43H339.818V249.33H342.718V246.43Z" fill="#F0F0F0"/>
<path d="M342.718 260.99H339.818V263.89H342.718V260.99Z" fill="#F0F0F0"/>
<path d="M342.718 265.84H339.818V268.74H342.718V265.84Z" fill="#F0F0F0"/>
<path d="M342.718 270.699H339.818V273.589H342.718V270.699Z" fill="#F0F0F0"/>
<path d="M299.958 138.73H297.068V141.62H299.958V138.73Z" fill="#F0F0F0"/>
<path d="M299.958 143.58H297.068V146.47H299.958V143.58Z" fill="#F0F0F0"/>
<path d="M299.958 148.43H297.068V151.32H299.958V148.43Z" fill="#F0F0F0"/>
<path d="M299.958 153.289H297.068V156.179H299.958V153.289Z" fill="#F0F0F0"/>
<path d="M299.958 158.141H297.068V161.031H299.958V158.141Z" fill="#F0F0F0"/>
<path d="M299.958 162.99H297.068V165.89H299.958V162.99Z" fill="#F0F0F0"/>
<path d="M299.958 167.84H297.068V170.73H299.958V167.84Z" fill="#F0F0F0"/>
<path d="M299.958 172.699H297.068V175.589H299.958V172.699Z" fill="#F0F0F0"/>
<path d="M299.958 177.551H297.068V180.441H299.958V177.551Z" fill="#F0F0F0"/>
<path d="M299.958 182.4H297.068V185.29H299.958V182.4Z" fill="#F0F0F0"/>
<path d="M299.958 187.26H297.068V190.15H299.958V187.26Z" fill="#F0F0F0"/>
<path d="M299.958 192.109H297.068V194.999H299.958V192.109Z" fill="#F0F0F0"/>
<path d="M299.958 196.959H297.068V199.849H299.958V196.959Z" fill="#F0F0F0"/>
<path d="M299.958 201.82H297.068V204.71H299.958V201.82Z" fill="#F0F0F0"/>
<path d="M299.958 206.67H297.068V209.57H299.958V206.67Z" fill="#F0F0F0"/>
<path d="M299.958 211.52H297.068V214.41H299.958V211.52Z" fill="#F0F0F0"/>
<path d="M299.958 216.381H297.068V219.271H299.958V216.381Z" fill="#F0F0F0"/>
<path d="M299.958 226.08H297.068V228.97H299.958V226.08Z" fill="#F0F0F0"/>
<path d="M299.958 230.939H297.068V233.829H299.958V230.939Z" fill="#F0F0F0"/>
<path d="M299.958 235.789H297.068V238.679H299.958V235.789Z" fill="#F0F0F0"/>
<path d="M299.958 240.641H297.068V243.531H299.958V240.641Z" fill="#F0F0F0"/>
<path d="M299.958 245.49H297.068V248.38H299.958V245.49Z" fill="#F0F0F0"/>
<path d="M295.368 138.73H292.479V141.62H295.368V138.73Z" fill="#F0F0F0"/>
<path d="M295.368 143.58H292.479V146.47H295.368V143.58Z" fill="#F0F0F0"/>
<path d="M295.368 148.43H292.479V151.32H295.368V148.43Z" fill="#F0F0F0"/>
<path d="M295.368 153.289H292.479V156.179H295.368V153.289Z" fill="#F0F0F0"/>
<path d="M295.368 158.141H292.479V161.031H295.368V158.141Z" fill="#F0F0F0"/>
<path d="M295.368 162.99H292.479V165.89H295.368V162.99Z" fill="#F0F0F0"/>
<path d="M295.368 167.84H292.479V170.73H295.368V167.84Z" fill="#F0F0F0"/>
<path d="M295.368 172.699H292.479V175.589H295.368V172.699Z" fill="#F0F0F0"/>
<path d="M295.368 177.551H292.479V180.441H295.368V177.551Z" fill="#F0F0F0"/>
<path d="M295.368 182.4H292.479V185.29H295.368V182.4Z" fill="#F0F0F0"/>
<path d="M295.368 187.26H292.479V190.15H295.368V187.26Z" fill="#F0F0F0"/>
<path d="M295.368 192.109H292.479V194.999H295.368V192.109Z" fill="#F0F0F0"/>
<path d="M295.368 196.959H292.479V199.849H295.368V196.959Z" fill="#F0F0F0"/>
<path d="M295.368 201.82H292.479V204.71H295.368V201.82Z" fill="#F0F0F0"/>
<path d="M295.368 206.67H292.479V209.57H295.368V206.67Z" fill="#F0F0F0"/>
<path d="M295.368 211.52H292.479V214.41H295.368V211.52Z" fill="#F0F0F0"/>
<path d="M295.368 240.641H292.479V243.531H295.368V240.641Z" fill="#F0F0F0"/>
<path d="M295.368 245.49H292.479V248.38H295.368V245.49Z" fill="#F0F0F0"/>
<path d="M290.769 138.73H287.879V141.62H290.769V138.73Z" fill="#F0F0F0"/>
<path d="M290.769 143.58H287.879V146.47H290.769V143.58Z" fill="#F0F0F0"/>
<path d="M290.769 148.43H287.879V151.32H290.769V148.43Z" fill="#F0F0F0"/>
<path d="M290.769 153.289H287.879V156.179H290.769V153.289Z" fill="#F0F0F0"/>
<path d="M290.769 158.141H287.879V161.031H290.769V158.141Z" fill="#F0F0F0"/>
<path d="M290.769 162.99H287.879V165.89H290.769V162.99Z" fill="#F0F0F0"/>
<path d="M290.769 167.84H287.879V170.73H290.769V167.84Z" fill="#F0F0F0"/>
<path d="M290.769 172.699H287.879V175.589H290.769V172.699Z" fill="#F0F0F0"/>
<path d="M290.769 177.551H287.879V180.441H290.769V177.551Z" fill="#F0F0F0"/>
<path d="M290.769 182.4H287.879V185.29H290.769V182.4Z" fill="#F0F0F0"/>
<path d="M290.769 187.26H287.879V190.15H290.769V187.26Z" fill="#F0F0F0"/>
<path d="M290.769 192.109H287.879V194.999H290.769V192.109Z" fill="#F0F0F0"/>
<path d="M290.769 196.959H287.879V199.849H290.769V196.959Z" fill="#F0F0F0"/>
<path d="M290.769 201.82H287.879V204.71H290.769V201.82Z" fill="#F0F0F0"/>
<path d="M290.769 206.67H287.879V209.57H290.769V206.67Z" fill="#F0F0F0"/>
<path d="M290.769 211.52H287.879V214.41H290.769V211.52Z" fill="#F0F0F0"/>
<path d="M290.769 221.23H287.879V224.12H290.769V221.23Z" fill="#F0F0F0"/>
<path d="M290.769 226.08H287.879V228.97H290.769V226.08Z" fill="#F0F0F0"/>
<path d="M290.769 230.939H287.879V233.829H290.769V230.939Z" fill="#F0F0F0"/>
<path d="M290.769 235.789H287.879V238.679H290.769V235.789Z" fill="#F0F0F0"/>
<path d="M290.769 245.49H287.879V248.38H290.769V245.49Z" fill="#F0F0F0"/>
<path d="M316.66 199.859H313.76V202.749H316.66V199.859Z" fill="#F0F0F0"/>
<path d="M316.66 204.709H313.76V207.599H316.66V204.709Z" fill="#F0F0F0"/>
<path d="M316.66 209.561H313.76V212.451H316.66V209.561Z" fill="#F0F0F0"/>
<path d="M316.66 214.42H313.76V217.32H316.66V214.42Z" fill="#F0F0F0"/>
<path d="M316.66 219.27H313.76V222.16H316.66V219.27Z" fill="#F0F0F0"/>
<path d="M316.66 224.119H313.76V227.019H316.66V224.119Z" fill="#F0F0F0"/>
<path d="M316.66 228.98H313.76V231.87H316.66V228.98Z" fill="#F0F0F0"/>
<path d="M316.66 238.68H313.76V241.57H316.66V238.68Z" fill="#F0F0F0"/>
<path d="M316.66 243.539H313.76V246.429H316.66V243.539Z" fill="#F0F0F0"/>
<path d="M316.66 248.391H313.76V251.281H316.66V248.391Z" fill="#F0F0F0"/>
<path d="M316.66 253.24H313.76V256.13H316.66V253.24Z" fill="#F0F0F0"/>
<path d="M316.66 258.1H313.76V260.99H316.66V258.1Z" fill="#F0F0F0"/>
<path d="M316.66 262.949H313.76V265.839H316.66V262.949Z" fill="#F0F0F0"/>
<path d="M316.66 267.801H313.76V270.691H316.66V267.801Z" fill="#F0F0F0"/>
<path d="M316.66 272.65H313.76V275.54H316.66V272.65Z" fill="#F0F0F0"/>
<path d="M312.048 199.859H309.158V202.749H312.048V199.859Z" fill="#F0F0F0"/>
<path d="M312.048 204.709H309.158V207.599H312.048V204.709Z" fill="#F0F0F0"/>
<path d="M312.048 209.561H309.158V212.451H312.048V209.561Z" fill="#F0F0F0"/>
<path d="M312.048 214.42H309.158V217.32H312.048V214.42Z" fill="#F0F0F0"/>
<path d="M312.048 219.27H309.158V222.16H312.048V219.27Z" fill="#F0F0F0"/>
<path d="M312.048 224.119H309.158V227.019H312.048V224.119Z" fill="#F0F0F0"/>
<path d="M312.048 238.68H309.158V241.57H312.048V238.68Z" fill="#F0F0F0"/>
<path d="M312.048 243.539H309.158V246.429H312.048V243.539Z" fill="#F0F0F0"/>
<path d="M312.048 248.391H309.158V251.281H312.048V248.391Z" fill="#F0F0F0"/>
<path d="M312.048 253.24H309.158V256.13H312.048V253.24Z" fill="#F0F0F0"/>
<path d="M312.048 258.1H309.158V260.99H312.048V258.1Z" fill="#F0F0F0"/>
<path d="M312.048 262.949H309.158V265.839H312.048V262.949Z" fill="#F0F0F0"/>
<path d="M312.048 267.801H309.158V270.691H312.048V267.801Z" fill="#F0F0F0"/>
<path d="M312.048 272.65H309.158V275.54H312.048V272.65Z" fill="#F0F0F0"/>
<path d="M307.468 199.859H304.568V202.749H307.468V199.859Z" fill="#F0F0F0"/>
<path d="M307.468 204.709H304.568V207.599H307.468V204.709Z" fill="#F0F0F0"/>
<path d="M307.468 209.561H304.568V212.451H307.468V209.561Z" fill="#F0F0F0"/>
<path d="M307.468 214.42H304.568V217.32H307.468V214.42Z" fill="#F0F0F0"/>
<path d="M307.468 219.27H304.568V222.16H307.468V219.27Z" fill="#F0F0F0"/>
<path d="M307.468 224.119H304.568V227.019H307.468V224.119Z" fill="#F0F0F0"/>
<path d="M307.468 233.83H304.568V236.72H307.468V233.83Z" fill="#F0F0F0"/>
<path d="M307.468 238.68H304.568V241.57H307.468V238.68Z" fill="#F0F0F0"/>
<path d="M307.468 243.539H304.568V246.429H307.468V243.539Z" fill="#F0F0F0"/>
<path d="M307.468 248.391H304.568V251.281H307.468V248.391Z" fill="#F0F0F0"/>
<path d="M307.468 253.24H304.568V256.13H307.468V253.24Z" fill="#F0F0F0"/>
<path d="M307.468 258.1H304.568V260.99H307.468V258.1Z" fill="#F0F0F0"/>
<path d="M307.468 262.949H304.568V265.839H307.468V262.949Z" fill="#F0F0F0"/>
<path d="M307.468 267.801H304.568V270.691H307.468V267.801Z" fill="#F0F0F0"/>
<path d="M307.468 272.65H304.568V275.54H307.468V272.65Z" fill="#F0F0F0"/>
<path d="M210.57 172.699H207.68V175.589H210.57V172.699Z" fill="#F0F0F0"/>
<path d="M210.57 177.551H207.68V180.441H210.57V177.551Z" fill="#F0F0F0"/>
<path d="M210.57 182.4H207.68V185.29H210.57V182.4Z" fill="#F0F0F0"/>
<path d="M210.57 187.26H207.68V190.15H210.57V187.26Z" fill="#F0F0F0"/>
<path d="M210.57 192.109H207.68V194.999H210.57V192.109Z" fill="#F0F0F0"/>
<path d="M210.57 196.959H207.68V199.849H210.57V196.959Z" fill="#F0F0F0"/>
<path d="M210.57 201.82H207.68V204.71H210.57V201.82Z" fill="#F0F0F0"/>
<path d="M210.57 206.67H207.68V209.57H210.57V206.67Z" fill="#F0F0F0"/>
<path d="M210.57 211.52H207.68V214.41H210.57V211.52Z" fill="#F0F0F0"/>
<path d="M210.57 216.381H207.68V219.271H210.57V216.381Z" fill="#F0F0F0"/>
<path d="M210.57 221.23H207.68V224.12H210.57V221.23Z" fill="#F0F0F0"/>
<path d="M210.57 226.08H207.68V228.97H210.57V226.08Z" fill="#F0F0F0"/>
<path d="M210.57 230.939H207.68V233.829H210.57V230.939Z" fill="#F0F0F0"/>
<path d="M210.57 240.641H207.68V243.531H210.57V240.641Z" fill="#F0F0F0"/>
<path d="M210.57 245.49H207.68V248.38H210.57V245.49Z" fill="#F0F0F0"/>
<path d="M210.57 250.35H207.68V253.24H210.57V250.35Z" fill="#F0F0F0"/>
<path d="M210.57 255.199H207.68V258.089H210.57V255.199Z" fill="#F0F0F0"/>
<path d="M210.57 264.91H207.68V267.81H210.57V264.91Z" fill="#F0F0F0"/>
<path d="M210.57 269.76H207.68V272.65H210.57V269.76Z" fill="#F0F0F0"/>
<path d="M210.57 274.609H207.68V277.499H210.57V274.609Z" fill="#F0F0F0"/>
<path d="M205.968 172.699H203.078V175.589H205.968V172.699Z" fill="#F0F0F0"/>
<path d="M205.968 177.551H203.078V180.441H205.968V177.551Z" fill="#F0F0F0"/>
<path d="M205.968 182.4H203.078V185.29H205.968V182.4Z" fill="#F0F0F0"/>
<path d="M205.968 187.26H203.078V190.15H205.968V187.26Z" fill="#F0F0F0"/>
<path d="M205.968 192.109H203.078V194.999H205.968V192.109Z" fill="#F0F0F0"/>
<path d="M205.968 196.959H203.078V199.849H205.968V196.959Z" fill="#F0F0F0"/>
<path d="M205.968 201.82H203.078V204.71H205.968V201.82Z" fill="#F0F0F0"/>
<path d="M205.968 206.67H203.078V209.57H205.968V206.67Z" fill="#F0F0F0"/>
<path d="M205.968 211.52H203.078V214.41H205.968V211.52Z" fill="#F0F0F0"/>
<path d="M205.968 216.381H203.078V219.271H205.968V216.381Z" fill="#F0F0F0"/>
<path d="M205.968 221.23H203.078V224.12H205.968V221.23Z" fill="#F0F0F0"/>
<path d="M205.968 226.08H203.078V228.97H205.968V226.08Z" fill="#F0F0F0"/>
<path d="M205.968 230.939H203.078V233.829H205.968V230.939Z" fill="#F0F0F0"/>
<path d="M205.968 245.49H203.078V248.38H205.968V245.49Z" fill="#F0F0F0"/>
<path d="M205.968 250.35H203.078V253.24H205.968V250.35Z" fill="#F0F0F0"/>
<path d="M205.968 260.051H203.078V262.941H205.968V260.051Z" fill="#F0F0F0"/>
<path d="M205.968 264.91H203.078V267.81H205.968V264.91Z" fill="#F0F0F0"/>
<path d="M205.968 269.76H203.078V272.65H205.968V269.76Z" fill="#F0F0F0"/>
<path d="M205.968 274.609H203.078V277.499H205.968V274.609Z" fill="#F0F0F0"/>
<path d="M201.369 172.699H198.479V175.589H201.369V172.699Z" fill="#F0F0F0"/>
<path d="M201.369 177.551H198.479V180.441H201.369V177.551Z" fill="#F0F0F0"/>
<path d="M201.369 182.4H198.479V185.29H201.369V182.4Z" fill="#F0F0F0"/>
<path d="M201.369 187.26H198.479V190.15H201.369V187.26Z" fill="#F0F0F0"/>
<path d="M201.369 192.109H198.479V194.999H201.369V192.109Z" fill="#F0F0F0"/>
<path d="M201.369 196.959H198.479V199.849H201.369V196.959Z" fill="#F0F0F0"/>
<path d="M201.369 201.82H198.479V204.71H201.369V201.82Z" fill="#F0F0F0"/>
<path d="M201.369 206.67H198.479V209.57H201.369V206.67Z" fill="#F0F0F0"/>
<path d="M201.369 211.52H198.479V214.41H201.369V211.52Z" fill="#F0F0F0"/>
<path d="M201.369 216.381H198.479V219.271H201.369V216.381Z" fill="#F0F0F0"/>
<path d="M201.369 221.23H198.479V224.12H201.369V221.23Z" fill="#F0F0F0"/>
<path d="M201.369 226.08H198.479V228.97H201.369V226.08Z" fill="#F0F0F0"/>
<path d="M201.369 230.939H198.479V233.829H201.369V230.939Z" fill="#F0F0F0"/>
<path d="M201.369 235.789H198.479V238.679H201.369V235.789Z" fill="#F0F0F0"/>
<path d="M201.369 245.49H198.479V248.38H201.369V245.49Z" fill="#F0F0F0"/>
<path d="M201.369 255.199H198.479V258.089H201.369V255.199Z" fill="#F0F0F0"/>
<path d="M201.369 260.051H198.479V262.941H201.369V260.051Z" fill="#F0F0F0"/>
<path d="M201.369 264.91H198.479V267.81H201.369V264.91Z" fill="#F0F0F0"/>
<path d="M201.369 269.76H198.479V272.65H201.369V269.76Z" fill="#F0F0F0"/>
<path d="M201.369 274.609H198.479V277.499H201.369V274.609Z" fill="#F0F0F0"/>
<path d="M229.298 200.369H226.408V203.259H229.298V200.369Z" fill="#F0F0F0"/>
<path d="M229.298 205.221H226.408V208.111H229.298V205.221Z" fill="#F0F0F0"/>
<path d="M229.298 210.08H226.408V212.97H229.298V210.08Z" fill="#F0F0F0"/>
<path d="M229.298 214.93H226.408V217.82H229.298V214.93Z" fill="#F0F0F0"/>
<path d="M229.298 219.779H226.408V222.669H229.298V219.779Z" fill="#F0F0F0"/>
<path d="M229.298 224.631H226.408V227.521H229.298V224.631Z" fill="#F0F0F0"/>
<path d="M229.298 239.189H226.408V242.079H229.298V239.189Z" fill="#F0F0F0"/>
<path d="M229.298 244.051H226.408V246.941H229.298V244.051Z" fill="#F0F0F0"/>
<path d="M229.298 248.9H226.408V251.79H229.298V248.9Z" fill="#F0F0F0"/>
<path d="M229.298 253.75H226.408V256.65H229.298V253.75Z" fill="#F0F0F0"/>
<path d="M229.298 258.609H226.408V261.499H229.298V258.609Z" fill="#F0F0F0"/>
<path d="M229.298 263.459H226.408V266.349H229.298V263.459Z" fill="#F0F0F0"/>
<path d="M229.298 268.311H226.408V271.201H229.298V268.311Z" fill="#F0F0F0"/>
<path d="M224.699 200.369H221.809V203.259H224.699V200.369Z" fill="#F0F0F0"/>
<path d="M224.699 205.221H221.809V208.111H224.699V205.221Z" fill="#F0F0F0"/>
<path d="M224.699 210.08H221.809V212.97H224.699V210.08Z" fill="#F0F0F0"/>
<path d="M224.699 214.93H221.809V217.82H224.699V214.93Z" fill="#F0F0F0"/>
<path d="M224.699 219.779H221.809V222.669H224.699V219.779Z" fill="#F0F0F0"/>
<path d="M224.699 224.631H221.809V227.521H224.699V224.631Z" fill="#F0F0F0"/>
<path d="M224.699 239.189H221.809V242.079H224.699V239.189Z" fill="#F0F0F0"/>
<path d="M224.699 244.051H221.809V246.941H224.699V244.051Z" fill="#F0F0F0"/>
<path d="M224.699 248.9H221.809V251.79H224.699V248.9Z" fill="#F0F0F0"/>
<path d="M224.699 253.75H221.809V256.65H224.699V253.75Z" fill="#F0F0F0"/>
<path d="M224.699 258.609H221.809V261.499H224.699V258.609Z" fill="#F0F0F0"/>
<path d="M224.699 263.459H221.809V266.349H224.699V263.459Z" fill="#F0F0F0"/>
<path d="M224.699 273.17H221.809V276.06H224.699V273.17Z" fill="#F0F0F0"/>
<path d="M71.9586 179H69.0586V181.89H71.9586V179Z" fill="#F0F0F0"/>
<path d="M71.9586 183.85H69.0586V186.74H71.9586V183.85Z" fill="#F0F0F0"/>
<path d="M71.9586 188.699H69.0586V191.589H71.9586V188.699Z" fill="#F0F0F0"/>
<path d="M71.9586 193.561H69.0586V196.451H71.9586V193.561Z" fill="#F0F0F0"/>
<path d="M71.9586 198.41H69.0586V201.3H71.9586V198.41Z" fill="#F0F0F0"/>
<path d="M71.9586 203.26H69.0586V206.15H71.9586V203.26Z" fill="#F0F0F0"/>
<path d="M71.9586 208.119H69.0586V211.009H71.9586V208.119Z" fill="#F0F0F0"/>
<path d="M71.9586 212.971H69.0586V215.861H71.9586V212.971Z" fill="#F0F0F0"/>
<path d="M71.9586 217.82H69.0586V220.71H71.9586V217.82Z" fill="#F0F0F0"/>
<path d="M71.9586 222.68H69.0586V225.57H71.9586V222.68Z" fill="#F0F0F0"/>
<path d="M71.9586 227.529H69.0586V230.419H71.9586V227.529Z" fill="#F0F0F0"/>
<path d="M71.9586 237.24H69.0586V240.13H71.9586V237.24Z" fill="#F0F0F0"/>
<path d="M71.9586 242.09H69.0586V244.99H71.9586V242.09Z" fill="#F0F0F0"/>
<path d="M71.9586 246.939H69.0586V249.839H71.9586V246.939Z" fill="#F0F0F0"/>
<path d="M71.9586 251.789H69.0586V254.679H71.9586V251.789Z" fill="#F0F0F0"/>
<path d="M71.9586 256.65H69.0586V259.54H71.9586V256.65Z" fill="#F0F0F0"/>
<path d="M71.9586 261.5H69.0586V264.39H71.9586V261.5Z" fill="#F0F0F0"/>
<path d="M71.9586 266.35H69.0586V269.24H71.9586V266.35Z" fill="#F0F0F0"/>
<path d="M71.9586 271.209H69.0586V274.099H71.9586V271.209Z" fill="#F0F0F0"/>
<path d="M67.3587 179H64.4688V181.89H67.3587V179Z" fill="#F0F0F0"/>
<path d="M67.3587 183.85H64.4688V186.74H67.3587V183.85Z" fill="#F0F0F0"/>
<path d="M67.3587 188.699H64.4688V191.589H67.3587V188.699Z" fill="#F0F0F0"/>
<path d="M67.3587 193.561H64.4688V196.451H67.3587V193.561Z" fill="#F0F0F0"/>
<path d="M67.3587 198.41H64.4688V201.3H67.3587V198.41Z" fill="#F0F0F0"/>
<path d="M67.3587 203.26H64.4688V206.15H67.3587V203.26Z" fill="#F0F0F0"/>
<path d="M67.3587 208.119H64.4688V211.009H67.3587V208.119Z" fill="#F0F0F0"/>
<path d="M67.3587 212.971H64.4688V215.861H67.3587V212.971Z" fill="#F0F0F0"/>
<path d="M67.3587 217.82H64.4688V220.71H67.3587V217.82Z" fill="#F0F0F0"/>
<path d="M67.3587 222.68H64.4688V225.57H67.3587V222.68Z" fill="#F0F0F0"/>
<path d="M67.3587 227.529H64.4688V230.419H67.3587V227.529Z" fill="#F0F0F0"/>
<path d="M67.3587 232.381H64.4688V235.271H67.3587V232.381Z" fill="#F0F0F0"/>
<path d="M67.3587 237.24H64.4688V240.13H67.3587V237.24Z" fill="#F0F0F0"/>
<path d="M67.3587 242.09H64.4688V244.99H67.3587V242.09Z" fill="#F0F0F0"/>
<path d="M67.3587 246.939H64.4688V249.839H67.3587V246.939Z" fill="#F0F0F0"/>
<path d="M67.3587 251.789H64.4688V254.679H67.3587V251.789Z" fill="#F0F0F0"/>
<path d="M67.3587 256.65H64.4688V259.54H67.3587V256.65Z" fill="#F0F0F0"/>
<path d="M67.3587 261.5H64.4688V264.39H67.3587V261.5Z" fill="#F0F0F0"/>
<path d="M67.3587 266.35H64.4688V269.24H67.3587V266.35Z" fill="#F0F0F0"/>
<path d="M67.3587 271.209H64.4688V274.099H67.3587V271.209Z" fill="#F0F0F0"/>
<path d="M94.599 197.9H91.709V200.79H94.599V197.9Z" fill="#F0F0F0"/>
<path d="M94.599 202.75H91.709V205.64H94.599V202.75Z" fill="#F0F0F0"/>
<path d="M94.599 207.609H91.709V210.499H94.599V207.609Z" fill="#F0F0F0"/>
<path d="M94.599 212.459H91.709V215.349H94.599V212.459Z" fill="#F0F0F0"/>
<path d="M94.599 217.311H91.709V220.201H94.599V217.311Z" fill="#F0F0F0"/>
<path d="M94.599 222.17H91.709V225.06H94.599V222.17Z" fill="#F0F0F0"/>
<path d="M94.599 227.02H91.709V229.91H94.599V227.02Z" fill="#F0F0F0"/>
<path d="M94.599 231.869H91.709V234.759H94.599V231.869Z" fill="#F0F0F0"/>
<path d="M94.599 236.721H91.709V239.611H94.599V236.721Z" fill="#F0F0F0"/>
<path d="M94.599 241.58H91.709V244.47H94.599V241.58Z" fill="#F0F0F0"/>
<path d="M89.9994 197.9H87.1094V200.79H89.9994V197.9Z" fill="#F0F0F0"/>
<path d="M89.9994 202.75H87.1094V205.64H89.9994V202.75Z" fill="#F0F0F0"/>
<path d="M89.9994 207.609H87.1094V210.499H89.9994V207.609Z" fill="#F0F0F0"/>
<path d="M89.9994 212.459H87.1094V215.349H89.9994V212.459Z" fill="#F0F0F0"/>
<path d="M89.9994 217.311H87.1094V220.201H89.9994V217.311Z" fill="#F0F0F0"/>
<path d="M89.9994 222.17H87.1094V225.06H89.9994V222.17Z" fill="#F0F0F0"/>
<path d="M89.9994 227.02H87.1094V229.91H89.9994V227.02Z" fill="#F0F0F0"/>
<path d="M89.9994 231.869H87.1094V234.759H89.9994V231.869Z" fill="#F0F0F0"/>
<path d="M89.9994 236.721H87.1094V239.611H89.9994V236.721Z" fill="#F0F0F0"/>
<path d="M208.999 332.54C316.082 332.54 402.889 327.472 402.889 321.22C402.889 314.969 316.082 309.9 208.999 309.9C101.917 309.9 15.1094 314.969 15.1094 321.22C15.1094 327.472 101.917 332.54 208.999 332.54Z" fill="#F5F5F5"/>
<path d="M204.47 140.091L206.15 142.171L46.4199 269.411L53.2299 277.831L54.1599 278.981L213.89 151.751L215.57 153.841L218.57 140.061L204.47 140.091Z" fill="#407BFF"/>
<path opacity="0.7" d="M204.47 140.091L206.15 142.171L46.4199 269.411L53.2299 277.831L54.1599 278.981L213.89 151.751L215.57 153.841L218.57 140.061L204.47 140.091Z" fill="white"/>
<path d="M22.9102 278.301C22.9102 275.401 25.2602 273.042 28.1702 273.042C28.7002 273.042 29.2002 273.122 29.6802 273.262C29.6002 272.732 29.5602 272.191 29.5602 271.651C29.5602 265.501 34.5502 260.512 40.7002 260.512C41.4002 260.512 42.0902 260.582 42.7502 260.702C44.4602 257.902 47.5402 256.021 51.0602 256.021C56.3902 256.021 60.7202 260.301 60.8002 265.621C60.8502 265.621 60.9102 265.621 60.9602 265.621C65.9102 265.621 69.9302 269.641 69.9302 274.591C69.9302 279.541 65.9102 283.561 60.9602 283.561H28.0202C25.1802 283.481 22.9102 281.161 22.9102 278.311V278.301Z" fill="#407BFF"/>
<path opacity="0.8" d="M22.9102 278.301C22.9102 275.401 25.2602 273.042 28.1702 273.042C28.7002 273.042 29.2002 273.122 29.6802 273.262C29.6002 272.732 29.5602 272.191 29.5602 271.651C29.5602 265.501 34.5502 260.512 40.7002 260.512C41.4002 260.512 42.0902 260.582 42.7502 260.702C44.4602 257.902 47.5402 256.021 51.0602 256.021C56.3902 256.021 60.7202 260.301 60.8002 265.621C60.8502 265.621 60.9102 265.621 60.9602 265.621C65.9102 265.621 69.9302 269.641 69.9302 274.591C69.9302 279.541 65.9102 283.561 60.9602 283.561H28.0202C25.1802 283.481 22.9102 281.161 22.9102 278.311V278.301Z" fill="white"/>
<path d="M357.75 220.691L361.74 225.631L287.49 285.611L303.62 305.581L305.84 308.321L380.09 248.341L384.07 253.281L391.17 220.631L357.75 220.691Z" fill="#407BFF"/>
<path opacity="0.5" d="M357.75 220.691L361.74 225.631L287.49 285.611L303.62 305.581L305.84 308.321L380.09 248.341L384.07 253.281L391.17 220.631L357.75 220.691Z" fill="white"/>
<path d="M317.61 283.45C314.61 278.67 309.31 275.48 303.26 275.48C297.21 275.48 291.73 278.78 288.76 283.69C287.98 283.47 287.16 283.35 286.31 283.35C281.3 283.35 277.23 287.41 277.23 292.43C277.23 292.43 277.23 292.43 277.23 292.44H272.44C269.95 292.44 267.91 294.48 267.91 296.97C267.91 299.46 269.95 301.5 272.44 301.5H288.96C291.97 306.22 297.24 309.37 303.25 309.37C307.99 309.37 312.28 307.42 315.35 304.28C315.64 304.3 315.92 304.32 316.21 304.32C322 304.32 326.7 299.63 326.7 293.83C326.7 288.51 322.74 284.13 317.6 283.45H317.61Z" fill="#407BFF"/>
<path opacity="0.8" d="M317.61 283.45C314.61 278.67 309.31 275.48 303.26 275.48C297.21 275.48 291.73 278.78 288.76 283.69C287.98 283.47 287.16 283.35 286.31 283.35C281.3 283.35 277.23 287.41 277.23 292.43C277.23 292.43 277.23 292.43 277.23 292.44H272.44C269.95 292.44 267.91 294.48 267.91 296.97C267.91 299.46 269.95 301.5 272.44 301.5H288.96C291.97 306.22 297.24 309.37 303.25 309.37C307.99 309.37 312.28 307.42 315.35 304.28C315.64 304.3 315.92 304.32 316.21 304.32C322 304.32 326.7 299.63 326.7 293.83C326.7 288.51 322.74 284.13 317.6 283.45H317.61Z" fill="white"/>
<path d="M206.14 80.5293L204.7 79.0093C204.31 78.5993 203.74 78.4193 203.19 78.5193L201.03 78.9293C200.33 79.0693 199.79 79.6393 199.7 80.3493L198.59 89.3893L201.94 90.6693C206.01 88.8993 205.8 83.5193 205.8 83.5193L206.39 82.4493C206.73 81.8193 206.63 81.0393 206.14 80.5193V80.5293Z" fill="#FFB573"/>
<path d="M165.769 107.62C165.769 107.62 168.969 107.81 170.849 107.77C172.739 107.74 174.629 107.71 176.479 107.6C178.329 107.48 180.159 107.35 181.839 107.12C182.669 107 183.479 106.85 184.119 106.68C184.419 106.59 184.709 106.5 184.839 106.45C185.059 106.35 184.819 106.52 184.939 106.45C185.249 106.18 185.859 105.46 186.389 104.79C186.939 104.09 187.489 103.34 188.039 102.58C189.139 101.05 190.229 99.4599 191.309 97.8599L197.839 88.1699L202.939 90.8899C202.189 92.7599 201.379 94.5599 200.559 96.3799C199.719 98.1799 198.859 99.9799 197.969 101.77C197.069 103.56 196.129 105.34 195.119 107.12C194.609 108.01 194.079 108.9 193.489 109.81C192.879 110.74 192.329 111.61 191.269 112.76C190.699 113.39 189.659 114.16 188.989 114.49C188.249 114.89 187.619 115.14 186.989 115.38C185.759 115.82 184.649 116.1 183.549 116.35C181.369 116.84 179.289 117.12 177.219 117.32C173.079 117.73 169.099 117.89 164.949 117.79L165.739 107.62H165.769Z" fill="#407BFF"/>
<path opacity="0.7" d="M202.95 90.8997C202.2 92.7597 201.39 94.5597 200.58 96.3797C199.73 98.1797 198.87 99.9797 197.98 101.78C197.08 103.56 196.15 105.34 195.13 107.12C194.62 108.01 194.09 108.9 193.5 109.81C192.9 110.74 192.34 111.61 191.29 112.76C190.72 113.39 189.68 114.15 189.01 114.48C188.27 114.89 187.64 115.14 187.01 115.38C185.78 115.82 184.67 116.1 183.58 116.34C181.4 116.83 179.32 117.12 177.25 117.32C176.36 117.41 175.48 117.48 174.61 117.55C171.4 117.78 168.24 117.86 164.98 117.79L165.14 115.69L165.77 107.62C165.77 107.62 168.97 107.82 170.85 107.77C172.75 107.74 174.63 107.71 176.49 107.6C178.33 107.49 180.17 107.36 181.85 107.12C182.68 107.01 183.49 106.86 184.13 106.68C184.43 106.6 184.72 106.51 184.85 106.45C185.07 106.35 184.83 106.53 184.95 106.46C185.26 106.19 185.87 105.47 186.4 104.8C186.95 104.1 187.5 103.35 188.04 102.59C189.14 101.06 190.23 99.4697 191.32 97.8697L197.85 88.1797L202.95 90.8997Z" fill="white"/>
<path opacity="0.1" d="M174.61 117.55C171.4 117.78 168.24 117.86 164.98 117.79L165.14 115.69L165.92 113.85C165.92 113.85 171.16 113.78 174.61 117.55Z" fill="black"/>
<path d="M112.29 287.009C112.29 287.009 103.24 280.779 103.79 276.599C103.84 276.189 103.6 275.829 103.17 275.759L95.4995 274.599C95.1395 274.549 94.7595 274.709 94.5495 275.009L90.0195 281.359L92.0595 282.099L93.1495 281.329L93.6595 282.679C104.72 286.679 109.53 288.289 111.97 288.389C112.64 287.529 112.29 287.009 112.29 287.009Z" fill="black"/>
<path d="M163.27 169.379C163.27 169.379 162.81 170.579 162 172.659C161.13 174.909 159.85 178.189 158.31 182.089C157.28 184.689 156.14 187.569 154.91 190.599C149.26 204.639 141.96 222.009 137.13 230.779C127.88 247.559 103.78 279.429 103.78 279.429L94.1504 275.909C94.1504 275.909 111.49 243.089 120.24 226.459C122.91 221.389 125.98 213.929 129.02 205.789C130.47 201.919 131.91 197.889 133.3 193.899C133.93 192.099 134.55 190.299 135.15 188.529C136.74 183.849 138.23 179.339 139.54 175.319C139.7 174.819 139.86 174.319 140.02 173.839C140.55 172.189 141.05 170.629 141.5 169.189C143.38 163.269 144.55 159.369 144.59 159.219H144.6L153.19 163.899L163.27 169.379Z" fill="#263238"/>
<path opacity="0.3" d="M161.999 172.659C161.129 174.909 159.849 178.189 158.309 182.089C157.279 184.689 156.139 187.569 154.909 190.599C147.049 192.179 139.049 193.249 133.299 193.899C133.929 192.099 134.549 190.299 135.149 188.529C136.739 183.849 138.229 179.339 139.539 175.319C139.699 174.819 139.859 174.319 140.019 173.839C140.549 172.189 141.049 170.629 141.499 169.189C147.279 169.979 155.009 171.159 161.999 172.659Z" fill="black"/>
<path d="M132.5 112.95C132.5 112.95 132.5 112.96 132.5 112.97C133.89 117.62 134.7 123.03 135.15 128.36C135.5 132.51 135.63 136.59 135.65 140.25C135.66 143.94 135.55 147.21 135.43 149.71C135.27 152.92 135.08 154.9 135.08 154.9L165.46 156.46C174.58 123.42 165.76 107.62 165.76 107.62C165.76 107.62 161.97 107.24 157.61 107.43C157.05 107.45 156.48 107.49 155.89 107.54C152.17 107.85 146.25 109.02 142.3 109.92C141.49 110.1 140.67 110.31 139.87 110.53C135.9 111.61 132.48 112.95 132.48 112.95H132.5Z" fill="#407BFF"/>
<path opacity="0.7" d="M165.47 156.461L135.09 154.901C135.09 154.901 135.28 152.921 135.44 149.701C135.48 148.761 135.52 147.691 135.56 146.531C135.62 144.661 135.66 142.541 135.66 140.251C135.66 139.141 135.63 137.991 135.6 136.811C135.6 136.621 135.59 136.431 135.59 136.241C135.54 134.371 135.45 132.431 135.32 130.461C135.26 129.761 135.21 129.061 135.15 128.361C135.11 127.811 135.06 127.251 135.01 126.701C134.86 125.301 134.7 123.901 134.5 122.521C134.45 122.141 134.39 121.761 134.33 121.391C134.24 120.761 134.14 120.151 134.03 119.531C133.62 117.251 133.12 115.031 132.51 112.961C132.51 112.961 132.5 112.951 132.49 112.951C132.49 112.951 135.92 111.611 139.89 110.521C140.68 110.311 141.5 110.101 142.31 109.921C146.27 109.031 152.19 107.851 155.9 107.541C156.49 107.501 157.06 107.451 157.63 107.441C161.98 107.241 165.77 107.621 165.77 107.621C165.77 107.621 174.59 123.411 165.47 156.461Z" fill="white"/>
<path d="M184.26 235.52C184.26 235.52 175.58 228.78 176.37 224.64C176.45 224.23 176.23 223.86 175.8 223.77L168.21 222.17C167.86 222.1 167.46 222.24 167.23 222.52L162.34 228.6L164.33 229.45L165.47 228.75L165.91 230.13C176.72 234.76 181.44 236.64 183.86 236.89C184.58 236.07 184.26 235.53 184.26 235.53V235.52Z" fill="black"/>
<path d="M149.619 182.269C150.079 182.289 150.329 182.289 150.329 182.289L186.749 187.589L166.019 221.989L176.399 225.939C176.399 225.939 213.939 185.459 205.559 176.229C198.659 168.639 164.859 164.019 164.859 164.019L165.969 156.099L134.709 149.949C121.349 179.209 145.149 181.999 149.619 182.279V182.269Z" fill="#263238"/>
<path d="M134.34 153.05L133.67 152.92L134.28 150.82L134.87 150.93L134.34 153.05Z" fill="#263238"/>
<path d="M158.93 157.809L145.58 155.229L146.1 153.109L159.4 155.689L158.93 157.809Z" fill="#263238"/>
<path d="M160.43 155.891L166.07 156.981L165.69 159.121L159.98 158.011L160.43 155.891Z" fill="#263238"/>
<path d="M135.901 151.131L145.081 152.911L144.541 155.031L135.391 153.261L135.901 151.131Z" fill="#263238"/>
<g opacity="0.2">
<path d="M134.34 153.05L133.67 152.92L134.28 150.82L134.87 150.93L134.34 153.05Z" fill="white"/>
<path d="M158.93 157.809L145.58 155.229L146.1 153.109L159.4 155.689L158.93 157.809Z" fill="white"/>
<path d="M160.43 155.891L166.07 156.981L165.69 159.121L159.98 158.011L160.43 155.891Z" fill="white"/>
<path d="M135.901 151.131L145.081 152.911L144.541 155.031L135.391 153.261L135.901 151.131Z" fill="white"/>
</g>
<path d="M155.231 155.301L154.931 156.591C154.881 156.801 154.681 156.931 154.471 156.891L151.131 156.301C150.901 156.261 150.761 156.041 150.811 155.811L151.151 154.471C151.201 154.271 151.401 154.141 151.611 154.181L154.921 154.821C155.141 154.861 155.281 155.081 155.231 155.301Z" stroke="white" stroke-width="0.59" stroke-miterlimit="10"/>
<path d="M152.461 155.401L151.441 155.221" stroke="white" stroke-width="0.59" stroke-linecap="round" stroke-linejoin="round"/>
<path d="M145.469 96.1289L153.409 102.709C152.629 105.929 153.979 108.899 155.549 109.449C155.549 109.449 156.709 112.209 154.479 112.679C149.959 113.619 144.799 109.239 144.799 109.239C147.189 106.669 146.329 100.249 145.479 96.1389L145.469 96.1289Z" fill="#EBB376"/>
<path opacity="0.2" d="M148.699 98.8184L153.399 102.708C153.209 103.468 153.069 104.238 153.019 104.988C151.259 104.768 148.829 102.878 148.619 101.048C148.519 100.128 148.549 99.2484 148.699 98.8184Z" fill="black"/>
<path d="M152.48 83.1303C154.4 84.3303 157 87.9403 153.77 88.8003C150.54 89.6703 149.17 81.0703 152.48 83.1303Z" fill="#263238"/>
<path d="M142.56 95.4697C145.92 99.8997 147.66 102.66 151.56 103.46C157.43 104.65 161.69 98.6797 159.72 93.3197C157.94 88.4997 152.75 82.0697 147.03 83.2897C141.39 84.4897 139.21 91.0497 142.56 95.4797V95.4697Z" fill="#FFB573"/>
<path d="M143.549 90.6495L139.519 85.9395C139.519 85.9395 134.189 89.8595 136.609 92.2295C135.009 95.9795 141.349 101.219 146.889 100.139C147.529 96.7594 142.599 90.9695 142.599 90.9695C142.899 90.8795 143.219 90.7595 143.549 90.6395V90.6495Z" fill="#263238"/>
<path d="M143.34 100.5C144.5 101.44 145.99 101.76 147.21 101.6C149.04 101.37 149.26 99.5396 148.16 98.1696C147.17 96.9396 145.02 95.5796 143.47 96.4996C141.94 97.4096 142.02 99.4196 143.35 100.5H143.34Z" fill="#FFB573"/>
<path d="M150.39 92.0186C150.64 92.3986 151.04 92.5686 151.29 92.3986C151.53 92.2286 151.53 91.7886 151.28 91.4186C151.03 91.0386 150.63 90.8686 150.38 91.0386C150.14 91.2086 150.14 91.6486 150.39 92.0186Z" fill="#263238"/>
<path d="M154.62 89.1397C154.87 89.5197 155.27 89.6897 155.52 89.5197C155.76 89.3497 155.76 88.9097 155.51 88.5397C155.26 88.1597 154.86 87.9897 154.61 88.1597C154.37 88.3297 154.37 88.7697 154.62 89.1397Z" fill="#263238"/>
<path d="M153.401 90.2402C153.401 90.2402 155.661 91.7402 157.281 92.1102C157.021 93.1402 155.701 93.6202 155.701 93.6202L153.391 90.2402H153.401Z" fill="#ED893E"/>
<path d="M152.23 96.1701C152.07 96.2601 151.9 96.3601 151.73 96.4901C151.67 96.5301 151.66 96.6201 151.7 96.6801C151.74 96.7401 151.83 96.7501 151.88 96.7101C153.49 95.5401 155.04 96.1201 155.06 96.1301C155.13 96.1601 155.2 96.1301 155.23 96.0501C155.26 95.9801 155.23 95.9001 155.15 95.8801C155.09 95.8601 153.75 95.3601 152.22 96.1801L152.23 96.1701Z" fill="#263238"/>
<path d="M147.5 90.7796C147.59 90.7796 147.69 90.7396 147.74 90.6596C148.38 89.6596 149.36 89.6296 149.37 89.6296C149.52 89.6296 149.64 89.5096 149.63 89.3596C149.62 89.2096 149.51 89.0996 149.36 89.0996C149.31 89.0996 148.08 89.1296 147.28 90.3696C147.2 90.4896 147.24 90.6596 147.36 90.7396C147.4 90.7696 147.44 90.7796 147.49 90.7796H147.5Z" fill="#263238"/>
<path d="M154.67 85.7304C154.67 85.7304 154.69 85.6304 154.67 85.5804C154.63 85.4404 154.48 85.3504 154.34 85.3904C152.93 85.7804 152.56 86.9504 152.54 87.0004C152.5 87.1404 152.57 87.2904 152.71 87.3304C152.85 87.3704 153 87.3004 153.04 87.1604C153.05 87.1104 153.35 86.2204 154.48 85.9004C154.57 85.8804 154.63 85.8104 154.66 85.7304H154.67Z" fill="#263238"/>
<path d="M142.6 90.9795C142.6 90.9795 153.16 86.5395 153.8 81.4795C154.45 76.4195 149.99 78.4895 149.99 78.4895C149.99 78.4895 152.05 78.3495 151.85 79.8495C151.85 79.8495 148.28 77.4195 144.89 79.5095C144.89 79.5095 146.48 79.4795 147.31 80.6595C147.31 80.6595 144.08 81.2895 140.46 83.9695C136.84 86.6495 130.34 96.2595 142.59 90.9795H142.6Z" fill="#263238"/>
<path opacity="0.3" d="M164.86 164.019L147.65 162.039C147.65 162.039 154.46 160.919 165.24 161.319L164.86 164.019Z" fill="black"/>
<path opacity="0.1" d="M135.32 130.459C135.26 129.759 135.21 129.059 135.15 128.359C135.11 127.809 135.06 127.249 135.01 126.699C134.86 125.299 134.7 123.899 134.5 122.519C134.45 122.139 134.39 121.759 134.33 121.389C134.79 121.019 135.3 120.679 135.84 120.379C135.84 120.379 136.82 125.429 135.32 130.459Z" fill="black"/>
<path d="M106.65 155.029L103.66 162.049L110.13 163.649C110.13 163.649 112.91 159.039 110.2 155.519L106.65 155.029Z" fill="#EBB376"/>
<path d="M104.12 167.449L109.23 167.489L110.13 163.649L103.66 162.039L104.12 167.449Z" fill="#EBB376"/>
<path d="M135.759 117.799C136.199 122.199 134.699 123.989 134.699 123.989C134.699 123.989 130.439 126.669 128.589 128.039C127.019 129.219 125.479 130.429 124.019 131.629C123.299 132.239 122.599 132.849 121.959 133.459C121.329 134.059 120.739 134.689 120.359 135.169C120.189 135.359 120.019 135.679 119.849 135.959C119.669 136.249 119.479 136.689 119.279 137.049C118.889 137.859 118.499 138.709 118.129 139.609C117.389 141.399 116.689 143.259 116.029 145.149C114.639 148.909 113.359 152.789 112.029 156.599L106.119 155.199C106.719 151.049 107.529 147.009 108.469 142.909C108.959 140.869 109.509 138.829 110.139 136.759C110.449 135.719 110.809 134.669 111.209 133.589C111.449 133.019 111.639 132.509 111.939 131.899C112.259 131.279 112.549 130.679 112.979 130.039C113.779 128.839 114.559 127.939 115.359 127.069C116.149 126.209 116.939 125.419 117.739 124.649C119.329 123.119 120.959 121.729 122.619 120.389C125.929 117.699 129.249 115.239 132.809 112.869C132.809 112.869 135.369 113.829 135.769 117.819L135.759 117.799Z" fill="#407BFF"/>
<path opacity="0.7" d="M135.759 117.799C136.199 122.199 134.699 123.989 134.699 123.989C134.699 123.989 130.439 126.669 128.589 128.039C127.019 129.219 125.479 130.429 124.019 131.629C123.299 132.239 122.599 132.849 121.959 133.459C121.329 134.059 120.739 134.689 120.359 135.169C120.189 135.359 120.019 135.679 119.849 135.959C119.669 136.249 119.479 136.689 119.279 137.049C118.889 137.859 118.499 138.709 118.129 139.609C117.389 141.399 116.689 143.259 116.029 145.149C114.639 148.909 113.359 152.789 112.029 156.599L106.119 155.199C106.719 151.049 107.529 147.009 108.469 142.909C108.959 140.869 109.509 138.829 110.139 136.759C110.449 135.719 110.809 134.669 111.209 133.589C111.449 133.019 111.639 132.509 111.939 131.899C112.259 131.279 112.549 130.679 112.979 130.039C113.779 128.839 114.559 127.939 115.359 127.069C116.149 126.209 116.939 125.419 117.739 124.649C119.329 123.119 120.959 121.729 122.619 120.389C125.929 117.699 129.249 115.239 132.809 112.869C132.809 112.869 135.369 113.829 135.769 117.819L135.759 117.799Z" fill="white"/>
<path d="M149.19 111.9L151.41 115.39C151.41 115.39 143.66 124.79 128.82 127.89L127.83 130.91L130.98 131.74C130.98 131.74 147 127.59 153.4 115.57L156.7 111.89L152.81 110.58L149.18 111.9H149.19Z" fill="#407BFF"/>
<path d="M142 109.8L145.62 106.64L152.82 110.59L153.65 106.27L157.45 108.46L158.54 114.04L153.23 111.74L148.49 115.98L142 109.8Z" fill="#407BFF"/>
<path opacity="0.6" d="M142 109.8L145.62 106.64L152.82 110.59L153.65 106.27L157.45 108.46L158.54 114.04L153.23 111.74L148.49 115.98L142 109.8Z" fill="white"/>
<path d="M241.19 47.25C241.19 47.25 234.47 55.59 227.64 54.9C220.82 54.21 217.33 56.98 217.33 56.98L216.66 60.31L220.32 59.82C220.32 59.82 220.32 57.18 227.44 57.48C234.56 57.78 239.9 51.65 241.98 48.88L241.19 47.26V47.25Z" fill="#407BFF"/>
<path d="M289.49 33.3911L289.35 32.7311C289.28 32.4711 289.32 32.4411 289.07 31.7911C288.68 30.7811 288.02 29.9411 287.44 29.4211C286.24 28.3411 285.24 27.9611 284.38 27.6211C282.67 27.0111 281.31 26.8211 279.96 26.6611C278.62 26.5111 277.36 26.4411 276.11 26.4111C273.62 26.3411 271.22 26.4611 268.84 26.6111C264.07 26.9311 259.48 27.4911 254.77 28.3011L256.49 38.1511C260.8 37.4611 265.3 36.8311 269.65 36.3811C271.83 36.1611 274.01 36.0211 276.09 35.9611C277.13 35.9311 278.15 35.9411 279.1 36.0011C279.76 36.0411 280.42 36.1111 280.91 36.2011C280.94 36.5411 280.95 36.9111 280.94 37.3011C280.88 39.0011 280.45 40.9911 279.87 42.9711C278.7 46.9511 276.85 51.0911 274.95 54.9611L279.7 58.1211C282.73 54.2911 285.23 50.3011 287.29 45.7211C288.28 43.4111 289.15 40.9711 289.55 38.1111C289.74 36.6811 289.81 35.1111 289.5 33.3811L289.49 33.3911Z" fill="#407BFF"/>
<path opacity="0.7" d="M289.54 38.1211C289.22 40.4811 288.56 42.5611 287.79 44.5111C287.63 44.9211 287.46 45.3311 287.29 45.7311C285.22 50.3111 282.72 54.2911 279.69 58.1211L274.95 54.9611C276.85 51.0911 278.69 46.9611 279.87 42.9711C280.27 41.6011 280.6 40.2211 280.78 38.9411C280.87 38.3711 280.92 37.8211 280.94 37.3011C280.95 36.9111 280.94 36.5411 280.91 36.2011C280.42 36.1111 279.76 36.0411 279.1 36.0011C278.15 35.9411 277.13 35.9411 276.09 35.9611C276.01 35.9611 275.94 35.9711 275.86 35.9711C273.84 36.0411 271.75 36.1811 269.64 36.3911C265.42 36.8311 261.08 37.4311 256.89 38.1011C256.75 38.1211 256.62 38.1411 256.49 38.1611L254.77 28.3011C259.49 27.4911 264.07 26.9311 268.84 26.6111C271.22 26.4611 273.62 26.3411 276.11 26.4111C277.36 26.4411 278.62 26.5111 279.96 26.6611C281.31 26.8311 282.67 27.0211 284.38 27.6211C285.24 27.9611 286.23 28.3411 287.44 29.4211C288.02 29.9411 288.68 30.7811 289.07 31.7911C289.31 32.4411 289.28 32.4711 289.35 32.7311L289.49 33.3911C289.8 35.1211 289.73 36.6811 289.54 38.1211Z" fill="white"/>
<path opacity="0.1" d="M275.859 35.971C273.839 36.041 271.749 36.181 269.639 36.391C265.419 36.831 261.079 37.431 256.889 38.101C258.419 34.341 259.989 30.541 259.989 30.541C259.989 30.541 266.989 31.211 275.859 35.971Z" fill="black"/>
<path opacity="0.1" d="M287.789 44.5114C287.629 44.9214 287.459 45.3314 287.289 45.7314C285.219 50.3114 282.719 54.2914 279.689 58.1214L274.949 54.9614C276.849 51.0914 278.689 46.9614 279.869 42.9714C280.269 41.6014 280.599 40.2214 280.779 38.9414C283.089 40.4914 285.449 42.3314 287.789 44.5114Z" fill="black"/>
<path d="M223.88 35.371C224.15 35.721 224.19 36.141 223.97 36.321C223.74 36.501 223.34 36.361 223.07 36.021C222.8 35.671 222.76 35.251 222.98 35.071C223.21 34.891 223.61 35.031 223.88 35.371Z" fill="#263238"/>
<path d="M224.23 36.1211C224.23 36.1211 225.02 38.7411 224.91 40.3811C225.97 40.4711 226.81 39.3911 226.81 39.3911L224.23 36.1211Z" fill="#DE5753"/>
<path d="M223.629 32.4495C223.629 32.4495 223.689 32.3395 223.689 32.2695C223.689 32.1295 223.559 32.0195 223.419 32.0195C221.989 32.0795 221.369 33.0995 221.349 33.1495C221.279 33.2695 221.319 33.4295 221.439 33.4995C221.559 33.5695 221.719 33.5295 221.789 33.4095C221.789 33.4095 222.299 32.5895 223.439 32.5295C223.509 32.5295 223.579 32.4895 223.629 32.4395V32.4495Z" fill="#263238"/>
<path d="M233.84 30.0198C237.14 32.3998 243.47 36.1698 247.06 34.7398C247.06 34.7398 250.29 37.4298 247.19 44.1698C243.78 51.5898 241.88 46.0198 241.88 46.0198C242.77 41.5298 239.72 40.2498 236.58 39.6598L233.85 30.0098L233.84 30.0198Z" fill="#E4897B"/>
<path d="M234.839 25.5304C237.929 29.9804 239.969 32.4304 239.549 36.3004C238.909 42.1304 232.139 44.3204 227.779 40.8804C223.849 37.7904 219.449 31.0204 222.279 26.0504C225.059 21.1504 231.759 21.0704 234.849 25.5204L234.839 25.5304Z" fill="#E4897B"/>
<path d="M239.809 32.8802C239.349 35.4002 230.849 38.8502 226.999 33.4102C226.999 33.4102 222.159 33.3702 219.259 30.4602C216.349 27.5402 216.979 24.3802 219.579 22.6602C221.879 21.1402 227.819 9.98019 234.739 17.9502C242.249 17.6402 240.399 29.7302 239.819 32.8802H239.809Z" fill="#263238"/>
<path d="M225.46 21.46C225.46 21.46 221 21.24 218.43 23.29C215.86 25.33 216.58 31.6 217.57 32.79C218.56 33.98 219.61 33.97 219.61 33.97C219.61 33.97 218.09 33.18 218.09 32.03C218.09 32.03 218.75 33.58 221.78 33.97C221.78 33.97 220.92 33.28 221.05 32.4C221.05 32.4 222.69 34.53 226.49 32.4C230.29 30.27 225.45 21.46 225.45 21.46H225.46Z" fill="#263238"/>
<path d="M229.249 32.4707C230.069 33.6307 230.389 35.0807 230.319 36.2607C230.209 38.0307 228.729 38.1707 227.569 37.0507C226.519 36.0507 225.319 33.9207 225.999 32.4407C226.669 30.9907 228.319 31.1407 229.249 32.4707Z" fill="#E4897B"/>
<path d="M238.129 47.2493C238.129 47.2493 237.299 37.1793 243.869 31.5293L251.699 32.2493C251.699 32.2493 247.189 43.2593 238.129 47.2493Z" fill="#407BFF"/>
<path opacity="0.6" d="M238.129 47.2493C238.129 47.2493 237.299 37.1793 243.869 31.5293L251.699 32.2493C251.699 32.2493 247.189 43.2593 238.129 47.2493Z" fill="white"/>
<path d="M260.7 69.8996C260.7 69.8996 248.86 58.2796 235.77 50.1396C235.77 50.1396 244.49 29.6696 255.53 27.8496C255.53 27.8496 284.06 36.4696 292.34 59.8196L260.7 69.8996Z" fill="#407BFF"/>
<path d="M262.2 140.799L257.1 142.969L251.57 131.359L256.68 129.189L262.2 140.799Z" fill="#E4897B"/>
<path d="M292.34 59.8105L289.33 91.7805C287.67 93.0105 285.04 93.9605 281.85 94.7005C275.61 96.1505 267.29 96.8105 260.1 97.2005C252.03 97.6405 245.4 97.7205 244.8 98.1905C243.4 99.2805 261.17 135.991 261.17 135.991L252.69 137.051C252.69 137.051 230.4 106.471 227.51 95.8505C226.45 91.9305 225.38 87.0205 232.58 82.4305C238.92 78.3905 262.52 75.3605 262.52 75.3605L260.7 69.9105L292.34 59.8305V59.8105Z" fill="#263238"/>
<path opacity="0.2" d="M281.849 94.6999C275.609 96.1499 267.289 96.8099 260.099 97.1999C259.129 85.3999 265.059 74.0899 265.059 74.0899L273.499 71.9199L281.839 94.6999H281.849Z" fill="black"/>
<path d="M336.59 136.1L337.5 141.57L324.91 144.21L324 138.73L336.59 136.1Z" fill="#E4897B"/>
<path d="M337.761 141.771C337.761 141.771 337.661 141.721 337.611 141.741C337.561 141.761 337.531 141.811 337.531 141.871C337.531 141.961 337.611 144.201 338.311 144.851C338.451 144.981 338.611 145.051 338.791 145.041C339.101 145.031 339.231 144.881 339.281 144.751C339.431 144.391 339.151 143.751 338.781 143.141C338.431 142.581 338.001 142.041 337.751 141.771H337.761ZM337.821 142.241C338.491 143.041 339.211 144.241 339.041 144.651C339.021 144.701 338.971 144.771 338.781 144.781C338.681 144.781 338.581 144.741 338.491 144.661C338.431 144.611 338.381 144.541 338.331 144.461C337.991 143.911 337.861 142.821 337.821 142.241Z" fill="#407BFF"/>
<path d="M337.72 141.74C337.72 141.74 337.63 141.73 337.59 141.76C337.54 141.8 336.35 142.71 336.22 143.61C336.18 143.89 336.25 144.13 336.41 144.35C336.63 144.64 336.84 144.63 336.98 144.57C337.57 144.33 337.89 142.57 337.8 141.84C337.8 141.82 337.8 141.8 337.78 141.79C337.77 141.77 337.74 141.75 337.72 141.74ZM336.48 143.65C336.56 143.06 337.22 142.42 337.55 142.13C337.55 142.93 337.23 144.19 336.88 144.34C336.85 144.35 336.76 144.39 336.62 144.2C336.6 144.18 336.59 144.16 336.58 144.13C336.49 143.99 336.46 143.83 336.49 143.65H336.48Z" fill="#407BFF"/>
<path d="M336.811 141.699L333.631 136.539C333.511 136.349 333.541 136.099 333.711 135.939L337.331 132.419C337.711 132.059 338.321 132.129 338.591 132.579C339.701 134.459 341.251 137.219 342.691 139.559C344.371 142.299 345.981 144.569 347.951 147.769C349.141 149.709 347.521 151.459 346.841 150.749C343.751 147.549 341.811 144.589 337.871 142.609C337.441 142.389 337.051 142.109 336.801 141.699H336.811Z" fill="#263238"/>
<path d="M292.34 59.8108C292.34 59.8108 302.5 85.9408 285.36 96.0808C285.36 96.0808 285.14 126.281 289.48 129.811C294.76 134.121 333.39 136.311 333.39 136.311L333.05 145.901C333.05 145.901 291.69 149.291 279.17 144.791C264.51 139.531 261.24 70.3408 261.24 70.3408L292.35 59.8008L292.34 59.8108Z" fill="#263238"/>
<path opacity="0.2" d="M280.59 75.8602L286.76 73.9902C286.76 73.9902 287.61 79.3002 287.6 82.1502L284.74 84.6102L282.03 83.7502C282.03 83.7502 281.29 78.0702 280.59 75.8702V75.8602Z" fill="black"/>
<path d="M262.741 69.9199L263.541 72.4599L261.251 73.1699L260.451 70.6499L262.741 69.9199Z" fill="#263238"/>
<path d="M273.272 66.541L274.132 69.171L264.682 72.111L263.842 69.561L273.272 66.541Z" fill="#263238"/>
<path d="M285.04 62.7715L285.9 65.5215L275.33 68.8015L274.49 66.1515L285.04 62.7715Z" fill="#263238"/>
<path d="M293.642 63.1205L287.132 65.1405H287.122L286.252 62.3805L292.712 60.3105L293.642 63.1205Z" fill="#263238"/>
<g opacity="0.2">
<path d="M262.741 69.9199L263.541 72.4599L261.251 73.1699L260.451 70.6499L262.741 69.9199Z" fill="white"/>
<path d="M273.272 66.541L274.132 69.171L264.682 72.111L263.842 69.561L273.272 66.541Z" fill="white"/>
<path d="M285.04 62.7715L285.9 65.5215L275.33 68.8015L274.49 66.1515L285.04 62.7715Z" fill="white"/>
<path d="M293.642 63.1205L287.132 65.1405H287.122L286.252 62.3805L292.712 60.3105L293.642 63.1205Z" fill="white"/>
</g>
<path d="M255.53 141.351C255.58 141.341 255.62 141.291 255.63 141.241C255.63 141.191 255.61 141.131 255.56 141.111C255.48 141.061 253.51 140.011 252.59 140.281C252.4 140.341 252.26 140.441 252.18 140.601C252.03 140.881 252.1 141.061 252.18 141.171C252.42 141.481 253.11 141.571 253.82 141.551C254.48 141.531 255.17 141.431 255.52 141.351H255.53ZM255.1 141.171C254.07 141.341 252.67 141.371 252.4 141.011C252.37 140.961 252.33 140.881 252.42 140.721C252.47 140.631 252.55 140.571 252.67 140.531C252.75 140.511 252.83 140.501 252.92 140.491C253.57 140.471 254.57 140.911 255.09 141.161L255.1 141.171Z" fill="#407BFF"/>
<path d="M255.58 141.33C255.58 141.33 255.64 141.26 255.63 141.21C255.63 141.15 255.44 139.66 254.72 139.09C254.5 138.92 254.25 138.85 253.99 138.88C253.63 138.93 253.53 139.11 253.51 139.26C253.42 139.89 254.78 141.06 255.46 141.34C255.48 141.34 255.5 141.35 255.51 141.35C255.54 141.35 255.56 141.35 255.59 141.32L255.58 141.33ZM254.56 139.3C255.03 139.67 255.25 140.56 255.33 140.99C254.64 140.6 253.71 139.67 253.77 139.3C253.77 139.27 253.79 139.18 254.02 139.15C254.05 139.15 254.07 139.15 254.1 139.15C254.27 139.15 254.42 139.2 254.56 139.31V139.3Z" fill="#407BFF"/>
<path d="M256.071 140.57L262.131 140.43C262.361 140.43 262.561 140.58 262.611 140.8L263.821 145.71C263.951 146.22 263.571 146.71 263.051 146.72C260.861 146.73 257.701 146.68 254.961 146.75C251.751 146.83 248.981 147.07 245.211 147.16C242.931 147.21 242.251 144.93 243.191 144.7C247.511 143.65 251.051 143.46 254.741 141.06C255.141 140.8 255.591 140.61 256.071 140.6V140.57Z" fill="#263238"/>
<path opacity="0.7" d="M292.34 59.8196L260.7 69.8996C260.7 69.8996 255.12 64.4296 247.39 58.3596C245.92 57.2096 244.38 56.0396 242.78 54.8796C240.53 53.2396 238.17 51.6296 235.77 50.1396C235.77 50.1396 244.49 29.6696 255.53 27.8496C255.53 27.8496 284.06 36.4596 292.34 59.8196Z" fill="white"/>
<path opacity="0.1" d="M247.391 58.3598C245.921 57.2098 244.381 56.0398 242.781 54.8798L243.401 53.0098C243.401 53.0098 246.061 55.2498 247.391 58.3598Z" fill="black"/>
<path d="M201.68 79.2407L199.5 79.7607C198.96 79.8907 198.54 80.3307 198.45 80.8907L197.96 83.9307C197.86 84.5707 198.21 85.2007 198.81 85.4407L200.4 86.0807C200.4 86.0807 205 89.4007 208.89 87.2607L207.21 82.8107L203.92 79.8307C203.31 79.2807 202.47 79.0607 201.67 79.2507L201.68 79.2407Z" fill="#E4897B"/>
<path d="M241.39 50.9508C244.19 52.6308 244.43 56.0908 244.43 56.0908C244.43 56.0908 242.23 62.0508 240.96 65.0208C240.09 67.0308 239.2 69.0508 238.15 71.0608C237.07 73.0908 236.03 75.0708 234.26 77.2708L233.92 77.6808L233.51 78.1208C233.26 78.4008 232.9 78.7308 232.54 79.0408C232.39 79.1808 232.11 79.3808 231.88 79.5408C231.65 79.7008 231.34 79.9108 231.24 79.9408L230.39 80.3808C229.29 80.9308 228.26 81.3708 227.22 81.7908C225.17 82.6308 223.13 83.3608 221.09 84.0708C217 85.4408 212.93 86.6908 208.75 87.7408L206.77 82.3908C210.52 80.4708 214.34 78.6508 218.07 76.7808C219.94 75.8508 221.8 74.9208 223.58 73.9808C224.46 73.5108 225.34 73.0208 226.09 72.5608L226.63 72.2208C226.78 72.1408 226.66 72.1808 226.65 72.1808C226.63 72.1808 226.58 72.2408 226.61 72.1908C226.64 72.1408 226.67 72.1208 226.77 71.9908L226.89 71.8408L227.03 71.6308C227.84 70.4508 228.76 68.6508 229.55 66.8908C230.34 65.0908 231.14 63.2208 231.87 61.3108C233.32 57.5108 234.72 53.5408 236.02 49.7008C236.02 49.7008 238.42 49.1708 241.38 50.9508H241.39Z" fill="#407BFF"/>
<path opacity="0.7" d="M241.39 50.9508C244.19 52.6308 244.43 56.0908 244.43 56.0908C244.43 56.0908 242.23 62.0508 240.96 65.0208C240.09 67.0308 239.2 69.0508 238.15 71.0608C237.07 73.0908 236.03 75.0708 234.26 77.2708L233.92 77.6808L233.51 78.1208C233.26 78.4008 232.9 78.7308 232.54 79.0408C232.39 79.1808 232.11 79.3808 231.88 79.5408C231.65 79.7008 231.34 79.9108 231.24 79.9408L230.39 80.3808C229.29 80.9308 228.26 81.3708 227.22 81.7908C225.17 82.6308 223.13 83.3608 221.09 84.0708C217 85.4408 212.93 86.6908 208.75 87.7408L206.77 82.3908C210.52 80.4708 214.34 78.6508 218.07 76.7808C219.94 75.8508 221.8 74.9208 223.58 73.9808C224.46 73.5108 225.34 73.0208 226.09 72.5608L226.63 72.2208C226.78 72.1408 226.66 72.1808 226.65 72.1808C226.63 72.1808 226.58 72.2408 226.61 72.1908C226.64 72.1408 226.67 72.1208 226.77 71.9908L226.89 71.8408L227.03 71.6308C227.84 70.4508 228.76 68.6508 229.55 66.8908C230.34 65.0908 231.14 63.2208 231.87 61.3108C233.32 57.5108 234.72 53.5408 236.02 49.7008C236.02 49.7008 238.42 49.1708 241.38 50.9508H241.39Z" fill="white"/>
<path d="M58.5117 316.301H227.392L316.772 244.101L320.692 248.951H342.702L365.122 145.721L343.102 145.771L343.112 145.721L237.472 145.931L250.082 161.541L58.5117 316.301Z" fill="#407BFF"/>
<path opacity="0.2" d="M58.5117 316.301H205.382L308.072 233.341L320.692 248.951L343.112 145.721L237.472 145.931L250.082 161.541L58.5117 316.301Z" fill="white"/>
<path d="M55.0708 310.34H176.331C176.271 309.83 176.241 309.31 176.241 308.78C176.241 300.99 182.551 294.68 190.341 294.68C190.511 294.68 190.681 294.7 190.851 294.71C192.621 289.97 197.171 286.59 202.531 286.59C209.421 286.59 215.001 292.17 215.001 299.06C215.001 299.06 215.001 299.08 215.001 299.09C221.111 299.37 226.001 304.25 226.321 310.35H226.891C230.341 310.35 233.161 313.17 233.161 316.62C233.161 320.07 230.341 322.89 226.891 322.89H55.0708C51.6208 322.89 48.8008 320.07 48.8008 316.62C48.8008 313.17 51.6208 310.35 55.0708 310.35V310.34Z" fill="#407BFF"/>
<path opacity="0.7" d="M55.0708 310.34H176.331C176.271 309.83 176.241 309.31 176.241 308.78C176.241 300.99 182.551 294.68 190.341 294.68C190.511 294.68 190.681 294.7 190.851 294.71C192.621 289.97 197.171 286.59 202.531 286.59C209.421 286.59 215.001 292.17 215.001 299.06C215.001 299.06 215.001 299.08 215.001 299.09C221.111 299.37 226.001 304.25 226.321 310.35H226.891C230.341 310.35 233.161 313.17 233.161 316.62C233.161 320.07 230.341 322.89 226.891 322.89H55.0708C51.6208 322.89 48.8008 320.07 48.8008 316.62C48.8008 313.17 51.6208 310.35 55.0708 310.35V310.34Z" fill="white"/>
</g>
<defs>
<clipPath id="clip0_146_275">
<rect width="409" height="323" fill="white"/>
</clipPath>
</defs>
</svg>
