<svg width="2302" height="1495" viewBox="0 0 2302 1495" fill="none" xmlns="http://www.w3.org/2000/svg">
<g clip-path="url(#clip0_146_119)">
<path d="M2088.62 1262.36L137.27 1401.47V0L2091.84 571.57L2088.62 1262.36Z" fill="url(#paint0_linear_146_119)"/>
<path d="M761.139 1356.34L271.299 1391.78L271.889 535.66L763.549 613.47L761.139 1356.34Z" fill="white"/>
<path d="M789.819 597.93L240.459 507.6L240.589 273.91L790.489 398.66L789.819 597.93Z" fill="#D8DEE8"/>
<path d="M789.759 615.191L240.449 527.841L240.509 412.721L790.089 517.021L789.759 615.191Z" fill="white"/>
<path d="M789.859 583.801L240.469 491.031L240.479 472.961L789.919 568.391L789.859 583.801Z" fill="#D8DEE8"/>
<path d="M789.978 549.5L240.488 450.81L240.498 432.74L790.028 534.08L789.978 549.5Z" fill="#D8DEE8"/>
<path d="M749.46 1357.18L286.68 1390.66L287.34 538.1L751.84 611.61L749.46 1357.18Z" fill="#97A6B7"/>
<path d="M1220.79 1323.08L868.35 1348.58L871.08 630.49L1224.39 686.4L1220.79 1323.08Z" fill="white"/>
<path d="M1243.74 672.569L849.07 607.669L849.79 412.109L1244.72 501.709L1243.74 672.569Z" fill="#D8DEE8"/>
<path d="M1243.65 687.37L849.01 624.609L849.36 528.27L1244.14 603.18L1243.65 687.37Z" fill="white"/>
<path d="M1243.81 660.45L849.119 593.81L849.179 578.68L1243.88 647.24L1243.81 660.45Z" fill="#D8DEE8"/>
<path d="M1243.98 631.039L849.25 560.14L849.3 545.02L1244.05 617.82L1243.98 631.039Z" fill="#D8DEE8"/>
<path d="M1212.21 1323.7L879.189 1347.8L881.949 632.209L1215.79 685.039L1212.21 1323.7Z" fill="#97A6B7"/>
<path d="M1624.63 1294.65L1323.42 1316.44L1325.76 702.729L1627.7 750.519L1624.63 1294.65Z" fill="white"/>
<path d="M1644.24 738.699L1306.94 683.239L1307.56 516.109L1645.08 592.679L1644.24 738.699Z" fill="#D8DEE8"/>
<path d="M1644.17 751.349L1306.89 697.719L1307.2 615.379L1644.58 679.399L1644.17 751.349Z" fill="white"/>
<path d="M1644.3 728.339L1306.99 671.389L1307.04 658.459L1644.36 717.049L1644.3 728.339Z" fill="#D8DEE8"/>
<path d="M1644.44 703.209L1307.09 642.619L1307.14 629.689L1644.51 691.909L1644.44 703.209Z" fill="#D8DEE8"/>
<path d="M1617.29 1295.18L1332.68 1315.77L1335.05 704.199L1620.35 749.359L1617.29 1295.18Z" fill="#97A6B7"/>
<path d="M1970.31 1270.9L1711.54 1289.62L1713.55 762.381L1972.95 803.431L1970.31 1270.9Z" fill="white"/>
<path d="M1987.16 793.281L1697.39 745.631L1697.92 602.051L1987.88 667.831L1987.16 793.281Z" fill="#D8DEE8"/>
<path d="M1987.1 804.15L1697.34 758.07L1697.6 687.33L1987.45 742.33L1987.1 804.15Z" fill="white"/>
<path d="M1987.21 784.38L1697.42 735.45L1697.47 724.34L1987.27 774.68L1987.21 784.38Z" fill="#D8DEE8"/>
<path d="M1987.34 762.791L1697.52 710.731L1697.56 699.631L1987.39 753.081L1987.34 762.791Z" fill="#D8DEE8"/>
<path d="M1964.01 1271.35L1719.5 1289.04L1721.53 763.641L1966.64 802.431L1964.01 1271.35Z" fill="#97A6B7"/>
<path d="M137.27 0L0 4.8V1388.78L137.27 1401.42V0Z" fill="url(#paint1_linear_146_119)"/>
<path d="M1414.17 1263.96V1313.48C1414.17 1318.09 1417.66 1321.95 1422.24 1322.41L1929.29 1370.46L1997.54 1415.63L2091.78 1290.26L1414.16 1263.95L1414.17 1263.96Z" fill="url(#paint2_linear_146_119)"/>
<path d="M1802.83 1332.03V1376.36C1802.83 1380.08 1805.53 1383.24 1809.2 1383.83L1930.93 1403.39L1927.39 1331.93L1810.88 1324.48C1806.52 1324.2 1802.83 1327.66 1802.83 1332.03Z" fill="url(#paint3_linear_146_119)"/>
<path d="M1465.54 1286.81C1465.13 1286.81 1464.72 1286.84 1464.31 1286.89L1457.87 1286.81L1457.91 1289.64C1451.67 1294.52 1447.34 1305.18 1447.34 1317.56C1447.34 1329.94 1452.02 1341.44 1458.65 1346.03L1458.68 1348.31H1465.53C1475.58 1348.31 1483.72 1334.54 1483.72 1317.56C1483.72 1300.58 1475.58 1286.81 1465.53 1286.81H1465.54Z" fill="url(#paint4_linear_146_119)"/>
<path d="M1457.87 1348.31C1467.92 1348.31 1476.06 1334.54 1476.06 1317.56C1476.06 1300.58 1467.92 1286.81 1457.87 1286.81C1447.82 1286.81 1439.68 1300.58 1439.68 1317.56C1439.68 1334.54 1447.82 1348.31 1457.87 1348.31Z" fill="url(#paint5_linear_146_119)"/>
<path d="M1465.54 1317.56C1465.54 1327.1 1460.96 1334.84 1455.32 1334.84C1449.68 1334.84 1445.1 1327.11 1445.1 1317.56C1445.1 1308.01 1449.68 1300.28 1455.32 1300.28C1460.96 1300.28 1465.54 1308.01 1465.54 1317.56Z" fill="#D8DEE8"/>
<path d="M1456.86 1333.6C1461.65 1333.6 1465.53 1326.42 1465.53 1317.56C1465.53 1308.7 1461.65 1301.52 1456.86 1301.52C1452.07 1301.52 1448.19 1308.7 1448.19 1317.56C1448.19 1326.42 1452.07 1333.6 1456.86 1333.6Z" fill="url(#paint6_linear_146_119)"/>
<path d="M1508.52 1290.27C1508.07 1290.27 1507.62 1290.3 1507.18 1290.35L1500.13 1290.27L1500.17 1293.37C1493.34 1298.71 1488.59 1310.39 1488.59 1323.96C1488.59 1337.53 1493.71 1350.13 1500.98 1355.15L1501.01 1357.65H1508.51C1519.52 1357.65 1528.44 1342.57 1528.44 1323.96C1528.44 1305.35 1519.52 1290.27 1508.51 1290.27H1508.52Z" fill="url(#paint7_linear_146_119)"/>
<path d="M1500.13 1357.65C1511.14 1357.65 1520.06 1342.57 1520.06 1323.96C1520.06 1305.35 1511.14 1290.27 1500.13 1290.27C1489.12 1290.27 1480.2 1305.35 1480.2 1323.96C1480.2 1342.57 1489.12 1357.65 1500.13 1357.65Z" fill="url(#paint8_linear_146_119)"/>
<path d="M1497.33 1342.89C1503.51 1342.89 1508.53 1334.42 1508.53 1323.96C1508.53 1313.51 1503.51 1305.03 1497.33 1305.03C1491.14 1305.03 1486.13 1313.51 1486.13 1323.96C1486.13 1334.42 1491.14 1342.89 1497.33 1342.89Z" fill="#D8DEE8"/>
<path d="M1499.02 1341.53C1504.27 1341.53 1508.52 1333.66 1508.52 1323.96C1508.52 1314.26 1504.27 1306.39 1499.02 1306.39C1493.77 1306.39 1489.52 1314.26 1489.52 1323.96C1489.52 1333.66 1493.77 1341.53 1499.02 1341.53Z" fill="url(#paint9_linear_146_119)"/>
<path d="M1554.41 1290.27C1553.92 1290.27 1553.43 1290.31 1552.94 1290.36L1545.24 1290.27L1545.29 1293.66C1537.83 1299.49 1532.65 1312.25 1532.65 1327.06C1532.65 1341.87 1538.24 1355.63 1546.18 1361.12L1546.22 1363.85H1554.41C1566.43 1363.85 1576.17 1347.38 1576.17 1327.06C1576.17 1306.74 1566.43 1290.27 1554.41 1290.27Z" fill="url(#paint10_linear_146_119)"/>
<path d="M1545.24 1363.84C1557.26 1363.84 1567 1347.37 1567 1327.05C1567 1306.73 1557.26 1290.26 1545.24 1290.26C1533.22 1290.26 1523.48 1306.73 1523.48 1327.05C1523.48 1347.37 1533.22 1363.84 1545.24 1363.84Z" fill="url(#paint11_linear_146_119)"/>
<path d="M1542.19 1347.72C1548.95 1347.72 1554.42 1338.46 1554.42 1327.05C1554.42 1315.63 1548.95 1306.38 1542.19 1306.38C1535.44 1306.38 1529.96 1315.63 1529.96 1327.05C1529.96 1338.46 1535.44 1347.72 1542.19 1347.72Z" fill="#D8DEE8"/>
<path d="M1554.41 1327.05C1554.41 1337.65 1549.76 1346.24 1544.03 1346.24C1538.3 1346.24 1533.65 1337.65 1533.65 1327.05C1533.65 1316.45 1538.3 1307.86 1544.03 1307.86C1549.76 1307.86 1554.41 1316.45 1554.41 1327.05Z" fill="url(#paint12_linear_146_119)"/>
<path d="M1765.99 1309.45C1765.36 1309.45 1764.74 1309.5 1764.12 1309.57L1754.29 1309.45L1754.35 1313.78C1744.83 1321.23 1738.21 1337.51 1738.21 1356.42C1738.21 1375.33 1745.35 1392.89 1755.49 1399.9L1755.54 1403.38H1766C1781.34 1403.38 1793.78 1382.35 1793.78 1356.42C1793.78 1330.49 1781.34 1309.46 1766 1309.46L1765.99 1309.45Z" fill="url(#paint13_linear_146_119)"/>
<path d="M1754.29 1403.38C1769.63 1403.38 1782.07 1382.36 1782.07 1356.42C1782.07 1330.49 1769.63 1309.46 1754.29 1309.46C1738.95 1309.46 1726.51 1330.49 1726.51 1356.42C1726.51 1382.36 1738.95 1403.38 1754.29 1403.38Z" fill="url(#paint14_linear_146_119)"/>
<path d="M1750.38 1382.8C1759 1382.8 1765.99 1370.99 1765.99 1356.42C1765.99 1341.85 1759 1330.04 1750.38 1330.04C1741.76 1330.04 1734.77 1341.85 1734.77 1356.42C1734.77 1370.99 1741.76 1382.8 1750.38 1382.8Z" fill="#D8DEE8"/>
<path d="M1752.74 1380.91C1760.06 1380.91 1765.99 1369.95 1765.99 1356.42C1765.99 1342.9 1760.06 1331.93 1752.74 1331.93C1745.42 1331.93 1739.49 1342.9 1739.49 1356.42C1739.49 1369.95 1745.42 1380.91 1752.74 1380.91Z" fill="url(#paint15_linear_146_119)"/>
<path d="M1950.86 1316.88C1950.05 1316.88 1949.26 1316.94 1948.47 1317.03L1935.91 1316.88L1935.98 1322.41C1923.81 1331.92 1915.37 1352.73 1915.37 1376.88C1915.37 1401.03 1924.49 1423.47 1937.44 1432.42L1937.5 1436.87H1950.86C1970.46 1436.87 1986.35 1410.01 1986.35 1376.88C1986.35 1343.75 1970.46 1316.88 1950.86 1316.88Z" fill="url(#paint16_linear_146_119)"/>
<path d="M1935.91 1436.87C1955.51 1436.87 1971.4 1410.01 1971.4 1376.87C1971.4 1343.73 1955.51 1316.87 1935.91 1316.87C1916.31 1316.87 1900.42 1343.73 1900.42 1376.87C1900.42 1410.01 1916.31 1436.87 1935.91 1436.87Z" fill="url(#paint17_linear_146_119)"/>
<path d="M1930.92 1410.58C1941.93 1410.58 1950.86 1395.49 1950.86 1376.87C1950.86 1358.25 1941.93 1343.16 1930.92 1343.16C1919.91 1343.16 1910.98 1358.25 1910.98 1376.87C1910.98 1395.49 1919.91 1410.58 1930.92 1410.58Z" fill="#D8DEE8"/>
<path d="M1933.94 1408.16C1943.28 1408.16 1950.86 1394.15 1950.86 1376.87C1950.86 1359.59 1943.28 1345.58 1933.94 1345.58C1924.59 1345.58 1917.02 1359.59 1917.02 1376.87C1917.02 1394.15 1924.59 1408.16 1933.94 1408.16Z" fill="url(#paint18_linear_146_119)"/>
<path opacity="0.95" d="M1384.01 1000.34C1377.37 1001.44 1372.5 1007.19 1372.5 1013.92V1264.96C1372.5 1272.26 1378.2 1278.3 1385.5 1278.7L1857.35 1305.03V921.641L1384.01 1000.34Z" fill="url(#paint19_linear_146_119)"/>
<path opacity="0.95" d="M2123.43 930.6L1857.34 921.65V1305.04H2137.73V945.4C2137.73 937.42 2131.4 930.87 2123.42 930.6H2123.43Z" fill="url(#paint20_linear_146_119)"/>
<path style="mix-blend-mode:multiply" opacity="0.3" d="M1757.65 1208.66C1697.06 1180.75 1640.18 1223.35 1584.74 1182.18C1536.19 1146.13 1551.84 1092.69 1513.08 1029.52C1504.21 1015.06 1492.32 999.871 1476.08 985.041L1384 1000.35C1377.36 1001.45 1372.49 1007.2 1372.49 1013.93V1264.97C1372.49 1272.27 1378.19 1278.31 1385.49 1278.71L1833 1303.68C1812.46 1247.5 1784.56 1221.06 1757.65 1208.67V1208.66Z" fill="url(#paint21_linear_146_119)"/>
<path d="M2279.49 1183.74L2259.82 1134.28L2259.24 1093.39L2279.11 1089.42C2281.04 1089.03 2282.25 1087.13 2281.78 1085.22C2278.78 1073.16 2267.78 1033.33 2250.68 1020.18C2238.62 1010.91 2010.01 1008.13 2010.01 1008.13L1899.98 1015.28C1891.34 1015.84 1884.62 1023.02 1884.62 1031.68V1275.5C1884.62 1281.9 1889.51 1287.23 1895.89 1287.79L1971.42 1294.34L1986.37 1309.46C1986.37 1309.46 2200.45 1326.6 2285.88 1311.02C2290.31 1310.21 2293.53 1306.39 2293.53 1301.89V1194.65C2293.53 1179.07 2279.51 1183.74 2279.51 1183.74H2279.49Z" fill="#F4F7FA"/>
<path style="mix-blend-mode:multiply" opacity="0.8" d="M2047.39 1198.53C2047.39 1198.53 2045.05 1092.6 2047.39 1048.99C2048.52 1027.83 2037.92 1015.49 2026.71 1008.37C2016.25 1008.2 2010 1008.13 2010 1008.13L1899.97 1015.28C1891.33 1015.84 1884.61 1023.02 1884.61 1031.68V1275.5C1884.61 1281.9 1889.5 1287.23 1895.88 1287.79L1971.41 1294.34L1986.36 1309.46C1986.36 1309.46 2021.61 1312.28 2069.2 1314.6V1224.25L2047.39 1198.55V1198.53Z" fill="url(#paint22_linear_146_119)"/>
<path d="M2291.08 1330.02L2282.61 1327.06V1309.9C2282.61 1305.27 2278.86 1301.52 2274.23 1301.52H2009.12C2002.72 1301.52 1997.54 1306.7 1997.54 1313.1V1415.63C1997.54 1421.27 2002.23 1425.78 2007.86 1425.56L2291.74 1414.64C2297.08 1414.43 2301.3 1410.05 2301.3 1404.7V1344.42C2301.3 1337.93 2297.2 1332.15 2291.07 1330L2291.08 1330.02Z" fill="#97A6B7"/>
<path d="M2258.77 1241.92H2101.58C2096.29 1241.92 2092.1 1246.41 2092.47 1251.69L2101.13 1375.11C2101.56 1381.31 2106.83 1386.05 2113.04 1385.84L2248.09 1381.27C2253.99 1381.07 2258.79 1376.45 2259.22 1370.57L2267.88 1251.72C2268.26 1246.43 2264.08 1241.93 2258.78 1241.93L2258.77 1241.92Z" fill="url(#paint23_linear_146_119)"/>
<g style="mix-blend-mode:multiply" opacity="0.3">
<path d="M2291.08 1330.02L2282.61 1327.06V1309.9C2282.61 1306.24 2280.26 1303.15 2277 1302L2260.87 1377.86C2258.95 1386.89 2251.14 1393.47 2241.91 1393.83L2118.01 1398.65C2109.13 1399 2101.07 1393.49 2098.16 1385.09L2069.2 1301.53H2009.12C2002.72 1301.53 1997.54 1306.71 1997.54 1313.11V1415.64C1997.54 1421.28 2002.23 1425.79 2007.86 1425.57L2291.74 1414.65C2297.08 1414.44 2301.3 1410.06 2301.3 1404.71V1344.43C2301.3 1337.94 2297.2 1332.16 2291.07 1330.01L2291.08 1330.02Z" fill="#97A6B7"/>
</g>
<path d="M2082.44 1391.69L2052.96 1393.16C2034.66 1394.08 2018.93 1380.3 2017.42 1362.04L2016.23 1347.71H2075.25C2079.22 1347.71 2082.44 1350.93 2082.44 1354.9V1391.69Z" fill="url(#paint24_linear_146_119)"/>
<path d="M2272.61 1353.79L2267.9 1385.85C2267.9 1385.85 2298.98 1384.76 2298.2 1345.59L2278.91 1347.71C2275.67 1348.07 2273.08 1350.57 2272.6 1353.79H2272.61Z" fill="url(#paint25_linear_146_119)"/>
<path d="M2054.13 1199.91C2049.36 1199.91 2044.62 1198.37 2040.77 1195.54L2028.64 1186.66C2023.96 1183.23 2021.16 1177.72 2021.16 1171.92V1101.31C2021.16 1097.87 2022.67 1094.63 2025.3 1092.42C2027.93 1090.21 2031.38 1089.27 2034.76 1089.86L2046.65 1091.91L2260.45 1091.89L2281.03 1183.73L2278.59 1195.94L2277.38 1195.96L2054.53 1199.92C2054.4 1199.92 2054.26 1199.92 2054.13 1199.92V1199.91ZM2032.78 1092.69C2030.77 1092.69 2028.8 1093.4 2027.24 1094.72C2025.29 1096.36 2024.17 1098.76 2024.17 1101.31V1171.92C2024.17 1176.77 2026.51 1181.37 2030.42 1184.23L2042.55 1193.11C2045.99 1195.63 2050.18 1197.02 2054.49 1196.9L2276.13 1192.96L2277.97 1183.75L2258.05 1094.89H2046.4L2034.26 1092.82C2033.77 1092.73 2033.28 1092.69 2032.79 1092.69H2032.78Z" fill="#808080"/>
<path d="M2259.24 1093.39H2046.39L2034.5 1091.34C2028.31 1090.27 2022.66 1095.04 2022.66 1101.31V1171.92C2022.66 1177.27 2025.21 1182.29 2029.52 1185.45L2041.65 1194.33C2045.37 1197.06 2049.89 1198.49 2054.5 1198.41L2277.35 1194.45L2279.49 1183.74L2259.24 1093.39Z" fill="url(#paint26_linear_146_119)"/>
<path d="M2126.93 1068.85H2108.83C2106.08 1068.85 2103.86 1071.08 2103.86 1073.82V1081.4C2103.86 1084.15 2106.08 1086.37 2108.83 1086.37H2126.93C2129.67 1086.37 2131.9 1084.15 2131.9 1081.4V1073.82C2131.9 1071.08 2129.67 1068.85 2126.93 1068.85Z" fill="#97A6B7"/>
<path d="M2233.25 1068.85H2215.15C2212.4 1068.85 2210.18 1071.08 2210.18 1073.82V1081.4C2210.18 1084.15 2212.4 1086.37 2215.15 1086.37H2233.25C2235.99 1086.37 2238.22 1084.15 2238.22 1081.4V1073.82C2238.22 1071.08 2235.99 1068.85 2233.25 1068.85Z" fill="#97A6B7"/>
<g style="mix-blend-mode:overlay" opacity="0.3">
<path d="M2192.65 1143.62C2137.72 1122.61 2086.05 1148.8 2062.38 1120.25C2055.98 1112.53 2053.4 1102.93 2052.8 1093.38H2046.39L2034.5 1091.33C2028.31 1090.26 2022.66 1095.03 2022.66 1101.3V1171.91C2022.66 1177.26 2025.21 1182.28 2029.52 1185.44L2041.65 1194.32C2045.37 1197.05 2049.89 1198.48 2054.5 1198.4L2256.37 1194.81C2233.55 1164.05 2210.38 1150.4 2192.65 1143.62Z" fill="white"/>
</g>
<path d="M287.6 1224.14V1268.12L487.12 1287.03L530.63 1315.82L590.7 1235.91L287.6 1224.14Z" fill="url(#paint27_linear_146_119)"/>
<path d="M406.51 1262.52V1290.77C406.51 1293.14 408.23 1295.16 410.57 1295.53L488.17 1308L485.91 1262.45L411.64 1257.7C408.86 1257.52 406.51 1259.73 406.51 1262.51V1262.52Z" fill="url(#paint28_linear_146_119)"/>
<path d="M383.03 1248.14C382.63 1248.14 382.23 1248.17 381.84 1248.22L375.57 1248.14L375.61 1250.9C369.54 1255.65 365.32 1266.03 365.32 1278.08C365.32 1290.13 369.87 1301.33 376.33 1305.79L376.36 1308.01H383.03C392.81 1308.01 400.74 1294.61 400.74 1278.08C400.74 1261.55 392.81 1248.14 383.03 1248.14Z" fill="url(#paint29_linear_146_119)"/>
<path d="M375.569 1308C385.35 1308 393.279 1294.6 393.279 1278.07C393.279 1261.54 385.35 1248.14 375.569 1248.14C365.788 1248.14 357.859 1261.54 357.859 1278.07C357.859 1294.6 365.788 1308 375.569 1308Z" fill="url(#paint30_linear_146_119)"/>
<path d="M373.079 1294.89C378.574 1294.89 383.029 1287.36 383.029 1278.07C383.029 1268.78 378.574 1261.25 373.079 1261.25C367.584 1261.25 363.129 1268.78 363.129 1278.07C363.129 1287.36 367.584 1294.89 373.079 1294.89Z" fill="#D8DEE8"/>
<path d="M383.028 1278.07C383.028 1286.69 379.248 1293.68 374.588 1293.68C369.928 1293.68 366.148 1286.69 366.148 1278.07C366.148 1269.45 369.928 1262.46 374.588 1262.46C379.248 1262.46 383.028 1269.45 383.028 1278.07Z" fill="url(#paint31_linear_146_119)"/>
<path d="M500.868 1252.87C500.358 1252.87 499.848 1252.91 499.348 1252.97L491.338 1252.87L491.388 1256.39C483.628 1262.45 478.248 1275.72 478.248 1291.11C478.248 1306.5 484.068 1320.81 492.318 1326.51L492.358 1329.35H500.878C513.368 1329.35 523.498 1312.23 523.498 1291.11C523.498 1269.99 513.368 1252.87 500.878 1252.87H500.868Z" fill="url(#paint32_linear_146_119)"/>
<path d="M491.339 1329.35C503.831 1329.35 513.959 1312.23 513.959 1291.11C513.959 1269.99 503.831 1252.87 491.339 1252.87C478.846 1252.87 468.719 1269.99 468.719 1291.11C468.719 1312.23 478.846 1329.35 491.339 1329.35Z" fill="url(#paint33_linear_146_119)"/>
<path d="M500.869 1291.11C500.869 1302.98 495.179 1312.6 488.159 1312.6C481.139 1312.6 475.449 1302.98 475.449 1291.11C475.449 1279.24 481.139 1269.62 488.159 1269.62C495.179 1269.62 500.869 1279.24 500.869 1291.11Z" fill="#D8DEE8"/>
<path d="M490.089 1311.06C496.048 1311.06 500.879 1302.13 500.879 1291.11C500.879 1280.09 496.048 1271.16 490.089 1271.16C484.13 1271.16 479.299 1280.09 479.299 1291.11C479.299 1302.13 484.13 1311.06 490.089 1311.06Z" fill="url(#paint34_linear_146_119)"/>
<path d="M287.6 1026.48V1236.74L441.26 1245.32V1000.93L287.6 1026.48Z" fill="url(#paint35_linear_146_119)"/>
<path d="M610.87 1006.64L441.26 1000.93V1245.31H619.99V1016.06C619.99 1010.97 615.96 1006.8 610.87 1006.63V1006.64Z" fill="url(#paint36_linear_146_119)"/>
<path style="mix-blend-mode:multiply" opacity="0.3" d="M287.6 1236.74L425.74 1244.45C412.65 1208.64 394.86 1191.79 377.71 1183.88C346.37 1169.45 316.59 1184.59 287.6 1176.81V1236.74Z" fill="url(#paint37_linear_146_119)"/>
<path d="M710.349 1168L697.809 1136.47L697.439 1110.4L710.099 1107.87C711.329 1107.62 712.099 1106.41 711.799 1105.19C709.889 1097.5 702.879 1072.12 691.979 1063.73C684.299 1057.82 538.569 1056.05 538.569 1056.05L468.429 1060.61C462.919 1060.97 458.639 1065.54 458.639 1071.06V1226.48C458.639 1230.56 461.759 1233.96 465.819 1234.31L513.969 1238.49L523.499 1248.13C523.499 1248.13 659.959 1259.06 714.419 1249.13C717.239 1248.62 719.289 1246.18 719.289 1243.31V1174.95C719.289 1165.02 710.349 1168 710.349 1168Z" fill="#F4F7FA"/>
<path style="mix-blend-mode:multiply" opacity="0.8" d="M562.399 1177.43C562.399 1177.43 560.909 1109.91 562.399 1082.11C563.119 1068.62 556.369 1060.75 549.219 1056.22C542.559 1056.11 538.569 1056.06 538.569 1056.06L468.429 1060.62C462.919 1060.98 458.639 1065.55 458.639 1071.07V1226.49C458.639 1230.57 461.759 1233.97 465.819 1234.32L513.969 1238.5L523.499 1248.14C523.499 1248.14 545.969 1249.94 576.309 1251.41V1193.82L562.409 1177.44L562.399 1177.43Z" fill="url(#paint38_linear_146_119)"/>
<path d="M717.739 1261.24L712.339 1259.35V1248.41C712.339 1245.46 709.949 1243.07 706.999 1243.07H538.009C533.929 1243.07 530.629 1246.37 530.629 1250.45V1315.81C530.629 1319.41 533.619 1322.28 537.209 1322.14L718.159 1315.18C721.559 1315.05 724.249 1312.25 724.249 1308.85V1270.42C724.249 1266.28 721.639 1262.6 717.729 1261.23L717.739 1261.24Z" fill="#97A6B7"/>
<path d="M697.15 1205.09H596.95C593.58 1205.09 590.91 1207.95 591.15 1211.32L596.67 1289.99C596.95 1293.94 600.3 1296.97 604.26 1296.83L690.35 1293.91C694.11 1293.78 697.17 1290.84 697.44 1287.09L702.96 1211.33C703.2 1207.96 700.54 1205.09 697.16 1205.09H697.15Z" fill="url(#paint39_linear_146_119)"/>
<g style="mix-blend-mode:multiply" opacity="0.3">
<path d="M717.739 1261.24L712.339 1259.35V1248.41C712.339 1246.08 710.839 1244.1 708.759 1243.38L698.479 1291.73C697.259 1297.49 692.279 1301.68 686.399 1301.91L607.419 1304.98C601.759 1305.2 596.619 1301.69 594.759 1296.34L576.299 1243.08H538.009C533.929 1243.08 530.629 1246.38 530.629 1250.46V1315.82C530.629 1319.42 533.619 1322.29 537.209 1322.15L718.159 1315.19C721.559 1315.06 724.249 1312.26 724.249 1308.86V1270.43C724.249 1266.29 721.639 1262.61 717.729 1261.24H717.739Z" fill="#97A6B7"/>
</g>
<path d="M584.739 1300.56L565.949 1301.5C554.279 1302.08 544.259 1293.31 543.299 1281.66L542.539 1272.53H580.159C582.689 1272.53 584.739 1274.58 584.739 1277.11V1300.56Z" fill="url(#paint40_linear_146_119)"/>
<path d="M705.959 1276.4L702.959 1296.83C702.959 1296.83 722.769 1296.14 722.269 1271.17L709.979 1272.52C707.909 1272.75 706.259 1274.34 705.959 1276.4Z" fill="url(#paint41_linear_146_119)"/>
<path d="M566.699 1178.86C563.539 1178.86 560.409 1177.84 557.859 1175.97L550.129 1170.31C547.009 1168.02 545.139 1164.34 545.139 1160.47V1115.46C545.139 1113.11 546.169 1110.89 547.969 1109.38C549.769 1107.86 552.129 1107.23 554.449 1107.62L562.029 1108.93L698.659 1108.91L711.899 1167.99L710.239 1176.32L566.979 1178.87C566.889 1178.87 566.799 1178.87 566.709 1178.87L566.699 1178.86ZM553.089 1110.51C551.929 1110.51 550.799 1110.92 549.909 1111.67C548.789 1112.61 548.149 1113.99 548.149 1115.46V1160.47C548.149 1163.39 549.559 1166.16 551.909 1167.88L559.639 1173.54C561.729 1175.08 564.299 1175.85 566.919 1175.85L707.759 1173.34L708.829 1168.01L696.259 1111.9H561.779L553.949 1110.57C553.669 1110.52 553.389 1110.5 553.109 1110.5L553.089 1110.51Z" fill="#808080"/>
<path d="M697.449 1110.41H561.769L554.189 1109.1C550.249 1108.42 546.639 1111.46 546.639 1115.46V1160.47C546.639 1163.88 548.259 1167.08 551.009 1169.09L558.739 1174.75C561.109 1176.49 563.989 1177.4 566.929 1177.35L708.979 1174.82L710.339 1167.99L697.429 1110.4L697.449 1110.41Z" fill="url(#paint42_linear_146_119)"/>
<path d="M613.1 1094.77H601.57C599.82 1094.77 598.4 1096.19 598.4 1097.94V1102.77C598.4 1104.52 599.82 1105.94 601.57 1105.94H613.1C614.851 1105.94 616.27 1104.52 616.27 1102.77V1097.94C616.27 1096.19 614.851 1094.77 613.1 1094.77Z" fill="#97A6B7"/>
<path d="M680.87 1094.77H669.34C667.589 1094.77 666.17 1096.19 666.17 1097.94V1102.77C666.17 1104.52 667.589 1105.94 669.34 1105.94H680.87C682.621 1105.94 684.04 1104.52 684.04 1102.77V1097.94C684.04 1096.19 682.621 1094.77 680.87 1094.77Z" fill="#97A6B7"/>
<g style="mix-blend-mode:overlay" opacity="0.3">
<path d="M654.999 1142.43C619.989 1129.04 587.049 1145.73 571.959 1127.54C567.879 1122.62 566.229 1116.5 565.849 1110.41H561.759L554.179 1109.1C550.239 1108.42 546.629 1111.46 546.629 1115.46V1160.47C546.629 1163.88 548.249 1167.08 550.999 1169.09L558.729 1174.75C561.099 1176.49 563.979 1177.4 566.919 1177.35L695.599 1175.06C681.049 1155.45 666.279 1146.75 654.979 1142.43H654.999Z" fill="white"/>
</g>
<path d="M758.26 1280.19V1341.5C758.26 1347.2 762.58 1351.98 768.25 1352.56L1395.94 1412.04L1480.43 1467.95L1597.1 1312.76L758.26 1280.19Z" fill="url(#paint43_linear_146_119)"/>
<path d="M1239.39 1364.45V1419.32C1239.39 1423.92 1242.73 1427.84 1247.27 1428.57L1397.96 1452.78L1393.58 1364.32L1249.35 1355.1C1243.95 1354.75 1239.38 1359.04 1239.38 1364.45H1239.39Z" fill="url(#paint44_linear_146_119)"/>
<path d="M821.85 1308.48C821.34 1308.48 820.83 1308.52 820.33 1308.58L812.36 1308.48L812.41 1311.99C804.69 1318.03 799.33 1331.23 799.33 1346.55C799.33 1361.87 805.12 1376.11 813.33 1381.79L813.37 1384.61H821.85C834.29 1384.61 844.37 1367.57 844.37 1346.54C844.37 1325.51 834.29 1308.47 821.85 1308.47V1308.48Z" fill="url(#paint45_linear_146_119)"/>
<path d="M812.36 1384.61C824.797 1384.61 834.88 1367.56 834.88 1346.54C834.88 1325.51 824.797 1308.47 812.36 1308.47C799.922 1308.47 789.84 1325.51 789.84 1346.54C789.84 1367.56 799.922 1384.61 812.36 1384.61Z" fill="url(#paint46_linear_146_119)"/>
<path d="M821.851 1346.54C821.851 1358.35 816.191 1367.93 809.201 1367.93C802.211 1367.93 796.551 1358.36 796.551 1346.54C796.551 1334.72 802.211 1325.15 809.201 1325.15C816.191 1325.15 821.851 1334.72 821.851 1346.54Z" fill="#D8DEE8"/>
<path d="M821.849 1346.54C821.849 1357.51 817.039 1366.39 811.109 1366.39C805.179 1366.39 800.369 1357.5 800.369 1346.54C800.369 1335.58 805.179 1326.69 811.109 1326.69C817.039 1326.69 821.849 1335.58 821.849 1346.54Z" fill="url(#paint47_linear_146_119)"/>
<path d="M875.07 1312.76C874.51 1312.76 873.96 1312.8 873.41 1312.87L864.68 1312.76L864.73 1316.6C856.27 1323.21 850.4 1337.68 850.4 1354.46C850.4 1371.24 856.74 1386.85 865.74 1393.07L865.78 1396.16H875.07C888.7 1396.16 899.74 1377.49 899.74 1354.45C899.74 1331.41 888.69 1312.74 875.07 1312.74V1312.76Z" fill="url(#paint48_linear_146_119)"/>
<path d="M864.67 1396.18C878.295 1396.18 889.34 1377.51 889.34 1354.47C889.34 1331.43 878.295 1312.76 864.67 1312.76C851.045 1312.76 840 1331.43 840 1354.47C840 1377.51 851.045 1396.18 864.67 1396.18Z" fill="url(#paint49_linear_146_119)"/>
<path d="M861.21 1377.9C868.864 1377.9 875.07 1367.41 875.07 1354.47C875.07 1341.53 868.864 1331.04 861.21 1331.04C853.555 1331.04 847.35 1341.53 847.35 1354.47C847.35 1367.41 853.555 1377.9 861.21 1377.9Z" fill="#D8DEE8"/>
<path d="M863.299 1376.22C869.794 1376.22 875.059 1366.48 875.059 1354.47C875.059 1342.46 869.794 1332.72 863.299 1332.72C856.804 1332.72 851.539 1342.46 851.539 1354.47C851.539 1366.48 856.804 1376.22 863.299 1376.22Z" fill="url(#paint50_linear_146_119)"/>
<path d="M931.87 1312.76C931.26 1312.76 930.66 1312.81 930.05 1312.87L920.52 1312.76L920.58 1316.96C911.34 1324.18 904.93 1339.97 904.93 1358.3C904.93 1376.63 911.86 1393.67 921.68 1400.46L921.72 1403.84H931.86C946.74 1403.84 958.8 1383.45 958.8 1358.3C958.8 1333.15 946.74 1312.76 931.86 1312.76H931.87Z" fill="url(#paint51_linear_146_119)"/>
<path d="M920.52 1403.84C935.399 1403.84 947.46 1383.45 947.46 1358.3C947.46 1333.15 935.399 1312.76 920.52 1312.76C905.642 1312.76 893.58 1333.15 893.58 1358.3C893.58 1383.45 905.642 1403.84 920.52 1403.84Z" fill="url(#paint52_linear_146_119)"/>
<path d="M931.87 1358.3C931.87 1372.43 925.09 1383.88 916.73 1383.88C908.37 1383.88 901.6 1372.43 901.6 1358.3C901.6 1344.17 908.38 1332.72 916.73 1332.72C925.08 1332.72 931.87 1344.17 931.87 1358.3Z" fill="#D8DEE8"/>
<path d="M931.869 1358.3C931.869 1371.42 926.119 1382.05 919.029 1382.05C911.939 1382.05 906.189 1371.42 906.189 1358.3C906.189 1345.18 911.939 1334.55 919.029 1334.55C926.119 1334.55 931.869 1345.18 931.869 1358.3Z" fill="url(#paint53_linear_146_119)"/>
<path d="M1193.79 1336.51C1193.01 1336.51 1192.24 1336.57 1191.47 1336.66L1179.3 1336.51L1179.37 1341.87C1167.58 1351.09 1159.4 1371.25 1159.4 1394.65C1159.4 1418.05 1168.24 1439.8 1180.79 1448.47L1180.85 1452.78H1193.8C1212.79 1452.78 1228.19 1426.75 1228.19 1394.65C1228.19 1362.55 1212.79 1336.51 1193.8 1336.51H1193.79Z" fill="url(#paint54_linear_146_119)"/>
<path d="M1179.3 1452.78C1198.29 1452.78 1213.69 1426.75 1213.69 1394.65C1213.69 1362.55 1198.29 1336.52 1179.3 1336.52C1160.31 1336.52 1144.91 1362.55 1144.91 1394.65C1144.91 1426.75 1160.31 1452.78 1179.3 1452.78Z" fill="url(#paint55_linear_146_119)"/>
<path d="M1174.47 1427.31C1185.14 1427.31 1193.79 1412.69 1193.79 1394.65C1193.79 1376.61 1185.14 1361.99 1174.47 1361.99C1163.8 1361.99 1155.15 1376.61 1155.15 1394.65C1155.15 1412.69 1163.8 1427.31 1174.47 1427.31Z" fill="#D8DEE8"/>
<path d="M1193.79 1394.65C1193.79 1411.4 1186.45 1424.97 1177.39 1424.97C1168.33 1424.97 1160.99 1411.39 1160.99 1394.65C1160.99 1377.91 1168.33 1364.33 1177.39 1364.33C1186.45 1364.33 1193.79 1377.91 1193.79 1394.65Z" fill="url(#paint56_linear_146_119)"/>
<path d="M1422.65 1345.7C1421.65 1345.7 1420.67 1345.78 1419.69 1345.89L1404.14 1345.7L1404.23 1352.54C1389.17 1364.32 1378.71 1390.07 1378.71 1419.97C1378.71 1449.87 1390.01 1477.65 1406.03 1488.73L1406.1 1494.24H1422.64C1446.9 1494.24 1466.58 1460.99 1466.58 1419.97C1466.58 1378.95 1446.91 1345.7 1422.64 1345.7H1422.65Z" fill="url(#paint57_linear_146_119)"/>
<path d="M1404.14 1494.24C1428.41 1494.24 1448.08 1460.99 1448.08 1419.97C1448.08 1378.95 1428.41 1345.7 1404.14 1345.7C1379.87 1345.7 1360.2 1378.95 1360.2 1419.97C1360.2 1460.99 1379.87 1494.24 1404.14 1494.24Z" fill="url(#paint58_linear_146_119)"/>
<path d="M1397.96 1461.7C1411.59 1461.7 1422.64 1443.02 1422.64 1419.97C1422.64 1396.92 1411.59 1378.24 1397.96 1378.24C1384.33 1378.24 1373.28 1396.92 1373.28 1419.97C1373.28 1443.02 1384.33 1461.7 1397.96 1461.7Z" fill="#D8DEE8"/>
<path d="M1401.7 1458.71C1413.27 1458.71 1422.65 1441.36 1422.65 1419.97C1422.65 1398.57 1413.27 1381.23 1401.7 1381.23C1390.13 1381.23 1380.75 1398.57 1380.75 1419.97C1380.75 1441.36 1390.13 1458.71 1401.7 1458.71Z" fill="url(#paint59_linear_146_119)"/>
<path d="M720.92 953.86C712.7 955.23 706.67 962.34 706.67 970.67V1281.43C706.67 1290.47 713.73 1297.94 722.76 1298.44L1306.87 1331.03V856.43L720.91 953.85L720.92 953.86Z" fill="url(#paint60_linear_146_119)"/>
<path d="M1636.27 867.519L1306.88 856.439V1331.04H1653.98V885.839C1653.98 875.959 1646.15 867.859 1636.27 867.519Z" fill="url(#paint61_linear_146_119)"/>
<path style="mix-blend-mode:multiply" opacity="0.3" d="M1183.47 1211.74C1108.46 1177.19 1038.05 1229.92 969.42 1178.96C909.32 1134.33 928.7 1068.18 880.71 989.98C869.72 972.08 855.01 953.28 834.9 934.91L720.92 953.86C712.7 955.23 706.67 962.34 706.67 970.67V1281.43C706.67 1290.47 713.73 1297.94 722.76 1298.44L1276.74 1329.35C1251.32 1259.8 1216.77 1227.08 1183.46 1211.73L1183.47 1211.74Z" fill="url(#paint62_linear_146_119)"/>
<path d="M1829.47 1180.88L1805.13 1119.65L1804.41 1069.03L1829 1064.11C1831.39 1063.63 1832.89 1061.27 1832.3 1058.91C1828.58 1043.98 1814.97 994.681 1793.8 978.391C1778.88 966.911 1495.87 963.48 1495.87 963.48L1359.66 972.341C1348.96 973.041 1340.64 981.921 1340.64 992.641V1294.47C1340.64 1302.39 1346.7 1308.99 1354.59 1309.68L1448.09 1317.79L1466.6 1336.51C1466.6 1336.51 1731.61 1357.73 1837.37 1338.45C1842.85 1337.45 1846.84 1332.71 1846.84 1327.15V1194.39C1846.84 1175.11 1829.48 1180.89 1829.48 1180.89L1829.47 1180.88Z" fill="#F4F7FA"/>
<path style="mix-blend-mode:multiply" opacity="0.8" d="M1542.14 1199.2C1542.14 1199.2 1539.25 1068.07 1542.14 1014.08C1543.54 987.89 1530.42 972.61 1516.54 963.79C1503.6 963.58 1495.85 963.49 1495.85 963.49L1359.64 972.35C1348.94 973.05 1340.62 981.93 1340.62 992.65V1294.48C1340.62 1302.4 1346.68 1309 1354.57 1309.69L1448.07 1317.8L1466.58 1336.52C1466.58 1336.52 1510.21 1340.01 1569.14 1342.88V1231.03L1542.14 1199.21V1199.2Z" fill="url(#paint63_linear_146_119)"/>
<path d="M1843.8 1361.97L1833.32 1358.3V1337.06C1833.32 1331.33 1828.68 1326.69 1822.95 1326.69H1494.76C1486.84 1326.69 1480.43 1333.11 1480.43 1341.02V1467.95C1480.43 1474.93 1486.23 1480.52 1493.21 1480.25L1844.62 1466.73C1851.23 1466.48 1856.46 1461.04 1856.46 1454.43V1379.81C1856.46 1371.78 1851.38 1364.62 1843.8 1361.97Z" fill="#97A6B7"/>
<path d="M1803.81 1252.91H1609.22C1602.67 1252.91 1597.49 1258.46 1597.95 1265L1608.67 1417.78C1609.21 1425.45 1615.72 1431.33 1623.41 1431.07L1790.59 1425.41C1797.89 1425.16 1803.83 1419.45 1804.36 1412.16L1815.08 1265.04C1815.56 1258.49 1810.37 1252.92 1803.81 1252.92V1252.91Z" fill="url(#paint64_linear_146_119)"/>
<g style="mix-blend-mode:multiply" opacity="0.3">
<path d="M1843.8 1361.97L1833.32 1358.3V1337.06C1833.32 1332.54 1830.42 1328.7 1826.37 1327.28L1806.4 1421.18C1804.02 1432.36 1794.36 1440.5 1782.93 1440.95L1629.55 1446.91C1618.56 1447.34 1608.57 1440.52 1604.97 1430.12L1569.13 1326.68H1494.76C1486.84 1326.68 1480.43 1333.1 1480.43 1341.01V1467.94C1480.43 1474.92 1486.23 1480.51 1493.21 1480.24L1844.62 1466.72C1851.23 1466.47 1856.45 1461.03 1856.45 1454.42V1379.8C1856.45 1371.77 1851.37 1364.61 1843.79 1361.96L1843.8 1361.97Z" fill="#97A6B7"/>
</g>
<path d="M1585.53 1438.32L1549.04 1440.14C1526.38 1441.27 1506.91 1424.23 1505.04 1401.62L1503.57 1383.88H1576.63C1581.54 1383.88 1585.53 1387.86 1585.53 1392.78V1438.32Z" fill="url(#paint65_linear_146_119)"/>
<path d="M1820.94 1391.39L1815.12 1431.07C1815.12 1431.07 1853.59 1429.72 1852.63 1381.23L1828.76 1383.86C1824.75 1384.3 1821.54 1387.4 1820.95 1391.39H1820.94Z" fill="url(#paint66_linear_146_119)"/>
<path d="M1550.48 1200.55C1544.64 1200.55 1538.86 1198.66 1534.15 1195.21L1519.13 1184.21C1513.43 1180.04 1510.02 1173.32 1510.02 1166.25V1078.84C1510.02 1074.69 1511.84 1070.78 1515.01 1068.1C1518.18 1065.43 1522.34 1064.3 1526.44 1065.01L1541.15 1067.54L1805.6 1067.52L1831 1180.85L1828.05 1195.61L1826.84 1195.63L1550.97 1200.53C1550.81 1200.53 1550.64 1200.53 1550.48 1200.53V1200.55ZM1524.05 1067.82C1521.47 1067.82 1518.96 1068.73 1516.96 1070.41C1514.47 1072.51 1513.04 1075.58 1513.04 1078.84V1166.25C1513.04 1172.36 1515.98 1178.17 1520.92 1181.78L1535.94 1192.78C1540.26 1195.94 1545.48 1197.7 1550.93 1197.54L1825.59 1192.66L1827.94 1180.9L1803.2 1070.54H1540.91L1525.94 1067.99C1525.31 1067.88 1524.68 1067.83 1524.06 1067.83L1524.05 1067.82Z" fill="#808080"/>
<path d="M1804.4 1069.04H1540.9L1526.18 1066.5C1518.52 1065.18 1511.52 1071.08 1511.52 1078.85V1166.26C1511.52 1172.88 1514.67 1179.1 1520.01 1183.01L1535.03 1194.01C1539.64 1197.39 1545.23 1199.16 1550.94 1199.06L1826.81 1194.15L1829.46 1180.89L1804.39 1069.05L1804.4 1069.04Z" fill="url(#paint67_linear_146_119)"/>
<path d="M1618.19 1038.67H1640.61C1644 1038.67 1646.76 1041.42 1646.76 1044.82V1054.22C1646.76 1057.61 1644.01 1060.37 1640.61 1060.37H1618.19C1614.8 1060.37 1612.04 1057.62 1612.04 1054.22V1044.82C1612.04 1041.43 1614.79 1038.67 1618.19 1038.67Z" fill="#97A6B7"/>
<path d="M1749.8 1038.67H1772.22C1775.61 1038.67 1778.37 1041.42 1778.37 1044.82V1054.22C1778.37 1057.61 1775.62 1060.37 1772.22 1060.37H1749.8C1746.41 1060.37 1743.65 1057.62 1743.65 1054.22V1044.82C1743.65 1041.43 1746.4 1038.67 1749.8 1038.67Z" fill="#97A6B7"/>
<g style="mix-blend-mode:overlay" opacity="0.3">
<path d="M1721.96 1131.23C1653.96 1105.22 1590 1137.64 1560.7 1102.3C1552.78 1092.75 1549.58 1080.86 1548.84 1069.04H1540.9L1526.18 1066.5C1518.52 1065.18 1511.52 1071.08 1511.52 1078.85V1166.26C1511.52 1172.88 1514.68 1179.1 1520.01 1183.01L1535.02 1194C1539.63 1197.38 1545.22 1199.15 1550.93 1199.05L1800.83 1194.61C1772.58 1156.53 1743.89 1139.63 1721.95 1131.24L1721.96 1131.23Z" fill="white"/>
</g>
</g>
<defs>
<linearGradient id="paint0_linear_146_119" x1="67.2495" y1="145.99" x2="1469.07" y2="1271.05" gradientUnits="userSpaceOnUse">
<stop stop-color="#D8DEE8"/>
<stop offset="1" stop-color="white"/>
</linearGradient>
<linearGradient id="paint1_linear_146_119" x1="-197.72" y1="700.71" x2="558.07" y2="700.71" gradientUnits="userSpaceOnUse">
<stop stop-color="#D8DEE8"/>
<stop offset="1" stop-color="white"/>
</linearGradient>
<linearGradient id="paint2_linear_146_119" x1="1414.17" y1="1339.8" x2="2091.79" y2="1339.8" gradientUnits="userSpaceOnUse">
<stop stop-color="#444B8C"/>
<stop offset="1" stop-color="#26264F"/>
</linearGradient>
<linearGradient id="paint3_linear_146_119" x1="1802.83" y1="1363.92" x2="1930.93" y2="1363.92" gradientUnits="userSpaceOnUse">
<stop stop-color="#444B8C"/>
<stop offset="1" stop-color="#26264F"/>
</linearGradient>
<linearGradient id="paint4_linear_146_119" x1="1447.35" y1="1317.56" x2="1483.73" y2="1317.56" gradientUnits="userSpaceOnUse">
<stop stop-color="#311944"/>
<stop offset="1" stop-color="#6B3976"/>
</linearGradient>
<linearGradient id="paint5_linear_146_119" x1="1439.68" y1="0.000573365" x2="1476.07" y2="0.000573365" gradientUnits="userSpaceOnUse">
<stop stop-color="#311944"/>
<stop offset="1" stop-color="#6B3976"/>
</linearGradient>
<linearGradient id="paint6_linear_146_119" x1="1475.12" y1="1320.02" x2="1446.71" y2="1316.19" gradientUnits="userSpaceOnUse">
<stop stop-color="#D8DEE8"/>
<stop offset="1" stop-color="#F4F7FA"/>
</linearGradient>
<linearGradient id="paint7_linear_146_119" x1="1488.6" y1="1323.96" x2="1528.46" y2="1323.96" gradientUnits="userSpaceOnUse">
<stop stop-color="#311944"/>
<stop offset="1" stop-color="#6B3976"/>
</linearGradient>
<linearGradient id="paint8_linear_146_119" x1="1480.2" y1="1323.96" x2="1520.06" y2="1323.96" gradientUnits="userSpaceOnUse">
<stop stop-color="#311944"/>
<stop offset="1" stop-color="#6B3976"/>
</linearGradient>
<linearGradient id="paint9_linear_146_119" x1="1519.03" y1="1326.65" x2="1487.9" y2="1322.46" gradientUnits="userSpaceOnUse">
<stop stop-color="#D8DEE8"/>
<stop offset="1" stop-color="#F4F7FA"/>
</linearGradient>
<linearGradient id="paint10_linear_146_119" x1="1532.65" y1="1327.05" x2="1576.18" y2="1327.05" gradientUnits="userSpaceOnUse">
<stop stop-color="#311944"/>
<stop offset="1" stop-color="#6B3976"/>
</linearGradient>
<linearGradient id="paint11_linear_146_119" x1="1523.48" y1="1327.05" x2="1567.01" y2="1327.05" gradientUnits="userSpaceOnUse">
<stop stop-color="#311944"/>
<stop offset="1" stop-color="#6B3976"/>
</linearGradient>
<linearGradient id="paint12_linear_146_119" x1="1565.88" y1="1329.99" x2="1531.89" y2="1325.42" gradientUnits="userSpaceOnUse">
<stop stop-color="#D8DEE8"/>
<stop offset="1" stop-color="#F4F7FA"/>
</linearGradient>
<linearGradient id="paint13_linear_146_119" x1="1738.21" y1="1356.42" x2="1793.77" y2="1356.42" gradientUnits="userSpaceOnUse">
<stop stop-color="#311944"/>
<stop offset="1" stop-color="#6B3976"/>
</linearGradient>
<linearGradient id="paint14_linear_146_119" x1="1726.51" y1="1356.42" x2="1782.07" y2="1356.42" gradientUnits="userSpaceOnUse">
<stop stop-color="#311944"/>
<stop offset="1" stop-color="#6B3976"/>
</linearGradient>
<linearGradient id="paint15_linear_146_119" x1="1780.63" y1="1360.17" x2="1737.24" y2="1354.33" gradientUnits="userSpaceOnUse">
<stop stop-color="#D8DEE8"/>
<stop offset="1" stop-color="#F4F7FA"/>
</linearGradient>
<linearGradient id="paint16_linear_146_119" x1="1915.37" y1="1376.87" x2="1986.36" y2="1376.87" gradientUnits="userSpaceOnUse">
<stop stop-color="#311944"/>
<stop offset="1" stop-color="#6B3976"/>
</linearGradient>
<linearGradient id="paint17_linear_146_119" x1="1900.42" y1="1376.87" x2="1971.41" y2="1376.87" gradientUnits="userSpaceOnUse">
<stop stop-color="#311944"/>
<stop offset="1" stop-color="#6B3976"/>
</linearGradient>
<linearGradient id="paint18_linear_146_119" x1="1969.57" y1="1381.67" x2="1914.14" y2="1374.21" gradientUnits="userSpaceOnUse">
<stop stop-color="#D8DEE8"/>
<stop offset="1" stop-color="#F4F7FA"/>
</linearGradient>
<linearGradient id="paint19_linear_146_119" x1="1773.33" y1="1052.81" x2="1056.69" y2="1518.49" gradientUnits="userSpaceOnUse">
<stop stop-color="#FF9085"/>
<stop offset="1" stop-color="#FB6FBB"/>
</linearGradient>
<linearGradient id="paint20_linear_146_119" x1="2252.51" y1="951.21" x2="1708.75" y2="1296.98" gradientUnits="userSpaceOnUse">
<stop stop-color="#FF9085"/>
<stop offset="1" stop-color="#FB6FBB"/>
</linearGradient>
<linearGradient id="paint21_linear_146_119" x1="1372.5" y1="1144.35" x2="1833.01" y2="1144.35" gradientUnits="userSpaceOnUse">
<stop stop-color="#FFC444"/>
<stop offset="1" stop-color="#F36F56"/>
</linearGradient>
<linearGradient id="paint22_linear_146_119" x1="1884.61" y1="1161.36" x2="2069.2" y2="1161.36" gradientUnits="userSpaceOnUse">
<stop stop-color="#D8DEE8"/>
<stop offset="1" stop-color="#F4F7FA"/>
</linearGradient>
<linearGradient id="paint23_linear_146_119" x1="2092.45" y1="1313.88" x2="2267.91" y2="1313.88" gradientUnits="userSpaceOnUse">
<stop stop-color="#444B8C"/>
<stop offset="1" stop-color="#26264F"/>
</linearGradient>
<linearGradient id="paint24_linear_146_119" x1="2066.08" y1="1311.4" x2="1979.63" y2="1612.56" gradientUnits="userSpaceOnUse">
<stop stop-color="#FF9085"/>
<stop offset="1" stop-color="#FB6FBB"/>
</linearGradient>
<linearGradient id="paint25_linear_146_119" x1="2280.12" y1="1372.84" x2="2193.68" y2="1674" gradientUnits="userSpaceOnUse">
<stop stop-color="#FF9085"/>
<stop offset="1" stop-color="#FB6FBB"/>
</linearGradient>
<linearGradient id="paint26_linear_146_119" x1="2022.66" y1="1144.8" x2="2279.5" y2="1144.8" gradientUnits="userSpaceOnUse">
<stop stop-color="#444B8C"/>
<stop offset="1" stop-color="#26264F"/>
</linearGradient>
<linearGradient id="paint27_linear_146_119" x1="158.77" y1="1269.98" x2="590.71" y2="1269.98" gradientUnits="userSpaceOnUse">
<stop stop-color="#444B8C"/>
<stop offset="1" stop-color="#26264F"/>
</linearGradient>
<linearGradient id="paint28_linear_146_119" x1="406.51" y1="1282.85" x2="488.16" y2="1282.85" gradientUnits="userSpaceOnUse">
<stop stop-color="#444B8C"/>
<stop offset="1" stop-color="#26264F"/>
</linearGradient>
<linearGradient id="paint29_linear_146_119" x1="365.32" y1="1278.07" x2="400.74" y2="1278.07" gradientUnits="userSpaceOnUse">
<stop stop-color="#311944"/>
<stop offset="1" stop-color="#6B3976"/>
</linearGradient>
<linearGradient id="paint30_linear_146_119" x1="357.859" y1="1278.07" x2="393.279" y2="1278.07" gradientUnits="userSpaceOnUse">
<stop stop-color="#311944"/>
<stop offset="1" stop-color="#6B3976"/>
</linearGradient>
<linearGradient id="paint31_linear_146_119" x1="392.358" y1="1280.46" x2="364.698" y2="1276.74" gradientUnits="userSpaceOnUse">
<stop stop-color="#D8DEE8"/>
<stop offset="1" stop-color="#F4F7FA"/>
</linearGradient>
<linearGradient id="paint32_linear_146_119" x1="478.248" y1="1291.11" x2="523.498" y2="1291.11" gradientUnits="userSpaceOnUse">
<stop stop-color="#311944"/>
<stop offset="1" stop-color="#6B3976"/>
</linearGradient>
<linearGradient id="paint33_linear_146_119" x1="468.719" y1="1291.11" x2="513.969" y2="1291.11" gradientUnits="userSpaceOnUse">
<stop stop-color="#311944"/>
<stop offset="1" stop-color="#6B3976"/>
</linearGradient>
<linearGradient id="paint34_linear_146_119" x1="512.799" y1="1294.17" x2="477.459" y2="1289.41" gradientUnits="userSpaceOnUse">
<stop stop-color="#D8DEE8"/>
<stop offset="1" stop-color="#F4F7FA"/>
</linearGradient>
<linearGradient id="paint35_linear_146_119" x1="404.26" y1="1110.02" x2="-52.5503" y2="1406.86" gradientUnits="userSpaceOnUse">
<stop stop-color="#FFC444"/>
<stop offset="0.31" stop-color="#FBA94A"/>
<stop offset="1" stop-color="#F36F56"/>
</linearGradient>
<linearGradient id="paint36_linear_146_119" x1="693.15" y1="1019.78" x2="346.54" y2="1240.19" gradientUnits="userSpaceOnUse">
<stop stop-color="#FFC444"/>
<stop offset="0.31" stop-color="#FBA94A"/>
<stop offset="1" stop-color="#F36F56"/>
</linearGradient>
<linearGradient id="paint37_linear_146_119" x1="132.2" y1="1210.63" x2="425.75" y2="1210.63" gradientUnits="userSpaceOnUse">
<stop stop-color="#FFC444"/>
<stop offset="1" stop-color="#F36F56"/>
</linearGradient>
<linearGradient id="paint38_linear_146_119" x1="458.639" y1="1153.73" x2="576.309" y2="1153.73" gradientUnits="userSpaceOnUse">
<stop stop-color="#D8DEE8"/>
<stop offset="1" stop-color="#F4F7FA"/>
</linearGradient>
<linearGradient id="paint39_linear_146_119" x1="591.13" y1="1250.96" x2="702.97" y2="1250.96" gradientUnits="userSpaceOnUse">
<stop stop-color="#444B8C"/>
<stop offset="1" stop-color="#26264F"/>
</linearGradient>
<linearGradient id="paint40_linear_146_119" x1="574.309" y1="1249.38" x2="519.209" y2="1441.35" gradientUnits="userSpaceOnUse">
<stop stop-color="#FF9085"/>
<stop offset="1" stop-color="#FB6FBB"/>
</linearGradient>
<linearGradient id="paint41_linear_146_119" x1="710.749" y1="1288.54" x2="655.649" y2="1480.51" gradientUnits="userSpaceOnUse">
<stop stop-color="#FF9085"/>
<stop offset="1" stop-color="#FB6FBB"/>
</linearGradient>
<linearGradient id="paint42_linear_146_119" x1="546.639" y1="1143.18" x2="710.359" y2="1143.18" gradientUnits="userSpaceOnUse">
<stop stop-color="#444B8C"/>
<stop offset="1" stop-color="#26264F"/>
</linearGradient>
<linearGradient id="paint43_linear_146_119" x1="758.27" y1="1374.07" x2="1597.1" y2="1374.07" gradientUnits="userSpaceOnUse">
<stop stop-color="#444B8C"/>
<stop offset="1" stop-color="#26264F"/>
</linearGradient>
<linearGradient id="paint44_linear_146_119" x1="1239.39" y1="1403.93" x2="1397.97" y2="1403.93" gradientUnits="userSpaceOnUse">
<stop stop-color="#444B8C"/>
<stop offset="1" stop-color="#26264F"/>
</linearGradient>
<linearGradient id="paint45_linear_146_119" x1="799.33" y1="1346.54" x2="844.37" y2="1346.54" gradientUnits="userSpaceOnUse">
<stop stop-color="#311944"/>
<stop offset="1" stop-color="#6B3976"/>
</linearGradient>
<linearGradient id="paint46_linear_146_119" x1="789.85" y1="1346.54" x2="834.89" y2="1346.54" gradientUnits="userSpaceOnUse">
<stop stop-color="#311944"/>
<stop offset="1" stop-color="#6B3976"/>
</linearGradient>
<linearGradient id="paint47_linear_146_119" x1="833.719" y1="1349.59" x2="798.549" y2="1344.85" gradientUnits="userSpaceOnUse">
<stop stop-color="#D8DEE8"/>
<stop offset="1" stop-color="#F4F7FA"/>
</linearGradient>
<linearGradient id="paint48_linear_146_119" x1="850.4" y1="1354.47" x2="899.74" y2="1354.47" gradientUnits="userSpaceOnUse">
<stop stop-color="#311944"/>
<stop offset="1" stop-color="#6B3976"/>
</linearGradient>
<linearGradient id="paint49_linear_146_119" x1="840" y1="1354.47" x2="889.35" y2="1354.47" gradientUnits="userSpaceOnUse">
<stop stop-color="#311944"/>
<stop offset="1" stop-color="#6B3976"/>
</linearGradient>
<linearGradient id="paint50_linear_146_119" x1="888.069" y1="1357.8" x2="849.539" y2="1352.61" gradientUnits="userSpaceOnUse">
<stop stop-color="#D8DEE8"/>
<stop offset="1" stop-color="#F4F7FA"/>
</linearGradient>
<linearGradient id="paint51_linear_146_119" x1="904.94" y1="1358.3" x2="958.81" y2="1358.3" gradientUnits="userSpaceOnUse">
<stop stop-color="#311944"/>
<stop offset="1" stop-color="#6B3976"/>
</linearGradient>
<linearGradient id="paint52_linear_146_119" x1="893.59" y1="1358.3" x2="947.47" y2="1358.3" gradientUnits="userSpaceOnUse">
<stop stop-color="#311944"/>
<stop offset="1" stop-color="#6B3976"/>
</linearGradient>
<linearGradient id="paint53_linear_146_119" x1="946.069" y1="1361.94" x2="903.999" y2="1356.28" gradientUnits="userSpaceOnUse">
<stop stop-color="#D8DEE8"/>
<stop offset="1" stop-color="#F4F7FA"/>
</linearGradient>
<linearGradient id="paint54_linear_146_119" x1="1159.4" y1="1394.65" x2="1228.18" y2="1394.65" gradientUnits="userSpaceOnUse">
<stop stop-color="#311944"/>
<stop offset="1" stop-color="#6B3976"/>
</linearGradient>
<linearGradient id="paint55_linear_146_119" x1="1144.91" y1="1394.65" x2="1213.69" y2="1394.65" gradientUnits="userSpaceOnUse">
<stop stop-color="#311944"/>
<stop offset="1" stop-color="#6B3976"/>
</linearGradient>
<linearGradient id="paint56_linear_146_119" x1="1211.91" y1="1399.29" x2="1158.2" y2="1392.06" gradientUnits="userSpaceOnUse">
<stop stop-color="#D8DEE8"/>
<stop offset="1" stop-color="#F4F7FA"/>
</linearGradient>
<linearGradient id="paint57_linear_146_119" x1="1378.71" y1="1419.97" x2="1466.59" y2="1419.97" gradientUnits="userSpaceOnUse">
<stop stop-color="#311944"/>
<stop offset="1" stop-color="#6B3976"/>
</linearGradient>
<linearGradient id="paint58_linear_146_119" x1="1360.2" y1="1419.97" x2="1448.08" y2="1419.97" gradientUnits="userSpaceOnUse">
<stop stop-color="#311944"/>
<stop offset="1" stop-color="#6B3976"/>
</linearGradient>
<linearGradient id="paint59_linear_146_119" x1="1445.8" y1="1425.91" x2="1377.18" y2="1416.67" gradientUnits="userSpaceOnUse">
<stop stop-color="#D8DEE8"/>
<stop offset="1" stop-color="#F4F7FA"/>
</linearGradient>
<linearGradient id="paint60_linear_146_119" x1="1202.88" y1="1018.8" x2="315.73" y2="1595.28" gradientUnits="userSpaceOnUse">
<stop stop-color="#FFC444"/>
<stop offset="0.31" stop-color="#FBA94A"/>
<stop offset="1" stop-color="#F36F56"/>
</linearGradient>
<linearGradient id="paint61_linear_146_119" x1="1796.06" y1="893.029" x2="1122.93" y2="1321.07" gradientUnits="userSpaceOnUse">
<stop stop-color="#FFC444"/>
<stop offset="0.31" stop-color="#FBA94A"/>
<stop offset="1" stop-color="#F36F56"/>
</linearGradient>
<linearGradient id="paint62_linear_146_119" x1="706.68" y1="1132.13" x2="1276.75" y2="1132.13" gradientUnits="userSpaceOnUse">
<stop stop-color="#FFC444"/>
<stop offset="1" stop-color="#F36F56"/>
</linearGradient>
<linearGradient id="paint63_linear_146_119" x1="1340.63" y1="1153.18" x2="1569.14" y2="1153.18" gradientUnits="userSpaceOnUse">
<stop stop-color="#D8DEE8"/>
<stop offset="1" stop-color="#F4F7FA"/>
</linearGradient>
<linearGradient id="paint64_linear_146_119" x1="1597.92" y1="1341.99" x2="1815.12" y2="1341.99" gradientUnits="userSpaceOnUse">
<stop stop-color="#444B8C"/>
<stop offset="1" stop-color="#26264F"/>
</linearGradient>
<linearGradient id="paint65_linear_146_119" x1="1565.27" y1="1338.93" x2="1458.26" y2="1711.74" gradientUnits="userSpaceOnUse">
<stop stop-color="#FF9085"/>
<stop offset="1" stop-color="#FB6FBB"/>
</linearGradient>
<linearGradient id="paint66_linear_146_119" x1="1830.24" y1="1414.98" x2="1723.23" y2="1787.79" gradientUnits="userSpaceOnUse">
<stop stop-color="#FF9085"/>
<stop offset="1" stop-color="#FB6FBB"/>
</linearGradient>
<linearGradient id="paint67_linear_146_119" x1="1511.53" y1="1132.68" x2="1829.47" y2="1132.68" gradientUnits="userSpaceOnUse">
<stop stop-color="#444B8C"/>
<stop offset="1" stop-color="#26264F"/>
</linearGradient>
<clipPath id="clip0_146_119">
<rect width="2301.3" height="1494.24" fill="white"/>
</clipPath>
</defs>
</svg>
