<?xml version="1.0" encoding="UTF-8"?><svg xmlns="http://www.w3.org/2000/svg" xmlns:xlink="http://www.w3.org/1999/xlink" viewBox="0 0 600 350"><defs><style>.r{fill:#342a4b;}.s{fill:#3e4e8c;}.t{fill:#fff;}.u{fill:#e0a952;}.v{clip-path:url(#l);}.w{fill:#f2f7fd;opacity:.7;}.x{clip-path:url(#n);}.y{fill:#567dd2;}.a`{clip-path:url(#o);}.aa{fill:#e3e8f2;}.ab{clip-path:url(#m);}.ac{fill:#36457a;}.ad{fill:#6290ef;}.ae{fill:#dfeafb;}.af{fill:#d8e6fa;}.ag{clip-path:url(#p);}.ah{fill:#e9d0c4;}.ai{fill:#24325f;}.aj{fill:#e1ecfa;}.ak{clip-path:url(#q);}.al{fill:#54465a;}.am{fill:#d88d44;}.an{fill:#d99f9b;}.ao{fill:#f8f0e5;}.ap{clip-path:url(#k);}.aq{fill:#f2f4fa;}</style><clipPath id="k"><path d="M76.23,321.03h490.21l-17.49-142.99C529.87,48.05,388.56,4.88,287.69,80.58c-40.97,23.82-88.88,31.36-135.66,26.31C60.96,98.15-2.68,209.71,50.96,283.7l25.27,37.34Z" style="fill:#dfeafb;"/></clipPath><clipPath id="l"><path d="M291.29,119.11l-29.4,23.86-9.5-10.4-12.33,11.27c1.45,1.6,10.09,11.01,11.28,12.4,4.78,5.59,14.1,5.61,18.91,.05l26.76-29.71-5.72-7.45Z" style="fill:#e9d0c4;"/></clipPath><clipPath id="m"><path d="M178.02,148.81l10.37-6.94-7.24-12.76c-6.13,3.61-16.22,7.36-16.08,15.98,.55,3.52-4.08,42.65-.28,44.33h0c4.47,5.09,9.39,.92,13.5-2.09l-5.73-.06,5.47-38.46Z" style="fill:#e9d0c4;"/></clipPath><clipPath id="n"><polygon points="193.89 166.2 196.62 309 206.22 309 226.35 165.88 193.89 166.2" style="fill:#3e4e8c;"/></clipPath><clipPath id="o"><polygon points="248.14 166.2 245.41 309 235.35 309 215.68 165.88 248.14 166.2" style="fill:#3e4e8c;"/></clipPath><clipPath id="p"><path d="M231.76,87.81c-.27,17.49-21.58,17.48-21.85,0-1.94-17.9,23.21-18.07,21.85,0Z" style="fill:#e9d0c4;"/></clipPath><clipPath id="q"><path d="M243.46,127.48c-2.16-14.36-13.12-21.55-25.41-19.96-9.81-.36-18.65,9.62-19.87,19.98-.16,1.04-8.01,52.89-8.01,52.89h61.29l-8.01-52.91Z" style="fill:#6290ef;"/></clipPath></defs><g id="a"/><g id="b"/><g id="c"/><g id="d"/><g id="e"/><g id="f"/><g id="g"/><g id="h"/><g id="i"/><g id="j"><g><path d="M76.23,321.03h490.21l-17.49-142.99C529.87,48.05,388.56,4.88,287.69,80.58c-40.97,23.82-88.88,31.36-135.66,26.31C60.96,98.15-2.68,209.71,50.96,283.7l25.27,37.34Z" style="fill:#dfeafb;"/><g style="clip-path:url(#k);"><polygon points="31.45 325.91 31.45 219.81 107.54 219.81 107.54 165.88 242.92 165.88 242.92 232.74 396.44 232.74 396.44 177.75 503.4 177.75 503.4 211.69 584.59 211.69 584.59 327.61 31.45 325.91" style="fill:#f2f7fd; opacity:.7;"/></g></g><g><path d="M422.13,126.49h-33.79c-2.04,0-3.83,1.39-4.32,3.38l-41.63,166.73h3.07l41.29-165.36c.23-.93,1.07-1.59,2.04-1.59h33.35c.87,0,1.58-.71,1.58-1.58h0c0-.87-.71-1.58-1.58-1.58Z" style="fill:#3e4e8c;"/><path d="M542.51,126.63h-33.84c-2.04,0-3.83,1.39-4.32,3.38l-41.63,166.73h3.07l41.29-165.36c.23-.93,1.07-1.59,2.04-1.59h33.4c.87,0,1.58-.71,1.58-1.58h0c0-.87-.71-1.58-1.58-1.58Z" style="fill:#3e4e8c;"/><g><g><path d="M384.47,304.62c-.07-6.44-2.52-13.81-8.99-16.08-2.97-.68-6.11-.2-9.14-.31-8.02-1.17-13.74,5.92-13.9,16.39,.16,10.48,5.88,17.56,13.9,16.39,3.03-.11,6.17,.36,9.14-.31,6.42-2.19,8.96-9.78,8.99-16.08h0Z" style="fill:#24325f;"/><path d="M327.33,297.5c-1.46-4.5-5.01-9.27-10.15-9.3h0c-3.21,.01-6.54,0-9.7,0-6.19,.15-11.17,7.59-11.07,16.68,.11,8.97,5.12,16.19,11.33,16.14,3.14-.01,6.29-.01,9.43,0h0c7.86-.36,11.3-9.55,11.26-16.41h0c0-2.55-.4-4.96-1.11-7.12Z" style="fill:#24325f;"/></g><g><g><rect x="405.01" y="199.16" width="80.98" height="99.85" style="fill:#d88d44;"/><rect x="448.06" y="199.16" width="9.59" height="11.39" style="fill:#f8f0e5;"/></g><g><rect x="296.41" y="199.16" width="122.02" height="99.85" style="fill:#e0a952;"/><rect x="350.19" y="199.16" width="14.46" height="11.39" style="fill:#f8f0e5;"/></g></g><g><g><rect x="284.79" y="298.14" width="212.83" height="5.69" style="fill:#3e4e8c;"/><rect x="284.79" y="298.14" width="106.41" height="5.69" style="fill:#24325f;"/></g><g><g><path d="M479.21,288.21c-2.47,.01-4.93,.01-7.4,0-16.74-2.38-17.7,32.29-2.11,32.83,2.47-.01,4.93-.01,7.4,0,16.74,2.38,17.7-32.29,2.11-32.83Z" style="fill:#24325f;"/><g><path d="M490.47,304.62c-.29,21.6-22.23,21.6-22.52,0,.29-21.6,22.23-21.6,22.52,0Z" style="fill:#3e4e8c;"/><path d="M483.25,304.62c-.11,8.32-7.97,8.32-8.08,0,.11-8.32,7.97-8.32,8.08,0Z" style="fill:#24325f;"/></g></g><g><path d="M423.18,288.21c-2.47,.01-4.93,.01-7.4,0-16.74-2.38-17.7,32.29-2.11,32.83,2.47-.01,4.93-.01,7.4,0,16.74,2.38,17.7-32.29,2.11-32.83Z" style="fill:#24325f;"/><g><path d="M434.44,304.62c-.29,21.6-22.23,21.6-22.52,0,.29-21.6,22.23-21.6,22.52,0Z" style="fill:#3e4e8c;"/><path d="M427.22,304.62c-.11,8.32-7.97,8.32-8.08,0,.11-8.32,7.97-8.32,8.08,0Z" style="fill:#24325f;"/></g></g></g></g></g></g><g><g><g><path d="M291.29,119.11l-29.4,23.86-9.5-10.4-12.33,11.27c1.45,1.6,10.09,11.01,11.28,12.4,4.78,5.59,14.1,5.61,18.91,.05l26.76-29.71-5.72-7.45Z" style="fill:#e9d0c4;"/><g style="clip-path:url(#l);"><polyline points="261.89 142.96 253.84 160.47 244.94 152.63 259.01 139 261.89 142.96" style="fill:#d99f9b;"/></g></g><g><g><rect x="277.64" y="124.13" width="32.53" height="45.49" rx="2.65" ry="2.65" style="fill:#3e4e8c;"/><rect x="280.82" y="127.63" width="26.16" height="38.52" style="fill:#f2f4fa;"/><rect x="288.32" y="123.13" width="11.16" height="5.58" rx="1.06" ry="1.06" style="fill:#24325f;"/></g><g><rect x="283.04" y="134.05" width="21.73" height="2.62" style="fill:#e3e8f2;"/><rect x="283.04" y="139.81" width="21.73" height="2.62" style="fill:#e3e8f2;"/><rect x="283.04" y="145.56" width="21.73" height="2.62" style="fill:#e3e8f2;"/><rect x="283.04" y="151.32" width="21.73" height="2.62" style="fill:#e3e8f2;"/><rect x="283.04" y="157.07" width="15.23" height="2.62" style="fill:#e3e8f2;"/></g></g><path d="M289.64,122.05c-.41,3.45,2.41,5.23,5.09,6.58,3.91,2.4,9.34-1.53,8.16-6.01-.42-3.17-2.45-4.71-5.41-5.44-3.32-1.07-7.57,1.23-7.85,4.86Z" style="fill:#e9d0c4;"/></g><rect x="182.37" y="116.04" width="36.05" height="21.94" transform="translate(436.87 146.39) rotate(152.32)" style="fill:#6290ef;"/><g><path d="M178.02,148.81l10.37-6.94-7.24-12.76c-6.13,3.61-16.22,7.36-16.08,15.98,.55,3.52-4.08,42.65-.28,44.33h0c4.47,5.09,9.39,.92,13.5-2.09l-5.73-.06,5.47-38.46Z" style="fill:#e9d0c4;"/><g style="clip-path:url(#m);"><polygon points="176.58 129.35 180.33 144.36 188.93 138.76 183.04 125.92 176.58 129.35" style="fill:#d99f9b;"/></g></g><rect x="223.93" y="123.16" width="36.05" height="21.94" transform="translate(165.71 -131.8) rotate(45)" style="fill:#6290ef;"/><polygon points="247.48 154.09 243.2 130.65 250.44 151.14 247.48 154.09" style="fill:#567dd2;"/><g><polygon points="193.89 166.2 196.62 309 206.22 309 226.35 165.88 193.89 166.2" style="fill:#3e4e8c;"/><g style="clip-path:url(#n);"><path d="M220.95,204.24c-13.95,18.54-18.16,80.03-19.26,106.71h8.42l10.42-65.42,.41-41.28" style="fill:#36457a;"/></g></g><g><polygon points="248.14 166.2 245.41 309 235.35 309 215.68 165.88 248.14 166.2" style="fill:#3e4e8c;"/><g style="clip-path:url(#o);"><path d="M220.95,204.24c11.86,15.07,18.41,84.24,18.7,105.87h-7.74l-10.96-105.87" style="fill:#36457a;"/></g></g><g><g><g><g><path d="M211.64,87.26c.74,4.44-3.08,5.09-3.85,.65-.74-4.44,3.08-5.09,3.85-.65Z" style="fill:#d99f9b;"/><path d="M230.02,87.26c-.74,4.44,3.08,5.09,3.85,.65,.74-4.44-3.08-5.09-3.85-.65Z" style="fill:#d99f9b;"/></g><g><g><path d="M231.76,87.81c-.27,17.49-21.58,17.48-21.85,0-1.94-17.9,23.21-18.07,21.85,0Z" style="fill:#e9d0c4;"/><g style="clip-path:url(#p);"><path d="M210.85,81.52s8.26,1.71,19.33-1.37c11.07-3.07,0,0,0,0l-1.2-3.96-16.12,.57-2.02,4.08" style="fill:#d99f9b;"/></g></g><path d="M226.49,91.02h-11.33c1.37,3.9-1.61,23.43-1.61,23.43h14.55s-2.98-19.53-1.61-23.43Z" style="fill:#e9d0c4;"/></g></g><path d="M215.32,99.29s5.13,3.96,11.02,0l.31,3.54s-6.34,2.96-11.64,.04l.31-3.58Z" style="fill:#d99f9b;"/></g><path d="M211.39,78.38s14.29,1.42,17.97-.78c3.69-2.2,2.91-9.63,2.91-9.63-2.09,.33-25.83-.25-20.88,10.41Z" style="fill:#54465a;"/><path d="M211.66,73.61s-3.99,1.2-4.47,2.83c-.48,1.64,2.87,7.96,2.87,7.96h0c.9,0,1.67-.63,1.88-1.51l1.24-5.34-1.52-3.95Z" style="fill:#54465a;"/><path d="M229.98,73.61s3.99,1.2,4.47,2.83c.48,1.64-2.87,7.96-2.87,7.96-.9,.02-1.74-.74-1.88-1.51-.02-.1-1.24-5.34-1.24-5.34l1.52-3.95Z" style="fill:#54465a;"/><path d="M228.46,78.01s3.22-1.87,3.3-3.72c0,0,1.22,4.48-3.3,3.72Z" style="fill:#342a4b;"/></g><path d="M198.23,309l-1.06,3.71-11.45,4.91c-1.36,.58-2.25,1.93-2.25,3.41h23.64l-.9-12.03h-7.99Z" style="fill:#24325f;"/><path d="M243.34,309l1.06,3.71,11.45,4.91c1.36,.58,2.25,1.93,2.25,3.41h-23.64l.9-12.03h7.99Z" style="fill:#24325f;"/><g><path d="M243.46,127.48c-2.16-14.36-13.12-21.55-25.41-19.96-9.81-.36-18.65,9.62-19.87,19.98-.16,1.04-8.01,52.89-8.01,52.89h61.29l-8.01-52.91Z" style="fill:#6290ef;"/><g style="clip-path:url(#q);"><polygon points="214.45 181.71 225.73 169.62 202.09 131.24 210.16 166.87 185.94 183.91 214.45 181.71" style="fill:#567dd2;"/></g></g><g><rect x="162.3" y="139.71" width="50.43" height="41.53" transform="translate(-49.1 90.28) rotate(-24.03)" style="fill:#e0a952;"/><rect x="176.41" y="141.24" width="7.84" height="6.24" transform="translate(-43.16 85.95) rotate(-24.03)" style="fill:#f8f0e5;"/></g><path d="M169,183.91c2.44,.53,7.13,.38,7.59,3.7l-7.59,.38v-4.08Z" style="fill:#e9d0c4;"/><path d="M214.45,107.91c2.21,6.56,10.56,6.56,12.77,0,0,0-5.46-2.96-12.77,0Z" style="fill:#e9d0c4;"/><polygon points="194.13 180.4 247.86 180.4 194.36 190.8 194.13 180.4" style="fill:#36457a;"/><path d="M214.45,107.91l6.09,4.94-2.52,1.6c-4.02,2.12-4.68-3.46-5.66-5.94,0,0,1.06-.46,2.08-.59Z" style="fill:#f2f4fa;"/><path d="M222.07,112.73l2.37,1.47c1.66,1.03,3.85,.08,4.22-1.85l.74-3.81s-1.66-.55-2.18-.64l-5.15,4.82Z" style="fill:#f2f4fa;"/></g><g><g><rect x="80.91" y="237.44" width="69.19" height="83.59" style="fill:#e0a952;"/><rect x="110.16" y="237.44" width="10.69" height="8.11" style="fill:#f8f0e5;"/></g><g><rect x="150.1" y="237.44" width="36.14" height="83.59" style="fill:#d88d44;"/><rect x="165.53" y="237.44" width="9.16" height="8.11" style="fill:#f8f0e5;"/></g></g><g><rect x="355.46" y="67.38" width="68.2" height="26.46" rx="2.06" ry="2.06" style="fill:#d8e6fa;"/><g><rect x="352.44" y="64.17" width="69.08" height="27.01" rx="3.1" ry="3.1" style="fill:#fff;"/><g><rect x="357.73" y="68.65" width="58.5" height="3.39" style="fill:#e1ecfa;"/><rect x="357.73" y="75.98" width="58.5" height="3.39" style="fill:#e1ecfa;"/><rect x="357.73" y="83.3" width="38.83" height="3.39" style="fill:#e1ecfa;"/></g></g></g><g><path d="M330.94,249.09h-34.53v24.19h34.53c1.53,0,2.78-1.24,2.78-2.78v-18.63c0-1.53-1.24-2.78-2.78-2.78Z" style="fill:#d88d44;"/><g><rect x="268.54" y="245.52" width="61.88" height="24.19" rx="2.78" ry="2.78" style="fill:#fff;"/><g><rect x="273.28" y="249.54" width="52.4" height="3.03" style="fill:#e1ecfa;"/><rect x="273.28" y="256.1" width="52.4" height="3.03" style="fill:#e1ecfa;"/><rect x="273.28" y="262.66" width="34.78" height="3.03" style="fill:#e1ecfa;"/></g></g></g><path d="M13.83,321.31c191.02-.75,390.57-.76,581.58,0-191.02,.76-390.57,.75-581.58,0h0Z" style="fill:#24325f;"/></g></svg>