<?xml version="1.0" encoding="UTF-8"?><svg xmlns="http://www.w3.org/2000/svg" viewBox="0 0 600 350"><g id="a"/><g id="b"/><g id="c"/><g id="d"/><g id="e"/><g id="f"/><g id="g"/><g id="h"/><g id="i"/><g id="j"><g><path d="M101.32,323.94S-8.36,214.17,59.75,148.53c68.11-65.63,121.94,19.57,159.17,13.29,47.12-7.95,67.5-127.5,137.95-127.62,80.16-.13,138.99,47.25,107.65,160.1-23.11,83.23,135.76,15.07,112.43,131.25l-475.64-1.62Z" style="fill:#ebf1f8;"/><path d="M340.54,309.68c-14.91-2.4-26.17,2.82-36.99,1.32-8.63-1.2-13.13-9.93-24.73-12.4,2.76-1.63,5.97-3.66,7.51-5.14,2.99-2.88,7.27-8.63,0-8.85-5.23-.16-9.31,8.55-11.18,13.46-1.72-.14-3.58-.16-5.6,0,2.39-7.72,7.06-22.65,8.2-25.52,1.55-3.9-4.97-16.92-12.67-2.31-5.4,10.25-1.73,22.09,.94,28.25-2.11,.34-4.1,.83-6,1.42-6.36-14.5-26.58-55.86-48.51-50.72-23.9,5.6,27.31,33.4,40.22,54.01-10.55,4.89-19.82,10.83-35.84,6.49-42.59-11.53-45.96,14.41-45.96,14.41l190.31,.06s-4.79-12.08-19.7-14.48Z" style="fill:#b5d09a;"/><g><path d="M288.77,216.34c.2,1.83,2.79,1.77,5.72,1.33,2.93-.44,2.17,.33,6.29,.25,4.12-.08,5.49-1.49,5.67-2.08,.16-.53-1.84-.9-3.98-1.35-.27-.06-.54-.11-.81-.17-2.41-.53-4.05-2.27-6.15-3.76-1.99-1.42-3.33-7.91-3.33-7.91l-5.85-.03s1.84,5.87,2.8,7.91c.56,1.2-.04,2.74-.23,3.9-.1,.63-.2,1.27-.13,1.92Z" style="fill:#eaad7d;"/><path d="M294.48,217.66c2.93-.44,2.17,.33,6.29,.25,4.12-.08,5.49-1.49,5.67-2.08,.16-.53-1.84-.9-3.98-1.35l-.02,.04s-2.6,1.51-6,1.28c-2.77-.18-5.63-1.24-7.54-1.39-.1,.63-.2,1.27-.13,1.92,.2,1.83,2.79,1.77,5.72,1.33Z" style="fill:#465d9f;"/><path d="M243,216.04c.13,1.84,2.72,1.87,5.66,1.54,2.94-.33,2.16,.41,6.28,.49,4.12,.08,5.54-1.28,5.75-1.87,.18-.52-1.8-.97-3.92-1.5-.27-.07-.53-.13-.8-.2-2.39-.62-3.97-2.42-6.01-3.99-1.93-1.49-.34-7.67-.34-7.67l-4.44-2.1s-.61,6.37-.94,9.59c-.14,1.32-.79,2.64-1.02,3.79-.12,.62-.25,1.26-.2,1.91Z" style="fill:#eaad7d;"/><path d="M248.66,217.59c2.94-.33,2.16,.41,6.28,.49,4.12,.08,5.54-1.28,5.75-1.87,.18-.52-1.8-.97-3.92-1.5l-.03,.04s-2.66,1.41-6.05,1.06c-2.76-.29-5.58-1.46-7.49-1.67-.12,.62-.25,1.26-.2,1.91,.13,1.84,2.72,1.87,5.66,1.54Z" style="fill:#465d9f;"/><path d="M252.98,124.32s-1.23,5.96-2.46,36.17c0,0-2.29,5.59-3.94,12.44-1.66,6.84-2.83,35.38-2.83,35.38,0,0,.66,.95,2.67,1.07,1.64,.1,2.91-.62,2.91-.62,0,0,11.53-37.39,17.14-51.9,5.61-14.51,8.9-35.24,8.9-35.24l-22.38,2.69Z" style="fill:#384987;"/><path d="M266.84,126.87s.91,6.02,10.21,34.79c0,0-.21,6.04,.61,13.03,.81,6.99,10.23,34.52,10.23,34.52,0,0,1.25,.43,3.13-.06,1.74-.46,3.11-1.51,3.11-1.51,0,0-3.61-39.35-3.37-54.9,.24-15.56-3.85-36.14-3.85-36.14l-20.06,10.28Z" style="fill:#384987;"/><path d="M283.32,43.54c-1.46-.93-3.25-1.11-4.51-1.1,.34-.32,.98-.41,.98-.41-.77-.16-2.55,.53-2.55,.53-10.64-4.72-13.15,11.17-13.11,14.89,.04,3.72-.15,8-5.73,11.06-10.99,6.02-2.57,17.91-2.57,17.91-1.98,5.68,5.34,12.63,5.34,12.63-.12-3.01,13.71-22.22,21.17-26.6,1.89-2.5,2.74-7.04,2.81-7.4-.48,3.61-1.21,5.61-1.82,6.73,6.4-5.32,3.85-25.79-.02-28.24Z" style="fill:#ad5549;"/><path d="M281,70.4s-3.49,1.85-6.14,1.12c-2.5-.68-4.13-3.92-4.09-3.92,1.06-.21,1.36-1.66,1.34-7.9l.48,.09,7.75,1.53,.29,.06s-.18,2.53-.19,4.91c0,.5,0,1,.02,1.47,.05,1.38,.21,2.48,.55,2.64Z" style="fill:#eaad7d;"/><path d="M280.43,66.29c0,.5,0,1,.02,1.47-4.51-.18-7.1-5.33-8.08-7.59l7.96,1.16,.29,.06s-.18,2.53-.19,4.91Z" style="fill:#d38c54;"/><path d="M271.75,58.91s-2.36-3.72-2.92-6.91c-.4-2.27,.75-10.7,9.22-9.48,0,0,2.46,.24,4.77,1.8,1.84,1.24,4.49,3.92,1.52,11.27l-.77,2.48-11.82,.83Z" style="fill:#ad5549;"/><path d="M281.09,65.12s-10.55-1.39-9.58-7.95c.97-6.55,.26-11.15,7.04-10.54,6.78,.61,7.71,3.31,7.92,5.57,.21,2.27-2.61,13.11-5.38,12.91Z" style="fill:#eaad7d;"/><path d="M283.36,47.19s-4.03,7.26-8.62,7.74c-4.59,.48-6.33-.99-6.33-.99,0,0,3.79-2.19,5.2-6.79,0,0,8.12-3.94,9.75,.04Z" style="fill:#ad5549;"/><path d="M282.56,47.7s1.9,2.04,2.17,3.78c.28,1.75,0,5.22,1.02,5.25,0,0,2.95-4.9,.95-8.22-2.12-3.52-4.14-.81-4.14-.81Z" style="fill:#ad5549;"/><path d="M352.6,136.76c-2.21-4.69-8.36-8.57-13.55-8.57-3.83,0-7.2,1.31-9.82,3.43-1.49,1.22-3.75,.41-4.15-1.47l-4.54-21.08c-.66-3.07-3.69-5.03-6.76-4.37l-73.4,15.8c-3,.65-4.91,3.6-4.27,6.61l15.78,73.32c.45,2.1,1.99,3.68,3.9,4.29l-.96,.27h2.87c.35-.01,.7-.05,1.05-.13l1.6-.34h0l18.84-4.05c2.64-.57,3.72-3.77,1.94-5.81-1.72-1.97-2.95-4.41-3.48-7.17-1.48-7.79,3.33-15.5,10.98-17.57,8.51-2.31,17.11,3.01,18.94,11.52,.69,3.2,.32,6.38-.87,9.18-.46,1.09-.08,2.22,.72,2.86l-1.1,.54h2.55c.19,0,.39-.01,.59-.06l22.49-4.84c3.07-.66,5.03-3.69,4.37-6.77l-4.51-20.95c-.42-1.94,1.35-3.64,3.27-3.14,2.22,.57,4.6,.65,7,.13,9.41-2.03,14.91-12.33,10.52-21.64Z" style="fill:#be6722;"/><path d="M336.46,128.2c-3.83,0-7.2,1.31-9.82,3.43-1.49,1.22-3.75,.41-4.15-1.47l-4.54-21.08c-.66-3.07-3.69-5.03-6.76-4.37l-73.4,15.8c-3,.65-4.91,3.6-4.27,6.61l15.78,73.32c.67,3.12,3.74,5.1,6.86,4.43l20.44-4.4c2.64-.57,3.72-3.77,1.94-5.81-1.72-1.97-2.95-4.41-3.48-7.17-1.48-7.79,3.33-15.5,10.98-17.57,8.51-2.31,17.11,3.01,18.94,11.52,.69,3.2,.32,6.38-.87,9.18-.78,1.82,.82,3.76,2.75,3.34l22.49-4.84c3.07-.66,5.03-3.69,4.37-6.77l-4.51-20.95c-.42-1.94,1.35-3.64,3.27-3.14,2.22,.57,4.6,.65,7,.13,9.41-2.03,14.91-12.33,10.52-21.64-2.21-4.69-8.36-8.57-13.55-8.57Z" style="fill:#dca155;"/><path d="M309.6,100.32s4.58,.75,5.78,3.73c1.2,2.98-.48,4.99-1.12,4.99-.64,0-1.88-.48-2.46-2.03-.58-1.54-2.2-6.69-2.2-6.69Z" style="fill:#eaad7d;"/><path d="M246.57,113.61s5.14,0,6.99,3.03c1.85,3.04,.38,5.54-.32,5.65-.71,.11-2.14-.19-3.05-1.77-.91-1.58-3.61-6.91-3.61-6.91Z" style="fill:#eaad7d;"/><path d="M309.73,103.78c-.46-.1-2.45-.33-4.98-.73-4.67-.73-11.17-2.02-13.35-4.03-.59-.55-1.97-3.55-3.4-7-1.45,7.63-1.53,13.49-1.14,17.95l-31.54,6.79c2.7-5.47,6.89-12.25,6.11-17.73-.29-2.03-1.41-4.82-1.82-7.96-.04-.27-.06-.54-.09-.81-4.42,3.64-9.53,7.66-9.66,8.46-.2,1.35,3.24,16.26,3.24,16.26-.86,1.97-4.57,1.55-4.57,1.55-3.48-2.49-8.6-16.57-8.19-19.69,.41-3.12,13.1-20.9,16.17-25.15,3.03-4.2,14.11-4.09,14.38-4.09h0c8.81,5.29,9.6,.89,9.6,.89,0,0,7.95,1.51,9.31,3.86,1.37,2.35,7.36,20.15,7.78,20.78,.89,1.31,15.37,6.56,15.63,8.08,.26,1.52-2.18,2.87-3.48,2.59Z" style="fill:#92bbc9;"/><path d="M266.31,114.39l-11,2.36c2.74-5.45,6.34-12.24,5.55-17.69-.29-2.04-.95-4.44-1.27-7.59-.03-.3-.08-1.22-.08-1.22,0,0,7.79,6.13,7.92,12.76,.07,3.44-.53,7.94-1.12,11.39Z" style="fill:#7398a5;"/><path d="M305.04,103.09c-4.72-.73-11.31-2.02-13.52-4.04-.6-.55-1.99-3.56-3.44-7.01,0,0-.51-5.55,.94-5.34,1.45,.21,3.59,10.05,5.11,10.67,1.36,.56,8.9,3.45,10.91,5.72Z" style="fill:#7398a5;"/></g><g id="k"><g><path d="M537.71,314.52c-.67,2.24-3.74,3.74-4.15,6.48-.2,1.34-.7,2.38-1.33,3.09h-9.57c.1-.53,.52-1.09,1.76-1.37,2.66-.58,3.66-3.8,3.5-6.79-.07-1.25-.04-2.68,.02-3.92,.08-1.71,.22-3.06,.22-3.06l5.65-1.33,.59,.76,.57,.73s3.41,3.16,2.74,5.4Z" style="fill:#343d63;"/><path d="M493.15,324.09h-19.36c.44-.51,1.18-1.01,2.44-1.21,2.98-.48,8.14-2.21,9.29-6.02,.04-.12,.07-.25,.1-.37,.91-4.07,7.56,1.25,7.56,1.25,0,0,.02,.16,.05,.44,.12,1.15,.37,4.25-.08,5.92Z" style="fill:#343d63;"/><path d="M477.02,216.23s1.01,12.59,2.2,27.73c1.61,20.57,3.55,45.83,3.74,50.61,.33,8.31,1.66,21.6,1.66,21.6,0,0,3.16,3.16,9.47,1.83,0,0,5.63-18.98,7.24-39.05,.02-.33,.05-.66,.07-.99,1.5-20.44,3.82-63.47,3.82-63.47l-28.2,1.74Z" style="fill:#3e4987;"/><path d="M477.02,216.23s1.01,12.59,2.2,27.73l22.11,34.99c.02-.33,.05-.66,.07-.99,1.5-20.44,3.82-63.47,3.82-63.47l-28.2,1.74Z" style="fill:#343d63;"/><path d="M481.63,217.73s18.19,45.61,30.16,67.05c11.96,21.43,15.7,27.42,15.7,27.42,0,0,6.85-2.74,7.48-4.61,0,0-4.58-41.38-12.59-51.47-4.53-5.7-9.85-22.81-10.09-28.79-.25-5.98-1.62-17.82-1.62-17.82l-29.04,8.23Z" style="fill:#3e4987;"/></g><path d="M490.96,147.32c-.81-4.78-.83-7.61-.83-7.61l9.23-7.44c-.34,10.23,6.21,15.15,6.21,15.15,0,0-12.3,6.06-19.41,3.81,0,0,1.75-2.24,4.8-3.91Z" style="fill:#845c35;"/><path d="M487.96,139.55s11.74,1.95,12.85-5.38,3.36-12.02-4.09-13.57c-7.45-1.56-9.33,1.02-10.3,3.38-.96,2.36-1.49,14.88,1.54,15.58Z" style="fill:#926d41;"/><g><path d="M446.71,154.66l-2.5-1.55s-3.12-4.6-8.44-1.74c0,0-2.11,1.34-.69,2.47,1.42,1.13,1.04,.49,3,2.12,1.96,1.63,4.5,2.21,6.13,1.31l2.1-.2,.41-2.42Z" style="fill:#926d41;"/><path d="M443.74,155.14c.64-2.01,.95-2.19,.95-2.19,0,0,20.22,2.39,22.13,2.53,1.91,.14,28.38-5.31,28.38-5.31l12.5,15.18s-36.85,1.39-41.68,.94c-7.97-.75-22.42-8.17-22.42-8.17,0,0-.36-1.39,.15-2.97Z" style="fill:#bc7738;"/></g><path d="M512.06,211.84c.04,.78-1.58,1.64-2.28,1.96-5.28,2.37-10.19,4.01-15.75,4.54-6.59,.68-14.37-.81-17.04-.77-.29,0-.53-.11-.75-.28-.18-.14-.32-8.19-.18-18.34,0-.39,0-.82,.04-1.21v-.14c.01-1.06,.03-2.13,.05-3.21,.07-2.97,.18-6.01,.31-9.04,.19-4.46,.46-8.84,.82-12.73,.38-4.06,.87-7.57,1.49-10.06,1.42-5.73,4.7-9.51,7.69-12.29l2.46-2.17c2.46,.5,5.06,.35,7.66-.93,2.81-1.39,5.88-2.88,6.37-2.53,3.8,2.84,6.35,9.28,7.66,17.46,.7,4.41,1.05,9.32,1.03,14.44,0,1.97-.07,3.96-.18,5.98-.63,10.81,.02,20.18,.39,25.63,.11,1.57,.19,2.81,.22,3.67Z" style="fill:#d29b4b;"/><path d="M449.62,111.89l-74.27-11.8c-3.16-.5-6.12,1.65-6.63,4.81l-3.29,20.7c-.15,.96,.09,3.65,.09,3.65l2.68,.4c.15,.03,.31,.06,.46,.07h0c.48,.04,.99-.02,1.49-.2,2.46-.89,5.19-1.16,7.97-.65,7.82,1.43,13.29,8.73,12.46,16.63-.93,8.79-9.01,14.91-17.63,13.54-3.24-.52-6.08-2.01-8.27-4.14-.42-.41-.93-.63-1.45-.68h0l-2.8-.42-3.49,25.25c-.49,3.11,1.63,6.04,4.74,6.53l21.22,3.37c1.96,.31,2.91,2.58,1.75,4.2-1.34,1.87-2.27,4.07-2.66,6.49-1.51,9.53,6.13,18.41,16.42,17.67,5.18-.37,11.04-4.72,12.91-9.56,1.39-3.58,1.39-7.21,.34-10.42-.6-1.84,.97-3.65,2.88-3.35l21.35,3.39c3.11,.49,6.04-1.63,6.53-4.74l11.81-74.35c.48-3.04-1.59-5.9-4.63-6.38Z" style="fill:#5974c6;"/><path d="M503.21,161.89s-5.69,26.57-27.07,32.49c.07-2.97,.18-6.01,.31-9.04,.19-4.46,.46-8.84,.82-12.73,.38-.2,.74-.35,1.07-.46,7.25-2.39,24.87-10.27,24.87-10.27Z" style="fill:#bc7738;"/><path d="M408.6,207.33c1.39-3.58,1.39-7.21,.34-10.42-.6-1.84,.97-3.65,2.88-3.35l21.35,3.39c3.11,.49,6.04-1.63,6.53-4.74l11.81-74.35c.48-3.04-1.59-5.9-4.63-6.38l-74.27-11.8c-3.16-.5-6.12,1.65-6.63,4.81l-3.29,20.7c-.43,2.68,2.18,4.84,4.73,3.92,2.46-.89,5.19-1.16,7.97-.65,7.82,1.43,13.29,8.73,12.46,16.63-.93,8.79-9.01,14.91-17.63,13.54-3.24-.52-6.08-2.01-8.27-4.14-1.42-1.38-3.81-.6-4.12,1.36l-3.62,22.79c-.49,3.11,1.63,6.04,4.74,6.53l21.22,3.37c1.96,.31,2.91,2.58,1.76,4.2-1.34,1.87-2.27,4.07-2.66,6.49-1.51,9.53,6.13,18.41,16.42,17.67,5.18-.37,11.04-4.72,12.91-9.56Z" style="fill:#7a9bea;"/><g><path d="M446.79,171.79l-3.05-.51s-3.48-5.04-9.55-2.21c0,0-2.41,1.35-.81,2.61,1.59,1.26,1.17,.57,3.37,2.39,2.2,1.82,5.07,2.55,6.94,1.66l2.38-.12,.73-3.81Z" style="fill:#926d41;"/><path d="M444.46,173.34c.1-2.25,1.3-2.49,1.3-2.49,0,0,23.13-1.53,25.13-1.92,2-.39,20.42-15.65,20.42-15.65,0,0,7.13-6.4,12.12-4.24,4.34,1.88,5.7,5.58,5.91,8.99,.26,4.06-2.03,7.86-5.72,9.58-8.27,3.86-24.82,11.45-28.59,12.11-8.39,1.46-29.95-3.21-29.95-3.21,0,0-.7-1.4-.62-3.16Z" style="fill:#d29b4b;"/></g><path d="M486.42,123.97s-4.77-3.53-1.66-9.03c0,0,3.75,1.24,9.08,0,5.33-1.24,10.09,.52,10.71,2.38,0,0,2.07,.83,2.28,3.94,.21,3.11-6.03,12.9-6.03,12.9,0,0-1.33-1.66-.97-2.8,.36-1.14,1.5-3.68,.1-3.68s-1.87,2.07-2.44,1.24c-.57-.83,.47-4.3-1.19-4.87-1.66-.57-8.03,.96-9.9-.09Z" style="fill:#343d63;"/></g><path d="M324.41,321.45l-21-95.32h5.78c1.37,0,2.49-1.12,2.49-2.49v-3.22c0-1.37-1.12-2.49-2.49-2.49h-73.31c-1.37,0-2.49,1.12-2.49,2.49v3.22c0,1.37,1.12,2.49,2.49,2.49h7.44l-21,95.32c-.28,1.28,.53,2.56,1.81,2.84,1.28,.28,2.55-.53,2.84-1.82l21.22-96.35h50.35l21.22,96.35c.28,1.28,1.56,2.1,2.84,1.82h0c1.28-.28,2.09-1.56,1.81-2.84Z" style="fill:#cadef2;"/><g><path d="M463.63,263.07c-7.77-7.46-35.75,39.61-35.75,39.61,0,0,43.52-32.15,35.75-39.61Z" style="fill:#b5d09a;"/><path d="M462.7,284.83c-6.88-2.75-28.86,20.43-33.82,25.78-3.79-.5-7.94-.83-12.5-.91-34.81-.62-50.61,15.15-50.61,15.15l97.12,.33s-8.6-10.92-33.01-14.43c5.96-2.82,23.6-11.02,30.02-12.6,7.77-1.91,10.57-10.21,2.8-13.32Z" style="fill:#b5d09a;"/></g><g><path d="M435.31,237.59h-20.96c-2.71,0-4.44,2.91-3.13,5.28,1.27,2.29-3.19,22.16-12.58,22.67-8.83,.49-16.13-6.56-16.13-15.28,0-3.28,1.03-6.32,2.79-8.82,1.14-1.62,0-3.85-1.99-3.85h-23.07c-3.15,0-5.71,2.56-5.71,5.71,0,0-2.09,24.76-3.87,23.87-1.83-.92-3.87-1.47-6.03-1.58h-.02c-.26-.01-.52-.02-.78-.02s-4.06-.06-4.06-.06l-.58,30.6,3.3,.04c3.14-.09,5.86-.39,8.28-1.62,1.72-.88,3.76,.38,3.76,2.32v21.62c0,3.15,2.56,5.71,5.71,5.71h75.28c3.08,0,5.58-2.5,5.58-5.58v-75.2c0-3.2-2.59-5.79-5.79-5.79Z" style="fill:#be6722;"/><path d="M336.36,295.74c3.75,.81,7.34,.24,10.35-1.29,1.72-.88,3.76,.38,3.76,2.32v21.62c0,3.15,2.56,5.71,5.71,5.71h75.28c3.08,0,5.58-2.5,5.58-5.58v-75.2c0-3.2-2.59-5.79-5.79-5.79h-20.96c-2.71,0-4.44,2.91-3.13,5.28,1.27,2.29,1.96,4.94,1.89,7.76-.19,7.95-6.54,14.49-14.47,14.91-8.83,.46-16.13-6.56-16.13-15.28,0-3.28,1.03-6.33,2.79-8.82,1.14-1.62,0-3.85-1.99-3.85h-23.07c-3.15,0-5.71,2.56-5.71,5.71v21.48c0,1.99-2.09,3.28-3.87,2.39-2.06-1.03-4.38-1.61-6.83-1.61-9.65,0-17.22,8.94-14.88,18.99,1.18,5.06,6.39,10.16,11.47,11.26Z" style="fill:#dca155;"/></g><path d="M118.38,324.51l13.53,.1s-.47-3.27-9.58-4.12h0c-3.53-9.81-13.9-36.2-22.91-34.95-8.89,1.23,12.17,25.44,20.74,34.85-1.21,0-2.34,.1-3.39,.27-2.06-4.11-6.16-9.92-12.73-9.66-6.99,.28,2.53,6.67,9.09,10.59-3.32,1.19-5.11,2.84-5.11,2.84l10.2,.07c.12,.07,.19,.1,.19,.1,0,0-.01-.04-.03-.1Z" style="fill:#b5d09a;"/><g><g><path d="M166.73,215.17l2,1.63s5.48-1.96,6.71,4.54c0,0,.33,2.77-1.43,2.78-1.76,0-1.03-.3-3.52-.23-2.49,.07-4.55-1.24-4.91-3.26l-1.19-1.71,2.34-3.75Z" style="fill:#d38c54;"/><path d="M166.5,218.66c1.6-1.67,1.47-2.9,1.47-2.9,0,0-18.5-15.14-20.37-16.38-1.28-.84-14.9-12.92-21.27-20.28-3.16-3.65-7.07-2.23-11.55-.95l-3.69,1.06c-4.45,1.28-5.61,7.5-1.96,10.53,10.28,8.52,27.39,18.1,30.6,20.11,7.95,5,23.5,10.94,23.5,10.94,0,0,1.89-.7,3.26-2.13Z" style="fill:#2d3f6e;"/></g><path d="M188.15,311.54s4.49,3.36,11.37,1.59c0,0,5.55-1.26,6.76,1.5,0,0-8.5,4.32-10.66,5.5-1.62,.89-3.31,2.3-4.51,3.38-.95,.86-2.42,.74-3.23-.25-.37-.46-.8-1.01-1.27-1.64-1.31-1.78-4.37-7.52-4.37-7.52l5.91-2.56Z" style="fill:#2e3b61;"/><path d="M190.24,309.99s-2.73,6.3-9.04,5.14c0,0-12.87-10.63-21.7-21.68-2.87-3.59-5.31-7.22-6.74-10.54-5.86-13.56-21.66-33.78-31.71-44.03l25.14-9.1s8.05,16.2,18.77,36.1c7.72,14.34,16.82,30.59,25.29,44.1Z" style="fill:#384987;"/><path d="M164.95,265.89l-5.45,27.57c-2.87-3.59-5.31-7.22-6.74-10.54-5.86-13.56-21.66-33.78-31.71-44.03l25.14-9.1s8.05,16.2,18.77,36.1Z" style="fill:#2e3b61;"/><path d="M144.33,315.11s-.27,5.03,5.82,5.7c0,0,3.48,.02,3.49,3.22l-17.72,.06s-.51-1.29-.64-4.06c-.1-2.12,2.06-7.67,2.06-7.67l6.98,2.76Z" style="fill:#2e3b61;"/><path d="M137.94,229.79s11.2,12.31,18.31,34.48c3.87,12.06-7.09,42.39-9.23,52.93,0,0-7.35,.62-12.38-1.32,0,0-.38-21.77,2.56-38.54,1.65-9.39-14.75-20.08-21.91-37.04-4.87-11.54,1.06-11.35,8.34-11.62l14.31,1.12Z" style="fill:#384987;"/><path d="M125.01,174.88c-6.23,3.52-18.99,.27-18.99,.27,0,0,5.18-5.92,2.83-15.46l4.89,2.48,5.26,2.67s.34,1.68,.58,4.71c.06,.78,.11,1.65,.15,2.6,3.2,.97,5.29,2.72,5.29,2.72Z" style="fill:#eaad7d;"/><path d="M147.86,229.15c0,1.1-1.26,1.62-1.53,1.67-2.51,.46-9.53,3.19-15.85,3.82-5.32,.56-10.27,.03-15.7-1.06-.72-.14-2.41-.6-2.53-1.29-.15-.75-20.94-42.39-4.78-60.28,.38-.42,3.57,.34,6.49,1.03,2.69,.64,5.17,.28,7.37-.6l2.74,1.44c3.36,1.87,9.72,8.53,10.46,13.75,.38,2.65,1.9,4.62,2.34,6.96,.16,.86,.33,1.71,.5,2.53,.33,1.61,.67,3.15,1.02,4.61,.95,3.95,1.95,7.35,2.94,10.28,1.05,3.12,2.08,5.71,3,7.88,1.19,2.81,2.2,4.92,2.83,6.53,.44,1.13,.7,2.02,.7,2.74Z" style="fill:#3a4f92;"/><path d="M147.16,226.41c-29.35-13.83-39.52-40.38-39.52-40.38,0,0,23.85,8.8,29.73,11.09,.33,1.61,.67,3.15,1.02,4.61,.95,3.95,1.95,7.35,2.94,10.28,1.05,3.12,2.08,5.71,3,7.88,1.19,2.81,2.2,4.92,2.83,6.53Z" style="fill:#2d3f6e;"/><path d="M230.07,197l-6.29-19.94c-.61-1.94-2.61-2.85-4.36-2.36h0c-.09,.03-.18,.06-.28,.09l-2.2,.74s-3.45,3.55-5.93,4.27c-7.62,2.2-14.84-1.86-17.62-9.28-3.09-8.26,.5-17.33,8.8-19.94,2.84-.9,8.43,.77,8.43,.77l2.24-.75c1.22-.37,2.06-1.69,1.62-3.07l-6.92-21.94c-.95-3-4.14-4.66-7.14-3.72l-20.43,6.44c-1.89,.6-3.75-1.01-3.44-2.96,.36-2.26,.21-4.64-.52-6.98-2.9-9.18-13.67-13.7-22.52-8.45-4.46,2.64-7.75,9.13-7.26,14.29,.36,3.81,1.97,7.05,4.33,9.45,1.35,1.37,.76,3.69-1.08,4.27l-20.56,6.48c-3,.95-4.66,4.14-3.72,7.14l22.58,71.61c.92,2.93,4.05,4.55,6.98,3.63l71.53-22.56c3.04-.96,4.73-4.2,3.77-7.24Z" style="fill:#5974c6;"/><path d="M144.05,124.94c.36,3.81,1.97,7.05,4.33,9.45,1.35,1.37,.76,3.69-1.08,4.27l-20.56,6.48c-3,.95-4.66,4.14-3.72,7.14l22.58,71.61c.92,2.93,4.05,4.55,6.98,3.63l71.53-22.56c3.04-.96,4.73-4.2,3.77-7.24l-6.29-19.94c-.81-2.58-4.1-3.35-5.96-1.39-1.8,1.89-4.11,3.35-6.82,4.13-7.61,2.2-15.75-1.87-18.52-9.29-3.09-8.26,1.4-17.31,9.7-19.93,3.12-.98,6.33-.91,9.23,.01,1.88,.6,3.66-1.16,3.07-3.05l-6.92-21.94c-.95-3-4.14-4.66-7.14-3.72l-20.43,6.44c-1.89,.6-3.75-1.01-3.44-2.96,.36-2.26,.21-4.64-.52-6.98-2.9-9.18-13.67-13.7-22.52-8.45-4.46,2.64-7.75,9.13-7.26,14.29Z" style="fill:#7a9bea;"/><g><path d="M164.33,218.4l2.54,.93s5.08-3.59,8.24,2.25c0,0,1.14,2.55-.67,3.11-1.81,.55-1.15,.03-3.7,.88-2.55,.85-5.05,.24-6.01-1.58l-1.72-1.26,1.32-4.32Z" style="fill:#eaad7d;"/><path d="M166.42,221.98c.94-2.45,1.37-3.55,1.37-3.55,0,0-19.17-15.62-21.12-16.96-1.33-.91-14.58-10.82-21.04-18.53-3.2-3.83-8.26-5.58-13.14-4.55l-4.02,.84c-4.86,1.02-6.44,7.17-2.67,10.4,10.61,9.1,28.52,19.65,31.85,21.85,8.29,5.45,26.61,13.09,26.61,13.09,0,0,1.42-.65,2.16-2.57Z" style="fill:#3a4f92;"/></g><path d="M119.57,169.56c-6.13,.34-10.11-4.72-10.11-4.72,0,0,2.77-1.53,4.28-2.66l5.26,2.67s.34,1.68,.58,4.71Z" style="fill:#d38c54;"/><path d="M122.18,163.27s-9.29,6.66-13.35,.82c-4.06-5.85-7.99-8.92-2.24-13.42,5.76-4.5,8.47-3.08,10.3-1.46,1.83,1.62,7.59,12.18,5.28,14.07Z" style="fill:#eaad7d;"/><path d="M117.88,143.92c-.33-2.25-1.08-3.83-1.08-3.83,0,0-.58,2.41-4.99,2.08-4.41-.33-11.4,.43-13.73,5.46-.15,.32-.28,.65-.4,.99-.42-1.11-.52-2.78-.52-2.78-.84,2.16,0,4.87,0,4.87h0c-.01,.08-.02,.16-.03,.24-.97,.82-1.79,3.38-1.79,3.38,.29-.71,1.01-1.18,1.65-1.47-.02,3.91,1.57,7.74,4.35,8.87,4.07,1.66,4.04,.39,8.13,3.11,0,0,1.1-1.36,.35-2.28-.75-.92-3.58-2.25-2-3.58,1.58-1.33,2.16,.17,2.75-.75,.58-.92-2.33-3.58,1.41-6.08,3.75-2.5,6.24-5.99,5.91-8.24Z" style="fill:#2e3b61;"/></g><path d="M356.9,324.12s-4.7-6.94-12.04-6.38c-2.23,.17-5.86,.71-10.08,1.29-3.18-11.09-11.94-37.47-23.76-38.95-12.07-1.52,11.55,27.81,21.21,39.29-1.76,.23-3.59,.46-5.44,.66-5.11-5.46-14.03-13.55-21.47-12.93-7.46,.62,6.51,8.34,16.59,13.38-6.19,.46-12.05,.41-15.63-.97-8.78-3.39-16.84,4.6-16.84,4.6h67.47Z" style="fill:#90b07a;"/><rect x="25.93" y="324.09" width="567.76" height="1.51" rx=".64" ry=".64" style="fill:#343852;"/></g></g></svg>