<?xml version="1.0" encoding="UTF-8"?><svg xmlns="http://www.w3.org/2000/svg" xmlns:xlink="http://www.w3.org/1999/xlink" viewBox="0 0 600 350"><defs><style>.ae{clip-path:url(#ac);}.af{fill:#b2dbf6;}.af,.ag,.ah,.ai,.aj,.ak,.al,.am,.an,.ao,.ap,.aq,.ar,.as,.at,.au,.av,.aw,.ax,.ay,.b`,.ba,.bb,.bc,.bd,.be{fill-rule:evenodd;}.bf{fill:#ff5f42;}.bg,.ah{fill:#fff;}.bh,.bi,.bj,.bk,.bl{clip-rule:evenodd;}.bh,.ba{fill:#456fb0;}.bm,.bk,.ar{fill:#31426b;}.ag{fill:#203599;}.bi,.aq{fill:#436cab;}.bn{fill:url(#l);}.ai{fill:#e7a327;}.bo,.aj{fill:#070c46;}.bp{fill:url(#u);}.bq{clip-path:url(#x);}.bj,.br,.be{fill:#b8b2ff;}.bs{clip-path:url(#aa);}.ak{fill:#e4e4e5;}.bt{fill:#a695ff;}.bu{fill:#c8d8f9;}.bv{clip-path:url(#a`);}.al{fill:#e06a19;}.bw,.ap{fill:#9dcaf8;}.bx{clip-path:url(#o);}.am{fill:#4456dc;}.by{fill:url(#p);}.an{fill:#832c43;}.ao{fill:#edf4ff;}.c`{fill:#557db6;}.ca{clip-path:url(#m);}.cb{fill:url(#ad);}.cc{fill:url(#ab);}.as{fill:#d85c2c;}.at,.cd{fill:#dae5fd;}.ce{clip-path:url(#t);}.au{fill:#d5d5d6;}.cf{clip-path:url(#w);}.av{fill:#d18085;}.cg{clip-path:url(#v);}.aw{fill:#5f9ff7;}.ax{fill:#e3a7a9;}.bl,.ch{fill:none;}.ci{fill:#407bff;}.ay{fill:#406cc6;}.b`{fill:#141f48;}.cj{fill:url(#n);}.ck{clip-path:url(#q);}.cl{clip-path:url(#y);}.cm{fill:#283553;}.cn{clip-path:url(#s);}.bb{fill:#ac6d1f;}.bc{fill:#ebad85;}.co{clip-path:url(#r);}.bd{fill:#1b2e45;}.cp{clip-path:url(#k);}</style><clipPath id="k"><path d="M103.47,184.31h106.29c2.31,0,4.21,1.89,4.21,4.21v134.94c0,2.31-1.89,4.21-4.21,4.21H103.47c-2.31,0-4.21-1.89-4.21-4.21V188.52c0-2.31,1.89-4.21,4.21-4.21" style="clip-rule:evenodd; fill:none;"/></clipPath><linearGradient id="l" x1="151.18" y1="399.61" x2="158.47" y2="206.87" gradientTransform="matrix(1, 0, 0, 1, 0, 0)" gradientUnits="userSpaceOnUse"><stop offset="0" stop-color="#192d8b"/><stop offset=".19" stop-color="#2948a5"/><stop offset=".56" stop-color="#4677d1"/><stop offset=".84" stop-color="#5894ec"/><stop offset="1" stop-color="#5f9ff7"/></linearGradient><clipPath id="m"><rect x="104.87" y="190.19" width="103.79" height="130.37" style="fill:none;"/></clipPath><linearGradient id="n" x1="156.77" y1="404.44" x2="156.77" y2="214.01" gradientTransform="matrix(1, 0, 0, 1, 0, 0)" gradientUnits="userSpaceOnUse"><stop offset="0" stop-color="#85cefc"/><stop offset="0" stop-color="#87cefc"/><stop offset=".23" stop-color="#b1dffd"/><stop offset=".45" stop-color="#d3edfd"/><stop offset=".65" stop-color="#ebf7fe"/><stop offset=".84" stop-color="#f9fcfe"/><stop offset="1" stop-color="#fff"/></linearGradient><clipPath id="o"><path d="M130.62,179.15h50.59c3.02,0,5.49,2.47,5.49,5.49v4.95c0,3.02-2.47,5.49-5.49,5.49h-50.59c-3.02,0-5.49-2.47-5.49-5.49v-4.95c0-3.02,2.47-5.49,5.49-5.49" style="clip-rule:evenodd; fill:none;"/></clipPath><linearGradient id="p" x1="157.75" y1="196.3" x2="153.52" y2="175.15" xlink:href="#l"/><clipPath id="q"><path d="M310.49,296.77h86.85c6.03,0,10.96,6.88,10.96,15.29h0c0,8.41-4.93,15.29-10.96,15.29h-86.85c-6.03,0-10.96-6.88-10.96-15.29h0c0-8.41,4.93-15.29,10.96-15.29" style="clip-rule:evenodd; fill:#31426b;"/></clipPath><clipPath id="r"><path d="M308.13,265.46h86.85c6.03,0,10.96,6.88,10.96,15.29h0c0,8.41-4.93,15.29-10.96,15.29h-86.85c-6.03,0-10.96-6.88-10.96-15.29h0c0-8.41,4.93-15.29,10.96-15.29" style="clip-rule:evenodd; fill:none;"/></clipPath><clipPath id="s"><path d="M485.04,234.88h-86.85c-6.03,0-10.96,6.88-10.96,15.29h0c0,8.41,4.93,15.29,10.96,15.29h86.85c6.03,0,10.96-6.88,10.96-15.29h0c0-8.41-4.93-15.29-10.96-15.29" style="clip-rule:evenodd; fill:none;"/></clipPath><clipPath id="t"><path d="M393.76,244.21h-9.4c-3.61,1.89-2.57,9.4-4.71,14.32l5.56-4.06,4.03,3.8c3.12-4.46,1.34-12.06,4.53-14.06" style="clip-rule:evenodd; fill:none;"/></clipPath><linearGradient id="u" x1="386.71" y1="253.73" x2="386.71" y2="242.46" gradientTransform="matrix(1, 0, 0, 1, 0, 0)" gradientUnits="userSpaceOnUse"><stop offset="0" stop-color="#1d339b"/><stop offset=".71" stop-color="#4b7fdb"/><stop offset="1" stop-color="#5f9ff7"/></linearGradient><clipPath id="v"><path d="M315.83,210.66h68.8c4.77,0,8.68,5.45,8.68,12.11h0c0,6.66-3.91,12.11-8.68,12.11h-68.8c-4.77,0-8.68-5.45-8.68-12.11h0c0-6.66,3.91-12.11,8.68-12.11" style="clip-rule:evenodd; fill:none;"/></clipPath><clipPath id="w"><path d="M315.9,289.3c2.21,9.71,3.04,22.93,3,38.37h-94.64c2.4-20.01,4.39-34.94,5.59-40.9l1.13-1.04c3.21-128.73,71.62-95.55,65.46-17.62-.7,8.81,16.38,9.05,19.47,21.19" style="clip-rule:evenodd; fill:none;"/></clipPath><clipPath id="x"><path d="M285.73,195.38c7.87,17.27,20.43,38.65,42.94,42.01,20.15,3,13.61-58.54,11.46-64.03-2.34-5.97-10.34-5.06-13.48-.7-2.06,11.79-3.08,27.83-5.82,27.63-2.6-.18-15.03-28.42-31-34.21-1.89-1.22-9.64,20.96-4.11,29.3" style="clip-rule:evenodd; fill:#436cab;"/></clipPath><clipPath id="y"><path d="M217.66,177.62c-7.5,11.18,16.59,57.87,10.34,114.68,35.07,6.02,67.15,3.35,88.09-3.32-.98-23.15-1.04-103.5-26.26-122.89-24.95-6.99-61.9-3.78-72.18,11.53" style="clip-rule:evenodd; fill:#456fb0;"/></clipPath><clipPath id="a`"><path d="M235.55,193.31c-.58-12.27-9.2-26.09-17.89-15.69-15.03,18-30.21,60.35-26.1,72.7,4.28,12.39,53.63,19.75,64.29,15.29,5.02-2.1,6.47-2.55,7.96-5.95,.87-1.97,1.76-5.05-2.49-6.93-11.3-5-41.71-12.89-42.35-15.97-2.22-16.55,17.29-28.22,16.58-43.46" style="clip-rule:evenodd; fill:#b8b2ff;"/></clipPath><clipPath id="aa"><path d="M351.52,96.24c-1.4,3.71-9.67,13.6-15.47,16.88-5.7,3.22-13.58,6.53-17.41,8.08-1.42,.57-2.28,.91-2.28,.91-5.98,7.77-2.11,21.48,4.19,28.2l21.6-3.1c12.29-1.77,21.27,1.51,32.27,6.66l-1.54-28.97-13.5-26.75-7.86-1.89Z" style="fill:none;"/></clipPath><linearGradient id="ab" x1="347.01" y1="168.27" x2="340.76" y2="109.71" gradientTransform="matrix(1, 0, 0, 1, 0, 0)" gradientUnits="userSpaceOnUse"><stop offset="0" stop-color="#cd6217"/><stop offset="1" stop-color="#eebe50"/></linearGradient><clipPath id="ac"><path d="M356.9,110.49l19.77-.51c4.94,1.9,6.89,12.75,5.08,15.35l-16.95,10.28c-3.77-5.58-6.63-15.28-7.91-25.12" style="clip-rule:evenodd; fill:none;"/></clipPath><linearGradient id="ad" x1="370.24" y1="124.66" x2="370.18" y2="110.11" gradientTransform="matrix(1, 0, 0, 1, 0, 0)" gradientUnits="userSpaceOnUse"><stop offset="0" stop-color="#a8bce2"/><stop offset="1" stop-color="#dfe9fd"/></linearGradient></defs><g id="a"/><g id="b"/><g id="c"/><g id="d"/><g id="e"/><g id="f"/><g id="g"/><g id="h"/><g id="i"/><g id="j"><path d="M179.56,89.14c16.83,0,32.84,3.48,47.36,9.75C253.01,47.43,306.4,12.17,368.04,12.17c87.33,0,158.12,70.79,158.12,158.12s-70.79,158.12-158.12,158.12H179.56c-66.07,0-119.64-53.56-119.64-119.64s53.56-119.64,119.64-119.64" style="fill:#edf4ff; fill-rule:evenodd;"/><rect x="63.89" y="327.65" width="482.68" height=".79" style="fill:#070c46;"/><path d="M143.55,327.67s16.49-7.5,14.04-19.11c-2.44-11.62-15.85-10.39-14.04-19.56,1.81-9.17,10.61-23.45,2.05-33.85-8.56-10.39-22.79-4.16-24.58-20.28-1.44-12.99-7.44-22.19-19.07-19.49-10.76,2.5-18.79,10.83-18.99,30.65-.22,21.11-15.08,15.18-15.26,30.72-.19,15.66,12.29,15.66,17.16,26.17,2.3,4.96-3.7,22.4,14.04,24.75h44.65Z" style="fill:#c8d8f9;"/><path d="M103.76,223.82s-.04,.35-.1,1.05c-.19,2.08-.57,7.14-.57,14.2,0,20.64,3.25,58.35,23.8,88.45,.04,.05,.06,.11,.09,.16h-2.15c-20.36-30.47-23.53-67.98-23.54-88.61,0-9.49,.68-15.42,.68-15.45,.06-.49,.5-.85,1-.79,.49,.06,.85,.5,.79,1" style="fill:#fff;"/><path d="M128.86,327.67s-2.53-14.33-12.26-20.17c-9.73-5.84-19.66-10.38-18.58-19.78,1.08-9.4-1.57-20.5-17.16-20.71-9.64-.13-6.02-10.29-15.81-12.31-5.95-1.23-9.88,4.98-10.64,11.08-.87,6.95,3.07,13.78-1.44,19.44-5.85,7.33-8.23,21,4.35,24.89,12.58,3.89,1.37,15.8,18.5,17.56h53.04Z" style="fill:#dae5fd; fill-rule:evenodd;"/><path d="M65.69,261.5c.33,9.13,4.38,22.13,11.31,34.53,6.92,12.41,16.72,24.24,28.43,31.21,.17,.1,.3,.25,.37,.42h-3.09c-11.28-7.3-20.59-18.78-27.28-30.76-7.04-12.62-11.18-25.77-11.54-35.34-.02-.5,.37-.91,.87-.93,.5-.02,.91,.37,.93,.87" style="fill:#fff;"/><path d="M444.58,140.06c-.65,2.25-1.3,4.47-1.94,6.66,3.96-6.05,11.48-12.62,25.27-11.71-8.77,13.16-12.77,18.85-28.04,20.93-.64,2.09-1.28,4.16-1.91,6.19,5.47-4.69,16.79-11.13,31.93-2.61-13.28,7.89-19.37,11.33-33.34,7.09-1.75,5.49-3.47,10.75-5.18,15.8,6.05-6.42,18.5-15.16,37.45-7.42-14.91,11.59-21.69,16.61-39.5,13.42-1.34,3.88-2.66,7.61-3.95,11.19,6.18-4.46,21.8-12.09,43.94,2.81-17.73,6.64-25.66,9.36-45.13,.48-3,8.19-5.85,15.59-8.5,22.18l-3.56,.43c2.17-5.37,4.49-11.31,6.93-17.8-20.9-4.95-25.47-11.98-35.4-28.14,27.12,1.89,34.54,18.08,36.49,25.2,1.17-3.16,2.37-6.46,3.58-9.87-17.07-8.65-19.33-16.73-24.07-35.47,22.71,6.39,25.16,24.74,25.15,32.44,1.97-5.61,3.99-11.54,6.04-17.79-13.89-5.27-16.58-11.7-22.24-26.2,17.41,2.62,22.27,14.94,23.63,21.96,.82-2.54,1.64-5.12,2.47-7.76-10.98-11.16-10.64-18.1-9.46-33.97,10.55,7.15,12.97,16.04,12.82,23.04,1.24-4.11,2.48-8.33,3.72-12.66-1.23-6.47-1.85-21.3,15.15-30-.75,15.35-1.24,22.34-12.33,31.57" style="fill:#dae5fd;"/><path d="M85.34,226.3l26.92,96.97-12.24,3.4-26.92-96.97c-.35-1.26,2.11-3.04,5.49-3.98,3.38-.94,6.4-.68,6.75,.58" style="fill:#d85c2c; fill-rule:evenodd;"/><path d="M105.51,322.7c3.38-.94,6.4-.68,6.75,.58,.35,1.26-2.11,3.04-5.49,3.97-3.38,.94-6.4,.68-6.75-.58-.35-1.26,2.11-3.04,5.49-3.98" style="fill:#d85c2c; fill-rule:evenodd;"/><path d="M144.79,196.99h0c-4.19,0-7.61,3.43-7.61,7.61v83.06c0,4.19,3.43,7.61,7.61,7.61h0c4.19,0,7.62-3.43,7.62-7.61v-83.06c0-4.19-3.43-7.61-7.62-7.61" style="fill:#203599; fill-rule:evenodd;"/><g style="clip-path:url(#k);"><rect x="99.26" y="184.31" width="114.7" height="143.35" style="fill:url(#l);"/></g><g style="clip-path:url(#m);"><rect x="104.87" y="190.19" width="103.79" height="130.37" style="fill:url(#n);"/></g><g style="clip-path:url(#o);"><rect x="125.13" y="179.15" width="61.57" height="15.93" style="fill:url(#p);"/></g><path d="M134.03,206.89h-15.93c-.55,0-1.06,.23-1.43,.59h0c-.36,.36-.59,.87-.59,1.43v15.93c0,.55,.23,1.06,.59,1.43,.37,.37,.87,.59,1.43,.59h15.93c.56,0,1.06-.23,1.43-.59h0c.37-.37,.59-.88,.59-1.43v-15.93c0-.56-.23-1.06-.59-1.43h0c-.36-.37-.87-.59-1.43-.59m-15.93-2.42h15.93c1.22,0,2.33,.5,3.13,1.3h0c.8,.81,1.3,1.92,1.3,3.14v15.93c0,1.22-.5,2.33-1.3,3.14h0c-.81,.8-1.92,1.3-3.13,1.3h-15.93c-1.22,0-2.33-.5-3.14-1.3-.8-.8-1.3-1.91-1.3-3.14v-15.93c0-1.22,.5-2.33,1.31-3.13h0c.8-.81,1.91-1.31,3.14-1.31Z" style="fill:#9dcaf8;"/><path d="M134.03,245.11h-15.93c-.55,0-1.06,.23-1.43,.59h0c-.36,.36-.59,.87-.59,1.43v15.93c0,.55,.23,1.06,.59,1.43,.37,.37,.87,.59,1.43,.59h15.93c.56,0,1.06-.23,1.43-.59h0c.37-.37,.59-.88,.59-1.43v-15.93c0-.56-.23-1.06-.59-1.43h0c-.36-.37-.87-.59-1.43-.59m-15.93-2.42h15.93c1.22,0,2.33,.5,3.13,1.3h0c.8,.81,1.3,1.92,1.3,3.14v15.93c0,1.22-.5,2.33-1.3,3.14h0c-.81,.8-1.92,1.3-3.13,1.3h-15.93c-1.22,0-2.33-.5-3.14-1.3-.8-.8-1.3-1.91-1.3-3.14v-15.93c0-1.22,.5-2.33,1.31-3.13h0c.8-.81,1.91-1.31,3.14-1.31Z" style="fill:#9dcaf8;"/><path d="M134.03,282.65h-15.93c-.55,0-1.06,.23-1.43,.59h0c-.36,.36-.59,.87-.59,1.43v15.93c0,.55,.23,1.06,.59,1.43,.37,.37,.87,.59,1.43,.59h15.93c.56,0,1.06-.23,1.43-.59h0c.37-.37,.59-.88,.59-1.43v-15.93c0-.56-.23-1.06-.59-1.43h0c-.36-.37-.87-.59-1.43-.59m-15.93-2.42h15.93c1.22,0,2.33,.5,3.13,1.3h0c.8,.81,1.3,1.92,1.3,3.14v15.93c0,1.22-.5,2.33-1.3,3.14h0c-.81,.8-1.92,1.3-3.13,1.3h-15.93c-1.22,0-2.33-.5-3.14-1.3-.8-.8-1.3-1.91-1.3-3.14v-15.93c0-1.22,.5-2.33,1.31-3.13h0c.8-.81,1.91-1.31,3.14-1.31Z" style="fill:#9dcaf8;"/><path d="M122.79,256.63l13.34-12.44c1.04-.97,2.68-.91,3.64,.13,.97,1.04,.91,2.68-.13,3.64l-15.3,14.26-.04,.03c-1.07,.93-2.7,.82-3.64-.24l-7.37-8.44c-.93-1.06-.82-2.7,.24-3.64,1.07-.93,2.7-.82,3.63,.24l5.62,6.44Z" style="fill:#d85c2c; fill-rule:evenodd;"/><path d="M130.22,182.66h40.51c.84,0,1.52,.69,1.52,1.52s-.69,1.52-1.52,1.52h-40.51c-.84,0-1.52-.69-1.52-1.52s.69-1.52,1.52-1.52" style="fill:#5f9ff7; fill-rule:evenodd;"/><path d="M175.39,182.66h6.2c.84,0,1.52,.69,1.52,1.52s-.69,1.52-1.52,1.52h-6.2c-.84,0-1.52-.69-1.52-1.52s.69-1.52,1.52-1.52" style="fill:#5f9ff7; fill-rule:evenodd;"/><path d="M122.79,218.4l13.34-12.44c1.04-.97,2.68-.91,3.64,.13,.97,1.04,.91,2.68-.13,3.64l-15.3,14.26-.04,.03c-1.07,.93-2.7,.82-3.64-.24l-7.37-8.44c-.93-1.07-.82-2.7,.24-3.64,1.07-.93,2.7-.82,3.63,.24l5.62,6.44Z" style="fill:#d85c2c; fill-rule:evenodd;"/><path d="M122.79,292.85l13.34-12.44c1.04-.97,2.68-.91,3.64,.13,.97,1.04,.91,2.68-.13,3.64l-15.3,14.26-.04,.03c-1.07,.93-2.7,.82-3.64-.24l-7.37-8.44c-.93-1.07-.82-2.7,.24-3.64,1.07-.93,2.7-.82,3.63,.24l5.62,6.44Z" style="fill:#d85c2c; fill-rule:evenodd;"/><path d="M147.7,210.12h23.11c.98,0,1.79,.8,1.79,1.79h0c0,.98-.8,1.79-1.79,1.79h-23.11c-.98,0-1.79-.8-1.79-1.79h0c0-.98,.8-1.79,1.79-1.79" style="fill:#9dcaf8; fill-rule:evenodd;"/><path d="M147.7,218.61h46.83c.98,0,1.79,.8,1.79,1.79h0c0,.98-.8,1.79-1.79,1.79h-46.83c-.98,0-1.79-.8-1.79-1.79h0c0-.98,.8-1.79,1.79-1.79" style="fill:#9dcaf8; fill-rule:evenodd;"/><path d="M147.7,249.08h23.11c.98,0,1.79,.8,1.79,1.79h0c0,.98-.8,1.79-1.79,1.79h-23.11c-.98,0-1.79-.8-1.79-1.79h0c0-.98,.8-1.79,1.79-1.79" style="fill:#9dcaf8; fill-rule:evenodd;"/><path d="M147.7,287.36h23.11c.98,0,1.79,.8,1.79,1.79h0c0,.98-.8,1.79-1.79,1.79h-23.11c-.98,0-1.79-.8-1.79-1.79h0c0-.98,.8-1.79,1.79-1.79" style="fill:#9dcaf8; fill-rule:evenodd;"/><path d="M147.7,257.56h46.83c.98,0,1.79,.8,1.79,1.79h0c0,.98-.8,1.79-1.79,1.79h-46.83c-.98,0-1.79-.8-1.79-1.79h0c0-.98,.8-1.79,1.79-1.79" style="fill:#9dcaf8; fill-rule:evenodd;"/><path d="M147.7,295.84h46.83c.98,0,1.79,.8,1.79,1.79h0c0,.98-.8,1.79-1.79,1.79h-46.83c-.98,0-1.79-.8-1.79-1.79h0c0-.98,.8-1.79,1.79-1.79" style="fill:#9dcaf8; fill-rule:evenodd;"/><g><g><path d="M310.49,296.77h86.85c6.03,0,10.96,6.88,10.96,15.29h0c0,8.41-4.93,15.29-10.96,15.29h-86.85c-6.03,0-10.96-6.88-10.96-15.29h0c0-8.41,4.93-15.29,10.96-15.29" style="fill:#31426b; fill-rule:evenodd;"/><g style="clip-path:url(#q);"><rect x="299.53" y="296.77" width="108.76" height="30.58" style="fill:#31426b;"/></g></g><path d="M330.93,296.04h31.14c-6.03,0-10.96,6.88-10.96,15.29h0c0,8.41,4.93,15.29,10.96,15.29h-31.14c-6.03,0-10.96-6.88-10.96-15.29h0c0-8.41,4.93-15.29,10.96-15.29" style="fill:#1b2e45; fill-rule:evenodd;"/><path d="M392.4,321.96h82.16c-3.41-5.47-4.74-13.25,0-21.26h-82.16c-2.75,0-5.01,4.79-5.01,10.63s2.26,10.63,5.01,10.63" style="fill:#e4e4e5; fill-rule:evenodd;"/><path d="M471.49,311.74c-.06-3.48,.82-7.23,3.07-11.04h-82.16c-2.75,0-5.01,4.79-5.01,10.63,0,.14,0,.27,0,.41h84.09Z" style="fill:#d5d5d6; fill-rule:evenodd;"/><path d="M477.13,326.62h-85c-3.96,0-8.15-6.97-8.15-15.38s4.19-15.2,8.15-15.2h85l-.04,4.58-84.69,.08c-2.75,0-5.01,4.79-5.01,10.63s2.26,10.63,5.01,10.63l84.69-.08,.04,4.74Z" style="fill:#1b2e45; fill-rule:evenodd;"/><path d="M399.04,304.9h9.4c3.61,1.89,2.57,9.4,4.71,14.32l-5.56-4.06-4.03,3.8c-3.12-4.46-1.34-12.06-4.53-14.06" style="fill:#832c43; fill-rule:evenodd;"/><g style="clip-path:url(#r);"><rect x="297.17" y="265.46" width="108.76" height="30.58" style="fill:#ff5f42;"/></g><path d="M329.46,265.46h31.14c-6.03,0-10.96,6.88-10.96,15.29h0c0,8.41,4.93,15.29,10.96,15.29h-31.14c-6.03,0-10.96-6.88-10.96-15.29h0c0-8.41,4.93-15.29,10.96-15.29" style="fill:#ebad85; fill-rule:evenodd;"/><path d="M390.93,291.38h82.16c-3.41-5.47-4.74-13.25,0-21.26h-82.16c-2.75,0-5.01,4.79-5.01,10.63s2.26,10.63,5.01,10.63" style="fill:#e4e4e5; fill-rule:evenodd;"/><path d="M470.02,281.16c-.06-3.48,.82-7.23,3.07-11.04h-82.16c-2.75,0-5.01,4.79-5.01,10.63,0,.14,0,.27,0,.41h84.09Z" style="fill:#d5d5d6; fill-rule:evenodd;"/><path d="M475.66,296.04h-85c-3.96,0-8.15-6.97-8.15-15.38s4.19-15.2,8.15-15.2h85l-.04,4.58-84.69,.08c-2.75,0-5.01,4.79-5.01,10.63s2.26,10.63,5.01,10.63l84.69-.08,.04,4.74Z" style="fill:#e06a19; fill-rule:evenodd;"/><g style="clip-path:url(#s);"><rect x="387.23" y="234.88" width="108.76" height="30.58" style="fill:#557db6;"/></g><path d="M459.81,234.88h-31.14c6.03,0,10.96,6.88,10.96,15.29h0c0,8.41-4.93,15.29-10.96,15.29h31.14c6.03,0,10.96-6.88,10.96-15.29h0c0-8.41-4.93-15.29-10.96-15.29" style="fill:#456fb0; fill-rule:evenodd;"/><path d="M402.24,260.8h-82.16c3.41-5.47,4.74-13.25,0-21.26h82.16c2.75,0,5.01,4.79,5.01,10.63s-2.26,10.63-5.01,10.63" style="fill:#e4e4e5; fill-rule:evenodd;"/><path d="M323.15,250.58c.06-3.48-.82-7.23-3.07-11.04h82.16c2.75,0,5.01,4.79,5.01,10.63,0,.14,0,.27,0,.41h-84.09Z" style="fill:#d5d5d6; fill-rule:evenodd;"/><path d="M317.51,265.46h85c3.96,0,8.15-6.97,8.15-15.38s-4.19-15.2-8.15-15.2h-85l.04,4.58,84.69,.08c2.75,0,5.01,4.79,5.01,10.63s-2.26,10.63-5.01,10.63l-84.69-.08-.04,4.74Z" style="fill:#456fb0; fill-rule:evenodd;"/><g style="clip-path:url(#t);"><rect x="379.65" y="244.21" width="14.11" height="14.32" style="fill:url(#u);"/></g><g style="clip-path:url(#v);"><rect x="307.15" y="210.66" width="86.16" height="24.23" style="fill:#407bff;"/></g><path d="M331.92,210.66h24.67c-4.77,0-8.68,5.45-8.68,12.11h0c0,6.66,3.91,12.11,8.68,12.11h-24.67c-4.77,0-8.68-5.45-8.68-12.11h0c0-6.66,3.91-12.11,8.68-12.11" style="fill:#4456dc; fill-rule:evenodd;"/><path d="M381.42,231.19h65.09c-2.7-4.34-3.75-10.5,0-16.84h-65.09c-2.18,0-3.97,3.79-3.97,8.42s1.79,8.42,3.97,8.42" style="fill:#e4e4e5; fill-rule:evenodd;"/><path d="M444.08,223.1c-.05-2.76,.65-5.73,2.43-8.75h-65.09c-2.18,0-3.97,3.79-3.97,8.42,0,.11,0,.22,0,.33h66.62Z" style="fill:#d5d5d6; fill-rule:evenodd;"/><path d="M448.54,234.88h-67.34c-3.14,0-6.45-5.52-6.45-12.18s3.32-12.04,6.45-12.04h67.34l-.03,3.63-67.09,.06c-2.18,0-3.97,3.79-3.97,8.42s1.79,8.42,3.97,8.42l67.09-.06,.03,3.75Z" style="fill:#4456dc; fill-rule:evenodd;"/></g><g style="clip-path:url(#w);"><rect x="224.26" y="157" width="94.69" height="170.66" style="fill:#283553;"/></g><g><path d="M285.73,195.38c7.87,17.27,20.43,38.65,42.94,42.01,20.15,3,13.61-58.54,11.46-64.03-2.34-5.97-10.34-5.06-13.48-.7-2.06,11.79-3.08,27.83-5.82,27.63-2.6-.18-15.03-28.42-31-34.21-1.89-1.22-9.64,20.96-4.11,29.3" style="fill:#436cab; fill-rule:evenodd;"/><g style="clip-path:url(#x);"><rect x="280.19" y="164.86" width="68.63" height="75.53" style="fill:#a695ff;"/></g></g><g><path d="M217.66,177.62c-7.5,11.18,16.59,57.87,10.34,114.68,35.07,6.02,67.15,3.35,88.09-3.32-.98-23.15-1.04-103.5-26.26-122.89-24.95-6.99-61.9-3.78-72.18,11.53" style="fill:#456fb0; fill-rule:evenodd;"/><g style="clip-path:url(#y);"><rect x="210.16" y="159.09" width="105.93" height="139.23" style="fill:#b8b2ff;"/></g></g><path d="M222.81,219.96c3.44,19.56,8.05,46.34,5.19,72.34,1.23,.21,2.45,.41,3.67,.6,1.39-4.24,2.89-7.06,4.34-26.82,1.45-19.76-6.66-57.03-6.66-57.03l-6.54,10.91h0Z" style="fill:#406cc6; fill-rule:evenodd;"/><path d="M228.51,254.7c.39,5.38,.62,10.93,.62,16.62,4.27,.78,11.99-.37,24.41-.53,15.42-.21,21.89,3.79,21.89,3.79,0,0,1.93-9.57,1.24-11.29-.69-1.72-13.91-4.89-20.79-6.61-6.21-1.55-20.62-1.54-27.36-1.97" style="fill:#406cc6; fill-rule:evenodd;"/><path d="M283.38,146.43c-2.47,4.91-5.92,8.69-9.77,10.54l.13,7.13,1.04,.88c4.06,4.36-.34,13.3-4.97,13.02-11.71,.58-20.69-9.02-17.17-14.23l1.53-1.7,.34-10.1c-.6-.03-5-2.53-6.31-2.93-1.31-.4-3.23-2.92-3.36-5.59-.13-2.66,3.98-1.8,3.98-1.8-4.98-6.82-10.63-12.39-3.31-18.53,7.32-6.14,24.12-9.72,24.12-9.72l10.11-3.51c-1.29,3.49,.43,15.13,3.03,22.4,2.33,6.52,3.91,7.53,.6,14.13" style="fill:#e3a7a9; fill-rule:evenodd;"/><path d="M259.27,153.38s5.72,9.81,10.42,10.7c4.7,.89,2.3,.23,4.05,.02l-.13-7.13c-3.24,.52-6.41,.26-14.34-3.59" style="fill:#d18085; fill-rule:evenodd;"/><g><path d="M235.55,193.31c-.58-12.27-9.2-26.09-17.89-15.69-15.03,18-30.21,60.35-26.1,72.7,4.28,12.39,53.63,19.75,64.29,15.29,5.02-2.1,6.47-2.55,7.96-5.95,.87-1.97,1.76-5.05-2.49-6.93-11.3-5-41.71-12.89-42.35-15.97-2.22-16.55,17.29-28.22,16.58-43.46" style="fill:#b8b2ff; fill-rule:evenodd;"/><g style="clip-path:url(#a`);"><rect x="187.45" y="167.21" width="78.13" height="102.85" style="fill:#b8b2ff;"/></g></g><path d="M261.9,254.79l4.83,1.57,10.8-1.89c1.2-.54,9.06-2.38,6.98,.22-1.47,1.82-5.99,4.82-5.88,5.02,1.45,2.64,16.08,6.59,16.22,6.82,2.03,3.33-7.4,1.37-9.02,1.11-.42-.07,6.19,2.8,5.89,3.07-.37,.33-1.29,1.26-3.07,.92-2.18-.41-5.79-1.7-6.22-1.39-.45,.33,5.99,3.06,5.55,3.33-.34,.21-1.03,.66-2.38,.37-2.24-.48-5.51-1.89-6.06-1.67-.57,.23,4.16,1.91,3.62,2.07-.42,.13-.53,.88-.95,.83-11.3-1.49-11.12-7.3-24.11-8.66-7.22-.76,1.31-10.6,3.79-11.71" style="fill:#e3a7a9; fill-rule:evenodd;"/><path d="M328.67,168.76c-.81-1.73-4.69-9.03-4.36-10.81,.17-.91,.48-.77,.97-.63,.43,.13,1.54,.22,1.87,.79,.7,1.19,1.69,1.1,1.97,1.81,1.97-4.12,1.37-8.8,1.66-13.34,.12-1.85,5.02-3.08,5.61-.36,1.2,5.53,9.32,8.79,4.91,14.91-3.48,4.83-1.87,6.22-3.4,11.54-1.44-.05-6.78,2.61-9.59-.48l.36-3.43Z" style="fill:#e3a7a9; fill-rule:evenodd;"/><path d="M320.1,147.71c6.56,6.65,8.71,14.97,12.21,17.78,.89,.72,1.65,1.16,2.27,1.43,.87,.38,1.81,.12,2.35-.66,.97-1.39,2.37-3.37,3.38-4.84,.8-1.15-.42-2.22-1.26-2.96-.9-.79-1.7-1.96-2.12-2.89-1.85-4.12-1.97-5.04-3.59-7.68-2.15-3.52-4.01-5.32-4.01-5.32l-8.71,4.22-.52,.92Z" style="fill:#070c46; fill-rule:evenodd;"/><path d="M331.43,149.4c1.62,2.64,1.74,3.56,3.59,7.68,.42,.93,1.22,2.1,2.12,2.89,.84,.74,2.06,1.81,1.26,2.96-.86,1.24-2,2.85-2.91,4.16,.56-.03,1.08-.32,1.44-.83,.97-1.39,2.37-3.37,3.38-4.84,.8-1.15-.42-2.22-1.26-2.96-.9-.79-1.7-1.96-2.12-2.89-1.85-4.12-1.97-5.04-3.59-7.68-.43-.7-.85-1.34-1.25-1.91l-2.72,.39c.61,.8,1.31,1.81,2.06,3.02" style="fill:#070c46; fill-rule:evenodd;"/><g style="clip-path:url(#aa);"><rect x="310.38" y="96.24" width="64.04" height="57.61" style="fill:url(#ab);"/></g><path d="M361.5,76.69c6.37-1.81,12.76,3.53,17.03,8.76,6.19,7.58,10.74,17.94,13.49,27.78,2.57,9.17,4.09,19.71,3.1,29.21-.68,6.57-2.86,14.38-8.28,17.38-.63,.35-1.29,.62-1.97,.82-6.37,1.81-12.76-3.53-17.03-8.76-6.19-7.59-10.74-17.95-13.49-27.78-2.57-9.17-4.09-19.71-3.1-29.21,.68-6.57,2.86-14.38,8.28-17.38,.63-.35,1.29-.62,1.97-.82" style="fill:#e7a327; fill-rule:evenodd;"/><path d="M362.88,80.17c9.09-2.61,21.25,12.5,27.15,33.74,5.9,21.24,3.31,40.57-5.79,43.18-9.09,2.61-21.25-12.5-27.15-33.74-5.9-21.24-3.31-40.57,5.79-43.18" style="fill:#ac6d1f; fill-rule:evenodd;"/><path d="M316.36,122.1c-5.03,8.17-.5,22.98,4.86,28.1-18.53,3.17-25.05-19.38-7.34-27.09l2.47-1.01Z" style="fill:#070c46; fill-rule:evenodd;"/><path d="M341.75,160.45s-4.27,5.05-5.16,3.72c-.89-1.34,1.74-5.76,1.74-5.76l-5.89,2.48s-1.45-.53-.48-2.33c.97-1.79,3.12-4.16,3.12-4.16l-6.39,1.87s-1.02-.86-.22-1.57c.8-.7,4.03-2.5,4.03-2.5l-5.61,1.36s-.55-1.21,.8-2.34c1.35-1.13,3.66-2.48,3.66-2.48l3.19-.46,1.16,.48s1.8,2.4,1.87,2.79c.06,.39,2.88,5.09,2.88,5.09l1.3,3.79Z" style="fill:#e3a7a9; fill-rule:evenodd;"/><g style="clip-path:url(#ac);"><rect x="356.9" y="109.99" width="26.66" height="25.63" style="fill:url(#ad);"/></g><path d="M376.68,109.99c3.56,.08,7.28,11.4,5.08,15.35-3.16,2.13-9.59-14.94-5.08-15.35" style="fill:#fff; fill-rule:evenodd;"/><path d="M277.65,124.35c-8.52,4.37-18.34-.81-23.3,5.03-2.46,2.9-2.21,7.07,.54,13.52,.81,1.9,1.89,3.3-1.31,1.81-1.47-.68-3.9-1.64-4.73-.97-1.84,1.49-.91,4.62,.56,5.63,.66,.45,1.9,1.12,1.9,1.12-11.46-2.17-16.24-12.52-16.08-20.85,.06-2.82,.37-5.33,.91-7.57-.24-.77-.36-1.59-.36-2.44,0-3.62,2.3-6.67,5.46-7.63,.59-3.78,3.71-6.66,7.47-6.66,1.13,0,2.21,.26,3.17,.73l.38-.1c1.38-2.36,3.96-3.96,6.92-3.96,2.07,0,3.96,.78,5.38,2.06,2.09-2.84,5.25-4.65,8.78-4.65,6.29,0,11.39,5.73,11.39,12.81,0,4.43-2,8.33-5.03,10.63-.61,.54-1.29,1.03-2.04,1.46" style="fill:#141f48; fill-rule:evenodd;"/><path d="M392.84,90.19l9.46-6.54c.62-.43,1.49-.27,1.92,.35h0c.43,.62,.27,1.49-.35,1.92l-9.46,6.54c-.62,.43-1.49,.27-1.92-.35h0c-.43-.62-.27-1.49,.35-1.92" style="fill:#b2dbf6; fill-rule:evenodd;"/><path d="M404.01,124.86l11.5,.07c.76,0,1.38,.63,1.37,1.39h0c0,.76-.63,1.38-1.39,1.37l-11.5-.07c-.76,0-1.38-.63-1.37-1.39h0c0-.76,.63-1.38,1.39-1.37" style="fill:#b2dbf6; fill-rule:evenodd;"/><path d="M400.49,107.74l10.9-3.66c.72-.24,1.51,.15,1.75,.87h0c.24,.72-.15,1.51-.87,1.75l-10.9,3.66c-.72,.24-1.5-.15-1.75-.87h0c-.24-.72,.15-1.51,.87-1.75" style="fill:#b2dbf6; fill-rule:evenodd;"/></g></svg>