<?xml version="1.0" encoding="UTF-8"?><svg id="Layer_1" xmlns="http://www.w3.org/2000/svg" viewBox="0 0 70 70"><g><path d="M45.37,53.18h18.61c1.57,0,2.85-1.14,2.85-2.55V15.71c0-1.41-1.28-2.55-2.85-2.55H6.43c-1.57,0-2.85,1.14-2.85,2.55V50.63c0,1.41,1.28,2.55,2.85,2.55h5.2" style="fill:none; stroke:#fff; stroke-miterlimit:10; stroke-width:2px;"/><polyline points="3.59 21.25 11.09 21.25 20.92 21.25 67.41 21.25" style="fill:none; stroke:#fff; stroke-miterlimit:10; stroke-width:2px;"/></g><circle cx="25.94" cy="35.99" r="4.32" style="fill:none; stroke:#fff; stroke-miterlimit:10; stroke-width:2px;"/><path d="M51.06,35l-14.3,17-3.83-2.72-3.74,3.92H15.9v-3.94c0-3.37,2.74-6.11,6.11-6.11h7.91c.84,0,1.65,.17,2.38,.48" style="fill:none; stroke:#fff; stroke-linecap:round; stroke-miterlimit:10; stroke-width:2px;"/><circle cx="35.26" cy="50.2" r="7.12" style="fill:none; stroke:#fff; stroke-miterlimit:10; stroke-width:2px;"/><line x1="40.57" y1="56.01" x2="45.74" y2="61.19" style="fill:none; stroke:#fff; stroke-linecap:round; stroke-miterlimit:10; stroke-width:2px;"/><polyline points="45.36 35 51.83 34.38 51.83 40.24" style="fill:none; stroke:#fff; stroke-linecap:round; stroke-miterlimit:10; stroke-width:2px;"/><line x1="50.6" y1="17.12" x2="51.99" y2="17.12" style="fill:none; stroke:#fff; stroke-linecap:round; stroke-miterlimit:10; stroke-width:2px;"/><line x1="7.36" y1="17.12" x2="28.76" y2="17.12" style="fill:none; stroke:#fff; stroke-linecap:round; stroke-miterlimit:10; stroke-width:2px;"/><line x1="55.79" y1="17.12" x2="57.18" y2="17.12" style="fill:none; stroke:#fff; stroke-linecap:round; stroke-miterlimit:10; stroke-width:2px;"/><line x1="60.89" y1="17.12" x2="62.29" y2="17.12" style="fill:none; stroke:#fff; stroke-linecap:round; stroke-miterlimit:10; stroke-width:2px;"/></svg>