<?xml version="1.0" encoding="UTF-8"?><svg xmlns="http://www.w3.org/2000/svg" viewBox="0 0 600 350"><g style="isolation:isolate;"><g id="a"/><g id="b"/><g id="c"/><g id="d"/><g id="e"/><g id="f"/><g id="g"/><g id="h"/><g id="i"/><g id="j"><g><path d="M55.02,330.52s-67.82-72.81-11.47-151.65c50-69.94,108.29-65.16,151.05-36.78,18.21,12.09,70.73,1.49,115.43-69.68,60.96-97.06,272.25-38.19,233.72,111.13-18.64,72.26,56.74,74.89,18.33,147.12l-507.06-.15Z" style="fill:#d6d6f3;"/><g><ellipse cx="299.73" cy="263.65" rx="65.63" ry="6.08" style="fill:#ebebeb; mix-blend-mode:multiply;"/><rect x="300.34" y="217.77" width="15.5" height="36.16" style="fill:#3f484d;"/><rect x="287.58" y="217.77" width="12.76" height="36.16" transform="translate(587.92 471.69) rotate(180)" style="fill:#302d48;"/><path d="M267.38,253.92h62.29c4.53,0,8.2,3.68,8.2,8.2h-78.7c0-4.53,3.68-8.2,8.2-8.2Z" style="fill:#302d48;"/><path d="M276.95,253.92h62.29c4.53,0,8.2,3.68,8.2,8.2h-78.7c0-4.53,3.68-8.2,8.2-8.2Z" style="fill:#3f484d;"/><rect x="197.04" y="80.73" width="201.45" height="139.46" rx="4.96" ry="4.96" style="fill:#302d48;"/><rect x="204.33" y="80.73" width="201.45" height="139.46" rx="4.96" ry="4.96" style="fill:#3f484d;"/><rect x="244.44" y="49.74" width="121.23" height="192.33" rx=".24" ry=".24" transform="translate(450.96 -159.14) rotate(90)" style="fill:#9cb6f8;"/><polygon points="315.88 220.2 287.5 220.31 300.15 233.64 315.88 220.2" style="fill:#e6e6e6; mix-blend-mode:multiply;"/><g><g><path d="M310.99,163.51c.62-.51,1.23-.77,1.23-.77,1.13,.87,1.23,4.57,1.23,4.57-.82,.98-1.54,1.23-1.54,1.23l-.92-5.03Z" style="fill:#fff;"/><path d="M275.34,156.97c8.22,13.97,20.95,13.56,35.74,6.02,1.23,2.05,1.51,5.48,1.51,5.48-12.32,13.15-28.21,21.64-34.92,17.8-6.71-3.83-2.33-29.3-2.33-29.3Z" style="fill:#622c44;"/><path d="M217.94,148.82c.31-.67,.1-1.44,.1-1.44,2.21-.1,4.83-.82,5.29-1.28,0,1.39,.26,2.41,.26,2.41l-3.9,1.64-1.75-1.34Z" style="fill:#fff;"/><path d="M263.39,146.46c-15.51,6.16-27.22,19.2-24.24,60.08,.21,.31,55.35,0,55.35,0-9.65-6.98-19.51-22.39-18.28-36.05,1.23-13.66-.41-23.93-12.84-24.03Z" style="fill:#f5f5f5;"/><path d="M259.28,149.29c-.77,7.45,4.57,13.4,4.57,13.4l4.36-7.19,5.67,6.61c1.47-1.83,1.01-8.97,1.01-8.97l-8.88-4.57-6.73,.72Z" style="fill:#e0e0e0; mix-blend-mode:multiply;"/><path d="M263.08,160.12l5.13-4.62,4.83,3.29c1-2.15,1.56-4.03,1.87-5.43-1.81-4.27-5.33-6.84-11.52-6.9-1.39,.55-2.75,1.16-4.07,1.84-1.68,6.91,3.77,11.82,3.77,11.82Z" style="fill:#fff;"/><path d="M267.8,157.93c-3.22-2.19-6.57-3.29-6.57-3.29,1.85,3.9,1.37,7.46,1.37,7.46,1.1-.89,5.41-3.15,5.41-3.15l-.21-1.03Z" style="fill:#303030;"/><path d="M268.68,157.93c3.22-2.19,6.57-3.29,6.57-3.29-1.85,3.9-1.37,7.46-1.37,7.46-1.1-.89-5.41-3.15-5.41-3.15l.21-1.03Z" style="fill:#303030;"/><path d="M263.59,143.79c.31,2.72-1.75,4.11-1.75,4.11-.72,3.7,3.65,9.09,7.6,7.34,3.95-1.75,.92-4.52,1.69-7.86,.77-3.34-7.55-3.59-7.55-3.59Z" style="fill:#eec09d;"/><path d="M259.54,114.68c3.7-5.19,19.26-8.11,20.08-3.29,6.32,.26,9.45,5.19,7.45,8.27,.98,2.21-2.05,3.95-3.85,6.47-1.8,2.52-1.95,6.16-1.95,6.16l-18.85-9.24s-2.52-8.63-2.88-8.37Z" style="fill:#462821;"/><path d="M265.65,119.25l-6.11-4.57c-4.57,.21-6.93,5.03-6.68,9.29,.26,4.26,2.88,6.68,2.93,9.14,.05,2.46,6.83,2.88,6.83,2.88,0,0,4.83-3.75,5.13-4.72,.31-.98-.72-10.42-.72-10.42l-1.39-1.59Z" style="fill:#562f28;"/><path d="M265.65,119.25c.51,1.03-.46,1.39-.67,1.34,.72,4.26-1.75,6.98-4.83,5.96,.77,.98,.51,1.44,.15,1.44,.46,3.34-.1,6.21-1.75,6.16-1.64-.05-1.59-1.59-1.59-1.59-.67-1.13-3.65-.41-3.49,2.26s3.13,2.88,4.31,2c1.64,3.95,6.88,12.48,15.3,11.09,8.42-1.39,9.76-9.55,9.29-12.48-.46-2.93-1.54-5.08-.82-8.22,.72-3.13,0-7.29-2.31-8.01-1.08,2.82-10.32,1.49-12.68-.62,.44,1.07-.92,.67-.92,.67Z" style="fill:#eec09d;"/><path d="M255.04,133.06c1.15,.41,1.69,1.47,1.93,2.41-.24-.39-.74-.94-.74-.94-.55,.29-.94,.82-.94,.82,.15-.46,.7-1.06,.7-1.06-.29-.72-.96-1.23-.96-1.23Z" style="fill:#e0e0e0; mix-blend-mode:multiply;"/><path d="M266.57,118.58c.44,1.07-.92,.67-.92,.67,.51,1.03-.46,1.39-.67,1.34,.72,4.26-1.75,6.98-4.83,5.96,.77,.98,.51,1.44,.15,1.44,.46,3.34-.1,6.21-1.75,6.16-1.64-.05-1.59-1.59-1.59-1.59-.67-1.13-3.65-.41-3.49,2.26s3.13,2.88,4.31,2c1.58,3.8,6.48,11.82,14.34,11.2,.01-.02,.03-.04,.04-.06-13.71-3.29-9.14-27.06-3.54-25.42,5.6,1.64,11.35-1.08,10.63-3.34-1.08,2.82-10.32,1.49-12.68-.62Z" style="fill:#e0e0e0; mix-blend-mode:multiply;"/><path d="M268.18,159.57h0c-.38,0-.68-.31-.68-.68v-.68c0-.38,.31-.68,.68-.68h0c.38,0,.68,.31,.68,.68v.68c0,.38-.31,.68-.68,.68Z" style="fill:#212121;"/><path d="M265.85,182.41c-4.54-16.58-12.58-24.15-8.37-33.1-12.43,7.24-20.91,21.75-18.33,57.23,.11,.17,16.88,.15,31.93,.1-.45-3.41-1.75-11.54-5.23-24.24Z" style="fill:#4d2336;"/><path d="M276.23,170.49c.53-5.89,.53-11.15-.65-15.24,.36,9.87-7.63,18.06-6.64,30.75,.7,8.93,2.34,16.62,3.33,20.64,11.81-.04,22.25-.1,22.25-.1-9.65-6.98-19.51-22.39-18.28-36.05Z" style="fill:#4d2336;"/><polygon points="253.71 178.74 253.71 176.69 252.22 176.69 252.22 178.74 246.94 178.74 246.94 185.32 258.99 185.32 258.99 178.74 253.71 178.74" style="fill:#d1d1d1; mix-blend-mode:multiply;"/><rect x="246.17" y="178.2" width="12.05" height="6.57" style="fill:#fff;"/><rect x="251.45" y="176.14" width="1.49" height="3.54" style="fill:#eaa928;"/><path d="M217.82,148.48c2.6,.41,6.02-1.1,6.02-1.1,1.37,11.09,5.07,17.94,10,16.57,4.93-1.37,16.71-10.54,18.07-10.54-1.78,20.81-9.31,33.27-21.5,31.49-12.19-1.78-14.38-27.52-12.6-36.42Z" style="fill:#622c44;"/><path d="M245.76,176.69c.41-.55-10.41,10.41-19.03,4.11-8.63-6.3-6.78-29.79-6.62-32.33,0,0-.33,.08-.87,.05,0,0,0-.28,.22-1.27-.47,.07-.94,.11-1.4,.14,0,0,.14,.55,0,1.12-.08,0-.15-.01-.23-.03-1.78,8.9,.41,34.64,12.6,36.42,3.27,.48,6.2-.08,8.78-1.54-.65,6.53-.71,14.17-.05,23.18,.06,.1,5.39,.13,12.71,.14-2.78-6.22-7.82-19.4-6.11-29.99Z" style="fill:#e0e0e0; mix-blend-mode:multiply;"/><path d="M223.34,146.1c.1-1.01,.31-.6,1.75-2,1.44-1.4,1.16-3.15,1.61-4.31,.44-1.16,1.2-1.71,2.19-2.16,.99-.45-1.06-2.33-2.88-1.03-1.81,1.3-2.46,2.57-3.8,2.19s-3.49-1.3-5.96-2.81c-2.46-1.51-4.42-1.78-4.59-1.16-.17,.62,2.7,2.94,1.64,2.5-1.06-.45-1.51-2.09-2.91-1.99-1.4,.1,.03,2.74,.03,2.74-.31,.96,0,2.4,1.03,3.56,1.03,1.16,6.44,2.7,6.59,5.75,1.63,.51,5.05-.58,5.29-1.28Z" style="fill:#eec09d;"/><path d="M222.62,139.97c-1.31,.98-1.44,2.54-1.44,2.54-2.36-1.54-6.14-1-6.14-1,2.41-.82,5.19-.31,5.75,.33,.26-1.34,1.82-1.87,1.82-1.87Z" style="fill:#e0e0e0; mix-blend-mode:multiply;"/><g><rect x="324.19" y="139.29" width="3.08" height="29.17" transform="translate(126.82 -146.48) rotate(31.2)" style="fill:#4d2108;"/><rect x="330.6" y="142.16" width="3.8" height="1.08" transform="translate(122 -151.6) rotate(31.2)" style="fill:#eaa928;"/><path d="M340.98,139.46l-.18,.3c-.21,.35-.67,.46-1.02,.25l-.05-.03c-.35-.21-.46-.67-.25-1.02l.18-.3-6.9-4.18-.18,.3c-.21,.35-.67,.46-1.02,.25h0c-.35-.21-.46-.67-.25-1.02l.18-.3-1.68-1.02-3.19,5.27,1.68,1.02,.18-.3c.21-.35,.67-.46,1.02-.25h0c.35,.21,.46,.67,.25,1.02l-.18,.3,6.9,4.18,.18-.3c.21-.35,.67-.46,1.02-.25l.05,.03c.35,.21,.46,.67,.25,1.02l-.18,.3,1.68,1.02,3.19-5.27-1.68-1.02Z" style="fill:#491e07;"/><rect x="330.23" y="134.6" width=".63" height="4.28" transform="translate(118.62 -151.44) rotate(31.2)" style="fill:#eaa928;"/><rect x="338.41" y="139.55" width=".63" height="4.28" transform="translate(122.37 -154.96) rotate(31.2)" style="fill:#eaa928;"/><rect x="330.6" y="136.12" width="8.04" height="6.14" transform="translate(120.49 -153.2) rotate(31.2)" style="fill:#5d2709;"/><rect x="339.26" y="139.51" width="1.95" height="6.16" transform="translate(123.07 -155.62) rotate(31.2)" style="fill:#5d2709;"/><rect x="328.08" y="132.74" width="1.95" height="6.21" transform="translate(117.96 -150.81) rotate(31.2)" style="fill:#5d2709;"/><path d="M338.2,139.42l-3.51-2.13c-.21-.13-.28-.4-.15-.62h0c.13-.21,.4-.28,.62-.15l3.51,2.13c.21,.13,.28,.4,.15,.62h0c-.13,.21-.4,.28-.62,.15Z" style="fill:#242424; mix-blend-mode:screen;"/></g><path d="M312.22,162.74c1.03-.31,2.93-3.13,3.54-4.72,.62-1.59,1.23-2.46,2.93-2.05,1.69,.41,3.13-.62,3.39-1.9,.26-1.28,2.46-1.08,1.23,2.16-.23,.59-1.82,1.99-2.09,2.38-.19,.29-.07,.66-.24,1.59-.76,4.09-3.63,4.5-3.63,4.5-1.03,1.03-3.9,2.62-3.9,2.62-.21-1.34-1.23-4.57-1.23-4.57Z" style="fill:#eec09d;"/><path d="M326.83,155.11c-1.72,.59-3.75,2.98-3.13,3.95-1.28,1.23-.98,2.64-.98,2.64-1.31,1.1-2.08,2.54-1.62,2.72,.46,.18,3.67-.9,3.52-2.18,2.03-1.9,1.95-2.85,1.69-3.18,1.9-2.57,1.23-4.29,.51-3.95Z" style="fill:#eec09d;"/></g><rect x="297.71" y="192.3" width="52.86" height="14.24" style="fill:#4d2007;"/><rect x="302.02" y="188.98" width="44.23" height="3.32" style="fill:#552208;"/><rect x="297.55" y="184.61" width="53.16" height="4.36" style="fill:#5d2709;"/></g><rect x="307.16" y="182.2" width="11.28" height="4.84" style="fill:#e0e0e0; mix-blend-mode:multiply;"/><rect x="312.12" y="187.04" width="4.67" height="3.68" style="fill:#e0e0e0; mix-blend-mode:multiply;"/></g><g><g><g><rect x="177.84" y="197.66" width="26.89" height="14.6" transform="translate(-63.15 87.24) rotate(-22.15)" style="fill:#f5f5f5;"/><g><path d="M187.78,206.24c.61,.05,1.03,.41,1.26,.96,.43,1.08,.13,2.22-1.13,2.74l-2.9,1.18-2.52-6.18,2.64-1.08c1.07-.44,2.26,.05,2.7,1.12,.15,.37,.15,.9-.05,1.27Zm-3.19-.52l.41,1.02,1-.41c.63-.26,.21-1.27-.42-1.01l-.99,.4Zm.94,2.31l.43,1.05,1.26-.51c.64-.26,.2-1.31-.44-1.05l-1.25,.51Z" style="fill:#eaa928;"/><path d="M193.13,206.19c.21,.52,.35,.85,.56,1.39-1.05,.43-2.08,.85-3.14,1.28-.22-.54-.35-.87-.56-1.39l.79-.32-1.39-3.42-.72,.29c-.22-.53-.35-.86-.56-1.38,1.01-.41,2.01-.82,3.01-1.23,.21,.52,.35,.85,.56,1.38l-.72,.29,1.39,3.42,.79-.32Z" style="fill:#eaa928;"/><path d="M197.06,206.21l-2.33,.95-2.52-6.18,2.33-.95c4.04-1.62,6.54,4.53,2.52,6.18Zm-1.34-1.13l.75-.31c1.97-.8,.63-4.11-1.34-3.3l-.75,.31,1.34,3.3Z" style="fill:#eaa928;"/></g><rect x="199.45" y="210.42" width="2" height="34.12" transform="translate(-70.97 92.35) rotate(-22.15)" style="fill:#5d2709;"/></g><path d="M199.63,229.75c-.7-1.14-1.67-2.41-1.92-3.1-.25-.68,.3-1.34,.94-1.68,.64-.34-.43-4.51,.15-4.58,.58-.07,1.29,2.82,1.77,3.4,.48,.57,1.69,1.58,2.2,2.75,.5,1.16-.67,2.13-.49,2.84,.18,.7-2.64,.39-2.64,.39Z" style="fill:#eebfa6;"/><path d="M202.76,226.52c.17,.39,.15,.75,.05,1.09-.13-.91-.66-1.67-1.38-2.14-.78-.51-1.04-1.85-1.07-2.02,.07,.14,.13,.25,.2,.32,.48,.57,1.69,1.58,2.2,2.75Z" style="fill:#ddd2e8; mix-blend-mode:multiply;"/><path d="M202.57,228.92c-2.62-.16-3.39,.86-3.39,.86,.56,5.43,1.56,13.03-4.67,14.1-6.23,1.07-9.05-5.54-12.39-2.84-3.34,2.71-1.03,14.2,9.86,13.6s15.97-11.91,10.59-25.72Z" style="fill:#e9a727;"/><path d="M183.68,240.39c2.75-.14,5.58,4.39,10.82,3.49,6.23-1.07,5.23-8.66,4.67-14.1,0,0,.25-.33,.95-.59,2.79,8.7,.68,16.03-5.95,16.76-6.11,.68-6.81-4.61-10.49-5.57Z" style="fill:#ddd2e8; mix-blend-mode:multiply;"/></g><g><path d="M139.1,328.33h47.32l.12-.91c4.17-30.91,4.16-62.29-.03-93.2l-.09-.65h-47.32c4.25,30.91,4.32,62.3,.2,93.22l-.2,1.54Z" style="fill:#b9dbf6;"/><path d="M136.14,328.33h47.32l.12-.91c4.17-30.91,4.16-62.29-.03-93.2l-.09-.65h-47.32c4.25,30.91,4.32,62.3,.2,93.22l-.2,1.54Z" style="fill:#7fcbcb;"/><rect x="158.14" y="244.39" width="5.93" height="5.93" rx="2.51" ry="2.51" transform="translate(322.22 494.71) rotate(180)" style="fill:#3d3d3d;"/><path d="M178.29,239.54h0c.89,0,1.6-.72,1.6-1.6h0c0-.89-.72-1.6-1.6-1.6h0c-.89,0-1.6,.72-1.6,1.6h0c0,.89,.72,1.6,1.6,1.6Z" style="fill:#3d3d3d;"/></g></g><g><g><g><rect x="108.39" y="195.14" width="35.98" height="19.54" transform="translate(9.64 -5.64) rotate(2.66)" style="fill:#ebebeb;"/><g><path d="M121.4,204.5c.71,.4,1.02,1.08,.99,1.87-.08,1.55-1.09,2.77-2.91,2.69l-4.18-.19,.41-8.92,3.81,.18c1.54,.07,2.72,1.33,2.65,2.87-.02,.54-.32,1.17-.77,1.51Zm-3.58-2.41l-.07,1.47,1.44,.07c.91,.04,.97-1.42,.06-1.47l-1.43-.07Zm-.16,3.34l-.07,1.52,1.82,.08c.92,.04,.98-1.47,.06-1.52l-1.81-.08Z" style="fill:#eaa928;"/><path d="M127.92,207.45c-.03,.75-.06,1.22-.09,2-1.52-.07-3.01-.14-4.53-.21,.04-.78,.06-1.25,.09-2l1.13,.05,.23-4.93-1.05-.05c.04-.76,.06-1.24,.09-1.99,1.45,.07,2.89,.13,4.35,.2-.03,.75-.06,1.22-.09,1.99l-1.05-.05-.23,4.93,1.13,.05Z" style="fill:#eaa928;"/><path d="M132.69,209.67l-3.37-.16,.41-8.92,3.37,.16c5.81,.3,5.4,9.17-.41,8.92Zm-.99-2.13l1.08,.05c2.84,.13,3.06-4.64,.22-4.77l-1.08-.05-.22,4.77Z" style="fill:#eaa928;"/></g><rect x="123.53" y="214.58" width="2.68" height="45.65" transform="translate(11.15 -5.54) rotate(2.66)" style="fill:#5d2709;"/></g><path d="M122.6,239.7c-.21-1.78-.68-3.87-.6-4.84,.08-.97,1.12-1.46,2.09-1.52,.96-.06,2.02-5.72,2.75-5.48,.74,.24-.02,4.15,.24,5.12,.26,.97,1.17,2.87,1.13,4.57-.04,1.69-2.01,2.21-2.19,3.17-.18,.95-3.42-1.01-3.42-1.01Z" style="fill:#eebfa6;"/><path d="M128.21,237.54c-.01,.56-.24,1-.55,1.36,.35-1.18,.13-2.4-.47-3.38-.65-1.06-.22-2.83-.16-3.05,0,.21,.02,.38,.06,.5,.26,.97,1.17,2.87,1.13,4.57Z" style="fill:#ddd2e8; mix-blend-mode:multiply;"/><path d="M126.63,240.35c-3.1-1.66-4.61-.86-4.61-.86-2.37,6.91-5.42,16.7-13.59,14.5-8.17-2.2-7.88-11.81-13.46-10.4-5.57,1.42-9.22,16.67,4.35,22.05,13.57,5.38,26.08-5.5,27.3-25.29Z" style="fill:#242424;"/><path d="M97.26,243.68c3.42,1.37,4.31,8.46,11.18,10.31,8.17,2.2,11.21-7.58,13.59-14.5,0,0,.49-.26,1.49-.18-1.49,12.13-8.18,19.85-16.64,17.02-7.8-2.61-5.68-9.42-9.62-12.65Z" style="fill:#ddd2e8; mix-blend-mode:multiply;"/></g><g><path d="M31.37,327.67h63.31l.16-1.22c5.58-41.35,5.56-83.34-.05-124.69l-.12-.87H31.37c5.69,41.35,5.78,83.35,.27,124.72l-.27,2.06Z" style="fill:#bababa;"/><path d="M27.42,327.67h63.31l.16-1.22c5.58-41.35,5.56-83.34-.05-124.69l-.12-.87H27.42c5.69,41.35,5.78,83.35,.27,124.72l-.27,2.06Z" style="fill:#a1a1a1;"/><path d="M94.73,246.87c.09,2.42,.16,4.84,.21,7.27" style="fill:#101a1b; mix-blend-mode:screen;"/><rect x="56.86" y="215.36" width="7.94" height="7.94" rx="2.51" ry="2.51" transform="translate(121.65 438.67) rotate(-180)" style="fill:#3d3d3d;"/><rect x="81.66" y="204.58" width="4.29" height="4.29" rx="1.6" ry="1.6" transform="translate(167.62 413.46) rotate(180)" style="fill:#3d3d3d;"/></g></g><line x1="25.29" y1="329.48" x2="576.74" y2="329.48" style="fill:#cbe2f8; stroke:#676771; stroke-miterlimit:10; stroke-width:2.66px;"/></g><g><g><g><rect x="377.69" y="232.81" width="20.63" height="11.2" transform="translate(104.64 -118.09) rotate(19.95)" style="fill:#fff;"/><g><path d="M385.35,237.34c.32,.34,.38,.77,.22,1.19-.31,.84-1.07,1.33-2.05,.98l-2.26-.82,1.75-4.81,2.06,.75c.83,.3,1.26,1.19,.96,2.02-.1,.29-.38,.59-.68,.69Zm-1.55-1.93l-.29,.79,.78,.28c.49,.18,.78-.61,.28-.79l-.77-.28Zm-.65,1.8l-.3,.82,.98,.36c.5,.18,.79-.64,.29-.82l-.98-.35Z" style="fill:#eaa928;"/><path d="M388.42,240.06l-.39,1.08c-.82-.3-1.62-.59-2.44-.89l.39-1.08,.61,.22,.97-2.66-.56-.2,.39-1.07c.78,.28,1.56,.57,2.35,.85l-.39,1.07-.56-.2-.97,2.66,.61,.22Z" style="fill:#eaa928;"/><path d="M390.65,242.09l-1.82-.66,1.75-4.81,1.82,.66c3.13,1.15,1.39,5.94-1.75,4.81Zm-.18-1.33l.58,.21c1.53,.56,2.47-2.02,.93-2.57l-.58-.21-.93,2.57Z" style="fill:#eaa928;"/></g><rect x="380.87" y="242.86" width="1.54" height="26.18" transform="translate(110.25 -114.87) rotate(19.95)" style="fill:#5d2709;"/></g><g><path d="M381.82,260.87c.42-1.27,.71-1.24,.45-2.4-.26-1.16,.63-1.31,.09-1.48s-1.04,1.68-1.27,1.21-.76-1.25-1.13-.9c-.36,.35-.67,1.33-1.21,2.41-.54,1.08,.25,3.13,1.53,3.55,1.27,.42,1.54-2.39,1.54-2.39Z" style="fill:#eebfa6;"/><path d="M406.51,260.44c-1.9-2.51-6.41-2.22-10.49,.78-4.08,3.01-10.71,3.25-14.15-.6-1.2,.89-1.68,2.7-1.61,3.24,.52,1.85,7.43,9.05,15.87,9,8.44-.05,13.19-8.71,10.38-12.42Z" style="fill:#fff;"/><path d="M379.95,257.3c.22-.21,.51,0,.75,.29-1.09,.89-1.59,3.04-1.8,4.29-.35-.74-.44-1.6-.16-2.18,.54-1.08,.84-2.06,1.21-2.41Z" style="fill:#ddd2e8; mix-blend-mode:multiply;"/><path d="M380.26,263.87c-.03-.24,.05-.74,.25-1.3,2.43,4.2,15.87,9.69,24.59,6.02-1.94,2.38-5.06,4.26-8.98,4.28-8.44,.05-15.34-7.14-15.87-9Z" style="fill:#ddd2e8; mix-blend-mode:multiply;"/></g></g><g><path d="M437.51,328.04h-40.81l-.11-.74c-3.6-25.1-3.59-50.58,.03-75.68l.08-.53h40.81c-3.67,25.1-3.73,50.59-.18,75.7l.18,1.25Z" style="fill:#3d3d3d;"/><path d="M440.06,328.04h-40.81l-.11-.74c-3.6-25.1-3.59-50.58,.03-75.68l.08-.53h40.81c-3.67,25.1-3.73,50.59-.18,75.7l.18,1.25Z" style="fill:#242424;"/><path d="M419.8,264.69h-2.98c-1.33,0-2.41-1.08-2.41-2.41h0c0-1.33,1.08-2.41,2.41-2.41h2.98c1.33,0,2.41,1.08,2.41,2.41h0c0,1.33-1.08,2.41-2.41,2.41Z" style="fill:#3d3d3d;"/></g></g><g><g><g><rect x="431.7" y="176.09" width="32.79" height="17.81" transform="translate(90.02 -141.8) rotate(19.95)" style="fill:#ebebeb;"/><g><path d="M443.87,183.29c.51,.54,.6,1.22,.35,1.9-.49,1.33-1.7,2.12-3.26,1.55l-3.59-1.3,2.78-7.65,3.27,1.19c1.32,.48,2.01,1.89,1.53,3.22-.17,.46-.6,.93-1.08,1.1Zm-2.46-3.07l-.46,1.26,1.24,.45c.78,.28,1.23-.98,.45-1.26l-1.22-.44Zm-1.04,2.86l-.47,1.3,1.56,.57c.79,.29,1.25-1.02,.46-1.31l-1.55-.56Z" style="fill:#eaa928;"/><path d="M448.75,187.62c-.23,.64-.38,1.05-.62,1.72-1.3-.47-2.58-.94-3.88-1.41,.24-.67,.39-1.07,.62-1.72l.97,.35,1.54-4.23-.9-.33c.24-.66,.39-1.06,.62-1.71,1.25,.45,2.48,.9,3.73,1.35-.23,.64-.38,1.05-.62,1.71l-.9-.33-1.54,4.23,.97,.35Z" style="fill:#eaa928;"/><path d="M452.3,190.85l-2.89-1.05,2.78-7.65,2.89,1.05c4.98,1.83,2.21,9.44-2.78,7.65Zm-.28-2.12l.93,.34c2.44,.88,3.92-3.2,1.48-4.09l-.93-.34-1.48,4.09Z" style="fill:#eaa928;"/></g><rect x="436.75" y="192.07" width="2.44" height="41.61" transform="translate(98.93 -136.68) rotate(19.95)" style="fill:#5d2709;"/></g><g><path d="M438.25,220.7c.67-2.03,1.13-1.97,.71-3.82-.42-1.85,1-2.08,.14-2.36-.86-.28-1.65,2.67-2.02,1.92-.37-.75-1.21-1.98-1.79-1.42-.58,.56-1.07,2.11-1.92,3.83-.85,1.71,.4,4.98,2.43,5.65,2.03,.67,2.45-3.8,2.45-3.8Z" style="fill:#eebfa6;"/><path d="M477.51,220.02c-3.02-3.99-10.18-3.54-16.67,1.25-6.48,4.78-17.03,5.17-22.5-.95-1.91,1.42-2.67,4.29-2.56,5.14,.83,2.95,11.81,14.39,25.22,14.3,13.41-.08,20.97-13.84,16.5-19.75Z" style="fill:#fff;"/><path d="M435.29,215.03c.35-.34,.8-.01,1.19,.47-1.74,1.41-2.53,4.83-2.86,6.82-.55-1.17-.7-2.54-.25-3.46,.85-1.71,1.34-3.27,1.92-3.83Z" style="fill:#ddd2e8; mix-blend-mode:multiply;"/><path d="M435.79,225.46c-.05-.39,.08-1.18,.4-2.06,3.86,6.67,25.23,15.4,39.09,9.56-3.09,3.78-8.05,6.77-14.27,6.8-13.41,.08-24.38-11.36-25.22-14.3Z" style="fill:#ddd2e8; mix-blend-mode:multiply;"/></g></g><g><path d="M526.78,327.46h-64.87l-.17-1.17c-5.72-39.9-5.7-80.41,.05-120.3l.12-.84h64.87c-5.83,39.89-5.92,80.41-.28,120.33l.28,1.99Z" style="fill:#9cb6f8;"/><path d="M530.84,327.46h-64.87l-.17-1.17c-5.72-39.9-5.7-80.41,.05-120.3l.12-.84h64.87c-5.83,39.89-5.92,80.41-.28,120.33l.28,1.99Z" style="fill:#577db8;"/><rect x="490.07" y="219.11" width="12.39" height="7.66" rx="3.14" ry="3.14" style="fill:#3d3d3d;"/></g></g></g></g></svg>