<?xml version="1.0" encoding="UTF-8"?><svg xmlns="http://www.w3.org/2000/svg" xmlns:xlink="http://www.w3.org/1999/xlink" viewBox="0 0 600 350"><defs><style>.ep{fill:url(#bq);}.eq{stroke:url(#dv);}.eq,.er,.es,.et,.eu,.ev,.ew,.ex,.ey,.f`,.fa,.fb,.fc,.fd,.fe,.ff,.fg,.fh,.fi,.fj,.fk,.fl,.fm,.fn,.fo,.fp,.fq{fill:none;}.eq,.er,.es,.ev,.ex,.ey,.f`,.fa,.fb,.fc,.fd,.fe,.ff,.fg,.fh,.fi,.fj,.fk,.fl,.fm,.fn,.fo,.fp,.fq{stroke-linecap:round;stroke-linejoin:round;}.eq,.er,.ex,.fa,.fc,.fe,.fg,.fi,.fj,.fl,.fp,.fq{stroke-width:4.14px;}.fr{opacity:.3;}.fr,.fs,.ft,.fu{fill:#2cb849;}.er{stroke:url(#ej);}.fv{fill:url(#dp);}.fw{stroke-dasharray:0 8;}.fw,.et,.eu,.ew{stroke:#acb0b5;stroke-miterlimit:10;}.fw,.fx{fill:#cbe2f8;}.es{stroke:url(#ag);}.es,.ev,.ey,.f`,.fb,.fd,.ff,.fh,.fk,.fm,.fn,.fo{stroke-width:4.07px;}.fy{fill:url(#bk);}.g`{fill:url(#d`);}.ga{fill:url(#ai);}.et{stroke-dasharray:0 0 6.71 6.71;}.gb{fill:url(#ch);}.eu{stroke-dasharray:0 0 9.04 9.04;}.gc{fill:url(#y);}.ev{stroke:url(#bi);}.gd{fill:url(#dr);}.ge{fill:url(#ef);}.gf{fill:url(#u);}.gg{fill:url(#dd);}.gh{fill:#86b0da;}.gi{fill:url(#m);}.gj{fill:url(#aw);}.ex{stroke:url(#dh);}.gk{fill:url(#bm);}.gl,.gm{fill:#e8505b;}.gn{fill:url(#ba);}.go{fill:url(#ao);}.ey{stroke:url(#bw);}.f`{stroke:url(#as);}.gp{fill:url(#eb);}.fa{stroke:url(#el);}.gq{fill:url(#db);}.gr{fill:url(#bo);}.gs{fill:url(#cb);}.gt{fill:url(#ak);}.gu,.gv,.gw,.gx,.gy,.h`{isolation:isolate;}.gu,.gx{opacity:.4;}.gv,.gy{opacity:.2;}.ha{fill:url(#cf);}.fb{stroke:url(#bg);}.fc{stroke:url(#dx);}.fd{stroke:url(#ac);}.hb{fill:url(#bc);}.hc{fill:url(#cn);}.fe{stroke:url(#eh);}.hd{fill:url(#cx);}.ff{stroke:url(#aq);}.he{fill:#407bff;}.hf{fill:url(#by);}.hg{fill:url(#am);}.fg{stroke:url(#ct);}.hh{fill:#acb0b5;}.gw{opacity:.94;}.gw,.gx,.gy,.h`{fill:#fff;}.hi{fill:url(#aa);}.hj{fill:url(#s);}.gm{opacity:.24;}.hk{fill:url(#cj);}.fh{stroke:url(#au);}.hl{fill:url(#w);}.hm{fill:url(#dn);}.hn{fill:url(#dl);}.ho{fill:url(#en);}.fi{stroke:url(#cv);}.hp{fill:url(#cp);}.hq{fill:url(#cl);}.hr{fill:url(#ed);}.hs{fill:url(#o);}.fj{stroke:url(#df);}.ht,.hu{fill:#e89c24;}.ft{opacity:.5;}.hv{fill:url(#q);}.fk{stroke:url(#bu);}.hw{fill:url(#ay);}.hu{opacity:.57;}.fl{stroke:url(#dt);}.hx{fill:url(#cd);}.fm{stroke:url(#be);}.fn{stroke:url(#bs);}.fu{opacity:.7;}.hy{fill:#263238;}.i`{fill:url(#e`);}.fo{stroke:url(#ae);}.fp{stroke:url(#dj);}.ia{fill:#80cb92;}.fq{stroke:url(#cr);}.h`{opacity:.6;}</style><linearGradient id="m" x1="67.43" y1="257.56" x2="141.2" y2="257.56" gradientTransform="matrix(1, 0, 0, 1, 0, 0)" gradientUnits="userSpaceOnUse"><stop offset="0" stop-color="#426d97"/><stop offset="1" stop-color="#2c4e86"/></linearGradient><linearGradient id="o" x1="72.06" y1="242.57" x2="136.57" y2="242.57" gradientTransform="matrix(1, 0, 0, 1, 0, 0)" gradientUnits="userSpaceOnUse"><stop offset="0" stop-color="#69b9ef"/><stop offset=".87" stop-color="#4d85ce"/></linearGradient><linearGradient id="q" y1="212.96" y2="212.96" xlink:href="#o"/><linearGradient id="s" y1="301.79" y2="301.79" xlink:href="#o"/><linearGradient id="u" y1="272.18" y2="272.18" xlink:href="#o"/><linearGradient id="w" x1="74.86" y1="212.96" x2="78.93" y2="212.96" gradientTransform="matrix(1, 0, 0, 1, 0, 0)" gradientUnits="userSpaceOnUse"><stop offset=".06" stop-color="#fff"/><stop offset="1" stop-color="#e0e7eb"/></linearGradient><linearGradient id="y" x1="80.69" x2="84.76" xlink:href="#w"/><linearGradient id="aa" x1="86.53" x2="90.6" xlink:href="#w"/><linearGradient id="ac" x1="126.68" y1="212.96" x2="130.75" y2="212.96" xlink:href="#w"/><linearGradient id="ae" x1="119.76" y1="212.96" x2="123.83" y2="212.96" xlink:href="#w"/><linearGradient id="ag" x1="112.92" y1="212.96" x2="116.99" y2="212.96" xlink:href="#w"/><linearGradient id="ai" x1="92.23" y1="212.86" x2="96.3" y2="212.86" xlink:href="#w"/><linearGradient id="ak" y1="242.61" y2="242.61" xlink:href="#w"/><linearGradient id="am" x1="80.69" y1="242.61" x2="84.76" y2="242.61" xlink:href="#w"/><linearGradient id="ao" x1="86.53" y1="242.61" x2="90.6" y2="242.61" xlink:href="#w"/><linearGradient id="aq" x1="126.68" y1="242.61" x2="130.75" y2="242.61" xlink:href="#w"/><linearGradient id="as" x1="119.76" y1="242.61" x2="123.83" y2="242.61" xlink:href="#w"/><linearGradient id="au" x1="112.92" y1="242.61" x2="116.99" y2="242.61" xlink:href="#w"/><linearGradient id="aw" x1="92.23" y1="242.52" x2="96.3" y2="242.52" xlink:href="#w"/><linearGradient id="ay" y1="272.22" y2="272.22" xlink:href="#w"/><linearGradient id="ba" x1="80.69" y1="272.22" x2="84.76" y2="272.22" xlink:href="#w"/><linearGradient id="bc" x1="86.53" y1="272.22" x2="90.6" y2="272.22" xlink:href="#w"/><linearGradient id="be" x1="126.68" y1="272.22" x2="130.75" y2="272.22" xlink:href="#w"/><linearGradient id="bg" x1="119.76" y1="272.22" x2="123.83" y2="272.22" xlink:href="#w"/><linearGradient id="bi" x1="112.92" y1="272.22" x2="116.99" y2="272.22" xlink:href="#w"/><linearGradient id="bk" x1="92.23" y1="272.13" x2="96.3" y2="272.13" xlink:href="#w"/><linearGradient id="bm" y1="301.83" y2="301.83" xlink:href="#w"/><linearGradient id="bo" x1="80.69" y1="301.83" x2="84.76" y2="301.83" xlink:href="#w"/><linearGradient id="bq" x1="86.53" y1="301.83" x2="90.6" y2="301.83" xlink:href="#w"/><linearGradient id="bs" x1="126.68" y1="301.83" x2="130.75" y2="301.83" xlink:href="#w"/><linearGradient id="bu" x1="119.76" y1="301.83" x2="123.83" y2="301.83" xlink:href="#w"/><linearGradient id="bw" x1="112.92" y1="301.83" x2="116.99" y2="301.83" xlink:href="#w"/><linearGradient id="by" x1="92.23" y1="301.74" x2="96.3" y2="301.74" xlink:href="#w"/><linearGradient id="cb" x1="451.63" y1="258.79" x2="526.67" y2="258.79" xlink:href="#m"/><linearGradient id="cd" x1="456.34" y1="243.54" x2="521.95" y2="243.54" xlink:href="#o"/><linearGradient id="cf" x1="456.34" y1="213.43" x2="521.95" y2="213.43" xlink:href="#o"/><linearGradient id="ch" x1="456.34" y1="303.78" x2="521.95" y2="303.78" xlink:href="#o"/><linearGradient id="cj" x1="456.34" y1="273.66" x2="521.95" y2="273.66" xlink:href="#o"/><linearGradient id="cl" x1="459.19" y1="213.43" x2="463.33" y2="213.43" xlink:href="#w"/><linearGradient id="cn" x1="465.12" y1="213.43" x2="469.26" y2="213.43" xlink:href="#w"/><linearGradient id="cp" x1="471.06" y1="213.43" x2="475.2" y2="213.43" xlink:href="#w"/><linearGradient id="cr" x1="511.9" y1="213.43" x2="516.04" y2="213.43" xlink:href="#w"/><linearGradient id="ct" x1="504.86" y1="213.43" x2="509" y2="213.43" xlink:href="#w"/><linearGradient id="cv" x1="497.9" y1="213.43" x2="502.04" y2="213.43" xlink:href="#w"/><linearGradient id="cx" x1="476.86" y1="213.33" x2="480.99" y2="213.33" xlink:href="#w"/><linearGradient id="d`" x1="459.19" y1="243.59" x2="463.33" y2="243.59" xlink:href="#w"/><linearGradient id="db" x1="465.12" y1="243.59" x2="469.26" y2="243.59" xlink:href="#w"/><linearGradient id="dd" x1="471.06" y1="243.59" x2="475.2" y2="243.59" xlink:href="#w"/><linearGradient id="df" x1="511.9" y1="243.59" x2="516.04" y2="243.59" xlink:href="#w"/><linearGradient id="dh" x1="504.86" y1="243.59" x2="509" y2="243.59" xlink:href="#w"/><linearGradient id="dj" x1="497.9" y1="243.59" x2="502.04" y2="243.59" xlink:href="#w"/><linearGradient id="dl" x1="476.86" y1="243.5" x2="480.99" y2="243.5" xlink:href="#w"/><linearGradient id="dn" x1="459.19" y1="273.71" x2="463.33" y2="273.71" xlink:href="#w"/><linearGradient id="dp" x1="465.12" y1="273.71" x2="469.26" y2="273.71" xlink:href="#w"/><linearGradient id="dr" x1="471.06" y1="273.71" x2="475.2" y2="273.71" xlink:href="#w"/><linearGradient id="dt" x1="511.9" y1="273.71" x2="516.04" y2="273.71" xlink:href="#w"/><linearGradient id="dv" x1="504.86" y1="273.71" x2="509" y2="273.71" xlink:href="#w"/><linearGradient id="dx" x1="497.9" y1="273.71" x2="502.04" y2="273.71" xlink:href="#w"/><linearGradient id="e`" x1="476.86" y1="273.61" x2="480.99" y2="273.61" xlink:href="#w"/><linearGradient id="eb" x1="459.19" y1="303.83" x2="463.33" y2="303.83" xlink:href="#w"/><linearGradient id="ed" x1="465.12" y1="303.83" x2="469.26" y2="303.83" xlink:href="#w"/><linearGradient id="ef" x1="471.06" y1="303.83" x2="475.2" y2="303.83" xlink:href="#w"/><linearGradient id="eh" x1="511.9" y1="303.83" x2="516.04" y2="303.83" xlink:href="#w"/><linearGradient id="ej" x1="504.86" y1="303.83" x2="509" y2="303.83" xlink:href="#w"/><linearGradient id="el" x1="497.9" y1="303.83" x2="502.04" y2="303.83" xlink:href="#w"/><linearGradient id="en" x1="476.86" y1="303.73" x2="480.99" y2="303.73" xlink:href="#w"/></defs><g id="a"/><g id="b"/><g id="c"/><g id="d"/><g id="e"/><g id="f"/><g id="g"/><g id="h"/><g id="i"/><g id="j"><path id="k" d="M464.88,345.67c20.97,0,105.69-33.77,73.67-96.74-27.88-54.84-71.37-35.89-53.02-118.38,10.36-46.55-41.84-97.92-98.56-67.37-32.03,17.25-95.16,38.41-126.42-4.5C211.29-8.95,105.86-10,71.95,65.38c-36.32,80.73,57.62,100.72,22.69,139.44-12.89,14.29-28.65,21.03-39.27,71.75-7.5,35.79,35.03,64.62,73.09,65.69l336.43,3.41Z" style="fill:#cbe2f8;"/><g id="l"><rect id="n" x="67.43" y="195.24" width="73.78" height="124.63" rx="3.22" ry="3.22" style="fill:url(#m);"/><rect id="p" x="72.06" y="229.33" width="64.51" height="26.47" rx="1.05" ry="1.05" style="fill:url(#o);"/><rect id="r" x="72.06" y="199.72" width="64.51" height="26.47" rx="1.05" ry="1.05" style="fill:url(#q);"/><rect id="t" x="72.06" y="288.55" width="64.51" height="26.47" rx="1.05" ry="1.05" style="fill:url(#s);"/><rect id="v" x="72.06" y="258.94" width="64.51" height="26.47" rx="1.05" ry="1.05" style="fill:url(#u);"/><rect id="x" x="74.86" y="202.11" width="4.07" height="21.7" rx=".92" ry=".92" style="fill:url(#w);"/><rect id="a`" x="80.69" y="202.11" width="4.07" height="21.7" rx=".92" ry=".92" style="fill:url(#y);"/><rect id="ab" x="86.53" y="202.11" width="4.07" height="21.7" rx=".92" ry=".92" style="fill:url(#aa);"/><line id="ad" x1="128.72" y1="212.96" x2="128.72" y2="212.96" style="fill:none; stroke:url(#ac); stroke-linecap:round; stroke-linejoin:round; stroke-width:4.07px;"/><line id="af" x1="121.8" y1="212.96" x2="121.8" y2="212.96" style="fill:none; stroke:url(#ae); stroke-linecap:round; stroke-linejoin:round; stroke-width:4.07px;"/><line id="ah" x1="114.95" y1="212.96" x2="114.95" y2="212.96" style="fill:none; stroke:url(#ag); stroke-linecap:round; stroke-linejoin:round; stroke-width:4.07px;"/><rect id="aj" x="92.23" y="202.01" width="4.07" height="21.7" rx=".92" ry=".92" style="fill:url(#ai);"/><rect id="al" x="74.86" y="231.76" width="4.07" height="21.7" rx=".92" ry=".92" style="fill:url(#ak);"/><rect id="an" x="80.69" y="231.76" width="4.07" height="21.7" rx=".92" ry=".92" style="fill:url(#am);"/><rect id="ap" x="86.53" y="231.76" width="4.07" height="21.7" rx=".92" ry=".92" style="fill:url(#ao);"/><line id="ar" x1="128.72" y1="242.61" x2="128.72" y2="242.61" style="fill:none; stroke:url(#aq); stroke-linecap:round; stroke-linejoin:round; stroke-width:4.07px;"/><line id="at" x1="121.8" y1="242.61" x2="121.8" y2="242.61" style="fill:none; stroke:url(#as); stroke-linecap:round; stroke-linejoin:round; stroke-width:4.07px;"/><line id="av" x1="114.95" y1="242.61" x2="114.95" y2="242.61" style="fill:none; stroke:url(#au); stroke-linecap:round; stroke-linejoin:round; stroke-width:4.07px;"/><rect id="ax" x="92.23" y="231.67" width="4.07" height="21.7" rx=".92" ry=".92" style="fill:url(#aw);"/><rect id="b`" x="74.86" y="261.37" width="4.07" height="21.7" rx=".92" ry=".92" style="fill:url(#ay);"/><rect id="bb" x="80.69" y="261.37" width="4.07" height="21.7" rx=".92" ry=".92" style="fill:url(#ba);"/><rect id="bd" x="86.53" y="261.37" width="4.07" height="21.7" rx=".92" ry=".92" style="fill:url(#bc);"/><line id="bf" x1="128.72" y1="272.22" x2="128.72" y2="272.22" style="fill:none; stroke:url(#be); stroke-linecap:round; stroke-linejoin:round; stroke-width:4.07px;"/><line id="bh" x1="121.8" y1="272.22" x2="121.8" y2="272.22" style="fill:none; stroke:url(#bg); stroke-linecap:round; stroke-linejoin:round; stroke-width:4.07px;"/><line id="bj" x1="114.95" y1="272.22" x2="114.95" y2="272.22" style="fill:none; stroke:url(#bi); stroke-linecap:round; stroke-linejoin:round; stroke-width:4.07px;"/><rect id="bl" x="92.23" y="261.28" width="4.07" height="21.7" rx=".92" ry=".92" style="fill:url(#bk);"/><rect id="bn" x="74.86" y="290.98" width="4.07" height="21.7" rx=".92" ry=".92" style="fill:url(#bm);"/><rect id="bp" x="80.69" y="290.98" width="4.07" height="21.7" rx=".92" ry=".92" style="fill:url(#bo);"/><rect id="br" x="86.53" y="290.98" width="4.07" height="21.7" rx=".92" ry=".92" style="fill:url(#bq);"/><line id="bt" x1="128.72" y1="301.83" x2="128.72" y2="301.83" style="fill:none; stroke:url(#bs); stroke-linecap:round; stroke-linejoin:round; stroke-width:4.07px;"/><line id="bv" x1="121.8" y1="301.83" x2="121.8" y2="301.83" style="fill:none; stroke:url(#bu); stroke-linecap:round; stroke-linejoin:round; stroke-width:4.07px;"/><line id="bx" x1="114.95" y1="301.83" x2="114.95" y2="301.83" style="fill:none; stroke:url(#bw); stroke-linecap:round; stroke-linejoin:round; stroke-width:4.07px;"/><rect id="c`" x="92.23" y="290.89" width="4.07" height="21.7" rx=".92" ry=".92" style="fill:url(#by);"/></g><g id="ca"><rect id="cc" x="451.63" y="195.41" width="75.04" height="126.77" rx="3.27" ry="3.27" style="fill:url(#cb);"/><rect id="ce" x="456.34" y="230.08" width="65.62" height="26.92" rx="1.07" ry="1.07" style="fill:url(#cd);"/><rect id="cg" x="456.34" y="199.97" width="65.62" height="26.92" rx="1.07" ry="1.07" style="fill:url(#cf);"/><rect id="ci" x="456.34" y="290.32" width="65.62" height="26.92" rx="1.07" ry="1.07" style="fill:url(#ch);"/><rect id="ck" x="456.34" y="260.2" width="65.62" height="26.92" rx="1.07" ry="1.07" style="fill:url(#cj);"/><rect id="cm" x="459.19" y="202.39" width="4.14" height="22.07" rx=".94" ry=".94" style="fill:url(#cl);"/><rect id="co" x="465.12" y="202.39" width="4.14" height="22.07" rx=".94" ry=".94" style="fill:url(#cn);"/><rect id="cq" x="471.06" y="202.39" width="4.14" height="22.07" rx=".94" ry=".94" style="fill:url(#cp);"/><line id="cs" x1="513.97" y1="213.43" x2="513.97" y2="213.43" style="fill:none; stroke:url(#cr); stroke-linecap:round; stroke-linejoin:round; stroke-width:4.14px;"/><line id="cu" x1="506.93" y1="213.43" x2="506.93" y2="213.43" style="fill:none; stroke:url(#ct); stroke-linecap:round; stroke-linejoin:round; stroke-width:4.14px;"/><line id="cw" x1="499.97" y1="213.43" x2="499.97" y2="213.43" style="fill:none; stroke:url(#cv); stroke-linecap:round; stroke-linejoin:round; stroke-width:4.14px;"/><rect id="cy" x="476.86" y="202.29" width="4.14" height="22.07" rx=".94" ry=".94" style="fill:url(#cx);"/><rect id="da" x="459.19" y="232.56" width="4.14" height="22.07" rx=".94" ry=".94" style="fill:url(#d`);"/><rect id="dc" x="465.12" y="232.56" width="4.14" height="22.07" rx=".94" ry=".94" style="fill:url(#db);"/><rect id="de" x="471.06" y="232.56" width="4.14" height="22.07" rx=".94" ry=".94" style="fill:url(#dd);"/><line id="dg" x1="513.97" y1="243.59" x2="513.97" y2="243.59" style="fill:none; stroke:url(#df); stroke-linecap:round; stroke-linejoin:round; stroke-width:4.14px;"/><line id="di" x1="506.93" y1="243.59" x2="506.93" y2="243.59" style="fill:none; stroke:url(#dh); stroke-linecap:round; stroke-linejoin:round; stroke-width:4.14px;"/><line id="dk" x1="499.97" y1="243.59" x2="499.97" y2="243.59" style="fill:none; stroke:url(#dj); stroke-linecap:round; stroke-linejoin:round; stroke-width:4.14px;"/><rect id="dm" x="476.86" y="232.46" width="4.14" height="22.07" rx=".94" ry=".94" style="fill:url(#dl);"/><rect id="do" x="459.19" y="262.67" width="4.14" height="22.07" rx=".94" ry=".94" style="fill:url(#dn);"/><rect id="dq" x="465.12" y="262.67" width="4.14" height="22.07" rx=".94" ry=".94" style="fill:url(#dp);"/><rect id="ds" x="471.06" y="262.67" width="4.14" height="22.07" rx=".94" ry=".94" style="fill:url(#dr);"/><line id="du" x1="513.97" y1="273.71" x2="513.97" y2="273.71" style="fill:none; stroke:url(#dt); stroke-linecap:round; stroke-linejoin:round; stroke-width:4.14px;"/><line id="dw" x1="506.93" y1="273.71" x2="506.93" y2="273.71" style="fill:none; stroke:url(#dv); stroke-linecap:round; stroke-linejoin:round; stroke-width:4.14px;"/><line id="dy" x1="499.97" y1="273.71" x2="499.97" y2="273.71" style="fill:none; stroke:url(#dx); stroke-linecap:round; stroke-linejoin:round; stroke-width:4.14px;"/><rect id="ea" x="476.86" y="262.58" width="4.14" height="22.07" rx=".94" ry=".94" style="fill:url(#e`);"/><rect id="ec" x="459.19" y="292.79" width="4.14" height="22.07" rx=".94" ry=".94" style="fill:url(#eb);"/><rect id="ee" x="465.12" y="292.79" width="4.14" height="22.07" rx=".94" ry=".94" style="fill:url(#ed);"/><rect id="eg" x="471.06" y="292.79" width="4.14" height="22.07" rx=".94" ry=".94" style="fill:url(#ef);"/><line id="ei" x1="513.97" y1="303.83" x2="513.97" y2="303.83" style="fill:none; stroke:url(#eh); stroke-linecap:round; stroke-linejoin:round; stroke-width:4.14px;"/><line id="ek" x1="506.93" y1="303.83" x2="506.93" y2="303.83" style="fill:none; stroke:url(#ej); stroke-linecap:round; stroke-linejoin:round; stroke-width:4.14px;"/><line id="em" x1="499.97" y1="303.83" x2="499.97" y2="303.83" style="fill:none; stroke:url(#el); stroke-linecap:round; stroke-linejoin:round; stroke-width:4.14px;"/><rect id="eo" x="476.86" y="292.69" width="4.14" height="22.07" rx=".94" ry=".94" style="fill:url(#en);"/></g><g><g><path d="M181.89,137.76h231.27c2.61,0,4.74,2.12,4.74,4.74v167.25H177.15V142.5c0-2.61,2.12-4.74,4.74-4.74Z" style="fill:#263238;"/><rect x="181.89" y="148.38" width="231.27" height="147.81" style="fill:#86b0da;"/><g><circle cx="295.42" cy="143.49" r="2.31" style="fill:#fff; isolation:isolate; opacity:.2;"/><circle cx="300.2" cy="143.49" r="1.74" style="fill:#fff; isolation:isolate; opacity:.2;"/></g><path d="M298.47,299.22c-.3-.1-.61-.17-.94-.17-1.67,0-3.03,1.35-3.03,3.03s1.35,3.03,3.03,3.03,3.03-1.35,3.03-3.03c0-.06-.01-.11-.02-.17-1.15-.38-2-1.43-2.07-2.7Z" style="fill:#fff; isolation:isolate; opacity:.2;"/><g><path d="M435.84,307.4v2.18c0,.59-.17,1.15-.46,1.63-.4,.68-1.04,1.2-1.83,1.43l-16.77,4.95c-2.08,.62-4.24,.93-6.42,.93H184.68c-2.16,0-4.33-.31-6.4-.93l-16.77-4.95c-.8-.23-1.44-.75-1.84-1.43-.29-.48-.45-1.04-.45-1.63v-2.18H435.84Z" style="fill:#263238;"/><path d="M435.84,307.4v2.18c0,.59-.17,1.15-.46,1.63-.4,.68-1.04,1.2-1.83,1.43l-16.77,4.95c-2.08,.62-4.24,.93-6.42,.93H184.68c-2.16,0-4.33-.31-6.4-.93l-16.77-4.95c-.8-.23-1.44-.75-1.84-1.43-.29-.48-.45-1.04-.45-1.63v-2.18H435.84Z" style="fill:#fff; isolation:isolate; opacity:.2;"/><path d="M435.84,307.4v2.18c0,.59-.17,1.15-.46,1.63H159.67c-.29-.48-.45-1.04-.45-1.63v-2.18H435.84Z" style="fill:#fff; isolation:isolate; opacity:.2;"/><path d="M316.99,307.4v.95c0,.52-.42,.94-.94,.94h-37.03c-.53,0-.95-.42-.95-.94v-.95h38.93Z" style="isolation:isolate; opacity:.2;"/></g></g><g><g><path d="M370.09,81.57v119.96l-19.98,19.98h-78.97c-1.7,0-3.07-1.38-3.07-3.08V81.57c0-1.7,1.38-3.08,3.07-3.08h95.87c1.7,0,3.08,1.38,3.08,3.08Z" style="fill:#e8505b;"/><path d="M370.09,86.81v114.73l-19.98,19.98h-78.97c-1.7,0-3.07-1.38-3.07-3.08V86.81h102.03Z" style="fill:#fff; isolation:isolate; opacity:.94;"/><path d="M367.42,82.3c0,.82-.67,1.49-1.49,1.49s-1.49-.67-1.49-1.49,.67-1.49,1.49-1.49,1.49,.67,1.49,1.49Z" style="fill:#fff; isolation:isolate; opacity:.6;"/><path d="M361.74,82.3c0,.82-.67,1.49-1.49,1.49s-1.49-.67-1.49-1.49,.67-1.49,1.49-1.49,1.49,.67,1.49,1.49Z" style="fill:#fff; isolation:isolate; opacity:.6;"/><path d="M356.06,82.3c0,.82-.67,1.49-1.49,1.49s-1.49-.67-1.49-1.49,.67-1.49,1.49-1.49,1.49,.67,1.49,1.49Z" style="fill:#fff; isolation:isolate; opacity:.6;"/></g><g><path d="M330.08,96.06h-54.69c-.53,0-.96-.43-.96-.96s.43-.96,.96-.96h54.69c.53,0,.96,.43,.96,.96s-.43,.96-.96,.96Z" style="fill:#acb0b5;"/><path d="M314.62,101.29h-39.23c-.53,0-.96-.43-.96-.96s.43-.96,.96-.96h39.23c.53,0,.96,.43,.96,.96s-.43,.96-.96,.96Z" style="fill:#acb0b5;"/></g><g><path d="M357.01,182.18h-69.93c-.53,0-.96-.43-.96-.96s.43-.96,.96-.96h69.93c.53,0,.96,.43,.96,.96s-.43,.96-.96,.96Z" style="fill:#acb0b5;"/><path d="M345.32,203.11h-69.93c-.53,0-.96-.43-.96-.96s.43-.96,.96-.96h69.93c.53,0,.96,.43,.96,.96s-.43,.96-.96,.96Z" style="fill:#acb0b5;"/><path d="M357.01,187.41h-81.62c-.53,0-.96-.43-.96-.96s.43-.96,.96-.96h81.62c.53,0,.96,.43,.96,.96s-.43,.96-.96,.96Z" style="fill:#acb0b5;"/><path d="M357.01,192.65h-81.62c-.53,0-.96-.43-.96-.96s.43-.96,.96-.96h81.62c.53,0,.96,.43,.96,.96s-.43,.96-.96,.96Z" style="fill:#acb0b5;"/><path d="M357.01,197.88h-81.62c-.53,0-.96-.43-.96-.96s.43-.96,.96-.96h81.62c.53,0,.96,.43,.96,.96s-.43,.96-.96,.96Z" style="fill:#acb0b5;"/></g><polygon points="370.09 201.54 350.11 221.51 350.11 201.54 370.09 201.54" style="fill:#e8505b; opacity:.24;"/><rect x="364.45" y="86.81" width="5.64" height="114.73" style="isolation:isolate; opacity:.4;"/><path d="M367.27,146.76h0c-1.15,0-2.08-.93-2.08-2.08v-11.72c0-1.15,.93-2.08,2.08-2.08h0c1.15,0,2.08,.93,2.08,2.08v11.72c0,1.15-.93,2.08-2.08,2.08Z" style="fill:#407bff;"/><g><path d="M357.01,153.45h-69.93c-.53,0-.96-.43-.96-.96s.43-.96,.96-.96h69.93c.53,0,.96,.43,.96,.96s-.43,.96-.96,.96Z" style="fill:#acb0b5;"/><path d="M345.32,174.38h-69.93c-.53,0-.96-.43-.96-.96s.43-.96,.96-.96h69.93c.53,0,.96,.43,.96,.96s-.43,.96-.96,.96Z" style="fill:#acb0b5;"/><path d="M357.01,158.68h-81.62c-.53,0-.96-.43-.96-.96s.43-.96,.96-.96h81.62c.53,0,.96,.43,.96,.96s-.43,.96-.96,.96Z" style="fill:#acb0b5;"/><path d="M357.01,163.91h-81.62c-.53,0-.96-.43-.96-.96s.43-.96,.96-.96h81.62c.53,0,.96,.43,.96,.96s-.43,.96-.96,.96Z" style="fill:#acb0b5;"/><path d="M357.01,169.15h-81.62c-.53,0-.96-.43-.96-.96s.43-.96,.96-.96h81.62c.53,0,.96,.43,.96,.96s-.43,.96-.96,.96Z" style="fill:#acb0b5;"/></g><rect x="275.14" y="107.53" width="81.87" height="30.55" style="fill:#e8505b;"/><path d="M357.01,142.92h-22.05c-.53,0-.96-.43-.96-.96s.43-.96,.96-.96h22.05c.53,0,.96,.43,.96,.96s-.43,.96-.96,.96Z" style="fill:#acb0b5;"/><path d="M307.57,78.49v99.14l-15.07,15.07h-24.43V81.57c0-1.7,1.38-3.08,3.07-3.08h36.43Z" style="isolation:isolate; opacity:.2;"/><path d="M367.27,146.76h0c-1.15,0-2.08-.93-2.08-2.08v-11.72c0-1.15,.93-2.08,2.08-2.08h0c1.15,0,2.08,.93,2.08,2.08v11.72c0,1.15-.93,2.08-2.08,2.08Z" style="fill:#e8505b;"/></g><g><g><path d="M249.19,96.52v119.96l-19.98,19.98h-78.97c-1.7,0-3.07-1.38-3.07-3.08V96.52c0-1.7,1.38-3.08,3.07-3.08h95.87c1.7,0,3.08,1.38,3.08,3.08Z" style="fill:#2cb849;"/><path d="M249.18,101.77v114.73l-19.98,19.98h-78.97c-1.7,0-3.07-1.38-3.07-3.08V101.77h102.03Z" style="fill:#fff; isolation:isolate; opacity:.94;"/><path d="M246.52,97.26c0,.82-.67,1.49-1.49,1.49s-1.49-.67-1.49-1.49,.67-1.49,1.49-1.49,1.49,.67,1.49,1.49Z" style="fill:#fff; isolation:isolate; opacity:.6;"/><path d="M240.83,97.26c0,.82-.67,1.49-1.49,1.49s-1.49-.67-1.49-1.49,.67-1.49,1.49-1.49,1.49,.67,1.49,1.49Z" style="fill:#fff; isolation:isolate; opacity:.6;"/><path d="M235.15,97.26c0,.82-.67,1.49-1.49,1.49s-1.49-.67-1.49-1.49,.67-1.49,1.49-1.49,1.49,.67,1.49,1.49Z" style="fill:#fff; isolation:isolate; opacity:.6;"/></g><g><path d="M171.47,111.53h-16.99c-.53,0-.96-.43-.96-.96s.43-.96,.96-.96h16.99c.53,0,.96,.43,.96,.96s-.43,.96-.96,.96Z" style="fill:#acb0b5;"/><path d="M179.48,116.76h-25c-.53,0-.96-.43-.96-.96s.43-.96,.96-.96h25c.53,0,.96,.43,.96,.96s-.43,.96-.96,.96Z" style="fill:#acb0b5;"/><path d="M171.75,121.99h-17.27c-.53,0-.96-.43-.96-.96s.43-.96,.96-.96h17.27c.53,0,.96,.43,.96,.96s-.43,.96-.96,.96Z" style="fill:#acb0b5;"/></g><g><path d="M236.1,207.67h-69.93c-.53,0-.96-.43-.96-.96s.43-.96,.96-.96h69.93c.53,0,.96,.43,.96,.96s-.43,.96-.96,.96Z" style="fill:#acb0b5;"/><path d="M197.79,212.91h-43.31c-.53,0-.96-.43-.96-.96s.43-.96,.96-.96h43.31c.53,0,.96,.43,.96,.96s-.43,.96-.96,.96Z" style="fill:#acb0b5;"/></g><polygon points="249.18 216.49 229.21 236.47 229.21 216.49 249.18 216.49" style="fill:#80cb92;"/><rect x="243.54" y="101.77" width="5.64" height="114.73" style="isolation:isolate; opacity:.4;"/><path d="M246.36,208.64h0c-1.15,0-2.08-.93-2.08-2.08v-11.72c0-1.15,.93-2.08,2.08-2.08h0c1.15,0,2.08,.93,2.08,2.08v11.72c0,1.15-.93,2.08-2.08,2.08Z" style="fill:#407bff;"/><g><path d="M236.1,111.53h-13.16c-.53,0-.96-.43-.96-.96s.43-.96,.96-.96h13.16c.53,0,.96,.43,.96,.96s-.43,.96-.96,.96Z" style="fill:#407bff;"/><path d="M236.1,116.76h-6.8c-.53,0-.96-.43-.96-.96s.43-.96,.96-.96h6.8c.53,0,.96,.43,.96,.96s-.43,.96-.96,.96Z" style="fill:#407bff;"/></g><g><path d="M236.1,135.84h-69.93c-.53,0-.96-.43-.96-.96s.43-.96,.96-.96h69.93c.53,0,.96,.43,.96,.96s-.43,.96-.96,.96Z" style="fill:#acb0b5;"/><path d="M236.1,141.08h-81.62c-.53,0-.96-.43-.96-.96s.43-.96,.96-.96h81.62c.53,0,.96,.43,.96,.96s-.43,.96-.96,.96Z" style="fill:#acb0b5;"/><path d="M188.22,146.31h-33.74c-.53,0-.96-.43-.96-.96s.43-.96,.96-.96h33.74c.53,0,.96,.43,.96,.96s-.43,.96-.96,.96Z" style="fill:#acb0b5;"/></g><g><rect x="168.02" y="153.25" width="32.16" height="8.61" style="fill:#2cb849; opacity:.7;"/><rect x="168.02" y="163.78" width="14.57" height="31.82" style="fill:#2cb849; opacity:.3;"/><rect x="202.09" y="163.78" width="16.74" height="31.82" style="fill:#2cb849; opacity:.3;"/><rect x="202.09" y="153.25" width="34.01" height="8.61" style="fill:#2cb849; opacity:.7;"/><rect x="220.75" y="163.78" width="15.36" height="31.82" style="fill:#2cb849; opacity:.3;"/><rect x="154.48" y="163.78" width="11.63" height="31.82" style="fill:#2cb849; opacity:.5;"/><rect x="154.48" y="153.25" width="11.63" height="8.61" style="fill:#2cb849;"/><rect x="184.51" y="163.78" width="15.67" height="31.82" style="fill:#2cb849; opacity:.3;"/></g><path d="M246.36,208.64h0c-1.15,0-2.08-.93-2.08-2.08v-11.72c0-1.15,.93-2.08,2.08-2.08h0c1.15,0,2.08,.93,2.08,2.08v11.72c0,1.15-.93,2.08-2.08,2.08Z" style="fill:#fff; isolation:isolate; opacity:.4;"/><path d="M249.19,96.52v99.79h-57.78c-1.7,0-3.07-1.38-3.07-3.08V93.44h57.77c1.7,0,3.08,1.38,3.08,3.08Z" style="isolation:isolate; opacity:.2;"/></g><g><g><path d="M299.91,42.14v119.96l-19.98,19.98h-78.97c-1.7,0-3.07-1.38-3.07-3.08V42.14c0-1.7,1.38-3.08,3.07-3.08h95.87c1.7,0,3.08,1.38,3.08,3.08Z" style="fill:#e89c24;"/><path d="M299.91,47.38v114.73l-19.98,19.98h-78.97c-1.7,0-3.07-1.38-3.07-3.08V47.38h102.03Z" style="fill:#fff; isolation:isolate; opacity:.94;"/><circle cx="295.75" cy="42.87" r="1.49" style="fill:#fff; isolation:isolate; opacity:.6;"/><circle cx="290.07" cy="42.87" r="1.49" style="fill:#fff; isolation:isolate; opacity:.6;"/><path d="M285.88,42.87c0,.82-.67,1.49-1.49,1.49s-1.49-.67-1.49-1.49,.67-1.49,1.49-1.49,1.49,.67,1.49,1.49Z" style="fill:#fff; isolation:isolate; opacity:.6;"/></g><g><path d="M255.77,57.14h-19.51c-.53,0-.96-.43-.96-.96s.43-.96,.96-.96h19.51c.53,0,.96,.43,.96,.96s-.43,.96-.96,.96Z" style="fill:#acb0b5;"/><path d="M263.79,62.37h-35.53c-.53,0-.96-.43-.96-.96s.43-.96,.96-.96h35.53c.53,0,.96,.43,.96,.96s-.43,.96-.96,.96Z" style="fill:#acb0b5;"/><path d="M256.06,67.61h-20.07c-.53,0-.96-.43-.96-.96s.43-.96,.96-.96h20.07c.53,0,.96,.43,.96,.96s-.43,.96-.96,.96Z" style="fill:#acb0b5;"/></g><g><path d="M286.83,81.46h-69.93c-.53,0-.96-.43-.96-.96s.43-.96,.96-.96h69.93c.53,0,.96,.43,.96,.96s-.43,.96-.96,.96Z" style="fill:#acb0b5;"/><path d="M275.14,102.39h-69.93c-.53,0-.96-.43-.96-.96s.43-.96,.96-.96h69.93c.53,0,.96,.43,.96,.96s-.43,.96-.96,.96Z" style="fill:#acb0b5;"/><path d="M286.83,86.69h-81.62c-.53,0-.96-.43-.96-.96s.43-.96,.96-.96h81.62c.53,0,.96,.43,.96,.96s-.43,.96-.96,.96Z" style="fill:#acb0b5;"/><path d="M286.83,91.92h-81.62c-.53,0-.96-.43-.96-.96s.43-.96,.96-.96h81.62c.53,0,.96,.43,.96,.96s-.43,.96-.96,.96Z" style="fill:#acb0b5;"/><path d="M286.83,97.15h-81.62c-.53,0-.96-.43-.96-.96s.43-.96,.96-.96h81.62c.53,0,.96,.43,.96,.96s-.43,.96-.96,.96Z" style="fill:#acb0b5;"/></g><g><path d="M286.83,134.13h-69.93c-.53,0-.96-.43-.96-.96s.43-.96,.96-.96h69.93c.53,0,.96,.43,.96,.96s-.43,.96-.96,.96Z" style="fill:#acb0b5;"/><path d="M275.14,155.06h-69.93c-.53,0-.96-.43-.96-.96s.43-.96,.96-.96h69.93c.53,0,.96,.43,.96,.96s-.43,.96-.96,.96Z" style="fill:#acb0b5;"/><path d="M286.83,139.36h-81.62c-.53,0-.96-.43-.96-.96s.43-.96,.96-.96h81.62c.53,0,.96,.43,.96,.96s-.43,.96-.96,.96Z" style="fill:#acb0b5;"/><path d="M286.83,144.6h-81.62c-.53,0-.96-.43-.96-.96s.43-.96,.96-.96h81.62c.53,0,.96,.43,.96,.96s-.43,.96-.96,.96Z" style="fill:#acb0b5;"/><path d="M286.83,149.83h-81.62c-.53,0-.96-.43-.96-.96s.43-.96,.96-.96h81.62c.53,0,.96,.43,.96,.96s-.43,.96-.96,.96Z" style="fill:#acb0b5;"/></g><rect x="277.03" y="55.04" width="9.8" height="13.05" style="fill:#e89c24;"/><circle cx="210.64" cy="60.47" r="5.43" style="fill:#e89c24;"/><g><path d="M204.9,109.23c0,.63,.51,1.14,1.14,1.14s1.14-.51,1.14-1.14-.51-1.14-1.14-1.14-1.14,.51-1.14,1.14Z" style="fill:#acb0b5;"/><path d="M204.9,114.46c0,.63,.51,1.14,1.14,1.14s1.14-.51,1.14-1.14-.51-1.14-1.14-1.14-1.14,.51-1.14,1.14Z" style="fill:#acb0b5;"/><path d="M204.9,119.7c0,.63,.51,1.14,1.14,1.14s1.14-.51,1.14-1.14-.51-1.14-1.14-1.14-1.14,.51-1.14,1.14Z" style="fill:#acb0b5;"/><path d="M204.9,124.93c0,.63,.51,1.14,1.14,1.14s1.14-.51,1.14-1.14-.51-1.14-1.14-1.14-1.14,.51-1.14,1.14Z" style="fill:#acb0b5;"/><path d="M222.47,110.19h-12.47c-.53,0-.96-.43-.96-.96s.43-.96,.96-.96h12.47c.53,0,.96,.43,.96,.96s-.43,.96-.96,.96Z" style="fill:#acb0b5;"/><path d="M234.15,115.42h-24.16c-.53,0-.96-.43-.96-.96s.43-.96,.96-.96h24.16c.53,0,.96,.43,.96,.96s-.43,.96-.96,.96Z" style="fill:#acb0b5;"/><path d="M219.79,120.65h-9.79c-.53,0-.96-.43-.96-.96s.43-.96,.96-.96h9.79c.53,0,.96,.43,.96,.96s-.43,.96-.96,.96Z" style="fill:#acb0b5;"/><path d="M230.32,125.88h-20.33c-.53,0-.96-.43-.96-.96s.43-.96,.96-.96h20.33c.53,0,.96,.43,.96,.96s-.43,.96-.96,.96Z" style="fill:#acb0b5;"/></g><polygon points="299.91 162.11 279.93 182.08 279.93 162.11 299.91 162.11" style="fill:#e89c24; opacity:.57;"/><polygon points="286.83 55.04 277.03 68.08 286.83 68.08 286.83 55.04" style="isolation:isolate; opacity:.2;"/><rect x="207.47" y="57.29" width="6.35" height="6.35" style="isolation:isolate; opacity:.2;"/><rect x="294.27" y="47.38" width="5.64" height="114.73" style="isolation:isolate; opacity:.4;"/><path d="M297.09,69.02h0c-1.15,0-2.08-.93-2.08-2.08v-11.72c0-1.15,.93-2.08,2.08-2.08h0c1.15,0,2.08,.93,2.08,2.08v11.72c0,1.15-.93,2.08-2.08,2.08Z" style="fill:#407bff;"/><path d="M297.09,69.02h0c-1.15,0-2.08-.93-2.08-2.08v-11.72c0-1.15,.93-2.08,2.08-2.08h0c1.15,0,2.08,.93,2.08,2.08v11.72c0,1.15-.93,2.08-2.08,2.08Z" style="fill:#e89c24;"/></g></g><g><polyline points="417.9 168.19 489.15 168.19 489.15 196.32" style="fill:#cbe2f8;"/><g><line x1="417.9" y1="168.19" x2="421.9" y2="168.19" style="fill:none; stroke:#acb0b5; stroke-miterlimit:10;"/><line x1="430.93" y1="168.19" x2="480.63" y2="168.19" style="fill:none; stroke:#acb0b5; stroke-dasharray:0 0 9.04 9.04; stroke-miterlimit:10;"/><polyline points="485.15 168.19 489.15 168.19 489.15 172.19" style="fill:none; stroke:#acb0b5; stroke-miterlimit:10;"/><line x1="489.15" y1="178.9" x2="489.15" y2="188.96" style="fill:none; stroke:#acb0b5; stroke-dasharray:0 0 6.71 6.71; stroke-miterlimit:10;"/><line x1="489.15" y1="192.32" x2="489.15" y2="196.32" style="fill:none; stroke:#acb0b5; stroke-miterlimit:10;"/></g></g><polyline points="104.31 195.61 104.31 164.95 147.16 164.95" style="fill:#cbe2f8; stroke:#acb0b5; stroke-dasharray:0 8; stroke-miterlimit:10;"/></g></svg>