<?xml version="1.0" encoding="UTF-8"?><svg xmlns="http://www.w3.org/2000/svg" viewBox="0 0 600 350"><g style="isolation:isolate;"><g id="a"/><g id="b"/><g id="c"/><g id="d"/><g id="e"/><g id="f"/><g id="g"/><g id="h"/><g id="i"/><g id="j"><path d="M230.07,164.14h140.67c21.13,0,38.94-16.52,39.68-37.64,.02-.58,.03-1.15,.03-1.73,0-26.69-21.63-48.32-48.32-48.32-2.99,0-5.92,.29-8.76,.81,.26-2.02,.41-4.08,.41-6.18,0-26.69-21.63-48.32-48.32-48.32s-48.32,21.63-48.32,48.32c0,1.65,.08,3.29,.25,4.9-6.92-3.14-14.69-4.71-22.89-4.22-24.5,1.47-44.22,21.5-45.31,46.02-.5,11.17,2.8,21.54,8.71,29.95,7.32,10.41,19.44,16.4,32.17,16.4Z" style="fill:#cbe2f8;"/><g><g><g><g><path d="M326.13,331.88h-49.95c11.81-4.43,13.46-21.79,13.46-21.79,0,.89,24.45-.18,24.45-.18,0,.22,0,.43,.02,.64,.16,4.1,1.35,7.68,2.92,10.69,3.56,6.83,9.11,10.64,9.11,10.64Z" style="fill:#7c9de2;"/><path d="M317.02,321.24c-6.59-4.6-27.73-8.32-27.73-8.32l24.82-2.37c.16,4.1,1.35,7.68,2.92,10.69Z" style="mix-blend-mode:soft-light; opacity:.6;"/></g><path d="M379.78,212.83v95.5c0,2.64-2.14,4.77-4.77,4.77H227.3c-2.64,0-4.77-2.14-4.77-4.77v-95.5c0-2.64,2.13-4.77,4.77-4.77h147.71c2.64,0,4.77,2.14,4.77,4.77Z" style="fill:#7c9de2;"/><rect x="228.62" y="215.59" width="145.08" height="83.42" style="fill:#d0e0fa;"/><circle cx="301.16" cy="305.84" r="4.49" style="mix-blend-mode:soft-light; opacity:.6;"/></g><g><g><polygon points="237.24 299.02 233.65 208.05 237.24 208.06 237.24 299.02" style="mix-blend-mode:soft-light; opacity:.6;"/><polygon points="365.81 299.02 369.41 208.05 365.82 208.06 365.81 299.02" style="mix-blend-mode:soft-light; opacity:.6;"/></g><g><g><path d="M365.84,196.07v102.95H237.23v-102.95c0-2.33,1.89-4.21,4.21-4.21h120.18c2.33,0,4.21,1.89,4.21,4.21Z" style="fill:#c0d1ff;"/><path d="M365.84,196.07v5.61H237.23v-5.61c0-2.33,1.89-4.21,4.21-4.21h120.18c2.33,0,4.21,1.89,4.21,4.21Z" style="fill:#9eb3e8;"/><g><path d="M246.98,197.34c0,1.22-.99,2.21-2.21,2.21s-2.21-.99-2.21-2.21,.99-2.21,2.21-2.21,2.21,.99,2.21,2.21Z" style="fill:#fff;"/><path d="M253.49,197.34c0,1.22-.99,2.21-2.21,2.21s-2.21-.99-2.21-2.21,.99-2.21,2.21-2.21,2.21,.99,2.21,2.21Z" style="fill:#fff;"/><path d="M260,197.34c0,1.22-.99,2.21-2.21,2.21s-2.21-.99-2.21-2.21,.99-2.21,2.21-2.21,2.21,.99,2.21,2.21Z" style="fill:#fff;"/></g></g><g><rect x="242.82" y="207.08" width="106.29" height="8.24" style="fill:#fff;"/><g><path d="M355.77,212.77c-.48,0-.93-.18-1.27-.51-.35-.34-.56-.8-.57-1.29-.01-.49,.17-.96,.51-1.31,.34-.35,.8-.56,1.29-.57,.49,0,.96,.17,1.31,.51,.35,.34,.56,.8,.57,1.29,.01,.49-.17,.96-.51,1.31-.34,.35-.8,.56-1.29,.57h-.04Zm0-3.14c-.34,0-.69,.13-.94,.4-.24,.25-.37,.58-.36,.93,0,.35,.15,.67,.4,.91,.25,.24,.58,.37,.93,.36,.35,0,.67-.15,.91-.4,.24-.25,.37-.58,.36-.93,0-.35-.15-.67-.4-.91-.25-.24-.58-.36-.9-.36Z" style="fill:#30376d;"/><path d="M359.13,214.31c-.07,0-.13-.02-.18-.07l-2.11-2.03c-.11-.1-.11-.27,0-.38,.1-.11,.27-.11,.38,0l2.11,2.03c.11,.1,.11,.27,0,.38-.05,.05-.12,.08-.19,.08Z" style="fill:#30376d;"/></g><g><rect x="242.82" y="220.9" width="57.38" height="55.52" style="fill:#2f579f;"/><g><rect x="245.47" y="224.36" width="52.19" height="3.99" style="fill:#fff;"/><rect x="245.47" y="230.97" width="52.19" height="3.99" style="fill:#fff;"/><rect x="245.47" y="237.7" width="52.19" height="3.99" style="fill:#fff;"/></g><g><rect x="275.2" y="247.03" width="22.46" height="2.53" style="fill:#fff;"/><rect x="275.2" y="251.32" width="22.46" height="2.53" style="fill:#fff;"/><rect x="275.2" y="255.61" width="22.46" height="2.53" style="fill:#fff;"/><rect x="275.2" y="259.9" width="22.46" height="2.53" style="fill:#fff;"/><rect x="275.2" y="264.19" width="22.46" height="2.53" style="fill:#fff;"/><rect x="275.2" y="268.48" width="22.46" height="2.53" style="fill:#fff;"/></g><rect x="245.47" y="244.43" width="28.15" height="27.56" style="fill:#fff;"/></g><g><rect x="303.13" y="221.52" width="58.1" height="4.9" style="fill:#fff;"/><rect x="303.13" y="229.67" width="58.1" height="4.9" style="fill:#fff;"/><rect x="303.13" y="237.82" width="58.1" height="4.9" style="fill:#fff;"/></g><g><rect x="242.73" y="279.8" width="117.98" height="3.48" style="fill:#fff;"/><rect x="242.73" y="285.59" width="117.98" height="3.48" style="fill:#fff;"/><rect x="242.73" y="291.38" width="117.98" height="3.48" style="fill:#fff;"/></g><g><rect x="302.65" y="249.86" width="31.13" height="2.53" style="fill:#fff;"/><rect x="302.65" y="254.15" width="31.13" height="2.53" style="fill:#fff;"/><rect x="302.65" y="258.44" width="31.13" height="2.53" style="fill:#fff;"/><rect x="302.65" y="262.73" width="31.13" height="2.53" style="fill:#fff;"/><rect x="302.65" y="267.02" width="31.13" height="2.53" style="fill:#fff;"/><rect x="302.65" y="271.31" width="31.13" height="2.53" style="fill:#fff;"/></g></g></g></g></g><g><path d="M327.92,331.04v-28.24c0-.9,.73-1.64,1.64-1.64h12.93c.37,0,.74,.13,1.03,.37l4.11,3.38c.24,.2,.55,.31,.87,.31h15.65c.9,0,1.64,.73,1.64,1.64v24.27l-37.87-.08Z" style="fill:#e58741;"/><path d="M334.82,306.75h24.07c2.57,0,4.66,2.09,4.66,4.66v5.12h-33.38v-5.12c0-2.57,2.09-4.66,4.66-4.66Z" style="mix-blend-mode:soft-light; opacity:.3;"/><path d="M335.15,307.53h23.41c2.42,0,4.39,1.97,4.39,4.39v4.61h-32.18v-4.61c0-2.42,1.97-4.39,4.39-4.39Z" style="fill:#fff;"/><rect x="327.88" y="311.24" width="37.97" height="21.7" rx="4.49" ry="4.49" style="fill:#f99746;"/></g></g><g><line x1="183.26" y1="123.07" x2="180.06" y2="123.07" style="fill:none; stroke:#ccc; stroke-linecap:round; stroke-miterlimit:10; stroke-width:2.4px;"/><line x1="168.45" y1="123.07" x2="154.9" y2="123.07" style="fill:none; stroke:#ccc; stroke-dasharray:0 0 7.74 11.61; stroke-linecap:round; stroke-miterlimit:10; stroke-width:2.4px;"/><polyline points="149.09 123.07 145.89 123.07 145.89 126.26" style="fill:none; stroke:#ccc; stroke-linecap:round; stroke-miterlimit:10; stroke-width:2.4px;"/><line x1="145.89" y1="135.75" x2="145.89" y2="257.51" style="fill:none; stroke:#ccc; stroke-dasharray:0 0 6.32 9.49; stroke-linecap:round; stroke-miterlimit:10; stroke-width:2.4px;"/><polyline points="145.89 262.25 145.89 265.45 149.09 265.45" style="fill:none; stroke:#ccc; stroke-linecap:round; stroke-miterlimit:10; stroke-width:2.4px;"/><line x1="158.85" y1="265.45" x2="202.75" y2="265.45" style="fill:none; stroke:#ccc; stroke-dasharray:0 0 6.5 9.76; stroke-linecap:round; stroke-miterlimit:10; stroke-width:2.4px;"/><line x1="207.62" y1="265.45" x2="210.82" y2="265.45" style="fill:none; stroke:#ccc; stroke-linecap:round; stroke-miterlimit:10; stroke-width:2.4px;"/></g><g><line x1="422.76" y1="124.64" x2="425.96" y2="124.64" style="fill:none; stroke:#ccc; stroke-linecap:round; stroke-miterlimit:10; stroke-width:2.4px;"/><line x1="437.57" y1="124.64" x2="451.12" y2="124.64" style="fill:none; stroke:#ccc; stroke-dasharray:0 0 7.74 11.61; stroke-linecap:round; stroke-miterlimit:10; stroke-width:2.4px;"/><polyline points="456.93 124.64 460.13 124.64 460.13 127.84" style="fill:none; stroke:#ccc; stroke-linecap:round; stroke-miterlimit:10; stroke-width:2.4px;"/><line x1="460.13" y1="137.32" x2="460.13" y2="259.08" style="fill:none; stroke:#ccc; stroke-dasharray:0 0 6.32 9.49; stroke-linecap:round; stroke-miterlimit:10; stroke-width:2.4px;"/><polyline points="460.13 263.82 460.13 267.02 456.93 267.02" style="fill:none; stroke:#ccc; stroke-linecap:round; stroke-miterlimit:10; stroke-width:2.4px;"/><line x1="447.17" y1="267.02" x2="403.27" y2="267.02" style="fill:none; stroke:#ccc; stroke-dasharray:0 0 6.5 9.76; stroke-linecap:round; stroke-miterlimit:10; stroke-width:2.4px;"/><line x1="398.4" y1="267.02" x2="395.2" y2="267.02" style="fill:none; stroke:#ccc; stroke-linecap:round; stroke-miterlimit:10; stroke-width:2.4px;"/></g></g></g></svg>