<?xml version="1.0" encoding="UTF-8"?><svg xmlns="http://www.w3.org/2000/svg" xmlns:xlink="http://www.w3.org/1999/xlink" viewBox="0 0 600 350"><defs><style>.m{fill:#477dfa;}.n{fill:#c0d1ff;}.o,.p{fill:#fff;}.q,.r{opacity:.6;}.q,.s{fill:#407bff;}.t{fill:#3e407a;}.u{clip-path:url(#l);}.v{fill:#f5f5f5;}.w{fill:#f99746;}.x{fill:#7c9de2;}.y{isolation:isolate;}.a`{fill:#e0e0e0;}.aa{fill:#30376d;}.ab{fill:#3660e1;}.p{opacity:.7;}.ac{fill:#d0e0fa;}.ad{opacity:.3;}.ad,.r{mix-blend-mode:soft-light;}.ae{fill:#b8c8e0;}.af{fill:#9eb3e8;}.ag{fill:#e58741;}.ah{opacity:.1;}.ai{fill:#ebebeb;}.aj{fill:#2f579f;}.ak{fill:none;}.al{fill:#dae2f3;}</style><clipPath id="l"><path d="M400.42,122.34c-.26-31.37-25.76-56.72-57.19-56.72-7.57,0-14.8,1.48-21.41,4.16-11.23-22.98-34.83-38.81-62.13-38.81-33.02,0-60.61,23.15-67.47,54.1-31.05,2-55.62,27.8-55.62,59.35s26.64,59.49,59.49,59.49h189.31c23.29,0,42.17-18.88,42.17-42.17,0-18-11.28-33.36-27.16-39.41Z" style="fill:none;"/></clipPath></defs><g style="isolation:isolate;"><g id="a"/><g id="b"/><g id="c"/><g id="d"/><g id="e"/><g id="f"/><g id="g"/><g id="h"/><g id="i"/><g id="j"><g><rect x="62.13" y="300.74" width="477.29" height=".24" style="fill:#ebebeb;"/><rect x="438.87" y="316.11" width="52.73" height=".24" style="fill:#ebebeb;"/><rect x="369.32" y="311.1" width="8.3" height=".24" style="fill:#ebebeb;"/><rect x="417.68" y="307.24" width="18.32" height=".24" style="fill:#ebebeb;"/><rect x="112.21" y="308.85" width="41.23" height=".24" style="fill:#ebebeb;"/><rect x="267.68" y="315.01" width="43.64" height=".24" style="fill:#ebebeb;"/><rect x="196.21" y="310.98" width="89.42" height=".24" style="fill:#ebebeb;"/></g><g><path d="M246.51,76.57c-.12-14.88-12.22-26.9-27.13-26.9-3.59,0-7.02,.7-10.16,1.97-5.33-10.9-16.52-18.41-29.47-18.41-15.66,0-28.75,10.98-32,25.66-14.73,.95-26.38,13.19-26.38,28.15s12.63,28.22,28.22,28.22h89.8c11.05,0,20-8.96,20-20,0-8.54-5.35-15.82-12.88-18.69Z" style="fill:#e0e0e0;"/><path d="M476.45,206.82c-.12-14.88-12.22-26.9-27.13-26.9-3.59,0-7.02,.7-10.16,1.97-5.33-10.9-16.52-18.41-29.47-18.41-15.66,0-28.75,10.98-32,25.66-14.73,.95-26.38,13.19-26.38,28.15s12.63,28.22,28.22,28.22h89.8c11.05,0,20-8.96,20-20,0-8.54-5.35-15.82-12.88-18.69Z" style="fill:#f5f5f5;"/><path d="M390.47,118.86c-.06-7.72-6.34-13.95-14.07-13.95-1.86,0-3.64,.37-5.27,1.02-2.76-5.65-8.57-9.55-15.29-9.55-8.12,0-14.91,5.7-16.6,13.31-7.64,.49-13.68,6.84-13.68,14.6s6.55,14.64,14.64,14.64h46.58c5.73,0,10.38-4.65,10.38-10.38,0-4.43-2.78-8.21-6.68-9.7Z" style="fill:#e0e0e0;"/><path d="M456.15,34.82c-.09-10.2-8.37-18.43-18.59-18.43-2.46,0-4.81,.48-6.96,1.35-3.65-7.47-11.32-12.61-20.19-12.61-10.73,0-19.7,7.53-21.93,17.59-10.09,.65-18.08,9.04-18.08,19.29s8.66,19.34,19.34,19.34h61.53c7.57,0,13.71-6.14,13.71-13.71,0-5.85-3.67-10.84-8.83-12.81Z" style="fill:#ebebeb;"/><path d="M258.86,198.43c-.09-10.2-8.37-18.43-18.59-18.43-2.46,0-4.81,.48-6.96,1.35-3.65-7.47-11.32-12.61-20.19-12.61-10.73,0-19.7,7.53-21.93,17.59-10.09,.65-18.08,9.04-18.08,19.29s8.66,19.34,19.34,19.34h61.53c7.57,0,13.71-6.14,13.71-13.71,0-5.85-3.67-10.84-8.83-12.81Z" style="fill:#f5f5f5;"/><g><g><path d="M187.18,102.82c-.12,0-.25-.06-.33-.14-.05-.05-.09-.1-.1-.15-.03-.06-.04-.12-.04-.18,0-.07,0-.12,.04-.19,.02-.06,.06-.1,.1-.15,.12-.12,.33-.17,.52-.11,.06,.03,.11,.07,.15,.11,.1,.1,.14,.21,.14,.34,0,.06-.01,.12-.04,.18-.02,.06-.06,.1-.11,.15-.09,.09-.21,.14-.33,.14Z" style="fill:#e0e0e0;"/><path d="M186.7,123.38c0-.27,.22-.48,.48-.48h0c.27,0,.48,.21,.48,.48h0c0,.27-.21,.48-.48,.48h0c-.26,0-.48-.21-.48-.48Zm0-5.26c0-.27,.22-.48,.48-.48h0c.27,0,.48,.21,.48,.48h0c0,.26-.21,.48-.48,.48h0c-.26,0-.48-.22-.48-.48Zm0-5.26c0-.27,.22-.48,.48-.48h0c.27,0,.48,.21,.48,.48h0c0,.26-.21,.48-.48,.48h0c-.26,0-.48-.22-.48-.48Zm0-5.26c0-.27,.22-.48,.48-.48h0c.27,0,.48,.21,.48,.48h0c0,.26-.21,.48-.48,.48h0c-.26,0-.48-.22-.48-.48Z" style="fill:#e0e0e0;"/><path d="M187.18,129.12c-.06,0-.12,0-.18-.04-.06-.02-.11-.06-.15-.1-.05-.04-.09-.1-.1-.15-.03-.06-.04-.11-.04-.18,0-.06,0-.12,.04-.18,.02-.06,.06-.11,.1-.15,.04-.05,.1-.08,.15-.11,.11-.05,.25-.05,.36,0,.06,.03,.11,.06,.15,.11,.05,.04,.09,.1,.11,.15,.03,.06,.04,.12,.04,.18,0,.12-.05,.25-.14,.33-.04,.05-.1,.09-.15,.1-.06,.03-.11,.04-.18,.04Z" style="fill:#e0e0e0;"/><path d="M274.21,128.64c0-.26,.21-.48,.47-.48h0c.27,0,.49,.22,.49,.48h0c0,.27-.22,.48-.49,.48h0c-.26,0-.47-.21-.47-.48Zm-5.83,0c0-.26,.21-.48,.48-.48h0c.26,0,.47,.22,.47,.48h0c0,.27-.21,.48-.47,.48h0c-.27,0-.48-.21-.48-.48Zm-5.83,0c0-.26,.21-.48,.48-.48h0c.26,0,.48,.22,.48,.48h0c0,.27-.22,.48-.48,.48h0c-.27,0-.48-.21-.48-.48Zm-5.84,0c0-.26,.22-.48,.48-.48h0c.27,0,.48,.22,.48,.48h0c0,.27-.21,.48-.48,.48h0c-.26,0-.48-.21-.48-.48Zm-5.83,0c0-.26,.22-.48,.48-.48h0c.27,0,.48,.22,.48,.48h0c0,.27-.21,.48-.48,.48h0c-.26,0-.48-.21-.48-.48Zm-5.83,0c0-.26,.21-.48,.48-.48h0c.27,0,.48,.22,.48,.48h0c0,.27-.21,.48-.48,.48h0c-.27,0-.48-.21-.48-.48Zm-5.83,0c0-.26,.21-.48,.48-.48h0c.27,0,.48,.22,.48,.48h0c0,.27-.21,.48-.48,.48h0c-.27,0-.48-.21-.48-.48Zm-5.83,0c0-.26,.21-.48,.48-.48h0c.26,0,.48,.22,.48,.48h0c0,.27-.22,.48-.48,.48h0c-.27,0-.48-.21-.48-.48Zm-5.83,0c0-.26,.21-.48,.48-.48h0c.26,0,.48,.22,.48,.48h0c0,.27-.22,.48-.48,.48h0c-.27,0-.48-.21-.48-.48Zm-5.83,0c0-.26,.21-.48,.48-.48h0c.26,0,.48,.22,.48,.48h0c0,.27-.22,.48-.48,.48h0c-.27,0-.48-.21-.48-.48Zm-5.84,0c0-.26,.22-.48,.48-.48h0c.27,0,.49,.22,.49,.48h0c0,.27-.22,.48-.49,.48h0c-.26,0-.48-.21-.48-.48Zm-5.82,0c0-.26,.21-.48,.48-.48h0c.26,0,.47,.22,.47,.48h0c0,.27-.21,.48-.47,.48h0c-.27,0-.48-.21-.48-.48Zm-5.84,0c0-.26,.22-.48,.48-.48h0c.27,0,.48,.22,.48,.48h0c0,.27-.21,.48-.48,.48h0c-.26,0-.48-.21-.48-.48Zm-5.83,0c0-.26,.22-.48,.48-.48h0c.27,0,.48,.22,.48,.48h0c0,.27-.21,.48-.48,.48h0c-.26,0-.48-.21-.48-.48Zm-5.83,0c0-.26,.22-.48,.48-.48h0c.27,0,.48,.22,.48,.48h0c0,.27-.21,.48-.48,.48h0c-.26,0-.48-.21-.48-.48Z" style="fill:#e0e0e0;"/><path d="M280.52,129.12c-.07,0-.12,0-.18-.04-.06-.02-.11-.06-.16-.1-.04-.04-.08-.1-.1-.15-.03-.06-.04-.11-.04-.18,0-.06,.01-.12,.04-.18,.02-.06,.06-.11,.1-.15,.05-.05,.1-.09,.16-.11,.11-.05,.25-.05,.36,0,.06,.02,.11,.06,.15,.11,.04,.04,.08,.1,.1,.15,.02,.06,.04,.12,.04,.18,0,.12-.06,.25-.14,.33-.04,.05-.1,.09-.15,.1-.06,.03-.12,.04-.18,.04Z" style="fill:#e0e0e0;"/><path d="M280.04,122.96c0-.27,.21-.48,.48-.48h0c.26,0,.48,.21,.48,.48h0c0,.26-.22,.48-.48,.48h0c-.27,0-.48-.22-.48-.48Zm0-5.69c0-.27,.21-.48,.48-.48h0c.26,0,.48,.21,.48,.48h0c0,.27-.22,.48-.48,.48h0c-.27,0-.48-.21-.48-.48Zm0-5.69c0-.26,.21-.48,.48-.48h0c.26,0,.48,.22,.48,.48h0c0,.27-.22,.48-.48,.48h0c-.27,0-.48-.21-.48-.48Zm0-5.68c0-.27,.21-.48,.48-.48h0c.26,0,.48,.21,.48,.48h0c0,.27-.22,.48-.48,.48h0c-.27,0-.48-.21-.48-.48Zm0-5.69c0-.26,.21-.48,.48-.48h0c.26,0,.48,.22,.48,.48h0c0,.27-.22,.48-.48,.48h0c-.27,0-.48-.21-.48-.48Zm0-5.68c0-.27,.21-.48,.48-.48h0c.26,0,.48,.21,.48,.48h0c0,.26-.22,.48-.48,.48h0c-.27,0-.48-.22-.48-.48Zm0-5.69c0-.26,.21-.48,.48-.48h0c.26,0,.48,.22,.48,.48h0c0,.27-.22,.48-.48,.48h0c-.27,0-.48-.21-.48-.48Zm0-5.68c0-.27,.21-.48,.48-.48h0c.26,0,.48,.21,.48,.48h0c0,.26-.22,.48-.48,.48h0c-.27,0-.48-.22-.48-.48Zm0-5.69c0-.27,.21-.48,.48-.48h0c.26,0,.48,.21,.48,.48h0c0,.27-.22,.48-.48,.48h0c-.27,0-.48-.21-.48-.48Z" style="fill:#e0e0e0;"/><path d="M280.52,72.28c-.07,0-.12-.02-.18-.04-.06-.03-.11-.07-.16-.11-.04-.05-.08-.1-.1-.15-.03-.06-.04-.12-.04-.18,0-.07,.01-.12,.04-.19,.02-.06,.06-.1,.1-.15,.05-.04,.1-.08,.16-.11,.11-.05,.25-.05,.36,0,.06,.03,.11,.07,.15,.11,.09,.1,.14,.22,.14,.34s-.06,.25-.14,.33c-.09,.09-.21,.14-.33,.14Z" style="fill:#e0e0e0;"/><path d="M411.49,71.8c0-.27,.21-.49,.48-.49h0c.26,0,.48,.22,.48,.49h0c0,.26-.22,.48-.48,.48h0c-.27,0-.48-.22-.48-.48Zm-5.72,0c0-.27,.21-.49,.48-.49h0c.27,0,.48,.22,.48,.49h0c0,.26-.21,.48-.48,.48h0c-.27,0-.48-.22-.48-.48Zm-5.72,0c0-.27,.22-.49,.48-.49h0c.27,0,.48,.22,.48,.49h0c0,.26-.21,.48-.48,.48h0c-.26,0-.48-.22-.48-.48Zm-5.71,0c0-.27,.21-.49,.48-.49h0c.26,0,.47,.22,.47,.49h0c0,.26-.21,.48-.47,.48h0c-.27,0-.48-.22-.48-.48Zm-5.72,0c0-.27,.21-.49,.48-.49h0c.26,0,.48,.22,.48,.49h0c0,.26-.22,.48-.48,.48h0c-.27,0-.48-.22-.48-.48Zm-5.72,0c0-.27,.21-.49,.48-.49h0c.27,0,.48,.22,.48,.49h0c0,.26-.21,.48-.48,.48h0c-.27,0-.48-.22-.48-.48Zm-5.72,0c0-.27,.22-.49,.48-.49h0c.27,0,.48,.22,.48,.49h0c0,.26-.21,.48-.48,.48h0c-.26,0-.48-.22-.48-.48Zm-5.71,0c0-.27,.21-.49,.48-.49h0c.26,0,.48,.22,.48,.49h0c0,.26-.22,.48-.48,.48h0c-.27,0-.48-.22-.48-.48Zm-5.72,0c0-.27,.21-.49,.48-.49h0c.26,0,.48,.22,.48,.49h0c0,.26-.22,.48-.48,.48h0c-.27,0-.48-.22-.48-.48Zm-5.72,0c0-.27,.22-.49,.48-.49h0c.27,0,.48,.22,.48,.49h0c0,.26-.21,.48-.48,.48h0c-.26,0-.48-.22-.48-.48Zm-5.72,0c0-.27,.22-.49,.49-.49h0c.26,0,.47,.22,.47,.49h0c0,.26-.21,.48-.47,.48h0c-.27,0-.49-.22-.49-.48Zm-5.71,0c0-.27,.21-.49,.48-.49h0c.26,0,.48,.22,.48,.49h0c0,.26-.22,.48-.48,.48h0c-.27,0-.48-.22-.48-.48Zm-5.72,0c0-.27,.21-.49,.48-.49h0c.27,0,.48,.22,.48,.49h0c0,.26-.21,.48-.48,.48h0c-.27,0-.48-.22-.48-.48Zm-5.72,0c0-.27,.22-.49,.48-.49h0c.27,0,.48,.22,.48,.49h0c0,.26-.21,.48-.48,.48h0c-.26,0-.48-.22-.48-.48Zm-5.72,0c0-.27,.22-.49,.48-.49h0c.27,0,.49,.22,.49,.49h0c0,.26-.22,.48-.49,.48h0c-.26,0-.48-.22-.48-.48Zm-5.71,0c0-.27,.21-.49,.48-.49h0c.26,0,.48,.22,.48,.49h0c0,.26-.22,.48-.48,.48h0c-.27,0-.48-.22-.48-.48Zm-5.72,0c0-.27,.21-.49,.48-.49h0c.26,0,.48,.22,.48,.49h0c0,.26-.22,.48-.48,.48h0c-.27,0-.48-.22-.48-.48Zm-5.72,0c0-.27,.22-.49,.48-.49h0c.27,0,.48,.22,.48,.49h0c0,.26-.21,.48-.48,.48h0c-.26,0-.48-.22-.48-.48Zm-5.71,0c0-.27,.21-.49,.48-.49h0c.26,0,.47,.22,.47,.49h0c0,.26-.21,.48-.47,.48h0c-.27,0-.48-.22-.48-.48Zm-5.72,0c0-.27,.21-.49,.48-.49h0c.26,0,.48,.22,.48,.49h0c0,.26-.22,.48-.48,.48h0c-.27,0-.48-.22-.48-.48Zm-5.72,0c0-.27,.21-.49,.48-.49h0c.27,0,.48,.22,.48,.49h0c0,.26-.21,.48-.48,.48h0c-.27,0-.48-.22-.48-.48Zm-5.72,0c0-.27,.22-.49,.48-.49h0c.27,0,.48,.22,.48,.49h0c0,.26-.21,.48-.48,.48h0c-.26,0-.48-.22-.48-.48Zm-5.71,0c0-.27,.21-.49,.48-.49h0c.26,0,.48,.22,.48,.49h0c0,.26-.22,.48-.48,.48h0c-.27,0-.48-.22-.48-.48Z" style="fill:#e0e0e0;"/><path d="M417.69,72.28c-.13,0-.26-.06-.34-.14-.09-.1-.13-.21-.13-.33s.05-.25,.13-.34c.05-.04,.1-.08,.15-.11,.18-.07,.4-.03,.53,.11,.04,.05,.08,.1,.1,.16,.02,.06,.03,.11,.03,.18,0,.12-.05,.25-.13,.33-.09,.09-.21,.14-.33,.14Z" style="fill:#e0e0e0;"/><path d="M417.2,66.28c0-.26,.22-.47,.48-.47h0c.27,0,.49,.21,.49,.47h0c0,.27-.22,.48-.49,.48h0c-.26,0-.48-.21-.48-.48Zm0-5.51c0-.26,.22-.48,.48-.48h0c.27,0,.49,.22,.49,.48h0c0,.27-.22,.49-.49,.49h0c-.26,0-.48-.22-.48-.49Zm0-5.51c0-.26,.22-.48,.48-.48h0c.27,0,.49,.22,.49,.48h0c0,.27-.22,.48-.49,.48h0c-.26,0-.48-.21-.48-.48Zm0-5.51c0-.26,.22-.48,.48-.48h0c.27,0,.49,.22,.49,.48h0c0,.27-.22,.48-.49,.48h0c-.26,0-.48-.21-.48-.48Zm0-5.51c0-.26,.22-.48,.48-.48h0c.27,0,.49,.22,.49,.48h0c0,.27-.22,.48-.49,.48h0c-.26,0-.48-.21-.48-.48Zm0-5.51c0-.26,.22-.48,.48-.48h0c.27,0,.49,.22,.49,.48h0c0,.27-.22,.48-.49,.48h0c-.26,0-.48-.21-.48-.48Z" style="fill:#e0e0e0;"/><path d="M417.69,33.71c-.13,0-.25-.05-.34-.14-.09-.09-.13-.21-.13-.33,0-.07,0-.12,.03-.18,.03-.06,.07-.11,.11-.15,.18-.18,.51-.18,.68,0,.09,.09,.13,.21,.13,.33,0,.07,0,.12-.03,.18-.03,.06-.07,.11-.1,.15-.05,.05-.1,.09-.15,.1-.06,.03-.12,.04-.18,.04Z" style="fill:#e0e0e0;"/></g><g><path d="M220.4,213.33c-.13,0-.26-.05-.34-.13-.05-.05-.08-.1-.1-.16-.02-.06-.04-.11-.04-.18,0-.12,.06-.25,.14-.33,.13-.13,.34-.17,.52-.11,.06,.03,.11,.06,.15,.11,.09,.09,.13,.21,.13,.33,0,.07-.01,.12-.03,.18-.03,.07-.07,.11-.11,.16-.05,.04-.1,.08-.15,.1-.06,.03-.12,.04-.18,.04Z" style="fill:#e0e0e0;"/><path d="M219.92,236.28c0-.27,.21-.48,.48-.48h0c.26,0,.47,.21,.47,.48h0c0,.26-.21,.48-.47,.48h0c-.27,0-.48-.22-.48-.48Zm0-5.86c0-.26,.21-.48,.48-.48h0c.26,0,.47,.22,.47,.48h0c0,.27-.21,.48-.47,.48h0c-.27,0-.48-.21-.48-.48Zm0-5.85c0-.26,.21-.48,.48-.48h0c.26,0,.47,.22,.47,.48h0c0,.26-.21,.48-.47,.48h0c-.27,0-.48-.22-.48-.48Zm0-5.85c0-.27,.21-.48,.48-.48h0c.26,0,.47,.21,.47,.48h0c0,.26-.21,.48-.47,.48h0c-.27,0-.48-.22-.48-.48Z" style="fill:#e0e0e0;"/><path d="M220.4,242.61c-.13,0-.26-.05-.34-.14-.05-.04-.08-.1-.1-.15-.02-.06-.04-.11-.04-.18,0-.06,.02-.12,.04-.18,.03-.06,.06-.11,.1-.15,.13-.13,.34-.18,.52-.1,.06,.02,.11,.06,.15,.1,.04,.04,.08,.1,.11,.15,.02,.06,.03,.12,.03,.18,0,.07-.01,.12-.03,.18-.03,.06-.07,.11-.11,.15-.05,.05-.1,.09-.15,.11-.06,.03-.12,.04-.18,.04Z" style="fill:#e0e0e0;"/><path d="M274.57,242.13c0-.27,.22-.48,.48-.48h0c.27,0,.48,.21,.48,.48h0c0,.27-.21,.48-.48,.48h0c-.26,0-.48-.21-.48-.48Zm-5.46,0c0-.27,.21-.48,.48-.48h0c.26,0,.48,.21,.48,.48h0c0,.27-.22,.48-.48,.48h0c-.27,0-.48-.21-.48-.48Zm-5.47,0c0-.27,.22-.48,.48-.48h0c.27,0,.48,.21,.48,.48h0c0,.27-.21,.48-.48,.48h0c-.26,0-.48-.21-.48-.48Zm-5.46,0c0-.27,.21-.48,.48-.48h0c.26,0,.48,.21,.48,.48h0c0,.27-.22,.48-.48,.48h0c-.27,0-.48-.21-.48-.48Zm-5.47,0c0-.27,.21-.48,.48-.48h0c.26,0,.48,.21,.48,.48h0c0,.27-.22,.48-.48,.48h0c-.27,0-.48-.21-.48-.48Zm-5.47,0c0-.27,.22-.48,.49-.48h0c.26,0,.47,.21,.47,.48h0c0,.27-.21,.48-.47,.48h0c-.27,0-.49-.21-.49-.48Zm-5.46,0c0-.27,.21-.48,.48-.48h0c.26,0,.48,.21,.48,.48h0c0,.27-.22,.48-.48,.48h0c-.27,0-.48-.21-.48-.48Zm-5.47,0c0-.27,.22-.48,.48-.48h0c.27,0,.48,.21,.48,.48h0c0,.27-.21,.48-.48,.48h0c-.26,0-.48-.21-.48-.48Zm-5.46,0c0-.27,.21-.48,.48-.48h0c.26,0,.48,.21,.48,.48h0c0,.27-.22,.48-.48,.48h0c-.27,0-.48-.21-.48-.48Zm-5.47,0c0-.27,.22-.48,.48-.48h0c.27,0,.48,.21,.48,.48h0c0,.27-.21,.48-.48,.48h0c-.26,0-.48-.21-.48-.48Z" style="fill:#e0e0e0;"/><path d="M280.52,242.61c-.07,0-.12,0-.18-.04-.06-.02-.11-.06-.16-.11-.04-.04-.08-.1-.1-.15-.03-.06-.04-.11-.04-.18,0-.12,.05-.25,.13-.33,.05-.05,.1-.09,.16-.1,.11-.05,.25-.05,.36,0,.06,.02,.11,.06,.15,.1,.09,.09,.14,.21,.14,.33,0,.06,0,.12-.04,.18-.03,.06-.06,.11-.1,.15-.04,.05-.1,.09-.15,.11-.06,.03-.12,.04-.18,.04Z" style="fill:#e0e0e0;"/><path d="M280.04,236.58c0-.27,.21-.48,.48-.48h0c.26,0,.48,.21,.48,.48h0c0,.26-.22,.48-.48,.48h0c-.27,0-.48-.22-.48-.48Zm0-5.56c0-.27,.21-.49,.48-.49h0c.26,0,.48,.22,.48,.49h0c0,.26-.22,.48-.48,.48h0c-.27,0-.48-.22-.48-.48Zm0-5.57c0-.26,.21-.48,.48-.48h0c.26,0,.48,.22,.48,.48h0c0,.27-.22,.48-.48,.48h0c-.27,0-.48-.21-.48-.48Zm0-5.56c0-.26,.21-.48,.48-.48h0c.26,0,.48,.22,.48,.48h0c0,.27-.22,.48-.48,.48h0c-.27,0-.48-.21-.48-.48Zm0-5.56c0-.27,.21-.48,.48-.48h0c.26,0,.48,.21,.48,.48h0c0,.26-.22,.48-.48,.48h0c-.27,0-.48-.22-.48-.48Zm0-5.56c0-.27,.21-.48,.48-.48h0c.26,0,.48,.21,.48,.48h0c0,.26-.22,.48-.48,.48h0c-.27,0-.48-.22-.48-.48Zm0-5.56c0-.27,.21-.48,.48-.48h0c.26,0,.48,.21,.48,.48h0c0,.26-.22,.48-.48,.48h0c-.27,0-.48-.22-.48-.48Zm0-5.57c0-.26,.21-.48,.48-.48h0c.26,0,.48,.22,.48,.48h0c0,.27-.22,.48-.48,.48h0c-.27,0-.48-.21-.48-.48Zm0-5.56c0-.27,.21-.48,.48-.48h0c.26,0,.48,.21,.48,.48h0c0,.27-.22,.48-.48,.48h0c-.27,0-.48-.21-.48-.48Zm0-5.56c0-.27,.21-.48,.48-.48h0c.26,0,.48,.21,.48,.48h0c0,.26-.22,.48-.48,.48h0c-.27,0-.48-.22-.48-.48Zm0-5.56c0-.27,.21-.48,.48-.48h0c.26,0,.48,.21,.48,.48h0c0,.26-.22,.48-.48,.48h0c-.27,0-.48-.22-.48-.48Zm0-5.57c0-.26,.21-.48,.48-.48h0c.26,0,.48,.22,.48,.48h0c0,.27-.22,.48-.48,.48h0c-.27,0-.48-.21-.48-.48Zm0-5.56c0-.27,.21-.48,.48-.48h0c.26,0,.48,.21,.48,.48h0c0,.27-.22,.48-.48,.48h0c-.27,0-.48-.21-.48-.48Zm0-5.56c0-.27,.21-.48,.48-.48h0c.26,0,.48,.21,.48,.48h0c0,.27-.22,.48-.48,.48h0c-.27,0-.48-.21-.48-.48Z" style="fill:#e0e0e0;"/><path d="M280.52,159.25c-.07,0-.12-.02-.18-.04-.06-.03-.11-.06-.16-.1-.04-.05-.08-.1-.1-.15-.03-.06-.04-.12-.04-.18,0-.13,.05-.25,.13-.34,.05-.04,.1-.08,.16-.1,.11-.05,.25-.05,.36,0,.06,.02,.11,.06,.15,.1,.09,.1,.14,.22,.14,.34,0,.06,0,.12-.04,.18-.03,.06-.06,.11-.1,.15-.04,.04-.1,.08-.15,.1-.06,.02-.12,.04-.18,.04Z" style="fill:#e0e0e0;"/><path d="M355.1,158.77c0-.27,.22-.48,.48-.48h0c.27,0,.48,.21,.48,.48h0c0,.26-.21,.48-.48,.48h0c-.26,0-.48-.22-.48-.48Zm-5.78,0c0-.27,.22-.48,.48-.48h0c.27,0,.49,.21,.49,.48h0c0,.26-.22,.48-.49,.48h0c-.26,0-.48-.22-.48-.48Zm-5.77,0c0-.27,.22-.48,.48-.48h0c.27,0,.48,.21,.48,.48h0c0,.26-.21,.48-.48,.48h0c-.26,0-.48-.22-.48-.48Zm-5.77,0c0-.27,.21-.48,.47-.48h0c.27,0,.48,.21,.48,.48h0c0,.26-.21,.48-.48,.48h0c-.26,0-.47-.22-.47-.48Zm-5.77,0c0-.27,.21-.48,.48-.48h0c.26,0,.48,.21,.48,.48h0c0,.26-.22,.48-.48,.48h0c-.27,0-.48-.22-.48-.48Zm-5.77,0c0-.27,.21-.48,.48-.48h0c.26,0,.48,.21,.48,.48h0c0,.26-.22,.48-.48,.48h0c-.27,0-.48-.22-.48-.48Zm-5.77,0c0-.27,.21-.48,.48-.48h0c.26,0,.48,.21,.48,.48h0c0,.26-.22,.48-.48,.48h0c-.27,0-.48-.22-.48-.48Zm-5.78,0c0-.27,.22-.48,.48-.48h0c.27,0,.48,.21,.48,.48h0c0,.26-.21,.48-.48,.48h0c-.26,0-.48-.22-.48-.48Zm-5.77,0c0-.27,.21-.48,.48-.48h0c.27,0,.48,.21,.48,.48h0c0,.26-.21,.48-.48,.48h0c-.27,0-.48-.22-.48-.48Zm-5.77,0c0-.27,.22-.48,.48-.48h0c.27,0,.48,.21,.48,.48h0c0,.26-.21,.48-.48,.48h0c-.26,0-.48-.22-.48-.48Zm-5.77,0c0-.27,.22-.48,.48-.48h0c.27,0,.48,.21,.48,.48h0c0,.26-.21,.48-.48,.48h0c-.26,0-.48-.22-.48-.48Zm-5.77,0c0-.27,.21-.48,.48-.48h0c.26,0,.48,.21,.48,.48h0c0,.26-.22,.48-.48,.48h0c-.27,0-.48-.22-.48-.48Zm-5.77,0c0-.27,.21-.48,.48-.48h0c.26,0,.48,.21,.48,.48h0c0,.26-.22,.48-.48,.48h0c-.27,0-.48-.22-.48-.48Z" style="fill:#e0e0e0;"/><path d="M361.35,159.25c-.12,0-.25-.06-.33-.14-.05-.05-.08-.1-.1-.15-.02-.06-.04-.12-.04-.18,0-.07,.02-.12,.04-.18,.03-.07,.06-.11,.1-.16,.04-.04,.1-.08,.15-.1,.12-.06,.25-.06,.36,0,.06,.02,.11,.06,.16,.1,.04,.05,.08,.1,.1,.16,.03,.06,.04,.11,.04,.18,0,.12-.05,.25-.13,.33-.1,.09-.22,.14-.34,.14Z" style="fill:#e0e0e0;"/><path d="M360.87,152.75c0-.27,.22-.48,.48-.48h0c.27,0,.48,.21,.48,.48h0c0,.26-.21,.48-.48,.48h0c-.26,0-.48-.22-.48-.48Zm0-6.02c0-.27,.22-.48,.48-.48h0c.27,0,.48,.21,.48,.48h0c0,.26-.21,.47-.48,.47h0c-.26,0-.48-.21-.48-.47Zm0-6.03c0-.26,.22-.48,.48-.48h0c.27,0,.48,.22,.48,.48h0c0,.27-.21,.48-.48,.48h0c-.26,0-.48-.21-.48-.48Zm0-6.02c0-.26,.22-.48,.48-.48h0c.27,0,.48,.22,.48,.48h0c0,.27-.21,.48-.48,.48h0c-.26,0-.48-.21-.48-.48Z" style="fill:#e0e0e0;"/><path d="M361.35,129.12c-.12,0-.25-.05-.33-.13-.05-.05-.08-.11-.1-.16-.02-.06-.04-.11-.04-.18,0-.06,.02-.12,.04-.18,.03-.06,.06-.11,.1-.15,.04-.05,.1-.08,.15-.11,.12-.05,.25-.05,.36,0,.07,.03,.11,.06,.16,.11,.04,.04,.08,.1,.1,.15,.03,.06,.04,.12,.04,.18,0,.12-.05,.25-.13,.34-.1,.09-.22,.13-.34,.13Z" style="fill:#e0e0e0;"/></g><g><path d="M417.69,234.66c-.13,0-.26-.06-.34-.14-.09-.09-.13-.21-.13-.33s.05-.25,.13-.34c.13-.12,.34-.17,.52-.1,.06,.02,.1,.06,.15,.1,.04,.05,.08,.1,.1,.16,.02,.06,.03,.11,.03,.18,0,.12-.05,.25-.13,.33-.09,.09-.21,.14-.33,.14Z" style="fill:#e0e0e0;"/><path d="M417.2,267.18c0-.27,.22-.48,.48-.48h0c.27,0,.49,.21,.49,.48h0c0,.27-.22,.48-.49,.48h0c-.26,0-.48-.21-.48-.48Zm0-5.5c0-.27,.22-.48,.48-.48h0c.27,0,.49,.21,.49,.48h0c0,.26-.22,.48-.49,.48h0c-.26,0-.48-.22-.48-.48Zm0-5.51c0-.26,.22-.48,.48-.48h0c.27,0,.49,.22,.49,.48h0c0,.27-.22,.49-.49,.49h0c-.26,0-.48-.22-.48-.49Zm0-5.5c0-.26,.22-.48,.48-.48h0c.27,0,.49,.22,.49,.48h0c0,.27-.22,.48-.49,.48h0c-.26,0-.48-.21-.48-.48Zm0-5.5c0-.27,.22-.48,.48-.48h0c.27,0,.49,.21,.49,.48h0c0,.27-.22,.48-.49,.48h0c-.26,0-.48-.21-.48-.48Zm0-5.5c0-.27,.22-.48,.48-.48h0c.27,0,.49,.21,.49,.48h0c0,.26-.22,.48-.49,.48h0c-.26,0-.48-.22-.48-.48Z" style="fill:#e0e0e0;"/><path d="M417.69,273.16c-.13,0-.25-.05-.34-.14-.09-.09-.13-.21-.13-.33,0-.07,0-.12,.03-.18,.03-.06,.07-.11,.11-.15,.18-.18,.51-.18,.68,0,.09,.09,.13,.21,.13,.33,0,.06,0,.12-.03,.18-.03,.06-.07,.11-.1,.15-.05,.05-.1,.09-.15,.11-.06,.03-.12,.04-.18,.04Z" style="fill:#e0e0e0;"/><path d="M411.49,272.68c0-.27,.21-.48,.48-.48h0c.26,0,.48,.21,.48,.48h0c0,.27-.22,.48-.48,.48h0c-.27,0-.48-.21-.48-.48Zm-5.72,0c0-.27,.21-.48,.48-.48h0c.26,0,.48,.21,.48,.48h0c0,.27-.22,.48-.48,.48h0c-.27,0-.48-.21-.48-.48Zm-5.72,0c0-.27,.21-.48,.48-.48h0c.27,0,.48,.21,.48,.48h0c0,.27-.21,.48-.48,.48h0c-.27,0-.48-.21-.48-.48Zm-5.72,0c0-.27,.22-.48,.48-.48h0c.27,0,.48,.21,.48,.48h0c0,.27-.21,.48-.48,.48h0c-.26,0-.48-.21-.48-.48Zm-5.71,0c0-.27,.21-.48,.48-.48h0c.26,0,.48,.21,.48,.48h0c0,.27-.22,.48-.48,.48h0c-.27,0-.48-.21-.48-.48Zm-5.72,0c0-.27,.21-.48,.48-.48h0c.26,0,.48,.21,.48,.48h0c0,.27-.22,.48-.48,.48h0c-.27,0-.48-.21-.48-.48Zm-5.72,0c0-.27,.22-.48,.48-.48h0c.27,0,.48,.21,.48,.48h0c0,.27-.21,.48-.48,.48h0c-.26,0-.48-.21-.48-.48Zm-5.72,0c0-.27,.22-.48,.49-.48h0c.26,0,.48,.21,.48,.48h0c0,.27-.22,.48-.48,.48h0c-.27,0-.49-.21-.49-.48Zm-5.71,0c0-.27,.21-.48,.48-.48h0c.26,0,.48,.21,.48,.48h0c0,.27-.22,.48-.48,.48h0c-.27,0-.48-.21-.48-.48Zm-5.72,0c0-.27,.21-.48,.48-.48h0c.27,0,.48,.21,.48,.48h0c0,.27-.21,.48-.48,.48h0c-.27,0-.48-.21-.48-.48Zm-5.72,0c0-.27,.22-.48,.48-.48h0c.27,0,.48,.21,.48,.48h0c0,.27-.21,.48-.48,.48h0c-.26,0-.48-.21-.48-.48Zm-5.72,0c0-.27,.22-.48,.48-.48h0c.27,0,.49,.21,.49,.48h0c0,.27-.22,.48-.49,.48h0c-.26,0-.48-.21-.48-.48Zm-5.71,0c0-.27,.21-.48,.48-.48h0c.26,0,.48,.21,.48,.48h0c0,.27-.22,.48-.48,.48h0c-.27,0-.48-.21-.48-.48Zm-5.72,0c0-.27,.22-.48,.48-.48h0c.26,0,.48,.21,.48,.48h0c0,.27-.22,.48-.48,.48h0c-.26,0-.48-.21-.48-.48Zm-5.72,0c0-.27,.22-.48,.48-.48h0c.27,0,.48,.21,.48,.48h0c0,.27-.21,.48-.48,.48h0c-.26,0-.48-.21-.48-.48Zm-5.71,0c0-.27,.21-.48,.48-.48h0c.26,0,.48,.21,.48,.48h0c0,.27-.22,.48-.48,.48h0c-.27,0-.48-.21-.48-.48Zm-5.72,0c0-.27,.21-.48,.48-.48h0c.26,0,.48,.21,.48,.48h0c0,.27-.22,.48-.48,.48h0c-.27,0-.48-.21-.48-.48Zm-5.72,0c0-.27,.21-.48,.48-.48h0c.27,0,.48,.21,.48,.48h0c0,.27-.21,.48-.48,.48h0c-.27,0-.48-.21-.48-.48Zm-5.71,0c0-.27,.21-.48,.47-.48h0c.27,0,.48,.21,.48,.48h0c0,.27-.21,.48-.48,.48h0c-.26,0-.47-.21-.47-.48Zm-5.72,0c0-.27,.21-.48,.48-.48h0c.26,0,.48,.21,.48,.48h0c0,.27-.22,.48-.48,.48h0c-.27,0-.48-.21-.48-.48Zm-5.72,0c0-.27,.21-.48,.48-.48h0c.26,0,.48,.21,.48,.48h0c0,.27-.22,.48-.48,.48h0c-.27,0-.48-.21-.48-.48Zm-5.72,0c0-.27,.22-.48,.48-.48h0c.27,0,.48,.21,.48,.48h0c0,.27-.21,.48-.48,.48h0c-.26,0-.48-.21-.48-.48Zm-5.72,0c0-.27,.22-.48,.48-.48h0c.27,0,.49,.21,.49,.48h0c0,.27-.22,.48-.49,.48h0c-.26,0-.48-.21-.48-.48Z" style="fill:#e0e0e0;"/><path d="M280.52,273.16c-.07,0-.12,0-.18-.04-.06-.02-.11-.06-.16-.11-.04-.04-.08-.1-.1-.15-.03-.06-.04-.12-.04-.18s.01-.12,.04-.18c.02-.06,.06-.11,.1-.15,.05-.05,.1-.09,.16-.1,.11-.05,.25-.05,.36,0,.06,.02,.11,.06,.15,.1,.04,.04,.08,.1,.1,.15,.02,.06,.04,.12,.04,.18s-.02,.12-.04,.18c-.03,.06-.07,.11-.1,.15-.04,.05-.1,.09-.15,.11-.06,.03-.12,.04-.18,.04Z" style="fill:#e0e0e0;"/><path d="M280.04,266.57c0-.27,.21-.48,.48-.48h0c.26,0,.48,.21,.48,.48h0c0,.27-.22,.48-.48,.48h0c-.27,0-.48-.21-.48-.48Zm0-6.11c0-.27,.21-.48,.48-.48h0c.26,0,.48,.21,.48,.48h0c0,.27-.22,.48-.48,.48h0c-.27,0-.48-.21-.48-.48Zm0-6.11c0-.27,.21-.48,.48-.48h0c.26,0,.48,.21,.48,.48h0c0,.27-.22,.48-.48,.48h0c-.27,0-.48-.21-.48-.48Zm0-6.11c0-.27,.21-.48,.48-.48h0c.26,0,.48,.21,.48,.48h0c0,.27-.22,.48-.48,.48h0c-.27,0-.48-.21-.48-.48Z" style="fill:#e0e0e0;"/><path d="M280.52,242.61c-.07,0-.12,0-.18-.04-.06-.02-.11-.06-.16-.11-.04-.04-.08-.1-.1-.15-.03-.06-.04-.11-.04-.18,0-.12,.05-.25,.13-.33,.05-.05,.1-.09,.16-.1,.11-.05,.25-.05,.36,0,.06,.02,.11,.06,.15,.1,.09,.09,.14,.21,.14,.33,0,.06,0,.12-.04,.18-.03,.06-.06,.11-.1,.15-.04,.05-.1,.09-.15,.11-.06,.03-.12,.04-.18,.04Z" style="fill:#e0e0e0;"/></g><g><path d="M280.52,129.12c-.07,0-.12,0-.18-.04-.06-.02-.11-.06-.16-.1-.04-.04-.08-.1-.1-.15-.03-.06-.04-.11-.04-.18,0-.06,.01-.12,.04-.18,.02-.06,.06-.11,.1-.15,.05-.05,.1-.09,.16-.11,.11-.05,.25-.05,.36,0,.06,.02,.11,.06,.15,.11,.04,.04,.08,.1,.1,.15,.02,.06,.04,.12,.04,.18,0,.12-.06,.25-.14,.33-.04,.05-.1,.09-.15,.1-.06,.03-.12,.04-.18,.04Z" style="fill:#e0e0e0;"/><path d="M280.04,152.75c0-.27,.21-.49,.48-.49h0c.26,0,.48,.22,.48,.49h0c0,.26-.22,.48-.48,.48h0c-.27,0-.48-.22-.48-.48Zm0-6.02c0-.27,.21-.48,.48-.48h0c.26,0,.48,.21,.48,.48h0c0,.26-.22,.48-.48,.48h0c-.27,0-.48-.22-.48-.48Zm0-6.03c0-.26,.21-.48,.48-.48h0c.26,0,.48,.22,.48,.48h0c0,.27-.22,.48-.48,.48h0c-.27,0-.48-.21-.48-.48Zm0-6.02c0-.26,.21-.48,.48-.48h0c.26,0,.48,.22,.48,.48h0c0,.27-.22,.48-.48,.48h0c-.27,0-.48-.21-.48-.48Z" style="fill:#e0e0e0;"/><path d="M280.52,159.25c-.07,0-.12-.02-.18-.04-.06-.03-.11-.06-.16-.1-.04-.05-.08-.1-.1-.15-.03-.06-.04-.12-.04-.18,0-.13,.05-.25,.13-.34,.05-.04,.1-.08,.16-.1,.11-.05,.25-.05,.36,0,.06,.02,.11,.06,.15,.1,.09,.1,.14,.22,.14,.34,0,.06,0,.12-.04,.18-.03,.06-.06,.11-.1,.15-.04,.04-.1,.08-.15,.1-.06,.02-.12,.04-.18,.04Z" style="fill:#e0e0e0;"/></g></g></g><ellipse id="k" cx="300.95" cy="327.15" rx="251.29" ry="10.81" style="fill:#f5f5f5;"/><g><g><path d="M161.1,230.49c-.07,0-.12-.02-.18-.04-.06-.03-.11-.07-.16-.11-.04-.05-.08-.1-.1-.15-.03-.07-.04-.12-.04-.18,0-.13,.05-.26,.13-.34,.13-.13,.34-.17,.53-.11,.06,.03,.11,.06,.15,.11,.05,.05,.09,.1,.11,.15,.03,.06,.04,.12,.04,.19,0,.06,0,.11-.04,.18-.02,.06-.06,.1-.11,.15-.04,.04-.1,.08-.15,.11-.06,.02-.12,.04-.18,.04Z" style="fill:#407bff;"/><path d="M160.62,226.51c0-.26,.21-.48,.48-.48h0c.27,0,.48,.22,.48,.48h0c0,.27-.21,.48-.48,.48h0c-.27,0-.48-.21-.48-.48Z" style="fill:#407bff;"/><path d="M161.1,223.49c-.12,0-.25-.05-.34-.14-.04-.04-.08-.1-.1-.15-.03-.06-.04-.11-.04-.18,0-.12,.05-.25,.13-.33,.13-.13,.34-.18,.53-.1,.06,.03,.11,.06,.15,.1,.05,.04,.09,.1,.11,.15,.03,.06,.04,.12,.04,.18,0,.07,0,.12-.04,.18-.02,.06-.06,.11-.11,.15-.04,.05-.1,.09-.15,.11-.06,.03-.12,.04-.18,.04Z" style="fill:#407bff;"/><path d="M248.74,223.01c0-.26,.21-.48,.47-.48h0c.27,0,.48,.22,.48,.48h0c0,.27-.21,.48-.48,.48h0c-.26,0-.47-.21-.47-.48Zm-3.84,0c0-.26,.22-.48,.48-.48h0c.27,0,.48,.22,.48,.48h0c0,.27-.21,.48-.48,.48h0c-.26,0-.48-.21-.48-.48Zm-3.83,0c0-.26,.21-.48,.48-.48h0c.26,0,.48,.22,.48,.48h0c0,.27-.22,.48-.48,.48h0c-.27,0-.48-.21-.48-.48Zm-3.83,0c0-.26,.21-.48,.48-.48h0c.26,0,.47,.22,.47,.48h0c0,.27-.21,.48-.47,.48h0c-.27,0-.48-.21-.48-.48Zm-3.84,0c0-.26,.22-.48,.48-.48h0c.27,0,.48,.22,.48,.48h0c0,.27-.21,.48-.48,.48h0c-.26,0-.48-.21-.48-.48Zm-3.83,0c0-.26,.21-.48,.48-.48h0c.26,0,.48,.22,.48,.48h0c0,.27-.22,.48-.48,.48h0c-.27,0-.48-.21-.48-.48Zm-3.83,0c0-.26,.21-.48,.48-.48h0c.26,0,.48,.22,.48,.48h0c0,.27-.22,.48-.48,.48h0c-.27,0-.48-.21-.48-.48Zm55.33,0c0-.26,.21-.48,.47-.48h0c.27,0,.48,.22,.48,.48h0c0,.27-.21,.48-.48,.48h0c-.26,0-.47-.21-.47-.48Zm-3.84,0c0-.26,.22-.48,.48-.48h0c.27,0,.48,.22,.48,.48h0c0,.27-.21,.48-.48,.48h0c-.26,0-.48-.21-.48-.48Zm-3.83,0c0-.26,.21-.48,.48-.48h0c.26,0,.48,.22,.48,.48h0c0,.27-.22,.48-.48,.48h0c-.27,0-.48-.21-.48-.48Zm-3.83,0c0-.26,.21-.48,.48-.48h0c.26,0,.47,.22,.47,.48h0c0,.27-.21,.48-.47,.48h0c-.27,0-.48-.21-.48-.48Zm-3.84,0c0-.26,.22-.48,.48-.48h0c.27,0,.48,.22,.48,.48h0c0,.27-.21,.48-.48,.48h0c-.26,0-.48-.21-.48-.48Zm-3.83,0c0-.26,.21-.48,.48-.48h0c.26,0,.48,.22,.48,.48h0c0,.27-.22,.48-.48,.48h0c-.27,0-.48-.21-.48-.48Zm-3.83,0c0-.26,.21-.48,.48-.48h0c.26,0,.48,.22,.48,.48h0c0,.27-.22,.48-.48,.48h0c-.27,0-.48-.21-.48-.48Zm41.58,0c0-.26,.21-.48,.48-.48h0c.26,0,.48,.22,.48,.48h0c0,.27-.22,.48-.48,.48h0c-.27,0-.48-.21-.48-.48Zm-3.83,0c0-.26,.21-.48,.48-.48h0c.26,0,.47,.22,.47,.48h0c0,.27-.21,.48-.47,.48h0c-.27,0-.48-.21-.48-.48Zm-3.84,0c0-.26,.22-.48,.48-.48h0c.27,0,.48,.22,.48,.48h0c0,.27-.21,.48-.48,.48h0c-.26,0-.48-.21-.48-.48Zm-3.83,0c0-.26,.21-.48,.48-.48h0c.26,0,.48,.22,.48,.48h0c0,.27-.22,.48-.48,.48h0c-.27,0-.48-.21-.48-.48Zm-3.83,0c0-.26,.21-.48,.48-.48h0c.26,0,.48,.22,.48,.48h0c0,.27-.22,.48-.48,.48h0c-.27,0-.48-.21-.48-.48Zm30.54,0c0-.26,.21-.48,.47-.48h0c.27,0,.48,.22,.48,.48h0c0,.27-.21,.48-.48,.48h0c-.26,0-.47-.21-.47-.48Zm-3.84,0c0-.26,.22-.48,.48-.48h0c.27,0,.48,.22,.48,.48h0c0,.27-.21,.48-.48,.48h0c-.26,0-.48-.21-.48-.48Zm-3.83,0c0-.26,.21-.48,.48-.48h0c.26,0,.48,.22,.48,.48h0c0,.27-.22,.48-.48,.48h0c-.27,0-.48-.21-.48-.48Zm-3.83,0c0-.26,.21-.48,.48-.48h0c.26,0,.47,.22,.47,.48h0c0,.27-.21,.48-.47,.48h0c-.27,0-.48-.21-.48-.48Zm30.09,0c0-.26,.21-.48,.48-.48h0c.26,0,.48,.22,.48,.48h0c0,.27-.22,.48-.48,.48h0c-.27,0-.48-.21-.48-.48Zm-3.83,0c0-.26,.21-.48,.48-.48h0c.26,0,.47,.22,.47,.48h0c0,.27-.21,.48-.47,.48h0c-.27,0-.48-.21-.48-.48Zm-3.84,0c0-.26,.22-.48,.48-.48h0c.27,0,.48,.22,.48,.48h0c0,.27-.21,.48-.48,.48h0c-.26,0-.48-.21-.48-.48Zm-3.83,0c0-.26,.21-.48,.48-.48h0c.26,0,.48,.22,.48,.48h0c0,.27-.22,.48-.48,.48h0c-.27,0-.48-.21-.48-.48Zm-3.83,0c0-.26,.21-.48,.48-.48h0c.26,0,.48,.22,.48,.48h0c0,.27-.22,.48-.48,.48h0c-.27,0-.48-.21-.48-.48Zm-96.27,0c0-.26,.22-.48,.48-.48h0c.27,0,.48,.22,.48,.48h0c0,.27-.21,.48-.48,.48h0c-.26,0-.48-.21-.48-.48Zm-3.83,0c0-.26,.21-.48,.48-.48h0c.26,0,.48,.22,.48,.48h0c0,.27-.22,.48-.48,.48h0c-.27,0-.48-.21-.48-.48Zm-3.83,0c0-.26,.21-.48,.48-.48h0c.26,0,.48,.22,.48,.48h0c0,.27-.22,.48-.48,.48h0c-.27,0-.48-.21-.48-.48Zm-3.84,0c0-.26,.22-.48,.48-.48h0c.27,0,.48,.22,.48,.48h0c0,.27-.21,.48-.48,.48h0c-.26,0-.48-.21-.48-.48Zm-3.83,0c0-.26,.21-.48,.48-.48h0c.26,0,.48,.22,.48,.48h0c0,.27-.22,.48-.48,.48h0c-.27,0-.48-.21-.48-.48Zm-3.84,0c0-.26,.22-.48,.49-.48h0c.26,0,.48,.22,.48,.48h0c0,.27-.22,.48-.48,.48h0c-.27,0-.49-.21-.49-.48Zm-3.83,0c0-.26,.22-.48,.48-.48h0c.27,0,.48,.22,.48,.48h0c0,.27-.21,.48-.48,.48h0c-.26,0-.48-.21-.48-.48Zm-3.83,0c0-.26,.21-.48,.48-.48h0c.27,0,.48,.22,.48,.48h0c0,.27-.21,.48-.48,.48h0c-.27,0-.48-.21-.48-.48Zm-3.84,0c0-.26,.22-.48,.48-.48h0c.27,0,.49,.22,.49,.48h0c0,.27-.22,.48-.49,.48h0c-.26,0-.48-.21-.48-.48Zm-3.83,0c0-.26,.21-.48,.48-.48h0c.27,0,.48,.22,.48,.48h0c0,.27-.21,.48-.48,.48h0c-.27,0-.48-.21-.48-.48Zm-3.83,0c0-.26,.21-.48,.48-.48h0c.26,0,.48,.22,.48,.48h0c0,.27-.22,.48-.48,.48h0c-.27,0-.48-.21-.48-.48Zm-3.84,0c0-.26,.22-.48,.48-.48h0c.27,0,.48,.22,.48,.48h0c0,.27-.21,.48-.48,.48h0c-.26,0-.48-.21-.48-.48Zm-3.83,0c0-.26,.22-.48,.48-.48h0c.27,0,.48,.22,.48,.48h0c0,.27-.21,.48-.48,.48h0c-.26,0-.48-.21-.48-.48Zm-3.83,0c0-.26,.21-.48,.48-.48h0c.26,0,.48,.22,.48,.48h0c0,.27-.22,.48-.48,.48h0c-.27,0-.48-.21-.48-.48Zm-3.83,0c0-.26,.21-.48,.47-.48h0c.27,0,.48,.22,.48,.48h0c0,.27-.21,.48-.48,.48h0c-.26,0-.47-.21-.47-.48Zm-3.84,0c0-.26,.22-.48,.48-.48h0c.27,0,.48,.22,.48,.48h0c0,.27-.21,.48-.48,.48h0c-.26,0-.48-.21-.48-.48Z" style="fill:#407bff;"/><path d="M253.05,223.49c-.07,0-.12,0-.18-.04-.06-.02-.11-.06-.15-.1-.05-.05-.09-.1-.1-.16-.03-.06-.04-.11-.04-.18,0-.06,0-.12,.04-.18,.02-.06,.06-.11,.1-.15,.04-.05,.1-.08,.15-.1,.11-.05,.25-.05,.36,0,.06,.03,.11,.06,.15,.1,.1,.09,.14,.21,.14,.33,0,.07-.01,.12-.04,.18-.02,.06-.06,.11-.11,.16-.04,.04-.1,.08-.15,.1-.06,.03-.11,.04-.18,.04Z" style="fill:#407bff;"/></g><g><path d="M300.77,223.49c-.07,0-.12,0-.18-.04-.06-.02-.11-.06-.15-.1-.05-.05-.09-.1-.1-.16-.03-.06-.04-.11-.04-.18,0-.06,0-.12,.04-.18,.02-.06,.06-.11,.1-.15,.04-.05,.1-.08,.15-.1,.11-.05,.25-.05,.36,0,.06,.03,.11,.06,.15,.1,.1,.09,.14,.21,.14,.33,0,.07-.01,.12-.04,.18-.02,.06-.06,.11-.11,.16-.04,.04-.1,.08-.15,.1-.06,.03-.11,.04-.18,.04Z" style="fill:#407bff;"/><path d="M300.3,219.7c0-.27,.22-.48,.48-.48h0c.27,0,.48,.21,.48,.48h0c0,.27-.21,.48-.48,.48h0c-.26,0-.48-.21-.48-.48Zm0-3.31c0-.27,.22-.48,.48-.48h0c.27,0,.48,.21,.48,.48h0c0,.27-.21,.48-.48,.48h0c-.26,0-.48-.21-.48-.48Zm0-3.31c0-.27,.22-.48,.48-.48h0c.27,0,.48,.21,.48,.48h0c0,.27-.21,.48-.48,.48h0c-.26,0-.48-.21-.48-.48Z" style="fill:#407bff;"/><path d="M300.77,210.24c-.12,0-.25-.05-.33-.14-.05-.04-.09-.1-.1-.15-.03-.06-.04-.12-.04-.18,0-.07,0-.12,.04-.18,.02-.07,.06-.11,.1-.16,.04-.04,.1-.08,.15-.1,.11-.05,.25-.06,.36,0,.06,.02,.11,.06,.15,.1,.05,.05,.09,.1,.11,.16,.03,.06,.04,.11,.04,.18,0,.06-.01,.12-.04,.18-.02,.06-.06,.11-.11,.15-.09,.1-.21,.14-.33,.14Z" style="fill:#407bff;"/></g><g><path d="M430.42,230.49c-.12,0-.25-.06-.33-.14-.09-.1-.14-.22-.14-.34s.06-.25,.14-.33c.17-.17,.5-.18,.67,0,.05,.05,.09,.1,.1,.15,.03,.06,.04,.12,.04,.18,0,.12-.05,.25-.14,.34-.09,.09-.21,.14-.33,.14Z" style="fill:#407bff;"/><path d="M429.95,226.51c0-.26,.22-.48,.48-.48h0c.27,0,.48,.22,.48,.48h0c0,.27-.21,.48-.48,.48h0c-.26,0-.48-.21-.48-.48Z" style="fill:#407bff;"/><path d="M430.42,223.49c-.12,0-.25-.05-.33-.13-.09-.1-.14-.22-.14-.34s.06-.25,.14-.33c.17-.18,.49-.18,.67,0,.1,.09,.14,.21,.14,.33s-.05,.25-.14,.34c-.09,.09-.21,.13-.33,.13Z" style="fill:#407bff;"/><path d="M426.12,223.01c0-.27,.21-.48,.48-.48h0c.26,0,.48,.21,.48,.48h0c0,.27-.22,.48-.48,.48h0c-.27,0-.48-.21-.48-.48Zm-3.84,0c0-.27,.22-.48,.49-.48h0c.26,0,.48,.21,.48,.48h0c0,.27-.22,.48-.48,.48h0c-.27,0-.49-.21-.49-.48Zm-3.83,0c0-.27,.22-.48,.48-.48h0c.27,0,.48,.21,.48,.48h0c0,.27-.21,.48-.48,.48h0c-.26,0-.48-.21-.48-.48Zm-3.83,0c0-.27,.21-.48,.48-.48h0c.26,0,.48,.21,.48,.48h0c0,.27-.22,.48-.48,.48h0c-.27,0-.48-.21-.48-.48Zm-3.84,0c0-.27,.22-.48,.48-.48h0c.27,0,.49,.21,.49,.48h0c0,.27-.22,.48-.49,.48h0c-.26,0-.48-.21-.48-.48Zm-3.83,0c0-.27,.22-.48,.48-.48h0c.27,0,.48,.21,.48,.48h0c0,.27-.21,.48-.48,.48h0c-.26,0-.48-.21-.48-.48Zm-3.83,0c0-.27,.21-.48,.48-.48h0c.26,0,.48,.21,.48,.48h0c0,.27-.22,.48-.48,.48h0c-.27,0-.48-.21-.48-.48Zm-3.84,0c0-.27,.22-.48,.48-.48h0c.27,0,.49,.21,.49,.48h0c0,.27-.22,.48-.49,.48h0c-.26,0-.48-.21-.48-.48Zm-3.83,0c0-.27,.22-.48,.48-.48h0c.27,0,.48,.21,.48,.48h0c0,.27-.21,.48-.48,.48h0c-.26,0-.48-.21-.48-.48Zm-3.83,0c0-.27,.21-.48,.48-.48h0c.26,0,.48,.21,.48,.48h0c0,.27-.22,.48-.48,.48h0c-.27,0-.48-.21-.48-.48Zm-3.84,0c0-.27,.22-.48,.48-.48h0c.27,0,.48,.21,.48,.48h0c0,.27-.21,.48-.48,.48h0c-.26,0-.48-.21-.48-.48Zm-3.83,0c0-.27,.22-.48,.48-.48h0c.27,0,.48,.21,.48,.48h0c0,.27-.21,.48-.48,.48h0c-.26,0-.48-.21-.48-.48Zm-3.83,0c0-.27,.21-.48,.48-.48h0c.26,0,.48,.21,.48,.48h0c0,.27-.22,.48-.48,.48h0c-.27,0-.48-.21-.48-.48Zm-3.84,0c0-.27,.22-.48,.48-.48h0c.27,0,.48,.21,.48,.48h0c0,.27-.21,.48-.48,.48h0c-.26,0-.48-.21-.48-.48Zm-3.83,0c0-.27,.22-.48,.48-.48h0c.27,0,.48,.21,.48,.48h0c0,.27-.21,.48-.48,.48h0c-.26,0-.48-.21-.48-.48Zm-3.83,0c0-.27,.21-.48,.48-.48h0c.26,0,.48,.21,.48,.48h0c0,.27-.22,.48-.48,.48h0c-.27,0-.48-.21-.48-.48Zm-3.84,0c0-.27,.22-.48,.48-.48h0c.27,0,.49,.21,.49,.48h0c0,.27-.22,.48-.49,.48h0c-.26,0-.48-.21-.48-.48Zm-3.83,0c0-.27,.22-.48,.48-.48h0c.27,0,.48,.21,.48,.48h0c0,.27-.21,.48-.48,.48h0c-.26,0-.48-.21-.48-.48Zm-3.83,0c0-.27,.21-.48,.48-.48h0c.26,0,.48,.21,.48,.48h0c0,.27-.22,.48-.48,.48h0c-.27,0-.48-.21-.48-.48Zm-3.84,0c0-.27,.22-.48,.48-.48h0c.27,0,.49,.21,.49,.48h0c0,.27-.22,.48-.49,.48h0c-.26,0-.48-.21-.48-.48Zm-3.83,0c0-.27,.21-.48,.48-.48h0c.27,0,.48,.21,.48,.48h0c0,.27-.21,.48-.48,.48h0c-.27,0-.48-.21-.48-.48Zm-3.83,0c0-.27,.21-.48,.48-.48h0c.26,0,.48,.21,.48,.48h0c0,.27-.22,.48-.48,.48h0c-.27,0-.48-.21-.48-.48Zm-3.84,0c0-.27,.22-.48,.48-.48h0c.27,0,.49,.21,.49,.48h0c0,.27-.22,.48-.49,.48h0c-.26,0-.48-.21-.48-.48Z" style="fill:#407bff;"/><path d="M338.48,223.49c-.07,0-.12,0-.18-.04-.06-.02-.11-.06-.15-.1-.05-.05-.09-.1-.1-.16-.03-.06-.04-.11-.04-.18,0-.06,0-.12,.04-.18,.02-.06,.06-.11,.1-.15,.04-.05,.1-.08,.15-.1,.11-.05,.25-.05,.36,0,.06,.03,.11,.06,.15,.1,.1,.09,.14,.21,.14,.33,0,.07-.01,.12-.04,.18-.02,.06-.06,.11-.11,.16-.04,.04-.1,.08-.15,.1-.06,.03-.11,.04-.18,.04Z" style="fill:#407bff;"/></g></g><g><g><g><path d="M446.4,122.34c-.26-31.37-25.76-56.72-57.19-56.72h-23.62c-11.94-20.71-34.3-34.65-59.92-34.65h-45.98v17.53c-10.62,9.48-18.3,22.18-21.49,36.58-31.05,2-55.62,27.8-55.62,59.35s26.64,59.49,59.49,59.49h189.31c23.29,0,42.17-18.88,42.17-42.17,0-18-11.28-33.36-27.16-39.41Z" style="fill:#407bff;"/><path d="M446.4,122.34c-.26-31.37-25.76-56.72-57.19-56.72h-23.62c-11.94-20.71-34.3-34.65-59.92-34.65h-45.98v17.53c-10.62,9.48-18.3,22.18-21.49,36.58-31.05,2-55.62,27.8-55.62,59.35s26.64,59.49,59.49,59.49h189.31c23.29,0,42.17-18.88,42.17-42.17,0-18-11.28-33.36-27.16-39.41Z" style="fill:#fff; opacity:.7;"/></g><path d="M400.42,122.34c-.26-31.37-25.76-56.72-57.19-56.72-7.57,0-14.8,1.48-21.41,4.16-11.23-22.98-34.83-38.81-62.13-38.81-33.02,0-60.61,23.15-67.47,54.1-31.05,2-55.62,27.8-55.62,59.35s26.64,59.49,59.49,59.49h189.31c23.29,0,42.17-18.88,42.17-42.17,0-18-11.28-33.36-27.16-39.41Z" style="fill:#407bff;"/><g style="clip-path:url(#l);"><path d="M446.4,122.34c-.26-31.37-25.76-56.72-57.19-56.72-7.57,0-14.8,1.48-21.41,4.16-11.23-22.98-34.83-38.81-62.13-38.81-33.02,0-60.61,23.15-67.47,54.1-31.05,2-55.62,27.8-55.62,59.35s26.64,59.49,59.49,59.49h189.31c23.29,0,42.17-18.88,42.17-42.17,0-18-11.28-33.36-27.16-39.41Z" style="opacity:.1;"/></g><g><path d="M385.4,204.85H196.09c-33.32,0-60.42-27.1-60.42-60.42,0-31.53,24.45-57.85,55.8-60.23,3.5-15.05,12.03-28.7,24.09-38.5,12.42-10.09,28.09-15.65,44.13-15.65,26.69,0,50.59,14.75,62.58,38.56,6.7-2.59,13.75-3.91,20.96-3.91,31.57,0,57.51,25.51,58.11,57.01,16.27,6.48,27.16,22.5,27.16,40.05,0,23.77-19.33,43.1-43.1,43.1ZM259.69,31.9c-31.71,0-59.71,22.45-66.56,53.38-.09,.4-.43,.7-.85,.72-30.7,1.97-54.75,27.64-54.75,58.43,0,32.29,26.27,58.57,58.57,58.57h189.31c22.74,0,41.25-18.5,41.25-41.25,0-17-10.67-32.49-26.56-38.54-.36-.14-.59-.48-.6-.86-.26-30.77-25.5-55.8-56.26-55.8-7.26,0-14.35,1.38-21.06,4.09-.45,.18-.97-.01-1.18-.45-11.55-23.62-35.03-38.29-61.3-38.29Z" style="fill:#407bff;"/><path d="M385.4,204.85H196.09c-33.32,0-60.42-27.1-60.42-60.42,0-31.53,24.45-57.85,55.8-60.23,3.5-15.05,12.03-28.7,24.09-38.5,12.42-10.09,28.09-15.65,44.13-15.65,26.69,0,50.59,14.75,62.58,38.56,6.7-2.59,13.75-3.91,20.96-3.91,31.57,0,57.51,25.51,58.11,57.01,16.27,6.48,27.16,22.5,27.16,40.05,0,23.77-19.33,43.1-43.1,43.1ZM259.69,31.9c-31.71,0-59.71,22.45-66.56,53.38-.09,.4-.43,.7-.85,.72-30.7,1.97-54.75,27.64-54.75,58.43,0,32.29,26.27,58.57,58.57,58.57h189.31c22.74,0,41.25-18.5,41.25-41.25,0-17-10.67-32.49-26.56-38.54-.36-.14-.59-.48-.6-.86-.26-30.77-25.5-55.8-56.26-55.8-7.26,0-14.35,1.38-21.06,4.09-.45,.18-.97-.01-1.18-.45-11.55-23.62-35.03-38.29-61.3-38.29Z" style="fill:#fff; opacity:.7;"/></g></g><g><path d="M239.8,119.56h15.2v83.44h-15.2c-2.34,0-4.24-1.9-4.24-4.24V123.8c0-2.34,1.9-4.24,4.24-4.24Z" transform="translate(490.55 322.56) rotate(180)" style="fill:#e0e0e0;"/><rect x="200.1" y="119.56" width="41.21" height="83.44" rx="4.24" ry="4.24" style="fill:#fff;"/><rect x="200.1" y="185.69" width="41.21" height=".77" style="fill:#e0e0e0;"/><rect x="200.1" y="169.16" width="41.21" height=".77" style="fill:#e0e0e0;"/><rect x="200.1" y="152.63" width="41.21" height=".77" style="fill:#e0e0e0;"/><rect x="200.1" y="136.09" width="41.21" height=".77" style="fill:#e0e0e0;"/><g><path d="M220.65,130.73h-13.79c-.87,0-1.57,.71-1.57,1.57h0c0,.87,.7,1.57,1.57,1.57h13.79c.87,0,1.57-.71,1.57-1.57h0c0-.87-.71-1.57-1.57-1.57Z" style="fill:#407bff; opacity:.6;"/><path d="M220.65,126.64h-13.79c-.87,0-1.57,.71-1.57,1.57h0c0,.87,.7,1.57,1.57,1.57h13.79c.87,0,1.57-.71,1.57-1.57h0c0-.87-.71-1.57-1.57-1.57Z" style="fill:#407bff; opacity:.6;"/><path d="M220.65,122.55h-13.79c-.87,0-1.57,.71-1.57,1.57h0c0,.87,.7,1.57,1.57,1.57h13.79c.87,0,1.57-.71,1.57-1.57h0c0-.87-.71-1.57-1.57-1.57Z" style="fill:#407bff; opacity:.6;"/><rect x="223.67" y="130.73" width="5.76" height="3.15" transform="translate(453.09 264.61) rotate(180)" style="fill:#ebebeb;"/><rect x="223.67" y="126.64" width="5.76" height="3.15" transform="translate(453.09 256.43) rotate(180)" style="fill:#407bff;"/><rect x="223.67" y="122.55" width="5.76" height="3.15" transform="translate(453.09 248.25) rotate(180)" style="fill:#ebebeb;"/><rect x="230.37" y="130.73" width="5.76" height="3.15" transform="translate(466.49 264.61) rotate(180)" style="fill:#ebebeb;"/><rect x="230.37" y="126.64" width="5.76" height="3.15" transform="translate(466.49 256.43) rotate(180)" style="fill:#ebebeb;"/><rect x="230.37" y="122.55" width="5.76" height="3.15" transform="translate(466.49 248.25) rotate(180)" style="fill:#407bff;"/></g><g><path d="M220.65,147.26h-13.79c-.87,0-1.57,.71-1.57,1.57h0c0,.87,.7,1.57,1.57,1.57h13.79c.87,0,1.57-.71,1.57-1.57h0c0-.87-.71-1.57-1.57-1.57Z" style="fill:#ebebeb;"/><path d="M220.65,143.17h-13.79c-.87,0-1.57,.71-1.57,1.57h0c0,.87,.7,1.57,1.57,1.57h13.79c.87,0,1.57-.71,1.57-1.57h0c0-.87-.71-1.57-1.57-1.57Z" style="fill:#407bff; opacity:.6;"/><path d="M220.65,139.08h-13.79c-.87,0-1.57,.71-1.57,1.57h0c0,.87,.7,1.57,1.57,1.57h13.79c.87,0,1.57-.71,1.57-1.57h0c0-.87-.71-1.57-1.57-1.57Z" style="fill:#407bff; opacity:.6;"/><rect x="223.67" y="147.26" width="5.76" height="3.15" transform="translate(453.09 297.68) rotate(180)" style="fill:#ebebeb;"/><rect x="223.67" y="143.17" width="5.76" height="3.15" transform="translate(453.09 289.5) rotate(180)" style="fill:#ebebeb;"/><rect x="223.67" y="139.08" width="5.76" height="3.15" transform="translate(453.09 281.31) rotate(180)" style="fill:#407bff;"/><rect x="230.37" y="147.26" width="5.76" height="3.15" transform="translate(466.49 297.68) rotate(180)" style="fill:#ebebeb;"/><rect x="230.37" y="143.17" width="5.76" height="3.15" transform="translate(466.49 289.5) rotate(180)" style="fill:#ebebeb;"/><rect x="230.37" y="139.08" width="5.76" height="3.15" transform="translate(466.49 281.31) rotate(180)" style="fill:#ebebeb;"/></g><g><path d="M220.65,163.8h-13.79c-.87,0-1.57,.71-1.57,1.57h0c0,.87,.7,1.57,1.57,1.57h13.79c.87,0,1.57-.71,1.57-1.57h0c0-.87-.71-1.57-1.57-1.57Z" style="fill:#407bff; opacity:.6;"/><path d="M220.65,159.71h-13.79c-.87,0-1.57,.71-1.57,1.57h0c0,.87,.7,1.57,1.57,1.57h13.79c.87,0,1.57-.71,1.57-1.57h0c0-.87-.71-1.57-1.57-1.57Z" style="fill:#407bff; opacity:.6;"/><path d="M220.65,155.62h-13.79c-.87,0-1.57,.71-1.57,1.57h0c0,.87,.7,1.57,1.57,1.57h13.79c.87,0,1.57-.71,1.57-1.57h0c0-.87-.71-1.57-1.57-1.57Z" style="fill:#407bff; opacity:.6;"/><rect x="223.67" y="163.8" width="5.76" height="3.15" transform="translate(453.09 330.74) rotate(180)" style="fill:#ebebeb;"/><rect x="223.67" y="159.71" width="5.76" height="3.15" transform="translate(453.09 322.56) rotate(180)" style="fill:#407bff;"/><rect x="223.67" y="155.62" width="5.76" height="3.15" transform="translate(453.09 314.38) rotate(180)" style="fill:#ebebeb;"/><rect x="230.37" y="163.8" width="5.76" height="3.15" transform="translate(466.49 330.74) rotate(180)" style="fill:#ebebeb;"/><rect x="230.37" y="159.71" width="5.76" height="3.15" transform="translate(466.49 322.56) rotate(180)" style="fill:#ebebeb;"/><rect x="230.37" y="155.62" width="5.76" height="3.15" transform="translate(466.49 314.38) rotate(180)" style="fill:#407bff;"/></g><g><path d="M220.65,180.33h-13.79c-.87,0-1.57,.71-1.57,1.57h0c0,.87,.7,1.57,1.57,1.57h13.79c.87,0,1.57-.71,1.57-1.57h0c0-.87-.71-1.57-1.57-1.57Z" style="fill:#407bff; opacity:.6;"/><rect x="205.29" y="176.24" width="16.94" height="3.15" rx="1.57" ry="1.57" style="fill:#407bff; opacity:.6;"/><path d="M220.65,172.15h-13.79c-.87,0-1.57,.71-1.57,1.57h0c0,.87,.7,1.57,1.57,1.57h13.79c.87,0,1.57-.71,1.57-1.57h0c0-.87-.71-1.57-1.57-1.57Z" style="fill:#407bff; opacity:.6;"/><rect x="223.67" y="180.33" width="5.76" height="3.15" transform="translate(453.09 363.81) rotate(180)" style="fill:#ebebeb;"/><rect x="223.67" y="176.24" width="5.76" height="3.15" transform="translate(453.09 355.63) rotate(180)" style="fill:#407bff;"/><rect x="223.67" y="172.15" width="5.76" height="3.15" transform="translate(453.09 347.45) rotate(180)" style="fill:#ebebeb;"/><rect x="230.37" y="180.33" width="5.76" height="3.15" transform="translate(466.49 363.81) rotate(180)" style="fill:#407bff;"/><rect x="230.37" y="176.24" width="5.76" height="3.15" transform="translate(466.49 355.63) rotate(180)" style="fill:#ebebeb;"/><rect x="230.37" y="172.15" width="5.76" height="3.15" transform="translate(466.49 347.45) rotate(180)" style="fill:#407bff;"/></g><g><path d="M220.65,196.86h-13.79c-.87,0-1.57,.71-1.57,1.57h0c0,.87,.7,1.57,1.57,1.57h13.79c.87,0,1.57-.71,1.57-1.57h0c0-.87-.71-1.57-1.57-1.57Z" style="fill:#407bff; opacity:.6;"/><path d="M220.65,192.77h-13.79c-.87,0-1.57,.71-1.57,1.57h0c0,.87,.7,1.57,1.57,1.57h13.79c.87,0,1.57-.71,1.57-1.57h0c0-.87-.71-1.57-1.57-1.57Z" style="fill:#407bff; opacity:.6;"/><path d="M220.65,188.68h-13.79c-.87,0-1.57,.71-1.57,1.57h0c0,.87,.7,1.57,1.57,1.57h13.79c.87,0,1.57-.71,1.57-1.57h0c0-.87-.71-1.57-1.57-1.57Z" style="fill:#407bff; opacity:.6;"/><rect x="223.67" y="196.86" width="5.76" height="3.15" transform="translate(453.09 396.87) rotate(180)" style="fill:#407bff;"/><rect x="223.67" y="192.77" width="5.76" height="3.15" transform="translate(453.09 388.69) rotate(180)" style="fill:#ebebeb;"/><rect x="223.67" y="188.68" width="5.76" height="3.15" transform="translate(453.09 380.51) rotate(180)" style="fill:#ebebeb;"/><rect x="230.37" y="196.86" width="5.76" height="3.15" transform="translate(466.49 396.87) rotate(180)" style="fill:#ebebeb;"/><rect x="230.37" y="192.77" width="5.76" height="3.15" transform="translate(466.49 388.69) rotate(180)" style="fill:#ebebeb;"/><rect x="230.37" y="188.68" width="5.76" height="3.15" transform="translate(466.49 380.51) rotate(180)" style="fill:#407bff;"/></g></g><g><path d="M301.19,80.16h22.38v122.83h-22.38c-3.45,0-6.25-2.8-6.25-6.25V86.41c0-3.45,2.8-6.25,6.25-6.25Z" transform="translate(618.51 283.16) rotate(180)" style="fill:#e0e0e0;"/><rect x="242.74" y="80.16" width="60.67" height="122.83" rx="6.25" ry="6.25" style="fill:#fff;"/><rect x="242.74" y="177.52" width="60.67" height="1.14" style="fill:#e0e0e0;"/><rect x="242.74" y="153.18" width="60.67" height="1.14" style="fill:#e0e0e0;"/><rect x="242.74" y="128.84" width="60.67" height="1.14" style="fill:#e0e0e0;"/><rect x="242.74" y="104.5" width="60.67" height="1.14" style="fill:#e0e0e0;"/><g><path d="M272.99,96.61h-20.3c-1.28,0-2.32,1.04-2.32,2.32h0c0,1.28,1.04,2.32,2.32,2.32h20.3c1.28,0,2.32-1.04,2.32-2.32h0c0-1.28-1.04-2.32-2.32-2.32Z" style="fill:#407bff; opacity:.6;"/><path d="M272.99,90.59h-20.3c-1.28,0-2.32,1.04-2.32,2.32h0c0,1.28,1.04,2.32,2.32,2.32h20.3c1.28,0,2.32-1.04,2.32-2.32h0c0-1.28-1.04-2.32-2.32-2.32Z" style="fill:#407bff; opacity:.6;"/><path d="M272.99,84.56h-20.3c-1.28,0-2.32,1.04-2.32,2.32h0c0,1.28,1.04,2.32,2.32,2.32h20.3c1.28,0,2.32-1.04,2.32-2.32h0c0-1.28-1.04-2.32-2.32-2.32Z" style="fill:#407bff; opacity:.6;"/><rect x="277.44" y="96.61" width="8.47" height="4.64" transform="translate(563.36 197.85) rotate(180)" style="fill:#ebebeb;"/><rect x="277.44" y="90.59" width="8.47" height="4.64" transform="translate(563.36 185.81) rotate(180)" style="fill:#407bff;"/><rect x="277.44" y="84.56" width="8.47" height="4.64" transform="translate(563.36 173.76) rotate(180)" style="fill:#ebebeb;"/><rect x="287.3" y="96.61" width="8.47" height="4.64" transform="translate(583.08 197.85) rotate(180)" style="fill:#ebebeb;"/><rect x="287.3" y="90.59" width="8.47" height="4.64" transform="translate(583.08 185.81) rotate(180)" style="fill:#ebebeb;"/><rect x="287.3" y="84.56" width="8.47" height="4.64" transform="translate(583.08 173.76) rotate(180)" style="fill:#407bff;"/></g><g><path d="M272.99,120.95h-20.3c-1.28,0-2.32,1.04-2.32,2.32h0c0,1.28,1.04,2.32,2.32,2.32h20.3c1.28,0,2.32-1.04,2.32-2.32h0c0-1.28-1.04-2.32-2.32-2.32Z" style="fill:#407bff; opacity:.6;"/><path d="M272.99,114.93h-20.3c-1.28,0-2.32,1.04-2.32,2.32h0c0,1.28,1.04,2.32,2.32,2.32h20.3c1.28,0,2.32-1.04,2.32-2.32h0c0-1.28-1.04-2.32-2.32-2.32Z" style="fill:#407bff; opacity:.6;"/><path d="M272.99,108.9h-20.3c-1.28,0-2.32,1.04-2.32,2.32h0c0,1.28,1.04,2.32,2.32,2.32h20.3c1.28,0,2.32-1.04,2.32-2.32h0c0-1.28-1.04-2.32-2.32-2.32Z" style="fill:#407bff; opacity:.6;"/><rect x="277.44" y="120.95" width="8.47" height="4.64" transform="translate(563.36 246.53) rotate(180)" style="fill:#ebebeb;"/><rect x="277.44" y="114.93" width="8.47" height="4.64" transform="translate(563.36 234.49) rotate(180)" style="fill:#ebebeb;"/><rect x="277.44" y="108.9" width="8.47" height="4.64" transform="translate(563.36 222.44) rotate(180)" style="fill:#407bff;"/><rect x="287.3" y="120.95" width="8.47" height="4.64" transform="translate(583.08 246.53) rotate(180)" style="fill:#407bff;"/><rect x="287.3" y="114.93" width="8.47" height="4.64" transform="translate(583.08 234.49) rotate(180)" style="fill:#ebebeb;"/><rect x="287.3" y="108.9" width="8.47" height="4.64" transform="translate(583.08 222.44) rotate(180)" style="fill:#407bff;"/></g><g><path d="M272.99,145.29h-20.3c-1.28,0-2.32,1.04-2.32,2.32h0c0,1.28,1.04,2.32,2.32,2.32h20.3c1.28,0,2.32-1.04,2.32-2.32h0c0-1.28-1.04-2.32-2.32-2.32Z" style="fill:#407bff; opacity:.6;"/><path d="M272.99,139.26h-20.3c-1.28,0-2.32,1.04-2.32,2.32h0c0,1.28,1.04,2.32,2.32,2.32h20.3c1.28,0,2.32-1.04,2.32-2.32h0c0-1.28-1.04-2.32-2.32-2.32Z" style="fill:#407bff; opacity:.6;"/><path d="M272.99,133.24h-20.3c-1.28,0-2.32,1.04-2.32,2.32h0c0,1.28,1.04,2.32,2.32,2.32h20.3c1.28,0,2.32-1.04,2.32-2.32h0c0-1.28-1.04-2.32-2.32-2.32Z" style="fill:#407bff; opacity:.6;"/><rect x="277.44" y="145.29" width="8.47" height="4.64" transform="translate(563.36 295.21) rotate(180)" style="fill:#407bff;"/><rect x="277.44" y="139.26" width="8.47" height="4.64" transform="translate(563.36 283.16) rotate(180)" style="fill:#ebebeb;"/><rect x="277.44" y="133.24" width="8.47" height="4.64" transform="translate(563.36 271.12) rotate(180)" style="fill:#ebebeb;"/><rect x="287.3" y="145.29" width="8.47" height="4.64" transform="translate(583.08 295.21) rotate(180)" style="fill:#ebebeb;"/><rect x="287.3" y="139.26" width="8.47" height="4.64" transform="translate(583.08 283.16) rotate(180)" style="fill:#ebebeb;"/><rect x="287.3" y="133.24" width="8.47" height="4.64" transform="translate(583.08 271.12) rotate(180)" style="fill:#407bff;"/></g><g><path d="M272.99,169.63h-20.3c-1.28,0-2.32,1.04-2.32,2.32h0c0,1.28,1.04,2.32,2.32,2.32h20.3c1.28,0,2.32-1.04,2.32-2.32h0c0-1.28-1.04-2.32-2.32-2.32Z" style="fill:#407bff; opacity:.6;"/><path d="M272.99,163.6h-20.3c-1.28,0-2.32,1.04-2.32,2.32h0c0,1.28,1.04,2.32,2.32,2.32h20.3c1.28,0,2.32-1.04,2.32-2.32h0c0-1.28-1.04-2.32-2.32-2.32Z" style="fill:#ebebeb;"/><path d="M272.99,157.58h-20.3c-1.28,0-2.32,1.04-2.32,2.32h0c0,1.28,1.04,2.32,2.32,2.32h20.3c1.28,0,2.32-1.04,2.32-2.32h0c0-1.28-1.04-2.32-2.32-2.32Z" style="fill:#407bff; opacity:.6;"/><rect x="277.44" y="169.63" width="8.47" height="4.64" transform="translate(563.36 343.89) rotate(180)" style="fill:#ebebeb;"/><rect x="277.44" y="163.6" width="8.47" height="4.64" transform="translate(563.36 331.84) rotate(180)" style="fill:#407bff;"/><rect x="277.44" y="157.58" width="8.47" height="4.64" transform="translate(563.36 319.8) rotate(180)" style="fill:#ebebeb;"/><rect x="287.3" y="169.63" width="8.47" height="4.64" transform="translate(583.08 343.89) rotate(180)" style="fill:#407bff;"/><rect x="287.3" y="163.6" width="8.47" height="4.64" transform="translate(583.08 331.84) rotate(180)" style="fill:#407bff;"/><rect x="287.3" y="157.58" width="8.47" height="4.64" transform="translate(583.08 319.8) rotate(180)" style="fill:#ebebeb;"/></g><g><path d="M272.99,193.96h-20.3c-1.28,0-2.32,1.04-2.32,2.32h0c0,1.28,1.04,2.32,2.32,2.32h20.3c1.28,0,2.32-1.04,2.32-2.32h0c0-1.28-1.04-2.32-2.32-2.32Z" style="fill:#407bff; opacity:.6;"/><path d="M272.99,187.94h-20.3c-1.28,0-2.32,1.04-2.32,2.32h0c0,1.28,1.04,2.32,2.32,2.32h20.3c1.28,0,2.32-1.04,2.32-2.32h0c0-1.28-1.04-2.32-2.32-2.32Z" style="fill:#407bff; opacity:.6;"/><path d="M272.99,181.92h-20.3c-1.28,0-2.32,1.04-2.32,2.32h0c0,1.28,1.04,2.32,2.32,2.32h20.3c1.28,0,2.32-1.04,2.32-2.32h0c0-1.28-1.04-2.32-2.32-2.32Z" style="fill:#407bff; opacity:.6;"/><rect x="277.44" y="193.96" width="8.47" height="4.64" transform="translate(563.36 392.56) rotate(180)" style="fill:#ebebeb;"/><rect x="277.44" y="187.94" width="8.47" height="4.64" transform="translate(563.36 380.52) rotate(180)" style="fill:#ebebeb;"/><rect x="277.44" y="181.92" width="8.47" height="4.64" transform="translate(563.36 368.48) rotate(180)" style="fill:#ebebeb;"/><rect x="287.3" y="193.96" width="8.47" height="4.64" transform="translate(583.08 392.56) rotate(180)" style="fill:#ebebeb;"/><rect x="287.3" y="187.94" width="8.47" height="4.64" transform="translate(583.08 380.52) rotate(180)" style="fill:#ebebeb;"/><rect x="287.3" y="181.92" width="8.47" height="4.64" transform="translate(583.08 368.48) rotate(180)" style="fill:#407bff;"/></g></g><g><path d="M356.05,96.16h19.46v106.84h-19.47c-3,0-5.43-2.43-5.43-5.43V101.6c0-3,2.43-5.43,5.43-5.43Z" transform="translate(726.13 299.16) rotate(180)" style="fill:#e0e0e0;"/><rect x="305.21" y="96.16" width="52.77" height="106.84" rx="5.43" ry="5.43" style="fill:#fff;"/><rect x="305.21" y="180.84" width="52.77" height=".99" style="fill:#e0e0e0;"/><rect x="305.21" y="159.67" width="52.77" height=".99" style="fill:#e0e0e0;"/><rect x="305.21" y="138.5" width="52.77" height=".99" style="fill:#e0e0e0;"/><rect x="305.21" y="117.33" width="52.77" height=".99" style="fill:#e0e0e0;"/><g><path d="M331.53,110.47h-17.65c-1.11,0-2.02,.9-2.02,2.02h0c0,1.11,.9,2.02,2.02,2.02h17.65c1.11,0,2.02-.9,2.02-2.02h0c0-1.11-.9-2.02-2.02-2.02Z" style="fill:#407bff; opacity:.6;"/><path d="M331.53,105.23h-17.65c-1.11,0-2.02,.9-2.02,2.02h0c0,1.11,.9,2.02,2.02,2.02h17.65c1.11,0,2.02-.9,2.02-2.02h0c0-1.11-.9-2.02-2.02-2.02Z" style="fill:#407bff; opacity:.6;"/><path d="M331.53,99.99h-17.65c-1.11,0-2.02,.9-2.02,2.02h0c0,1.11,.9,2.02,2.02,2.02h17.65c1.11,0,2.02-.9,2.02-2.02h0c0-1.11-.9-2.02-2.02-2.02Z" style="fill:#407bff; opacity:.6;"/><rect x="335.4" y="184.67" width="7.37" height="4.03" transform="translate(678.16 373.36) rotate(180)" style="fill:#ebebeb;"/><rect x="335.4" y="189.9" width="7.37" height="4.03" transform="translate(678.16 383.84) rotate(180)" style="fill:#407bff;"/><rect x="335.4" y="195.14" width="7.37" height="4.03" transform="translate(678.16 394.31) rotate(180)" style="fill:#ebebeb;"/><rect x="343.97" y="184.67" width="7.37" height="4.03" transform="translate(695.31 373.36) rotate(180)" style="fill:#ebebeb;"/><rect x="343.97" y="189.9" width="7.37" height="4.03" transform="translate(695.31 383.84) rotate(180)" style="fill:#ebebeb;"/><rect x="343.97" y="195.14" width="7.37" height="4.03" transform="translate(695.31 394.31) rotate(180)" style="fill:#407bff;"/></g><g><path d="M331.53,131.63h-17.65c-1.11,0-2.02,.9-2.02,2.02h0c0,1.11,.9,2.02,2.02,2.02h17.65c1.11,0,2.02-.9,2.02-2.02h0c0-1.11-.9-2.02-2.02-2.02Z" style="fill:#ebebeb;"/><path d="M331.53,126.4h-17.65c-1.11,0-2.02,.9-2.02,2.02h0c0,1.11,.9,2.02,2.02,2.02h17.65c1.11,0,2.02-.9,2.02-2.02h0c0-1.11-.9-2.02-2.02-2.02Z" style="fill:#407bff; opacity:.6;"/><path d="M331.53,121.16h-17.65c-1.11,0-2.02,.9-2.02,2.02h0c0,1.11,.9,2.02,2.02,2.02h17.65c1.11,0,2.02-.9,2.02-2.02h0c0-1.11-.9-2.02-2.02-2.02Z" style="fill:#407bff; opacity:.6;"/><rect x="335.4" y="163.5" width="7.37" height="4.03" transform="translate(678.16 331.02) rotate(180)" style="fill:#ebebeb;"/><rect x="335.4" y="168.73" width="7.37" height="4.03" transform="translate(678.16 341.5) rotate(180)" style="fill:#ebebeb;"/><rect x="335.4" y="173.97" width="7.37" height="4.03" transform="translate(678.16 351.98) rotate(180)" style="fill:#407bff;"/><rect x="343.97" y="163.5" width="7.37" height="4.03" transform="translate(695.31 331.02) rotate(180)" style="fill:#407bff;"/><rect x="343.97" y="168.73" width="7.37" height="4.03" transform="translate(695.31 341.5) rotate(180)" style="fill:#ebebeb;"/><rect x="343.97" y="173.97" width="7.37" height="4.03" transform="translate(695.31 351.98) rotate(180)" style="fill:#407bff;"/></g><g><path d="M331.53,152.8h-17.65c-1.11,0-2.02,.9-2.02,2.02h0c0,1.11,.9,2.02,2.02,2.02h17.65c1.11,0,2.02-.9,2.02-2.02h0c0-1.11-.9-2.02-2.02-2.02Z" style="fill:#407bff; opacity:.6;"/><path d="M331.53,147.57h-17.65c-1.11,0-2.02,.9-2.02,2.02h0c0,1.11,.9,2.02,2.02,2.02h17.65c1.11,0,2.02-.9,2.02-2.02h0c0-1.11-.9-2.02-2.02-2.02Z" style="fill:#407bff; opacity:.6;"/><path d="M331.53,142.33h-17.65c-1.11,0-2.02,.9-2.02,2.02h0c0,1.11,.9,2.02,2.02,2.02h17.65c1.11,0,2.02-.9,2.02-2.02h0c0-1.11-.9-2.02-2.02-2.02Z" style="fill:#407bff; opacity:.6;"/><rect x="335.4" y="142.33" width="7.37" height="4.03" transform="translate(678.16 288.69) rotate(180)" style="fill:#407bff;"/><rect x="335.4" y="147.57" width="7.37" height="4.03" transform="translate(678.16 299.16) rotate(180)" style="fill:#ebebeb;"/><rect x="335.4" y="152.8" width="7.37" height="4.03" transform="translate(678.16 309.64) rotate(180)" style="fill:#ebebeb;"/><rect x="343.97" y="142.33" width="7.37" height="4.03" transform="translate(695.31 288.69) rotate(180)" style="fill:#ebebeb;"/><rect x="343.97" y="147.57" width="7.37" height="4.03" transform="translate(695.31 299.16) rotate(180)" style="fill:#ebebeb;"/><rect x="343.97" y="152.8" width="7.37" height="4.03" transform="translate(695.31 309.64) rotate(180)" style="fill:#407bff;"/></g><g><path d="M331.53,173.97h-17.65c-1.11,0-2.02,.9-2.02,2.02h0c0,1.11,.9,2.02,2.02,2.02h17.65c1.11,0,2.02-.9,2.02-2.02h0c0-1.11-.9-2.02-2.02-2.02Z" style="fill:#407bff; opacity:.6;"/><path d="M331.53,168.73h-17.65c-1.11,0-2.02,.9-2.02,2.02h0c0,1.11,.9,2.02,2.02,2.02h17.65c1.11,0,2.02-.9,2.02-2.02h0c0-1.11-.9-2.02-2.02-2.02Z" style="fill:#407bff; opacity:.6;"/><path d="M331.53,163.5h-17.65c-1.11,0-2.02,.9-2.02,2.02h0c0,1.11,.9,2.02,2.02,2.02h17.65c1.11,0,2.02-.9,2.02-2.02h0c0-1.11-.9-2.02-2.02-2.02Z" style="fill:#407bff; opacity:.6;"/><rect x="335.4" y="121.16" width="7.37" height="4.03" transform="translate(678.16 246.35) rotate(180)" style="fill:#ebebeb;"/><rect x="335.4" y="126.4" width="7.37" height="4.03" transform="translate(678.16 256.82) rotate(180)" style="fill:#407bff;"/><rect x="335.4" y="131.63" width="7.37" height="4.03" transform="translate(678.16 267.3) rotate(180)" style="fill:#ebebeb;"/><rect x="343.97" y="121.16" width="7.37" height="4.03" transform="translate(695.31 246.35) rotate(180)" style="fill:#407bff;"/><rect x="343.97" y="126.4" width="7.37" height="4.03" transform="translate(695.31 256.82) rotate(180)" style="fill:#ebebeb;"/><rect x="343.97" y="131.63" width="7.37" height="4.03" transform="translate(695.31 267.3) rotate(180)" style="fill:#ebebeb;"/></g><g><path d="M331.53,195.14h-17.65c-1.11,0-2.02,.9-2.02,2.02h0c0,1.11,.9,2.02,2.02,2.02h17.65c1.11,0,2.02-.9,2.02-2.02h0c0-1.11-.9-2.02-2.02-2.02Z" style="fill:#407bff; opacity:.6;"/><path d="M331.53,189.9h-17.65c-1.11,0-2.02,.9-2.02,2.02h0c0,1.11,.9,2.02,2.02,2.02h17.65c1.11,0,2.02-.9,2.02-2.02h0c0-1.11-.9-2.02-2.02-2.02Z" style="fill:#407bff; opacity:.6;"/><rect x="311.86" y="184.67" width="21.69" height="4.03" rx="2.02" ry="2.02" style="fill:#407bff; opacity:.6;"/><rect x="335.4" y="99.99" width="7.37" height="4.03" transform="translate(678.16 204.01) rotate(180)" style="fill:#407bff;"/><rect x="335.4" y="105.23" width="7.37" height="4.03" transform="translate(678.16 214.49) rotate(180)" style="fill:#ebebeb;"/><rect x="335.4" y="110.47" width="7.37" height="4.03" transform="translate(678.16 224.96) rotate(180)" style="fill:#ebebeb;"/><rect x="343.97" y="99.99" width="7.37" height="4.03" transform="translate(695.31 204.01) rotate(180)" style="fill:#ebebeb;"/><rect x="343.97" y="105.23" width="7.37" height="4.03" transform="translate(695.31 214.49) rotate(180)" style="fill:#ebebeb;"/><rect x="343.97" y="110.47" width="7.37" height="4.03" transform="translate(695.31 224.96) rotate(180)" style="fill:#407bff;"/></g></g></g><g><g><path d="M307.78,323.23h-27.24c6.44-2.42,7.34-11.88,7.34-11.88,0,.48,13.33-.1,13.33-.1,0,.12,0,.23,0,.35,.09,2.24,.73,4.19,1.59,5.83,1.94,3.72,4.97,5.8,4.97,5.8Z" style="fill:#7c9de2;"/><path d="M302.81,317.42c-3.6-2.51-15.12-4.54-15.12-4.54l13.53-1.29c.09,2.24,.73,4.19,1.59,5.83Z" style="mix-blend-mode:soft-light; opacity:.6;"/></g><path d="M253.89,255.69h80.56c1.44,0,2.6,1.17,2.6,2.6v52.09c0,1.44-1.17,2.6-2.6,2.6h-80.56c-1.44,0-2.6-1.17-2.6-2.6v-52.09c0-1.44,1.17-2.6,2.6-2.6Z" style="fill:#7c9de2;"/><rect x="254.6" y="259.8" width="79.12" height="45.49" style="fill:#d0e0fa;"/><circle cx="294.16" cy="309.02" r="2.45" style="mix-blend-mode:soft-light; opacity:.6;"/></g><g><g><path d="M490.97,323.23h-27.24c6.44-2.42,7.34-11.88,7.34-11.88,0,.48,13.33-.1,13.33-.1,0,.12,0,.23,0,.35,.09,2.24,.73,4.19,1.59,5.83,1.94,3.72,4.97,5.8,4.97,5.8Z" style="fill:#7c9de2;"/><path d="M486,317.42c-3.6-2.51-15.12-4.54-15.12-4.54l13.53-1.29c.09,2.24,.73,4.19,1.59,5.83Z" style="mix-blend-mode:soft-light; opacity:.6;"/></g><rect x="434.46" y="255.69" width="85.76" height="57.29" rx="2.6" ry="2.6" style="fill:#7c9de2;"/><rect x="437.78" y="259.8" width="79.12" height="45.49" style="fill:#d0e0fa;"/><circle cx="477.34" cy="309.02" r="2.45" style="mix-blend-mode:soft-light; opacity:.6;"/></g><g><g><g><g><path d="M128.62,323.23h-27.24c6.44-2.42,7.34-11.88,7.34-11.88,0,.48,13.33-.1,13.33-.1,0,.12,0,.23,0,.35,.09,2.24,.73,4.19,1.59,5.83,1.94,3.72,4.97,5.8,4.97,5.8Z" style="fill:#7c9de2;"/><path d="M123.65,317.43c-3.6-2.51-15.12-4.54-15.12-4.54l13.53-1.29c.09,2.24,.73,4.19,1.59,5.83Z" style="mix-blend-mode:soft-light; opacity:.6;"/></g><path d="M74.72,255.7h80.56c1.44,0,2.6,1.17,2.6,2.6v52.09c0,1.44-1.17,2.6-2.6,2.6H74.72c-1.44,0-2.6-1.17-2.6-2.6v-52.09c0-1.44,1.17-2.6,2.6-2.6Z" style="fill:#7c9de2;"/><rect x="75.44" y="259.8" width="79.12" height="45.49" style="fill:#d0e0fa;"/><circle cx="115" cy="309.02" r="2.45" style="mix-blend-mode:soft-light; opacity:.6;"/></g><g><g><polygon points="80.14 305.3 78.18 255.69 80.14 255.7 80.14 305.3" style="mix-blend-mode:soft-light; opacity:.6;"/><polygon points="150.26 305.3 152.22 255.69 150.27 255.7 150.26 305.3" style="mix-blend-mode:soft-light; opacity:.6;"/></g><g><g><path d="M150.28,249.16v56.15H80.14v-56.15c0-1.27,1.03-2.3,2.3-2.3h65.54c1.27,0,2.3,1.03,2.3,2.3Z" style="fill:#c0d1ff;"/><path d="M150.28,249.16v3.06H80.14v-3.06c0-1.27,1.03-2.3,2.3-2.3h65.54c1.27,0,2.3,1.03,2.3,2.3Z" style="fill:#9eb3e8;"/><g><path d="M85.45,249.85c0,.67-.54,1.21-1.21,1.21s-1.21-.54-1.21-1.21,.54-1.21,1.21-1.21,1.21,.54,1.21,1.21Z" style="fill:#fff;"/><path d="M89,249.85c0,.67-.54,1.21-1.21,1.21s-1.21-.54-1.21-1.21,.54-1.21,1.21-1.21,1.21,.54,1.21,1.21Z" style="fill:#fff;"/><path d="M92.55,249.85c0,.67-.54,1.21-1.21,1.21s-1.21-.54-1.21-1.21,.54-1.21,1.21-1.21,1.21,.54,1.21,1.21Z" style="fill:#fff;"/></g></g><g><rect x="83.18" y="255.16" width="57.97" height="4.49" style="fill:#fff;"/><g><path d="M144.79,258.26c-.26,0-.51-.1-.69-.28-.19-.19-.3-.43-.31-.7,0-.27,.09-.52,.28-.71,.19-.19,.43-.3,.7-.31,.27,0,.52,.09,.71,.28,.19,.19,.3,.43,.31,.7,0,.27-.09,.52-.28,.71-.19,.19-.43,.3-.7,.31h-.02Zm0-1.71c-.19,0-.37,.07-.51,.22-.13,.14-.2,.32-.2,.51,0,.19,.08,.37,.22,.5,.14,.13,.32,.2,.51,.2,.19,0,.37-.08,.5-.22,.13-.14,.2-.32,.2-.51,0-.19-.08-.37-.22-.5-.14-.13-.32-.2-.49-.2Z" style="fill:#30376d;"/><path d="M146.62,259.1s-.07-.01-.1-.04l-1.15-1.11c-.06-.06-.06-.15,0-.21,.06-.06,.15-.06,.21,0l1.15,1.11c.06,.06,.06,.15,0,.21-.03,.03-.07,.04-.1,.04Z" style="fill:#30376d;"/></g><g><rect x="83.18" y="262.7" width="31.29" height="30.28" style="fill:#2f579f;"/><g><rect x="84.63" y="264.58" width="28.46" height="2.17" style="fill:#fff;"/><rect x="84.63" y="268.19" width="28.46" height="2.17" style="fill:#fff;"/><rect x="84.63" y="271.86" width="28.46" height="2.17" style="fill:#fff;"/></g><g><rect x="100.85" y="276.95" width="12.25" height="1.38" style="fill:#fff;"/><rect x="100.85" y="279.29" width="12.25" height="1.38" style="fill:#fff;"/><rect x="100.85" y="281.63" width="12.25" height="1.38" style="fill:#fff;"/><rect x="100.85" y="283.97" width="12.25" height="1.38" style="fill:#fff;"/><rect x="100.85" y="286.31" width="12.25" height="1.38" style="fill:#fff;"/><rect x="100.85" y="288.65" width="12.25" height="1.38" style="fill:#fff;"/></g><rect x="84.63" y="275.53" width="15.35" height="15.03" style="fill:#fff;"/></g><g><rect x="116.08" y="263.04" width="31.69" height="2.67" style="fill:#fff;"/><rect x="116.08" y="267.48" width="31.69" height="2.67" style="fill:#fff;"/><rect x="116.08" y="271.93" width="31.69" height="2.67" style="fill:#fff;"/></g><g><rect x="83.14" y="294.82" width="64.34" height="1.9" style="fill:#fff;"/><rect x="83.14" y="297.98" width="64.34" height="1.9" style="fill:#fff;"/><rect x="83.14" y="301.14" width="64.34" height="1.9" style="fill:#fff;"/></g><g><rect x="115.82" y="278.5" width="16.98" height="1.38" style="fill:#fff;"/><rect x="115.82" y="280.84" width="16.98" height="1.38" style="fill:#fff;"/><rect x="115.82" y="283.17" width="16.98" height="1.38" style="fill:#fff;"/><rect x="115.82" y="285.51" width="16.98" height="1.38" style="fill:#fff;"/><rect x="115.82" y="287.85" width="16.98" height="1.38" style="fill:#fff;"/><rect x="115.82" y="290.19" width="16.98" height="1.38" style="fill:#fff;"/></g></g></g></g></g><g><path d="M130.58,316.03v-15.4c0-.49,.4-.89,.89-.89h7.05c.2,0,.4,.07,.56,.2l2.24,1.84c.13,.11,.3,.17,.47,.17h8.54c.49,0,.89,.4,.89,.89v13.23l-20.65-.04Z" style="fill:#e58741;"/><path d="M134.34,302.78h13.13c1.4,0,2.54,1.14,2.54,2.54v2.79h-18.2v-2.79c0-1.4,1.14-2.54,2.54-2.54Z" style="mix-blend-mode:soft-light; opacity:.3;"/><path d="M134.52,303.2h12.77c1.32,0,2.39,1.07,2.39,2.39v2.52h-17.55v-2.52c0-1.32,1.07-2.39,2.39-2.39Z" style="fill:#fff;"/><rect x="130.55" y="305.22" width="20.71" height="11.83" rx="2.45" ry="2.45" style="fill:#f99746;"/></g></g><g><g><rect x="255.94" y="262.16" width="76.46" height="39.97" rx="2.28" ry="2.28" style="fill:#dae2f3;"/><path d="M332.39,264.44v1.66h-76.46v-1.66c0-1.26,1.02-2.28,2.28-2.28h71.9c1.26,0,2.28,1.02,2.28,2.28Z" style="fill:#b8c8e0;"/><g><path d="M325.05,264.09c0,.43-.35,.77-.77,.77s-.77-.35-.77-.77,.35-.77,.77-.77,.77,.35,.77,.77Z" style="fill:#3e407a;"/><path d="M327.52,264.09c0,.43-.35,.77-.77,.77s-.77-.35-.77-.77,.35-.77,.77-.77,.77,.35,.77,.77Z" style="fill:#3660e1;"/><path d="M330,264.09c0,.43-.35,.77-.77,.77s-.77-.35-.77-.77,.35-.77,.77-.77,.77,.35,.77,.77Z" style="fill:#477dfa;"/></g></g><g><rect x="259.57" y="269.97" width="7.58" height="7.58" rx="1.24" ry="1.24" style="fill:#b8c8e0;"/><rect x="258.56" y="268.89" width="7.58" height="7.58" rx="1.24" ry="1.24" style="fill:#477dfa;"/><path d="M263.74,271.98l-2.07,.71,2.07,.71v1.16l-3.49-1.26v-1.22l3.49-1.26v1.16Z" style="fill:#fff;"/></g><g><rect x="272.08" y="269.97" width="7.58" height="7.58" rx="1.24" ry="1.24" style="fill:#b8c8e0;"/><rect x="271.08" y="268.89" width="7.58" height="7.58" rx="1.24" ry="1.24" style="fill:#477dfa;"/><path d="M275.08,270.24h1.05l-1.73,4.93h-1.05l1.73-4.93Z" style="fill:#fff;"/></g><g><rect x="284.15" y="269.97" width="7.58" height="7.58" rx="1.24" ry="1.24" style="fill:#b8c8e0;"/><rect x="283.15" y="268.89" width="7.58" height="7.58" rx="1.24" ry="1.24" style="fill:#477dfa;"/><path d="M285.23,270.82l3.49,1.26v1.22l-3.49,1.26v-1.16l2.07-.71-2.07-.71v-1.16Z" style="fill:#fff;"/></g><g><rect x="321.72" y="291.23" width="7.58" height="7.58" rx="1.24" ry="1.24" style="fill:#b8c8e0;"/><rect x="320.72" y="290.15" width="7.58" height="7.58" rx="1.24" ry="1.24" style="fill:#477dfa;"/><path d="M324.44,291.47c-1.36,0-2.47,1.11-2.47,2.47s1.11,2.47,2.47,2.47,2.47-1.11,2.47-2.47-1.11-2.47-2.47-2.47Zm.1,3.38v-.87h1.12c0,.31-.05,.6-.13,.87h-.98Zm.7,.99c.18-.23,.33-.5,.43-.79h.75c-.32,.57-.85,.96-1.48,1.11,.11-.09,.21-.2,.3-.32Zm.22-.79c-.09,.24-.22,.46-.37,.66-.24,.3-.47,.46-.55,.5v-1.16h.92Zm-.92-2.33v-1.05s.06,0,.09,0c.12,.1,.51,.46,.77,1.05h-.86Zm1.08,0c-.09-.21-.2-.42-.33-.61-.1-.14-.2-.27-.31-.39,.57,.14,1.07,.49,1.38,.99h-.74Zm-1.08,1.06v-.87h.94c.1,.28,.16,.57,.17,.87h-1.12Zm1.31,0c-.01-.29-.06-.58-.16-.87h.78c.14,.27,.22,.56,.24,.87h-.85Zm.86,.2c0,.3-.07,.59-.19,.87h-.79c.08-.27,.12-.56,.12-.87h.86Zm-3.54,.87h-.81c-.12-.27-.18-.56-.19-.87h.88c0,.3,.05,.6,.12,.87Zm.33-2.13c.08-.17,.17-.33,.28-.49,.21-.3,.42-.49,.5-.56,.02,0,.04,0,.06,0v1.05h-.84Zm.84,.2v.87h-1.09c.01-.29,.07-.59,.17-.87h.92Zm-1.82-.2c.32-.51,.83-.87,1.41-1-.11,.12-.22,.25-.32,.39-.13,.19-.24,.39-.33,.61h-.76Zm1.82,1.26v.87h-.96c-.08-.27-.12-.56-.13-.87h1.09Zm-2.17-.2c.02-.3,.1-.59,.24-.87h.8c-.1,.28-.15,.57-.16,.87h-.88Zm1.06,1.26c.1,.29,.25,.56,.43,.79,.09,.12,.2,.23,.3,.32-.63-.13-1.19-.54-1.51-1.11h.78Zm1.11,0v1.14c-.15-.09-.62-.43-.89-1.14h.89Z" style="fill:#fff;"/></g><g><path d="M290.86,281.61h-31.42c-.48,0-.87-.39-.87-.87h0c0-.48,.39-.87,.87-.87h31.42c.48,0,.87,.39,.87,.87h0c0,.48-.39,.87-.87,.87Z" style="fill:#b8c8e0;"/><path d="M290.86,284.84h-31.42c-.48,0-.87-.39-.87-.87h0c0-.48,.39-.87,.87-.87h31.42c.48,0,.87,.39,.87,.87h0c0,.48-.39,.87-.87,.87Z" style="fill:#b8c8e0;"/><path d="M290.86,288.07h-31.42c-.48,0-.87-.39-.87-.87h0c0-.48,.39-.87,.87-.87h31.42c.48,0,.87,.39,.87,.87h0c0,.48-.39,.87-.87,.87Z" style="fill:#b8c8e0;"/><path d="M290.86,291.3h-31.42c-.48,0-.87-.39-.87-.87h0c0-.48,.39-.87,.87-.87h31.42c.48,0,.87,.39,.87,.87h0c0,.48-.39,.87-.87,.87Z" style="fill:#b8c8e0;"/><path d="M290.86,294.53h-31.42c-.48,0-.87-.39-.87-.87h0c0-.48,.39-.87,.87-.87h31.42c.48,0,.87,.39,.87,.87h0c0,.48-.39,.87-.87,.87Z" style="fill:#b8c8e0;"/><rect x="258.56" y="296.02" width="33.16" height="1.74" rx=".87" ry=".87" style="fill:#b8c8e0;"/></g><g><path d="M317.84,289.56h-21.41c-.48,0-.89,.38-.9,.86,0,.49,.38,.89,.87,.89h21.44c.48,0,.87-.39,.87-.87h0c0-.48-.39-.87-.87-.87Z" style="fill:#b8c8e0;"/><path d="M317.84,292.79h-21.41c-.48,0-.89,.38-.9,.86,0,.49,.38,.89,.87,.89h21.44c.48,0,.87-.39,.87-.87h0c0-.48-.39-.87-.87-.87Z" style="fill:#b8c8e0;"/><path d="M317.84,296.02h-21.41c-.48,0-.89,.38-.9,.86,0,.49,.38,.89,.87,.89h21.44c.48,0,.87-.39,.87-.87h0c0-.48-.39-.87-.87-.87Z" style="fill:#b8c8e0;"/></g><g><path d="M328.3,269.95v16.18s0,.07,0,.1c-.02,.18-.07,.35-.16,.49-.17,.28-.46,.47-.79,.47h-30.91c-.37,0-.7-.24-.85-.58-.07-.14-.1-.31-.1-.48v-16.18c0-.13,.02-.26,.06-.37,.06-.17,.15-.32,.27-.43,.17-.16,.39-.26,.63-.26h30.91c.19,0,.37,.06,.52,.17,.14,.1,.25,.24,.33,.4,.07,.15,.11,.32,.11,.49Z" style="fill:#b8c8e0;"/><path d="M328.29,286.23c-.02,.18-.07,.35-.16,.49l-16.39-8.62-.55-.29-15.67-8.24c.06-.17,.15-.32,.27-.43l15.95,8.38,.55,.29h0l16,8.41Z" style="fill:#dae2f3;"/><path d="M328.19,269.46l-15.9,8.36h0l-.55,.29-16.17,8.51c-.07-.14-.1-.31-.1-.48v-.04l15.73-8.27,.55-.29,16.11-8.47c.14,.1,.25,.24,.33,.4Z" style="fill:#dae2f3;"/></g></g><g><g><path d="M511.44,263.33v41.7h-70.14v-41.7c0-.94,1.03-1.71,2.3-1.71h65.54c1.27,0,2.3,.76,2.3,1.71Z" style="fill:#c0d1ff;"/><path d="M511.44,263.33v2.27h-70.14v-2.27c0-.94,1.03-1.71,2.3-1.71h65.54c1.27,0,2.3,.76,2.3,1.71Z" style="fill:#9eb3e8;"/><g><path d="M446.62,263.84c0,.5-.54,.9-1.21,.9s-1.21-.4-1.21-.9,.54-.9,1.21-.9,1.21,.4,1.21,.9Z" style="fill:#fff;"/><path d="M450.17,263.84c0,.5-.54,.9-1.21,.9s-1.21-.4-1.21-.9,.54-.9,1.21-.9,1.21,.4,1.21,.9Z" style="fill:#fff;"/><path d="M453.72,263.84c0,.5-.54,.9-1.21,.9s-1.21-.4-1.21-.9,.54-.9,1.21-.9,1.21,.4,1.21,.9Z" style="fill:#fff;"/></g></g><g><rect x="444.35" y="269.12" width="57.97" height="4.06" style="fill:#fff;"/><g><path d="M505.95,271.92c-.26,0-.51-.09-.69-.25-.19-.17-.3-.39-.31-.63,0-.24,.09-.47,.28-.65,.19-.17,.43-.27,.7-.28,.27,0,.52,.08,.71,.25,.19,.17,.3,.39,.31,.63,0,.24-.09,.47-.28,.65-.19,.17-.43,.27-.7,.28h-.02Zm0-1.55c-.19,0-.37,.07-.51,.2-.13,.12-.2,.29-.2,.46,0,.17,.08,.33,.22,.45,.14,.12,.32,.18,.51,.18,.19,0,.37-.07,.5-.2,.13-.12,.2-.29,.2-.46,0-.17-.08-.33-.22-.45-.14-.12-.32-.18-.49-.18Z" style="fill:#30376d;"/><path d="M507.78,272.68s-.07-.01-.1-.04l-1.15-1c-.06-.05-.06-.13,0-.19,.06-.05,.15-.05,.21,0l1.15,1c.06,.05,.06,.13,0,.19-.03,.03-.07,.04-.1,.04Z" style="fill:#30376d;"/></g><g><rect x="444.35" y="275.93" width="31.29" height="27.34" style="fill:#2f579f;"/><g><rect x="445.79" y="277.63" width="28.46" height="1.96" style="fill:#fff;"/><rect x="445.79" y="280.89" width="28.46" height="1.96" style="fill:#fff;"/><rect x="445.79" y="284.2" width="28.46" height="1.96" style="fill:#fff;"/></g><g><rect x="462.01" y="288.8" width="12.25" height="1.24" style="fill:#fff;"/><rect x="462.01" y="290.91" width="12.25" height="1.24" style="fill:#fff;"/><rect x="462.01" y="293.02" width="12.25" height="1.24" style="fill:#fff;"/><rect x="462.01" y="295.14" width="12.25" height="1.24" style="fill:#fff;"/><rect x="462.01" y="297.25" width="12.25" height="1.24" style="fill:#fff;"/><rect x="462.01" y="299.36" width="12.25" height="1.24" style="fill:#fff;"/></g><rect x="445.79" y="287.52" width="15.35" height="13.57" style="fill:#fff;"/></g><g><rect x="477.24" y="276.23" width="31.69" height="2.41" style="fill:#fff;"/><rect x="477.24" y="280.25" width="31.69" height="2.41" style="fill:#fff;"/><rect x="477.24" y="284.26" width="31.69" height="2.41" style="fill:#fff;"/></g><g><rect x="476.98" y="290.19" width="16.98" height="1.24" style="fill:#fff;"/><rect x="476.98" y="292.31" width="16.98" height="1.24" style="fill:#fff;"/><rect x="476.98" y="294.42" width="16.98" height="1.24" style="fill:#fff;"/><rect x="476.98" y="296.53" width="16.98" height="1.24" style="fill:#fff;"/><rect x="476.98" y="298.64" width="16.98" height="1.24" style="fill:#fff;"/><rect x="476.98" y="300.76" width="16.98" height="1.24" style="fill:#fff;"/></g></g></g></g></g></svg>