<?xml version="1.0" encoding="UTF-8"?><svg xmlns="http://www.w3.org/2000/svg" viewBox="0 0 600 350"><g style="isolation:isolate;"><g id="a"/><g id="b"/><g id="c"/><g id="d"/><g id="e"/><g id="f"/><g id="g"/><g id="h"/><g id="i"/><g id="j"><path d="M21.28,257.71c-4.88-13.49-6.52-29.66,4.23-40.39,15.88-15.86,46.58-9.6,68.38-19.01,19.7-8.5,28.74-28.25,33.03-46.76,4.29-18.51,5.82-38.15,17.29-54.27,5.61-7.89,14.37-14.98,25.11-15.87,21.72-1.79,34.64,20.47,54.27,28.62,18.56,7.71,41.48,1.49,57.54-9.59,16.06-11.08,27.27-26.32,40.37-39.95,15.53-16.15,35.29-30.8,59.33-34.62,24.04-3.81,52.37,6.73,58.94,26.86,8.48,25.95-20.28,55.15-5.63,79.01,8.44,13.74,27.77,19.11,44.99,24.02,19.98,5.7,41.5,12.77,51.81,29.76,8.31,13.69,6.29,32.31-7.29,42.46-5.74,4.29-12.98,6.83-19.19,10.62-6.22,3.78-11.71,9.6-11.11,16.11,.53,5.77,5.73,10.49,11.46,13.57,5.73,3.09,12.22,5.07,17.8,8.36,9.46,5.58,15.73,14.94,16.56,24.74,.61,7.16-1.83,18.59-8.84,23.46-6.29,4.37-16.44,2.22-24.2,2.13-23.68-.27-47.35-.54-71.03-.81-46.73-.53-93.5-1.59-140.24-1.59l-115.11-1.31c-19.19-.22-38.37-.44-57.56-.65-13.75-.16-30.61,2.13-44.08-.41-13.56-2.56-25.27-16.22-33.16-25.14-9.93-11.24-20.11-25.42-23.68-39.36Z" style="fill:#dee4ff;"/><g><g><path d="M296.76,257.48s-12.07,1.76-16.61,2.73c-4.54,.97-23.76,17.53-22.05,18.69s10.06,5.44,15.14,3.8c5.08-1.64,4.11-5.47,11.2-4.78,7.09,.69,15.47-6.1,15.47-6.1l46.63-24.93-6.75-16.91-43.03,27.51Z" style="fill:#ffbba5;"/><path d="M399.27,117.66c-4.91,10.24-6.07,24.61,1.94,28.45,8.02,3.84,22.18-4.3,27.09-14.54,4.91-10.24,2.38-21.66-5.63-25.5-8.02-3.84-18.49,1.35-23.4,11.59Z" style="fill:#00004c;"/><path d="M394.9,145.27s3.66,15.9-10.65,20.35l-3.68,23.2,36.79,2.26,2.83-29.71s-4.71-14.94-3.87-29.38l-21.42,13.27Z" style="fill:#ffbba5;"/><path d="M420.18,161.38s-1.71,16.03-27.08,22.82h27.08s3.45-16.41,0-22.82" style="fill:#ff9e7c; opacity:.33;"/><path d="M365.57,236.09l1.7-65.08s-8.21,1.41-13.87,14.15c-5.66,12.73-16.98,38.77-16.98,38.77l-50.29,32.74,14.5,16.73c11.48-5.83,51.91-16.85,64.93-37.31Z" style="fill:#a695ff;"/><path d="M300.63,273.4c11.48-5.83,51.91-16.85,64.93-37.31l1.04-39.87c-3.17,11.24-6.86,22.4-13.42,32-7.36,10.78-17.97,19-29.43,25.25-3.05,3.05-9.77,4.88-13.7,6.55-4.67,1.98-9.41,3.78-14.18,5.52-.38,.14-.97,.29-1.65,.47l6.41,7.39Z" style="fill:#a695ff; mix-blend-mode:multiply; opacity:.14;"/><polygon points="444.41 286.77 450.09 326.01 363.02 326.01 359.96 281.99 444.41 286.77" style="fill:#000067;"/><path d="M359.96,289.96l2.07,21.77s13.71-15.68,17.08-29.74l-19.15,7.97Z" style="fill:#00004c;"/><path d="M413.06,291.78s8.21,22.7,36.32,29.33l-2.63-18.17-33.69-11.16Z" style="fill:#00004c;"/><polygon points="400.37 302.94 404.28 326.01 399.41 326.01 400.37 302.94" style="fill:#00004c;"/><path d="M363.02,284.76s19.29,9.6,70.54,6.35c-.25-1.75-13.38-120.1-13.38-120.1,0,0-6.11,10.6-20.77,10.6s-15.84-11.49-15.84-11.49c0,0-21.84,92.25-20.54,113.75" style="fill:#fafafa;"/><path d="M433.56,291.11c-.13-.89-3.6-32.03-6.97-62.38-23.3,6.89-47.13,2.49-55.85,.41-4.48,22.68-8.29,45.38-7.72,54.72v.9s19.29,9.6,70.54,6.35Z" style="fill:#a695ff; mix-blend-mode:multiply; opacity:.14;"/><g><path d="M358.73,105.61c1.62,11.25,8.48,17.25,17.42,17.25s16.2-8.6,16.2-19.21-7.25-19.21-16.2-19.21c-12.05,0-18.94,10.67-17.42,21.17Z" style="fill:#00004c;"/><ellipse cx="429.87" cy="92.13" rx="19.35" ry="21.32" style="fill:#00004c;"/><ellipse cx="434.02" cy="112.63" rx="7.06" ry="6.51" style="fill:#00004c;"/><path d="M414.97,137l-19.69,11.31c.15,2.67-.07,6.67-2.04,10.28,4.72-1.63,17.28-5.23,21.73-21.59Z" style="fill:#ff9e7c;"/><path d="M418.09,128.96c-3.32,10.78-10.3,27.3-29.42,27.31-15.2,0-30.61-34.68-18.1-59.29,4.82-9.49,15.3-15.65,42.5-2.41,7.81,3.8,5.02,34.38,5.02,34.38Z" style="fill:#ffbba5;"/><path d="M372.52,93.08s3.64,24.9,35.46,17.38l-1.83-12.14-33.64-5.25Z" style="fill:#ff9e7c;"/><path d="M413.07,93.7s-16.34,12.78,2.14,27.7c13.76,11.11,23.92-27.04-2.14-27.7Z" style="fill:#00004c;"/><path d="M411.84,131.51c3.44,3.09,8.99,2.52,12.38-1.26,3.39-3.78,3.35-9.35-.09-12.44-3.44-3.09-8.99-2.52-12.38,1.26-3.39,3.78-3.35,9.35,.09,12.44Z" style="fill:#ffbba5;"/><g><path d="M387.32,120.41c.06,1.11,.71,1.97,1.46,1.93,.74-.04,1.3-.97,1.24-2.08-.06-1.11-.71-1.97-1.46-1.93-.74,.04-1.3,.97-1.24,2.08Z" style="fill:#00004c;"/><path d="M372.3,122.12c.06,1.11,.71,1.97,1.46,1.93s1.3-.97,1.24-2.08c-.06-1.11-.71-1.97-1.46-1.93s-1.3,.97-1.24,2.08Z" style="fill:#00004c;"/></g><g><path d="M386.93,143.65c-2.82,.64-5.09-1.3-6.44-2.91-.89-1.01-1.39-1.93-1.39-1.93,0,0,5.68,.32,12.35-5.54,0,0,2.54,8.79-4.53,10.39Z" style="fill:#b63847;"/><path d="M391.47,133.27c-2.29,6.21-8.03,7.32-10.97,7.47-.89-1.01-1.39-1.93-1.39-1.93,0,0,5.68,.32,12.35-5.54Z" style="fill:#ffeef7;"/><path d="M391.47,133.27c-2.29,6.21-8.03,7.32-10.97,7.47-.89-1.01-1.39-1.93-1.39-1.93,0,0,5.68,.32,12.35-5.54Z" style="fill:#ffeef7;"/><path d="M386.93,143.65c2.86-.64,4.13-2.46,4.65-4.4-1.28-.47-3.09-.36-4.87,.43-1.79,.79-3.09,2.06-3.59,3.33,1.1,.62,2.38,.96,3.81,.64Z" style="fill:#d84655;"/></g><path d="M380.48,120.75c-.3,3.56-1.85,7-4.32,9.57,1.21,1.32,2.83,2.27,4.58,2.68" style="fill:none; stroke:#de7d65; stroke-linecap:round; stroke-linejoin:round; stroke-width:1.04px;"/><path d="M393.1,115.8c-1.47-1.82-3.97-2.73-6.26-2.3" style="fill:none; stroke:#00004c; stroke-linecap:round; stroke-linejoin:round; stroke-width:2px;"/><path d="M375.47,112.83c-1.97-.62-4.3,.22-5.42,1.95" style="fill:none; stroke:#00004c; stroke-linecap:round; stroke-linejoin:round; stroke-width:2px;"/><path d="M419.27,119.78c-1.97,.46-3.68,1.89-4.49,3.73" style="fill:none; stroke:#de7d65; stroke-linecap:round; stroke-linejoin:round; stroke-width:1.04px;"/><path d="M371.24,86.97s.62,31.64,39.62,21.56l18.44,.84c1.78-16.05,1.96-11.92-5.27-21.02-16.93-21.31-47.38-17.09-52.79-1.37Z" style="fill:#00004c;"/></g><path d="M389.94,162.62l-22.68,8.38s-9.06,29.71-12.17,37.07c-3.11,7.36,7.36,32.82,9.05,42.73,1.7,9.9-11.88,33.39-11.6,64.23,0,0,11.11-12.64,21.95-26.79,10.85-14.15,11.15-42.26,6.06-60.93-5.09-18.68,9.38-64.69,9.38-64.69Z" style="fill:#b8b2ff;"/><path d="M420.18,161.38s-15.28,36.5-15.56,60.56c-.28,24.05-19.86,81,59.99,98.19,0,0-17.26-55.46-16.41-83.48,.85-28.01,7.64-61.97,7.64-61.97l-35.65-13.3Z" style="fill:#b8b2ff;"/><path d="M403.98,230.95c-2.75,27.06-10.46,73.87,60.62,89.18,0,0-17.26-55.46-16.41-83.48,.09-3.06,.26-6.19,.48-9.33l-6.46-19.74c-2.65,27.23-33.4,25.35-38.23,23.38Z" style="fill:#a695ff; mix-blend-mode:multiply; opacity:.14;"/><path d="M402.6,245.67c-.24,3.63-.37,7.4-.26,11.25l.14,.31s14.39,6.75,28.32,14c13.89,7.23,31.25,48.11,31.35,48.34,.81,.19,1.62,.38,2.46,.55,0,0-10.88-34.96-14.94-63.39l-47.07-11.07Z" style="fill:#a695ff; mix-blend-mode:multiply; opacity:.14;"/><path d="M374.51,288.25c10.17-13.26,11.07-38.78,6.95-57.3-10.22,1.71-21.5,1.79-26.08-12.17l2.24,9c2.47,8.74,5.66,17.94,6.53,23.03,1.7,9.9-11.88,33.39-11.6,64.23,0,0,11.11-12.64,21.95-26.79Z" style="fill:#a695ff; mix-blend-mode:multiply; opacity:.14;"/><g><g><path d="M360.11,211l31.93,6.53c2.16,.44,3.84,2.15,4.24,4.31l7.55,40.39c.76,4.07-3.13,7.45-7.06,6.13l-22.88-7.7c-1.47-.49-2.66-1.6-3.26-3.02l-16.6-39.22c-1.7-4.02,1.8-8.3,6.08-7.42Z" style="fill:#7d6aff;"/><path d="M357.3,211l31.93,6.53c2.16,.44,3.84,2.15,4.24,4.31l7.55,40.39c.76,4.07-3.13,7.45-7.06,6.13l-22.88-7.7c-1.47-.49-2.66-1.6-3.26-3.02l-16.6-39.22c-1.7-4.02,1.8-8.3,6.08-7.42Z" style="fill:#00004c;"/><path d="M407.53,255.09s-13.25,1.03-16.4,.08c-3.15-.95-7.06-7.43-8.52-9.49-1.46-2.06,.33-2.61,.33-2.61,0,0-.81-.62-2.17-2-1.35-1.36,1.02-2.49,1.02-2.49-.82-.54-.92-1.41-.52-1.95,.58-.8,1.96-.48,1.96-.48-.82-.59-.82-2.7,2.64-1.9,3.57,.83,8.38,2.89,8.38,2.89l4.93,.44-1.41-7.63s8.95,3.75,13.27,10.14l15.78,6.46s1.71,10.97-1.59,17.72c0,0-14.16-8.75-17.68-9.18Z" style="fill:#ffbba5;"/><path d="M413.06,254.81c-4.08-1.33-3.31-1.29-14.8-.46-9.29,.67-11.99-3.57-13.13-4.99,1.78,2.48,4.03,5.21,5.99,5.8,3.15,.95,16.4-.08,16.4-.08,1.33,.16,4.2,1.52,7.23,3.14-.02-1.44-.35-2.98-1.7-3.42Z" style="fill:#ff9e7c;"/><path d="M383.22,236.14s6.92,3.71,8.17,4.38c1.24,.67,2.84,.63,2.84,.63" style="fill:none; stroke:#ff9e7c; stroke-linecap:round; stroke-linejoin:round; stroke-width:.61px;"/><path d="M381.78,238.58s6.75,5.48,7.92,6.21c1.18,.73,6.77,1.75,6.77,1.75" style="fill:none; stroke:#ff9e7c; stroke-linecap:round; stroke-linejoin:round; stroke-width:.61px;"/><path d="M382.93,243.07s6.62,6.78,8.34,7.39c1.73,.61,5.21,1.12,5.21,1.12" style="fill:none; stroke:#ff9e7c; stroke-linecap:round; stroke-linejoin:round; stroke-width:.61px;"/></g><g><path d="M469.73,276.06c11-3.88,9.5-27.15,5-50.65-9.03-47.16-18.9-50.74-18.9-50.74-29.64,4.42-12.08,59.09-7.23,73.03-5.33-2.45-33.83-6.96-33.83-6.96-3.42-1.15-7.58,14.95-2.79,17.48,10.38,5.47,42.6,19.17,57.75,17.83Z" style="fill:#a695ff;"/><g><path d="M448.6,247.72s8.38,2.27,14.38,6.02c0,0-5.62-6-15.94-10.66l1.56,4.65Z" style="fill:#a695ff; mix-blend-mode:multiply; opacity:.14;"/><path d="M469.73,276.06c9.31-3.28,9.66-20.45,6.83-39.89,4.8,33.63-15.83,34.3-29.52,30.06-13.4-4.16-36.23-12.21-37.18-12.54,.16,2.11,.8,3.84,2.12,4.54,10.38,5.47,42.6,19.17,57.75,17.83Z" style="fill:#a695ff; mix-blend-mode:multiply; opacity:.14;"/></g></g></g></g><g><g><path d="M280.71,315.46h57.34v5.58h-57.34c-.76,0-1.37-.62-1.37-1.37v-2.83c0-.76,.62-1.37,1.37-1.37Z" style="fill:#5b3fda;"/><path d="M338.32,315.46l36.54,3.18c.62,.05,1.09,.57,1.09,1.19h0c0,.66-.54,1.2-1.2,1.2h-36.54c-.66,0-1.2-.54-1.2-1.2v-3.18c0-.7,.6-1.26,1.3-1.19Z" style="fill:#7d6aff;"/></g><g><path d="M170.08,289.96h156.97c6.81,0,11.85-6.34,10.32-12.98l-25.24-109.33c-1.11-4.81-5.39-8.21-10.32-8.21H144.84c-6.81,0-11.85,6.34-10.32,12.98l25.24,109.33c1.11,4.81,5.39,8.21,10.32,8.21Z" style="fill:#7d6aff;"/><path d="M162.46,289.96h156.97c6.81,0,11.85-6.34,10.32-12.98l-25.24-109.33c-1.11-4.81-5.39-8.21-10.32-8.21H137.22c-6.81,0-11.85,6.34-10.32,12.98l25.24,109.33c1.11,4.81,5.39,8.21,10.32,8.21Z" style="fill:#000067;"/><path d="M215.8,247.23c.17-2.45,2.21-4.35,4.67-4.35h24.75c.59,0,1.07,.48,1.07,1.07h0c0,.59-.48,1.07-1.07,1.07h-1.52c-.5,0-.91,.38-.94,.88l-4.64,65.77c-.23,3.25,2.35,6.01,5.6,6.01h15.52c.95,0,1.71,.77,1.71,1.71h0c0,.95-.77,1.71-1.71,1.71h-43.63c-2.71,0-4.86-2.3-4.67-5.01l4.86-68.87Z" style="fill:#7d6aff;"/></g></g><path d="M565.2,326.01H35.45c-1.35,0-2.45-1.1-2.45-2.45h0c0-1.35,1.1-2.45,2.45-2.45H565.2c1.35,0,2.45,1.1,2.45,2.45h0c0,1.35-1.1,2.45-2.45,2.45Z" style="fill:#00004c;"/><path d="M584.62,326.01h-8.77c-1.35,0-2.45-1.1-2.45-2.45h0c0-1.35,1.1-2.45,2.45-2.45h8.77c1.35,0,2.45,1.1,2.45,2.45h0c0,1.35-1.1,2.45-2.45,2.45Z" style="fill:#00004c;"/><g><ellipse cx="93.75" cy="296.24" rx="15.43" ry="1.12" style="fill:#000067;"/><g><path d="M91.12,293.85c.13-3.64,1.12-7.36,3.45-10.16,3.98-4.79,11.1-6.15,14.89-11.09,2.32-3.02,3.47-7.4,7.05-8.71,3.22-1.18,6.65,.81,10.05,1.24,2.32,.29,4.69-.16,7.01,.12,2.32,.28,4.81,1.63,5.25,3.93,.52,2.71-2.04,5.05-4.6,6.1-2.56,1.05-5.48,1.51-7.49,3.4-2.19,2.06-2.8,5.36-4.85,7.56-3.5,3.74-9.71,3.03-14.06,5.73-6.03,3.74-6.14,12.9-12.16,16.35-3.4,1.95-4.19-.46-4.16-3.37,.03-3.71-.51-7.41-.38-11.1Z" style="fill:#6234fb;"/><path d="M94.62,306.13c3.55-16.35,16.42-30.33,32.42-35.2" style="fill:none; stroke:#e8edfe; stroke-linecap:round; stroke-linejoin:round; stroke-width:.62px;"/></g><g><path d="M95.23,291.52c-.31-3.63-1.5-7.29-3.97-9.97-4.22-4.58-11.4-5.57-15.44-10.31-2.47-2.9-3.85-7.21-7.49-8.33-3.27-1.01-6.6,1.15-9.97,1.75-2.3,.41-4.69,.08-7,.47-2.31,.4-4.72,1.87-5.04,4.19-.38,2.74,2.3,4.94,4.91,5.86,2.61,.92,5.55,1.23,7.66,3.02,2.29,1.95,3.07,5.21,5.23,7.3,3.68,3.56,9.85,2.53,14.34,5,6.21,3.43,6.8,12.56,12.98,15.71,3.5,1.78,4.16-.67,3.98-3.58-.22-3.7,.13-7.42-.19-11.11Z" style="fill:#8b85f5;"/><path d="M92.36,303.96c-4.38-16.14-17.96-29.44-34.19-33.5" style="fill:none; stroke:#e8edfe; stroke-linecap:round; stroke-linejoin:round; stroke-width:.62px;"/></g><g><path d="M75.24,280.96c.97-4.79,5.76-7.83,7.73-12.3,1.76-3.99,1.07-8.57,.77-12.92-.3-4.35,.04-9.23,3.19-12.24,2.52-2.4,6.27-3.04,9.01-5.19,2.12-1.67,3.47-4.1,5.22-6.15,1.76-2.05,4.31-3.81,6.97-3.33,2.82,.51,4.66,3.48,4.85,6.34,.19,2.86-.88,5.64-1.92,8.31-1.05,2.67-2.11,5.45-1.92,8.31,.44,6.47,7.15,11.54,6.63,18.01-.35,4.37-3.94,7.73-7.49,10.3-3.56,2.57-7.53,5.03-9.37,9.01-2.34,5.04,.34,20.55-9.24,14.22-5.93-3.92-15.97-14.72-14.43-22.38Z" style="fill:#7d6aff;"/><path d="M92.42,307.55s-8.15-36.37,11.01-68.46" style="fill:none; stroke:#e8edfe; stroke-linecap:round; stroke-linejoin:round; stroke-width:.62px;"/></g><g><path d="M109.25,296.24h-.07c0,.62-6.91,1.12-15.43,1.12s-15.43-.5-15.43-1.12h-.07s-9.22,5.87-9.22,13.41,9.08,11.45,9.08,11.45h31.29s9.08-3.91,9.08-11.45-9.22-13.41-9.22-13.41Z" style="fill:#b8b2ff;"/><path d="M116.72,315.15c-2.64,3.93-7.33,5.96-7.33,5.96h-31.29s-9.08-3.91-9.08-11.45c0-3.84,2.4-7.25,4.75-9.67,.04,.97,.3,1.92,.82,2.83,1.51,2.68,4.37,4.29,7.19,5.53,10.93,4.83,22.94,6.18,34.95,6.81Z" style="fill:#f6e2e0;"/><path d="M116.72,315.15c-2.64,3.93-7.33,5.96-7.33,5.96h-31.29s-9.08-3.91-9.08-11.45c0-3.84,2.4-7.25,4.75-9.67,.04,.97,.3,1.92,.82,2.83,1.51,2.68,4.37,4.29,7.19,5.53,10.93,4.83,22.94,6.18,34.95,6.81Z" style="fill:#968cf4;"/></g></g><g><g><rect x="106.24" y="49.25" width="31.83" height="29.89" rx="8.08" ry="8.08" transform="translate(244.3 128.39) rotate(180)" style="fill:#5143d0;"/><polygon points="124.9 79.14 133.24 85.22 132.57 79.14 124.9 79.14" style="fill:#5143d0;"/></g><path d="M127.45,66.93c-1.75-1.24-2.33-.2-3.44,1-1.1,1.2-3.83-1.9-3.83-1.9,0,0-2.73-3.1-1.4-4.04,1.33-.94,2.44-1.38,1.43-3.28-.95-1.79-1.81-2.73-2.39-2.71-.57,.01-1.36,.76-1.95,1.29-.58,.53-3.83,4.19,1.98,10.79,5.8,6.6,9.85,3.86,10.45,3.35,.6-.51,1.44-1.2,1.53-1.77,.08-.57-.73-1.54-2.39-2.71Z" style="fill:#e8edfe;"/></g><g><g><path d="M492.75,187.88h18.67c3.63,0,6.58,2.95,6.58,6.58v16.73c0,3.63-2.95,6.58-6.58,6.58h-18.67c-3.63,0-6.58-2.95-6.58-6.58v-16.73c0-3.63,2.95-6.58,6.58-6.58Z" style="fill:#ff4173;"/><polygon points="499.33 217.77 491 223.86 491.67 217.77 499.33 217.77" style="fill:#ff4173;"/></g><path d="M510.47,206.05l.42-1.9c.09-.4-.16-.79-.56-.88l-1.17-.26c-.3-.07-.53-.31-.57-.62-.06-.48-.17-.95-.33-1.41-.1-.29,0-.62,.24-.81l.93-.75c.32-.26,.37-.72,.11-1.04l-1.23-1.51c-.26-.32-.72-.37-1.04-.11l-.93,.75c-.24,.19-.58,.22-.84,.06-.2-.12-.41-.24-.63-.34-.22-.1-.44-.19-.67-.27-.29-.1-.49-.38-.49-.69v-1.2c-.01-.41-.34-.74-.75-.73h-1.95c-.41,.02-.74,.35-.73,.76v1.2c.01,.31-.18,.59-.47,.7-.45,.16-.89,.38-1.3,.64-.26,.17-.6,.14-.84-.05l-.94-.74c-.32-.25-.79-.2-1.04,.12l-1.2,1.53c-.25,.32-.2,.79,.12,1.04l.94,.74c.24,.19,.35,.51,.25,.81-.16,.46-.26,.94-.31,1.41-.03,.31-.26,.56-.56,.63l-1.16,.27c-.4,.09-.64,.49-.55,.89l.45,1.9c.09,.4,.49,.64,.89,.55l1.16-.27c.3-.07,.62,.05,.79,.31,.26,.4,.56,.78,.91,1.12,.22,.22,.27,.55,.14,.83l-.51,1.08c-.17,.37-.02,.81,.35,.98l1.76,.83c.37,.17,.81,.02,.98-.35l.51-1.08c.13-.28,.42-.45,.73-.42,.48,.05,.97,.05,1.45-.01,.31-.04,.6,.13,.74,.41l.53,1.07c.18,.37,.62,.52,.99,.34l1.75-.86c.37-.18,.52-.62,.34-.99l-.53-1.07c-.14-.28-.09-.61,.13-.83,.33-.34,.63-.72,.89-1.14,.16-.26,.48-.39,.78-.32l1.17,.26c.4,.09,.79-.16,.88-.56Zm-10.01,.47c-1.84-.87-2.62-3.06-1.75-4.9,.87-1.84,3.06-2.62,4.9-1.75,1.84,.87,2.62,3.06,1.75,4.9-.87,1.84-3.06,2.62-4.9,1.75Z" style="fill:#e8edfe;"/></g><g><path d="M419.14,122.69c1.24-3.95,1.92-8.24,1.92-12.71,0-19.91-13.22-36.27-29.81-36.27" style="fill:none; stroke:#e7edfd; stroke-linecap:round; stroke-linejoin:round; stroke-width:3px;"/><path d="M417.23,122.69c1.24-3.95,1.92-8.24,1.92-12.71,0-19.91-13.22-36.27-29.81-36.27" style="fill:none; stroke:#b8b2ff; stroke-linecap:round; stroke-linejoin:round; stroke-width:3px;"/><g><g><path d="M418.03,129.71s-3.22,18.68-27.25,18.06" style="fill:none; stroke:#00004c; stroke-miterlimit:10; stroke-width:1.48px;"/><path d="M384.48,148.48c.11,1.72,2.94,2.94,6.33,2.73,3.39-.21,6.05-1.78,5.94-3.49-.11-1.72-2.94-2.94-6.33-2.73-3.39,.21-6.05,1.78-5.94,3.49Z" style="fill:#00004c;"/></g><g><rect x="408.82" y="109.71" width="20.05" height="27.27" rx="8.97" ry="8.97" style="fill:#7d6afe;"/><rect x="413.1" y="113.37" width="14.66" height="19.94" rx="5.42" ry="5.42" style="fill:#e7edfd;"/><rect x="413.58" y="113.37" width="14.66" height="19.94" rx="5.42" ry="5.42" style="fill:#b8b2ff;"/></g><path d="M425.54,114.11c.52,4.33,.66,14.9-9.64,18.22,.88,.62,1.95,.98,3.1,.98h3.82c2.99,0,5.42-2.43,5.42-5.42v-9.1c0-2-1.09-3.75-2.71-4.69Z" style="fill:#a695ff; mix-blend-mode:multiply; opacity:.14;"/></g></g><g><rect x="222.92" y="47.72" width="95" height="38.67" rx="14" ry="14" style="fill:#ff4173;"/><g><path d="M303.02,63.23l-.82,1.66c-.12,.24-.34,.4-.6,.44l-1.83,.27c-.65,.09-.91,.9-.44,1.36l1.32,1.29c.19,.18,.27,.45,.23,.7l-.31,1.82c-.11,.65,.57,1.15,1.16,.84l1.63-.86c.23-.12,.51-.12,.74,0l1.63,.86c.58,.31,1.27-.19,1.16-.84l-.31-1.82c-.04-.26,.04-.52,.23-.7l1.32-1.29c.47-.46,.21-1.26-.44-1.36l-1.83-.27c-.26-.04-.48-.2-.6-.44l-.82-1.66c-.29-.59-1.14-.59-1.43,0Z" style="fill:#e8edfe;"/><path d="M286.36,63.23l-.82,1.66c-.12,.24-.34,.4-.6,.44l-1.83,.27c-.65,.09-.91,.9-.44,1.36l1.32,1.29c.19,.18,.27,.45,.23,.7l-.31,1.82c-.11,.65,.57,1.15,1.16,.84l1.63-.86c.23-.12,.51-.12,.74,0l1.63,.86c.58,.31,1.27-.19,1.16-.84l-.31-1.82c-.04-.26,.04-.52,.23-.7l1.32-1.29c.47-.46,.21-1.26-.44-1.36l-1.83-.27c-.26-.04-.48-.2-.6-.44l-.82-1.66c-.29-.59-1.14-.59-1.43,0Z" style="fill:#e8edfe;"/><path d="M269.71,63.23l-.82,1.66c-.12,.24-.34,.4-.6,.44l-1.83,.27c-.65,.09-.91,.9-.44,1.36l1.32,1.29c.19,.18,.27,.45,.23,.7l-.31,1.82c-.11,.65,.57,1.15,1.16,.84l1.63-.86c.23-.12,.51-.12,.74,0l1.63,.86c.58,.31,1.27-.19,1.16-.84l-.31-1.82c-.04-.26,.04-.52,.23-.7l1.32-1.29c.47-.46,.21-1.26-.44-1.36l-1.83-.27c-.26-.04-.48-.2-.6-.44l-.82-1.66c-.29-.59-1.14-.59-1.43,0Z" style="fill:#e8edfe;"/><path d="M253.06,63.23l-.82,1.66c-.12,.24-.34,.4-.6,.44l-1.83,.27c-.65,.09-.91,.9-.44,1.36l1.32,1.29c.19,.18,.27,.45,.23,.7l-.31,1.82c-.11,.65,.57,1.15,1.16,.84l1.63-.86c.23-.12,.51-.12,.74,0l1.63,.86c.58,.31,1.27-.19,1.16-.84l-.31-1.82c-.04-.26,.04-.52,.23-.7l1.32-1.29c.47-.46,.21-1.26-.44-1.36l-1.83-.27c-.26-.04-.48-.2-.6-.44l-.82-1.66c-.29-.59-1.14-.59-1.43,0Z" style="fill:#e8edfe;"/><path d="M236.4,63.23l-.82,1.66c-.12,.24-.34,.4-.6,.44l-1.83,.27c-.65,.09-.91,.9-.44,1.36l1.32,1.29c.19,.18,.27,.45,.23,.7l-.31,1.82c-.11,.65,.57,1.15,1.16,.84l1.63-.86c.23-.12,.51-.12,.74,0l1.63,.86c.58,.31,1.27-.19,1.16-.84l-.31-1.82c-.04-.26,.04-.52,.23-.7l1.32-1.29c.47-.46,.21-1.26-.44-1.36l-1.83-.27c-.26-.04-.48-.2-.6-.44l-.82-1.66c-.29-.59-1.14-.59-1.43,0Z" style="fill:#e8edfe;"/></g><polygon points="238.5 84.9 235.17 93.89 248.26 84.06 238.5 84.9" style="fill:#ff4173;"/></g><g><path d="M143.49,144.51h-62c-3.87,0-7.72-3.13-8.62-7l-3.39-14.67c-.89-3.87,1.52-7,5.38-7h62c3.87,0,7.72,3.13,8.62,7l3.39,14.67c.89,3.87-1.52,7-5.38,7Z" style="fill:#00b4ff;"/><g><g><line x1="79.64" y1="125.68" x2="104.64" y2="125.68" style="fill:none; stroke:#e8edfe; stroke-linecap:round; stroke-miterlimit:10; stroke-width:2px;"/><line x1="110.73" y1="125.68" x2="117.64" y2="125.68" style="fill:none; stroke:#e8edfe; stroke-linecap:round; stroke-miterlimit:10; stroke-width:2px;"/></g><g><line x1="81.72" y1="134.68" x2="125.22" y2="134.68" style="fill:none; stroke:#e8edfe; stroke-linecap:round; stroke-miterlimit:10; stroke-width:2px;"/><line x1="131.8" y1="134.68" x2="138.72" y2="134.68" style="fill:none; stroke:#e8edfe; stroke-linecap:round; stroke-miterlimit:10; stroke-width:2px;"/></g></g></g><g><polygon points="503.82 121.2 502.05 131.49 515.95 120.07 503.82 121.2" style="fill:#5b3fda;"/><rect x="491.9" y="76.46" width="73.77" height="46.49" rx="11.62" ry="11.62" style="fill:#5b3fda;"/><g><path d="M507.62,105.67v-2.34l4.94-4.62c.35-.33,.61-.62,.78-.87,.17-.25,.28-.48,.34-.69,.06-.21,.08-.4,.08-.58,0-.43-.14-.76-.42-1-.28-.24-.71-.36-1.27-.36-.48,0-.92,.11-1.34,.32-.42,.21-.75,.54-1.02,.96l-2.77-1.55c.49-.83,1.2-1.5,2.13-2,.93-.5,2.04-.75,3.34-.75,1.02,0,1.91,.16,2.68,.49,.77,.33,1.37,.79,1.8,1.4,.43,.6,.65,1.31,.65,2.13,0,.43-.06,.85-.17,1.27-.11,.42-.33,.87-.65,1.34s-.8,1-1.42,1.58l-3.92,3.62-.62-1.32h7.15v2.96h-10.28Z" style="fill:#e8edfe;"/><path d="M518.77,103.14v-2.43l5.93-8.25h3.87l-5.75,8.25-1.77-.53h10.32v2.96h-12.59Zm6.98,2.53v-2.53l.11-2.96v-2.25h3.53v7.74h-3.64Z" style="fill:#e8edfe;"/><path d="M531.19,107.55l6.23-17.78h3.19l-6.23,17.78h-3.19Z" style="fill:#e8edfe;"/><path d="M542.42,105.67l5.15-11.83,1,1.59h-6.7l1.53-1.72v3.75h-3.19v-5h10.94v2.34l-4.66,10.87h-4.08Z" style="fill:#e8edfe;"/></g></g></g></g></g></svg>