<?xml version="1.0" encoding="UTF-8"?><svg xmlns="http://www.w3.org/2000/svg" viewBox="0 0 600 350"><g style="isolation:isolate;"><g id="a"/><g id="b"/><g id="c"/><g id="d"/><g id="e"/><g id="f"/><g id="g"/><g id="h"/><g id="i"/><g id="j"><g><path d="M96.99,327.38c.35,.36-2.65,.11-2.29,.45,.23,.21,.46,.42,.69,.61h25.02c2.05-.96,3.49-1.82,3.99-2.12,.13-.08,.19-.12,.19-.12l2.66,.12,23.85,1.06,216.87-1.06,46.32-.23c64.37-83.82,52.31-146.05,26.43-184.89-29.75-44.64-117.84-37.67-131.99-37.63-14.15,.04-22.61-9.69-31.71-32.64-9.11-22.95-32.88-21.78-64.64-14.5-31.76,7.28-136.26,62.91-142.38,153.74-3.61,53.67,10.63,100.38,26.99,117.21Z" style="fill:#e3f4ff;"/><g><rect x="346.23" y="39.78" width="163.01" height="286.53" style="fill:#272f47;"/><rect x="323.3" y="39.78" width="163.01" height="286.53" style="fill:#4f597b;"/><rect x="332.53" y="46.5" width="146.89" height="73.52" style="fill:#272f47;"/><rect x="408.53" y="153.03" width="70.89" height="31.96" style="fill:#272f47;"/><rect x="332.53" y="153.03" width="69.71" height="31.96" style="fill:#272f47;"/><g><g><rect x="406.48" y="57.77" width="69.25" height="19.42" rx="2.58" ry="2.58" style="fill:#48577c;"/><g style="opacity:.5;"><rect x="406.48" y="71.67" width="69.25" height="1.23" transform="translate(882.22 144.56) rotate(180)" style="fill:#437390;"/></g><rect x="426.8" y="60.7" width=".82" height="9.18" transform="translate(854.42 130.58) rotate(180)" style="fill:#437390;"/><rect x="421.64" y="60.7" width=".82" height="9.18" transform="translate(844.1 130.58) rotate(180)" style="fill:#437390;"/><rect x="416.48" y="60.7" width=".82" height="9.18" transform="translate(833.77 130.58) rotate(180)" style="fill:#437390;"/><rect x="411.31" y="60.7" width=".82" height="9.18" transform="translate(823.45 130.58) rotate(180)" style="fill:#437390;"/><g style="opacity:.5;"><circle cx="466.71" cy="65.29" r="2.46" transform="translate(327.51 515.52) rotate(-80.78)" style="fill:#9ae389;"/></g><g style="opacity:.5;"><circle cx="459.17" cy="65.29" r="2.46" transform="translate(321.17 508.07) rotate(-80.78)" style="fill:#9ae389;"/></g><g style="opacity:.5;"><circle cx="451.62" cy="65.29" r="2.46" transform="translate(354.48 511.14) rotate(-85.93)" style="fill:#9ae389;"/></g><path d="M409.06,77.3v-.23c-1.36,0-2.46-1.1-2.46-2.46v-14.26c0-1.36,1.1-2.46,2.46-2.46h64.1c1.36,0,2.46,1.1,2.46,2.46v14.26h.23v-14.26c0-1.49-1.21-2.7-2.69-2.7h-64.1c-1.49,0-2.7,1.21-2.7,2.7v14.26c0,1.49,1.21,2.69,2.7,2.69Z"/><rect x="406.48" y="71.55" width="69.25" height=".23"/><path d="M466.71,67.86c1.42,0,2.57-1.15,2.57-2.57s-1.15-2.57-2.57-2.57v.23c1.29,0,2.34,1.05,2.34,2.34s-1.05,2.34-2.34,2.34v.23Z"/><path d="M461.67,65.87c.15-.67,.04-1.36-.32-1.94-.36-.58-.93-.99-1.6-1.14-.67-.15-1.36-.04-1.94,.32-.58,.36-.99,.93-1.14,1.6l.23,.05c.29-1.26,1.55-2.04,2.81-1.75,.61,.14,1.13,.51,1.46,1.04,.33,.53,.44,1.16,.29,1.77l.23,.05Z"/><path d="M451.6,67.85c.48,0,.96-.14,1.37-.4,.58-.37,.98-.94,1.13-1.61l-.23-.05c-.14,.61-.5,1.13-1.03,1.46-.53,.33-1.15,.44-1.76,.31-.61-.14-1.13-.5-1.46-1.03-.33-.53-.44-1.15-.31-1.76l-.23-.05c-.15,.67-.03,1.36,.34,1.94,.37,.58,.94,.98,1.61,1.13,.19,.04,.38,.06,.57,.06Z"/><rect x="427.5" y="60.7" width=".23" height="9.18"/><rect x="422.34" y="60.7" width=".23" height="9.18"/><rect x="417.18" y="60.7" width=".23" height="9.18"/><rect x="412.02" y="60.7" width=".23" height="9.18"/><rect x="439.85" y="61.91" width=".23" height="4.56" transform="translate(172.29 419.21) rotate(-61.29)"/><rect x="438.74" y="63.02" width=".23" height="4.56" transform="translate(170.8 418.86) rotate(-61.3)"/></g><g><rect x="406.48" y="77.19" width="69.25" height="19.42" rx="2.58" ry="2.58" style="fill:#48577c;"/><g style="opacity:.5;"><rect x="406.48" y="91.09" width="69.25" height="1.23" transform="translate(882.22 183.41) rotate(180)" style="fill:#437390;"/></g><rect x="426.8" y="80.12" width=".82" height="9.18" transform="translate(854.42 169.42) rotate(180)" style="fill:#437390;"/><rect x="421.64" y="80.12" width=".82" height="9.18" transform="translate(844.1 169.42) rotate(180)" style="fill:#437390;"/><rect x="416.48" y="80.12" width=".82" height="9.18" transform="translate(833.77 169.42) rotate(180)" style="fill:#437390;"/><rect x="411.31" y="80.12" width=".82" height="9.18" transform="translate(823.45 169.42) rotate(180)" style="fill:#437390;"/><g style="opacity:.5;"><path d="M464.25,84.71c0,1.36,1.1,2.46,2.46,2.46s2.46-1.1,2.46-2.46-1.1-2.46-2.46-2.46-2.46,1.1-2.46,2.46Z" style="fill:#9ae389;"/></g><g style="opacity:.5;"><path d="M456.71,84.71c0,1.36,1.1,2.46,2.46,2.46s2.46-1.1,2.46-2.46-1.1-2.46-2.46-2.46-2.46,1.1-2.46,2.46Z" style="fill:#9ae389;"/></g><g style="opacity:.5;"><path d="M449.16,84.71c0,1.36,1.1,2.46,2.46,2.46s2.46-1.1,2.46-2.46-1.1-2.46-2.46-2.46-2.46,1.1-2.46,2.46Z" style="fill:#9ae389;"/></g><path d="M409.06,96.72v-.23c-1.36,0-2.46-1.1-2.46-2.46v-14.26c0-1.36,1.1-2.46,2.46-2.46h64.1c1.36,0,2.46,1.1,2.46,2.46v14.26h.23v-14.26c0-1.49-1.21-2.69-2.69-2.69h-64.1c-1.49,0-2.7,1.21-2.7,2.69v14.26c0,1.49,1.21,2.69,2.7,2.69Z"/><rect x="406.48" y="90.97" width="69.25" height=".23"/><path d="M466.71,87.29c1.42,0,2.57-1.15,2.57-2.57s-1.15-2.57-2.57-2.57v.23c1.29,0,2.34,1.05,2.34,2.34s-1.05,2.34-2.34,2.34v.23Z"/><path d="M461.67,85.29c.15-.67,.04-1.36-.32-1.94-.36-.58-.93-.99-1.6-1.14-.67-.15-1.36-.04-1.94,.32-.58,.36-.99,.93-1.14,1.6l.23,.05c.29-1.26,1.55-2.04,2.81-1.75,.61,.14,1.13,.51,1.46,1.04,.33,.53,.44,1.16,.29,1.77l.23,.05Z"/><path d="M451.6,87.27c.48,0,.96-.14,1.37-.4,.58-.37,.98-.94,1.13-1.61l-.23-.05c-.14,.61-.5,1.13-1.03,1.46-.53,.33-1.15,.44-1.76,.31-.61-.14-1.13-.5-1.46-1.03-.33-.53-.44-1.15-.31-1.76l-.23-.05c-.15,.67-.03,1.36,.34,1.94,.37,.58,.94,.98,1.61,1.13,.19,.04,.38,.06,.57,.06Z"/><rect x="427.5" y="80.12" width=".23" height="9.18"/><rect x="422.34" y="80.12" width=".23" height="9.18"/><rect x="417.18" y="80.12" width=".23" height="9.18"/><rect x="412.02" y="80.12" width=".23" height="9.18"/><polygon points="441.91 84.82 442.02 84.61 438.03 82.42 437.91 82.62 441.91 84.82"/><rect x="438.74" y="82.44" width=".23" height="4.56" transform="translate(153.76 428.95) rotate(-61.29)"/></g><g><rect x="406.48" y="96.6" width="69.25" height="19.42" rx="2.58" ry="2.58" style="fill:#48577c;"/><g style="opacity:.5;"><rect x="406.48" y="110.5" width="69.25" height="1.23" transform="translate(882.22 222.23) rotate(180)" style="fill:#437390;"/></g><rect x="426.8" y="99.53" width=".82" height="9.18" transform="translate(854.42 208.25) rotate(180)" style="fill:#437390;"/><rect x="421.64" y="99.53" width=".82" height="9.18" transform="translate(844.1 208.25) rotate(180)" style="fill:#437390;"/><rect x="416.48" y="99.53" width=".82" height="9.18" transform="translate(833.77 208.25) rotate(180)" style="fill:#437390;"/><rect x="411.31" y="99.53" width=".82" height="9.18" transform="translate(823.45 208.25) rotate(180)" style="fill:#437390;"/><g style="opacity:.5;"><path d="M464.25,104.12c0,1.36,1.1,2.46,2.46,2.46s2.46-1.1,2.46-2.46-1.1-2.46-2.46-2.46-2.46,1.1-2.46,2.46Z" style="fill:#9ae389;"/></g><g style="opacity:.5;"><path d="M456.71,104.12c0,1.36,1.1,2.46,2.46,2.46s2.46-1.1,2.46-2.46-1.1-2.46-2.46-2.46-2.46,1.1-2.46,2.46Z" style="fill:#9ae389;"/></g><g style="opacity:.5;"><path d="M449.16,104.12c0,1.36,1.1,2.46,2.46,2.46s2.46-1.1,2.46-2.46-1.1-2.46-2.46-2.46-2.46,1.1-2.46,2.46Z" style="fill:#9ae389;"/></g><path d="M409.06,116.14v-.23c-1.36,0-2.46-1.1-2.46-2.46v-14.26c0-1.36,1.1-2.46,2.46-2.46h64.1c1.36,0,2.46,1.1,2.46,2.46v14.26h.23v-14.26c0-1.49-1.21-2.69-2.69-2.69h-64.1c-1.49,0-2.7,1.21-2.7,2.69v14.26c0,1.49,1.21,2.69,2.7,2.69Z"/><rect x="406.48" y="110.38" width="69.25" height=".23"/><path d="M466.71,106.7c1.42,0,2.57-1.15,2.57-2.57s-1.15-2.57-2.57-2.57v.23c1.29,0,2.34,1.05,2.34,2.34s-1.05,2.34-2.34,2.34v.23Z"/><path d="M461.67,104.7c.15-.67,.04-1.36-.32-1.94-.36-.58-.93-.99-1.6-1.14-.67-.15-1.36-.04-1.94,.32-.58,.36-.99,.93-1.14,1.6l.23,.05c.29-1.26,1.55-2.04,2.81-1.75,.61,.14,1.13,.51,1.46,1.04,.33,.53,.44,1.16,.29,1.77l.23,.05Z"/><path d="M451.6,106.69c.48,0,.96-.14,1.37-.4,.58-.37,.98-.94,1.13-1.61l-.23-.05c-.14,.61-.5,1.13-1.03,1.46-.53,.33-1.15,.44-1.76,.31-.61-.14-1.13-.5-1.46-1.03-.33-.53-.44-1.15-.31-1.76l-.23-.05c-.15,.67-.03,1.36,.34,1.94,.37,.58,.94,.98,1.61,1.13,.19,.04,.38,.06,.57,.06Z"/><rect x="427.5" y="99.53" width=".23" height="9.18"/><rect x="422.34" y="99.53" width=".23" height="9.18"/><rect x="417.18" y="99.53" width=".23" height="9.18"/><rect x="412.02" y="99.53" width=".23" height="9.18"/><rect x="439.85" y="100.75" width=".23" height="4.56" transform="translate(138.21 439.37) rotate(-61.28)"/><rect x="438.74" y="101.86" width=".23" height="4.56" transform="translate(136.71 439.02) rotate(-61.29)"/></g></g><g><g><rect x="335.45" y="57.77" width="69.25" height="19.42" rx="2.58" ry="2.58" style="fill:#48577c;"/><g style="opacity:.5;"><rect x="335.45" y="71.67" width="69.25" height="1.23" transform="translate(740.16 144.56) rotate(180)" style="fill:#437390;"/></g><rect x="355.77" y="60.7" width=".82" height="9.18" transform="translate(712.36 130.58) rotate(180)" style="fill:#437390;"/><rect x="350.61" y="60.7" width=".82" height="9.18" transform="translate(702.04 130.58) rotate(180)" style="fill:#437390;"/><rect x="345.45" y="60.7" width=".82" height="9.18" transform="translate(691.71 130.58) rotate(180)" style="fill:#437390;"/><rect x="340.28" y="60.7" width=".82" height="9.18" transform="translate(681.39 130.58) rotate(180)" style="fill:#437390;"/><g style="opacity:.5;"><circle cx="395.68" cy="65.29" r="2.46" transform="translate(267.85 445.4) rotate(-80.78)" style="fill:#9ae389;"/></g><g style="opacity:.5;"><circle cx="388.14" cy="65.29" r="2.46" transform="translate(261.52 437.96) rotate(-80.78)" style="fill:#9ae389;"/></g><g style="opacity:.5;"><circle cx="380.59" cy="65.29" r="2.46" transform="translate(288.49 440.29) rotate(-85.93)" style="fill:#9ae389;"/></g><path d="M338.03,77.3v-.23c-1.36,0-2.46-1.1-2.46-2.46v-14.26c0-1.36,1.1-2.46,2.46-2.46h64.1c1.36,0,2.46,1.1,2.46,2.46v14.26h.23v-14.26c0-1.49-1.21-2.7-2.69-2.7h-64.1c-1.49,0-2.7,1.21-2.7,2.7v14.26c0,1.49,1.21,2.69,2.7,2.69Z"/><rect x="335.45" y="71.55" width="69.25" height=".23"/><path d="M395.68,67.86c1.42,0,2.57-1.15,2.57-2.57s-1.15-2.57-2.57-2.57v.23c1.29,0,2.34,1.05,2.34,2.34s-1.05,2.34-2.34,2.34v.23Z"/><path d="M390.64,65.87c.15-.67,.04-1.36-.32-1.94-.36-.58-.93-.99-1.6-1.14-.67-.15-1.36-.04-1.94,.32-.58,.36-.99,.93-1.14,1.6l.23,.05c.29-1.26,1.55-2.04,2.81-1.75,.61,.14,1.13,.51,1.46,1.04,.33,.53,.44,1.16,.29,1.77l.23,.05Z"/><path d="M380.57,67.85c.48,0,.96-.14,1.37-.4,.58-.37,.98-.94,1.13-1.61l-.23-.05c-.14,.61-.5,1.13-1.03,1.46-.53,.33-1.15,.44-1.76,.31-.61-.14-1.13-.5-1.46-1.03-.33-.53-.44-1.15-.31-1.76l-.23-.05c-.15,.67-.03,1.36,.34,1.94,.37,.58,.94,.98,1.61,1.13,.19,.04,.38,.06,.57,.06Z"/><rect x="356.47" y="60.7" width=".23" height="9.18"/><rect x="351.31" y="60.7" width=".23" height="9.18"/><rect x="346.15" y="60.7" width=".23" height="9.18"/><rect x="340.99" y="60.7" width=".23" height="9.18"/><rect x="368.82" y="61.91" width=".23" height="4.56" transform="translate(135.38 356.92) rotate(-61.29)"/><rect x="367.71" y="63.02" width=".23" height="4.56" transform="translate(133.89 356.56) rotate(-61.3)"/></g><g><rect x="335.45" y="77.19" width="69.25" height="19.42" rx="2.58" ry="2.58" style="fill:#48577c;"/><g style="opacity:.5;"><rect x="335.45" y="91.09" width="69.25" height="1.23" transform="translate(740.16 183.41) rotate(180)" style="fill:#437390;"/></g><rect x="355.77" y="80.12" width=".82" height="9.18" transform="translate(712.36 169.42) rotate(180)" style="fill:#437390;"/><rect x="350.61" y="80.12" width=".82" height="9.18" transform="translate(702.04 169.42) rotate(180)" style="fill:#437390;"/><rect x="345.45" y="80.12" width=".82" height="9.18" transform="translate(691.71 169.42) rotate(180)" style="fill:#437390;"/><rect x="340.28" y="80.12" width=".82" height="9.18" transform="translate(681.39 169.42) rotate(180)" style="fill:#437390;"/><g style="opacity:.5;"><path d="M393.23,84.71c0,1.36,1.1,2.46,2.46,2.46s2.46-1.1,2.46-2.46-1.1-2.46-2.46-2.46-2.46,1.1-2.46,2.46Z" style="fill:#9ae389;"/></g><g style="opacity:.5;"><path d="M385.68,84.71c0,1.36,1.1,2.46,2.46,2.46s2.46-1.1,2.46-2.46-1.1-2.46-2.46-2.46-2.46,1.1-2.46,2.46Z" style="fill:#9ae389;"/></g><g style="opacity:.5;"><path d="M378.13,84.71c0,1.36,1.1,2.46,2.46,2.46s2.46-1.1,2.46-2.46-1.1-2.46-2.46-2.46-2.46,1.1-2.46,2.46Z" style="fill:#9ae389;"/></g><path d="M338.03,96.72v-.23c-1.36,0-2.46-1.1-2.46-2.46v-14.26c0-1.36,1.1-2.46,2.46-2.46h64.1c1.36,0,2.46,1.1,2.46,2.46v14.26h.23v-14.26c0-1.49-1.21-2.69-2.69-2.69h-64.1c-1.49,0-2.7,1.21-2.7,2.69v14.26c0,1.49,1.21,2.69,2.7,2.69Z"/><rect x="335.45" y="90.97" width="69.25" height=".23"/><path d="M395.68,87.29c1.42,0,2.57-1.15,2.57-2.57s-1.15-2.57-2.57-2.57v.23c1.29,0,2.34,1.05,2.34,2.34s-1.05,2.34-2.34,2.34v.23Z"/><path d="M390.64,85.29c.15-.67,.04-1.36-.32-1.94-.36-.58-.93-.99-1.6-1.14-.67-.15-1.36-.04-1.94,.32-.58,.36-.99,.93-1.14,1.6l.23,.05c.29-1.26,1.55-2.04,2.81-1.75,.61,.14,1.13,.51,1.46,1.04,.33,.53,.44,1.16,.29,1.77l.23,.05Z"/><path d="M380.57,87.27c.48,0,.96-.14,1.37-.4,.58-.37,.98-.94,1.13-1.61l-.23-.05c-.14,.61-.5,1.13-1.03,1.46-.53,.33-1.15,.44-1.76,.31-.61-.14-1.13-.5-1.46-1.03-.33-.53-.44-1.15-.31-1.76l-.23-.05c-.15,.67-.03,1.36,.34,1.94,.37,.58,.94,.98,1.61,1.13,.19,.04,.38,.06,.57,.06Z"/><rect x="356.47" y="80.12" width=".23" height="9.18"/><rect x="351.31" y="80.12" width=".23" height="9.18"/><rect x="346.15" y="80.12" width=".23" height="9.18"/><rect x="340.99" y="80.12" width=".23" height="9.18"/><polygon points="370.88 84.82 370.99 84.61 367 82.42 366.88 82.62 370.88 84.82"/><rect x="367.71" y="82.44" width=".23" height="4.56" transform="translate(116.84 366.65) rotate(-61.29)"/></g><g><rect x="335.45" y="96.6" width="69.25" height="19.42" rx="2.58" ry="2.58" style="fill:#48577c;"/><g style="opacity:.5;"><rect x="335.45" y="110.5" width="69.25" height="1.23" transform="translate(740.16 222.23) rotate(180)" style="fill:#437390;"/></g><rect x="355.77" y="99.53" width=".82" height="9.18" transform="translate(712.36 208.25) rotate(180)" style="fill:#437390;"/><rect x="350.61" y="99.53" width=".82" height="9.18" transform="translate(702.04 208.25) rotate(180)" style="fill:#437390;"/><rect x="345.45" y="99.53" width=".82" height="9.18" transform="translate(691.71 208.25) rotate(180)" style="fill:#437390;"/><rect x="340.28" y="99.53" width=".82" height="9.18" transform="translate(681.39 208.25) rotate(180)" style="fill:#437390;"/><g style="opacity:.5;"><path d="M393.23,104.12c0,1.36,1.1,2.46,2.46,2.46s2.46-1.1,2.46-2.46-1.1-2.46-2.46-2.46-2.46,1.1-2.46,2.46Z" style="fill:#9ae389;"/></g><g style="opacity:.5;"><path d="M385.68,104.12c0,1.36,1.1,2.46,2.46,2.46s2.46-1.1,2.46-2.46-1.1-2.46-2.46-2.46-2.46,1.1-2.46,2.46Z" style="fill:#9ae389;"/></g><g style="opacity:.5;"><path d="M378.13,104.12c0,1.36,1.1,2.46,2.46,2.46s2.46-1.1,2.46-2.46-1.1-2.46-2.46-2.46-2.46,1.1-2.46,2.46Z" style="fill:#9ae389;"/></g><path d="M338.03,116.14v-.23c-1.36,0-2.46-1.1-2.46-2.46v-14.26c0-1.36,1.1-2.46,2.46-2.46h64.1c1.36,0,2.46,1.1,2.46,2.46v14.26h.23v-14.26c0-1.49-1.21-2.69-2.69-2.69h-64.1c-1.49,0-2.7,1.21-2.7,2.69v14.26c0,1.49,1.21,2.69,2.7,2.69Z"/><rect x="335.45" y="110.38" width="69.25" height=".23"/><path d="M395.68,106.7c1.42,0,2.57-1.15,2.57-2.57s-1.15-2.57-2.57-2.57v.23c1.29,0,2.34,1.05,2.34,2.34s-1.05,2.34-2.34,2.34v.23Z"/><path d="M390.64,104.7c.15-.67,.04-1.36-.32-1.94-.36-.58-.93-.99-1.6-1.14-.67-.15-1.36-.04-1.94,.32-.58,.36-.99,.93-1.14,1.6l.23,.05c.29-1.26,1.55-2.04,2.81-1.75,.61,.14,1.13,.51,1.46,1.04,.33,.53,.44,1.16,.29,1.77l.23,.05Z"/><path d="M380.57,106.69c.48,0,.96-.14,1.37-.4,.58-.37,.98-.94,1.13-1.61l-.23-.05c-.14,.61-.5,1.13-1.03,1.46-.53,.33-1.15,.44-1.76,.31-.61-.14-1.13-.5-1.46-1.03-.33-.53-.44-1.15-.31-1.76l-.23-.05c-.15,.67-.03,1.36,.34,1.94,.37,.58,.94,.98,1.61,1.13,.19,.04,.38,.06,.57,.06Z"/><rect x="356.47" y="99.53" width=".23" height="9.18"/><rect x="351.31" y="99.53" width=".23" height="9.18"/><rect x="346.15" y="99.53" width=".23" height="9.18"/><rect x="340.99" y="99.53" width=".23" height="9.18"/><rect x="368.82" y="100.75" width=".23" height="4.56" transform="translate(101.31 377.08) rotate(-61.28)"/><rect x="367.71" y="101.86" width=".23" height="4.56" transform="translate(99.8 376.72) rotate(-61.29)"/></g></g><rect x="332.53" y="189.64" width="146.89" height="73.52" style="fill:#272f47;"/><rect x="332.53" y="269.07" width="146.89" height="23.17" style="fill:#272f47;"/><rect x="332.53" y="294.7" width="146.89" height="23.53" style="fill:#272f47;"/><g><g><rect x="406.48" y="200.9" width="69.25" height="19.42" rx="2.58" ry="2.58" style="fill:#48577c;"/><g style="opacity:.5;"><rect x="406.48" y="214.8" width="69.25" height="1.23" transform="translate(882.22 430.83) rotate(180)" style="fill:#437390;"/></g><rect x="426.8" y="203.83" width=".82" height="9.18" transform="translate(854.42 416.85) rotate(180)" style="fill:#437390;"/><rect x="421.64" y="203.83" width=".82" height="9.18" transform="translate(844.1 416.85) rotate(180)" style="fill:#437390;"/><rect x="416.48" y="203.83" width=".82" height="9.18" transform="translate(833.77 416.85) rotate(180)" style="fill:#437390;"/><rect x="411.31" y="203.83" width=".82" height="9.18" transform="translate(823.45 416.85) rotate(180)" style="fill:#437390;"/><g style="opacity:.5;"><circle cx="466.71" cy="208.43" r="2.46" style="fill:#9ae389;"/></g><g style="opacity:.5;"><circle cx="459.17" cy="208.43" r="2.46" style="fill:#9ae389;"/></g><g style="opacity:.5;"><circle cx="451.62" cy="208.43" r="2.46" style="fill:#9ae389;"/></g><path d="M409.06,220.44v-.23c-1.36,0-2.46-1.1-2.46-2.46v-14.26c0-1.36,1.1-2.46,2.46-2.46h64.1c1.36,0,2.46,1.1,2.46,2.46v14.26h.23v-14.26c0-1.49-1.21-2.7-2.69-2.7h-64.1c-1.49,0-2.7,1.21-2.7,2.7v14.26c0,1.49,1.21,2.69,2.7,2.69Z"/><rect x="406.48" y="214.68" width="69.25" height=".23"/><path d="M466.71,211c1.42,0,2.57-1.15,2.57-2.57s-1.15-2.57-2.57-2.57v.23c1.29,0,2.34,1.05,2.34,2.34s-1.05,2.34-2.34,2.34v.23Z"/><path d="M461.67,209.01c.15-.67,.04-1.36-.32-1.94-.36-.58-.93-.99-1.6-1.14-.67-.15-1.36-.04-1.94,.32-.58,.36-.99,.93-1.14,1.6l.23,.05c.29-1.26,1.55-2.04,2.81-1.75,.61,.14,1.13,.51,1.46,1.04,.33,.53,.44,1.16,.29,1.77l.23,.05Z"/><path d="M451.6,210.99c.48,0,.96-.14,1.37-.4,.58-.37,.98-.94,1.13-1.61l-.23-.05c-.14,.61-.5,1.13-1.03,1.46-.53,.33-1.15,.44-1.76,.31-.61-.14-1.13-.5-1.46-1.03-.33-.53-.44-1.15-.31-1.76l-.23-.05c-.15,.67-.03,1.36,.34,1.94,.37,.58,.94,.98,1.61,1.13,.19,.04,.38,.06,.57,.06Z"/><rect x="422.34" y="203.83" width=".23" height="9.18"/><rect x="417.18" y="203.83" width=".23" height="9.18"/><rect x="412.02" y="203.83" width=".23" height="9.18"/><rect x="439.85" y="205.05" width=".23" height="4.56" transform="translate(46.75 493.58) rotate(-61.29)"/><rect x="438.74" y="206.16" width=".23" height="4.56" transform="translate(45.25 493.24) rotate(-61.29)"/></g><g><rect x="406.48" y="220.32" width="69.25" height="19.42" rx="2.58" ry="2.58" style="fill:#48577c;"/><g style="opacity:.5;"><rect x="406.48" y="234.22" width="69.25" height="1.23" transform="translate(882.22 469.68) rotate(180)" style="fill:#437390;"/></g><rect x="426.8" y="223.26" width=".82" height="9.18" transform="translate(854.42 455.7) rotate(180)" style="fill:#437390;"/><rect x="421.64" y="223.26" width=".82" height="9.18" transform="translate(844.1 455.7) rotate(180)" style="fill:#437390;"/><rect x="416.48" y="223.26" width=".82" height="9.18" transform="translate(833.77 455.7) rotate(180)" style="fill:#437390;"/><rect x="411.31" y="223.26" width=".82" height="9.18" transform="translate(823.45 455.7) rotate(180)" style="fill:#437390;"/><g style="opacity:.5;"><path d="M464.25,227.85c0,1.36,1.1,2.46,2.46,2.46s2.46-1.1,2.46-2.46-1.1-2.46-2.46-2.46-2.46,1.1-2.46,2.46Z" style="fill:#9ae389;"/></g><g style="opacity:.5;"><path d="M456.71,227.85c0,1.36,1.1,2.46,2.46,2.46s2.46-1.1,2.46-2.46-1.1-2.46-2.46-2.46-2.46,1.1-2.46,2.46Z" style="fill:#9ae389;"/></g><g style="opacity:.5;"><path d="M449.16,227.85c0,1.36,1.1,2.46,2.46,2.46s2.46-1.1,2.46-2.46-1.1-2.46-2.46-2.46-2.46,1.1-2.46,2.46Z" style="fill:#9ae389;"/></g><path d="M409.06,239.86v-.23c-1.36,0-2.46-1.1-2.46-2.46v-14.26c0-1.36,1.1-2.46,2.46-2.46h64.1c1.36,0,2.46,1.1,2.46,2.46v14.26h.23v-14.26c0-1.49-1.21-2.69-2.69-2.69h-64.1c-1.49,0-2.7,1.21-2.7,2.69v14.26c0,1.49,1.21,2.69,2.7,2.69Z"/><rect x="406.48" y="234.11" width="69.25" height=".23"/><path d="M466.71,230.42c1.42,0,2.57-1.15,2.57-2.57s-1.15-2.57-2.57-2.57v.23c1.29,0,2.34,1.05,2.34,2.34s-1.05,2.34-2.34,2.34v.23Z"/><path d="M461.67,228.43c.15-.67,.04-1.36-.32-1.94-.36-.58-.93-.99-1.6-1.14-.67-.15-1.36-.04-1.94,.32-.58,.36-.99,.93-1.14,1.6l.23,.05c.29-1.26,1.55-2.04,2.81-1.75,.61,.14,1.13,.51,1.46,1.04,.33,.53,.44,1.16,.29,1.77l.23,.05Z"/><path d="M451.6,230.41c.48,0,.96-.14,1.37-.4,.58-.37,.98-.94,1.13-1.61l-.23-.05c-.14,.61-.5,1.13-1.03,1.46-.53,.33-1.15,.44-1.76,.31-.61-.14-1.13-.5-1.46-1.03-.33-.53-.44-1.15-.31-1.76l-.23-.05c-.15,.67-.03,1.36,.34,1.94,.37,.58,.94,.98,1.61,1.13,.19,.04,.38,.06,.57,.06Z"/><rect x="427.5" y="223.26" width=".23" height="9.18"/><rect x="422.34" y="223.26" width=".23" height="9.18"/><rect x="417.18" y="223.26" width=".23" height="9.18"/><rect x="412.02" y="223.26" width=".23" height="9.18"/><polygon points="441.91 227.95 442.02 227.75 438.03 225.55 437.91 225.76 441.91 227.95"/><rect x="438.74" y="225.58" width=".23" height="4.56" transform="translate(28.22 503.35) rotate(-61.3)"/></g><g><rect x="406.48" y="239.74" width="69.25" height="19.42" rx="2.58" ry="2.58" style="fill:#48577c;"/><g style="opacity:.5;"><rect x="406.48" y="253.64" width="69.25" height="1.23" transform="translate(882.22 508.5) rotate(180)" style="fill:#437390;"/></g><rect x="426.8" y="242.67" width=".82" height="9.18" transform="translate(854.42 494.52) rotate(180)" style="fill:#437390;"/><rect x="421.64" y="242.67" width=".82" height="9.18" transform="translate(844.1 494.52) rotate(180)" style="fill:#437390;"/><rect x="416.48" y="242.67" width=".82" height="9.18" transform="translate(833.77 494.52) rotate(180)" style="fill:#437390;"/><rect x="411.31" y="242.67" width=".82" height="9.18" transform="translate(823.45 494.52) rotate(180)" style="fill:#437390;"/><g style="opacity:.5;"><path d="M464.25,247.26c0,1.36,1.1,2.46,2.46,2.46s2.46-1.1,2.46-2.46-1.1-2.46-2.46-2.46-2.46,1.1-2.46,2.46Z" style="fill:#9ae389;"/></g><g style="opacity:.5;"><path d="M456.71,247.26c0,1.36,1.1,2.46,2.46,2.46s2.46-1.1,2.46-2.46-1.1-2.46-2.46-2.46-2.46,1.1-2.46,2.46Z" style="fill:#9ae389;"/></g><g style="opacity:.5;"><path d="M449.16,247.26c0,1.36,1.1,2.46,2.46,2.46s2.46-1.1,2.46-2.46-1.1-2.46-2.46-2.46-2.46,1.1-2.46,2.46Z" style="fill:#9ae389;"/></g><path d="M409.06,259.27v-.23c-1.36,0-2.46-1.1-2.46-2.46v-14.26c0-1.36,1.1-2.46,2.46-2.46h64.1c1.36,0,2.46,1.1,2.46,2.46v14.26h.23v-14.26c0-1.49-1.21-2.69-2.69-2.69h-64.1c-1.49,0-2.7,1.21-2.7,2.69v14.26c0,1.49,1.21,2.69,2.7,2.69Z"/><rect x="406.48" y="253.52" width="69.25" height=".23"/><path d="M466.71,249.84c1.42,0,2.57-1.15,2.57-2.57s-1.15-2.57-2.57-2.57v.23c1.29,0,2.34,1.05,2.34,2.34s-1.05,2.34-2.34,2.34v.23Z"/><path d="M461.67,247.84c.15-.67,.04-1.36-.32-1.94-.36-.58-.93-.99-1.6-1.14-.67-.15-1.36-.04-1.94,.32-.58,.36-.99,.93-1.14,1.6l.23,.05c.29-1.26,1.55-2.04,2.81-1.75,.61,.14,1.13,.51,1.46,1.04,.33,.53,.44,1.16,.29,1.77l.23,.05Z"/><path d="M451.6,249.82c.48,0,.96-.14,1.37-.4,.58-.37,.98-.94,1.13-1.61l-.23-.05c-.14,.61-.5,1.13-1.03,1.46-.53,.33-1.15,.44-1.76,.31-.61-.14-1.13-.5-1.46-1.03-.33-.53-.44-1.15-.31-1.76l-.23-.05c-.15,.67-.03,1.36,.34,1.94,.37,.58,.94,.98,1.61,1.13,.19,.04,.38,.06,.57,.06Z"/><rect x="427.5" y="242.67" width=".23" height="9.18"/><rect x="422.34" y="242.67" width=".23" height="9.18"/><rect x="417.18" y="242.67" width=".23" height="9.18"/><rect x="412.02" y="242.67" width=".23" height="9.18"/><rect x="439.85" y="243.89" width=".23" height="4.56" transform="translate(12.68 513.73) rotate(-61.28)"/><rect x="438.74" y="244.99" width=".23" height="4.56" transform="translate(11.17 513.39) rotate(-61.29)"/></g></g><g><g><rect x="335.45" y="200.9" width="69.25" height="19.42" rx="2.58" ry="2.58" style="fill:#48577c;"/><g style="opacity:.5;"><rect x="335.45" y="214.8" width="69.25" height="1.23" transform="translate(740.16 430.83) rotate(180)" style="fill:#437390;"/></g><rect x="355.77" y="203.83" width=".82" height="9.18" transform="translate(712.36 416.85) rotate(180)" style="fill:#437390;"/><rect x="350.61" y="203.83" width=".82" height="9.18" transform="translate(702.04 416.85) rotate(180)" style="fill:#437390;"/><rect x="345.45" y="203.83" width=".82" height="9.18" transform="translate(691.71 416.85) rotate(180)" style="fill:#437390;"/><rect x="340.28" y="203.83" width=".82" height="9.18" transform="translate(681.39 416.85) rotate(180)" style="fill:#437390;"/><g style="opacity:.5;"><circle cx="395.68" cy="208.43" r="2.46" style="fill:#9ae389;"/></g><g style="opacity:.5;"><circle cx="388.14" cy="208.43" r="2.46" style="fill:#9ae389;"/></g><g style="opacity:.5;"><circle cx="380.59" cy="208.43" r="2.46" style="fill:#9ae389;"/></g><path d="M338.03,220.44v-.23c-1.36,0-2.46-1.1-2.46-2.46v-14.26c0-1.36,1.1-2.46,2.46-2.46h64.1c1.36,0,2.46,1.1,2.46,2.46v14.26h.23v-14.26c0-1.49-1.21-2.7-2.69-2.7h-64.1c-1.49,0-2.7,1.21-2.7,2.7v14.26c0,1.49,1.21,2.69,2.7,2.69Z"/><rect x="335.45" y="214.68" width="69.25" height=".23"/><path d="M395.68,211c1.42,0,2.57-1.15,2.57-2.57s-1.15-2.57-2.57-2.57v.23c1.29,0,2.34,1.05,2.34,2.34s-1.05,2.34-2.34,2.34v.23Z"/><path d="M390.64,209.01c.15-.67,.04-1.36-.32-1.94-.36-.58-.93-.99-1.6-1.14-.67-.15-1.36-.04-1.94,.32-.58,.36-.99,.93-1.14,1.6l.23,.05c.29-1.26,1.55-2.04,2.81-1.75,.61,.14,1.13,.51,1.46,1.04,.33,.53,.44,1.16,.29,1.77l.23,.05Z"/><path d="M380.57,210.99c.48,0,.96-.14,1.37-.4,.58-.37,.98-.94,1.13-1.61l-.23-.05c-.14,.61-.5,1.13-1.03,1.46-.53,.33-1.15,.44-1.76,.31-.61-.14-1.13-.5-1.46-1.03-.33-.53-.44-1.15-.31-1.76l-.23-.05c-.15,.67-.03,1.36,.34,1.94,.37,.58,.94,.98,1.61,1.13,.19,.04,.38,.06,.57,.06Z"/><rect x="356.47" y="203.83" width=".23" height="9.18"/><rect x="351.31" y="203.83" width=".23" height="9.18"/><rect x="346.15" y="203.83" width=".23" height="9.18"/><rect x="340.99" y="203.83" width=".23" height="9.18"/><rect x="368.82" y="205.05" width=".23" height="4.56" transform="translate(9.85 431.29) rotate(-61.29)"/><rect x="367.71" y="206.16" width=".23" height="4.56" transform="translate(8.34 430.94) rotate(-61.29)"/></g><g><rect x="335.45" y="220.32" width="69.25" height="19.42" rx="2.58" ry="2.58" style="fill:#48577c;"/><g style="opacity:.5;"><rect x="335.45" y="234.22" width="69.25" height="1.23" transform="translate(740.16 469.68) rotate(180)" style="fill:#437390;"/></g><rect x="355.77" y="223.26" width=".82" height="9.18" transform="translate(712.36 455.7) rotate(180)" style="fill:#437390;"/><rect x="350.61" y="223.26" width=".82" height="9.18" transform="translate(702.04 455.7) rotate(180)" style="fill:#437390;"/><rect x="345.45" y="223.26" width=".82" height="9.18" transform="translate(691.71 455.7) rotate(180)" style="fill:#437390;"/><rect x="340.28" y="223.26" width=".82" height="9.18" transform="translate(681.39 455.7) rotate(180)" style="fill:#437390;"/><g style="opacity:.5;"><path d="M393.23,227.85c0,1.36,1.1,2.46,2.46,2.46s2.46-1.1,2.46-2.46-1.1-2.46-2.46-2.46-2.46,1.1-2.46,2.46Z" style="fill:#9ae389;"/></g><g style="opacity:.5;"><path d="M385.68,227.85c0,1.36,1.1,2.46,2.46,2.46s2.46-1.1,2.46-2.46-1.1-2.46-2.46-2.46-2.46,1.1-2.46,2.46Z" style="fill:#9ae389;"/></g><g style="opacity:.5;"><path d="M378.13,227.85c0,1.36,1.1,2.46,2.46,2.46s2.46-1.1,2.46-2.46-1.1-2.46-2.46-2.46-2.46,1.1-2.46,2.46Z" style="fill:#9ae389;"/></g><path d="M338.03,239.86v-.23c-1.36,0-2.46-1.1-2.46-2.46v-14.26c0-1.36,1.1-2.46,2.46-2.46h64.1c1.36,0,2.46,1.1,2.46,2.46v14.26h.23v-14.26c0-1.49-1.21-2.69-2.69-2.69h-64.1c-1.49,0-2.7,1.21-2.7,2.69v14.26c0,1.49,1.21,2.69,2.7,2.69Z"/><rect x="335.45" y="234.11" width="69.25" height=".23"/><path d="M395.68,230.42c1.42,0,2.57-1.15,2.57-2.57s-1.15-2.57-2.57-2.57v.23c1.29,0,2.34,1.05,2.34,2.34s-1.05,2.34-2.34,2.34v.23Z"/><path d="M390.64,228.43c.15-.67,.04-1.36-.32-1.94-.36-.58-.93-.99-1.6-1.14-.67-.15-1.36-.04-1.94,.32-.58,.36-.99,.93-1.14,1.6l.23,.05c.29-1.26,1.55-2.04,2.81-1.75,.61,.14,1.13,.51,1.46,1.04,.33,.53,.44,1.16,.29,1.77l.23,.05Z"/><path d="M380.57,230.41c.48,0,.96-.14,1.37-.4,.58-.37,.98-.94,1.13-1.61l-.23-.05c-.14,.61-.5,1.13-1.03,1.46-.53,.33-1.15,.44-1.76,.31-.61-.14-1.13-.5-1.46-1.03-.33-.53-.44-1.15-.31-1.76l-.23-.05c-.15,.67-.03,1.36,.34,1.94,.37,.58,.94,.98,1.61,1.13,.19,.04,.38,.06,.57,.06Z"/><rect x="356.47" y="223.26" width=".23" height="9.18"/><rect x="351.31" y="223.26" width=".23" height="9.18"/><rect x="346.15" y="223.26" width=".23" height="9.18"/><rect x="340.99" y="223.26" width=".23" height="9.18"/><polygon points="370.88 227.95 370.99 227.75 367 225.55 366.88 225.76 370.88 227.95"/><rect x="367.71" y="225.58" width=".23" height="4.56" transform="translate(-8.69 441.05) rotate(-61.3)"/></g><g><rect x="335.45" y="239.74" width="69.25" height="19.42" rx="2.58" ry="2.58" style="fill:#48577c;"/><g style="opacity:.5;"><rect x="335.45" y="253.64" width="69.25" height="1.23" transform="translate(740.16 508.5) rotate(180)" style="fill:#437390;"/></g><rect x="355.77" y="242.67" width=".82" height="9.18" transform="translate(712.36 494.52) rotate(180)" style="fill:#437390;"/><rect x="350.61" y="242.67" width=".82" height="9.18" transform="translate(702.04 494.52) rotate(180)" style="fill:#437390;"/><rect x="345.45" y="242.67" width=".82" height="9.18" transform="translate(691.71 494.52) rotate(180)" style="fill:#437390;"/><rect x="340.28" y="242.67" width=".82" height="9.18" transform="translate(681.39 494.52) rotate(180)" style="fill:#437390;"/><g style="opacity:.5;"><path d="M393.23,247.26c0,1.36,1.1,2.46,2.46,2.46s2.46-1.1,2.46-2.46-1.1-2.46-2.46-2.46-2.46,1.1-2.46,2.46Z" style="fill:#9ae389;"/></g><g style="opacity:.5;"><path d="M385.68,247.26c0,1.36,1.1,2.46,2.46,2.46s2.46-1.1,2.46-2.46-1.1-2.46-2.46-2.46-2.46,1.1-2.46,2.46Z" style="fill:#9ae389;"/></g><g style="opacity:.5;"><path d="M378.13,247.26c0,1.36,1.1,2.46,2.46,2.46s2.46-1.1,2.46-2.46-1.1-2.46-2.46-2.46-2.46,1.1-2.46,2.46Z" style="fill:#9ae389;"/></g><path d="M338.03,259.27v-.23c-1.36,0-2.46-1.1-2.46-2.46v-14.26c0-1.36,1.1-2.46,2.46-2.46h64.1c1.36,0,2.46,1.1,2.46,2.46v14.26h.23v-14.26c0-1.49-1.21-2.69-2.69-2.69h-64.1c-1.49,0-2.7,1.21-2.7,2.69v14.26c0,1.49,1.21,2.69,2.7,2.69Z"/><rect x="335.45" y="253.52" width="69.25" height=".23"/><path d="M395.68,249.84c1.42,0,2.57-1.15,2.57-2.57s-1.15-2.57-2.57-2.57v.23c1.29,0,2.34,1.05,2.34,2.34s-1.05,2.34-2.34,2.34v.23Z"/><path d="M390.64,247.84c.15-.67,.04-1.36-.32-1.94-.36-.58-.93-.99-1.6-1.14-.67-.15-1.36-.04-1.94,.32-.58,.36-.99,.93-1.14,1.6l.23,.05c.29-1.26,1.55-2.04,2.81-1.75,.61,.14,1.13,.51,1.46,1.04,.33,.53,.44,1.16,.29,1.77l.23,.05Z"/><path d="M380.57,249.82c.48,0,.96-.14,1.37-.4,.58-.37,.98-.94,1.13-1.61l-.23-.05c-.14,.61-.5,1.13-1.03,1.46-.53,.33-1.15,.44-1.76,.31-.61-.14-1.13-.5-1.46-1.03-.33-.53-.44-1.15-.31-1.76l-.23-.05c-.15,.67-.03,1.36,.34,1.94,.37,.58,.94,.98,1.61,1.13,.19,.04,.38,.06,.57,.06Z"/><rect x="356.47" y="242.67" width=".23" height="9.18"/><rect x="351.31" y="242.67" width=".23" height="9.18"/><rect x="346.15" y="242.67" width=".23" height="9.18"/><rect x="340.99" y="242.67" width=".23" height="9.18"/><rect x="368.82" y="243.89" width=".23" height="4.56" transform="translate(-24.22 451.44) rotate(-61.28)"/><rect x="367.71" y="244.99" width=".23" height="4.56" transform="translate(-25.74 451.09) rotate(-61.29)"/></g></g><g><rect x="332.53" y="122.47" width="146.89" height="28.12" style="fill:#272f47;"/><rect x="336.96" y="127.19" width="138.78" height="19.15" transform="translate(812.69 273.54) rotate(180)" style="fill:#48577c;"/><g style="mix-blend-mode:multiply; opacity:.3;"><rect x="418.68" y="129.82" width="53.78" height="13.9" transform="translate(891.13 273.54) rotate(180)" style="fill:#48577c;"/></g><g style="mix-blend-mode:multiply; opacity:.3;"><rect x="414" y="129.82" width="1.24" height="13.9" transform="translate(829.24 273.54) rotate(180)" style="fill:#48577c;"/></g><g style="opacity:.5;"><rect x="408.8" y="129.82" width="1.24" height="13.9" transform="translate(818.84 273.54) rotate(180)" style="fill:#9ae389;"/></g><g style="opacity:.8;"><rect x="403.6" y="129.82" width="1.24" height="13.9" transform="translate(808.45 273.54) rotate(180)" style="fill:#b94760;"/></g><g style="mix-blend-mode:multiply; opacity:.3;"><rect x="398.4" y="129.82" width="1.24" height="13.9" transform="translate(798.05 273.54) rotate(180)" style="fill:#48577c;"/></g><g style="opacity:.5;"><rect x="393.2" y="129.82" width="1.24" height="13.9" transform="translate(787.65 273.54) rotate(180)" style="fill:#9ae389;"/></g><g style="mix-blend-mode:multiply; opacity:.3;"><rect x="388.01" y="129.82" width="1.24" height="13.9" transform="translate(777.25 273.54) rotate(180)" style="fill:#48577c;"/></g><g style="mix-blend-mode:multiply; opacity:.3;"><rect x="382.81" y="129.82" width="1.24" height="13.9" transform="translate(766.85 273.54) rotate(180)" style="fill:#48577c;"/></g><g style="mix-blend-mode:multiply; opacity:.3;"><rect x="377.61" y="129.82" width="1.24" height="13.9" transform="translate(756.45 273.54) rotate(180)" style="fill:#48577c;"/></g><g style="opacity:.5;"><rect x="372.41" y="129.82" width="1.24" height="13.9" transform="translate(746.05 273.54) rotate(180)" style="fill:#9ae389;"/></g><g style="mix-blend-mode:multiply; opacity:.3;"><rect x="367.21" y="129.82" width="1.24" height="13.9" transform="translate(735.66 273.54) rotate(180)" style="fill:#48577c;"/></g><g style="opacity:.5;"><rect x="362.01" y="129.82" width="1.24" height="13.9" transform="translate(725.26 273.54) rotate(180)" style="fill:#9ae389;"/></g><g style="mix-blend-mode:multiply; opacity:.3;"><rect x="356.81" y="129.82" width="1.24" height="13.9" transform="translate(714.86 273.54) rotate(180)" style="fill:#48577c;"/></g><g style="opacity:.8;"><rect x="351.61" y="129.82" width="1.24" height="13.9" transform="translate(704.46 273.54) rotate(180)" style="fill:#b94760;"/></g><g style="opacity:.8;"><rect x="346.41" y="129.82" width="1.24" height="13.9" transform="translate(694.06 273.54) rotate(180)" style="fill:#b94760;"/></g><g style="mix-blend-mode:multiply; opacity:.3;"><rect x="341.21" y="129.82" width="1.24" height="13.9" transform="translate(683.66 273.54) rotate(180)" style="fill:#48577c;"/></g></g><g style="opacity:.5;"><rect x="470.16" y="159.1" width="5.65" height="5.23" transform="translate(945.98 323.44) rotate(180)" style="fill:#fff;"/><rect x="462.16" y="159.1" width="5.65" height="5.23" transform="translate(929.97 323.44) rotate(180)" style="fill:#fff;"/><rect x="454.15" y="159.1" width="5.65" height="5.23" transform="translate(913.96 323.44) rotate(180)" style="fill:#fff;"/><rect x="445.15" y="159.1" width="5.65" height="5.23" transform="translate(895.95 323.44) rotate(180)" style="fill:#fff;"/><rect x="437.15" y="159.1" width="5.65" height="5.23" transform="translate(879.94 323.44) rotate(180)" style="fill:#fff;"/><rect x="429.14" y="159.1" width="5.65" height="5.23" transform="translate(863.93 323.44) rotate(180)" style="fill:#fff;"/><rect x="420.14" y="159.1" width="5.65" height="5.23" transform="translate(845.92 323.44) rotate(180)" style="fill:#fff;"/><rect x="412.13" y="159.1" width="5.65" height="5.23" transform="translate(829.91 323.44) rotate(180)" style="fill:#fff;"/></g><rect x="335.34" y="271.84" width="141.27" height="17.64" rx="1.71" ry="1.71" transform="translate(811.95 561.31) rotate(180)" style="fill:#48577c;"/><rect x="335.34" y="297.64" width="141.27" height="17.64" rx="1.71" ry="1.71" transform="translate(811.95 612.93) rotate(180)" style="fill:#48577c;"/><g style="mix-blend-mode:multiply; opacity:.3;"><circle cx="465.09" cy="280.19" r="3.72" style="fill:#48577c;"/></g><g style="mix-blend-mode:multiply; opacity:.3;"><circle cx="344.98" cy="280.19" r="3.72" transform="translate(-55.15 86.76) rotate(-13.28)" style="fill:#48577c;"/></g><g style="mix-blend-mode:multiply; opacity:.3;"><circle cx="465.09" cy="305.77" r="3.72" transform="translate(-57.81 115.04) rotate(-13.28)" style="fill:#48577c;"/></g><g style="mix-blend-mode:multiply; opacity:.3;"><circle cx="344.98" cy="305.77" r="3.72" style="fill:#48577c;"/></g><g style="mix-blend-mode:multiply; opacity:.3;"><rect x="351.29" y="279.5" width="107.49" height="1.38" transform="translate(810.07 560.38) rotate(180)" style="fill:#48577c;"/></g><g style="mix-blend-mode:multiply; opacity:.3;"><rect x="351.29" y="305.08" width="107.49" height="1.38" transform="translate(810.07 611.53) rotate(180)" style="fill:#48577c;"/></g><path d="M465.47,168.09c.17,0,.34,0,.51-.02,4.77-.38,7.62-5.9,7.74-6.14,.12-.23,.02-.52-.21-.63-.23-.12-.52-.03-.64,.21-.03,.05-2.73,5.29-6.97,5.62-2.78,.22-5.66-1.7-8.54-5.69-.15-.21-.45-.26-.66-.11-.21,.15-.26,.45-.11,.66,2.93,4.05,5.91,6.1,8.88,6.1Z" style="fill:#efc587;"/><path d="M457.87,168.04c.17,0,.34,0,.5-.02,4.73-.37,7.55-5.85,7.67-6.08,.12-.23,.02-.52-.21-.63-.23-.12-.52-.03-.64,.21-.03,.05-2.71,5.24-6.9,5.57-2.75,.22-5.6-1.68-8.46-5.63-.15-.21-.45-.26-.66-.11-.21,.15-.26,.45-.11,.66,2.9,4.01,5.86,6.04,8.8,6.04Z" style="fill:#fff;"/><path d="M448.81,168.04c.17,0,.34,0,.5-.02,4.73-.37,7.55-5.85,7.67-6.08,.12-.23,.02-.52-.21-.63-.23-.12-.52-.03-.64,.21-.03,.05-2.71,5.24-6.9,5.57-2.75,.22-5.6-1.68-8.46-5.63-.15-.21-.45-.26-.66-.11-.21,.15-.26,.45-.11,.66,2.9,4.01,5.86,6.04,8.8,6.04Z" style="fill:#efc587;"/><path d="M432.14,168.09c.17,0,.34,0,.51-.02,4.77-.38,7.62-5.9,7.74-6.14,.12-.23,.02-.52-.21-.63-.23-.12-.52-.03-.64,.21-.03,.05-2.73,5.29-6.97,5.62-2.78,.22-5.66-1.7-8.54-5.69-.15-.21-.45-.26-.66-.11-.21,.15-.26,.45-.11,.66,2.93,4.05,5.91,6.1,8.88,6.1Z" style="fill:#fff;"/><path d="M424.54,168.04c.17,0,.34,0,.5-.02,4.73-.37,7.55-5.85,7.67-6.08,.12-.23,.02-.52-.21-.63-.23-.12-.52-.03-.64,.21-.03,.05-2.71,5.24-6.9,5.57-2.75,.22-5.6-1.68-8.46-5.63-.15-.21-.45-.26-.66-.11-.21,.15-.26,.45-.11,.66,2.9,4.01,5.86,6.04,8.8,6.04Z" style="fill:#efc587;"/><g style="opacity:.5;"><rect x="470.16" y="171.77" width="5.65" height="5.23" transform="translate(945.98 348.77) rotate(180)" style="fill:#fff;"/><rect x="462.16" y="171.77" width="5.65" height="5.23" transform="translate(929.97 348.77) rotate(180)" style="fill:#fff;"/><rect x="454.15" y="171.77" width="5.65" height="5.23" transform="translate(913.96 348.77) rotate(180)" style="fill:#fff;"/><rect x="445.15" y="171.77" width="5.65" height="5.23" transform="translate(895.95 348.77) rotate(180)" style="fill:#fff;"/><rect x="437.15" y="171.77" width="5.65" height="5.23" transform="translate(879.94 348.77) rotate(180)" style="fill:#fff;"/><rect x="429.14" y="171.77" width="5.65" height="5.23" transform="translate(863.93 348.77) rotate(180)" style="fill:#fff;"/><rect x="420.14" y="171.77" width="5.65" height="5.23" transform="translate(845.92 348.77) rotate(180)" style="fill:#fff;"/><rect x="412.13" y="171.77" width="5.65" height="5.23" transform="translate(829.91 348.77) rotate(180)" style="fill:#fff;"/></g><path d="M465.47,180.76c.17,0,.34,0,.51-.02,4.77-.38,7.62-5.9,7.74-6.14,.12-.23,.02-.52-.21-.63-.23-.12-.52-.03-.64,.21-.03,.05-2.73,5.29-6.97,5.62-2.78,.22-5.66-1.7-8.54-5.69-.15-.21-.45-.26-.66-.11-.21,.15-.26,.45-.11,.66,2.93,4.05,5.91,6.1,8.88,6.1Z" style="fill:#efc587;"/><path d="M457.87,180.7c.17,0,.34,0,.5-.02,4.73-.37,7.55-5.85,7.67-6.08,.12-.23,.02-.52-.21-.63-.23-.12-.52-.03-.64,.21-.03,.05-2.71,5.24-6.9,5.57-2.75,.22-5.6-1.68-8.46-5.63-.15-.21-.45-.26-.66-.11-.21,.15-.26,.45-.11,.66,2.9,4.01,5.86,6.04,8.8,6.04Z" style="fill:#fff;"/><path d="M448.81,180.7c.17,0,.34,0,.5-.02,4.73-.37,7.55-5.85,7.67-6.08,.12-.23,.02-.52-.21-.63-.23-.12-.52-.03-.64,.21-.03,.05-2.71,5.24-6.9,5.57-2.75,.22-5.6-1.68-8.46-5.63-.15-.21-.45-.26-.66-.11-.21,.15-.26,.45-.11,.66,2.9,4.01,5.86,6.04,8.8,6.04Z" style="fill:#efc587;"/><path d="M432.14,180.76c.17,0,.34,0,.51-.02,4.77-.38,7.62-5.9,7.74-6.14,.12-.23,.02-.52-.21-.63-.23-.12-.52-.03-.64,.21-.03,.05-2.73,5.29-6.97,5.62-2.78,.22-5.66-1.7-8.54-5.69-.15-.21-.45-.26-.66-.11-.21,.15-.26,.45-.11,.66,2.93,4.05,5.91,6.1,8.88,6.1Z" style="fill:#fff;"/><path d="M424.54,180.7c.17,0,.34,0,.5-.02,4.73-.37,7.55-5.85,7.67-6.08,.12-.23,.02-.52-.21-.63-.23-.12-.52-.03-.64,.21-.03,.05-2.71,5.24-6.9,5.57-2.75,.22-5.6-1.68-8.46-5.63-.15-.21-.45-.26-.66-.11-.21,.15-.26,.45-.11,.66,2.9,4.01,5.86,6.04,8.8,6.04Z" style="fill:#efc587;"/><g style="opacity:.5;"><rect x="393.4" y="159.1" width="5.65" height="5.23" transform="translate(792.45 323.44) rotate(180)" style="fill:#fff;"/><rect x="385.4" y="159.1" width="5.65" height="5.23" transform="translate(776.44 323.44) rotate(180)" style="fill:#fff;"/><rect x="377.39" y="159.1" width="5.65" height="5.23" transform="translate(760.43 323.44) rotate(180)" style="fill:#fff;"/><rect x="368.39" y="159.1" width="5.65" height="5.23" transform="translate(742.42 323.44) rotate(180)" style="fill:#fff;"/><rect x="360.38" y="159.1" width="5.65" height="5.23" transform="translate(726.41 323.44) rotate(180)" style="fill:#fff;"/><rect x="352.38" y="159.1" width="5.65" height="5.23" transform="translate(710.4 323.44) rotate(180)" style="fill:#fff;"/><rect x="343.37" y="159.1" width="5.65" height="5.23" transform="translate(692.4 323.44) rotate(180)" style="fill:#fff;"/><rect x="335.37" y="159.1" width="5.65" height="5.23" transform="translate(676.39 323.44) rotate(180)" style="fill:#fff;"/></g><path d="M388.71,168.09c.17,0,.34,0,.51-.02,4.77-.38,7.62-5.9,7.74-6.14,.12-.23,.02-.52-.21-.63-.23-.12-.52-.03-.64,.21-.03,.05-2.73,5.29-6.97,5.62-2.78,.22-5.66-1.7-8.54-5.69-.15-.21-.45-.26-.66-.11-.21,.15-.26,.45-.11,.66,2.93,4.05,5.91,6.1,8.88,6.1Z" style="fill:#efc587;"/><path d="M381.1,168.04c.17,0,.34,0,.5-.02,4.73-.37,7.55-5.85,7.67-6.08,.12-.23,.02-.52-.21-.63-.23-.12-.52-.03-.64,.21-.03,.05-2.71,5.24-6.9,5.57-2.75,.22-5.6-1.68-8.46-5.63-.15-.21-.45-.26-.66-.11-.21,.15-.26,.45-.11,.66,2.9,4.01,5.86,6.04,8.8,6.04Z" style="fill:#fff;"/><path d="M372.04,168.04c.17,0,.34,0,.5-.02,4.73-.37,7.55-5.85,7.67-6.08,.12-.23,.02-.52-.21-.63-.23-.12-.52-.03-.64,.21-.03,.05-2.71,5.24-6.9,5.57-2.75,.22-5.6-1.68-8.46-5.63-.15-.21-.45-.26-.66-.11-.21,.15-.26,.45-.11,.66,2.9,4.01,5.86,6.04,8.8,6.04Z" style="fill:#efc587;"/><path d="M355.38,168.09c.17,0,.34,0,.51-.02,4.77-.38,7.62-5.9,7.74-6.14,.12-.23,.02-.52-.21-.63-.23-.12-.52-.03-.64,.21-.03,.05-2.73,5.29-6.97,5.62-2.78,.22-5.66-1.7-8.54-5.69-.15-.21-.45-.26-.66-.11-.21,.15-.26,.45-.11,.66,2.93,4.05,5.91,6.1,8.88,6.1Z" style="fill:#fff;"/><path d="M347.78,168.04c.17,0,.34,0,.5-.02,4.73-.37,7.55-5.85,7.67-6.08,.12-.23,.02-.52-.21-.63-.23-.12-.52-.03-.64,.21-.03,.05-2.71,5.24-6.9,5.57-2.75,.22-5.6-1.68-8.46-5.63-.15-.21-.45-.26-.66-.11-.21,.15-.26,.45-.11,.66,2.9,4.01,5.86,6.04,8.8,6.04Z" style="fill:#efc587;"/><g style="opacity:.5;"><rect x="393.4" y="171.77" width="5.65" height="5.23" transform="translate(792.45 348.77) rotate(180)" style="fill:#fff;"/><rect x="385.4" y="171.77" width="5.65" height="5.23" transform="translate(776.44 348.77) rotate(180)" style="fill:#fff;"/><rect x="377.39" y="171.77" width="5.65" height="5.23" transform="translate(760.43 348.77) rotate(180)" style="fill:#fff;"/><rect x="368.39" y="171.77" width="5.65" height="5.23" transform="translate(742.42 348.77) rotate(180)" style="fill:#fff;"/><rect x="360.38" y="171.77" width="5.65" height="5.23" transform="translate(726.41 348.77) rotate(180)" style="fill:#fff;"/><rect x="352.38" y="171.77" width="5.65" height="5.23" transform="translate(710.4 348.77) rotate(180)" style="fill:#fff;"/><rect x="343.37" y="171.77" width="5.65" height="5.23" transform="translate(692.4 348.77) rotate(180)" style="fill:#fff;"/><rect x="335.37" y="171.77" width="5.65" height="5.23" transform="translate(676.39 348.77) rotate(180)" style="fill:#fff;"/></g><path d="M388.71,180.76c.17,0,.34,0,.51-.02,4.77-.38,7.62-5.9,7.74-6.14,.12-.23,.02-.52-.21-.63-.23-.12-.52-.03-.64,.21-.03,.05-2.73,5.29-6.97,5.62-2.78,.22-5.66-1.7-8.54-5.69-.15-.21-.45-.26-.66-.11-.21,.15-.26,.45-.11,.66,2.93,4.05,5.91,6.1,8.88,6.1Z" style="fill:#efc587;"/><path d="M381.1,180.7c.17,0,.34,0,.5-.02,4.73-.37,7.55-5.85,7.67-6.08,.12-.23,.02-.52-.21-.63-.23-.12-.52-.03-.64,.21-.03,.05-2.71,5.24-6.9,5.57-2.75,.22-5.6-1.68-8.46-5.63-.15-.21-.45-.26-.66-.11-.21,.15-.26,.45-.11,.66,2.9,4.01,5.86,6.04,8.8,6.04Z" style="fill:#fff;"/><path d="M372.04,180.7c.17,0,.34,0,.5-.02,4.73-.37,7.55-5.85,7.67-6.08,.12-.23,.02-.52-.21-.63-.23-.12-.52-.03-.64,.21-.03,.05-2.71,5.24-6.9,5.57-2.75,.22-5.6-1.68-8.46-5.63-.15-.21-.45-.26-.66-.11-.21,.15-.26,.45-.11,.66,2.9,4.01,5.86,6.04,8.8,6.04Z" style="fill:#efc587;"/><path d="M355.38,180.76c.17,0,.34,0,.51-.02,4.77-.38,7.62-5.9,7.74-6.14,.12-.23,.02-.52-.21-.63-.23-.12-.52-.03-.64,.21-.03,.05-2.73,5.29-6.97,5.62-2.78,.22-5.66-1.7-8.54-5.69-.15-.21-.45-.26-.66-.11-.21,.15-.26,.45-.11,.66,2.93,4.05,5.91,6.1,8.88,6.1Z" style="fill:#fff;"/><path d="M347.78,180.7c.17,0,.34,0,.5-.02,4.73-.37,7.55-5.85,7.67-6.08,.12-.23,.02-.52-.21-.63-.23-.12-.52-.03-.64,.21-.03,.05-2.71,5.24-6.9,5.57-2.75,.22-5.6-1.68-8.46-5.63-.15-.21-.45-.26-.66-.11-.21,.15-.26,.45-.11,.66,2.9,4.01,5.86,6.04,8.8,6.04Z" style="fill:#efc587;"/></g><rect x="93.63" y="326.31" width="423.55" height="2.12" style="fill:#77b5d5;"/></g><path d="M380.59,208.43s-58.1,99.19-177.23-11.77" style="fill:none; stroke:#ebaf9d; stroke-miterlimit:10; stroke-width:2px;"/><path d="M395.68,208.43s-68.17,105.09-187.29-5.87" style="fill:none; stroke:#ebad85; stroke-miterlimit:10; stroke-width:2px;"/><g><rect x="56.02" y="220.96" width="211.8" height="3.39" transform="translate(323.84 445.3) rotate(180)" style="fill:#2d3a4a;"/><rect x="258.69" y="224.35" width="3.5" height="101.97" style="fill:#6b7a9f;"/><rect x="64.59" y="224.35" width="3.1" height="101.97" style="fill:#4f597b;"/><g><rect x="66.14" y="224.35" width="172.62" height="70.67" transform="translate(304.9 519.36) rotate(180)" style="fill:#48577c;"/><rect x="66.14" y="224.35" width="38.54" height="101.97" transform="translate(170.82 550.66) rotate(180)" style="fill:#6b7a9f;"/><rect x="217.2" y="224.35" width="43.53" height="101.97" style="fill:#4f597b;"/><g><path d="M187.97,218.16h11.37l-6.54-31.9h16.15l6.54,31.9h11.34c1.6,0,3.38,1.3,3.98,2.9h-44.65c-.6-1.6,.21-2.9,1.81-2.9Z" style="fill:#161c23;"/><path d="M153.06,205.98l1.03-7.43,6.42-46.34c.3-2.2,2.34-3.99,4.54-3.99h89.86l.02-.12c2.26,0,3.85,1.84,3.54,4.1l-7.44,53.77c-.22,1.61-1.48,2.91-2.8,2.91h-93.27l.02-.12c-1.26,0-2.11-1.25-1.89-2.8Z" style="fill:#272f47;"/><polygon points="197.3 220.09 213.45 220.09 206.51 186.26 190.36 186.26 197.3 220.09" style="fill:#2d3a4a;"/><path d="M151.22,198.55l6.42-46.34c.3-2.2,2.34-3.99,4.54-3.99h89.86c2.2,0,3.74,1.79,3.44,3.99l-6.42,46.34h-97.83Z" style="fill:#4f597b;"/><path d="M249.05,198.55l-1.03,7.43c-.21,1.54-1.41,2.8-2.67,2.8h-93.27c-1.26,0-2.11-1.25-1.89-2.8l1.03-7.43h97.83Z" style="fill:#272f47;"/><path d="M153.79,196.54l6.12-44.21c.16-1.16,1.26-2.1,2.46-2.1h88.9c1.2,0,2.04,.94,1.88,2.1l-6.12,44.21h-93.25Z" style="fill:#a1d0f6;"/><path d="M183.73,221.05c-.6-1.6,.21-2.9,1.81-2.9h38.86c1.6,0,3.38,1.3,3.98,2.9h-44.65Z" style="fill:#1e2833;"/><path d="M153.65,196.66h93.37l.03-.23h-93.13l6.1-44.09c.15-1.09,1.2-1.98,2.33-1.98l.03-.23c-1.26,0-2.43,.99-2.6,2.22l-6.14,44.32Z" style="fill:#231822;"/><g style="mix-blend-mode:multiply; opacity:.5;"><polygon points="217.42 194.16 242.16 194.16 247.96 153.69 223.22 153.69 217.42 194.16" style="fill:#77b5d5;"/><polygon points="189.84 194.16 214.58 194.16 220.38 153.69 195.64 153.69 189.84 194.16" style="fill:#77b5d5;"/><polygon points="167.44 154.81 192.18 154.81 192.34 153.69 167.6 153.69 167.44 154.81" style="fill:#77b5d5;"/><polygon points="167.01 157.77 191.75 157.77 191.91 156.66 167.17 156.66 167.01 157.77" style="fill:#77b5d5;"/><polygon points="166.59 160.74 191.33 160.74 191.49 159.62 166.75 159.62 166.59 160.74" style="fill:#77b5d5;"/><polygon points="166.16 163.7 190.9 163.7 191.06 162.59 166.32 162.59 166.16 163.7" style="fill:#77b5d5;"/><polygon points="165.74 166.67 190.48 166.67 190.63 165.55 165.9 165.55 165.74 166.67" style="fill:#77b5d5;"/><polygon points="165.31 169.63 190.05 169.63 190.21 168.52 165.47 168.52 165.31 169.63" style="fill:#77b5d5;"/><polygon points="164.89 172.6 189.62 172.6 189.78 171.48 165.05 171.48 164.89 172.6" style="fill:#77b5d5;"/><polygon points="164.46 175.56 189.2 175.56 189.36 174.45 164.62 174.45 164.46 175.56" style="fill:#77b5d5;"/><polygon points="164.04 178.53 188.77 178.53 188.93 177.41 164.2 177.41 164.04 178.53" style="fill:#77b5d5;"/><polygon points="163.61 181.49 188.35 181.49 188.51 180.38 163.77 180.38 163.61 181.49" style="fill:#77b5d5;"/><polygon points="163.19 184.46 187.92 184.46 188.08 183.34 163.35 183.34 163.19 184.46" style="fill:#77b5d5;"/><polygon points="162.76 187.42 187.5 187.42 187.66 186.31 162.92 186.31 162.76 187.42" style="fill:#77b5d5;"/><polygon points="162.34 190.39 187.07 190.39 187.23 189.27 162.5 189.27 162.34 190.39" style="fill:#77b5d5;"/></g></g><g><g><path d="M136.27,161.51v9.73s.14,3.29-2.74,3.7l.54,4.39c.2,1.63-.78,3.19-2.34,3.69-.77,.24-1.68,.42-2.72,.42-3.29,0-5.07-2.47-5.35-3.7-.27-1.23,.55-7.13,.55-7.13l-.1-2.9,.37-11.23,11.79,3.02Z" style="fill:#e69d75;"/><path d="M124.86,159.03l2.3,3.25s6.95,2.7,10.52-.5c3.57-3.2,2.47-4.74,1.42-6.34-.52-.79-2.97-2.4-5.99-1.06-1.65,.73-2.86-1.45-4.78-.35-1.92,1.1-4.18,3-3.93,3.75,.25,.75,.47,1.25,.47,1.25Z" style="fill:#231822;"/><path d="M125,157.66s-3.17-.15-4.05,2.89c-.88,3.05,.3,4.64,.34,5.55,.03,.91-.59,7.03,3.71,6.58l1.16-10.12-1.5-4.03,.34-.88Z" style="fill:#231822;"/><path d="M134.15,162.46s.26,2.86,0,3.64c-.26,.78-3.38,2.86-3.38,2.86,0,0-.26,5.46-.78,5.72-.52,.26-5.13-.74-6.6-2.19-1.46-1.45,.1-12.89,.1-12.89,0,0,1.3-1.56,2.6-1.82,1.3-.26,7.54-.78,7.28,0-.26,.78,.78,4.68,.78,4.68Z" style="fill:#231822;"/><g><ellipse cx="130.95" cy="167.45" rx="2.42" ry="2.47" style="fill:#e69d75;"/><path d="M130.77,168.96c-.5,0-.84-.39-.95-.77-.13-.46,.02-.9,.38-1.13,.54-.34,1.02-.12,1.27,.05-.1-.28-.27-.48-.49-.61-.48-.27-1.07-.07-1.07-.07-.04,.01-.07,0-.08-.04-.01-.04,0-.07,.04-.09,.03,0,.65-.22,1.18,.08,.3,.17,.51,.47,.62,.9l.06,.24-.17-.17s-.6-.6-1.28-.16c-.38,.24-.41,.67-.32,.97,.09,.31,.36,.67,.82,.67,0,0,0,0,.01,0,.04,0,.07,.03,.07,.07,0,.04-.03,.07-.07,.07h-.01Z" style="fill:#d47063;"/></g></g><polygon points="135.13 179.87 134.62 177.31 122.76 175.45 121.95 178.54 127.27 179.87 135.13 179.87" style="fill:#ce3d4d;"/><path d="M198.4,214.38s7.62,.04,9.61,1.77c1.99,1.73,2.48,4.81,2.48,4.81h-15.06l2.97-6.58Z" style="fill:#e69d75;"/><g><polygon points="136.85 319.65 122.31 317.38 125.41 301.85 141.2 303.89 136.85 319.65" style="fill:#e69d75;"/><g><path d="M122.07,323.12h13.68l5.55-6.2,10.15,6.2h2.19c.75,0,1.44,.52,1.59,1.28,.19,1.02-.57,1.91-1.53,1.91h-31.81c-.23,0-.42-.19-.42-.43v-2.13c0-.35,.28-.63,.62-.63Z" style="fill:#bf2b43;"/><path d="M122.19,323.14v-5.76s2.3-3.18,5.81-1.56c0,0,5.31,3.86,9.98-.81l11.62,5.29s3.18,1.09,4.05,2.84h-31.46Z" style="fill:#d7597d;"/></g></g><g><polygon points="175.13 319.65 160.59 317.38 163.69 301.85 179.48 303.89 175.13 319.65" style="fill:#e69d75;"/><g><path d="M160.36,323.12h13.68l5.55-6.2,10.15,6.2h2.19c.75,0,1.44,.52,1.59,1.28,.19,1.02-.57,1.91-1.53,1.91h-31.81c-.23,0-.42-.19-.42-.43v-2.13c0-.35,.28-.63,.62-.63Z" style="fill:#ce3d4d;"/><path d="M160.48,323.14v-5.76s2.3-3.18,5.81-1.56c0,0,5.31,3.86,9.98-.81l11.62,5.29s3.18,1.09,4.05,2.84h-31.46Z" style="fill:#d7597d;"/></g></g><path d="M151.84,244.37c-3.7-9.87-15.19-12.22-15.19-12.22,0,0-24.55-3.26-28.57,3.51-8.29,13.95,.25,25.72,7.54,27.34,1.77,.39,4.77,.17,8.13,.27,2.71,.08,7.28-.1,7.28-.1l-7.48,42.34c6.67,1.62,17.94,1.94,17.94,1.94,9.08-21.56,11.86-58.99,10.33-63.09Z" style="fill:#77b5d5;"/><path d="M189.74,254.03c.37-11.49-41.12-13.64-41.12-13.64,0,0-23.36-8.2-27.37-1.44-8.29,13.95,.25,25.72,7.54,27.34,1.77,.39,4.77,.16,8.13,.27,9.66,.33,23.12,.15,25.17,.12h0l6.47-.22-7.48,42.34c6.67,1.62,17.94,1.94,17.94,1.94,9.08-21.56,10.57-52.35,10.71-56.72Z" style="fill:#77b5d5;"/><path d="M198.96,213.32l-29.37-4.14s-18.2-23.17-20.69-24.82c-2.48-1.65-13.24-6.21-31.86-5.79-18.62,.41-21.93,40.55-21.93,40.55,0,0,29.32,33.73,30.62,33.93,17.66,2.74,24.02-12.58,24.02-12.58l-1.71-27.18,9.39,7.67h41.54v-7.63Z" style="fill:#f2d2de;"/><path d="M115.93,242.48c.12,0,.21-.11,.21-.23-.08-10.05-.52-52.87-.52-53.02,0-.13-.1-.23-.23-.23-.13,0-.23,.1-.23,.23,0,.15,.44,42.97,.52,53.03,0,.13,.1,.23,.23,.23h.01Z"/><path d="M136.67,190.54l5.34,70.61c.26,3.37-.6,6.1-1.91,6.1h-39.38c-1.31,0-2.58-2.73-2.84-6.1l-5.34-70.61c-.25-3.37,.6-6.1,1.91-6.1h39.38c1.31,0,2.58,2.73,2.84,6.1Z" style="fill:#e0904d;"/><path d="M134.41,190.54l5.34,70.61c.25,3.37-.6,6.1-1.91,6.1h-39.38c-1.31,0-2.58-2.73-2.84-6.1l-5.34-70.61c-.26-3.37,.6-6.1,1.91-6.1h39.38c1.31,0,2.58,2.73,2.84,6.1Z" style="fill:#efc587;"/><path d="M164.89,262.5h-62.14c-1.19,0-2.15,1.06-2.15,2.37s.96,2.37,2.15,2.37h62.14c1.19,0,2.15-1.06,2.15-2.37s-.96-2.37-2.15-2.37Z" style="fill:#e0904d;"/><path d="M139.69,262.5h-36.8c-1.27,0-2.29,1.06-2.29,2.37s1.03,2.37,2.29,2.37h36.8c.06,0,.35,0,.41,0,1.18-.1,1.88-1.13,1.88-2.37,0-1.31-1.03-2.37-2.29-2.37Z" style="fill:#efc587;"/><polygon points="139.72 260.72 140.1 267.25 144.37 267.25 141.75 262.5 139.72 260.72" style="fill:#e0904d;"/><path d="M145.77,322.57h-15.2v-55.32h-3.38v55.32h-14.81c-2.07,0-3.74,1.68-3.74,3.74h40.87c0-2.07-1.68-3.74-3.74-3.74Z" style="fill:#272f47;"/></g></g></g></g></g></svg>