<?xml version="1.0" encoding="UTF-8"?><svg xmlns="http://www.w3.org/2000/svg" viewBox="0 0 600 350"><g id="a"/><g id="b"/><g id="c"/><g id="d"/><g id="e"/><g id="f"/><g id="g"/><g id="h"/><g id="i"/><g id="j"><path d="M460,303.37H148.31c-38.8,4.44-62.75,10.52-62.75,17.24,0,13.58,97.87,24.59,218.6,24.59s218.6-11.01,218.6-24.59c0-6.72-23.95-12.8-62.75-17.24Z" style="fill:#95a0ab;"/><path d="M528.57,303.89c1.86-5.92-.02-13.27-3.1-19.03-4.07-7.6-9.92-14.64-10.89-23.22-1.85-16.3,14.52-30.09,13.84-46.48-.81-19.54-25.03-32.12-25.12-51.68-.08-18.32,21.45-32.45,18.45-50.51-2.69-16.18-22.24-22.07-34.09-33.28-11.64-11.02-13.75-30.04-26.04-40.36-9.73-8.17-20.54-14.11-33.53-14.44-8.54-.22-15.68,2.4-23.77,4.46-20.83,5.29-42.13-9.21-62-13.34-15.46-3.21-32.1-2.98-47.49,.6-11.13,2.58-21.86,6.54-32.9,9.46-11.22,2.96-20.28,2.98-31.59,.51-26.41-5.77-67,10.84-85.6,26.72-20.61,17.6-21.53,40.32-31.26,65.81-9.42,24.67-11.83,51.77-22.64,75.85-5.96,13.27-14.36,25.36-19.76,38.88-8.85,22.18-8.95,47.78-.33,70.05h457.83Z" style="fill:#e5eaf6;"/><g><g><path d="M407.16,327.52c2.4,0,4.12-2.42,3.21-4.65-2.61-6.42-9.99-10.83-17-12.94-12.35-3.7-25.45-3.64-38.33-4.22-12.88-.58-26.14-1.95-37.46-8.13-3.68-2.01-7.11-4.65-10.02-7.73v-77.5h-18.78v77.5c-2.92,3.08-6.34,5.72-10.02,7.73-11.31,6.18-24.58,7.55-37.46,8.13-12.88,.58-25.98,.51-38.33,4.22-7.01,2.1-14.39,6.51-17,12.94-.9,2.23,.81,4.65,3.21,4.65h5.1l-.27-.05c.21-2.09,1.86-3.8,3.77-4.68,1.9-.88,4.04-2.32,6.13-2.5,10.27-.91,178.28-.91,188.55,0,2.09,.18,4.22,1.62,6.13,2.5,1.9,.88,3.56,2.6,3.77,4.68l-.27,.05h5.1Z" style="fill:#1b2e45;"/><rect x="293.41" y="263.88" width="10.84" height="33.31" rx="5.37" ry="5.37" style="fill:#36336a;"/><path d="M493.69,287.83c-131.8-19.67-264.84-19.67-396.64,0-3.51,.52-6.66-2.18-6.66-5.73V42.17c0-3.55,3.15-6.25,6.66-5.73,131.8,19.67,264.84,19.67,396.64,0,3.51-.52,6.66,2.18,6.66,5.73v239.93c0,3.55-3.15,6.25-6.66,5.73Z" style="fill:#1b2e45;"/><path d="M489.39,286.34c-131.2-20.25-263.72-20.25-394.91,0V42.24c131.2,20.25,263.72,20.25,394.91,0v244.1Z" style="fill:#a6aeba;"/><rect x="381.2" y="52.92" width="93.34" height="55" style="fill:#95a0ab;"/><path d="M97.91,40.09v244.1c10.46-1.62,20.94-3.09,31.42-4.44L190.53,50.99c-30.92-2.52-61.81-6.15-92.62-10.9Z" style="fill:#c9d2dc;"/><path d="M164.35,215.95c-10.81,.83-22.46-.83-32.44-4.99-15.09-6.56-23.98-19.85-33.99-31.71v104.94c131.2-20.25,263.72-20.25,394.91,0V89.66c-94.93,40.53-189.42,77.32-286.05,114.64-14.14,5.82-27.45,10.81-42.43,11.65Z" style="fill:#95a0ab;"/><rect x="202.01" y="53.59" width="165.79" height="165.18" style="fill:#75838f;"/><rect x="95.47" y="88.49" width="90.73" height="90.82" style="fill:#95a0ab;"/><rect x="396.59" y="121.86" width="96.16" height="94.89" style="fill:#75838f;"/></g><g><g><rect x="402.25" y="113.96" width="146.96" height="97.05" style="fill:#223a7a;"/><g><g><g><path d="M432.74,125.41c-9.29,0-16.82,7.53-16.82,16.82s7.53,16.82,16.82,16.82,16.82-7.53,16.82-16.82-7.53-16.82-16.82-16.82Zm0,27.01c-5.63,0-10.19-4.56-10.19-10.19s4.56-10.19,10.19-10.19,10.19,4.56,10.19,10.19-4.56,10.19-10.19,10.19Z" style="fill:#f3d15f;"/><path d="M432.74,152.42c-5.52,0-10.01-4.39-10.18-9.88h-6.64c.17,9.15,7.63,16.51,16.81,16.51s16.65-7.37,16.81-16.51h-6.64c-.16,5.48-4.66,9.88-10.18,9.88Z" style="fill:#8394c6;"/><path d="M440.94,127.54l-2.9,5.99c2.93,1.79,4.89,5.02,4.89,8.7,0,.1,0,.21,0,.31h6.64c0-.1,0-.21,0-.31,0-6.31-3.48-11.81-8.62-14.69Z" style="fill:#456fb0;"/></g><g><path d="M472.56,125.41c-9.29,0-16.82,7.53-16.82,16.82s7.53,16.82,16.82,16.82,16.82-7.53,16.82-16.82-7.53-16.82-16.82-16.82Zm0,27.01c-5.63,0-10.19-4.56-10.19-10.19s4.56-10.19,10.19-10.19,10.19,4.56,10.19,10.19-4.56,10.19-10.19,10.19Z" style="fill:#f3d15f;"/><path d="M472.56,132.04c3,0,5.69,1.3,7.55,3.36l4.9-4.47c-3.08-3.39-7.51-5.52-12.45-5.52-3.33,0-6.44,.97-9.05,2.65l4.11,5.28c1.46-.82,3.15-1.29,4.94-1.29Z" style="fill:#f3d15f;"/><path d="M489.36,141.61c-.15-4.11-1.77-7.84-4.35-10.68l-4.9,4.47c1.51,1.66,2.47,3.83,2.62,6.21h6.64Z" style="fill:#8394c6;"/><path d="M467.61,133.33l-4.11-5.28c-4.51,2.89-7.55,7.86-7.75,13.56,0,.21-.02,.41-.02,.62,0,4.38,1.68,8.37,4.42,11.36l4.9-4.47c-1.67-1.81-2.69-4.23-2.69-6.89,0-.21,0-.41,.02-.62,.21-3.57,2.27-6.63,5.22-8.28Z" style="fill:#8394c6;"/><path d="M489.38,142.23c0-.21,0-.41-.02-.62h-6.64c.01,.2,.02,.41,.02,.62,0,2.7-1.05,5.16-2.77,6.98l4.1,5.27c3.26-3.07,5.3-7.42,5.3-12.25Z" style="fill:#456fb0;"/></g><path d="M512.38,125.41c-9.29,0-16.82,7.53-16.82,16.82s7.53,16.82,16.82,16.82,16.82-7.53,16.82-16.82-7.53-16.82-16.82-16.82Zm0,27.01c-5.63,0-10.19-4.56-10.19-10.19s4.56-10.19,10.19-10.19,10.19,4.56,10.19,10.19-4.56,10.19-10.19,10.19Z" style="fill:#f3d15f;"/><path d="M522.56,142.23c0,3.66-1.93,6.87-4.83,8.67l4.63,4.88c4.15-3.06,6.84-7.99,6.84-13.54,0-4.94-2.13-9.39-5.52-12.46l-4.79,4.63c2.25,1.87,3.68,4.68,3.68,7.83Z" style="fill:#8394c6;"/></g><g><rect x="411.13" y="189.96" width="18.86" height="2.78" style="fill:#e6a527;"/><rect x="411.13" y="196.09" width="9.72" height="1.13" style="fill:#a6aeba;"/><rect x="422.43" y="196.09" width="6.21" height="1.13" style="fill:#a6aeba;"/><polygon points="425.13 199.11 425.13 199.86 424.49 199.86 424.49 199.11 414.46 199.11 414.46 200.24 429.41 200.24 429.41 199.11 425.13 199.11" style="fill:#a6aeba;"/><rect x="411.13" y="199.11" width="2.54" height="1.13" style="fill:#a6aeba;"/><rect x="429.99" y="199.11" width="2.38" height="1.13" style="fill:#a6aeba;"/><rect x="411.13" y="202.12" width="19.65" height="1.13" style="fill:#a6aeba;"/><rect x="411.13" y="205.14" width="14.31" height="1.13" style="fill:#a6aeba;"/><rect x="426.4" y="205.14" width="5.97" height="1.13" style="fill:#a6aeba;"/></g><g><g><rect x="426.46" y="164.35" width="11.81" height="2.8" style="fill:#95a0ab;"/><rect x="426.43" y="169.43" width="11.86" height=".77" style="fill:#f3d15f;"/><rect x="426.43" y="172.66" width="11.86" height=".77" style="fill:#f3d15f;"/></g><g><rect x="466.65" y="164.35" width="11.81" height="2.8" style="fill:#95a0ab;"/><rect x="466.63" y="169.43" width="11.86" height=".77" style="fill:#f3d15f;"/><rect x="466.63" y="172.66" width="11.86" height=".77" style="fill:#f3d15f;"/></g><g><rect x="506.85" y="164.35" width="11.81" height="2.8" style="fill:#95a0ab;"/><rect x="506.82" y="169.43" width="11.86" height=".77" style="fill:#f3d15f;"/><rect x="506.82" y="172.66" width="11.86" height=".77" style="fill:#f3d15f;"/></g></g></g></g><g><rect x="204.74" y="29.94" width="159.98" height="179.13" style="fill:#fff;"/><g><g><rect x="234.36" y="35.76" width="40.74" height="4.65" style="fill:#e8e8ea;"/><rect x="334.43" y="35.76" width="17.87" height="4.65" style="fill:#e8e8ea;"/><rect x="334.43" y="46.57" width="17.87" height="1.53" style="fill:#e8e8ea;"/></g><g><g><path d="M229.48,131.72c-6.54,0-11.84,5.3-11.84,11.84s5.3,11.84,11.84,11.84,11.84-5.3,11.84-11.84-5.3-11.84-11.84-11.84Zm0,19.01c-3.96,0-7.17-3.21-7.17-7.17s3.21-7.17,7.17-7.17,7.17,3.21,7.17,7.17-3.21,7.17-7.17,7.17Z" style="fill:#f3d15f;"/><path d="M229.48,138.83c-2.61,0-4.73,2.12-4.73,4.73s2.12,4.73,4.73,4.73,4.73-2.12,4.73-4.73-2.12-4.73-4.73-4.73Zm0,8.9c-2.3,0-4.17-1.87-4.17-4.17s1.87-4.17,4.17-4.17,4.17,1.87,4.17,4.17-1.87,4.17-4.17,4.17Z" style="fill:#f3d15f;"/></g><g><path d="M255.73,131.72c-6.54,0-11.84,5.3-11.84,11.84s5.3,11.84,11.84,11.84,11.84-5.3,11.84-11.84-5.3-11.84-11.84-11.84Zm0,19.01c-3.96,0-7.17-3.21-7.17-7.17s3.21-7.17,7.17-7.17,7.17,3.21,7.17,7.17-3.21,7.17-7.17,7.17Z" style="fill:#f3d15f;"/><path d="M255.73,138.83c-2.61,0-4.73,2.12-4.73,4.73s2.12,4.73,4.73,4.73,4.73-2.12,4.73-4.73-2.12-4.73-4.73-4.73Zm0,8.9c-2.3,0-4.17-1.87-4.17-4.17s1.87-4.17,4.17-4.17,4.17,1.87,4.17,4.17-1.87,4.17-4.17,4.17Z" style="fill:#f3d15f;"/></g></g><g><polygon points="221.35 180.03 221.06 179.31 261.56 162.82 270.36 166.71 281.2 151.07 288.48 155.65 296.38 144.3 297.01 144.75 288.69 156.7 281.41 152.12 270.63 167.68 261.54 163.66 221.35 180.03" style="fill:#f3d15f;"/><g><rect x="233.46" y="171.16" width="7.1" height="28.42" style="fill:#8394c6;"/><rect x="244.97" y="175.57" width="7.1" height="24.01" style="fill:#8394c6;"/><rect x="256.49" y="170.43" width="7.1" height="29.15" style="fill:#8394c6;"/><rect x="268" y="178.51" width="7.1" height="21.07" style="fill:#8394c6;"/><rect x="279.52" y="158.67" width="7.1" height="40.91" style="fill:#8394c6;"/><rect x="291.03" y="154.75" width="7.1" height="44.83" style="fill:#8394c6;"/></g></g><g><g><g><rect x="236.17" y="55.02" width="9.26" height="70.39" style="fill:#e8e8ea;"/><rect x="249.62" y="55.02" width="9.26" height="70.39" style="fill:#e8e8ea;"/><rect x="263.06" y="55.02" width="9.26" height="70.39" style="fill:#e8e8ea;"/><rect x="276.51" y="55.02" width="9.26" height="70.39" style="fill:#e8e8ea;"/><rect x="289.96" y="55.02" width="9.26" height="70.39" style="fill:#e8e8ea;"/><rect x="303.4" y="55.02" width="9.26" height="70.39" style="fill:#e8e8ea;"/><rect x="316.85" y="55.02" width="9.26" height="70.39" style="fill:#e8e8ea;"/><rect x="330.29" y="55.02" width="9.26" height="70.39" style="fill:#e8e8ea;"/><rect x="343.74" y="55.02" width="9.26" height="70.39" style="fill:#e8e8ea;"/></g><g><rect x="239.02" y="59.73" width="1.16" height="65.26" style="fill:#fff;"/><rect x="252.58" y="59.73" width="1.16" height="65.26" style="fill:#fff;"/><rect x="266.13" y="59.73" width="1.16" height="65.26" style="fill:#fff;"/><rect x="279.69" y="59.73" width="1.16" height="65.26" style="fill:#fff;"/><rect x="293.24" y="59.73" width="1.16" height="65.26" style="fill:#fff;"/><rect x="306.8" y="59.73" width="1.16" height="65.26" style="fill:#fff;"/><rect x="320.35" y="59.73" width="1.16" height="65.26" style="fill:#fff;"/><rect x="333.91" y="59.73" width="1.16" height="65.26" style="fill:#fff;"/><rect x="347.46" y="59.73" width="1.16" height="65.26" style="fill:#fff;"/><rect x="237.47" y="92.45" width="4.26" height="32.53" style="fill:#e6a527;"/><rect x="251.03" y="92.45" width="4.26" height="32.53" style="fill:#e6a527;"/><rect x="264.58" y="103.01" width="4.26" height="21.98" style="fill:#e6a527;"/><rect x="278.14" y="81.03" width="4.26" height="43.96" style="fill:#e6a527;"/><rect x="278.14" y="81.03" width="4.26" height="9.18" style="fill:#f3d15f;"/><rect x="291.69" y="74.25" width="4.26" height="50.73" style="fill:#e6a527;"/><rect x="305.25" y="92.45" width="4.26" height="32.53" style="fill:#e6a527;"/><rect x="318.8" y="79.09" width="4.26" height="45.89" style="fill:#e6a527;"/><rect x="318.8" y="79.09" width="4.26" height="3.12" style="fill:#f3d15f;"/><rect x="332.36" y="84.13" width="4.26" height="40.86" style="fill:#e6a527;"/><rect x="345.91" y="92.45" width="4.26" height="32.53" style="fill:#e6a527;"/></g></g><g><rect x="222.97" y="122.19" width="8.71" height="2.52" style="fill:#e8e8ea;"/><rect x="222.97" y="111.78" width="8.71" height="2.52" style="fill:#e8e8ea;"/><rect x="222.97" y="101.37" width="8.71" height="2.52" style="fill:#e8e8ea;"/><rect x="222.97" y="90.96" width="8.71" height="2.52" style="fill:#e8e8ea;"/><rect x="222.97" y="80.55" width="8.71" height="2.52" style="fill:#e8e8ea;"/><rect x="222.97" y="70.14" width="8.71" height="2.52" style="fill:#e8e8ea;"/><rect x="222.97" y="59.73" width="8.71" height="2.52" style="fill:#e8e8ea;"/></g><g><rect x="236.17" y="51.69" width="9.26" height=".99" style="fill:#a6aeba;"/><rect x="249.62" y="51.69" width="9.26" height=".99" style="fill:#a6aeba;"/><rect x="263.06" y="51.69" width="9.26" height=".99" style="fill:#a6aeba;"/><rect x="276.51" y="51.69" width="9.26" height=".99" style="fill:#a6aeba;"/><rect x="289.96" y="51.69" width="9.26" height=".99" style="fill:#a6aeba;"/><rect x="303.4" y="51.69" width="9.26" height=".99" style="fill:#a6aeba;"/><rect x="316.85" y="51.69" width="9.26" height=".99" style="fill:#a6aeba;"/><rect x="330.29" y="51.69" width="9.26" height=".99" style="fill:#a6aeba;"/><rect x="343.74" y="51.69" width="9.26" height=".99" style="fill:#a6aeba;"/></g></g></g></g><g><rect x="29.61" y="81.13" width="150.85" height="90.82" style="fill:#fff;"/><g><g><circle cx="155.99" cy="113.15" r="22.57" style="fill:#e6a527;"/><path d="M155.91,90.58c-6.29,.02-11.97,2.62-16.04,6.79l15.01,16.11,10.55-20.83c-2.9-1.34-6.12-2.08-9.52-2.06Z" style="fill:#f3d15f;"/><path d="M175.39,101.61c-2.33-3.9-5.8-7.04-9.96-8.96l-10.55,20.83,.22,.23,20.29-12.1Z" style="fill:#36336a;"/><path d="M139.87,97.37c-4,4.09-6.46,9.69-6.44,15.87,.02,4.21,1.18,8.14,3.2,11.5l17.99-10.73,.26-.52-15.01-16.11Z" style="fill:#8394c6;"/><polygon points="154.88 113.48 154.62 114 155.1 113.71 154.88 113.48" style="fill:#e6a527;"/><path d="M170.6,130.35l-15.5-16.64-.48,.29-9.56,18.88c3.27,1.82,7.03,2.85,11.03,2.83,5.54-.02,10.6-2.04,14.52-5.37Z" style="fill:#36336a;"/><path d="M136.63,124.73c2.04,3.4,4.95,6.22,8.42,8.15l9.56-18.88-17.99,10.73Z" style="fill:#e8e8ea;"/><path d="M175.39,101.61l-20.29,12.1,15.5,16.64c4.89-4.16,7.99-10.36,7.96-17.28-.02-4.19-1.18-8.1-3.18-11.46Z" style="fill:#8394c6;"/><circle cx="155.99" cy="113.15" r="15.75" style="fill:#fff;"/><path d="M155.99,126.8c-7.53,0-13.65-6.12-13.65-13.65s6.12-13.65,13.65-13.65,13.65,6.12,13.65,13.65-6.12,13.65-13.65,13.65Zm0-26.53c-7.1,0-12.88,5.78-12.88,12.88s5.78,12.88,12.88,12.88,12.88-5.78,12.88-12.88-5.78-12.88-12.88-12.88Z" style="fill:#e6a527;"/></g><g><rect x="155.47" y="140.68" width="6.7" height="1.54" style="fill:#e6a527;"/><rect x="155.47" y="144.8" width="9.93" height="1.54" style="fill:#a6aeba;"/><rect x="166.72" y="144.8" width="4.89" height="1.54" style="fill:#a6aeba;"/><rect x="172.01" y="144.8" width="3.13" height="1.54" style="fill:#a6aeba;"/><rect x="155.47" y="148.91" width="4.74" height="1.54" style="fill:#a6aeba;"/><rect x="161.49" y="148.91" width="12.18" height="1.54" style="fill:#a6aeba;"/><rect x="169.56" y="153.02" width="5.58" height="1.54" style="fill:#a6aeba;"/><rect x="155.47" y="153.02" width="13.55" height="1.54" style="fill:#a6aeba;"/><rect x="155.47" y="157.13" width="8.56" height="1.54" style="fill:#a6aeba;"/><rect x="165.35" y="157.13" width="3.67" height="1.54" style="fill:#a6aeba;"/><rect x="169.56" y="157.13" width="2.13" height="1.54" style="fill:#a6aeba;"/></g><g><rect x="46.98" y="153.69" width="17.17" height="1.05" style="fill:#e6a527;"/><rect x="46.98" y="156.5" width="20.65" height="1.05" style="fill:#a6aeba;"/><rect x="54.87" y="159.3" width="12.76" height="1.05" style="fill:#a6aeba;"/><rect x="46.98" y="159.3" width="6.02" height="1.05" style="fill:#a6aeba;"/><rect x="46.98" y="162.11" width="20.65" height="1.05" style="fill:#a6aeba;"/><rect x="46.98" y="164.92" width="20.65" height="1.05" style="fill:#a6aeba;"/></g><g><g><g><rect x="46.59" y="95.92" width=".77" height="50.49" style="fill:#1b2e45;"/><rect x="60.95" y="95.92" width=".77" height="50.49" style="fill:#1b2e45;"/><rect x="75.31" y="95.92" width=".77" height="50.49" style="fill:#1b2e45;"/><rect x="89.68" y="95.92" width=".77" height="50.49" style="fill:#1b2e45;"/><rect x="104.04" y="95.92" width=".77" height="50.49" style="fill:#1b2e45;"/><rect x="118.4" y="95.92" width=".77" height="50.49" style="fill:#1b2e45;"/></g><rect x="44.64" y="115.98" width="4.67" height="30.43" style="fill:#a6aeba;"/><rect x="59.14" y="126.41" width="4.67" height="20" style="fill:#a6aeba;"/><rect x="73.38" y="117.64" width="4.67" height="28.77" style="fill:#a6aeba;"/><rect x="87.73" y="106.68" width="4.67" height="39.74" style="fill:#a6aeba;"/><rect x="102.09" y="123.46" width="4.67" height="22.96" style="fill:#a6aeba;"/><rect x="37.14" y="147.37" width="84.46" height=".65" style="fill:#e8e8ea;"/><polygon points="123.73 106.92 118.79 98.35 113.84 106.92 116.45 106.92 116.45 146.41 121.12 146.41 121.12 106.92 123.73 106.92" style="fill:#f3d15f;"/></g><g><path d="M43.17,143.94c0,.33-.26,.59-.59,.59h-4.85c-.33,0-.59-.26-.59-.59h0c0-.33,.26-.59,.59-.59h4.85c.33,0,.59,.26,.59,.59h0Z" style="fill:#e8e8ea;"/><path d="M43.17,135.52c0,.33-.26,.59-.59,.59h-4.85c-.33,0-.59-.26-.59-.59h0c0-.33,.26-.59,.59-.59h4.85c.33,0,.59,.26,.59,.59h0Z" style="fill:#e8e8ea;"/><path d="M43.17,127.11c0,.33-.26,.59-.59,.59h-4.85c-.33,0-.59-.26-.59-.59h0c0-.33,.26-.59,.59-.59h4.85c.33,0,.59,.26,.59,.59h0Z" style="fill:#e8e8ea;"/><path d="M43.17,118.69c0,.33-.26,.59-.59,.59h-4.85c-.33,0-.59-.26-.59-.59h0c0-.33,.26-.59,.59-.59h4.85c.33,0,.59,.26,.59,.59h0Z" style="fill:#e8e8ea;"/><path d="M43.17,110.28c0,.33-.26,.59-.59,.59h-4.85c-.33,0-.59-.26-.59-.59h0c0-.33,.26-.59,.59-.59h4.85c.33,0,.59,.26,.59,.59h0Z" style="fill:#e8e8ea;"/><path d="M43.17,101.87c0,.33-.26,.59-.59,.59h-4.85c-.33,0-.59-.26-.59-.59h0c0-.33,.26-.59,.59-.59h4.85c.33,0,.59,.26,.59,.59h0Z" style="fill:#e8e8ea;"/><path d="M43.17,93.45c0,.33-.26,.59-.59,.59h-4.85c-.33,0-.59-.26-.59-.59h0c0-.33,.26-.59,.59-.59h4.85c.33,0,.59,.26,.59,.59h0Z" style="fill:#e8e8ea;"/></g></g></g></g><g><rect x="387.25" y="39.77" width="94.28" height="62.26" style="fill:#fff;"/><g><g><g><rect x="396.36" y="68.67" width="8.1" height="22.8" style="fill:#8394c6;"/><rect x="406.56" y="75.6" width="8.1" height="15.87" style="fill:#8394c6;"/><rect x="416.76" y="59.73" width="8.1" height="31.74" style="fill:#8394c6;"/><rect x="426.96" y="68.67" width="8.1" height="22.8" style="fill:#8394c6;"/><rect x="437.16" y="59.73" width="8.1" height="31.74" style="fill:#8394c6;"/><rect x="447.36" y="62.25" width="8.1" height="29.22" style="fill:#8394c6;"/><rect x="457.56" y="55.93" width="8.1" height="35.54" style="fill:#8394c6;"/></g><g><rect x="396.36" y="89.19" width="8.1" height="2.28" style="fill:#456fb0;"/><rect x="406.56" y="82.34" width="8.1" height="9.13" style="fill:#456fb0;"/><rect x="416.76" y="86.91" width="8.1" height="4.56" style="fill:#456fb0;"/><rect x="426.96" y="82.34" width="8.1" height="9.13" style="fill:#456fb0;"/><rect x="437.16" y="76.86" width="8.1" height="14.61" style="fill:#456fb0;"/><rect x="447.36" y="82.34" width="8.1" height="9.13" style="fill:#456fb0;"/><rect x="457.56" y="68.67" width="8.1" height="22.8" style="fill:#456fb0;"/></g></g><g><rect x="462.81" y="42.57" width="12.79" height="1.88" style="fill:#e6a527;"/><rect x="462.81" y="46.73" width="6.59" height=".77" style="fill:#a6aeba;"/><rect x="470.48" y="46.73" width="4.21" height=".77" style="fill:#a6aeba;"/><polygon points="472.3 48.78 472.3 49.29 471.87 49.29 471.87 48.78 465.07 48.78 465.07 49.55 475.21 49.55 475.21 48.78 472.3 48.78" style="fill:#a6aeba;"/><rect x="462.81" y="48.78" width="1.72" height=".77" style="fill:#a6aeba;"/><rect x="475.6" y="48.78" width="1.61" height=".77" style="fill:#a6aeba;"/></g><g><rect x="397.2" y="53.02" width="6.55" height="1.59" rx=".79" ry=".79" style="fill:#e6a527;"/><rect x="407.34" y="53.02" width="6.55" height="1.59" rx=".79" ry=".79" style="fill:#e6a527;"/><rect x="417.54" y="53.02" width="6.55" height="1.59" rx=".79" ry=".79" style="fill:#e6a527;"/><rect x="427.74" y="53.02" width="6.55" height="1.59" rx=".79" ry=".79" style="fill:#e6a527;"/><rect x="437.94" y="53.02" width="6.55" height="1.59" rx=".79" ry=".79" style="fill:#e6a527;"/><rect x="448.13" y="53.02" width="6.55" height="1.59" rx=".79" ry=".79" style="fill:#e6a527;"/><rect x="458.15" y="53.02" width="6.55" height="1.59" rx=".79" ry=".79" style="fill:#e6a527;"/></g></g></g></g></g></g></svg>