<?xml version="1.0" encoding="UTF-8"?><svg xmlns="http://www.w3.org/2000/svg" viewBox="0 0 600 350"><g style="isolation:isolate;"><g id="a"/><g id="b"/><g id="c"/><g id="d"/><g id="e"/><g id="f"/><g id="g"/><g id="h"/><g id="i"/><g id="j"><g><path d="M565.27,313.73H277.13c-28.15,0-56.43,.81-84.56,.04-11.01-.3-19.48-1.67-30.66,.09-14.2,2.24-28.6,3.81-42.99,2.83-20.48-1.39-41.34-8.44-55.45-23.35-10.88-11.5-17.1-27.3-16.97-43.13,.12-14.97,5.99-32.99,18.21-42.26,13.33-10.11,29.72-16.15,43.64-25.46,18.61-12.43,37.8-26.88,48.64-46.98,9.77-18.11,10.99-41.29,27.71-55.19,26.13-21.71,79.74-31.97,111.62-17.86,23.13,10.24,34.1,33.57,50.39,51.36,13.7,14.97,31.01,23.51,51.33,25.02,42.09,3.12,42.98-18.13,67.77-2.74,27.01,16.77,5.72,56.05,28.47,105.42,20.86,45.28,58.18,59.49,70.99,72.22Z" style="fill:#f8feff;"/><path d="M171.49,103.34h67.59c10.15,0,18.71-7.94,19.07-18.08,0-.28,.01-.55,.01-.83,0-12.82-10.39-23.22-23.22-23.22-1.44,0-2.84,.14-4.21,.39,.12-.97,.2-1.96,.2-2.97,0-12.82-10.39-23.22-23.22-23.22s-23.22,10.39-23.22,23.22c0,.8,.04,1.58,.12,2.36-3.32-1.51-7.06-2.26-11-2.03-11.77,.71-21.25,10.33-21.77,22.11-.24,5.37,1.35,10.35,4.18,14.39,3.52,5,9.34,7.88,15.46,7.88Z" style="fill:#cbe2f8;"/><path d="M364.54,103.34h67.59c10.15,0,18.71-7.94,19.07-18.08,0-.28,.01-.55,.01-.83,0-12.82-10.39-23.22-23.22-23.22-1.44,0-2.84,.14-4.21,.39,.12-.97,.2-1.96,.2-2.97,0-12.82-10.39-23.22-23.22-23.22s-23.22,10.39-23.22,23.22c0,.8,.04,1.58,.12,2.36-3.32-1.51-7.06-2.26-11-2.03-11.77,.71-21.25,10.33-21.77,22.11-.24,5.37,1.35,10.35,4.18,14.39,3.52,5,9.34,7.88,15.46,7.88Z" style="fill:#cbe2f8;"/><g><g><g><g><path d="M329.53,313.24h-63.79c15.08-5.66,17.19-27.83,17.19-27.83,0,1.13,31.22-.22,31.22-.22,0,.28,.01,.55,.02,.82,.21,5.23,1.72,9.81,3.72,13.65,4.55,8.72,11.64,13.59,11.64,13.59Z" style="fill:#7c9de2;"/><path d="M317.89,299.65c-8.42-5.87-35.42-10.62-35.42-10.62l31.69-3.02c.21,5.23,1.72,9.81,3.72,13.65Z" style="mix-blend-mode:soft-light; opacity:.6;"/></g><path d="M398.04,161.2v121.96c0,3.37-2.73,6.1-6.1,6.1H203.31c-3.37,0-6.09-2.73-6.09-6.1v-121.96c0-3.37,2.72-6.1,6.09-6.1h188.63c3.37,0,6.1,2.73,6.1,6.1Z" style="fill:#7c9de2;"/><rect x="204.99" y="164.72" width="185.27" height="106.53" style="fill:#d0e0fa;"/><circle cx="297.63" cy="279.98" r="5.73" style="mix-blend-mode:soft-light; opacity:.6;"/></g><g><g><polygon points="216.01 271.27 211.42 155.1 216 155.11 216.01 271.27" style="mix-blend-mode:soft-light; opacity:.6;"/><polygon points="380.2 271.27 384.79 155.1 380.21 155.11 380.2 271.27" style="mix-blend-mode:soft-light; opacity:.6;"/></g><g><g><path d="M380.24,139.8v131.47H216V139.8c0-2.97,2.41-5.38,5.38-5.38h153.48c2.97,0,5.38,2.41,5.38,5.38Z" style="fill:#c0d1ff;"/><path d="M380.24,139.8v7.17H216v-7.17c0-2.97,2.41-5.38,5.38-5.38h153.48c2.97,0,5.38,2.41,5.38,5.38Z" style="fill:#9eb3e8;"/><g><path d="M228.44,141.42c0,1.56-1.27,2.83-2.83,2.83s-2.83-1.27-2.83-2.83,1.27-2.83,2.83-2.83,2.83,1.27,2.83,2.83Z" style="fill:#fff;"/><path d="M236.76,141.42c0,1.56-1.27,2.83-2.83,2.83s-2.83-1.27-2.83-2.83,1.27-2.83,2.83-2.83,2.83,1.27,2.83,2.83Z" style="fill:#fff;"/><path d="M245.07,141.42c0,1.56-1.27,2.83-2.83,2.83s-2.83-1.27-2.83-2.83,1.27-2.83,2.83-2.83,2.83,1.27,2.83,2.83Z" style="fill:#fff;"/></g></g><g><rect x="223.13" y="153.87" width="135.73" height="10.52" style="fill:#fff;"/><g><path d="M367.38,161.12c-.61,0-1.18-.23-1.62-.65-.45-.43-.71-1.02-.72-1.65-.01-.63,.22-1.22,.65-1.67,.43-.45,1.02-.71,1.64-.72,.63-.01,1.22,.22,1.67,.65,.45,.43,.71,1.02,.72,1.64,.01,.63-.22,1.22-.65,1.67-.43,.45-1.02,.71-1.64,.72h-.05Zm0-4.01c-.44,0-.88,.17-1.2,.51-.31,.32-.47,.74-.46,1.19,0,.45,.19,.86,.51,1.17,.32,.31,.74,.47,1.19,.46,.45,0,.86-.19,1.17-.51,.31-.32,.47-.74,.46-1.19,0-.45-.19-.86-.51-1.17-.32-.31-.74-.46-1.15-.46Z" style="fill:#30376d;"/><path d="M371.66,163.09c-.08,0-.17-.03-.24-.09l-2.7-2.59c-.14-.13-.14-.35-.01-.48,.13-.14,.35-.14,.48,0l2.7,2.59c.14,.13,.14,.35,.01,.48-.07,.07-.16,.1-.25,.1Z" style="fill:#30376d;"/></g><g><rect x="223.13" y="171.51" width="73.28" height="70.9" style="fill:#2f579f;"/><g><rect x="226.52" y="175.92" width="66.65" height="5.09" style="fill:#fff;"/><rect x="226.52" y="184.37" width="66.65" height="5.09" style="fill:#fff;"/><rect x="226.52" y="192.96" width="66.65" height="5.09" style="fill:#fff;"/></g><g><rect x="264.49" y="204.88" width="28.68" height="3.23" style="fill:#fff;"/><rect x="264.49" y="210.36" width="28.68" height="3.23" style="fill:#fff;"/><rect x="264.49" y="215.83" width="28.68" height="3.23" style="fill:#fff;"/><rect x="264.49" y="221.31" width="28.68" height="3.23" style="fill:#fff;"/><rect x="264.49" y="226.79" width="28.68" height="3.23" style="fill:#fff;"/><rect x="264.49" y="232.27" width="28.68" height="3.23" style="fill:#fff;"/></g><rect x="226.52" y="201.56" width="35.95" height="35.19" style="fill:#fff;"/></g><g><rect x="300.16" y="172.3" width="74.2" height="6.26" style="fill:#fff;"/><rect x="300.16" y="182.71" width="74.2" height="6.26" style="fill:#fff;"/><rect x="300.16" y="193.12" width="74.2" height="6.26" style="fill:#fff;"/></g><g><rect x="223.02" y="246.73" width="150.66" height="4.45" style="fill:#fff;"/><rect x="223.02" y="254.12" width="150.66" height="4.45" style="fill:#fff;"/><rect x="223.02" y="261.51" width="150.66" height="4.45" style="fill:#fff;"/></g><g><rect x="299.54" y="208.5" width="39.75" height="3.23" style="fill:#fff;"/><rect x="299.54" y="213.98" width="39.75" height="3.23" style="fill:#fff;"/><rect x="299.54" y="219.45" width="39.75" height="3.23" style="fill:#fff;"/><rect x="299.54" y="224.93" width="39.75" height="3.23" style="fill:#fff;"/><rect x="299.54" y="230.41" width="39.75" height="3.23" style="fill:#fff;"/><rect x="299.54" y="235.89" width="39.75" height="3.23" style="fill:#fff;"/></g></g></g></g></g><g><path d="M331.82,312.17v-36.07c0-1.16,.94-2.09,2.09-2.09h16.51c.48,0,.94,.17,1.31,.47l5.25,4.32c.31,.26,.7,.4,1.11,.4h19.99c1.16,0,2.09,.94,2.09,2.09v30.99l-48.36-.11Z" style="fill:#e58741;"/><path d="M340.63,281.14h30.74c3.28,0,5.94,2.66,5.94,5.94v6.54h-42.62v-6.54c0-3.28,2.66-5.94,5.94-5.94Z" style="mix-blend-mode:soft-light; opacity:.3;"/><path d="M341.05,282.14h29.9c3.09,0,5.6,2.51,5.6,5.6v5.89h-41.1v-5.89c0-3.09,2.51-5.6,5.6-5.6Z" style="fill:#fff;"/><rect x="331.75" y="286.87" width="48.48" height="27.71" rx="5.73" ry="5.73" style="fill:#f99746;"/></g></g><g><g><line x1="147.07" y1="82.35" x2="142.99" y2="82.35" style="fill:none; stroke:#d3e1e5; stroke-linecap:square; stroke-miterlimit:10; stroke-width:1.5px;"/><line x1="138.54" y1="82.35" x2="105.66" y2="82.35" style="fill:none; stroke:#d3e1e5; stroke-dasharray:0 0 7.26 4.44; stroke-linecap:square; stroke-miterlimit:10; stroke-width:1.5px;"/><polyline points="103.44 82.35 99.35 82.35 99.35 86.44" style="fill:none; stroke:#d3e1e5; stroke-linecap:square; stroke-miterlimit:10; stroke-width:1.5px;"/><line x1="99.35" y1="91.48" x2="99.35" y2="221.8" style="fill:none; stroke:#d3e1e5; stroke-dasharray:0 0 8.24 5.04; stroke-linecap:square; stroke-miterlimit:10; stroke-width:1.5px;"/><polyline points="99.35 224.32 99.35 228.4 103.44 228.4" style="fill:none; stroke:#d3e1e5; stroke-linecap:square; stroke-miterlimit:10; stroke-width:1.5px;"/><line x1="108.18" y1="228.4" x2="180.82" y2="228.4" style="fill:none; stroke:#d3e1e5; stroke-dasharray:0 0 7.75 4.75; stroke-linecap:square; stroke-miterlimit:10; stroke-width:1.5px;"/><line x1="183.19" y1="228.4" x2="187.28" y2="228.4" style="fill:none; stroke:#d3e1e5; stroke-linecap:square; stroke-miterlimit:10; stroke-width:1.5px;"/></g><g><line x1="452.93" y1="84.36" x2="457.01" y2="84.36" style="fill:none; stroke:#d3e1e5; stroke-linecap:square; stroke-miterlimit:10; stroke-width:1.5px;"/><line x1="461.46" y1="84.36" x2="494.34" y2="84.36" style="fill:none; stroke:#d3e1e5; stroke-dasharray:0 0 7.26 4.44; stroke-linecap:square; stroke-miterlimit:10; stroke-width:1.5px;"/><polyline points="496.56 84.36 500.65 84.36 500.65 88.44" style="fill:none; stroke:#d3e1e5; stroke-linecap:square; stroke-miterlimit:10; stroke-width:1.5px;"/><line x1="500.65" y1="93.49" x2="500.65" y2="223.8" style="fill:none; stroke:#d3e1e5; stroke-dasharray:0 0 8.24 5.04; stroke-linecap:square; stroke-miterlimit:10; stroke-width:1.5px;"/><polyline points="500.65 226.32 500.65 230.41 496.56 230.41" style="fill:none; stroke:#d3e1e5; stroke-linecap:square; stroke-miterlimit:10; stroke-width:1.5px;"/><line x1="491.58" y1="230.41" x2="415.3" y2="230.41" style="fill:none; stroke:#d3e1e5; stroke-dasharray:0 0 8.14 4.98; stroke-linecap:square; stroke-miterlimit:10; stroke-width:1.5px;"/><line x1="412.81" y1="230.41" x2="408.72" y2="230.41" style="fill:none; stroke:#d3e1e5; stroke-linecap:square; stroke-miterlimit:10; stroke-width:1.5px;"/></g><g><line x1="259.77" y1="84.36" x2="263.85" y2="84.36" style="fill:none; stroke:#d3e1e5; stroke-linecap:square; stroke-miterlimit:10; stroke-width:1.5px;"/><line x1="269.14" y1="84.36" x2="336.17" y2="84.36" style="fill:none; stroke:#d3e1e5; stroke-dasharray:0 0 8.64 5.29; stroke-linecap:square; stroke-miterlimit:10; stroke-width:1.5px;"/><line x1="338.82" y1="84.36" x2="342.9" y2="84.36" style="fill:none; stroke:#d3e1e5; stroke-linecap:square; stroke-miterlimit:10; stroke-width:1.5px;"/></g></g></g></g></g></svg>