<?xml version="1.0" encoding="UTF-8"?><svg xmlns="http://www.w3.org/2000/svg" xmlns:xlink="http://www.w3.org/1999/xlink" viewBox="0 0 600 350"><defs><style>.bu{stroke:url(#y);}.bu,.bv,.bw,.bx,.by,.c`,.ca,.cb,.cc,.cd,.ce,.cf{fill:none;stroke-linecap:round;stroke-linejoin:round;stroke-width:6.12px;}.bv{stroke:url(#bq);}.cg{fill:url(#be);}.bw{stroke:url(#ak);}.ch{fill:#fff;}.bx{stroke:url(#bo);}.by{stroke:url(#am);}.ci{fill:url(#bk);}.cj{fill:url(#ai);}.c`{stroke:url(#bm);}.ck{fill:#9485e3;}.cl{fill:#e69772;}.cm{fill:#ddf1ec;}.cn{fill:#d06951;}.co{fill:#32333f;}.cp{fill:#6556b3;}.cq{fill:url(#aq);}.cr{fill:url(#u);}.cs{fill:#8c8c8c;}.ca{stroke:url(#ba);}.ct{fill:#8f78f5;}.cu{fill:url(#as);}.cv{fill:url(#aw);}.cw{fill:#a695ff;}.cx{fill:#323885;}.cb{stroke:url(#ay);}.cy{fill:url(#bg);}.d`{fill:url(#ae);}.da{fill:url(#bi);}.db{fill:url(#au);}.dc{fill:#7d6aff;}.cc{stroke:url(#aa);}.dd{fill:#6290ef;}.de{fill:#dee4ff;}.df{fill:#4e36ba;}.dg{fill:#d3ccff;}.dh{fill:#e58e76;}.cd{stroke:url(#bc);}.ce{stroke:url(#w);}.di{fill:#5b3fda;}.dj{fill:url(#s);}.dk{fill:url(#ac);}.dl{fill:#8a7cd4;}.cf{stroke:url(#ao);}.dm{fill:#000067;}.dn{fill:#b5b5b5;}.do{fill:url(#q);}.dp{fill:url(#ag);}.dq{fill:url(#bs);}</style><linearGradient id="q" x1="68.09" y1="159.38" x2="74.2" y2="159.38" gradientTransform="matrix(1, 0, 0, 1, 0, 0)" gradientUnits="userSpaceOnUse"><stop offset=".06" stop-color="#fff"/><stop offset="1" stop-color="#e0e7eb"/></linearGradient><linearGradient id="s" x1="76.85" x2="82.96" xlink:href="#q"/><linearGradient id="u" x1="85.61" x2="91.72" xlink:href="#q"/><linearGradient id="w" x1="145.91" y1="159.38" x2="152.02" y2="159.38" xlink:href="#q"/><linearGradient id="y" x1="135.51" y1="159.38" x2="141.63" y2="159.38" xlink:href="#q"/><linearGradient id="aa" x1="125.24" y1="159.38" x2="131.36" y2="159.38" xlink:href="#q"/><linearGradient id="ac" x1="94.17" y1="159.24" x2="100.28" y2="159.24" xlink:href="#q"/><linearGradient id="ae" y1="203.92" y2="203.92" xlink:href="#q"/><linearGradient id="ag" x1="76.85" y1="203.92" x2="82.96" y2="203.92" xlink:href="#q"/><linearGradient id="ai" x1="85.61" y1="203.92" x2="91.72" y2="203.92" xlink:href="#q"/><linearGradient id="ak" x1="145.91" y1="203.92" x2="152.02" y2="203.92" xlink:href="#q"/><linearGradient id="am" x1="135.51" y1="203.92" x2="141.63" y2="203.92" xlink:href="#q"/><linearGradient id="ao" x1="125.24" y1="203.92" x2="131.36" y2="203.92" xlink:href="#q"/><linearGradient id="aq" x1="94.17" y1="203.78" x2="100.28" y2="203.78" xlink:href="#q"/><linearGradient id="as" y1="248.39" y2="248.39" xlink:href="#q"/><linearGradient id="au" x1="76.85" y1="248.39" x2="82.96" y2="248.39" xlink:href="#q"/><linearGradient id="aw" x1="85.61" y1="248.39" x2="91.72" y2="248.39" xlink:href="#q"/><linearGradient id="ay" x1="145.91" y1="248.39" x2="152.02" y2="248.39" xlink:href="#q"/><linearGradient id="ba" x1="135.51" y1="248.39" x2="141.63" y2="248.39" xlink:href="#q"/><linearGradient id="bc" x1="125.24" y1="248.39" x2="131.36" y2="248.39" xlink:href="#q"/><linearGradient id="be" x1="94.17" y1="248.24" x2="100.28" y2="248.24" xlink:href="#q"/><linearGradient id="bg" y1="292.85" y2="292.85" xlink:href="#q"/><linearGradient id="bi" x1="76.85" y1="292.85" x2="82.96" y2="292.85" xlink:href="#q"/><linearGradient id="bk" x1="85.61" y1="292.85" x2="91.72" y2="292.85" xlink:href="#q"/><linearGradient id="bm" x1="145.91" y1="292.85" x2="152.02" y2="292.85" xlink:href="#q"/><linearGradient id="bo" x1="135.51" y1="292.85" x2="141.63" y2="292.85" xlink:href="#q"/><linearGradient id="bq" x1="125.24" y1="292.85" x2="131.36" y2="292.85" xlink:href="#q"/><linearGradient id="bs" x1="94.17" y1="292.71" x2="100.28" y2="292.71" xlink:href="#q"/></defs><g id="a"/><g id="b"/><g id="c"/><g id="d"/><g id="e"/><g id="f"/><g id="g"/><g id="h"/><g id="i"/><g id="j"><path d="M7.35,256.04c-5.27-13.86-7.04-30.47,4.56-41.49,17.15-16.29,50.29-9.87,73.83-19.53,21.28-8.73,31.03-29.02,35.66-48.03,4.63-19.01,6.29-39.19,18.67-55.75,6.06-8.1,15.51-15.39,27.12-16.3,23.45-1.84,37.4,21.03,58.6,29.4,20.04,7.92,44.79,1.53,62.13-9.85,17.34-11.38,29.45-27.04,43.59-41.04,16.76-16.59,38.11-31.64,64.07-35.56,25.96-3.92,56.54,6.91,63.65,27.59,9.16,26.66-21.9,56.65-6.08,81.16,9.12,14.12,29.98,19.63,48.58,24.68,21.58,5.85,44.81,13.12,55.94,30.58,8.97,14.06,6.79,33.19-7.87,43.62-6.2,4.41-14.01,7.02-20.72,10.91-6.71,3.89-12.64,9.86-12,16.54,.57,5.93,6.19,10.77,12.38,13.94,6.19,3.17,13.2,5.21,19.22,8.59,10.22,5.73,16.98,15.35,17.88,25.42,.66,7.36-1.98,19.1-9.55,24.1-6.79,4.49-17.75,2.28-26.13,2.19-25.56-.28-51.13-.55-76.69-.83-50.46-.54-100.96-1.64-151.42-1.64l-124.29-1.34c-20.72-.22-41.43-.45-62.15-.67-14.84-.16-33.05,2.19-47.6-.42-14.64-2.63-27.29-16.66-35.8-25.83-10.73-11.55-21.71-26.11-25.56-40.44Z" style="fill:#dee4ff;"/><g><g><path d="M346.72,185.2s-41.01,49.76-55.51,48.47-24.44-25.55-24.44-25.55c0,0,.5-.27,1.34-.77,4.25-2.5,17.3-10.8,20.36-19.66,2.96-4.81,24.47-39.68,31.02-48.58,7.04-9.57,15.33-9.94,15.33-9.94,4.67,7.68,10.57,13.53,17.88,14.63,1,.15,1.98,.25,2.91,.29,.44,3.13,3.38,19.08,17.71,27.24,0,0,.55-11.11,7.9-12.1,0,0,7.78-4.26,14.2,1.97,0,0,10.18-10.92,0-41.6l-7.27-6.57h0l-3.33-7.93s37.17-1.86,45.77,6.11c8.6,7.96,63.59,80.74,63.59,80.74l-80,62.11s-48.5-48.1-67.45-68.85Z" style="fill:#6556b3;"/><path d="M395.41,119.6c10.18,30.68,0,41.6,0,41.6-6.42-6.24-14.2-1.97-14.2-1.97l10.37-38.03-3.44-8.17,7.27,6.57Z" style="fill:#ddf1ec;"/><path d="M370.45,152.13l10.76,7.1c-7.35,.99-7.9,12.1-7.9,12.1-14.33-8.16-17.27-24.11-17.71-27.24,.91,.04,1.79,.04,2.62-.02l12.23,8.06Z" style="fill:#ddf1ec;"/><path d="M346.47,184.8c-4.47-5.52-8.95-11.05-13.42-16.57-.36-.44-.98,.19-.63,.63,4.47,5.52,8.95,11.05,13.42,16.57,.36,.44,.98-.19,.63-.63Z" style="fill:#32333f;"/><path d="M342.55,185.89c-3.17-1.36-6.34-2.72-9.5-4.08-.52-.22-.97,.54-.45,.77,3.17,1.36,6.34,2.72,9.5,4.08,.52,.22,.97-.54,.45-.77Z" style="fill:#32333f;"/><path d="M413.26,211.22c-4.03-6.66-8.06-13.33-12.08-19.99-4.01-6.63-8.02-13.26-12.03-19.89-2.27-3.76-4.54-7.52-6.81-11.27-.3-.49-1.06-.04-.77,.45,4.03,6.66,8.06,13.33,12.08,19.99,4.01,6.63,8.02,13.26,12.03,19.89,2.27,3.76,4.54,7.52,6.82,11.27,.3,.49,1.06,.04,.77-.45Z" style="fill:#32333f;"/></g><g><path d="M289.11,184.41c-.04,1.09-.27,2.19-.65,3.28-3.06,8.86-16.11,17.15-20.36,19.66l-1.34-4.91s-6.88,1.55-11.92-2.82c-.13,.26-.35,.49-.6,.65-.71,.44-1.61,.44-2.44,.36-3.77-.34-7.45-1.79-10.44-4.12-1.77-1.38-3.36-3.16-3.85-5.35-.47-2.07,.32-4.53,2.16-5.54-.07-.33-.12-.67-.13-1-.08-1.93,.93-3.77,2.31-5.12,1.27-1.26,2.84-2.16,4.41-3.01,.02-.08,.04-.15,.05-.22,.38-1.37,1.36-2.5,2.5-3.35,1.03-.76,2.2-1.31,3.38-1.85-5.69-2.93-11.16-6.18-10.6-7.64,1.11-2.96,12.77-1.91,24.57,2.22,11.79,4.14,15.64,10.3,15.64,10.3,3.67-1.63,7.68-1.31,7.32,8.46Z" style="fill:#e69772;"/><path d="M284.79,186.07c-2.75,1.18-5.5,2.36-8.25,3.54-1.39,.6-2.78,1.19-4.17,1.79-1.14,.49-2.54,1.29-3.82,.89-1.38-.43-1.4-1.98-.87-3.08,.53-1.11,1.36-2.12,2.12-3.07,1.51-1.88,3.22-3.61,5.08-5.14,2.16-1.78,4.54-3.29,7.07-4.5,.51-.25,.06-1.01-.45-.77-4.88,2.35-9.21,5.81-12.55,10.07-1.31,1.66-3.76,4.59-1.81,6.67,.89,.95,2.33,.95,3.49,.59,1.44-.45,2.83-1.16,4.21-1.76,3.46-1.48,6.92-2.97,10.38-4.45,.52-.22,.07-.99-.45-.77Z" style="fill:#32333f;"/><path d="M263.12,177.21c-3.45-2.06-6.89-4.11-10.34-6.17-.49-.29-.94,.47-.45,.77l10.34,6.17c.49,.29,.94-.47,.45-.77Z" style="fill:#32333f;"/><path d="M264.73,193.85c-.09-.84-.47-1.62-.8-2.39-.35-.85-.71-1.7-1.06-2.55-1.63-3.9-3.26-7.81-4.89-11.71-.22-.52-1.08-.29-.86,.24,1.32,3.16,2.64,6.31,3.96,9.47,.67,1.6,1.33,3.19,2,4.79,.4,.97,1.65,3.51-.15,3.93-1.26,.29-2.73-.97-3.69-1.64-1.1-.78-2.15-1.63-3.15-2.54-1.98-1.81-3.73-3.87-5.2-6.11-1.66-2.53-2.97-5.28-3.86-8.18-.17-.54-1.03-.31-.86,.24,1.73,5.6,4.97,10.71,9.29,14.68,1.05,.96,2.16,1.86,3.33,2.68,1.11,.78,2.43,1.82,3.85,1.79,1.45-.02,2.23-1.35,2.08-2.69Z" style="fill:#32333f;"/><path d="M257.27,194.31c-.34-.45-1.11,0-.77,.45,.6,.8,.66,1.88-.04,2.64-.7,.75-1.74,.76-2.63,.37-.91-.4-1.71-1.08-2.48-1.69-.81-.64-1.6-1.29-2.38-1.96-3.09-2.67-5.94-5.62-8.5-8.79-.36-.44-.98,.19-.63,.63,2.36,2.92,4.95,5.64,7.75,8.14,1.37,1.21,2.78,2.38,4.24,3.47,1.29,.96,2.97,1.88,4.55,1.02,1.54-.84,1.94-2.88,.9-4.26Z" style="fill:#32333f;"/></g><g><path d="M391.58,121.2l-10.37,38.03-10.76-7.1c11.07-15.72,8.91-34.39,8.91-34.39,0,0-1.72,25.14-21.14,26.33-.83,.05-1.71,.06-2.62,.02-.93-.04-1.91-.14-2.91-.29-7.31-1.1-13.21-6.95-17.88-14.63-9.28-15.26-13.77-37.73-14.98-44.63,10.93-1.43,21.56-6.02,31.93-10.16,3.21-1.28,6.59-2.55,10.03-2.17,3.52,.38,6.67,2.48,9.03,5.12,2.07,2.32,3.61,5.04,5.07,7.78,.41-2.5,2.1-10.02,7.79-7.85,.66,.25,1.24,.65,1.75,1.15,4.72,4.76,2.98,19.54-2.36,22.55l1.74,4.14,3.33,7.92h0l3.44,8.18Z" style="fill:#e69772;"/><path d="M379.36,117.74s2.16,18.67-8.91,34.39l-12.23-8.06c19.42-1.18,21.14-26.33,21.14-26.33Z" style="fill:#32333f;"/><path d="M384.46,64.98c-.52-3.34-1.34-6.81-3.57-9.35-2-2.27-5.45-3.47-8.16-2.36,.78-2.98,.4-6.24-1.13-8.94-1.58-2.78-4.29-4.88-7.39-5.68-7.53-1.96-14.41,2.99-20.52,6.61-3.27,1.93-6.68,3.48-10.39,4.36-3.61,.85-7.36,1.11-11.05,.75-1.88-.18-3.73-.53-5.55-1.02-1.82-.49-3.63-1.05-5.52-1.2-3.13-.25-6.33,.94-7.59,4-1.17,2.85-.57,6.18,.57,8.94,.8,1.94,1.94,3.73,3.34,5.29-3.41-.36-7.02,1.39-8.73,4.39-1.94,3.39-1.25,8.06,1.57,10.76,2.44,2.34,5.98,3.08,9.34,3.33,3.41,.26,6.79,.11,10.13-.34,10.93-1.43,21.56-6.02,31.93-10.16,3.21-1.28,6.59-2.55,10.03-2.17,3.52,.38,6.67,2.48,9.03,5.12,2.07,2.32,3.61,5.04,5.07,7.78,.41-2.5,2.1-10.02,7.79-7.85,.66,.25,1.24,.65,1.75,1.15,.06-4.49-.26-8.99-.96-13.43Zm-18.86-21.79c-4.25-1.53-9.01-.53-13.15,1.26-4.14,1.79-7.92,4.33-12.08,6.06-7.59,3.14-16.33,3.42-24.1,.75-2.88-.99-6.02-2.38-8.82-1.19-2.17,.92-3.38,3.2-3.61,5.59,0-.54,.03-1.07,.12-1.6,.24-1.42,.87-2.78,2-3.7,1.23-1,2.88-1.35,4.43-1.34,1.83,.01,3.61,.53,5.36,1.01,1.71,.47,3.42,.86,5.17,1.09,6.81,.91,13.86-.25,20.01-3.32,6.3-3.15,12.07-8.43,19.45-8.66,3.3-.11,6.48,1.05,8.79,3.44,2.33,2.42,3.41,5.82,2.96,9.15-.02,.11-.05,.23-.07,.34,.17-3.79-2.79-7.54-6.47-8.88Z" style="fill:#32333f;"/><path d="M372.49,38.33c-.23-.52-.99-.07-.77,.45,1.65,3.82,2.47,7.97,2.43,12.13,0,.57,.88,.57,.89,0,.04-4.33-.83-8.6-2.55-12.58Z" style="fill:#32333f;"/><path d="M376.56,45.99c-.38,1.56-.76,3.12-1.14,4.68-.13,.56,.72,.79,.86,.24,.38-1.56,.76-3.12,1.14-4.69,.13-.56-.72-.79-.86-.24Z" style="fill:#32333f;"/></g></g><g><g><polygon points="370.53 309.04 370.53 314.71 291.28 314.71 230.88 281.88 230.88 276.77 292.44 309.04 370.53 309.04" style="fill:#000067;"/><polygon points="370.53 309.04 292.44 309.04 230.88 276.77 308.97 276.77 370.53 309.04" style="fill:#7d6aff;"/><polygon points="300.7 306.56 291.09 306.56 283.51 302.58 293.12 302.58 300.7 306.56" style="fill:#5b3fda;"/><polygon points="290.54 301.25 280.92 301.25 273.34 297.27 282.96 297.27 290.54 301.25" style="fill:#5b3fda;"/><polygon points="281.94 296.15 272.32 296.15 264.74 292.17 274.36 292.17 281.94 296.15" style="fill:#5b3fda;"/><polygon points="271.78 290.84 262.16 290.84 254.58 286.86 264.2 286.86 271.78 290.84" style="fill:#5b3fda;"/><polygon points="312.31 305.78 302.69 305.78 295.11 301.81 304.73 301.81 312.31 305.78" style="fill:#5b3fda;"/><polygon points="303.71 300.68 294.09 300.68 286.51 296.71 296.13 296.71 303.71 300.68" style="fill:#5b3fda;"/><polygon points="293.55 295.37 283.93 295.37 276.35 291.4 285.97 291.4 293.55 295.37" style="fill:#5b3fda;"/><polygon points="314.41 299.74 304.79 299.74 297.21 295.76 306.83 295.76 314.41 299.74" style="fill:#5b3fda;"/><polygon points="305.81 294.64 296.19 294.64 288.61 290.66 298.23 290.66 305.81 294.64" style="fill:#5b3fda;"/><polygon points="295.65 289.33 286.03 289.33 278.45 285.35 288.06 285.35 295.65 289.33" style="fill:#5b3fda;"/><polygon points="349.83 307.04 340.21 307.04 332.63 303.06 342.25 303.06 349.83 307.04" style="fill:#5b3fda;"/><polygon points="339.67 301.73 330.05 301.73 322.47 297.75 332.09 297.75 339.67 301.73" style="fill:#5b3fda;"/><polygon points="331.07 296.63 321.45 296.63 313.87 292.65 323.49 292.65 331.07 296.63" style="fill:#5b3fda;"/><polygon points="320.91 291.32 311.29 291.32 303.71 287.34 313.33 287.34 320.91 291.32" style="fill:#8c8c8c;"/><polygon points="361.43 306.26 351.82 306.26 344.24 302.29 353.85 302.29 361.43 306.26" style="fill:#8c8c8c;"/><polygon points="352.84 301.16 343.22 301.16 335.64 297.19 345.26 297.19 352.84 301.16" style="fill:#5b3fda;"/><polygon points="342.67 295.85 333.06 295.85 325.48 291.88 335.09 291.88 342.67 295.85" style="fill:#5b3fda;"/></g><g><polygon points="420.41 336.31 342.33 336.31 302.45 315.37 380.54 315.37 420.41 336.31" style="fill:#d3ccff;"/><polygon points="366.26 333.79 343.53 333.79 331.93 327.7 354.65 327.7 366.26 333.79" style="fill:#a695ff;"/><path d="M373.35,333.41c-.14,0-.28-.03-.41-.1l-26.95-14.15c-.43-.23-.6-.76-.37-1.2,.23-.43,.76-.6,1.2-.37l26.95,14.15c.43,.23,.6,.77,.37,1.2-.16,.3-.47,.48-.79,.48Z" style="fill:#8f78f5;"/><path d="M382.42,332.89c-.14,0-.28-.03-.41-.1l-26.95-14.15c-.43-.23-.6-.76-.37-1.2,.23-.43,.76-.6,1.2-.37l26.95,14.15c.43,.23,.6,.76,.37,1.2-.16,.3-.47,.48-.79,.48Z" style="fill:#8f78f5;"/><path d="M394.74,333.67c-.14,0-.28-.03-.41-.1l-26.95-14.15c-.43-.23-.6-.76-.37-1.2,.23-.43,.76-.6,1.2-.37l26.95,14.15c.43,.23,.6,.77,.37,1.2-.16,.3-.47,.48-.79,.48Z" style="fill:#8f78f5;"/><path d="M403.81,333.15c-.14,0-.28-.03-.41-.1l-26.95-14.15c-.43-.23-.6-.76-.37-1.2,.23-.43,.76-.6,1.2-.37l26.95,14.15c.43,.23,.6,.76,.37,1.2-.16,.3-.47,.48-.79,.48Z" style="fill:#8f78f5;"/></g></g><g id="k"><rect id="l" x="56.92" y="132.78" width="110.79" height="187.16" rx="4.84" ry="4.84" style="fill:#4e36ba;"/><rect id="m" x="63.88" y="183.98" width="96.88" height="39.74" rx="1.58" ry="1.58" style="fill:#7d6aff;"/><rect id="n" x="63.88" y="139.51" width="96.88" height="39.74" rx="1.58" ry="1.58" style="fill:#7d6aff;"/><rect id="o" x="63.88" y="272.91" width="96.88" height="39.74" rx="1.58" ry="1.58" style="fill:#7d6aff;"/><rect id="p" x="63.88" y="228.44" width="96.88" height="39.74" rx="1.58" ry="1.58" style="fill:#7d6aff;"/><rect id="r" x="68.09" y="143.09" width="6.11" height="32.59" rx="1.38" ry="1.38" style="fill:url(#q);"/><rect id="t" x="76.85" y="143.09" width="6.11" height="32.59" rx="1.38" ry="1.38" style="fill:url(#s);"/><rect id="v" x="85.61" y="143.09" width="6.11" height="32.59" rx="1.38" ry="1.38" style="fill:url(#u);"/><line id="x" x1="148.96" y1="159.38" x2="148.96" y2="159.38" style="fill:none; stroke:url(#w); stroke-linecap:round; stroke-linejoin:round; stroke-width:6.12px;"/><line id="a`" x1="138.57" y1="159.38" x2="138.57" y2="159.38" style="fill:none; stroke:url(#y); stroke-linecap:round; stroke-linejoin:round; stroke-width:6.12px;"/><line id="ab" x1="128.3" y1="159.38" x2="128.3" y2="159.38" style="fill:none; stroke:url(#aa); stroke-linecap:round; stroke-linejoin:round; stroke-width:6.12px;"/><rect id="ad" x="94.17" y="142.95" width="6.11" height="32.59" rx="1.38" ry="1.38" style="fill:url(#ac);"/><rect id="af" x="68.09" y="187.63" width="6.11" height="32.59" rx="1.38" ry="1.38" style="fill:url(#ae);"/><rect id="ah" x="76.85" y="187.63" width="6.11" height="32.59" rx="1.38" ry="1.38" style="fill:url(#ag);"/><rect id="aj" x="85.61" y="187.63" width="6.11" height="32.59" rx="1.38" ry="1.38" style="fill:url(#ai);"/><line id="al" x1="148.96" y1="203.92" x2="148.96" y2="203.92" style="fill:none; stroke:url(#ak); stroke-linecap:round; stroke-linejoin:round; stroke-width:6.12px;"/><line id="an" x1="138.57" y1="203.92" x2="138.57" y2="203.92" style="fill:none; stroke:url(#am); stroke-linecap:round; stroke-linejoin:round; stroke-width:6.12px;"/><line id="ap" x1="128.3" y1="203.92" x2="128.3" y2="203.92" style="fill:none; stroke:url(#ao); stroke-linecap:round; stroke-linejoin:round; stroke-width:6.12px;"/><rect id="ar" x="94.17" y="187.48" width="6.11" height="32.59" rx="1.38" ry="1.38" style="fill:url(#aq);"/><rect id="at" x="68.09" y="232.09" width="6.11" height="32.59" rx="1.38" ry="1.38" style="fill:url(#as);"/><rect id="av" x="76.85" y="232.09" width="6.11" height="32.59" rx="1.38" ry="1.38" style="fill:url(#au);"/><rect id="ax" x="85.61" y="232.09" width="6.11" height="32.59" rx="1.38" ry="1.38" style="fill:url(#aw);"/><line id="b`" x1="148.96" y1="248.39" x2="148.96" y2="248.39" style="fill:none; stroke:url(#ay); stroke-linecap:round; stroke-linejoin:round; stroke-width:6.12px;"/><line id="bb" x1="138.57" y1="248.39" x2="138.57" y2="248.39" style="fill:none; stroke:url(#ba); stroke-linecap:round; stroke-linejoin:round; stroke-width:6.12px;"/><line id="bd" x1="128.3" y1="248.39" x2="128.3" y2="248.39" style="fill:none; stroke:url(#bc); stroke-linecap:round; stroke-linejoin:round; stroke-width:6.12px;"/><rect id="bf" x="94.17" y="231.95" width="6.11" height="32.59" rx="1.38" ry="1.38" style="fill:url(#be);"/><rect id="bh" x="68.09" y="276.56" width="6.11" height="32.59" rx="1.38" ry="1.38" style="fill:url(#bg);"/><rect id="bj" x="76.85" y="276.56" width="6.11" height="32.59" rx="1.38" ry="1.38" style="fill:url(#bi);"/><rect id="bl" x="85.61" y="276.56" width="6.11" height="32.59" rx="1.38" ry="1.38" style="fill:url(#bk);"/><line id="bn" x1="148.96" y1="292.85" x2="148.96" y2="292.85" style="fill:none; stroke:url(#bm); stroke-linecap:round; stroke-linejoin:round; stroke-width:6.12px;"/><line id="bp" x1="138.57" y1="292.85" x2="138.57" y2="292.85" style="fill:none; stroke:url(#bo); stroke-linecap:round; stroke-linejoin:round; stroke-width:6.12px;"/><line id="br" x1="128.3" y1="292.85" x2="128.3" y2="292.85" style="fill:none; stroke:url(#bq); stroke-linecap:round; stroke-linejoin:round; stroke-width:6.12px;"/><rect id="bt" x="94.17" y="276.41" width="6.11" height="32.59" rx="1.38" ry="1.38" style="fill:url(#bs);"/></g><g><g><path d="M464.01,172.47l-20.06,22.51-5.12,13.83-1.05-12.97-2.11-15.8,.21-2.92,1.2-16.51c-3.33,.31-6.57,.22-9.62-.33-11.99-2.13-21.14-11.29-22.28-31.1-.7-12.07,.79-21.17,2.81-27.72,2.96-9.63,7.07-13.76,7.07-13.76,0,0,15,25.13,34.88,27.91,0,0,3.64-8.59,9.32-6.06,5.68,2.53,5.68,19.62-3.32,21.86-1.18,11.82,.54,23.94,4.98,34.96,.85,2.1,1.84,4.22,3.09,6.11Z" style="fill:#e69772;"/><path d="M447.1,158.62l-10.64,10.62,.63-8.64c3.27-.29,6.63-.98,10.01-1.98Z" style="fill:#32333f;"/><path d="M436.46,169.24l-.57,7.87s-11.53,5.17-16.81,17.38c-1.15-3.71-1.02-7.77-.2-11.58,.93-4.26,2.69-8.29,4.47-12.26,1.52-3.4,3.06-6.82,4.12-10.38,3.05,.55,6.29,.64,9.62,.33l-.63,8.64Z" style="fill:#32333f;"/><path d="M529.51,176.66c-2.38-9.74-8.16-18.17-14.75-25.57-5.33-5.99-11.26-11.41-16.88-17.12-1.76-2.87-3.41-5.8-4.88-8.83-5.51-11.36-8.39-23.86-14.06-35.13-5.68-11.28-15.19-21.78-27.66-23.72-18.31-2.86-35.79,13.38-54.01,9.96-.72,9.26,3.1,18.78,10.03,24.98l.68,.21c2.54-8.26,5.92-12.46,6.83-13.49,1.1,5.45,4.88,9.94,8.63,13.9,4.38,4.63,9.32,8.94,15.31,11.33,2.59,1.03,5.33,1.67,8.11,1.78,1.01,.26,2.03,.48,3.07,.63,0,0,3.64-8.59,9.32-6.06,5.68,2.53,5.68,19.62-3.32,21.86-1.18,11.82,.54,23.94,4.98,34.96,.85,2.1,1.84,4.22,3.09,6.11,.77,1.18,1.65,2.27,2.67,3.23h0c.36,.35,.75,.67,1.15,.99,7.81,5.96,19.31,2.39,28.5,5.84,8.51,3.2,13.78,12.15,15.17,21.14,1.39,8.99-.42,18.13-2.21,27.05l.16,.05c.18-.53,.35-1.07,.52-1.61,11.93-4.22,19-17.16,19.57-29.89,1.72-7.41,1.77-15.22-.03-22.61Zm-97.55-68.3c-2.5-1.82-4.77-3.93-6.93-6.14-2.11-2.17-4.18-4.41-5.92-6.89-1.3-1.87-2.4-3.91-3.06-6.08,3.06,4.64,13.04,18.48,26.2,24.15-3.7-.95-7.2-2.77-10.3-5.03Zm97.51,86.44c-.86-12.87-7.09-24.87-14.27-35.65-4.89-7.33-10.3-14.35-15.12-21.72,3.42,3.39,6.9,6.72,10.24,10.19,7.05,7.32,13.73,15.49,17.13,25.2,2.46,7.03,3.06,14.62,2.02,21.98Z" style="fill:#32333f;"/></g><g><path d="M509.3,230.71l.16,.05c-2.47,7.66-5.28,15.36-8.11,22.61h0c-8.76,22.43-17.78,40.71-18.06,41.26-8.65-11.95-24.76-19.88-29.99-22.23-1.07-.48-1.69-.73-1.69-.73l-3.3,9.88c.28,.26,.56,.52,.83,.76l-29.87,3.98v-12.31s-.74-1.6-1.83-4.14c-1.49-3.46-3.65-8.69-5.45-13.94-1.98-5.77-3.53-11.59-3.35-15.17,.5-9.22,20.69-44.77,20.69-44.77,.03,5.12,1.16,9.26,1.16,9.26,.09-.55,.29-1.14,.6-1.73,.09,.38,2.95,12.18,8.29,21.11l11.37-19.38c.47,1.22,.93,2.58,1.35,4.07,0,0,12.61-20.39,14.58-33.58,.36,.34,.75,.67,1.15,.98,7.81,5.96,19.31,2.39,28.5,5.84,8.51,3.2,13.78,12.15,15.17,21.14,1.39,8.99-.42,18.13-2.21,27.05Z" style="fill:#a695ff;"/><path d="M501.35,253.39l13.65,70.02h-51l20.69-26.71c-.44-.7-.91-1.39-1.4-2.06,.28-.54,9.3-18.83,18.06-41.25Z" style="fill:#8a7cd4;"/><path d="M483.29,294.64c.5,.68,.97,1.36,1.4,2.06l-1.99,3.46-10.03,17.45s-3.53-16.58-23.54-35.29c-.27-.25-.55-.51-.83-.76l3.3-9.88s.61,.25,1.69,.73c5.23,2.35,21.34,10.29,29.99,22.23Z" style="fill:#8a7cd4;"/><path d="M472.68,317.6s-22.94,.41-87.08-3.3c0,0-14.98,10.37-21.07,9.72-6.09-.66-18.11-11.94-21.08-16.63-2.96-4.69,4.78-11.69,4.78-11.69,0,0,.08-3.53,4.94-5.6,2.17-.91,8.11-.79,14.04-.37,7.39,.53,14.76,1.53,14.76,1.53l17.84-2.38,19.45-2.59,29.87-3.98c20.01,18.71,23.54,35.29,23.54,35.29Z" style="fill:#e69772;"/><path d="M466.68,175.7h0c-1.97,13.2-14.58,33.59-14.58,33.59-.42-1.49-.88-2.85-1.35-4.07-3.05-7.89-6.79-10.25-6.79-10.25l20.06-22.51c.77,1.18,1.65,2.27,2.67,3.23Z" style="fill:#fff;"/><path d="M450.75,205.22l-11.37,19.38c-5.34-8.94-8.2-20.73-8.29-21.11h0c1.79-3.61,6.69-7.66,6.69-7.66l1.05,12.97,5.12-13.83s3.75,2.36,6.79,10.25Z" style="fill:#ddf1ec;"/><path d="M429.3,252.01h13.86l.55,28.39h-20.49l-.42-28.39h6.5Zm9.52,16.06v-13.33h-11.14v13.33h11.14Z" style="fill:#fff;"/><rect x="427.68" y="254.74" width="11.14" height="13.33" style="fill:#6290ef;"/><path d="M435.68,180.03l2.1,15.8s-4.9,4.04-6.69,7.65h0c-.3,.6-.51,1.19-.6,1.74,0,0-1.14-4.14-1.16-9.26-.03-5.44,1.19-12.02,6.34-15.93Z" style="fill:#fff;"/><polygon points="432.87 247.69 436.29 252.01 429.3 252.01 432.87 247.69" style="fill:#b5b5b5;"/><path d="M419.08,194.49c5.28-12.21,16.81-17.38,16.81-17.38l-.21,2.92c-5.15,3.91-6.37,10.48-6.34,15.93,0,0-20.2,35.55-20.69,44.77-.19,3.58,1.37,9.4,3.35,15.17l-1.21,.3-8.67-4.21,.28-.56s11.03-39.1,15.47-53.66c.35-1.15,.75-2.24,1.22-3.28Z" style="fill:#9485e3;"/><path d="M419.27,273.99v12.31l-19.45,2.59-59.2-.12c-10.02,4.31-15.2,4.54-19.07,2.61-1.58,.11-7.51,.76-9.09,.86-.15,1.71-.68,3.22-2.09,3.22-3.21,0-6.79-7.16-6.79-7.16,0,0-.99,7.16-4.2,5.44-3.21-1.73-2.34-11.53-2.34-11.53,0,0-7.28,7.14-8.27,4.45-.99-2.7,3.83-15.52,15.8-16.63,11.97-1.11,39.01,3.7,39.01,3.7l53.62-8.97,20.24,5.08c1.09,2.54,1.83,4.14,1.83,4.14Z" style="fill:#e69772;"/><path d="M417.44,269.85l-20.24-5.08c-1.24-9.96,2.06-14.16,2.06-14.16l2.85,1.39,9.88,3.91h0c1.8,5.26,3.96,10.48,5.45,13.94Z" style="fill:#8a7cd4;"/><g><path d="M376.7,269.74c1.27,.87,1.62,2.61,.84,3.94-6.26-.81-7.75-3.66-7.75-3.66,.52-.87,1.54-1.9,2.54-1.95,1.23-.05,2.82,.61,4.37,1.67Z" style="fill:#d06951;"/><path d="M377.54,273.69l-3.78,6.53c-4.98-.72-7.65-4.01-7.65-4.01l3.68-6.17s1.49,2.85,7.75,3.66Z" style="fill:#e58e76;"/><path d="M373.76,280.21l-5.9,10.18-10.07-.21,8.32-13.98s2.66,3.3,7.65,4.01Z" style="fill:#8a7cd4;"/></g><path d="M470.8,210.11c-2.44,7.68-4.88,15.35-7.31,23.03-2.43,7.64-4.85,15.28-7.28,22.92-1.38,4.33-2.75,8.66-4.13,12.99-.17,.55,.68,.78,.86,.24,2.44-7.68,4.88-15.35,7.31-23.03,2.43-7.64,4.85-15.28,7.28-22.92,1.38-4.33,2.75-8.66,4.13-12.99,.17-.55-.68-.78-.86-.24Z" style="fill:#32333f;"/><path d="M500.91,254.65c-5.11,10.15-9.8,20.52-14.06,31.05-1.2,2.97-2.37,5.96-3.5,8.96-.2,.54,.66,.77,.86,.24,3.99-10.56,8.41-20.96,13.25-31.16,1.37-2.9,2.78-5.78,4.22-8.64,.26-.51-.51-.96-.77-.45Z" style="fill:#32333f;"/><path d="M428.12,196.99c-4.22,7.83-8.55,15.62-12.65,23.51-3.7,7.12-6.97,14.77-6.94,22.93,.01,4.25,.94,8.49,3.05,12.2,.28,.5,1.05,.05,.77-.45-3.83-6.75-3.49-14.98-1.28-22.2,1.19-3.89,2.9-7.61,4.75-11.23,1.94-3.78,4-7.5,6.01-11.24,2.35-4.36,4.71-8.73,7.06-13.09,.27-.5-.5-.95-.77-.45Z" style="fill:#32333f;"/><path d="M450.7,206.26c-4.8,10.85-9.6,21.71-14.4,32.56-1.17,2.64-2.34,5.29-3.51,7.93-1.8-10.82-2.57-21.8-2.27-32.77,.09-3.25,.27-6.5,.54-9.75,.05-.57-.84-.57-.89,0-.97,11.53-.78,23.16,.59,34.66,.37,3.15,.84,6.28,1.38,9.4,0,.08,.02,.16,.05,.22,.05,.14,.15,.22,.27,.25,.18,.07,.38,.04,.48-.19v-.02s.06-.09,.07-.14c4.77-10.8,9.55-21.6,14.32-32.4,1.37-3.1,2.74-6.2,4.11-9.3,.23-.52-.54-.97-.77-.45Z" style="fill:#32333f;"/><path d="M418.64,286.51c-6.3,.62-12.59,1.23-18.89,1.85-.56,.06-.57,.94,0,.89,6.3-.62,12.59-1.23,18.89-1.85,.56-.06,.57-.94,0-.89Z" style="fill:#32333f;"/><path d="M330.82,288.16c-5.3,1.68-10.77,2.79-16.3,3.28-.63,.06-1.27,.1-1.91,.15-.53,.03-1.09,.1-1.62-.01-.4-.08-.86-.28-.83-.77,.03-.61,.81-1.17,1.2-1.55,1.82-1.73,3.78-3.31,5.84-4.73,2.34-1.61,4.81-3.01,7.39-4.19,.52-.24,.07-1-.45-.77-5.02,2.31-9.64,5.44-13.62,9.27-.75,.72-1.72,1.78-1.01,2.86,.51,.77,1.61,.86,2.45,.83,3-.12,6.02-.51,8.98-1.03,3.42-.59,6.79-1.42,10.1-2.47,.54-.17,.31-1.03-.24-.86Z" style="fill:#32333f;"/><path d="M304.04,288.19c-1.17-3.92-1.18-8.1-.04-12.03,.16-.55-.7-.78-.86-.24-1.18,4.08-1.17,8.43,.04,12.5,.16,.55,1.02,.31,.86-.24Z" style="fill:#32333f;"/><path d="M300.69,274.73c-.23-.14-.46-.03-.61,.16-1.65,2.16-2.78,4.7-3.28,7.38-.1,.56,.75,.8,.86,.24,.49-2.61,1.58-5.06,3.19-7.16,.15-.19,.03-.5-.16-.61Z" style="fill:#32333f;"/><path d="M437.42,195.81c-2.57,2.54-4.97,5.23-7.21,8.07-.35,.44,.27,1.08,.63,.63,2.24-2.83,4.65-5.53,7.21-8.07,.41-.4-.22-1.03-.63-.63Z" style="fill:#32333f;"/><path d="M452.24,208.38c-1.51-5.07-4.12-9.76-7.65-13.7-.38-.43-1.01,.2-.63,.63,3.42,3.83,5.96,8.39,7.42,13.31,.16,.55,1.02,.31,.86-.24Z" style="fill:#32333f;"/><path d="M439.54,209.54c-.02-.57-.91-.57-.89,0,.17,3.94,.34,7.87,.51,11.81,.02,.57,.91,.57,.89,0-.17-3.94-.34-7.87-.51-11.81Z" style="fill:#32333f;"/><path d="M442.75,211.81c-.25-.51-.91-.78-1.43-.58-.16,.06-.3,.16-.43,.27-.02,.01-.03,.02-.05,.03-.03,.03-.04,.07-.06,.1-.04,.05-.09,.09-.13,.15-.02,.03-.02,.07-.03,.1-.01,.03-.02,.06-.03,.09-.04,.11-.06,.22-.06,.33,0,.01,0,.02,0,.04,0,.03,.01,.06,.02,.09,0,.07,0,.15,.02,.22,0,.03,.03,.05,.04,.08,.02,.05,.05,.1,.07,.15,.04,.08,.08,.15,.14,.22,.01,.02,.02,.03,.03,.05,.03,.03,.07,.05,.11,.08,.04,.04,.08,.09,.13,.12,.02,.01,.05,.01,.07,.02,.06,.03,.12,.04,.18,.06,.07,.02,.14,.06,.22,.07,.28,.04,.57-.01,.8-.17,.23-.17,.41-.4,.49-.68,.08-.29,.04-.58-.08-.85Z" style="fill:#32333f;"/></g></g><g><polygon points="216.22 290.43 213.59 312.17 259.02 309.37 259.02 318.43 192.85 325.84 174.91 312.17 195.37 263.74 202.72 246.33 220.99 251.11 218.7 270.03 216.22 290.43" style="fill:#5b3fda;"/><polygon points="240.5 126.09 271.2 286.08 258.03 286.08 227.17 126.09 240.5 126.09" style="fill:#7d6aff;"/><polygon points="259.02 309.37 213.59 312.17 216.22 290.43 259.02 309.37" style="fill:#7d6aff;"/><polygon points="227.17 126.09 258.03 286.08 218.7 270.03 220.99 251.11 202.72 246.33 195.37 263.74 192.11 262.35 156.55 126.09 227.17 126.09" style="fill:#4e36ba;"/><path d="M251.55,250.53c-1.7-10.02-3.45-20.03-5.24-30.03-1.8-10.05-3.65-20.09-5.54-30.13-1.88-9.98-3.81-19.96-5.78-29.93s-3.99-19.93-6.05-29.88c-.26-1.24-.52-2.49-.77-3.73-.12-.56-.97-.32-.86,.24,2.07,9.95,4.1,19.9,6.08,29.87,1.98,9.97,3.92,19.94,5.81,29.92,1.9,10.03,3.76,20.07,5.57,30.12,1.8,10,3.56,20.01,5.28,30.02,1.71,10.02,3.38,20.04,5.01,30.07,.2,1.25,.41,2.51,.61,3.76,.09,.56,.95,.32,.86-.24-1.61-10.03-3.27-20.06-4.97-30.07Z" style="fill:#323885;"/><path d="M215.51,250.73c-2.7,9.63-5.51,19.23-8.43,28.8-2.91,9.53-5.93,19.03-9.06,28.5-1.77,5.35-3.57,10.7-5.41,16.03-.19,.54,.67,.77,.86,.24,3.26-9.46,6.41-18.95,9.46-28.48,3.03-9.49,5.96-19.02,8.77-28.59,1.59-5.41,3.15-10.83,4.67-16.26,.15-.55-.7-.79-.86-.24Z" style="fill:#323885;"/></g></g></svg>