<?xml version="1.0" encoding="UTF-8"?><svg id="Layer_1" xmlns="http://www.w3.org/2000/svg" viewBox="0 0 70 70"><g><path d="M55.44,10.71h4.7c1.41,0,2.55,1.14,2.55,2.55V48.19c0,1.41-1.14,2.55-2.55,2.55H8.64c-1.41,0-2.55-1.14-2.55-2.55V13.26c0-1.41,1.14-2.55,2.55-2.55H48.31" style="fill:none; stroke:#fff; stroke-miterlimit:10; stroke-width:2px;"/><line x1="63.22" y1="40.15" x2="21.6" y2="40.15" style="fill:none; stroke:#fff; stroke-miterlimit:10; stroke-width:2px;"/><line x1="6.09" y1="40.15" x2="12.8" y2="40.15" style="fill:none; stroke:#fff; stroke-miterlimit:10; stroke-width:2px;"/><line x1="15.2" y1="40.15" x2="17.58" y2="40.15" style="fill:none; stroke:#fff; stroke-miterlimit:10; stroke-width:2px;"/><path d="M27.12,60.61h17.73c1.48,0,2.69,1.2,2.69,2.69v3.04H24.43v-3.04c0-1.48,1.2-2.69,2.69-2.69Z" style="fill:none; stroke:#fff; stroke-miterlimit:10; stroke-width:2px;"/><line x1="29.84" y1="60.61" x2="32.01" y2="50.74" style="fill:none; stroke:#fff; stroke-miterlimit:10; stroke-width:2px;"/><line x1="41.4" y1="59.93" x2="39.57" y2="50.74" style="fill:none; stroke:#fff; stroke-miterlimit:10; stroke-width:2px;"/><line x1="17.6" y1="66.34" x2="54.76" y2="66.34" style="fill:none; stroke:#fff; stroke-miterlimit:10; stroke-width:2px;"/></g><g><path d="M39.68,23.25s6.9-13.64,16.53-19.28c0,0,9.68-4.2-12.91,22.3" style="fill:none; stroke:#fff; stroke-linejoin:bevel; stroke-width:2px;"/><line x1="45.06" y1="15.2" x2="48.9" y2="18.86" style="fill:none; stroke:#fff; stroke-linejoin:bevel; stroke-width:2px;"/><path d="M43.29,27.91c-.25,1.11-.97,2-1.89,2.5-5.62,4.28-11.54-2.45-11.54-2.45,2.46,1.19,6.31-2.84,6.53-3.09h.01c.87-1.25,2.43-1.91,4-1.55,2.06,.47,3.35,2.52,2.88,4.58Z" style="fill:none; stroke:#fff; stroke-linejoin:bevel; stroke-width:2px;"/></g></svg>