<?xml version="1.0" encoding="UTF-8"?><svg id="Layer_1" xmlns="http://www.w3.org/2000/svg" viewBox="0 0 70 70"><g><path d="M56.52,10.71h7.11c1.57,0,2.85,1.14,2.85,2.55V48.19c0,1.41-1.28,2.55-2.85,2.55H6.08c-1.57,0-2.85-1.14-2.85-2.55V13.26c0-1.41,1.28-2.55,2.85-2.55h6.7" style="fill:none; stroke:#fff; stroke-miterlimit:10; stroke-width:2px;"/><polyline points="3.23 42.65 10.74 42.65 20.57 42.65 67.06 42.65" style="fill:none; stroke:#fff; stroke-miterlimit:10; stroke-width:2px;"/></g><g><path d="M18.74,34.67h-3.6c-1.08,0-1.95-.84-1.95-1.87V7.15c0-1.03,.87-1.87,1.95-1.87H54.56c1.08,0,1.95,.84,1.95,1.87v25.65c0,1.03-.87,1.87-1.95,1.87H18.74Z" style="fill:none; stroke:#fff; stroke-miterlimit:10; stroke-width:2px;"/><polyline points="56.52 15.52 51.38 15.52 44.64 15.52 12.78 15.52" style="fill:none; stroke:#fff; stroke-miterlimit:10; stroke-width:2px;"/></g><rect x="20.36" y="58.17" width="29.36" height="6.3" rx=".59" ry=".59" style="fill:none; stroke:#fff; stroke-miterlimit:10; stroke-width:2px;"/><line x1="27.74" y1="50.74" x2="27.74" y2="57.17" style="fill:none; stroke:#fff; stroke-miterlimit:10; stroke-width:2px;"/><line x1="42.24" y1="50.74" x2="42.24" y2="57.17" style="fill:none; stroke:#fff; stroke-miterlimit:10; stroke-width:2px;"/><line x1="32.32" y1="46.72" x2="37.68" y2="46.72" style="fill:none; stroke:#fff; stroke-linecap:round; stroke-miterlimit:10; stroke-width:2px;"/><line x1="16.77" y1="10.71" x2="30.81" y2="10.71" style="fill:none; stroke:#fff; stroke-linecap:round; stroke-miterlimit:10; stroke-width:2px;"/><line x1="41.7" y1="10.71" x2="45.36" y2="10.71" style="fill:none; stroke:#fff; stroke-linecap:round; stroke-miterlimit:10; stroke-width:2px;"/><line x1="49.28" y1="10.71" x2="52.94" y2="10.71" style="fill:none; stroke:#fff; stroke-linecap:round; stroke-miterlimit:10; stroke-width:2px;"/><path d="M30.63,21.58c-.28,0-4.12,3.7-4.12,3.7l4.12,3.35" style="fill:none; stroke:#fff; stroke-linecap:round; stroke-linejoin:round; stroke-width:2px;"/><path d="M39.07,21.58c.28,0,4.12,3.7,4.12,3.7l-4.12,3.35" style="fill:none; stroke:#fff; stroke-linecap:round; stroke-linejoin:round; stroke-width:2px;"/><line x1="35.92" y1="21.25" x2="33.09" y2="29.39" style="fill:none; stroke:#fff; stroke-linecap:round; stroke-linejoin:round; stroke-width:2px;"/></svg>