<?xml version="1.0" encoding="UTF-8"?><svg xmlns="http://www.w3.org/2000/svg" xmlns:xlink="http://www.w3.org/1999/xlink" viewBox="0 0 600 350"><defs><style>.r{fill:#477dfa;}.s{fill:#fff;}.t{fill:#d2e6ff;}.u{fill:#284548;}.v{fill:#283451;}.w{fill:#3f484d;}.x{isolation:isolate;}.y{fill:#67b2c1;}.a`{fill:#8e9bbb;}.aa{fill:#cbe2f8;}.ab{fill:#d9dee8;}.ac{fill:#dee1eb;}.ad{fill:#e4f3fc;stroke:#c7d0e3;stroke-width:1.94px;}.ad,.ae{stroke-miterlimit:10;}.af{fill:#676f74;}.ag{fill:#555e63;}.ah{fill:#e0a386;}.ae{stroke:#407bff;stroke-width:.51px;}.ae,.ai{fill:none;}.aj{fill:url(#p);}.ak{fill:#90ace8;}.al{fill:#5687d1;}.am{fill:#41473e;}.an,.ao{fill:#bdc4d7;}.ap{fill:url(#n);}.aq{fill:#c2c2c2;}.ar{fill:url(#o);}.as{fill:#1e2430;}.at{fill:#60a8ff;}.au{fill:#d9d9d9;}.av{fill:url(#q);}.aw{filter:url(#l);}.ax{fill:#4a73b3;}.ay,.ao{mix-blend-mode:multiply;}.b`{clip-path:url(#k);}.ba{fill:#818fb3;}</style><clipPath id="k"><rect x="42.63" y="10.47" width="528.86" height="322.59" style="fill:none;"/></clipPath><filter id="l" filterUnits="userSpaceOnUse"><feOffset dx="2" dy="3"/><feGaussianBlur result="m" stdDeviation="5"/><feFlood flood-color="#4b5f87" flood-opacity=".24"/><feComposite in2="m" operator="in"/><feComposite in="SourceGraphic"/></filter><linearGradient id="n" x1="133.01" y1="70.42" x2="211.95" y2="70.42" gradientTransform="translate(168.63 -115.85) rotate(66.61)" gradientUnits="userSpaceOnUse"><stop offset="0" stop-color="#f3f9fe"/><stop offset="1" stop-color="#fff"/></linearGradient><linearGradient id="o" x1="171.16" y1="53.35" x2="173.8" y2="53.35" gradientTransform="matrix(1, 0, 0, 1, 0, 0)" gradientUnits="userSpaceOnUse"><stop offset="0" stop-color="#4456dc"/><stop offset="1" stop-color="#677df3"/></linearGradient><linearGradient id="p" x1="143.35" y1="80.57" x2="172.48" y2="80.57" gradientTransform="translate(314.04 -3.42) rotate(124.69)" xlink:href="#o"/><linearGradient id="q" x1="168.85" y1="70.42" x2="176.11" y2="70.42" xlink:href="#o"/></defs><g style="isolation:isolate;"><g id="a"/><g id="b"/><g id="c"/><g id="d"/><g id="e"/><g id="f"/><g id="g"/><g id="h"/><g id="i"/><g id="j"><g style="clip-path:url(#k);"><ellipse cx="306.51" cy="199.69" rx="169.34" ry="172.16" style="fill:#e4f3fc; stroke:#c7d0e3; stroke-miterlimit:10; stroke-width:1.94px;"/><g><polygon points="268.7 249.29 268.7 249.33 268.71 249.28 268.7 249.29" style="fill:#284548;"/><path d="M475.83,173.75l-8.71-1.86-3.25-5.78,.94-7.87-5.02,1.4-4.57,8.83-4.85-8.34,1.23-6.53-4.98-6.79-1.77-2.81-7.21-1.67,.8,6.95,7.56,6.84,1.14,1.95-2.09,.51-1.11,5.1-4.63,.79-3.43-1.63-1.51-3.72,5.79,1.67,2.08-1.77-10.97-11.78-.13-3.96-6.39,3.55-5.11-2.34-10.6,8.71-2.56,3.78-5.32-.73-7.72-1.73-4.11-3.22,.76-9.47,2.66-3.98,8.24,.1,8.16,3.7,2.13-4.5-3.44-1.7,2.95-7.09,8.92,.64,7.99-7.12,6.46,.4,5.42,2.13,2.06,.48,.72-8.25-7.47,1.18-1.02-6.52-3.83-1.47,.2-4.27,4.05-2.77,8.37-1.24,2.8-3.07c-23.31-32.55-58.01-57.13-99.94-66.93-.13-.03-.25-.06-.37-.09-36.54-8.45-73.08-4.4-105.2,9.27l8.41,1.88,3.26,2.94,6.7,3.15-.09,2.9,11.12,3.01-.69-3.95-9.9-2.58,2.86-1.67-.21-2.82-9.01-2.08,11.52-5.06,9.41,2.18,3.02,7.12,7.25,2.11,5.41-3.27,2.95,2.43-7.47,4.54s-8.47-1.81-8.06-1.71c.42,.1-.64,5.97-.64,5.97l10.29,2.08,1.76-2.5,7.14,1.21,1.79-3.95-3.99-1.66,2.25-3.41,3.4-.23,10.95,3.11-7.39,4.13v4.51l6.14,2.44,1.37-7.84,6.82-1.78,11.09,1.25,11.18,8.39,2.85,2.14-1.38,5.95,4.7,2.4-3.58,4.13-5.67-1.31-1.39-.32-3.33,4.91-15.25-7.54,14.24-3.82-3.89-5.23-11.26-1.15-1.18,.77-.03-.03-.23,.2-3.9,2.54-5.3-.76-.18,2.69,1.64,1.17-.27,.84-4.37-.37-.88,2.38-4.1-.72,.4-5.05-7.78,.53-16.85,5.26,.25,6.5,3.52,3.66,8.03,3.06-2.18,9.43,3.97,.27,5.24-6.55,9.47-.76,2.62-11.32,5.76-2.57,11.22,5.54-2.56,7.28,3.19,.74,9.71-2.27-1.85,9.92,2.5,2.44,2.96,2.89-1.61,5.76-3.42,.35-.94,4.05,4.33,3.32-1.07,3.98-2.17-.31c0-.07,.01-.11,.01-.11l-2.37-1.38-6.23-3.62,.3-3.06h-.01l3.13-1.24,.63-2.7-2.74-1.4-1.3,2.33-5.28-.39-.47-.29-.06,.25-1.83-.14-.77-3.24-1.5-1.11-3.63-.84-1.97,.97-.7,3.01,2.87,1.75,2.97,1.14-.75,.14-3.52,2.46-.88-1.84-2.54-1.34-8.98,5.23,.78,1.01-12.28,3.51-12.71,8.29-1.79,4.58-11.83,4.37-6.27,3.94-1.81,10.37-6.3-4.92,1.44-5.97-19.64-4.53-11.36,2.8-6.31,7.12-3.24,6.05,1.42,6.92,7.78,2.83,14.7-5.57,.14,4.48-5.58,6.44,9.32,3.9-2.5,15.19,12.77,5.33,10.69-7.81,9.76,4.45,2.44,5.84,9.95,1.69,.95-2.84,4.79,3.88,3.89,10.95,10.47,2.57,2.31,7.68-1.37,8.42,6.82,4.58,3.78,2.54,14.63,3.53,2.67,8.04,6.02,3.58-2.6,5.53-9.22,7.41-6.71,19.55-7.6,3.6-9.49-2.49-4.45,4.78v.05l-.05,10.9-3.05,2.47-10.41,8.42-4.72,5.32-11,2.47-6.74-.52-.91,2.7,4.26,2.37-1.24,2.85-5,2.99,1.77,3.7,4.89,1.28-1.16,3.74-2.17,3.43-1.13,2.94,5.86,7.82-1.7,2.96-9.86-2.48-7.87-10.89-4.56-15.28,4.09-12.78-4.02-9.1,5.39-12.59-3.23-1.77,6.59-28.5s-7.99-9.58-8.54-9.71c-.55-.13-4.83-2.42-4.83-2.42l.27-5.62-8.94-18.68,2.56-5.39,2.55-9.18,10.12-4.07,1.16-10.67-12.5-3.9-7.34-13.66-6.61-3.56-4.37-1.89,1.5-4.02-5.62-2.17-.54,2.35-13.7-6.95-3.78-10.3,3.39-3.79-6.1-15.56,.69-10.19-3.73-.86-.96,9.83,4.09,11.29-1.59,3.72-5.2-2.08-4.02-12.85,3.05-13.17-6.15-4.93,2.19-9.48c-13.18,18.05-23.02,38.98-28.36,62.09-21.23,91.82,36.2,183.79,128.02,205.01,.13,.03,.25,.05,.38,.08,51.93,11.88,103.86-1.39,143-31.78l-5.49-1.27,2.56-11.07-4.37-10.03,3.08-13.31-3.74-5.96,.86-5.64,8.88-10.34-6.92-23.32,4.62-13.66-10.27-3.53-2.97-4.77-7.06-1.63-4.36,2.49-12.46-2.88-.67,1.01-6.92-1.6-11.72-21.8,3.39-14.09,2.85-.36,2.22-5.17-3.73-.86-.22-6.02,21.48-9.02,2.18-9.41,10.16-2.92,3.56,1.21,7.42,1.71,6.52-1.77,19.02,2.86-2.21,9.55,13.88,7.14,2.43,2.75,2.7,.62,1.2-5.2,8.7,1.14,6.71,7.9,13.28,3.07,1.13-.64c-.28-4.79-.77-9.53-1.44-14.24Zm-80.57-40.23l2.07-1.99,5.72,.16-.16,6.96,1.83,5.37,1.42,2.67,3.21,2.19-4.23,3.19-6.58-.87-4.84-1.12,1.87-5.61,4.22,.1,.28-2.78-3.2-3.22-2.21-2.4,.61-2.64Zm-11.39,8.31l4.56-4.56h4.72l2.88,2.12-1.12,3.53-7.96,3.26-3.87-.9,.8-3.46Zm-91-3.73l4.77,1.1,1.58-2.31,1.9,.4,2.07,.95-1.37,1.71-2.42-.34-1.01,2.18-2.09,.71-2.98-.43c.06-.71,.11-1.25,.11-1.25l-1.13-.26,.57-2.46Zm-7.73,2.79l.74-2.36,2-1.57,1.7,2.11-.91,2.34-3.53-.51Z" style="fill:#cbe2f8;"/><polygon points="306.55 72.34 306.52 74.36 308.75 76.08 309.69 72.03 306.55 72.34" style="fill:#67b2c1;"/></g></g><g><path d="M208.91,307.92v-64.03s-.71-17.25,8.36-22.23c9.07-4.98,47.31-2.31,47.31-2.31v88.57h-55.67Z" style="fill:#555e63;"/><g><path d="M276.53,160.75s-2.31,19.39-3.2,20.99l-.89,1.6-4.45,3.02s8.54,12.09,19.03,14.05c10.49,1.96,9.6-4.27,9.6-4.27l-1.6-3.38,2.13-18.5s-19.03-8.71-20.63-13.52Z" style="fill:#e0a386;"/><path d="M262.48,186.63l6.94-3.02s4.45,7.29,14.76,11.56c10.32,4.27,10.49,1.78,11.03,0,.53-1.78-.18-3.74-.18-3.74l.76-6.23,4.12,1.37,14.32,115.83-36.82,1.78-14.94-117.56Z" style="fill:#fff;"/><path d="M296.45,185.32s2.49,5.75,4.8,19.27c2.31,13.52,4.45,36.28,4.98,51.93,.53,15.65,.89,51.4,.89,51.4h46.42c.53,0,3.73-17.61,3.73-17.61,0,0-20.28-17.37-21.34-20.22-.71-1.9-.36-37.05-3.38-53.24-3.02-16.18-6.94-19.45-15.12-23.48-8.46-4.17-20.99-8.06-20.99-8.06Z" style="fill:#5687d1;"/><path d="M320.64,287.54c-.24,0-.43-.19-.43-.43,0-1.27-.23-19.34-.44-36.81-.22-17.47-.44-35.54-.44-36.82,0-.24,.19-.43,.43-.43s.43,.19,.43,.43c0,1.27,.23,19.34,.44,36.81,.22,17.47,.44,35.54,.44,36.82,0,.24-.19,.43-.43,.43Z" style="fill:#4a73b3;"/><path d="M228.15,283.2l-.36,24.72h54.07s2.31-20.99,1.42-22.94c-.89-1.96-55.14-1.78-55.14-1.78Z" style="fill:#90ace8;"/><g style="mix-blend-mode:multiply;"><path d="M288.33,179.87c2.2,1.78,5.22,3.2,7.56,4.06l1.27-11s-14.29-6.55-19.14-11.42c1.01,5.54,3.51,12.87,10.31,18.36Z" style="fill:#8e9bbb;"/></g><path d="M312.38,122.11s3.73,6.4,4.45,14.23c.71,7.83,0,27.92-6.4,36.46-6.4,8.54-19.74,6.05-25.79,.89-5.55-4.73-11.03-9.96-12.45-20.28-1.42-10.32,3.02-29.88,15.65-33.97,12.63-4.09,24.54,2.67,24.54,2.67Z" style="fill:#e0a386;"/><g><path d="M329.92,296.74s-.63,0-1.58-.03c-.22,0-.47,0-.73,0-.92-.03-2.04-.05-3.16-.09-.25,0-.51-.02-.76-.03-1.12-.03-2.07,.11-2.97,.06h-.03c-.19,0-.46,.02-.69,.03-.11,0-.21,.02-.28,0-.52-.09-.62-.21-1.18-.46-.72-.33-10.5-2.51-18.45-2.46-7.94,.03-15.07,.58-16.23-.4-1.17-.99-1.87-10.97,4.91-11.62l8.34,3.16s19.04-2.26,26.02,2.89c7,5.15,6.78,8.94,6.78,8.94Z" style="fill:#e0a386;"/><path d="M320.7,296.66c-.19,0-.46,.02-.69,.03-.17-.28-.53-.77-.73-.98-2.15-2.19-7.34-3.61-9.22-4.07-.17-.04-.28-.21-.24-.39,.03-.17,.21-.28,.4-.24,2.74,.66,8.56,2.36,10.21,5.13,.05,.08,.19,.34,.28,.52Z" style="fill:#90ace8;"/><path d="M324.45,296.62c-.25,0-.51-.01-.76-.03-2.35-4.28-6.19-5.51-10.93-7.03l-.28-.09c-.16-.06-.26-.24-.21-.41,.06-.16,.23-.26,.41-.21l.27,.09c5.02,1.61,9.05,2.9,11.49,7.68Z" style="fill:#90ace8;"/><path d="M328.34,296.72c-.22,0-.47,0-.73,0-1.42-2.99-6.13-8-12.37-9.17-.18-.03-.3-.2-.27-.38,.04-.17,.2-.29,.38-.26,6.42,1.21,11.6,6.45,12.99,9.81Z" style="fill:#90ace8;"/></g><path d="M277.95,145.81s3.91-1.87,6.67-7.11c2.76-5.25,2.4-9.96,2.4-9.96,0,0,4.98-.8,12.45,1.42,7.47,2.22,16.36,5.25,23.83,.98,7.47-4.27,7.47-11.12,3.82-13.96-4.08-3.19-12.18-1.24-12.18-1.24,0,0,3.11-3.02,1.42-4.8-1.69-1.78-7.83,.53-7.83,.53,0,0-7.47-5.96-21.61-5.25-14.14,.71-20.9,10.58-21.7,21.61-.8,11.03,3.2,22.05,3.2,22.05l9.52-4.27Z" style="fill:#41473e;"/><g style="mix-blend-mode:multiply;"><path d="M306.64,148.48c-.8,1.98-.78,4.27-.98,6.37-.16,1.63-.46,3.53,1.04,4.63,.71,.53,4.09,1.94,2.35,3.09-.66,.44-1.77,.32-2.52,.28-.52-.02-1.04-.05-1.56-.08-.56-.04-1.1-.21-1.66-.21-.33,0-.43,.43-.16,.6,.9,.56,2.21,.74,3.26,.78,1.05,.04,1.76,0,2.7-.48,.58-.29,1.14-.69,1.23-1.38,.1-.78-.48-1.47-1.06-1.9-.67-.5-1.5-.73-2.18-1.22-.94-.67-.86-1.81-.8-2.86,.16-2.53,.74-5.01,.97-7.53,.03-.38-.5-.38-.62-.08h0Z" style="fill:#8e9bbb;"/></g><path d="M313.91,154.39c-.27,1.5-1.36,2.56-2.44,2.37-1.08-.19-1.74-1.56-1.48-3.06,.27-1.5,1.36-2.56,2.44-2.37,1.08,.19,1.74,1.56,1.48,3.06Z" style="fill:#1e2430;"/><path d="M300.3,153.21c-.24,1.62-1.38,2.79-2.55,2.61s-1.91-1.63-1.67-3.24c.24-1.62,1.38-2.79,2.55-2.61s1.91,1.63,1.67,3.24Z" style="fill:#1e2430;"/><path d="M310.74,148.21c.83,.14,1.67,0,2.51,.06,.2,.01,.4,.04,.6,.06,.14,.01-.27-.04-.07,0,.04,0,.09,.01,.13,.02,.11,.02,.21,.04,.31,.07,.18,.04,.35,.11,.53,.15,.16,.04,.34,.07,.51,.07l.27-.04-.17,.03s.31-.03,.34-.04c.48-.11,.77-.66,.64-1.12-.04-.13-.1-.25-.18-.36-.04-.05-.07-.09-.11-.14l.1,.12s-.07-.1-.11-.15c-.05-.08-.11-.14-.19-.19-.07-.05-.13-.1-.2-.15-.22-.15-.51-.24-.77-.31-.5-.13-1.02-.19-1.53-.2-.51,0-1.01,.05-1.51,.12-.44,.06-.94,.21-1.3,.48-.28,.21-.45,.47-.4,.84,.04,.3,.28,.64,.6,.7h0Z" style="fill:#1e2430;"/><path d="M301.25,145.84c-.11-.07-.23-.13-.35-.18-.1-.05-.38-.19-.17-.08-.08-.04-.15-.08-.23-.12-.34-.17-.7-.29-1.07-.38-.81-.21-1.67-.26-2.5-.17-.89,.09-1.7,.31-2.47,.77-.11,.07-.22,.13-.31,.22-.06,.08-.12,.16-.18,.23l.05-.08c-.24,.17-.37,.44-.37,.72,0,.28,.15,.51,.38,.64,.29,.16,.57,.08,.86,0h-.45c.25,.04,.42,.05,.67,0,0,0,.24-.06,.09-.03-.14,.03,.24-.03,.28-.04,.05,0,.32-.03,.03,0,.05,0,.1-.01,.16-.02,.13-.02,.27-.03,.4-.04,.59-.05,1.17-.07,1.76-.09,.55-.02,1.1-.02,1.65,0,.23,.01,.47,.02,.7,.02,.13,0,.08,.02-.01,0,.05,.02,.1,.02,.15,.04,.1,.03,.19,.06,.29,.09,.38,.14,.83-.13,.97-.48,.15-.38,.02-.82-.34-1.03h0Z" style="fill:#1e2430;"/><path d="M305.48,170.56c.82-1.64,2.3-2.84,4.02-3.62-1.49-.15-8.53-.8-10.3,.21-1.99,1.13,.37,5.66,4.48,5.89,.43,.02,.82-.01,1.2-.07,.03-.83,.22-1.65,.6-2.41Z" style="fill:#fff;"/><path d="M272.97,161.01s.71,2.76,4.8,5.96c4.09,3.2,10.02,5.54,10.02,5.54l.47-2.07s-6.14-2.67-8.98-5.6c-2.85-2.93-3.2-4.54-3.2-4.54l-3.11,.71Z" style="fill:#dee1eb;"/><path d="M288.98,168.91c3.29-.15,5.13,2.45,5.36,4.13,.23,1.68-1.35,3.57-5.05,1.91-4.6-2.06-3.6-5.89-.31-6.05Z" style="fill:#41473e;"/><path d="M275.55,140.65s1.42-10.22,8.27-17.16c13.07-13.25,24.19-12.45,24.19-12.45,0,0-.09-1.87-4.27-3.29-3.92-1.34-5.69-.62-5.69-.62,0,0-10.76,.89-19.83,10.94-9.07,10.05-10.05,22.85-10.05,22.85l7.38-.27Z" style="fill:#dee1eb;"/><g><path d="M274.57,139.41c-8.56-1.45-13.34,5.25-13.69,12.01-.36,6.76,4.56,11.9,11.12,11.38,14.76-1.16,13.07-21.61,2.58-23.39Z" style="fill:#676f74;"/><path d="M270.31,156.22c-2.26,0-4.17-1.14-5.26-3.14-1.17-2.14-1.07-4.78,.25-6.72,.1-.15,.3-.18,.45-.08,.15,.1,.19,.3,.08,.45-1.19,1.74-1.27,4.12-.22,6.05,1,1.83,2.77,2.87,4.86,2.8,1.96-.05,3.61-.95,4.67-2.52,1.2-1.8,1.48-4.27,.71-6.32-.77-2.02-2.88-3.41-4.8-3.15-.17,.02-.34-.1-.36-.28-.02-.18,.1-.34,.28-.36,2.24-.3,4.6,1.23,5.48,3.56,.85,2.23,.54,4.94-.77,6.9-1.17,1.75-3.02,2.75-5.19,2.81-.06,0-.12,0-.18,0Z" style="fill:#818fb3;"/></g><path d="M264.08,184.14s-25.97,6.4-35.04,16.72c-9.07,10.32-13.34,61.18-13.52,70.61-.18,9.43,6.4,13.34,10.32,16.01,3.91,2.67,21.16,7.47,35.04,8.18s27.03,0,27.03,0c0,0-.04-3.02,2.09-7.47,1.98-4.12,4.49-4.98,4.49-4.98l-11.92-4.27s-2.09-37.39-5.34-55.49c-3.74-20.81-13.16-39.31-13.16-39.31Z" style="fill:#5687d1;"/><path d="M307.12,272.96c-.06,0-.12-.01-.17-.04-.22-.1-.32-.35-.22-.57,2.43-5.49,4.95-16.27,6.37-23.83l.12-.61c.43-2.22,.96-4.99-.1-6.9-.54-.97-1.77-3.09-2.95-5.12-1.23-2.11-2.38-4.1-2.71-4.7-.63-1.16,1.35-4.26,4.2-8.52,.77-1.15,1.44-2.14,1.83-2.81,1.02-1.76,.34-3.37-.44-5.24l-.27-.64c-.71-1.75-1.52-3.49-2.3-5.18-.32-.69-.64-1.38-.95-2.08-.42-.92-.84-1.85-1.26-2.8-2.51-5.6-5.11-11.4-8.44-16.99-.12-.2-.05-.47,.15-.59,.2-.12,.47-.05,.59,.15,3.35,5.64,5.96,11.45,8.49,17.08,.42,.95,.84,1.88,1.26,2.8,.31,.69,.63,1.38,.95,2.07,.79,1.7,1.6,3.46,2.32,5.22l.26,.63c.8,1.9,1.63,3.87,.4,6-.4,.7-1.08,1.7-1.86,2.86-1.49,2.22-4.59,6.84-4.16,7.63,.31,.58,1.47,2.57,2.69,4.67,1.18,2.04,2.42,4.15,2.96,5.13,1.22,2.18,.65,5.12,.2,7.48l-.12,.61c-.52,2.75-3.26,16.85-6.43,24.02-.07,.16-.23,.26-.39,.26Z" style="fill:#4a73b3;"/><path d="M281.78,274.47c-.11,0-.22-.04-.31-.13-2.02-2.04-11.77-18.91-12.49-22.09-.4-1.74,.6-6.14,1.56-10.41,.75-3.3,1.52-6.72,1.3-7.64-.33-1.38-2.82-3.42-5.23-5.39-2.91-2.38-5.92-4.84-6.51-7.05-.66-2.52-.1-18.28,.28-28.71,.13-3.75,.24-6.71,.24-7.77,0-.24,.19-.43,.43-.43h0c.24,0,.43,.19,.43,.43,0,1.07-.11,4.04-.24,7.8-.35,9.75-.94,26.07-.31,28.46,.51,1.94,3.54,4.42,6.22,6.61,2.64,2.15,5.13,4.19,5.52,5.85,.27,1.12-.46,4.32-1.3,8.03-.9,3.97-1.92,8.48-1.56,10.03,.71,3.11,10.28,19.67,12.26,21.67,.17,.17,.17,.44,0,.61-.08,.08-.19,.13-.3,.13Z" style="fill:#4a73b3;"/><path d="M246.83,267.09s-.04,0-.06,0c-.24-.03-.4-.25-.37-.49,.32-2.24,5.25-46.76,5.48-50.18,.02-.24,.22-.42,.46-.4,.24,.02,.42,.22,.4,.46-.23,3.42-5.17,48-5.48,50.24-.03,.21-.21,.37-.43,.37Z" style="fill:#4a73b3;"/><path d="M282.22,279.18c-.05,0-.11-.01-.16-.03-1.09-.44-5.92-2.07-12.04-4.13-12.34-4.16-29.25-9.86-32.46-11.53-.21-.11-.29-.37-.18-.58,.11-.21,.37-.3,.58-.18,3.16,1.64,20.72,7.56,32.34,11.48,6.13,2.07,10.97,3.7,12.09,4.15,.22,.09,.33,.34,.24,.56-.07,.17-.23,.27-.4,.27Z" style="fill:#4a73b3;"/><path d="M276.28,296.91c-10.86,0-31.92-1.96-47.92-7.62-.22-.08-.34-.32-.26-.55,.08-.22,.33-.34,.55-.26,20.21,7.15,48.48,8.37,53.74,7.19,.23-.05,.46,.09,.51,.33,.05,.23-.09,.46-.33,.51-1.14,.26-3.34,.4-6.3,.4Z" style="fill:#4a73b3;"/></g><g><g><polygon points="467.63 234.29 433.63 301.64 334.51 302.35 365.1 233.34 467.63 234.29" style="fill:#3f484d;"/><path d="M268.72,301.93l.02-5.39h64.17l29.52-64.74h102.62l2.58,2.49h-100.25l-30.68,67.58s-67.98-.12-67.98,.06Z" style="fill:#283451;"/><path d="M416.16,271.45c-1.12,3.36-7.2,5.95-13.58,5.79s-10.64-3.01-9.52-6.37c1.12-3.36,7.2-5.95,13.58-5.79,6.38,.16,10.64,3.01,9.52,6.37Z" style="fill:#d9dee8;"/></g><path d="M336.7,302.31c-.06,0-.12-.01-.18-.04-.22-.1-.31-.35-.21-.57l30.79-67.84h100.53c.24,0,.43,.19,.43,.43s-.19,.43-.43,.43h-99.97l-30.57,67.33c-.07,.16-.23,.25-.39,.25Z" style="fill:#283451;"/></g><g><g><rect x="146.34" y="307.03" width="117.92" height="26.14" style="fill:#d9d9d9;"/><rect x="263.58" y="307.03" width="212.16" height="26.14" style="fill:#c2c2c2;"/></g><polygon points="264.26 307.03 263.58 307.03 146.34 307.03 146.34 311.84 263.58 311.84 264.26 311.84 475.74 311.84 475.74 307.03 264.26 307.03" style="fill:#bdc4d7; mix-blend-mode:multiply;"/><rect x="140.65" y="301.88" width="128.77" height="6.4" style="fill:#bdc4d7;"/><rect x="268.74" y="301.88" width="212.16" height="6.4" style="fill:#bdc4d7;"/></g></g><g><g><path d="M510.67,174.48v-11.08h-4.2c-.5-1.94-1.27-3.76-2.26-5.45l2.97-2.98-7.84-7.84-2.98,2.97c-1.68-.99-3.51-1.75-5.45-2.26v-4.2h-11.08v4.2c-1.94,.5-3.76,1.27-5.45,2.26l-2.98-2.97-7.84,7.84,2.97,2.98c-.99,1.68-1.75,3.51-2.26,5.45h-4.2v11.08h4.2c.51,1.94,1.27,3.76,2.26,5.45l-2.97,2.98,7.84,7.84,2.98-2.97c1.68,.99,3.51,1.75,5.45,2.26v4.2h11.08v-4.2c1.94-.51,3.76-1.27,5.45-2.26l2.98,2.97,7.84-7.84-2.97-2.98c.99-1.68,1.75-3.51,2.26-5.45h4.2Zm-25.29,4.06c-5.3,0-9.6-4.3-9.6-9.6s4.3-9.6,9.6-9.6,9.6,4.3,9.6,9.6-4.3,9.6-9.6,9.6Z" style="fill:#477dfa;"/><path d="M477.19,202.24l-2.11-5.5-2.08,.8c-.62-.86-1.35-1.62-2.16-2.27l.91-2.04-5.38-2.4-.91,2.04c-1.02-.17-2.07-.2-3.13-.08l-.8-2.08-5.5,2.11,.8,2.08c-.86,.62-1.62,1.35-2.27,2.16l-2.04-.91-2.4,5.38,2.04,.91c-.17,1.02-.2,2.07-.08,3.13l-2.08,.8,2.11,5.5,2.08-.8c.62,.86,1.35,1.62,2.16,2.27l-.91,2.04,5.38,2.4,.91-2.04c1.02,.17,2.07,.2,3.13,.08l.8,2.08,5.5-2.11-.8-2.08c.86-.62,1.62-1.35,2.27-2.16l2.04,.91,2.4-5.38-2.04-.91c.17-1.02,.2-2.07,.08-3.13l2.08-.8Zm-11.77,6.82c-2.63,1.01-5.58-.31-6.59-2.94-1.01-2.63,.31-5.58,2.94-6.59,2.63-1.01,5.58,.31,6.59,2.93,1.01,2.63-.31,5.58-2.93,6.59Z" style="fill:none; stroke:#407bff; stroke-miterlimit:10; stroke-width:.51px;"/><path d="M459.18,182.96l-1.42-3.71-1.41,.54c-.42-.58-.91-1.1-1.46-1.53l.61-1.38-3.63-1.62-.62,1.38c-.69-.11-1.4-.14-2.12-.06l-.54-1.41-3.71,1.42,.54,1.41c-.58,.42-1.1,.91-1.53,1.46l-1.38-.61-1.62,3.63,1.38,.62c-.11,.69-.14,1.4-.06,2.12l-1.41,.54,1.42,3.71,1.41-.54c.42,.58,.91,1.1,1.46,1.53l-.61,1.38,3.63,1.62,.62-1.38c.69,.11,1.4,.14,2.12,.06l.54,1.41,3.71-1.42-.54-1.41c.58-.42,1.1-.91,1.53-1.46l1.38,.61,1.62-3.63-1.38-.62c.11-.69,.14-1.4,.06-2.12l1.41-.54Zm-7.95,4.61c-1.78,.68-3.77-.21-4.45-1.98-.68-1.78,.21-3.77,1.98-4.45,1.78-.68,3.77,.21,4.45,1.98,.68,1.78-.21,3.77-1.98,4.45Z" style="fill:none; stroke:#407bff; stroke-miterlimit:10; stroke-width:.51px;"/></g><g><g><circle cx="127.19" cy="199.14" r="32.62" transform="translate(-107.02 230.45) rotate(-65.05)" style="fill:#477dfa;"/><g><g><circle cx="119.51" cy="215.15" r="7.9" transform="translate(-64.55 51.76) rotate(-19.35)" style="fill:#fff;"/><polygon points="115.36 217.99 114.98 212.98 119.13 210.14 123.66 212.32 124.04 217.33 119.89 220.16 115.36 217.99" style="fill:#60a8ff;"/></g><g><circle cx="134.88" cy="183.14" r="7.9" transform="translate(-53.78 56.09) rotate(-19.67)" style="fill:#fff;"/><polygon points="130.96 185.49 131.23 179.12 136.03 174.92 140.57 177.1 140.29 183.47 135.49 187.67 130.96 185.49" style="fill:#60a8ff;"/></g><path d="M124.98,211.5l-6.05-2.9,4.47-10.31c.28-.65,.59-1.3,.93-1.93l5.25-9.93,6.05,2.9-4.31,10.15c-.33,.79-.7,1.55-1.11,2.31l-5.23,9.71Z" style="fill:#fff;"/></g></g><path d="M149.85,216.69c1.17-.54,19.88,.31,19.88,.31l-13.49-12.38-6.39,12.07Z" style="fill:#477dfa;"/></g><g><g style="filter:url(#l);"><circle cx="172.48" cy="70.42" r="39.47" transform="translate(39.37 200.76) rotate(-66.61)" style="fill:url(#n);"/></g><g><rect x="171.16" y="36.78" width="2.64" height="33.15" style="fill:url(#o);"/><rect x="156.6" y="63.77" width="2.64" height="33.6" transform="translate(181.54 256.27) rotate(-124.69)" style="fill:url(#p);"/><path d="M176.11,70.42c0,2.01-1.63,3.63-3.63,3.63s-3.63-1.63-3.63-3.63,1.63-3.63,3.63-3.63,3.63,1.63,3.63,3.63Z" style="fill:url(#q);"/></g></g></g><g><path d="M459.29,36.56h-74.49c-4.78,0-8.66,3.88-8.66,8.66v35.34c0,4.78,3.88,8.66,8.66,8.66h6.68c.19,3.2-.27,7.97-2.95,14.06,8.61-3.97,13.56-9.93,16.15-14.06h54.61c4.78,0,8.66-3.88,8.66-8.66V45.23c0-4.78-3.88-8.66-8.66-8.66Z" style="fill:#477dfa;"/><path d="M427.51,53.41h-36.95c-1.02,0-1.84-.82-1.84-1.84h0c0-1.02,.82-1.84,1.84-1.84h36.95c1.02,0,1.84,.82,1.84,1.84h0c0,1.02-.82,1.84-1.84,1.84Z" style="fill:#fff;"/><path d="M454,64.11h-64.15c-.62,0-1.13-.5-1.13-1.13h0c0-.62,.5-1.13,1.13-1.13h64.15c.62,0,1.13,.5,1.13,1.13h0c0,.62-.5,1.13-1.13,1.13Z" style="fill:#d2e6ff;"/><path d="M454,70.36h-64.15c-.62,0-1.13-.5-1.13-1.13h0c0-.62,.5-1.13,1.13-1.13h64.15c.62,0,1.13,.5,1.13,1.13h0c0,.62-.5,1.13-1.13,1.13Z" style="fill:#d2e6ff;"/><path d="M440.01,77.03h-50.16c-.62,0-1.13-.5-1.13-1.13h0c0-.62,.5-1.13,1.13-1.13h50.16c.62,0,1.13,.5,1.13,1.13h0c0,.62-.5,1.13-1.13,1.13Z" style="fill:#d2e6ff;"/><path d="M453.5,53.41h-17.63c-1.02,0-1.84-.82-1.84-1.84h0c0-1.02,.82-1.84,1.84-1.84h17.63c1.02,0,1.84,.82,1.84,1.84h0c0,1.02-.82,1.84-1.84,1.84Z" style="fill:#fff;"/></g></g></g></svg>