<?xml version="1.0" encoding="UTF-8"?><svg xmlns="http://www.w3.org/2000/svg" xmlns:xlink="http://www.w3.org/1999/xlink" viewBox="0 0 600 350"><defs><style>.af{fill:#5379b3;}.ag{fill:url(#t);}.ah{fill:#fff;}.ai{fill:url(#k);}.ai,.aj{opacity:.7;}.ai,.aj,.ak{mix-blend-mode:multiply;}.al{fill:url(#r);}.aj{fill:url(#m);}.am{fill:url(#y);}.ak{fill:url(#l);opacity:.6;}.an{fill:url(#u);}.ao{isolation:isolate;}.ap,.aq,.ar{fill:#606b82;}.as{fill:url(#v);}.at{fill:url(#a`);}.au{fill:#2f384d;}.av{fill:#d87857;}.aw{fill:#162840;}.ax{fill:#f0cc76;}.ay{fill:url(#ae);}.b`{fill:url(#p);}.ba{opacity:.4;}.bb{fill:url(#ad);}.bc{fill:url(#ab);}.bd{fill:#252c3c;}.aq{opacity:.2;}.be{fill:#dee4ff;}.bf{fill:url(#x);}.ar{opacity:.3;}.bg{fill:url(#aa);}.bh{fill:url(#s);}.bi{fill:url(#n);}.bj{fill:url(#ac);}.bk{fill:url(#w);}.bl{fill:url(#o);}.bm{fill:#9dd0d8;}.bn{fill:url(#q);}.bo{fill:#d6e7f1;}.bp{fill:#f4f6f9;}</style><radialGradient id="k" cx="-1168.38" cy="26495.24" fx="-1168.38" fy="26495.24" r="69.09" gradientTransform="translate(2391.97 -875.04) scale(1.85 .05)" gradientUnits="userSpaceOnUse"><stop offset=".25" stop-color="#000"/><stop offset="1" stop-color="#fff" stop-opacity="0"/></radialGradient><radialGradient id="l" cx="1351.72" cy="18377.1" fx="1351.72" fy="18377.1" r="44.21" gradientTransform="translate(-968.65 -847.31) scale(.79 .06)" xlink:href="#k"/><radialGradient id="m" cx="-1234.64" cy="22159.94" fx="-1234.64" fy="22159.94" r="69.05" gradientTransform="translate(2970.12 -864.2) scale(2.07 .05)" xlink:href="#k"/><linearGradient id="n" x1="105.98" y1="211.95" x2="355.25" y2="211.95" gradientTransform="matrix(1, 0, 0, 1, 0, 0)" gradientUnits="userSpaceOnUse"><stop offset="0" stop-color="#d9dde3"/><stop offset=".52" stop-color="#b6bfcb"/><stop offset="1" stop-color="#9ba7b8"/></linearGradient><linearGradient id="o" x1="93.52" y1="199.98" x2="359.65" y2="199.98" gradientTransform="matrix(1, 0, 0, 1, 0, 0)" gradientUnits="userSpaceOnUse"><stop offset="0" stop-color="#6d6e70"/><stop offset=".6" stop-color="#403f40"/><stop offset="1" stop-color="#272425"/><stop offset="1" stop-color="#9ba7b8"/></linearGradient><linearGradient id="p" x1="227.22" y1="336.85" x2="227.22" y2="309.46" xlink:href="#n"/><linearGradient id="q" x1="182.24" y1="334.03" x2="272.63" y2="334.03" xlink:href="#n"/><linearGradient id="r" x1="317.78" y1="290.79" x2="221.48" y2="194.49" gradientTransform="matrix(1, 0, 0, 1, 0, 0)" gradientUnits="userSpaceOnUse"><stop offset="0" stop-color="#f9f9fb"/><stop offset="1" stop-color="#d7d7de"/></linearGradient><linearGradient id="s" x1="132.55" y1="153.53" x2="318.55" y2="153.53" gradientTransform="matrix(1, 0, 0, 1, 0, 0)" gradientUnits="userSpaceOnUse"><stop offset="0" stop-color="#24275b"/><stop offset=".48" stop-color="#222458"/><stop offset=".79" stop-color="#1c1e4f"/><stop offset="1" stop-color="#141544"/></linearGradient><linearGradient id="t" x1="142.91" y1="150.87" x2="149.6" y2="157.55" gradientTransform="matrix(1, 0, 0, 1, 0, 0)" gradientUnits="userSpaceOnUse"><stop offset="0" stop-color="#b33431"/><stop offset="1" stop-color="#db3837"/></linearGradient><linearGradient id="u" x1="162.36" y1="150.87" x2="169.05" y2="157.55" gradientTransform="matrix(1, 0, 0, 1, 0, 0)" gradientUnits="userSpaceOnUse"><stop offset="0" stop-color="#79daff"/><stop offset="1" stop-color="#4aa0d6"/></linearGradient><linearGradient id="v" x1="182.37" y1="150.87" x2="189.05" y2="157.55" gradientTransform="matrix(1, 0, 0, 1, 0, 0)" gradientUnits="userSpaceOnUse"><stop offset="0" stop-color="#eb9e1c"/><stop offset="1" stop-color="#f2ca25"/></linearGradient><linearGradient id="w" x1="271.07" y1="75.97" x2="525.08" y2="159.54" gradientTransform="matrix(1, 0, 0, 1, 0, 0)" gradientUnits="userSpaceOnUse"><stop offset="0" stop-color="#f5f8fb"/><stop offset="1" stop-color="#bfd5fc"/></linearGradient><linearGradient id="x" x1="293.63" y1="68.84" x2="424.51" y2="68.84" gradientTransform="matrix(1, 0, 0, 1, 0, 0)" gradientUnits="userSpaceOnUse"><stop offset="0" stop-color="#6ec2fc"/><stop offset=".69" stop-color="#5290e7"/><stop offset="1" stop-color="#4578de"/></linearGradient><linearGradient id="y" x1="303.01" y1="85.95" x2="388.09" y2="85.95" xlink:href="#x"/><linearGradient id="a`" x1="303.01" y1="93.16" x2="388.09" y2="93.16" xlink:href="#x"/><linearGradient id="aa" x1="303.01" y1="100.37" x2="388.09" y2="100.37" xlink:href="#x"/><linearGradient id="ab" x1="303.01" y1="107.58" x2="388.09" y2="107.58" xlink:href="#x"/><linearGradient id="ac" x1="303.01" y1="114.79" x2="388.09" y2="114.79" xlink:href="#x"/><linearGradient id="ad" x1="303.01" y1="122" x2="388.09" y2="122" xlink:href="#x"/><linearGradient id="ae" x1="303.01" y1="129.21" x2="347.71" y2="129.21" xlink:href="#x"/></defs><g style="isolation:isolate;"><g id="a"/><g id="b"/><g id="c"/><g id="d"/><g id="e"/><g id="f"/><g id="g"/><g id="h"/><g id="i"/><g id="j"><g><path d="M499.65,335.04c-2.75,3.43-335.39,0-335.39,0,0,0-84.67,13.44-91.27-58.04-6.6-71.48,20.89-95.67,62.68-111.06,41.79-15.4-3.68-43.74,18.69-94.57,30.81-70.01,112.76,6.24,168.24-45.08,43.99-40.69,189.43,7.89,121.56,101.61-37.16,51.32,163.24,72.74,55.48,207.14Z" style="fill:#dee4ff;"/><g><g><path d="M355.7,335.79c0,1.74-57.27,3.16-127.92,3.16s-127.92-1.41-127.92-3.16,57.27-3.16,127.92-3.16,127.92,1.41,127.92,3.16Z" style="fill:url(#k); mix-blend-mode:multiply; opacity:.7;"/><path d="M129.52,336.17c0,1.57-15.57,2.85-34.77,2.85s-34.77-1.27-34.77-2.85,15.57-2.85,34.77-2.85,34.77,1.27,34.77,2.85Z" style="fill:url(#l); mix-blend-mode:multiply; opacity:.6;"/><path d="M551.99,334.65c0,2.06-64.14,3.74-143.26,3.74s-143.26-1.67-143.26-3.74,64.14-3.74,143.26-3.74,143.26,1.67,143.26,3.74Z" style="fill:url(#m); mix-blend-mode:multiply; opacity:.7;"/></g><g><g><g><g><g><path d="M99.5,119.19h254.16c3.3,0,5.99,2.68,5.99,5.99v173.54c0,3.3-2.68,5.99-5.99,5.99H99.51c-3.31,0-5.99-2.68-5.99-5.99V125.18c0-3.3,2.68-5.98,5.98-5.98Z" style="fill:url(#n);"/><path d="M93.52,119.19v155.59c0,3.29,2.69,5.99,5.99,5.99h254.16c3.29,0,5.99-2.69,5.99-5.99V119.19H93.52Z" style="fill:url(#o);"/></g><path d="M258.43,325.11c-2.15-7.21-3.45-20.4-3.45-20.4h-55.52s-1.29,13.19-3.44,20.4c-2.15,7.21-14.2,7.32-14.2,7.32h90.81s-12.05-.11-14.2-7.32Z" style="fill:url(#p);"/></g><rect x="182.24" y="332.43" width="90.38" height="3.2" style="fill:url(#q);"/></g><rect x="102.94" y="129.21" width="246.98" height="141.98" style="fill:#d6e7f1;"/><g><g><rect x="132.55" y="140.89" width="186" height="115.34" style="fill:url(#r);"/><rect x="132.55" y="140.89" width="186" height="25.26" style="fill:url(#s);"/></g><g><path d="M149.26,153.69c0,1.94-1.58,3.52-3.52,3.52s-3.52-1.58-3.52-3.52,1.58-3.52,3.52-3.52,3.52,1.58,3.52,3.52Z" style="fill:url(#t);"/><path d="M168.71,153.69c0,1.94-1.58,3.52-3.52,3.52s-3.52-1.58-3.52-3.52,1.58-3.52,3.52-3.52,3.52,1.58,3.52,3.52Z" style="fill:url(#u);"/><path d="M188.71,153.69c0,1.94-1.58,3.52-3.52,3.52s-3.52-1.58-3.52-3.52,1.58-3.52,3.52-3.52,3.52,1.58,3.52,3.52Z" style="fill:url(#v);"/></g></g><rect x="144.22" y="178.54" width="160.68" height="7.53" style="fill:#fff;"/><rect x="144.22" y="194.8" width="68.48" height="7.53" style="fill:#fff;"/><rect x="144.42" y="208.18" width="137.65" height="7.53" style="fill:#fff;"/><rect x="144.42" y="236.9" width="137.65" height="7.53" style="fill:#fff;"/></g><g><path d="M258.05,51.95c-3.25,0-6.34,.65-9.16,1.83,.84-2.85,1.3-5.86,1.3-8.98,0-17.47-14.16-31.63-31.63-31.63-11.86,0-22.19,6.53-27.6,16.19-4.08-1.92-8.64-3-13.45-3-15.81,0-28.91,11.6-31.25,26.76-2.32-.76-4.8-1.18-7.38-1.18-13.14,0-23.79,10.65-23.79,23.79s10.65,23.79,23.79,23.79c.87,0,1.73-.05,2.57-.14h114.04c.84,.09,1.69,.14,2.55,.14,13.14,0,23.79-10.65,23.79-23.79s-10.65-23.79-23.79-23.79Z" style="fill:#5379b3;"/><g><rect x="195.6" y="55.71" width="12.11" height="31.62" style="fill:#f4f6f9;"/><polygon points="201.65 36.77 183.56 62.39 219.74 62.39 201.65 36.77" style="fill:#f4f6f9;"/></g></g><g><path d="M424.51,144.24V67.73c0-1.62-1.33-2.95-2.95-2.95h-124.99c-1.62,0-2.94,1.32-2.94,2.95v76.51h130.88Z" style="fill:url(#w);"/><g><path d="M421.56,64.78h-124.99c-1.62,0-2.94,1.32-2.94,2.95v5.16h130.88v-5.16c0-1.62-1.33-2.95-2.95-2.95Z" style="fill:url(#x);"/><g><rect x="303.01" y="85.05" width="85.08" height="1.8" style="fill:url(#y);"/><rect x="303.01" y="92.26" width="85.08" height="1.8" style="fill:url(#a`);"/><rect x="303.01" y="99.47" width="85.08" height="1.8" style="fill:url(#aa);"/><rect x="303.01" y="106.68" width="85.08" height="1.8" style="fill:url(#ab);"/><rect x="303.01" y="113.89" width="85.08" height="1.8" style="fill:url(#ac);"/><rect x="303.01" y="121.1" width="85.08" height="1.8" style="fill:url(#ad);"/><rect x="303.01" y="128.31" width="44.7" height="1.8" style="fill:url(#ae);"/></g></g></g><g><g><rect x="348.98" y="330.01" width="4.98" height="3.66" style="fill:#162840;"/><rect x="404.32" y="330.01" width="4.98" height="3.66" style="fill:#162840;"/></g><rect x="340.83" y="182.4" width="81.98" height="148.49" rx="2.7" ry="2.7" style="fill:#2f384d;"/><g style="opacity:.4;"><path d="M420.11,182.4h-76.58c-1.28,0-2.35,.9-2.62,2.1,.26-.09,.54-.14,.83-.14h76.58c1.49,0,2.7,1.21,2.7,2.7v143.09c0,.21-.03,.41-.07,.6,1.08-.35,1.87-1.36,1.87-2.55V185.1c0-1.49-1.21-2.7-2.7-2.7Z" style="fill:#606b82;"/></g><rect x="340.83" y="213.72" width="81.98" height="2.33" style="fill:#606b82; opacity:.2;"/><rect x="340.83" y="211.39" width="81.98" height="2.33" style="fill:#252c3c;"/><rect x="340.83" y="272.64" width="81.98" height="2.33" style="fill:#252c3c;"/><rect x="340.83" y="301.89" width="81.98" height="2.33" style="fill:#252c3c;"/><rect x="340.83" y="275.04" width="81.98" height="2.33" style="fill:#606b82; opacity:.2;"/><rect x="340.83" y="243.36" width="81.98" height="2.33" style="fill:#252c3c;"/><rect x="340.83" y="245.76" width="81.98" height="2.33" style="fill:#606b82; opacity:.2;"/><rect x="340.83" y="304.36" width="81.98" height="2.33" style="fill:#606b82; opacity:.2;"/><g><rect x="395.96" y="195.68" width="3.32" height="3.92" style="fill:#f0cc76;"/><rect x="403.06" y="195.68" width="3.32" height="3.92" style="fill:#9dd0d8;"/><rect x="410.41" y="195.68" width="3.32" height="3.92" style="fill:#d87857;"/></g><g><rect x="395.96" y="227.75" width="3.32" height="3.92" style="fill:#f0cc76;"/><rect x="403.06" y="227.75" width="3.32" height="3.92" style="fill:#9dd0d8;"/><rect x="410.41" y="227.75" width="3.32" height="3.92" style="fill:#d87857;"/></g><g><rect x="395.96" y="258.84" width="3.32" height="3.92" style="fill:#f0cc76;"/><rect x="403.06" y="258.84" width="3.32" height="3.92" style="fill:#9dd0d8;"/><rect x="410.41" y="258.84" width="3.32" height="3.92" style="fill:#d87857;"/></g><g><rect x="395.96" y="287.78" width="3.32" height="3.92" style="fill:#f0cc76;"/><rect x="403.06" y="287.78" width="3.32" height="3.92" style="fill:#9dd0d8;"/><rect x="410.41" y="287.78" width="3.32" height="3.92" style="fill:#d87857;"/></g><g><rect x="395.96" y="316.33" width="3.32" height="3.92" style="fill:#f0cc76;"/><rect x="403.06" y="316.33" width="3.32" height="3.92" style="fill:#9dd0d8;"/><rect x="410.41" y="316.33" width="3.32" height="3.92" style="fill:#d87857;"/></g><rect x="348.98" y="193.02" width="39.34" height="9.4" style="fill:#606b82; opacity:.3;"/><rect x="348.98" y="256.48" width="39.34" height="9.4" style="fill:#606b82; opacity:.3;"/><rect x="348.98" y="225.01" width="39.34" height="9.4" style="fill:#606b82; opacity:.3;"/><rect x="348.98" y="285.04" width="39.34" height="9.4" style="fill:#606b82; opacity:.3;"/><rect x="348.98" y="313.59" width="39.34" height="9.4" style="fill:#606b82; opacity:.3;"/></g><g><g><rect x="430.89" y="331.84" width="3.59" height="2.64" style="fill:#162840;"/><rect x="470.8" y="331.84" width="3.59" height="2.64" style="fill:#162840;"/></g><rect x="425.01" y="225.39" width="59.12" height="107.08" rx="1.94" ry="1.94" style="fill:#2f384d;"/><g style="opacity:.4;"><path d="M482.18,225.39h-55.23c-.92,0-1.7,.65-1.89,1.51,.19-.06,.39-.1,.6-.1h55.23c1.07,0,1.94,.87,1.94,1.95v103.19c0,.15-.02,.29-.05,.43,.78-.25,1.35-.98,1.35-1.84v-103.19c0-1.07-.87-1.95-1.94-1.95Z" style="fill:#606b82;"/></g><rect x="425.01" y="247.98" width="59.12" height="1.68" style="fill:#606b82; opacity:.2;"/><rect x="425.01" y="246.3" width="59.12" height="1.68" style="fill:#252c3c;"/><rect x="425.01" y="290.47" width="59.12" height="1.68" style="fill:#252c3c;"/><rect x="425.01" y="311.56" width="59.12" height="1.68" style="fill:#252c3c;"/><rect x="425.01" y="292.2" width="59.12" height="1.68" style="fill:#606b82; opacity:.2;"/><rect x="425.01" y="269.35" width="59.12" height="1.68" style="fill:#252c3c;"/><rect x="425.01" y="271.08" width="59.12" height="1.68" style="fill:#606b82; opacity:.2;"/><rect x="425.01" y="313.34" width="59.12" height="1.68" style="fill:#606b82; opacity:.2;"/><g><rect x="464.77" y="234.96" width="2.4" height="2.82" style="fill:#f0cc76;"/><rect x="469.89" y="234.96" width="2.4" height="2.82" style="fill:#9dd0d8;"/><rect x="475.19" y="234.96" width="2.4" height="2.82" style="fill:#d87857;"/></g><g><rect x="464.77" y="258.09" width="2.4" height="2.82" style="fill:#f0cc76;"/><rect x="469.89" y="258.09" width="2.4" height="2.82" style="fill:#9dd0d8;"/><rect x="475.19" y="258.09" width="2.4" height="2.82" style="fill:#d87857;"/></g><g><rect x="464.77" y="280.51" width="2.4" height="2.82" style="fill:#f0cc76;"/><rect x="469.89" y="280.51" width="2.4" height="2.82" style="fill:#9dd0d8;"/><rect x="475.19" y="280.51" width="2.4" height="2.82" style="fill:#d87857;"/></g><g><rect x="464.77" y="301.38" width="2.4" height="2.82" style="fill:#f0cc76;"/><rect x="469.89" y="301.38" width="2.4" height="2.82" style="fill:#9dd0d8;"/><rect x="475.19" y="301.38" width="2.4" height="2.82" style="fill:#d87857;"/></g><g><rect x="464.77" y="321.97" width="2.4" height="2.82" style="fill:#f0cc76;"/><rect x="469.89" y="321.97" width="2.4" height="2.82" style="fill:#9dd0d8;"/><rect x="475.19" y="321.97" width="2.4" height="2.82" style="fill:#d87857;"/></g><rect x="430.89" y="233.05" width="28.37" height="6.78" style="fill:#606b82; opacity:.3;"/><rect x="430.89" y="278.81" width="28.37" height="6.78" style="fill:#606b82; opacity:.3;"/><rect x="430.89" y="256.12" width="28.37" height="6.78" style="fill:#606b82; opacity:.3;"/><rect x="430.89" y="299.4" width="28.37" height="6.78" style="fill:#606b82; opacity:.3;"/><rect x="430.89" y="320" width="28.37" height="6.78" style="fill:#606b82; opacity:.3;"/></g></g></g></g></g></g></svg>