<svg width="325" height="273" viewBox="0 0 325 273" fill="none" xmlns="http://www.w3.org/2000/svg">
<g clip-path="url(#clip0_166_1243)">
<path d="M298.382 163.679C295.062 235.71 231.198 256.217 151.651 257.754C30.3512 260.105 16.2309 221.437 16.2309 149.33C16.2309 77.2235 42.6764 2.77309 112.797 8.25946C146.108 10.867 183.917 66.2658 212.225 84.6467C251.327 110.036 300.883 109.561 298.382 163.672V163.679Z" fill="#D4E7FF"/>
<path opacity="0.42" d="M14.3682 193.847C14.3682 193.847 39.6345 182.784 51.2462 146.723C62.8654 110.655 83.9182 80.2837 123.823 78.2489C163.721 76.2066 206.878 78.7161 221.141 57.2228C235.396 35.7295 204.925 35.2396 204.497 72.9509C204.069 110.662 269.736 179.822 273.168 233.525C276.6 287.229 232.264 276.572 177.18 254.981C122.096 233.397 64.5929 276.113 28.7514 260.136C-7.0902 244.159 -5.53546 209.982 14.3682 193.855V193.847Z" stroke="#4570B4" stroke-miterlimit="10"/>
<path opacity="0.42" d="M19.7309 152.05C27.7326 152.05 34.2192 145.542 34.2192 137.513C34.2192 129.484 27.7326 122.976 19.7309 122.976C11.7292 122.976 5.24255 129.484 5.24255 137.513C5.24255 145.542 11.7292 152.05 19.7309 152.05Z" fill="#4570B4"/>
<path opacity="0.42" d="M32.8075 150.633C40.0289 143.388 40.029 131.64 32.8075 124.394C25.5861 117.148 13.8779 117.148 6.65647 124.394C-0.564951 131.64 -0.564954 143.388 6.65647 150.633C13.8779 157.879 25.5861 157.879 32.8075 150.633Z" stroke="#4570B4" stroke-miterlimit="10"/>
<path opacity="0.42" d="M294.912 163.68C304.245 163.68 311.811 156.088 311.811 146.723C311.811 137.358 304.245 129.767 294.912 129.767C285.579 129.767 278.012 137.358 278.012 146.723C278.012 156.088 285.579 163.68 294.912 163.68Z" fill="#4570B4"/>
<path opacity="0.42" d="M176.887 100.985L172.328 108.258H182.039L176.887 100.985Z" stroke="#4570B4" stroke-miterlimit="10"/>
<path opacity="0.42" d="M112.557 33.3174L106.458 43.024H119.437L112.557 33.3174Z" fill="#4570B4"/>
<path opacity="0.42" d="M158.23 52.9264C167.962 52.9264 175.85 45.0108 175.85 35.2464C175.85 25.482 167.962 17.5664 158.23 17.5664C148.499 17.5664 140.61 25.482 140.61 35.2464C140.61 45.0108 148.499 52.9264 158.23 52.9264Z" fill="#4570B4"/>
<path d="M157.877 33.0612L156.886 31.162C156.247 29.9412 156.72 28.4339 157.937 27.7934C158.763 27.3562 159.086 26.3313 158.651 25.4948L157.171 22.6461C156.735 21.8171 155.714 21.4931 154.88 21.9302L153.588 22.6084C152.372 23.249 151.38 24.2438 150.749 25.4647L150.374 26.1957C149.72 27.4542 149.728 28.9539 150.381 30.2125L153.153 35.5331L155 39.0826L157.772 44.4032C158.425 45.6618 159.65 46.5209 161.054 46.7018L161.865 46.8073C163.225 46.9881 164.607 46.7394 165.824 46.0989L167.115 45.4206C167.942 44.9835 168.265 43.9586 167.829 43.122L166.349 40.2733C165.914 39.4444 164.892 39.1203 164.058 39.5574C162.842 40.198 161.34 39.7232 160.701 38.5023L159.71 36.6032L157.862 33.0536L157.877 33.0612Z" fill="white"/>
<path opacity="0.42" d="M287.116 234.678C287.116 236.698 285.486 238.341 283.465 238.341C281.445 238.341 279.815 236.705 279.815 234.678C279.815 232.651 281.445 231.016 283.465 231.016C285.486 231.016 287.116 232.651 287.116 234.678Z" stroke="#4570B4" stroke-miterlimit="10"/>
<path opacity="0.42" d="M69.0243 41.0722C72.7493 41.0722 75.769 38.0423 75.769 34.3046C75.769 30.567 72.7493 27.5371 69.0243 27.5371C65.2993 27.5371 62.2796 30.567 62.2796 34.3046C62.2796 38.0423 65.2993 41.0722 69.0243 41.0722Z" fill="white"/>
<path opacity="0.42" d="M253.137 135.101C256.862 135.101 259.881 132.072 259.881 128.334C259.881 124.596 256.862 121.566 253.137 121.566C249.412 121.566 246.392 124.596 246.392 128.334C246.392 132.072 249.412 135.101 253.137 135.101Z" stroke="#4570B4" stroke-miterlimit="10"/>
<path opacity="0.42" d="M40.7987 173.649C44.4283 173.649 47.3707 170.697 47.3707 167.055C47.3707 163.413 44.4283 160.461 40.7987 160.461C37.1691 160.461 34.2267 163.413 34.2267 167.055C34.2267 170.697 37.1691 173.649 40.7987 173.649Z" fill="#4570B4"/>
<path opacity="0.42" d="M294.912 158.419C301.35 158.419 306.569 153.182 306.569 146.723C306.569 140.263 301.35 135.026 294.912 135.026C288.474 135.026 283.255 140.263 283.255 146.723C283.255 153.182 288.474 158.419 294.912 158.419Z" stroke="white" stroke-miterlimit="10"/>
<path opacity="0.42" d="M285.005 35.9248H204.219C200.764 35.9248 197.97 38.7358 197.97 42.195V91.1654C197.97 94.6321 200.771 97.4355 204.219 97.4355H255.743V109.78C255.743 111.845 258.146 112.968 259.724 111.641L276.54 97.4355H285.005C288.46 97.4355 291.254 94.6245 291.254 91.1654V42.2025C291.254 38.7358 288.452 35.9323 285.005 35.9323V35.9248Z" fill="#4570B4"/>
<path d="M305.464 42.037C305.464 49.3547 303.369 56.175 299.756 61.9025C299.185 62.8219 298.569 63.7188 297.916 64.5779C291.314 73.2747 280.987 78.8741 269.383 78.8741C263.426 78.8741 257.808 77.4046 252.859 74.7895C241.24 68.6701 233.301 56.2956 233.301 42.037C233.301 40.3715 233.406 38.7286 233.624 37.1159C235.974 19.0967 251.094 5.19238 269.383 5.19238C289.309 5.19238 305.464 21.6892 305.464 42.037Z" fill="#68A8DE"/>
<path d="M297.916 64.5701C291.314 73.2669 280.987 78.8664 269.383 78.8664C263.426 78.8664 257.808 77.3968 252.859 74.7817C253.535 73.0861 255.608 68.5869 259.28 66.0698C263.862 62.9197 277.787 61.0281 287.446 61.8571C293.147 62.3394 296.294 63.613 297.916 64.5701Z" fill="#C6606C"/>
<path d="M253.137 23.3468L253.512 41.3358C253.512 41.3358 254.083 59.7167 268.984 59.3926C283.893 59.0686 287.04 36.3619 287.04 36.3619L284.697 22.5857C284.697 22.5857 267.272 10.9196 253.129 23.3468H253.137Z" fill="white"/>
<path d="M269.09 55.0674C269.09 55.0674 270.194 62.0234 268.526 64.2993C266.859 66.5752 271.846 74.4732 271.846 74.4732L283.39 63.8471C283.39 63.8471 282.624 56.0547 282.834 49.2344L269.097 55.0599L269.09 55.0674Z" fill="white"/>
<path d="M253.219 27.4769C253.219 27.4769 257.508 28.8485 262.097 28.4415C266.686 28.0346 268.293 26.1807 268.293 26.1807C268.293 26.1807 269.826 26.8288 272.319 26.8288C274.813 26.8288 276.668 25.6154 276.668 25.6154C276.668 25.6154 274.978 28.5244 275.699 32.2398C276.42 35.9551 278.839 36.9198 278.839 36.9198C278.839 36.9198 280.371 33.2044 283.022 33.2044C285.673 33.2044 286.642 36.0305 285.959 39.7459C285.275 43.4612 281.009 44.3505 281.009 44.3505L282.827 49.234C282.827 49.234 289.699 41.8409 290.503 33.6867C291.307 25.5325 287.206 23.1059 287.206 23.1059C287.206 23.1059 287.551 17.0467 279.492 14.9517C271.433 12.8566 266.123 13.0149 260.084 16.4891C260.084 16.4891 255.014 12.6154 250.748 14.9517C246.482 17.2879 247.691 22.2995 249.779 23.5882C249.779 23.5882 245.678 24.6357 246.557 29.7227C247.443 34.8096 253.354 34.4102 253.354 34.4102L253.212 27.4618L253.219 27.4769Z" fill="#00496A"/>
<path d="M268.984 59.3925C268.984 59.3925 279.823 56.5137 280.889 49.2412C280.889 49.2412 283.578 59.7844 268.984 63.3641C268.984 63.3641 269.413 60.229 268.984 59.3925Z" fill="#D9D9D9"/>
<path opacity="0.42" d="M324.759 19.6497C326.261 10.4239 320.025 1.72285 310.831 0.215369C301.636 -1.29211 292.964 4.96484 291.462 14.1907C289.959 23.4165 296.195 32.1176 305.39 33.625C314.585 35.1325 323.256 28.8756 324.759 19.6497Z" fill="#4570B4"/>
<path d="M306.223 21.4858L306.163 20.702C305.983 19.0667 306.523 17.2806 308.033 15.4643C309.393 13.8591 310.144 12.6759 310.144 11.3119C310.144 9.76695 309.175 8.73448 307.275 8.70434C306.185 8.70434 304.984 9.06608 304.225 9.64637L303.504 7.7397C304.503 7.01622 306.223 6.52637 307.823 6.52637C311.293 6.52637 312.863 8.67419 312.863 10.9803C312.863 13.0377 311.713 14.5223 310.264 16.2481C308.934 17.8232 308.454 19.1571 308.544 20.702L308.574 21.4858H306.223ZM305.562 25.7287C305.562 24.6058 306.313 23.822 307.372 23.822C308.431 23.822 309.152 24.6058 309.152 25.7287C309.152 26.7913 308.461 27.6052 307.342 27.6052C306.283 27.6052 305.562 26.7838 305.562 25.7287Z" fill="white"/>
<path d="M279.439 215.959C279.387 216.132 279.319 216.276 279.237 216.389C277.81 218.461 276.307 220.473 274.723 222.418L90.5953 243.444V215.959H279.447H279.439Z" fill="#8CC6E5"/>
<path d="M177.18 156.453L168.054 166.159C168.054 166.159 166.184 164.23 163.946 161.276C162.879 159.859 161.73 158.208 160.671 156.422C159.282 154.086 158.035 151.524 157.321 148.954C154.918 140.325 155.902 122.125 155.902 122.125C155.902 122.125 159.792 122.547 161.122 124.032C168.61 132.397 177.18 156.453 177.18 156.453Z" fill="#FF6A76"/>
<path d="M142.878 188.157H77.534L71.563 137.74C70.8795 131.967 74.8902 126.714 80.5309 125.976L84.459 125.463L134.391 118.952L142.871 188.157H142.878Z" fill="#4570B4"/>
<path d="M126.925 120.626C126.925 120.626 105.662 127.484 104.505 129.255C103.356 131.018 113.338 162.286 113.338 162.286L111.415 188.165H154.715L156.901 163.469C156.901 163.469 161.535 158.367 161.82 149.934C162.106 141.501 155.902 122.125 155.902 122.125L140.798 120.136L126.925 120.626Z" fill="#FF6A76"/>
<path d="M133.009 72.0541C133.009 72.0541 118.19 65.6559 107.667 80.5776C97.1448 95.4993 108.043 118.952 108.043 118.952C108.043 118.952 134.894 115.433 142.322 114.717C149.75 114.001 151.26 114.001 151.26 114.001C151.26 114.001 155.091 90.435 146.919 81.7683C138.747 73.1017 133.016 72.0466 133.016 72.0466L133.009 72.0541Z" fill="#00496A"/>
<path d="M138.522 130.249L126.009 121.643C126.009 121.643 127.038 118.349 126.782 115.056C126.722 114.325 126.602 113.594 126.392 112.901C126.287 112.554 126.159 112.215 126.009 111.883L138.522 111.258C138.522 111.258 138.604 112.275 138.837 113.587C139.025 114.611 139.303 115.817 139.724 116.865C140.024 117.641 140.399 118.327 140.865 118.802C142.78 120.753 138.522 130.249 138.522 130.249Z" fill="white"/>
<path d="M139.724 116.864C138.116 116.917 131.214 117.023 126.782 115.056C126.722 114.325 126.602 113.594 126.392 112.9C126.392 112.9 134.826 113.933 138.837 113.586C139.025 114.611 139.303 115.817 139.724 116.864Z" fill="#D9D9D9"/>
<path d="M145.567 77.7141L147.655 95.0173C147.655 95.0173 150.389 112.848 136.051 114.574C121.713 116.307 116.891 99.6747 116.891 99.6747L115.193 81.3089C115.193 81.3089 130.312 67.7362 145.567 77.7141Z" fill="white"/>
<path d="M139.025 79.0557C139.025 79.0557 137.147 83.683 130.981 86.9688C125.513 89.8778 120.383 90.6842 120.383 90.6842C120.383 90.6842 119.557 95.5601 116.793 98.6123C116.793 98.6123 112.001 89.4934 113.961 81.6407C115.914 73.7879 126.016 69.9972 134.887 70.796C143.749 71.5949 146.941 74.8581 148.121 80.043C149.3 85.2279 147.332 92.2366 147.332 92.2366C147.332 92.2366 145.454 80.6685 139.04 79.0557H139.025Z" fill="#00496A"/>
<path d="M115.186 94.7987C115.186 94.7987 113.481 81.6405 123.59 74.6544C130.177 70.1025 138.469 71.3158 138.469 71.3158C138.469 71.3158 133.242 67.3668 122.944 71.9263C112.647 76.4857 112.121 86.7952 113.165 94.7987H115.186Z" fill="#68A8DE"/>
<path d="M92.4355 188.158H77.5265L71.5554 137.74C70.872 131.968 74.8827 126.715 80.5233 125.976L84.4515 125.464L92.4205 188.158H92.4355Z" fill="#375C93"/>
<path d="M129.178 111.409C122.336 111.409 117.259 106.631 117.033 106.412L117.95 105.41C118.002 105.463 123.553 110.663 130.493 109.97L130.62 111.334C130.132 111.386 129.644 111.409 129.171 111.409H129.178Z" fill="#375C93"/>
<path d="M298.69 216.388H93.6673C88.1844 216.388 82.9569 214.12 79.3141 210.148L68.0554 197.894C63.6841 193.139 67.1616 185.61 73.7261 185.61H273.874C280.791 185.61 287.439 188.218 292.411 192.883L303.97 203.712C308.889 208.317 305.525 216.396 298.69 216.396V216.388Z" fill="#68A8DE"/>
<path d="M205.195 125.019C204.827 125.223 204.249 125.562 203.618 125.939L203.498 125.743C205.375 124.545 208.147 122.668 207.959 122.216C207.681 121.53 206.269 121.884 205.225 122.457C204.624 122.789 203.528 123.444 202.469 124.085L202.394 123.964C204.256 122.781 207.358 120.724 207.156 120.241C206.878 119.556 205.466 119.91 204.422 120.482C203.761 120.844 202.506 121.598 201.357 122.291L201.267 122.148C203.115 120.95 205.518 119.292 205.345 118.87C205.06 118.184 203.655 118.538 202.611 119.111C201.199 119.88 197.106 122.419 197.106 122.419L194.124 123.512C194.77 122.465 196.58 118.583 195.732 118.583C194.883 118.583 192.555 121.289 191.586 124.077C190.865 126.165 190.774 128.026 190.774 128.825L164.629 162.158C164.629 162.158 165.245 163.13 166.184 164.434C168.895 168.194 175.212 169.023 178.862 166.167C181.739 163.906 184.015 160.922 186.245 157.87C190.444 152.127 196.7 136.881 198.165 133.234L204.084 127.672C205.706 126.617 207.771 125.193 207.621 124.816C207.373 124.213 206.127 124.529 205.203 125.027L205.195 125.019Z" fill="white"/>
<path d="M136.419 193.72C136.419 193.72 139.476 195.98 140.685 199.048C141.894 202.115 134.166 204.089 121.269 199.696C111.888 196.5 127.729 186.688 136.419 193.72Z" fill="#00496A"/>
<path d="M131.567 112.238H129.839C129.223 112.238 128.72 111.725 128.72 111.1V110.037C128.72 109.404 129.223 108.899 129.839 108.899H131.567C132.183 108.899 132.686 109.412 132.686 110.037V111.1C132.686 111.733 132.183 112.238 131.567 112.238Z" fill="#00496A"/>
<path d="M122.576 98.7028C123.53 103.496 121.044 108.063 117.018 108.899C112.993 109.736 108.959 106.525 107.998 101.732C107.044 96.9393 109.53 92.3724 113.556 91.5359C117.582 90.6993 121.615 93.9098 122.576 98.7028Z" fill="#4570B4"/>
<path d="M118.521 99.5463C119.084 102.372 117.619 105.07 115.246 105.56C112.872 106.05 110.491 104.158 109.928 101.332C109.365 98.5063 110.829 95.8083 113.203 95.3184C115.576 94.8286 117.957 96.7202 118.521 99.5463Z" fill="#68A8DE"/>
<path d="M108.005 127.362C108.005 127.362 104.355 127.912 102.868 130.279C96.5139 140.423 84.1511 171.449 84.1511 171.449L96.0782 176.74C96.0782 176.74 111.761 158.51 113.203 149.835C114.645 141.161 108.005 127.362 108.005 127.362Z" fill="#FF6A76"/>
<path d="M94.9516 174.095L119.429 190.072L115.974 197.766C115.974 197.766 93.9452 189.823 87.1704 184.684C80.4032 179.536 84.1436 171.45 84.1436 171.45C84.1436 171.45 87.8839 171.005 94.9441 174.095H94.9516Z" fill="white"/>
<path d="M118.716 189.824C118.716 189.824 126.97 189.432 129.944 189.432C132.919 189.432 138.101 194.33 137.53 195.898C136.952 197.465 131.003 192.665 131.003 192.665L130.665 193.305C130.665 193.305 135.946 196.538 136.231 197.767C136.516 198.995 135.322 198.799 133.595 198.061C131.867 197.322 129.276 195.657 129.276 195.657L128.991 196.003C128.991 196.003 133.985 199.093 133.985 200.216C133.985 201.339 130.388 200.065 127.744 198.302L127.406 198.844C127.406 198.844 130.673 200.51 130.913 201.588C131.154 202.665 129.374 202.228 127.406 201.294C125.438 200.359 123.613 200.261 121.067 199.869C118.521 199.477 115.501 197.586 115.501 197.586L118.708 189.816L118.716 189.824Z" fill="white"/>
<path d="M270.487 145.012L258.747 204.089H171.772L183.444 145.352C183.692 144.108 184.758 143.219 185.998 143.219H269.052C269.976 143.219 270.674 144.085 270.487 145.012Z" fill="#4570B4"/>
<path d="M171.772 204.09L147.88 196.29C147.039 196.011 146.468 195.227 146.468 194.338C146.468 193.2 147.385 192.28 148.519 192.28H174.13L171.78 204.09H171.772Z" fill="#00496A"/>
<path d="M109.064 129.76C109.064 129.76 114.412 144.938 111.175 155.36C111.175 155.36 122.111 143.167 109.064 129.76Z" fill="#C6606C"/>
<path d="M163.946 161.276C162.879 159.859 161.73 158.209 160.671 156.423C162.879 147.718 157.742 128.335 157.742 128.335C169.001 142.737 165.861 156.114 163.946 161.276Z" fill="#C6606C"/>
<path d="M188.679 146.724L258.747 204.089H178.855L188.679 146.724Z" fill="#375C93"/>
<path d="M230.799 183.25C234.367 181.777 236.068 177.681 234.6 174.102C233.132 170.522 229.05 168.814 225.482 170.288C221.915 171.761 220.213 175.857 221.681 179.436C223.15 183.016 227.232 184.723 230.799 183.25Z" fill="#A6D6F7"/>
<path d="M126.7 118.176L138.522 130.241C138.522 130.241 136.471 133.15 133.061 133.075C129.652 132.992 127.729 128.644 126.767 126.375C125.798 124.107 123.831 121.635 123.831 121.635L126.707 118.176H126.7Z" fill="#FFA9B3"/>
<path d="M138.522 130.249C138.522 130.249 141.571 132.111 144.545 130.814C147.52 129.526 146.716 127.551 145.672 125.464C144.628 123.384 143.501 119.668 143.501 119.668L140.107 117.709C140.107 117.709 140.707 125.645 138.522 130.249Z" fill="#FFA9B3"/>
<path d="M156.75 153.559L126.963 156.453C126.963 156.453 133.64 161.261 143.922 159.806C154.204 158.352 156.75 153.559 156.75 153.559Z" fill="#C6606C"/>
<path opacity="0.42" d="M90.1672 56.3711H36.2997C32.8673 56.3711 30.0808 59.167 30.0808 62.6111V76.9375C30.0808 80.3815 32.8673 83.1775 36.2997 83.1775H81.68L96.3862 91.7085V62.6111C96.3862 59.167 93.5996 56.3711 90.1672 56.3711Z" fill="#4570B4"/>
<path d="M34.2192 62.8525H90.3325" stroke="white" stroke-linecap="round" stroke-linejoin="round"/>
<path d="M34.2192 69.7256H90.3325" stroke="white" stroke-linecap="round" stroke-linejoin="round"/>
<path d="M34.2192 76.5986H90.3325" stroke="white" stroke-linecap="round" stroke-linejoin="round"/>
<path opacity="0.42" d="M19.2427 48.7214C29.6627 48.7214 38.1098 40.2457 38.1098 29.7904C38.1098 19.3351 29.6627 10.8594 19.2427 10.8594C8.82266 10.8594 0.375549 19.3351 0.375549 29.7904C0.375549 40.2457 8.82266 48.7214 19.2427 48.7214Z" fill="#4570B4"/>
<path d="M31.1023 22.7969H7.39065C6.74472 22.7969 6.21896 23.3244 6.21896 23.9725V37.0856C6.21896 37.7337 6.74472 38.2612 7.39065 38.2612H31.1023C31.7482 38.2612 32.2739 37.7337 32.2739 37.0856V23.9801C32.2739 23.3319 31.7482 22.8044 31.1023 22.8044V22.7969ZM31.4553 24.6885L20.3243 31.9911C20.2266 32.0514 20.1215 32.0815 20.0088 32.0815C19.9112 32.0815 19.8135 32.0589 19.7309 32.0062L6.75974 24.7035C6.48184 24.5453 6.3842 24.1986 6.54193 23.9273C6.69966 23.6485 7.04515 23.5505 7.31554 23.7088L19.9863 30.8456L30.8319 23.7314C31.0947 23.558 31.4478 23.6334 31.6205 23.8972C31.7933 24.1609 31.7181 24.5151 31.4553 24.6885Z" fill="white"/>
<path d="M34.2267 27.5374C37.4208 27.5374 40.0101 24.9394 40.0101 21.7345C40.0101 18.5297 37.4208 15.9316 34.2267 15.9316C31.0327 15.9316 28.4434 18.5297 28.4434 21.7345C28.4434 24.9394 31.0327 27.5374 34.2267 27.5374Z" fill="#FF6A76"/>
</g>
<defs>
<clipPath id="clip0_166_1243">
<rect width="325" height="273" fill="white"/>
</clipPath>
</defs>
</svg>
