<?xml version="1.0" encoding="UTF-8"?><svg xmlns="http://www.w3.org/2000/svg" xmlns:xlink="http://www.w3.org/1999/xlink" viewBox="0 0 600 350"><defs><style>.ak{fill:#a0c5de;}.al{fill:url(#t);}.am{fill:#fff;}.an{fill:#31426b;}.ao{fill:url(#ai);}.ap{filter:url(#ag);}.aq{fill:url(#y);}.ar{fill:#6dc2c5;}.as{fill:#283451;}.at{fill:url(#l);}.au{fill:url(#af);}.av{fill:url(#u);}.aw{fill:#3f484d;}.ax{isolation:isolate;}.ay{fill:#86b0da;}.b`{fill:#486096;}.ba{fill:#ebaf9d;}.bb{fill:url(#m);}.bc{filter:url(#r);}.bd{fill:#283553;mix-blend-mode:multiply;opacity:.3;}.be{fill:url(#p);}.bf{filter:url(#ad);}.bg{filter:url(#v);}.bh{fill:#e5eaf6;}.bi{fill:url(#ab);}.bj{fill:#e4846b;}.bk{filter:url(#a`);}.bl{fill:url(#aj);}.bm{fill:url(#x);}.bn{fill:url(#n);}.bo{fill:url(#ac);}.bp{fill:url(#o);}.bq{fill:url(#q);}.br{fill:url(#k);}.bs{fill:#f4f6f9;}.bt{fill:#b9d9f6;}</style><linearGradient id="k" x1="15385.25" y1="201.12" x2="15358.5" y2="321.83" gradientTransform="translate(15684.64) rotate(-180) scale(1 -1)" gradientUnits="userSpaceOnUse"><stop offset="0" stop-color="#c7d0e3"/><stop offset="1" stop-color="#e5eaf6"/></linearGradient><linearGradient id="l" x1="15417.5" y1="291.63" x2="15411.76" y2="172.19" gradientTransform="translate(15684.64) rotate(-180) scale(1 -1)" gradientUnits="userSpaceOnUse"><stop offset="0" stop-color="#283451"/><stop offset="1" stop-color="#31426b"/></linearGradient><linearGradient id="m" x1="15203.23" y1="-1088.14" x2="15224.57" y2="-987.5" gradientTransform="translate(15566.36 -340.34) rotate(174.08) scale(1 -1)" gradientUnits="userSpaceOnUse"><stop offset="0" stop-color="#3b2828"/><stop offset="0" stop-color="#3e2a2a"/><stop offset=".2" stop-color="#72524c"/><stop offset=".38" stop-color="#9d7369"/><stop offset=".55" stop-color="#bf8d7f"/><stop offset=".72" stop-color="#d79f8f"/><stop offset=".87" stop-color="#e5ab99"/><stop offset="1" stop-color="#ebaf9d"/></linearGradient><linearGradient id="n" x1="15365.99" y1="275.82" x2="15352.13" y2="275.82" gradientTransform="translate(15684.64) rotate(-180) scale(1 -1)" gradientUnits="userSpaceOnUse"><stop offset="0" stop-color="#4456dc"/><stop offset="1" stop-color="#677df3"/></linearGradient><linearGradient id="o" x1="15371.24" y1="225.29" x2="15356.11" y2="221.63" xlink:href="#n"/><linearGradient id="p" x1="15422.44" y1="322.16" x2="15440.91" y2="270.25" xlink:href="#l"/><linearGradient id="q" x1="15411.5" y1="318.27" x2="15429.97" y2="266.36" xlink:href="#l"/><filter id="r" filterUnits="userSpaceOnUse"><feOffset dx="3.33" dy="6.66"/><feGaussianBlur result="s" stdDeviation="9.99"/><feFlood flood-color="#355273" flood-opacity=".25"/><feComposite in2="s" operator="in"/><feComposite in="SourceGraphic"/></filter><linearGradient id="t" x1="450.32" y1="176.87" x2="450.32" y2="81.88" gradientTransform="translate(-281.27)" gradientUnits="userSpaceOnUse"><stop offset="0" stop-color="#f3f9fe"/><stop offset="1" stop-color="#fff"/></linearGradient><linearGradient id="u" x1="400.42" y1="121.99" x2="439.65" y2="121.99" gradientTransform="translate(-281.27)" xlink:href="#n"/><filter id="v" filterUnits="userSpaceOnUse"><feOffset dx="3.33" dy="6.66"/><feGaussianBlur result="w" stdDeviation="9.99"/><feFlood flood-color="#355273" flood-opacity=".25"/><feComposite in2="w" operator="in"/><feComposite in="SourceGraphic"/></filter><linearGradient id="x" x1="450.32" y1="292.17" x2="450.32" y2="198.74" gradientTransform="translate(-281.27)" xlink:href="#t"/><linearGradient id="y" x1="452" y1="246.7" x2="463.47" y2="217.08" gradientTransform="translate(-281.27)" gradientUnits="userSpaceOnUse"><stop offset="0" stop-color="#df9142"/><stop offset="1" stop-color="#eac661"/></linearGradient><filter id="a`" filterUnits="userSpaceOnUse"><feOffset dx="3.33" dy="6.66"/><feGaussianBlur result="aa" stdDeviation="9.99"/><feFlood flood-color="#355273" flood-opacity=".25"/><feComposite in2="aa" operator="in"/><feComposite in="SourceGraphic"/></filter><linearGradient id="ab" x1="143.69" y1="179.42" x2="143.69" y2="88.33" gradientTransform="translate(306.98)" xlink:href="#t"/><linearGradient id="ac" x1="98.74" y1="135.76" x2="188.63" y2="135.76" gradientTransform="translate(306.98)" xlink:href="#y"/><filter id="ad" filterUnits="userSpaceOnUse"><feOffset dx="3.33" dy="6.66"/><feGaussianBlur result="ae" stdDeviation="9.99"/><feFlood flood-color="#355273" flood-opacity=".25"/><feComposite in2="ae" operator="in"/><feComposite in="SourceGraphic"/></filter><linearGradient id="af" x1="15173.37" y1="232.17" x2="15221.1" y2="232.17" xlink:href="#n"/><filter id="ag" filterUnits="userSpaceOnUse"><feOffset dx="3.33" dy="6.66"/><feGaussianBlur result="ah" stdDeviation="9.99"/><feFlood flood-color="#355273" flood-opacity=".25"/><feComposite in2="ah" operator="in"/><feComposite in="SourceGraphic"/></filter><linearGradient id="ai" x1="280.33" y1="51.51" x2="346.89" y2="51.51" gradientTransform="translate(-19.01)" xlink:href="#n"/><linearGradient id="aj" x1="311.4" y1="79.34" x2="315.85" y2="23.28" gradientTransform="translate(-19.01)" xlink:href="#t"/></defs><g style="isolation:isolate;"><g id="a"/><g id="b"/><g id="c"/><g id="d"/><g id="e"/><g id="f"/><g id="g"/><g id="h"/><g id="i"/><g id="j"><g><path d="M19.63,267.62c-.34,32.02,12.93,57.18,12.93,57.18H574.63s22.53-42.67,6.65-89.93c-.17-.56-.37-1.11-.57-1.67-3.08-8.7-7.48-17.55-13.58-26.29-10.21-14.63-22.87-26.33-36.85-36.05-.52-.37-1.06-.73-1.59-1.1-21.17-14.41-45.21-24.43-68.16-33.31-.76-.29-1.52-.59-2.27-.88-6.29-2.42-12.5-4.77-18.52-7.1-12.73-4.92-23.98-11.53-35.73-20.57-.57-.42-1.13-.87-1.71-1.33-10.68-8.39-21.85-18.8-34.93-31.83-22.88-22.75-49.21-38.44-76.13-47.74-.59-.21-1.16-.41-1.75-.6-19.88-6.67-40.04-9.88-59.34-9.92-.54,0-1.1,0-1.64,.01-22.94,.16-44.6,4.83-63.08,13.51-.59,.27-1.19,.56-1.77,.85-15.04,7.35-27.87,17.42-37.41,29.92-12.79,16.76-21.32,31.16-28.02,44.43-.36,.71-.72,1.41-1.07,2.11-16.06,32.42-21.79,58.3-53.69,95.87-6.76,7.96-11.78,16.19-15.41,24.43-.23,.52-.46,1.04-.67,1.57-5.24,12.43-7.39,24.86-7.71,36.47-.03,.66-.04,1.32-.04,1.97Z" style="fill:#e5eaf6;"/><g><path d="M330.46,198.84l-43.24-5.57,3.98,131.53h57.81s-1.4-106.82-18.55-125.96Z" style="fill:url(#k);"/><path d="M330.46,197.63s13.22,5.27,24.81,9.28c11.59,4.01,14.89,11,18.18,20.7,3.3,9.7,21.73,97.19,21.73,97.19h-63.33l2-23.48c1.07-.01,4.49-72.35,2.75-80.01-2.44-10.73-6.13-23.67-6.13-23.67Z" style="fill:#31426b;"/><path d="M287.22,191.92c5.48,39.62,10.56,78.3,12.73,110.19l.37,22.7h-68.81s1.29-105.21,11.12-114.01c9.83-8.79,29.94-13.97,44.59-18.88Z" style="fill:url(#l);"/><g><path d="M320.36,206.92l13.13,12.03s1.88-14.74-3.88-22.63l-5.24,2.39-4.01,8.21Z" style="fill:#f4f6f9;"/><path d="M320.36,206.92l-12.96,14.39s-17.56-6.3-20.18-29.39l9.21-6.85,23.93,21.85Z" style="fill:#f4f6f9;"/></g><g><g><path d="M296.43,185.07s2.07,19.01,23.93,21.85l10.1-20.24-27.01-20.25s0,.02-.01,.04l-7.01,18.59Z" style="fill:#ebaf9d;"/><path d="M320.36,206.92l10.1-20.24-27.01-20.25s0,.02-.01,.04c-.29,1.37-6.46,30.97,16.92,40.44Z" style="fill:#e4846b;"/></g><g><path d="M300.42,157.6s-2.8-8.19-2.17-14.79c.64-6.6,5.5-8.57,5.5-8.57,0,0-3.31-5.31,3.35-12.24,6.66-6.93,19.89-7.23,32.85-1.65,12.96,5.58,24.15,9.98,25.43,17.65,1.28,7.67-7.85,14.56-7.85,14.56,0,0,2.67,4.16-1.26,10.4-3.94,6.23-13.84,9.53-13.84,9.53,0,0-37.32-3.52-37.4-4.22s-4.62-10.66-4.62-10.66Z" style="fill:url(#m);"/><path d="M352.33,156.12s-.77,9.94-7.12,23.38c-6.35,13.44-9.77,19.85-19.04,19.55-7-.23-18.14-12.29-20.65-16.53-4.04-6.82-3.65-13.92-3.65-13.92,0,0-6.26-4.05-3.58-10.81,2.68-6.76,10.11-3.61,8.1,8.08,3.45,.45,5.77-5.28,5.77-5.28,0,0,2.26,.32,3.76-.1,1.94-.55,4.82-4.32,5.88-9.82,0,0,3.38,2.3,13.18,.64,10.03-1.7,14.57,.99,17.34,4.81Z" style="fill:#ebaf9d;"/></g></g><g><path d="M326.41,227.61c3.53,24.52,4.05,55.48,4.05,88.46l-9.53,7.95-11.51-7.64,8.94-87.76,8.05-1.02Z" style="fill:url(#n);"/><path d="M327.61,213.56s-6.08-1.32-14.16,1.03l-1.56,2.16s5.93,16.28,9.16,16.54c4.68,.37,4.59-.24,5.76-1.79,1.16-1.55,3.41-15.54,3.41-15.54l-2.61-2.39Z" style="fill:url(#o);"/></g><path d="M287.22,191.92s15.67,54.32,12.73,110.19c0,0-25.05-53.93-25.44-57.81-.39-3.88,16.3-16.68,16.3-16.68,0,0-18.82-4.46-20.18-7.18-1.36-2.72,16.59-28.52,16.59-28.52Z" style="fill:#486096;"/><path d="M330.46,198.84s10.21,20.82,3.32,103.26c0,0,18.53-43.26,17.36-59.36-.33-4.6-12.22-12.61-12.22-12.61,0,0,10.86-8.79,11.25-11.19,.39-2.39-11.49-16.87-19.71-20.11Z" style="fill:#486096;"/><g><path d="M361.62,259.04l3.62-34.27c2.86,10.89,4.44,22.29,4.54,34.27h-8.17Z" style="fill:#283553; mix-blend-mode:multiply; opacity:.3;"/><path d="M270.56,252.19s5.54,22.76,38.86,34.4c33.32,11.64,38.49,38.22,38.49,38.22h-91.57l14.22-72.62Z" style="fill:#283553; mix-blend-mode:multiply; opacity:.3;"/></g><g><path d="M314.03,312.96s15.74,.45,18.55,3.12c4.59,4.36,3.61,8.73,3.61,8.73h-26.77l4.61-11.84Z" style="fill:#ebaf9d;"/><path d="M265.92,302.11s3.41-32.2,4.64-48.5c0,0-2.67-18.12-11.95-30.32-8.73-11.47-13.01-13.47-17.56-10.1-4.55,3.36-11.34,29.97-11.73,49.55-.39,19.58-4.85,59.16,0,61.29,4.85,2.13,18.04,.78,18.04,.78l18.56-22.7Z" style="fill:url(#p);"/><path d="M314.48,310.95s-36.08-12.72-56.65-13.5-25.67,14.55-26.32,27.35h79.86l3.1-13.86Z" style="fill:url(#q);"/></g><g><path d="M301.59,324.81h33.37l.33-6.85-27.12,1.92c-2.97,.21-5.54,2.14-6.57,4.92h0Z" style="fill:#283451;"/><path d="M331.85,324.81h89.41c3.87,0,7.22-2.68,8.06-6.46l14.44-64.47c.43-1.93-1.04-3.77-3.02-3.77h-89.2c-1.74,0-3.24,1.21-3.62,2.9l-16.08,71.79Z" style="fill:#283451;"/><path d="M336.19,324.81h89.41c3.87,0,7.22-2.68,8.06-6.46l14.44-64.47c.43-1.93-1.04-3.77-3.02-3.77h-89.2c-1.74,0-3.24,1.21-3.62,2.9l-16.08,71.79Z" style="fill:#3f484d;"/><path d="M390.61,286.32c-1.02,4.25,.28,8.2,2.91,8.83,2.62,.63,5.58-2.3,6.59-6.55,1.02-4.25-.28-8.2-2.91-8.83-2.62-.63-5.58,2.3-6.59,6.55Z" style="fill:#fff;"/></g></g><path d="M24.74,335.48H582.66c2.95,0,5.33-2.39,5.33-5.34h0c0-2.95-2.39-5.33-5.33-5.33H24.74c-2.95,0-5.33,2.39-5.33,5.33h0c0,2.95,2.39,5.34,5.33,5.34Z" style="fill:#86b0da;"/><g style="filter:url(#r);"><rect x="100.56" y="84.31" width="136.96" height="91.76" rx="11.27" ry="11.27" style="fill:url(#t);"/><path d="M142.85,98.28c-2.43-.87-5.03-1.33-7.75-1.33-12.86,0-23.28,10.41-23.28,23.28,0,5.22,1.72,10.04,4.63,13.94,4.25,5.66,11.02,9.34,18.65,9.34,12.85,0,23.28-10.42,23.28-23.28,0-10.14-6.48-18.76-15.52-21.94Zm-7.75,34.55c-4.16,0-7.85-2.01-10.14-5.11-1.56-2.1-2.48-4.69-2.48-7.49,0-6.97,5.65-12.62,12.62-12.62,1.48,0,2.88,.26,4.2,.72,4.89,1.73,8.41,6.41,8.41,11.9,0,6.96-5.65,12.61-12.61,12.61Z" style="fill:#b9d9f6;"/><path d="M158.29,122.25c-.93,11.01-9.76,20.01-20.74,21.13-6.08,.62-11.74-1.1-16.2-4.37-2.87-2.1-2.94-6.36-.1-8.5,.03-.03,.07-.05,.1-.08,1.9-1.44,4.48-1.34,6.41,.05,2.5,1.79,5.68,2.69,9.08,2.24,5.56-.74,10.04-5.25,10.76-10.8,.62-4.76-1.43-9.09-4.85-11.71-1.89-1.45-2.74-3.88-1.95-6.13h0c1.17-3.31,5.23-4.69,8.06-2.61,6.27,4.6,10.15,12.26,9.43,20.79Z" style="fill:url(#u);"/><rect x="172.47" y="98.93" width="24.31" height="4.27" rx="2.13" ry="2.13" style="fill:#6dc2c5;"/><path d="M212.31,114.16h-37.7c-1.18,0-2.13-.96-2.13-2.13h0c0-1.18,.96-2.13,2.13-2.13h37.7c1.18,0,2.13,.96,2.13,2.13h0c0,1.18-.96,2.13-2.13,2.13Z" style="fill:#6dc2c5;"/><path d="M194.65,130.61h-20.05c-1.18,0-2.13-.96-2.13-2.13h0c0-1.18,.96-2.13,2.13-2.13h20.05c1.18,0,2.13,.96,2.13,2.13h0c0,1.18-.96,2.13-2.13,2.13Z" style="fill:#6dc2c5;"/><path d="M212.31,141.58h-37.7c-1.18,0-2.13-.96-2.13-2.13h0c0-1.18,.96-2.13,2.13-2.13h37.7c1.18,0,2.13,.96,2.13,2.13h0c0,1.18-.96,2.13-2.13,2.13Z" style="fill:#6dc2c5;"/><path d="M216.8,164.05H121.29c-1.18,0-2.13-.96-2.13-2.13h0c0-1.18,.96-2.13,2.13-2.13h95.51c1.18,0,2.13,.96,2.13,2.13h0c0,1.18-.96,2.13-2.13,2.13Z" style="fill:#6dc2c5;"/></g><g style="filter:url(#v);"><rect x="131.15" y="203.19" width="75.79" height="99.95" rx="9.18" ry="9.18" style="fill:url(#x);"/><path d="M177.05,249.13c-2.46,1.37-5.31,2.14-8.33,2.14-9.54,0-17.26-7.73-17.26-17.25s7.73-17.26,17.26-17.26v17.26l8.33,15.11Z" style="fill:#b9d9f6;"/><path d="M188.7,234.19c0,7.53-4.17,14.1-10.34,17.49l-9.64-17.49v-19.98c11.04,0,19.98,8.95,19.98,19.98Z" style="fill:url(#y);"/><g><path d="M147.12,264.08c0,1.75-1.42,3.17-3.17,3.17s-3.17-1.42-3.17-3.17,1.42-3.17,3.17-3.17,3.17,1.42,3.17,3.17Z" style="fill:#b9d9f6;"/><path d="M192.45,266.06h-34.62c-1.09,0-1.98-.89-1.98-1.98h0c0-1.09,.89-1.98,1.98-1.98h34.62c1.09,0,1.98,.89,1.98,1.98h0c0,1.09-.89,1.98-1.98,1.98Z" style="fill:#b9d9f6;"/></g><g><circle cx="143.95" cy="276.24" r="3.17" style="fill:#b9d9f6;"/><path d="M192.45,278.22h-34.62c-1.09,0-1.98-.89-1.98-1.98h0c0-1.09,.89-1.98,1.98-1.98h34.62c1.09,0,1.98,.89,1.98,1.98h0c0,1.09-.89,1.98-1.98,1.98Z" style="fill:#b9d9f6;"/></g><g><circle cx="143.95" cy="288.24" r="3.17" style="fill:#b9d9f6;"/><path d="M192.45,290.22h-34.62c-1.09,0-1.98-.89-1.98-1.98h0c0-1.09,.89-1.98,1.98-1.98h34.62c1.09,0,1.98,.89,1.98,1.98h0c0,1.09-.89,1.98-1.98,1.98Z" style="fill:#b9d9f6;"/></g></g><g style="filter:url(#a`);"><rect x="386.32" y="89.88" width="128.68" height="91.76" rx="11.27" ry="11.27" style="fill:url(#ab);"/><path d="M493.99,111.29l-12.44,2.02c-1.06,.17-1.54,1.44-.85,2.26l1.94,2.33-24.99,19.76c-.37,.29-.91,.24-1.21-.13l-5.7-6.84c-3.02-3.62-8.3-4.19-12.02-1.3l-33.01,25.68,4.01,5.15,33.01-25.68c.92-.72,2.24-.58,2.99,.32l5.7,6.84c2.59,3.11,7.1,3.58,10.28,1.07l25.11-19.86,2.23,2.68c.69,.84,2.04,.59,2.39-.44l4.11-12.06c.34-1-.5-1.99-1.54-1.82Z" style="fill:url(#ac);"/></g><g style="filter:url(#ad);"><rect x="499.07" y="247.04" width="7.63" height="10.73" transform="translate(1055.64 147.23) rotate(142.57)" style="fill:#86b0da;"/><path d="M527.45,284.5h0c2.58-1.98,3.07-5.67,1.1-8.25l-15.56-20.34c-1.97-2.58-5.67-3.07-8.25-1.1h0c-2.58,1.98-3.07,5.67-1.1,8.25l15.56,20.34c1.97,2.58,5.67,3.07,8.25,1.1Z" style="fill:#3f484d;"/><g><path d="M468.45,246.67c8.01,10.47,22.98,12.46,33.45,4.45,10.46-8,12.46-22.98,4.45-33.45-8.01-10.47-22.99-12.45-33.45-4.45-10.47,8.01-12.46,22.98-4.45,33.45Zm6.78-5.19c-5.15-6.73-3.87-16.34,2.86-21.49,6.72-5.14,16.34-3.87,21.49,2.86,5.14,6.72,3.86,16.35-2.86,21.49-6.73,5.15-16.35,3.86-21.49-2.86Z" style="fill:url(#af);"/><path d="M497.25,226.11c3.77,4.93,4.09,11.41,1.34,16.55,5.04-5.36,5.61-13.75,.99-19.79-5.15-6.73-14.77-8-21.49-2.86-1.8,1.38-3.21,3.07-4.21,4.96,.57-.62,1.2-1.19,1.88-1.71,6.73-5.15,16.34-3.87,21.49,2.86Z" style="fill:#86b0da;"/></g></g><g style="filter:url(#ag);"><circle cx="294.6" cy="51.51" r="33.28" style="fill:url(#ai);"/><circle cx="294.6" cy="51.51" r="28.24" style="fill:url(#aj);"/><path d="M296.93,33.28v3.6c1.44,.23,2.62,.71,3.54,1.43,.92,.72,1.79,1.83,2.62,3.32l-3.58,2c-1.08-1.96-2.48-2.94-4.22-2.94-1.08,0-1.97,.32-2.68,.95-.71,.64-1.06,1.43-1.06,2.39,0,.87,.29,1.59,.86,2.17,.56,.56,1.7,1.23,3.41,2,1.48,.67,2.7,1.31,3.67,1.9,.97,.59,1.69,1.17,2.18,1.72,1.38,1.49,2.07,3.3,2.07,5.42s-.62,3.92-1.87,5.51c-1.24,1.58-2.89,2.64-4.96,3.19v3.8h-3.21v-3.69c-2.4-.39-4.23-1.22-5.49-2.48-1.26-1.26-2.19-3.21-2.79-5.84l4.04-.84c.55,1.86,1.22,3.19,2.02,3.98,.83,.76,1.94,1.14,3.32,1.14s2.47-.43,3.38-1.3c.89-.86,1.34-1.96,1.34-3.32,0-1.21-.37-2.18-1.12-2.92-.38-.35-.94-.76-1.68-1.2-.74-.45-1.69-.93-2.84-1.46-2.37-1.06-3.93-2.04-4.68-2.94-1.19-1.33-1.78-2.93-1.78-4.79,0-.88,.14-1.7,.42-2.46,.28-.76,.69-1.45,1.22-2.07,.53-.62,1.19-1.15,1.97-1.61,.78-.45,1.67-.81,2.66-1.06v-3.6h3.21Z" style="fill:#a0c5de;"/></g></g></g></g></svg>