<?xml version="1.0" encoding="UTF-8"?>
<svg id="Character" xmlns="http://www.w3.org/2000/svg" viewBox="0 0 400.27 396.67">
  <defs>
    <style>
      .cls-1 {
        fill: #fff;
      }

      .cls-2 {
        fill: none;
        stroke: #fff;
        stroke-miterlimit: 10;
        stroke-width: 4px;
      }
    </style>
  </defs>
  <path class="cls-2" d="M20.96,280.63c0-100.12,81.16-181.28,181.28-181.28s181.28,81.16,181.28,181.28"/>
  <path class="cls-1" d="M57.32,284.5c-2.93-138.26,157.96-209.93,257.91-113.12,30.13,29.38,47.82,70.92,48.92,113.12,0,0-30,0-30,0,2.45-53.61-29.09-107.02-78.12-129.74-93.85-43.74-196.14,28.91-198.71,129.74h0Z"/>
  <path class="cls-1" d="M200.43,254.47l96.18,3.41-92.56,26.37c-8.07,2.3-16.47-2.38-18.77-10.44-2.95-9.7,5.07-19.85,15.14-19.34h0Z"/>
</svg>