<?xml version="1.0" encoding="UTF-8"?>
<svg id="Character" xmlns="http://www.w3.org/2000/svg" viewBox="0 0 400.27 396.67">
  <defs>
    <style>
      .cls-1 {
        fill: #fff;
      }

      .cls-2 {
        fill: none;
        stroke: #fff;
        stroke-miterlimit: 10;
        stroke-width: 4px;
      }
    </style>
  </defs>
  <path class="cls-2" d="M20.3,280.63c0-100.12,81.16-181.28,181.28-181.28s181.28,81.16,181.28,181.28"/>
  <path class="cls-1" d="M56.67,284.5c-2.93-138.26,157.96-209.93,257.91-113.12,30.13,29.38,47.82,70.92,48.92,113.12,0,0-30,0-30,0,2.45-53.61-29.09-107.02-78.12-129.74-93.85-43.74-196.14,28.91-198.71,129.74h0Z"/>
  <path class="cls-1" d="M199.22,284.18l-99.31-31.03,104.04,1.41c8.37,.11,15.06,6.99,14.95,15.36,.03,9.98-10.24,17.36-19.68,14.26h0Z"/>
</svg>