<?xml version="1.0" encoding="UTF-8"?>
<svg id="Character" xmlns="http://www.w3.org/2000/svg" viewBox="0 0 400.27 396.67">
  <defs>
    <style>
      .cls-1 {
        fill: #fff;
      }

      .cls-2 {
        fill: none;
        stroke: #fff;
        stroke-miterlimit: 10;
        stroke-width: 4px;
      }
    </style>
  </defs>
  <path class="cls-2" d="M21.71,280.63c0-100.12,81.16-181.28,181.28-181.28s181.28,81.16,181.28,181.28"/>
  <path class="cls-1" d="M58.08,284.5c-2.93-138.26,157.96-209.93,257.91-113.12,30.13,29.38,47.82,70.92,48.92,113.12,0,0-30,0-30,0,2.45-53.61-29.09-107.02-78.12-129.74-93.85-43.74-196.14,28.91-198.71,129.74h0Z"/>
  <path class="cls-1" d="M194.13,257.26l73.17-34.95-55.46,59.16c-5.77,6.15-15.42,6.46-21.57,.7-7.84-7.05-5.68-20.56,3.86-24.91h0Z"/>
</svg>