<?xml version="1.0" encoding="UTF-8"?>
<svg id="Character" xmlns="http://www.w3.org/2000/svg" viewBox="0 0 400.27 396.67">
  <defs>
    <style>
      .cls-1 {
        fill: #fff;
      }

      .cls-2 {
        fill: none;
        stroke: #fff;
        stroke-miterlimit: 10;
        stroke-width: 4px;
      }
    </style>
  </defs>
  <path class="cls-2" d="M20.13,280.63c0-100.12,81.16-181.28,181.28-181.28s181.28,81.16,181.28,181.28"/>
  <path class="cls-1" d="M56.5,284.5c-2.93-138.26,157.96-209.93,257.91-113.12,30.13,29.38,47.82,70.92,48.92,113.12,0,0-30,0-30,0,2.45-53.61-29.09-107.02-78.12-129.74-93.85-43.74-196.14,28.91-198.71,129.74h0Z"/>
  <path class="cls-1" d="M186.41,269.18l16-81.69,14,82.06c1.42,8.3-4.17,16.18-12.47,17.6-10.29,1.97-19.71-7.78-17.53-17.96h0Z"/>
</svg>