<?xml version="1.0" encoding="UTF-8"?><svg xmlns="http://www.w3.org/2000/svg" viewBox="0 0 600 350"><g id="a"/><g id="b"/><g id="c"/><g id="d"/><g id="e"/><g id="f"/><g id="g"/><g id="h"/><g id="i"/><g id="j"><g><g><rect x="324.06" y="333.11" width="6.1" height="4.48" style="fill:#162840;"/><rect x="391.88" y="333.11" width="6.1" height="4.48" style="fill:#162840;"/></g><rect x="314.06" y="152.18" width="100.48" height="182" rx="3.31" ry="3.31" style="fill:#2f384d;"/><g style="opacity:.4;"><path d="M411.24,152.18h-93.87c-1.57,0-2.88,1.1-3.22,2.57,.32-.1,.66-.18,1.01-.18h93.87c1.83,0,3.31,1.48,3.31,3.31v175.39c0,.25-.03,.5-.09,.74,1.33-.43,2.29-1.66,2.29-3.13V155.48c0-1.83-1.48-3.31-3.31-3.31Z" style="fill:#606b82;"/></g><rect x="314.06" y="190.58" width="100.48" height="2.86" style="fill:#606b82; opacity:.2;"/><rect x="314.06" y="187.72" width="100.48" height="2.86" style="fill:#252c3c;"/><rect x="314.06" y="262.79" width="100.48" height="2.86" style="fill:#252c3c;"/><rect x="314.06" y="298.64" width="100.48" height="2.86" style="fill:#252c3c;"/><rect x="314.06" y="265.73" width="100.48" height="2.86" style="fill:#606b82; opacity:.2;"/><rect x="314.06" y="226.91" width="100.48" height="2.86" style="fill:#252c3c;"/><rect x="314.06" y="229.85" width="100.48" height="2.86" style="fill:#606b82; opacity:.2;"/><rect x="314.06" y="301.66" width="100.48" height="2.86" style="fill:#606b82; opacity:.2;"/><g><rect x="381.64" y="168.46" width="4.07" height="4.8" style="fill:#f0cc76;"/><rect x="390.33" y="168.46" width="4.07" height="4.8" style="fill:#9dd0d8;"/><rect x="399.34" y="168.46" width="4.07" height="4.8" style="fill:#d87857;"/></g><g><rect x="381.64" y="207.77" width="4.07" height="4.8" style="fill:#f0cc76;"/><rect x="390.33" y="207.77" width="4.07" height="4.8" style="fill:#9dd0d8;"/><rect x="399.34" y="207.77" width="4.07" height="4.8" style="fill:#d87857;"/></g><g><rect x="381.64" y="245.87" width="4.07" height="4.8" style="fill:#f0cc76;"/><rect x="390.33" y="245.87" width="4.07" height="4.8" style="fill:#9dd0d8;"/><rect x="399.34" y="245.87" width="4.07" height="4.8" style="fill:#d87857;"/></g><g><rect x="381.64" y="281.34" width="4.07" height="4.8" style="fill:#f0cc76;"/><rect x="390.33" y="281.34" width="4.07" height="4.8" style="fill:#9dd0d8;"/><rect x="399.34" y="281.34" width="4.07" height="4.8" style="fill:#d87857;"/></g><g><rect x="381.64" y="316.34" width="4.07" height="4.8" style="fill:#f0cc76;"/><rect x="390.33" y="316.34" width="4.07" height="4.8" style="fill:#9dd0d8;"/><rect x="399.34" y="316.34" width="4.07" height="4.8" style="fill:#d87857;"/></g><rect x="324.06" y="165.2" width="48.22" height="11.52" style="fill:#606b82; opacity:.3;"/><rect x="324.06" y="242.98" width="48.22" height="11.52" style="fill:#606b82; opacity:.3;"/><rect x="324.06" y="204.41" width="48.22" height="11.52" style="fill:#606b82; opacity:.3;"/><rect x="324.06" y="277.98" width="48.22" height="11.52" style="fill:#606b82; opacity:.3;"/><rect x="324.06" y="312.98" width="48.22" height="11.52" style="fill:#606b82; opacity:.3;"/></g><g><g><rect x="430.34" y="332.31" width="6.1" height="4.48" style="fill:#162840;"/><rect x="498.16" y="332.31" width="6.1" height="4.48" style="fill:#162840;"/></g><rect x="420.34" y="151.39" width="100.48" height="182" rx="3.31" ry="3.31" style="fill:#2f384d;"/><g style="opacity:.4;"><path d="M517.52,151.39h-93.87c-1.57,0-2.88,1.1-3.22,2.57,.32-.1,.66-.18,1.01-.18h93.87c1.83,0,3.31,1.48,3.31,3.31v175.39c0,.25-.03,.5-.09,.74,1.33-.43,2.29-1.66,2.29-3.13V154.69c0-1.83-1.48-3.31-3.31-3.31Z" style="fill:#606b82;"/></g><rect x="420.34" y="189.78" width="100.48" height="2.86" style="fill:#606b82; opacity:.2;"/><rect x="420.34" y="186.93" width="100.48" height="2.86" style="fill:#252c3c;"/><rect x="420.34" y="262" width="100.48" height="2.86" style="fill:#252c3c;"/><rect x="420.34" y="297.85" width="100.48" height="2.86" style="fill:#252c3c;"/><rect x="420.34" y="264.94" width="100.48" height="2.86" style="fill:#606b82; opacity:.2;"/><rect x="420.34" y="226.11" width="100.48" height="2.86" style="fill:#252c3c;"/><rect x="420.34" y="229.05" width="100.48" height="2.86" style="fill:#606b82; opacity:.2;"/><rect x="420.34" y="300.87" width="100.48" height="2.86" style="fill:#606b82; opacity:.2;"/><g><rect x="487.92" y="167.66" width="4.07" height="4.8" style="fill:#f0cc76;"/><rect x="496.61" y="167.66" width="4.07" height="4.8" style="fill:#9dd0d8;"/><rect x="505.62" y="167.66" width="4.07" height="4.8" style="fill:#d87857;"/></g><g><rect x="487.92" y="206.98" width="4.07" height="4.8" style="fill:#f0cc76;"/><rect x="496.61" y="206.98" width="4.07" height="4.8" style="fill:#9dd0d8;"/><rect x="505.62" y="206.98" width="4.07" height="4.8" style="fill:#d87857;"/></g><g><rect x="487.92" y="245.08" width="4.07" height="4.8" style="fill:#f0cc76;"/><rect x="496.61" y="245.08" width="4.07" height="4.8" style="fill:#9dd0d8;"/><rect x="505.62" y="245.08" width="4.07" height="4.8" style="fill:#d87857;"/></g><g><rect x="487.92" y="280.55" width="4.07" height="4.8" style="fill:#f0cc76;"/><rect x="496.61" y="280.55" width="4.07" height="4.8" style="fill:#9dd0d8;"/><rect x="505.62" y="280.55" width="4.07" height="4.8" style="fill:#d87857;"/></g><g><rect x="487.92" y="315.55" width="4.07" height="4.8" style="fill:#f0cc76;"/><rect x="496.61" y="315.55" width="4.07" height="4.8" style="fill:#9dd0d8;"/><rect x="505.62" y="315.55" width="4.07" height="4.8" style="fill:#d87857;"/></g><rect x="430.34" y="164.41" width="48.22" height="11.52" style="fill:#606b82; opacity:.3;"/><rect x="430.34" y="242.19" width="48.22" height="11.52" style="fill:#606b82; opacity:.3;"/><rect x="430.34" y="203.62" width="48.22" height="11.52" style="fill:#606b82; opacity:.3;"/><rect x="430.34" y="277.19" width="48.22" height="11.52" style="fill:#606b82; opacity:.3;"/><rect x="430.34" y="312.19" width="48.22" height="11.52" style="fill:#606b82; opacity:.3;"/></g><g><g><rect x="71.24" y="333.7" width="6.1" height="4.48" style="fill:#162840;"/><rect x="139.07" y="333.7" width="6.1" height="4.48" style="fill:#162840;"/></g><rect x="61.24" y="152.77" width="100.48" height="182" rx="3.31" ry="3.31" style="fill:#2f384d;"/><g style="opacity:.4;"><path d="M158.42,152.77H64.55c-1.57,0-2.88,1.1-3.22,2.57,.32-.1,.66-.18,1.01-.18h93.87c1.83,0,3.31,1.48,3.31,3.31v175.39c0,.25-.03,.5-.09,.74,1.33-.43,2.29-1.66,2.29-3.13V156.08c0-1.83-1.48-3.31-3.31-3.31Z" style="fill:#606b82;"/></g><rect x="61.24" y="191.17" width="100.48" height="2.86" style="fill:#606b82; opacity:.2;"/><rect x="61.24" y="188.31" width="100.48" height="2.86" style="fill:#252c3c;"/><rect x="61.24" y="263.39" width="100.48" height="2.86" style="fill:#252c3c;"/><rect x="61.24" y="299.23" width="100.48" height="2.86" style="fill:#252c3c;"/><rect x="61.24" y="266.33" width="100.48" height="2.86" style="fill:#606b82; opacity:.2;"/><rect x="61.24" y="227.5" width="100.48" height="2.86" style="fill:#252c3c;"/><rect x="61.24" y="230.44" width="100.48" height="2.86" style="fill:#606b82; opacity:.2;"/><rect x="61.24" y="302.26" width="100.48" height="2.86" style="fill:#606b82; opacity:.2;"/><g><rect x="128.83" y="169.05" width="4.07" height="4.8" style="fill:#f0cc76;"/><rect x="137.52" y="169.05" width="4.07" height="4.8" style="fill:#9dd0d8;"/><rect x="146.53" y="169.05" width="4.07" height="4.8" style="fill:#d87857;"/></g><g><rect x="128.83" y="208.36" width="4.07" height="4.8" style="fill:#f0cc76;"/><rect x="137.52" y="208.36" width="4.07" height="4.8" style="fill:#9dd0d8;"/><rect x="146.53" y="208.36" width="4.07" height="4.8" style="fill:#d87857;"/></g><g><rect x="128.83" y="246.47" width="4.07" height="4.8" style="fill:#f0cc76;"/><rect x="137.52" y="246.47" width="4.07" height="4.8" style="fill:#9dd0d8;"/><rect x="146.53" y="246.47" width="4.07" height="4.8" style="fill:#d87857;"/></g><g><rect x="128.83" y="281.93" width="4.07" height="4.8" style="fill:#f0cc76;"/><rect x="137.52" y="281.93" width="4.07" height="4.8" style="fill:#9dd0d8;"/><rect x="146.53" y="281.93" width="4.07" height="4.8" style="fill:#d87857;"/></g><g><rect x="128.83" y="316.94" width="4.07" height="4.8" style="fill:#f0cc76;"/><rect x="137.52" y="316.94" width="4.07" height="4.8" style="fill:#9dd0d8;"/><rect x="146.53" y="316.94" width="4.07" height="4.8" style="fill:#d87857;"/></g><rect x="71.24" y="165.8" width="48.22" height="11.52" style="fill:#606b82; opacity:.3;"/><rect x="71.24" y="243.57" width="48.22" height="11.52" style="fill:#606b82; opacity:.3;"/><rect x="71.24" y="205" width="48.22" height="11.52" style="fill:#606b82; opacity:.3;"/><rect x="71.24" y="278.58" width="48.22" height="11.52" style="fill:#606b82; opacity:.3;"/><rect x="71.24" y="313.58" width="48.22" height="11.52" style="fill:#606b82; opacity:.3;"/></g><g><g><rect x="177.52" y="332.91" width="6.1" height="4.48" style="fill:#162840;"/><rect x="245.35" y="332.91" width="6.1" height="4.48" style="fill:#162840;"/></g><rect x="167.52" y="151.98" width="100.48" height="182" rx="3.31" ry="3.31" style="fill:#2f384d;"/><g style="opacity:.4;"><path d="M264.7,151.98h-93.87c-1.57,0-2.88,1.1-3.22,2.57,.32-.1,.66-.18,1.01-.18h93.87c1.83,0,3.31,1.48,3.31,3.31v175.39c0,.25-.03,.5-.09,.74,1.33-.43,2.29-1.66,2.29-3.13V155.29c0-1.83-1.48-3.31-3.31-3.31Z" style="fill:#606b82;"/></g><rect x="167.52" y="190.38" width="100.48" height="2.86" style="fill:#606b82; opacity:.2;"/><rect x="167.52" y="187.52" width="100.48" height="2.86" style="fill:#252c3c;"/><rect x="167.52" y="262.6" width="100.48" height="2.86" style="fill:#252c3c;"/><rect x="167.52" y="298.44" width="100.48" height="2.86" style="fill:#252c3c;"/><rect x="167.52" y="265.53" width="100.48" height="2.86" style="fill:#606b82; opacity:.2;"/><rect x="167.52" y="226.71" width="100.48" height="2.86" style="fill:#252c3c;"/><rect x="167.52" y="229.65" width="100.48" height="2.86" style="fill:#606b82; opacity:.2;"/><rect x="167.52" y="301.47" width="100.48" height="2.86" style="fill:#606b82; opacity:.2;"/><g><rect x="235.11" y="168.26" width="4.07" height="4.8" style="fill:#f0cc76;"/><rect x="243.8" y="168.26" width="4.07" height="4.8" style="fill:#9dd0d8;"/><rect x="252.81" y="168.26" width="4.07" height="4.8" style="fill:#d87857;"/></g><g><rect x="235.11" y="207.57" width="4.07" height="4.8" style="fill:#f0cc76;"/><rect x="243.8" y="207.57" width="4.07" height="4.8" style="fill:#9dd0d8;"/><rect x="252.81" y="207.57" width="4.07" height="4.8" style="fill:#d87857;"/></g><g><rect x="235.11" y="245.67" width="4.07" height="4.8" style="fill:#f0cc76;"/><rect x="243.8" y="245.67" width="4.07" height="4.8" style="fill:#9dd0d8;"/><rect x="252.81" y="245.67" width="4.07" height="4.8" style="fill:#d87857;"/></g><g><rect x="235.11" y="281.14" width="4.07" height="4.8" style="fill:#f0cc76;"/><rect x="243.8" y="281.14" width="4.07" height="4.8" style="fill:#9dd0d8;"/><rect x="252.81" y="281.14" width="4.07" height="4.8" style="fill:#d87857;"/></g><g><rect x="235.11" y="316.14" width="4.07" height="4.8" style="fill:#f0cc76;"/><rect x="243.8" y="316.14" width="4.07" height="4.8" style="fill:#9dd0d8;"/><rect x="252.81" y="316.14" width="4.07" height="4.8" style="fill:#d87857;"/></g><rect x="177.52" y="165" width="48.22" height="11.52" style="fill:#606b82; opacity:.3;"/><rect x="177.52" y="242.78" width="48.22" height="11.52" style="fill:#606b82; opacity:.3;"/><rect x="177.52" y="204.21" width="48.22" height="11.52" style="fill:#606b82; opacity:.3;"/><rect x="177.52" y="277.78" width="48.22" height="11.52" style="fill:#606b82; opacity:.3;"/><rect x="177.52" y="312.78" width="48.22" height="11.52" style="fill:#606b82; opacity:.3;"/></g><polyline points="110.23 148.53 110.23 109.02 192.23 109.02" style="fill:none; stroke:#ccc; stroke-dasharray:0 0 6.4 9.6; stroke-linecap:round; stroke-miterlimit:10; stroke-width:2px;"/><polyline points="380.07 100.17 469.05 100.17 469.05 148.53" style="fill:none; stroke:#ccc; stroke-dasharray:0 0 6.4 9.6; stroke-linecap:round; stroke-miterlimit:10; stroke-width:2px;"/><polyline points="366.24 151.39 366.24 136.6 215.78 136.6 215.78 148.53" style="fill:none; stroke:#ccc; stroke-dasharray:0 0 6.4 9.6; stroke-linecap:round; stroke-miterlimit:10; stroke-width:2px;"/><line x1="289.31" y1="127.03" x2="289.31" y2="136.6" style="fill:none; stroke:#ccc; stroke-dasharray:0 0 6.4 9.6; stroke-linecap:round; stroke-miterlimit:10; stroke-width:2px;"/><path d="M226.96,127.03h119.4c17.93,0,33.05-14.02,33.68-31.94,.02-.49,.03-.98,.03-1.47,0-22.65-18.36-41.01-41.01-41.01-2.54,0-5.02,.24-7.43,.68,.22-1.72,.34-3.46,.34-5.24,0-22.65-18.36-41.01-41.01-41.01s-41.01,18.36-41.01,41.01c0,1.4,.07,2.79,.21,4.16-5.87-2.66-12.47-4-19.43-3.58-20.8,1.25-37.53,18.25-38.46,39.06-.42,9.48,2.38,18.28,7.39,25.42,6.21,8.84,16.5,13.92,27.3,13.92Z" style="fill:#cbe2f8;"/></g></svg>