<?xml version="1.0" encoding="UTF-8"?><svg xmlns="http://www.w3.org/2000/svg" xmlns:xlink="http://www.w3.org/1999/xlink" viewBox="0 0 600 350"><defs><style>.v{fill:#f0f0f0;}.w{fill:url(#t);}.x{fill:#f3d57f;}.y,.a`{fill:#fff;}.aa{fill:url(#r);}.ab{fill:url(#l);}.ac{fill:#2e2c5a;}.ac,.ad{mix-blend-mode:multiply;opacity:.1;}.ae{fill:#3f484d;}.af{isolation:isolate;}.ag{fill:url(#m);}.ah{fill:#e8505b;}.ai{clip-path:url(#u);}.aj{fill:url(#p);}.ak{stroke:#ccc;stroke-miterlimit:10;stroke-width:2.33px;}.ak,.al{fill:#4f3cf2;}.am{fill:#230e94;}.a`{mix-blend-mode:soft-light;opacity:.3;}.an{fill:#f3ad44;}.ao{fill:#407bff;}.ap{fill:#b5375b;}.aq{fill:#3213d3;}.ar{fill:url(#n);}.as{fill:#c8d1e0;}.at{fill:#2e374c;}.au{fill:url(#o);}.ad{fill:url(#s);}.av{fill:url(#q);}.aw{fill:url(#k);}</style><linearGradient id="k" x1="354.68" y1="137.14" x2="387.91" y2="137.14" gradientTransform="matrix(1, 0, 0, 1, 0, 0)" gradientUnits="userSpaceOnUse"><stop offset="0" stop-color="#f1cb61"/><stop offset="1" stop-color="#e19056"/></linearGradient><linearGradient id="l" x1="231.2" y1="125.09" x2="378.58" y2="125.09" xlink:href="#k"/><linearGradient id="m" x1="274.8" y1="137.68" x2="361.86" y2="137.68" gradientTransform="matrix(1, 0, 0, 1, 0, 0)" gradientUnits="userSpaceOnUse"><stop offset="0" stop-color="#484c88"/><stop offset="1" stop-color="#2a2a4f"/></linearGradient><linearGradient id="n" x1="222.94" y1="136.98" x2="256.17" y2="136.98" xlink:href="#k"/><linearGradient id="o" x1="219.15" y1="136.98" x2="233.68" y2="136.98" xlink:href="#k"/><linearGradient id="p" x1="196.16" y1="98.22" x2="224.86" y2="98.22" gradientTransform="translate(255.29 324.25) rotate(-126.28)" xlink:href="#k"/><linearGradient id="q" x1="142.48" y1="59.14" x2="180" y2="59.14" gradientTransform="translate(56.96 -77.33) rotate(32.47)" xlink:href="#k"/><linearGradient id="r" x1="118.22" y1="169.61" x2="155.73" y2="169.61" gradientTransform="translate(10.09 -7.68) rotate(3.33)" xlink:href="#k"/><linearGradient id="s" x1="306.96" y1="262.78" x2="306.96" y2="293.38" gradientTransform="matrix(1, 0, 0, 1, 0, 0)" gradientUnits="userSpaceOnUse"><stop offset="0" stop-color="#2e374c"/><stop offset="1" stop-color="#30374f" stop-opacity="0"/></linearGradient><linearGradient id="t" x1="374.61" y1="145" x2="394.26" y2="145" gradientTransform="translate(415.77 556.14) rotate(-114.99)" xlink:href="#k"/><clipPath id="u"><rect x="241.16" y="154.56" width="35.11" height="30.91" transform="translate(-36.29 76.13) rotate(-15.66)" style="fill:#f3ad44;"/></clipPath></defs><g style="isolation:isolate;"><g id="a"/><g id="b"/><g id="c"/><g id="d"/><g id="e"/><g id="f"/><g id="g"/><g id="h"/><g id="i"/><g id="j"><g><ellipse cx="371.3" cy="137.14" rx="16.61" ry="23.35" style="fill:url(#k);"/><path d="M320.52,80.57h-31.27c-32.06,0-58.05,25.99-58.05,58.05h0c0,17.11,13.87,30.98,30.98,30.98h85.42c17.11,0,30.98-13.87,30.98-30.98h0c0-32.06-25.99-58.05-58.05-58.05Z" style="fill:url(#l);"/><g><path d="M348.9,157.08h-59.44c-8.06,0-14.66-6.17-14.66-13.79v-11.68c0-7.62,6.61-13.58,14.66-13.32l59.44,1.9c7.19,.23,12.96,6.15,12.96,13.23v10.85c0,7.08-5.77,12.81-12.96,12.81Z" style="fill:url(#m);"/><g><path d="M308.51,136.83c0,5.09-4.33,9.16-9.71,9.09-5.43-.07-9.87-4.32-9.87-9.49s4.44-9.24,9.87-9.08c5.38,.15,9.71,4.4,9.71,9.48Z" style="fill:#fff;"/><path d="M348.68,137.65c0,4.92-4.04,8.85-9.07,8.79-5.07-.06-9.21-4.16-9.21-9.16s4.14-8.93,9.21-8.78c5.03,.14,9.07,4.24,9.07,9.15Z" style="fill:#fff;"/></g></g><path d="M326.46,161.46c-8.84-10.39-4.91-18.69-16.47-32.77-15.9-19.37-34.45-17.18-38.7-30.31-1.18-3.64-1.31-8.64,1.85-15.54-24.22,6.99-41.93,29.32-41.93,55.78h0c0,17.11,13.87,30.98,30.98,30.98h74.44c-4.46-2.43-7.72-5.27-10.16-8.14Z" style="fill:#fff; mix-blend-mode:soft-light; opacity:.3;"/><ellipse cx="239.55" cy="136.98" rx="16.61" ry="23.35" style="fill:url(#n);"/><ellipse cx="226.41" cy="136.98" rx="7.26" ry="10.21" style="fill:url(#o);"/></g><g><g><rect x="222.27" y="91.63" width="9.67" height="44.88" transform="translate(476.67 66.06) rotate(142.44)" style="fill:#b5375b;"/><path d="M208.86,96.81c-4.44,6.05-3.13,14.54,2.91,18.98,6.05,4.44,14.54,3.13,18.98-2.91,4.44-6.05,3.13-14.54-2.91-18.98-6.05-4.44-14.54-3.13-18.98,2.91Z" style="fill:#4f3cf2;"/><path d="M217.45,103.11c-1.15,1.56-.81,3.76,.75,4.9,1.56,1.15,3.76,.81,4.9-.75,1.15-1.56,.81-3.76-.75-4.9-1.56-1.15-3.76-.81-4.9,.75Z" style="fill:#fff;"/><polygon points="205.23 107.41 217.89 90.17 166.5 52.57 153.84 69.81 205.23 107.41" style="fill:#4f3cf2;"/><path d="M193,91.05h33.53v9.09c0,2.08-1.69,3.76-3.76,3.76h-26.01c-2.08,0-3.76-1.69-3.76-3.76v-9.09h0Z" transform="translate(412.45 -13.96) rotate(126.28)" style="fill:url(#p);"/></g><g><polygon points="127.36 163.87 148.23 168.29 171.76 61.08 150.88 56.44 127.36 163.87" style="fill:#4f3cf2;"/><circle cx="161.24" cy="59.14" r="24.06" transform="translate(-6.54 95.82) rotate(-32.47)" style="fill:#fff;"/><circle cx="161.24" cy="59.14" r="18.76" transform="translate(-6.54 95.82) rotate(-32.47)" style="fill:url(#q);"/><circle cx="161.24" cy="59.14" r="15.06" style="fill:#4f3cf2;"/><path d="M156.82,58.16c-.54,2.44,1,4.86,3.44,5.4,2.44,.54,4.86-1,5.4-3.44,.54-2.44-1-4.86-3.44-5.4-2.44-.54-4.86,1-5.4,3.44Z" style="fill:#fff;"/><path d="M133.96,117.64l27.22,6.05c1.34,.3,2.66-.55,2.96-1.89h0c.3-1.34-.55-2.66-1.89-2.96l-27.22-6.05c-1.34-.3-2.66,.55-2.96,1.89h0c-.3,1.34,.55,2.66,1.89,2.96Z" style="fill:#4f3cf2;"/><path d="M132.06,126.21l27.22,6.05c1.34,.3,2.66-.55,2.96-1.89h0c.3-1.34-.55-2.66-1.89-2.96l-27.22-6.05c-1.34-.3-2.66,.55-2.96,1.89h0c-.3,1.34,.55,2.66,1.89,2.96Z" style="fill:#4f3cf2;"/></g><g><g><polygon points="210.56 248.98 210.09 221.78 143.8 161.37 129.58 177.35 210.56 248.98" style="fill:#4f3cf2;"/><circle cx="136.98" cy="169.61" r="24.06" transform="translate(-9.63 8.25) rotate(-3.33)" style="fill:#fff;"/><circle cx="136.98" cy="169.61" r="18.76" transform="translate(-9.63 8.25) rotate(-3.33)" style="fill:url(#r);"/><circle cx="136.98" cy="169.61" r="15.06" style="fill:#4f3cf2;"/><path d="M133.97,172.99c1.87,1.66,4.73,1.49,6.39-.37,1.66-1.87,1.5-4.73-.37-6.39-1.87-1.66-4.73-1.5-6.39,.37-1.66,1.87-1.5,4.73,.37,6.39Z" style="fill:#fff;"/></g><path d="M174.79,221.92l18.54-20.83c.91-1.02,.82-2.59-.2-3.51h0c-1.02-.91-2.59-.82-3.51,.2l-18.54,20.83c-.91,1.02-.82,2.59,.2,3.51h0c1.02,.91,2.59,.82,3.51-.2Z" style="fill:#4f3cf2;"/><path d="M181.35,227.76l18.54-20.83c.91-1.02,.82-2.59-.2-3.51h0c-1.02-.91-2.59-.82-3.51,.2l-18.54,20.83c-.91,1.02-.82,2.59,.2,3.51h0c1.02,.91,2.59,.82,3.51-.2Z" style="fill:#4f3cf2;"/></g></g><g><rect x="421.37" y="161.86" width="19.61" height="100.87" transform="translate(260.16 -236.86) rotate(42.94)" style="fill:#4f3cf2;"/><rect x="412.42" y="213.99" width="30.12" height="4.55" rx="2.01" ry="2.01" transform="translate(261.88 -233.27) rotate(42.94)" style="fill:#4f3cf2;"/><rect x="406.93" y="219.89" width="30.12" height="4.55" rx="2.01" ry="2.01" transform="translate(264.43 -227.95) rotate(42.94)" style="fill:#4f3cf2;"/><ellipse cx="306.96" cy="317.88" rx="166.62" ry="10.38" style="fill:#2e2c5a; mix-blend-mode:multiply; opacity:.1;"/><g><path d="M201.23,183.49c-1.37,1.63-.75,124.5,0,125.25,.75,.75,209.77,3.01,212.04,0,2.26-3.01,.75-125.25-.75-126.76-1.51-1.5-207.51-3.01-211.28,1.5Z" style="fill:#3213d3;"/><path d="M207.24,189.34c-1.29,1.48-.58,103.25,.13,103.93,.71,.68,197.78,2.72,199.91,0,2.13-2.72,.58-103.93-.84-105.29-1.42-1.36-195.64-2.72-199.2,1.36Z" style="fill:#f0f0f0;"/><path d="M187.26,307.91c-1.57,.7-.02,10.79,6.5,10.79h225.99c6.52,0,8.06-10.74,7.29-11.51s-236.33-.81-239.78,.72Z" style="fill:#230e94;"/><path d="M309.96,300.64c0,1.4-1.13,2.53-2.53,2.53s-2.53-1.13-2.53-2.53,1.13-2.53,2.53-2.53,2.53,1.13,2.53,2.53Z" style="fill:#fff;"/></g><g><polygon points="392.25 289.58 221.67 289.58 230.24 177.25 383.68 177.25 392.25 289.58" style="fill:url(#s); mix-blend-mode:multiply; opacity:.1;"/><rect x="230.24" y="171.37" width="153.43" height="106.31" style="fill:#2e374c;"/><rect x="232.84" y="174.15" width="148.23" height="100.76" style="fill:#fff;"/><rect x="236.26" y="176.85" width="140.65" height="20.09" style="fill:#407bff;"/><rect x="236.26" y="201.88" width="83.77" height="3.71" style="fill:#c8d1e0;"/><rect x="236.26" y="253.69" width="140.42" height="3.71" style="fill:#c8d1e0;"/><rect x="236.26" y="260.96" width="140.42" height="3.71" style="fill:#c8d1e0;"/><rect x="236.26" y="209.61" width="83.77" height="3.71" style="fill:#c8d1e0;"/><rect x="274.9" y="217.34" width="45.13" height="3.71" style="fill:#c8d1e0;"/><rect x="274.9" y="225.07" width="45.13" height="3.71" style="fill:#c8d1e0;"/><rect x="274.9" y="233.08" width="15.42" height="3.71" style="fill:#c8d1e0;"/><g><path d="M371.62,182.09c0,.89-.72,1.62-1.62,1.62s-1.62-.72-1.62-1.62,.72-1.62,1.62-1.62,1.62,.72,1.62,1.62Z" style="fill:#fff;"/><path d="M371.62,186.71c0,.89-.72,1.62-1.62,1.62s-1.62-.72-1.62-1.62,.72-1.62,1.62-1.62,1.62,.72,1.62,1.62Z" style="fill:#fff;"/><path d="M371.62,191.33c0,.89-.72,1.62-1.62,1.62s-1.62-.72-1.62-1.62,.72-1.62,1.62-1.62,1.62,.72,1.62,1.62Z" style="fill:#fff;"/></g><g><rect x="236.26" y="217.34" width="32.46" height="32.46" style="fill:#e8505b;"/><path d="M246.41,227.5c-.77-1.8-.38-3.78,.8-5.18-.76-.05-1.54,.05-2.28,.37-2.54,1.08-3.73,4.02-2.65,6.57,1.08,2.54,4.02,3.73,6.57,2.65,.75-.32,1.36-.81,1.85-1.39-1.83-.12-3.52-1.22-4.29-3.02Z" style="fill:#fff;"/><path d="M259.73,240.64h0c0-1.24-1-2.24-2.24-2.24h0c1.24,0,2.24-1,2.24-2.24h0c0,1.24,1.01,2.24,2.24,2.24h0c-1.24,0-2.24,1.01-2.24,2.24Z" style="fill:#fff;"/><path d="M257.05,228.7h0c0-1.24-1-2.24-2.24-2.24h0c1.24,0,2.24-1,2.24-2.24h0c0,1.24,1.01,2.24,2.24,2.24h0c-1.24,0-2.24,1.01-2.24,2.24Z" style="fill:#fff;"/><path d="M249.37,244.34h0c0-1.24-1.01-2.24-2.24-2.24h0c1.24,0,2.24-1.01,2.24-2.24h0c0,1.24,1,2.24,2.24,2.24h0c-1.24,0-2.24,1-2.24,2.24Z" style="fill:#fff;"/></g></g><g><rect x="475.56" y="67" width="49.91" height="49.91" rx="4.74" ry="4.74" transform="translate(56.72 -157.09) rotate(18.89)" style="fill:#4f3cf2;"/><g><path d="M510.99,79.6c-3.48-7.27-12.19-10.35-19.47-6.87-7.27,3.48-10.35,12.19-6.87,19.47,3.48,7.27,12.19,10.34,19.47,6.87,7.27-3.48,10.35-12.19,6.87-19.47Zm-22.87,10.95c-2.57-5.36-.3-11.79,5.06-14.35,5.36-2.57,11.79-.3,14.35,5.06s.3,11.79-5.06,14.35c-5.36,2.57-11.79,.3-14.35-5.06Z" style="fill:#fff;"/><path d="M508.59,112.76l-7.54-15.3,3.61-1.73,7.54,15.3c.48,1,.06,2.19-.94,2.67h0c-1,.48-2.19,.06-2.67-.94Z" style="fill:#fff;"/></g></g><g><path d="M466.37,237.77h41.37c3.49,0,6.31,2.83,6.31,6.31v20.84c0,3.49-2.83,6.31-6.31,6.31h-3l-5.51,6.08c-.91,1-2.47,1.03-3.41,.06l-5.97-6.14h-23.48c-3.49,0-6.31-2.83-6.31-6.31v-20.84c0-3.49,2.83-6.31,6.31-6.31Z" style="fill:#f3ad44;"/><rect x="466.27" y="244.84" width="41.4" height="3.1" transform="translate(973.94 492.78) rotate(180)" style="fill:#fff;"/><rect x="466.27" y="251.74" width="41.4" height="3.1" transform="translate(973.94 506.58) rotate(180)" style="fill:#fff;"/><rect x="477.31" y="258.64" width="30.36" height="3.1" transform="translate(984.98 520.38) rotate(180)" style="fill:#fff;"/></g><g><path d="M216.45,11.87h41.37c3.49,0,6.31,2.83,6.31,6.31v20.84c0,3.49-2.83,6.31-6.31,6.31h-3l-5.51,6.08c-.91,1-2.47,1.03-3.41,.06l-5.97-6.14h-23.48c-3.49,0-6.31-2.83-6.31-6.31V18.18c0-3.49,2.83-6.31,6.31-6.31Z" style="fill:#f3ad44;"/><rect x="216.52" y="18.95" width="41.4" height="3.1" style="fill:#fff;"/><rect x="216.52" y="25.84" width="41.4" height="3.1" style="fill:#fff;"/><rect x="216.52" y="32.74" width="30.36" height="3.1" style="fill:#fff;"/></g><g><g><polygon points="330.8 170.92 326.85 200.53 330.92 200.85 341.02 172.29 330.8 170.92" style="fill:#b5375b;"/><rect x="310.98" y="198.03" width="46.95" height="46.95" rx="5.51" ry="5.51" transform="translate(-61.6 157.76) rotate(-24.37)" style="fill:#4f3cf2;"/><path d="M340.22,232.95l-15.8-5.83c-4.04-1.49-6.11-5.97-4.62-10.01,1.49-4.04,5.97-6.11,10.01-4.62l1.17,.43,.43-1.17c1.49-4.04,5.97-6.11,10.01-4.62,4.04,1.49,6.11,5.97,4.62,10.01l-5.83,15.8Z" style="fill:#fff;"/><polygon points="355.62 180.62 336.3 203.39 333.33 200.59 347.76 173.95 355.62 180.62" style="fill:#b5375b;"/></g><rect x="357.02" y="130.89" width="11.98" height="45.58" transform="translate(231.56 -217.96) rotate(47.58)" style="fill:#b5375b;"/><path d="M385.45,145.81c-2.56,5.5-9.1,7.88-14.6,5.32-5.5-2.56-7.88-9.1-5.32-14.6,2.56-5.5,9.1-7.88,14.6-5.32,5.5,2.56,7.88,9.1,5.32,14.6Z" style="fill:#4f3cf2;"/><path d="M329.19,166.48c5.04-7.8,15.46-10.04,23.26-4.99,7.8,5.04,10.04,15.46,4.99,23.26-5.04,7.8-33.29-10.46-28.25-18.26Z" style="fill:#3f484d;"/><path d="M378.06,142.36c-.66,1.42-2.35,2.03-3.77,1.37s-2.03-2.35-1.37-3.77c.66-1.42,2.35-2.03,3.77-1.37,1.42,.66,2.03,2.35,1.37,3.77Z" style="fill:#fff;"/><rect x="415.1" y="119.15" width="17.31" height="89.03" transform="translate(751.15 -151.25) rotate(115)" style="fill:#4f3cf2;"/><path d="M375.25,140.42h19.61c2.08,0,3.76,1.69,3.76,3.76v6.64h-27.14v-6.64c0-2.08,1.69-3.76,3.76-3.76Z" transform="translate(679.73 -141.84) rotate(114.99)" style="fill:url(#t);"/></g><g><path d="M475.55,193.2c-7.33,7.87-19.65,8.32-27.52,.99-7.87-7.33-8.32-19.65-.99-27.52,7.33-7.87,19.65-8.32,27.52-.99,7.87,7.33,8.32,19.65,.99,27.52Z" style="fill:#fff;"/><path d="M472.41,190.28c-5.71,6.14-15.31,6.48-21.45,.77-6.14-5.71-6.48-15.31-.77-21.45,5.71-6.14,15.31-6.48,21.45-.77,6.14,5.71,6.48,15.31,.77,21.45Z" style="fill:#f3d57f;"/><circle cx="461.29" cy="179.94" r="12.19" transform="translate(-8.5 336.35) rotate(-39.72)" style="fill:#4f3cf2;"/><path d="M463.97,182.43c-1.38,1.48-3.7,1.56-5.18,.19-1.48-1.38-1.56-3.7-.19-5.18,1.38-1.48,3.7-1.56,5.18-.19,1.48,1.38,1.56,3.7,.19,5.18Z" style="fill:#fff;"/></g><g><rect x="61.14" y="216.67" width="45.83" height="38.72" rx="4" ry="4" transform="translate(79.23 -14.48) rotate(18.5)" style="fill:#4f3cf2;"/><polyline points="67.3 213.89 83.51 236.08 110.67 228.74" style="fill:#4f3cf2; stroke:#ccc; stroke-miterlimit:10; stroke-width:2.33px;"/></g></g><g><polygon points="236.27 143.28 253.31 160.33 255.52 157.88 242.16 137.39 236.27 143.28" style="fill:#b5375b;"/><g><rect x="238.77" y="150.54" width="43.25" height="50.98" transform="translate(-37.84 76.81) rotate(-15.66)" style="fill:#fff;"/><g><rect x="241.16" y="154.56" width="35.11" height="30.91" transform="translate(-36.29 76.13) rotate(-15.66)" style="fill:#f3ad44;"/><g style="clip-path:url(#u);"><path d="M251.94,182.9c.51,1.77,21.03-3.19,20.2-6.06-.83-2.87-7.37-9.35-13.36-7.62-5.98,1.73-8.17,10.01-6.88,13.47" style="fill:#fff;"/><path d="M263.79,163.36c.94,3.26-.94,6.67-4.2,7.61-3.26,.94-6.67-.94-7.61-4.2-.94-3.26,.94-6.67,4.2-7.61,3.26-.94,6.67,.94,7.61,4.2Z" style="fill:#fff;"/></g></g><rect x="246.12" y="187.82" width="29.16" height="2.12" transform="translate(-41.3 77.37) rotate(-15.66)" style="fill:#c8d1e0;"/><rect x="247.4" y="193.08" width="19.08" height="2.12" transform="translate(-42.86 76.55) rotate(-15.66)" style="fill:#c8d1e0;"/></g><polygon points="255.6 133.85 260.73 157.41 257.48 157.94 247.47 135.62 255.6 133.85" style="fill:#b5375b;"/></g><path d="M256.61,130.17c-4.57-5.94-13.1-7.06-19.04-2.49-5.94,4.57-7.06,13.1-2.49,19.04,4.57,5.94,26.1-10.61,21.53-16.55Z" style="fill:#3f484d;"/></g></g></svg>