<?xml version="1.0" encoding="UTF-8"?><svg xmlns="http://www.w3.org/2000/svg" viewBox="0 0 600 350"><g id="a"/><g id="b"/><g id="c"/><g id="d"/><g id="e"/><g id="f"/><g id="g"/><g id="h"/><g id="i"/><g id="j"><path d="M75.59,327.61h476.18l-16.99-138.9c-18.53-126.27-155.8-168.2-253.78-94.67-39.79,23.14-86.34,30.46-131.78,25.56C60.76,111.11-1.06,219.47,51.04,291.34l24.55,36.27Z" style="fill:#f0f0f0;"/><path d="M22.15,326.02c185.55-.73,379.39-.74,564.94,0-185.55,.74-379.39,.73-564.94,0h0Z" style="fill:#24325f;"/><g><rect x="217.19" y="40.71" width="164.51" height="281.57" rx="16.93" ry="16.93" style="fill:#fff;"/><path d="M364.77,324.58H234.12c-10.6,0-19.22-8.62-19.22-19.22V57.64c0-10.6,8.62-19.22,19.22-19.22h130.66c10.6,0,19.22,8.62,19.22,19.22v247.71c0,10.6-8.62,19.22-19.22,19.22ZM234.12,43.01c-8.07,0-14.63,6.56-14.63,14.63v247.71c0,8.07,6.56,14.63,14.63,14.63h130.66c8.07,0,14.63-6.56,14.63-14.63V57.64c0-8.07-6.56-14.63-14.63-14.63H234.12Z" style="fill:#3a3762;"/><path d="M364.52,324.33H233.87c-10.6,0-19.22-8.62-19.22-19.22V57.39c0-10.6,8.62-19.22,19.22-19.22h130.66c10.6,0,19.22,8.62,19.22,19.22v247.71c0,10.6-8.62,19.22-19.22,19.22ZM233.87,42.76c-8.07,0-14.63,6.56-14.63,14.63v247.71c0,8.07,6.56,14.63,14.63,14.63h130.66c8.07,0,14.63-6.56,14.63-14.63V57.39c0-8.07-6.56-14.63-14.63-14.63H233.87Z" style="fill:#3a3762;"/><path d="M203.8,144.28c1.94,.72,3.87,1.43,5.81,2.15l-.07-.53c-1.34,1.02-2.79,1.82-4.38,2.39-.35,.13-.2,.69,.15,.56,1.64-.59,3.13-1.39,4.52-2.45,.2-.16,.18-.44-.07-.53-1.94-.72-3.87-1.43-5.81-2.15-.35-.13-.5,.43-.15,.56h0Z" style="fill:#d98c7b;"/><g><rect x="262.42" y="72.05" width="101.7" height="22.6" rx="11.3" ry="11.3" transform="translate(626.54 166.7) rotate(-180)" style="fill:#e8505b;"/><g style="opacity:.3;"><rect x="262.42" y="100.04" width="103.41" height="35.86" rx="15.81" ry="15.81" transform="translate(628.25 235.94) rotate(180)" style="fill:#b1c5ef;"/></g><g style="opacity:.3;"><rect x="252.62" y="256.08" width="114.13" height="35.86" rx="16.61" ry="16.61" transform="translate(619.38 548.01) rotate(180)" style="fill:#b1c5ef;"/></g><g style="opacity:.4;"><rect x="248.88" y="193.76" width="80.27" height="51.55" rx="16.7" ry="16.7" transform="translate(578.03 439.08) rotate(180)" style="fill:#85a9ee;"/></g><g style="opacity:.3;"><rect x="248.88" y="144.17" width="80.27" height="35.86" rx="13.93" ry="13.93" transform="translate(578.03 324.2) rotate(-180)" style="fill:#b1c5ef;"/></g><g><path d="M258.16,85.24c0,4.8-2.15,9.1-5.54,11.99-.08,.07-.17,.15-.26,.22-2.36,1.92-5.28,3.18-8.48,3.47-.48,.05-.97,.07-1.47,.07-.46,0-.91-.02-1.35-.06h0c-3-.25-5.76-1.35-8.04-3.05-.09-.07-.19-.14-.28-.21-3.7-2.88-6.07-7.37-6.07-12.42,0-8.7,7.05-15.75,15.75-15.75s15.75,7.05,15.75,15.75Z" style="fill:#e8505b;"/><g><path d="M252.62,97.23c-.08,.07-.17,.15-.26,.22-2.36,1.92-5.28,3.18-8.48,3.47-.48,.05-.97,.07-1.47,.07-.46,0-.91-.02-1.35-.06h0c-3-.25-5.76-1.35-8.04-3.05-.09-.07-.19-.14-.28-.21,1.35-1.74,4.03-3.58,7.28-4.27,.07-.02,.14-.03,.2-.04,.81-.16,1.64-.25,2.5-.25,.92,0,1.8,.09,2.65,.25,.07,.01,.15,.03,.22,.04,.04,.01,.09,.02,.13,.03,.16,.04,.32,.07,.47,.11,2.84,.71,5.15,2.21,6.43,3.69Z" style="fill:#b1c5ef;"/><polygon points="245.56 95.72 239.97 95.72 240.39 91.81 240.47 91.15 240.61 89.83 245.1 89.83 245.22 91.41 245.24 91.57 245.24 91.57 245.56 95.72" style="fill:#504a78;"/><path d="M245.56,95.72c0,.44-1.25,.79-2.8,.79s-2.8-.35-2.8-.79,1.25-.79,2.8-.79,2.8,.35,2.8,.79Z" style="fill:#504a78;"/><path d="M233.87,80.7h0c-.06,0-.11-.05-.11-.11v-5.05c0-.06,.05-.11,.11-.11h0c.06,0,.11,.05,.11,.11v5.05c0,.06-.05,.11-.11,.11Z" style="fill:#504a78;"/><rect x="232.32" y="79.22" width="3.1" height="9.64" rx=".84" ry=".84" style="fill:#504a78;"/><path d="M250.43,80.7h0c-.06,0-.11-.05-.11-.11v-5.05c0-.06,.05-.11,.11-.11h0c.06,0,.11,.05,.11,.11v5.05c0,.06-.05,.11-.11,.11Z" style="fill:#504a78;"/><rect x="248.88" y="79.22" width="3.1" height="9.64" rx=".84" ry=".84" style="fill:#504a78;"/><path d="M250.43,83.78v1.38c0,3.73-3.05,6.79-6.79,6.79h-2.47c-3.73,0-6.79-3.05-6.79-6.79v-1.56c0-3.09,2.53-5.61,5.61-5.61h4.65c3.03,0,5.53,2.36,5.77,5.33,.01,.15,.02,.3,.02,.45Z" style="fill:#b1c5ef;"/><path d="M239.45,87.48h5.91s-.12,2.1-2.95,2.1c-2.59,0-2.95-2.1-2.95-2.1Z" style="fill:#fff;"/><path d="M249.12,83.24v.96c0,.26-.04,.5-.11,.74-.32,1.09-1.33,1.89-2.52,1.89h-8.17c-1.45,0-2.63-1.18-2.63-2.63v-.93c0-1.15,.94-2.09,2.09-2.09h9.28c1.14,0,2.06,.92,2.06,2.06Z" style="fill:#3b3860;"/><path d="M245.69,84.09c0,.49-.27,.88-.59,.88s-.59-.39-.59-.88,.27-.88,.59-.88,.59,.39,.59,.88Z" style="fill:#fff;"/><path d="M240.3,84.09c0,.49-.27,.88-.59,.88s-.59-.39-.59-.88,.27-.88,.59-.88,.59,.39,.59,.88Z" style="fill:#fff;"/></g></g><g><path d="M370.94,156.04c0,1.91-.34,3.75-.97,5.44-.9,2.46-2.41,4.63-4.33,6.33-.08,.07-.16,.14-.24,.21-.08,.07-.17,.15-.26,.22-1.01,.82-2.12,1.52-3.32,2.08-1.59,.75-3.33,1.23-5.16,1.4-.48,.05-.97,.07-1.47,.07-.46,0-.91-.02-1.35-.06h0c-3-.25-5.76-1.35-8.04-3.05-.09-.07-.19-.14-.28-.21-.64-.5-1.24-1.05-1.8-1.64-2.65-2.82-4.28-6.61-4.28-10.78,0-8.7,7.05-15.75,15.75-15.75s15.75,7.05,15.75,15.75Z" style="fill:#407bff;"/><g><path d="M369.97,161.48c-.9,2.46-2.41,4.63-4.33,6.33-.08,.07-.16,.14-.24,.21-.08,.07-.17,.15-.26,.22-1.01,.82-2.12,1.52-3.32,2.08-3.29-.57-5.26-2.48-6.38-4.16-.42-.63-.73-1.23-.94-1.72-.29-.67-.4-1.11-.4-1.11v-6.91l2.21-.87,.94-.37,.72-.28,1.57-.62,1.09-.43s-.2,.74,.05,1.72h0c.35,1.4,1.64,3.26,5.78,4.07,1.55,.3,2.72,.98,3.51,1.86Z" style="fill:#66314b;"/><path d="M365.64,167.82c-.08,.07-.16,.14-.24,.21-.08,.07-.17,.15-.26,.22-1.01,.82-2.12,1.52-3.32,2.08-1.59,.75-3.33,1.23-5.16,1.4-.48,.05-.97,.07-1.47,.07-.46,0-.91-.02-1.35-.06h0c-3-.25-5.76-1.35-8.04-3.05-.09-.07-.19-.14-.28-.21-.64-.5-1.24-1.05-1.8-1.64,1.95-1.82,4.62-3.39,7.65-3.99,.85-.17,1.74-.26,2.64-.26,.03,0,.06,0,.09,0,.97,0,1.91,.11,2.82,.29h0c.28,.06,.55,.12,.82,.19,.2,.05,.39,.1,.59,.17,3.06,.92,5.64,2.71,7.3,4.6Z" style="fill:#df6575;"/><path d="M347.8,151.07s-1.45-1.91,.15-4.35c1.6-2.44,2.8-3.21,5.06-3.21s3.96-.46,5.74,.92c1.78,1.38,4.4,6.46,2.62,10.03-1.78,3.57-4.76,2.57-6.03,3.45-1.27,.88-7.55-6.83-7.55-6.83Z" style="fill:#66314b;"/><path d="M357.09,163.32s-2.58,2.14-5.91,.77c0,0,.33-1.71,.34-3.39,0-.73-.06-1.46-.24-2.04-.03-.09-.06-.17-.09-.25-.75-1.81,5.42-3.52,5.46-3.53-.02,.03-.53,.83-.72,2.13-.04,.27-.06,.56-.06,.87,0,.33,.02,.69,.08,1.07,.38,2.42,1.14,4.39,1.14,4.39Z" style="fill:#ebb89f;"/><path d="M355.94,157c-.04,.27-.06,.56-.06,.87-1.23,1.71-4.3,2.81-4.35,2.83,0-.73-.06-1.46-.24-2.04,1.39-.66,3.87-1.77,4.66-1.66Z" style="fill:#c58270;"/><path d="M356.07,157.56c-2.94,2.3-5.83,2.17-6.53,1.96-.7-.21-.72-.84-1.75-2.48-.71-1.13-.89-2.2-.79-3,.04-.36,.14-.67,.26-.91,.04-.07,.07-.14,.1-.2,.25-.59-.04-.77-.1-1.78-.01-.24,.07-.54,.2-.88,.06-.15,.13-.3,.2-.46,.56-1.16,1.53-2.44,1.53-2.44,4.83-3.41,8.51,.5,8.86,2.36,.35,1.85,.96,5.53-1.98,7.83Z" style="fill:#ebb89f;"/><path d="M351.51,146.72s1.7-.17,2.6,1.49c.9,1.66,2.78,3.87,3.23,4.07s-.24,2.34-.24,2.34c0,0,.65,1.21-.53,2.5,0,0,2.08-.71,2.79-2.11,.72-1.4-.57-6.48-1.87-8.12-1.29-1.64-4.25-2.09-5.02-1.78-.77,.32-.97,1.61-.97,1.61Z" style="fill:#66314b;"/><path d="M351.51,146.72s-1.83,.11-3.16,1.93c-.13,.17-.26,.34-.34,.51-.66,1.42,.14-4.74,4.47-4.05,4.33,.69-.97,1.61-.97,1.61Z" style="fill:#66314b;"/><path d="M355.87,152.35s1.11-1.71,2.15-.93c1.04,.77-.03,2.2-.43,2.75-.43,.59-.68,.59-1.44,.4-.76-.19-.29-2.22-.29-2.22Z" style="fill:#ebb89f;"/><path d="M356.1,154.43c.85,1.25,2.06-.92,2.26-1.57,.16-.5,.18-1.12-.29-1.46-.51-.37-1.12-.17-1.53,.24-.06,.06,.03,.15,.09,.09,.43-.43,1.22-.61,1.58,.02,.23,.39,.09,.92-.07,1.31-.23,.55-1.22,2.36-1.93,1.31-.05-.07-.16,0-.11,.07h0Z" style="fill:#d98c7b;"/><path d="M357.3,151.76c-.19,.08-.37,.19-.46,.38-.1,.21,0,.29,0,.5,.03,.52-.37,.45-.53,.8-.06,.14-.05,.24,.01,.37,.04,.08,.15,.01,.11-.07-.08-.16,.15-.42,.27-.51,.03-.03,.07-.05,.1-.08,.07-.07,.14-.14,.18-.24,.03-.09,.03-.16,0-.25-.05-.24-.1-.1,.05-.43,.12-.26,.1-.26,.32-.36,.08-.03,.01-.15-.07-.11h0Z" style="fill:#d98c7b;"/><path d="M351.38,162.83s-3.45,4.07-1.83,5.19c2.48,1.72,7.75-2.66,7.55-4.71-.2-2.05-5.72-.48-5.72-.48Z" style="fill:#ebb89f;"/></g></g><g><rect x="311.71" y="193.02" width="169.81" height="88.06" rx="21.67" ry="21.67" style="fill:#407bff;"/><g><path d="M446.03,224.07s-2.67,9.75,12.9,12.8c15.57,3.05,13.93,23.31-4.64,24.01-18.57,.7-22.7-15.8-22.7-15.8v-15.29l14.44-5.72Z" style="fill:#66314b;"/><path d="M461.56,264.31c0,7.89-13.5,7.65-30.16,7.65s-30.16,1.47-30.16-6.42,13.5-22.16,30.16-22.16c2.86,0,5.63,.39,8.24,1.06,.44,.11,.87,.23,1.3,.37,8.72,2.61,15.67,8.41,18.8,13.81,.11,.19,.22,.39,.32,.57,.97,1.81,1.49,3.56,1.49,5.12Z" style="fill:#df6575;"/><path d="M417.63,217.94s-3.22-4.23,.33-9.63c3.55-5.4,6.2-7.11,11.2-7.11s8.76-1.02,12.7,2.03c3.94,3.05,9.74,14.28,5.8,22.19-3.94,7.91-10.53,5.68-13.33,7.64-2.81,1.96-16.7-15.12-16.7-15.12Z" style="fill:#66314b;"/><path d="M438.19,245.04s-5.71,4.74-13.07,1.7c0,0,.74-3.79,.74-7.5,0-1.62-.14-3.23-.54-4.51-.06-.2-.13-.38-.2-.56-1.67-4,11.99-7.79,12.09-7.82-.04,.06-1.18,1.84-1.59,4.72-.08,.59-.14,1.23-.14,1.92,0,.74,.05,1.53,.18,2.36,.84,5.36,2.53,9.71,2.53,9.71Z" style="fill:#ebb89f;"/><path d="M435.63,231.06c-.08,.59-.14,1.23-.14,1.92-2.72,3.78-9.51,6.22-9.62,6.26,0-1.62-.14-3.23-.54-4.51,3.07-1.46,8.56-3.92,10.3-3.67Z" style="fill:#c58270;"/><path d="M435.92,232.3c-6.51,5.09-12.9,4.8-14.46,4.34-1.56-.46-1.6-1.86-3.87-5.49-1.56-2.5-1.96-4.86-1.76-6.64,.09-.8,.3-1.48,.59-2.01,.09-.16,.16-.31,.22-.45,.54-1.3-.09-1.7-.21-3.95-.03-.52,.15-1.2,.44-1.94,.13-.33,.28-.67,.45-1.02,1.25-2.56,3.38-5.4,3.38-5.4,10.68-7.54,18.82,1.12,19.61,5.22,.78,4.1,2.13,12.23-4.37,17.32Z" style="fill:#ebb89f;"/><path d="M432.3,216.49s-1.22-2.8-6.41-1.32c-3.09,.88-2.59,2.33-.81,2.06,1.77-.26,2.27-1.97,7.23-.74Z" style="fill:#66314b;"/><path d="M418.76,217.44c-.7-.13-1.35-.95-1.9-1.26,.13-.33,.28-.67,.45-1.02,.22,0,.48,.06,.77,.18,2.02,.85,1.84,2.32,.68,2.1Z" style="fill:#66314b;"/><path d="M420.25,221.15c.05,.81-1.17-1.57-1.97-1.74-.73-.15-1.63,.32-2.28,0-.17-.08-.1-.34,.09-.33,.33,.01,.78-.02,1.27-.21,.96-.37,2.76,.07,2.89,2.29Z" style="fill:#66314b;"/><path d="M419.83,221.12c-.26,.2-.61,.28-.92,.17s-.56-.34-.75-.62c-.22-.33-.29-.77-.03-1.08,.16-.19,.31-.37,.31-.37l.72,.55,.36,.18,.25,.41,.15,.23s.07,.39-.09,.5Z" style="fill:#66314b;"/><path d="M424.67,220.28s.46-2.09,1.44-2.76c.98-.67,4.1-.69,4.69-.06,.59,.63,.78,1.71,.78,1.71,0,0-3.86-2.39-6.91,1.11Z" style="fill:#da9d89;"/><path d="M429.54,219.81c0,.72-.58,1.3-1.3,1.3s-1.3-.58-1.3-1.3c0-.24,.06-.46,.17-.65,.11-.18,.26-.34,.44-.45,.49,0,.97,0,1.42,.03,.26,.18,.45,.45,.53,.76,.02,.1,.04,.2,.04,.31Z" style="fill:#66314b;"/><path d="M431.58,219.47c-.11,.56-1.12,.26-1.68,.14-.14-.03-.27-.07-.41-.1-.42-.12-.83-.26-1.26-.33-.37-.06-.75-.06-1.12,0-1.11,.16-2.15,.8-2.75,1.74,.03-.07,.97-2.61,3.68-2.9,1.97-.21,3.62,1.05,3.54,1.46Z" style="fill:#66314b;"/><g style="opacity:.2;"><path d="M433.81,222.44c-.86-.59-2.07-.77-3.15-.46-.59,.17-1.18,.34-1.78,.51-1.16,.34-2.4,.71-3.06,1.54-.19,.24-.31,.51-.29,.79,.03,.7,.75,.97,1.44,1.13,1.84,.43,3.88,.35,5.65-.22,.28-.09,.56-.2,.83-.32,1.39-.64,1.57-2.14,.36-2.97h0Z" style="fill:#cd4d61;"/></g><g style="opacity:.2;"><path d="M418.8,224.02c-.01,.47-.29,.65-.56,.75-.72,.29-1.52,.24-2.21-.15-.06-.03-.12-.07-.18-.11,.09-.8,.3-1.48,.59-2.01,.09-.16,.16-.31,.22-.45,.05,.01,.1,.03,.15,.06,.23,.11,.46,.23,.7,.34,.46,.22,.94,.47,1.2,1.03,.07,.16,.12,.34,.11,.53Z" style="fill:#cd4d61;"/></g><path d="M419.95,217.95c.98,.5,1.42,1.59,1.33,2.66-.11,1.31-.96,2.41-1.74,3.4-.37,.46-.87,1.11-.48,1.7,.44,.67,1.67,.92,2.38,1.06,.15,.03,.22-.2,.06-.24-.6-.12-1.34-.28-1.85-.64-1.03-.73-.04-1.58,.44-2.2,.53-.7,1.03-1.45,1.28-2.3,.4-1.35,.03-2.98-1.3-3.65-.14-.07-.26,.14-.12,.21h0Z" style="fill:#d98c7b;"/><path d="M425.78,228.82c-.18,.72-.99,3.1-3.59,3.48-2.56,.38-2.78-2.37-2.84-3.15-.01-.16-.01-.25-.01-.25h0c.04-.05,.66-.78,1.32-.86,.26-.03,.53,.04,.77,.29h0s.88-.68,1.59-.17c.63,.45,1.74,.79,2.51,.57h0s.08-.03,.11-.04c.02,.01,.03,.03,.04,.04,.03,.03,.05,.06,.08,.08Z" style="fill:#df676c;"/><path d="M423.18,230.88h-.08c-.36,.13-.72,.28-1.1,.31-.14,.01-.29,.01-.43,.07s-.24,.21-.19,.35c.04,.13,.2,.19,.34,.21,.45,.07,.91-.06,1.32-.25,.15-.07,.32-.17,.35-.34,.03-.15-.07-.32-.22-.36Z" style="fill:#e27f8e;"/><g style="opacity:.2;"><path d="M420.81,233.54c.82-.29,1.64-.31,2.47-.05,.3,.1,.43-.38,.13-.47-.9-.29-1.84-.27-2.73,.05-.29,.11-.17,.58,.13,.47h0Z" style="fill:#df6575;"/></g><g style="opacity:.2;"><path d="M419.84,225.65c.69,.11,1.34,.31,1.96,.64,.28,.15,.52-.27,.25-.42-.65-.34-1.34-.58-2.08-.69-.31-.05-.44,.42-.13,.47h0Z" style="fill:#df6575;"/></g><path d="M425.83,208.31s3.77-.38,5.75,3.3c1.98,3.68,6.14,8.57,7.14,9.02,1,.44-.52,5.17-.52,5.17,0,0,1.43,2.67-1.16,5.53,0,0,4.59-1.57,6.18-4.68,1.59-3.1-1.27-14.34-4.13-17.96-2.86-3.62-9.41-4.63-11.12-3.94-1.71,.7-2.14,3.56-2.14,3.56Z" style="fill:#66314b;"/><path d="M425.83,208.31s-4.05,.25-7,4.28c-.28,.39-.57,.74-.75,1.14-1.46,3.15,.32-10.49,9.89-8.97,9.57,1.52-2.14,3.56-2.14,3.56Z" style="fill:#66314b;"/><path d="M425.66,228.69s-.07,.03-.11,.04h0c-2.48,.94-6.2,.17-6.2,.17,0,0,.38,1.66,2.14,1.97,1.53,.27,3.69-1.64,4.23-2.13-.01-.01-.03-.03-.04-.04h0Z" style="fill:#fff;"/><path d="M425.5,228.62c.18,.15,.34,.34,.46,.54,.04,.06,.14,0,.1-.06-.13-.21-.28-.41-.48-.56-.06-.05-.14,.04-.08,.08h0Z" style="fill:#cf3d56;"/><path d="M419.27,228.63c.08,.17,.02,.37-.13,.49-.06,.05,.02,.13,.08,.08,.19-.15,.24-.41,.15-.63-.03-.07-.13,0-.1,.06h0Z" style="fill:#cf3d56;"/><path d="M435.48,220.78s2.46-3.78,4.77-2.07c2.3,1.71-.06,4.87-.95,6.09-.95,1.3-1.5,1.31-3.18,.89-1.68-.42-.64-4.91-.64-4.91Z" style="fill:#ebb89f;"/><path d="M435.99,225.38c1.89,2.78,4.55-2.03,5.01-3.47,.35-1.11,.4-2.47-.63-3.23-1.12-.82-2.49-.38-3.39,.52-.13,.13,.07,.34,.21,.21,.95-.94,2.7-1.34,3.51,.04,.51,.87,.19,2.03-.16,2.89-.5,1.21-2.69,5.22-4.28,2.9-.1-.15-.36,0-.25,.15h0Z" style="fill:#d98c7b;"/><path d="M438.65,219.47c-.41,.18-.82,.42-1.02,.84-.22,.47-.01,.65,.01,1.11,.06,1.16-.81,.99-1.17,1.77-.14,.31-.1,.52,.03,.81,.08,.17,.33,.02,.25-.15-.17-.36,.34-.92,.59-1.13,.07-.06,.15-.11,.22-.17,.17-.16,.31-.32,.39-.54,.07-.2,.06-.35,.01-.55-.12-.53-.22-.23,.11-.96,.27-.58,.23-.58,.72-.8,.17-.07,.02-.32-.15-.25h0Z" style="fill:#d98c7b;"/><path d="M425.54,243.97s-7.64,9-4.05,11.48c5.48,3.8,17.15-5.88,16.7-10.41-.45-4.54-12.65-1.07-12.65-1.07Z" style="fill:#ebb89f;"/></g><path d="M332.58,216.88c7.74,0,15.47,0,23.21,0,12.28,0,24.56,0,36.83,0h8.46c3.28,0,3.29-5.1,0-5.1-7.74,0-15.47,0-23.21,0-12.28,0-24.56,0-36.83,0h-8.46c-3.28,0-3.29,5.1,0,5.1h0Z" style="fill:#accdfc;"/><path d="M332.58,237.96c7.74,0,15.47,0,23.21,0,12.28,0,24.56,0,36.83,0h8.46c3.28,0,3.29-5.1,0-5.1-7.74,0-15.47,0-23.21,0-12.28,0-24.56,0-36.83,0h-8.46c-3.28,0-3.29,5.1,0,5.1h0Z" style="fill:#accdfc;"/><path d="M333.27,227.17c11.61,.44,23.23,.51,34.84,.22,3.28-.08,3.29-5.18,0-5.1-11.61,.29-23.23,.22-34.84-.22-3.28-.12-3.28,4.98,0,5.1h0Z" style="fill:#accdfc;"/><path d="M333.27,248.13c11.61,.44,23.23,.51,34.84,.22,3.28-.08,3.29-5.18,0-5.1-11.61,.29-23.23,.22-34.84-.22-3.28-.12-3.28,4.98,0,5.1h0Z" style="fill:#accdfc;"/></g><g><rect x="130.85" y="127.6" width="172.68" height="89.55" rx="19.97" ry="19.97" transform="translate(434.38 344.75) rotate(180)" style="fill:#e8505b;"/><g><path d="M200.49,200.1c0,5.92-12.44,5.74-27.78,5.74s-27.78,1.1-27.78-4.82,12.44-16.62,27.78-16.62c2.63,0,5.18,.29,7.59,.79,.4,.08,.8,.17,1.2,.28,8.03,1.96,14.43,6.31,17.32,10.36,.1,.14,.2,.29,.3,.43,.89,1.36,1.37,2.67,1.37,3.84Z" style="fill:#b1c5ef;"/><path d="M198.82,195.83c-3.93,1.33-9.59,1.86-13.39-1.92-3.84-3.81-4.19-6.77-3.93-8.44,8.03,1.96,14.43,6.31,17.32,10.36Z" style="fill:#ccdefd;"/><polygon points="180.49 191.59 165.14 191.59 166.31 180.87 166.51 179.04 166.91 175.42 179.22 175.42 179.56 179.75 179.6 180.2 179.6 180.21 180.49 191.59" style="fill:#504a78;"/><ellipse cx="172.82" cy="191.59" rx="7.67" ry="2.17" style="fill:#504a78;"/><path d="M179.61,180.07s0,.09,0,.14h0c-.18,1.47-3.15,2.63-6.78,2.63-3.07,0-5.66-.83-6.5-1.97l.2-1.83c1-1.02,3.45-1.74,6.3-1.74,3.49,0,6.36,1.07,6.75,2.45,.03,.1,.04,.21,.04,.31Z" style="fill:#3b3860;"/><path d="M148.43,150.38h0c-.17,0-.31-.14-.31-.31v-13.84c0-.17,.14-.31,.31-.31h0c.17,0,.31,.14,.31,.31v13.84c0,.17-.14,.31-.31,.31Z" style="fill:#504a78;"/><rect x="144.18" y="146.33" width="8.5" height="26.44" rx="2.3" ry="2.3" style="fill:#504a78;"/><path d="M193.84,150.38h0c-.17,0-.31-.14-.31-.31v-13.84c0-.17,.14-.31,.31-.31h0c.17,0,.31,.14,.31,.31v13.84c0,.17-.14,.31-.31,.31Z" style="fill:#504a78;"/><path d="M191.89,146.33h3.89c1.27,0,2.3,1.03,2.3,2.3v21.83c0,1.27-1.03,2.3-2.3,2.3h-3.89c-1.27,0-2.3-1.03-2.3-2.3v-21.83c0-1.27,1.03-2.3,2.3-2.3Z" style="fill:#504a78;"/><path d="M193.84,158.82v3.79c0,10.24-8.38,18.62-18.62,18.62h-6.78c-10.24,0-18.62-8.38-18.62-18.62v-4.27c0-8.46,6.93-15.39,15.39-15.39h12.76c8.3,0,15.17,6.47,15.81,14.62,.03,.41,.05,.82,.05,1.24Z" style="fill:#b1c5ef;"/><path d="M163.73,168.99h16.2s-.32,5.75-8.1,5.75c-7.1,0-8.1-5.75-8.1-5.75Z" style="fill:#fff;"/><path d="M190.25,157.36v2.63c0,.7-.1,1.38-.29,2.02-.87,3-3.64,5.19-6.92,5.19h-22.42c-3.98,0-7.21-3.23-7.21-7.21v-2.55c0-3.17,2.57-5.73,5.73-5.73h25.45c3.13,0,5.66,2.53,5.66,5.66Z" style="fill:#3b3860;"/><ellipse cx="179.22" cy="159.69" rx="1.63" ry="2.41" style="fill:#fff;"/><ellipse cx="164.44" cy="159.69" rx="1.63" ry="2.41" style="fill:#fff;"/><path d="M190.25,157.36v2.63c0,.7-.1,1.38-.29,2.02-6.93-2.32-9.5-7.73-10.36-10.31h4.99c3.13,0,5.66,2.53,5.66,5.66Z" style="fill:#504a78;"/></g><path d="M212.1,158.62h62.89c2.95,.01,5.91,.01,8.86,.01,3.44,0,3.44-5.91,0-5.91-8.1,0-16.21,0-24.31,0h-38.58c-2.95,0-5.91,0-8.86,0-3.44,0-3.44,5.91,0,5.91h0Z" style="fill:#ecb4bd;"/><path d="M212.1,183.07h24.31c12.86,0,25.72,0,38.58,.01,2.95,0,5.91,0,8.86,0,3.44,0,3.44-5.91,0-5.91h-24.31c-12.86,0-25.72,0-38.58-.01-2.95,0-5.91,0-8.86,0-3.44,0-3.44,5.91,0,5.91h0Z" style="fill:#ecb4bd;"/><path d="M212.81,170.54c12.16,.51,24.33,.59,36.49,.25,3.43-.1,3.44-6.01,0-5.91-12.16,.34-24.33,.26-36.49-.25-3.44-.14-3.43,5.77,0,5.91h0Z" style="fill:#ecb4bd;"/><path d="M273.11,81.79c4.32,0,8.65,0,12.97,0h20.59c1.58,0,3.15,0,4.73,0,1.83,0,1.84-2.85,0-2.85-4.32,0-8.65,0-12.97,0h-20.59c-1.58,0-3.15,0-4.73,0-1.83,0-1.84,2.85,0,2.85h0Z" style="fill:#ecb4bd;"/><path d="M273.49,87.54c6.49,.24,12.98,.28,19.47,.12,1.83-.05,1.84-2.9,0-2.85-6.49,.16-12.99,.12-19.47-.12-1.83-.07-1.83,2.78,0,2.85h0Z" style="fill:#ecb4bd;"/><path d="M212.81,194.86c12.16,.51,24.33,.59,36.49,.25,3.43-.1,3.44-6.01,0-5.91-12.16,.34-24.33,.26-36.49-.25-3.44-.14-3.43,5.77,0,5.91h0Z" style="fill:#ecb4bd;"/></g><polygon points="235.42 133.32 242.76 109.56 249.12 133.62 235.42 133.32" style="fill:#e8505b;"/><polygon points="344.07 202.99 351.42 179.23 357.77 203.29 344.07 202.99" style="fill:#85a9ee;"/><path d="M274.28,114.5h38.29c1.83,0,1.84-2.84,0-2.84h-38.29c-1.83,0-1.84,2.84,0,2.84h0Z" style="fill:#fff;"/><path d="M274.66,120.24c6.49,.24,12.98,.28,19.47,.12,1.83-.05,1.84-2.9,0-2.85-6.49,.16-12.99,.12-19.47-.12-1.83-.07-1.83,2.78,0,2.85h0Z" style="fill:#fff;"/></g></g></g></svg>