<?xml version="1.0" encoding="UTF-8"?><svg xmlns="http://www.w3.org/2000/svg" viewBox="0 0 600 350"><g id="a"/><g id="b"/><g id="c"/><g id="d"/><g id="e"/><g id="f"/><g id="g"/><g id="h"/><g id="i"/><g id="j"><path d="M13.75,266.74c-.34,32.02,12.93,57.18,12.93,57.18H568.75s22.53-42.67,6.65-89.93c-.17-.56-.37-1.11-.57-1.67-3.08-8.7-7.48-17.55-13.58-26.29-10.21-14.63-22.87-26.33-36.85-36.05-.52-.37-1.06-.73-1.59-1.1-21.17-14.41-45.21-24.43-68.16-33.31-.76-.29-1.52-.59-2.27-.88-6.29-2.42-12.5-4.77-18.52-7.1-12.73-4.92-23.98-11.53-35.73-20.57-.57-.42-1.13-.87-1.71-1.33-10.68-8.39-21.85-18.8-34.93-31.83-22.88-22.75-49.21-38.44-76.13-47.74-.59-.21-1.16-.41-1.75-.6-19.88-6.67-40.04-9.88-59.34-9.92-.54,0-1.1,0-1.64,.01-22.94,.16-44.6,4.83-63.08,13.51-.59,.27-1.19,.56-1.77,.85-15.04,7.35-27.87,17.42-37.41,29.92-12.79,16.76-21.32,31.16-28.02,44.43-.36,.71-.72,1.41-1.07,2.11-16.06,32.42-21.79,58.3-53.69,95.87-6.76,7.96-11.78,16.19-15.41,24.43-.23,.52-.46,1.04-.67,1.57-5.24,12.43-7.39,24.86-7.71,36.47-.03,.66-.04,1.32-.04,1.97Z" style="fill:#e5eaf6;"/><g><g><g><rect x="120.56" y="117.84" width="23.94" height="184.22" style="fill:#3858ae;"/><g><rect x="53.9" y="117.86" width="66.83" height="184.22" style="fill:#6394fb;"/><rect x="58.43" y="144.46" width="57.76" height="145.97" style="fill:#3a5494;"/><path d="M56.2,205.96h0c-.54,0-.98-.44-.98-.98v-16.2c0-.54,.44-.98,.98-.98h0c.54,0,.98,.44,.98,.98v16.2c0,.54-.44,.98-.98,.98Z" style="fill:#3a5494;"/><rect x="118.57" y="158.75" width="2.15" height="11.5" style="fill:#3a5494;"/><rect x="118.57" y="259.98" width="2.15" height="11.5" style="fill:#3a5494;"/><g><rect x="60.76" y="167.33" width="54.05" height="17.76" style="fill:#5e89fa;"/><rect x="60.76" y="187.99" width="54.05" height="17.76" style="fill:#5e89fa;"/><rect x="60.76" y="208.66" width="54.05" height="17.76" style="fill:#5e89fa;"/><rect x="60.76" y="229.32" width="54.05" height="17.76" style="fill:#5e89fa;"/><rect x="60.76" y="249.99" width="54.05" height="17.76" style="fill:#5e89fa;"/><rect x="60.76" y="270.65" width="54.05" height="17.76" style="fill:#5e89fa;"/><g><rect x="60.76" y="146.66" width="54.05" height="17.76" style="fill:#5e89fa;"/><g><rect x="65.13" y="151.27" width="44.55" height="8.83" style="fill:#3a5494;"/><g><rect x="66.94" y="153.68" width="31.95" height="4.05" style="fill:#76bcfc;"/><g><ellipse cx="101.09" cy="155.71" rx="1.02" ry="1.08" style="fill:#436ad1;"/><path d="M105.08,155.71c0,.6-.46,1.08-1.02,1.08s-1.02-.48-1.02-1.08,.46-1.08,1.02-1.08,1.02,.48,1.02,1.08Z" style="fill:#5e89fa;"/><ellipse cx="107.01" cy="155.71" rx="1.02" ry="1.08" style="fill:#5e89fa;"/></g></g></g></g><g><rect x="65.13" y="172.17" width="44.55" height="8.83" style="fill:#3a5494;"/><rect x="66.94" y="174.58" width="31.95" height="4.05" style="fill:#76bcfc;"/></g><g><rect x="65.13" y="193.06" width="44.55" height="8.83" style="fill:#3a5494;"/><rect x="66.94" y="195.48" width="31.95" height="4.05" style="fill:#76bcfc;"/></g><g><rect x="65.13" y="213.96" width="44.55" height="8.83" style="fill:#3a5494;"/><rect x="66.94" y="216.38" width="31.95" height="4.05" style="fill:#76bcfc;"/></g><g><rect x="65.13" y="234.31" width="44.55" height="8.83" style="fill:#3a5494;"/><rect x="66.94" y="236.72" width="31.95" height="4.05" style="fill:#76bcfc;"/><g><ellipse cx="101.09" cy="238.83" rx="1.02" ry="1.08" style="fill:#436ad1;"/><path d="M105.08,238.83c0,.6-.46,1.08-1.02,1.08s-1.02-.48-1.02-1.08,.46-1.08,1.02-1.08,1.02,.48,1.02,1.08Z" style="fill:#5e89fa;"/><ellipse cx="107.01" cy="238.83" rx="1.02" ry="1.08" style="fill:#5e89fa;"/></g></g><g><rect x="65.13" y="255.29" width="44.55" height="8.83" style="fill:#3a5494;"/><rect x="66.94" y="257.7" width="31.95" height="4.05" style="fill:#76bcfc;"/></g><g><rect x="65.13" y="275.79" width="44.55" height="8.83" style="fill:#3a5494;"/><rect x="66.94" y="278.2" width="31.95" height="4.05" style="fill:#76bcfc;"/><g><path d="M102.12,280.35c0,.6-.46,1.08-1.02,1.08s-1.02-.48-1.02-1.08,.46-1.08,1.02-1.08,1.02,.48,1.02,1.08Z" style="fill:#436ad1;"/><path d="M105.08,280.35c0,.6-.46,1.08-1.02,1.08s-1.02-.48-1.02-1.08,.46-1.08,1.02-1.08,1.02,.48,1.02,1.08Z" style="fill:#5e89fa;"/><path d="M108.04,280.35c0,.6-.46,1.08-1.02,1.08s-1.02-.48-1.02-1.08,.46-1.08,1.02-1.08,1.02,.48,1.02,1.08Z" style="fill:#5e89fa;"/></g></g><g><path d="M102.12,176.78c0,.6-.46,1.08-1.02,1.08s-1.02-.48-1.02-1.08,.46-1.08,1.02-1.08,1.02,.48,1.02,1.08Z" style="fill:#436ad1;"/><path d="M105.08,176.78c0,.6-.46,1.08-1.02,1.08s-1.02-.48-1.02-1.08,.46-1.08,1.02-1.08,1.02,.48,1.02,1.08Z" style="fill:#5e89fa;"/><path d="M108.04,176.78c0,.6-.46,1.08-1.02,1.08s-1.02-.48-1.02-1.08,.46-1.08,1.02-1.08,1.02,.48,1.02,1.08Z" style="fill:#5e89fa;"/></g><g><path d="M102.12,197.45c0,.6-.46,1.08-1.02,1.08s-1.02-.48-1.02-1.08,.46-1.08,1.02-1.08,1.02,.48,1.02,1.08Z" style="fill:#436ad1;"/><path d="M105.08,197.45c0,.6-.46,1.08-1.02,1.08s-1.02-.48-1.02-1.08,.46-1.08,1.02-1.08,1.02,.48,1.02,1.08Z" style="fill:#5e89fa;"/><path d="M108.04,197.45c0,.6-.46,1.08-1.02,1.08s-1.02-.48-1.02-1.08,.46-1.08,1.02-1.08,1.02,.48,1.02,1.08Z" style="fill:#5e89fa;"/></g><g><ellipse cx="101.09" cy="218.46" rx="1.02" ry="1.08" style="fill:#436ad1;"/><path d="M105.08,218.46c0,.6-.46,1.08-1.02,1.08s-1.02-.48-1.02-1.08,.46-1.08,1.02-1.08,1.02,.48,1.02,1.08Z" style="fill:#5e89fa;"/><ellipse cx="107.01" cy="218.46" rx="1.02" ry="1.08" style="fill:#5e89fa;"/></g><g><path d="M102.12,259.83c0,.6-.46,1.08-1.02,1.08s-1.02-.48-1.02-1.08,.46-1.08,1.02-1.08,1.02,.48,1.02,1.08Z" style="fill:#436ad1;"/><path d="M105.08,259.83c0,.6-.46,1.08-1.02,1.08s-1.02-.48-1.02-1.08,.46-1.08,1.02-1.08,1.02,.48,1.02,1.08Z" style="fill:#5e89fa;"/><path d="M108.04,259.83c0,.6-.46,1.08-1.02,1.08s-1.02-.48-1.02-1.08,.46-1.08,1.02-1.08,1.02,.48,1.02,1.08Z" style="fill:#5e89fa;"/></g></g></g><rect x="120.56" y="117.84" width="1.78" height="184.22" style="fill:#4c75e1;"/><polygon points="122.48 302.07 122.2 302.07 122.2 141.97 53.96 141.97 53.96 141.69 122.48 141.69 122.48 302.07" style="fill:#1c2a4d;"/><rect x="118.57" y="207.6" width="2.15" height="11.5" style="fill:#3a5494;"/><g><polygon points="84.87 124.42 60.31 124.42 58.41 122.59 84.87 122.59 84.87 124.42" style="fill:#3a5494;"/><polygon points="84.87 127.19 60.31 127.19 58.41 125.36 84.87 125.36 84.87 127.19" style="fill:#3a5494;"/><polygon points="84.87 129.96 60.31 129.96 58.41 128.13 84.87 128.13 84.87 129.96" style="fill:#3a5494;"/><polygon points="84.87 132.73 60.31 132.73 58.41 130.89 84.87 130.89 84.87 132.73" style="fill:#3a5494;"/><polygon points="84.87 135.5 60.31 135.5 58.41 133.66 84.87 133.66 84.87 135.5" style="fill:#3a5494;"/><polygon points="84.87 138.26 60.31 138.26 58.41 136.43 84.87 136.43 84.87 138.26" style="fill:#3a5494;"/></g><g><polygon points="115.8 124.42 91.24 124.42 89.34 122.59 115.8 122.59 115.8 124.42" style="fill:#3a5494;"/><polygon points="115.8 127.19 91.24 127.19 89.34 125.36 115.8 125.36 115.8 127.19" style="fill:#3a5494;"/><polygon points="115.8 129.96 91.24 129.96 89.34 128.13 115.8 128.13 115.8 129.96" style="fill:#3a5494;"/><polygon points="115.8 132.73 91.24 132.73 89.34 130.89 115.8 130.89 115.8 132.73" style="fill:#3a5494;"/><polygon points="115.8 135.5 91.24 135.5 89.34 133.66 115.8 133.66 115.8 135.5" style="fill:#3a5494;"/><polygon points="115.8 138.26 91.24 138.26 89.34 136.43 115.8 136.43 115.8 138.26" style="fill:#3a5494;"/></g><g><g><path d="M142.01,155.8h-16.9v-11.25h16.9v11.25Zm-16.71-.19h16.53v-10.88h-16.53v10.88Z" style="fill:#5e89fa;"/><path d="M142.01,171.4h-16.9v-11.25h16.9v11.25Zm-16.71-.19h16.53v-10.88h-16.53v10.88Z" style="fill:#5e89fa;"/></g><g><path d="M142.01,187.8h-16.9v-11.25h16.9v11.25Zm-16.71-.19h16.53v-10.88h-16.53v10.88Z" style="fill:#5e89fa;"/><path d="M142.01,203.4h-16.9v-11.25h16.9v11.25Zm-16.71-.19h16.53v-10.88h-16.53v10.88Z" style="fill:#5e89fa;"/><path d="M142.01,290.12h-16.9v-80.73h16.9v80.73Zm-16.71-.19h16.53v-80.36h-16.53v80.36Z" style="fill:#5e89fa;"/></g></g></g><g><g><path d="M69.46,302.1h75.7c.91,0,1.65,.74,1.65,1.65v20.17c0,.91-.74,1.65-1.65,1.65H69.46c-.91,0-1.65-.74-1.65-1.65v-20.17c0-.91,.74-1.65,1.65-1.65Z" style="fill:#263b71;"/><path d="M123.37,302c-13.22,.02-59.59,.08-71.35,.09-1.21,0-2.17,.96-2.17,2.14v19.18c0,1.18,.96,2.14,2.17,2.14,11.83,.02,57.65,.15,71.35,.19,1.21,0,2.18-.96,2.18-2.14v-19.46c0-1.18-.97-2.14-2.18-2.14Z" style="fill:#3452a1;"/></g><rect x="53.87" y="301.67" width="90.68" height=".38" style="fill:#1c2a4d;"/><path d="M73.53,308.08h-18.92c-.84,0-1.53-.69-1.53-1.53h0c0-.84,.69-1.53,1.53-1.53h18.92c.84,0,1.53,.69,1.53,1.53h0c0,.84-.69,1.53-1.53,1.53Z" style="fill:#5e89fa;"/></g></g><g><g><rect x="451.21" y="117.84" width="23.94" height="184.22" transform="translate(926.37 419.91) rotate(180)" style="fill:#3858ae;"/><g><rect x="474.99" y="117.86" width="66.83" height="184.22" transform="translate(1016.81 419.94) rotate(180)" style="fill:#6394fb;"/><rect x="479.52" y="144.46" width="57.76" height="145.97" transform="translate(1016.81 434.88) rotate(180)" style="fill:#3a5494;"/><path d="M539.51,205.96h0c.54,0,.98-.44,.98-.98v-16.2c0-.54-.44-.98-.98-.98h0c-.54,0-.98,.44-.98,.98v16.2c0,.54,.44,.98,.98,.98Z" style="fill:#3a5494;"/><rect x="475" y="158.75" width="2.15" height="11.5" transform="translate(952.14 328.99) rotate(180)" style="fill:#3a5494;"/><rect x="475" y="259.98" width="2.15" height="11.5" transform="translate(952.14 531.45) rotate(180)" style="fill:#3a5494;"/><g><rect x="480.91" y="167.33" width="54.05" height="17.76" transform="translate(1015.87 352.41) rotate(180)" style="fill:#5e89fa;"/><rect x="480.91" y="187.99" width="54.05" height="17.76" transform="translate(1015.87 393.74) rotate(180)" style="fill:#5e89fa;"/><rect x="480.91" y="208.66" width="54.05" height="17.76" transform="translate(1015.87 435.07) rotate(180)" style="fill:#5e89fa;"/><rect x="480.91" y="229.32" width="54.05" height="17.76" transform="translate(1015.87 476.4) rotate(180)" style="fill:#5e89fa;"/><rect x="480.91" y="249.99" width="54.05" height="17.76" transform="translate(1015.87 517.73) rotate(180)" style="fill:#5e89fa;"/><rect x="480.91" y="270.65" width="54.05" height="17.76" transform="translate(1015.87 559.06) rotate(180)" style="fill:#5e89fa;"/><g><rect x="480.91" y="146.66" width="54.05" height="17.76" transform="translate(1015.87 311.08) rotate(180)" style="fill:#5e89fa;"/><g><rect x="486.04" y="151.27" width="44.55" height="8.83" transform="translate(1016.62 311.37) rotate(180)" style="fill:#3a5494;"/><g><rect x="496.83" y="153.68" width="31.95" height="4.05" transform="translate(1025.61 311.42) rotate(180)" style="fill:#76bcfc;"/><g><path d="M493.6,155.71c0,.6,.46,1.08,1.02,1.08s1.02-.48,1.02-1.08-.46-1.08-1.02-1.08-1.02,.48-1.02,1.08Z" style="fill:#436ad1;"/><ellipse cx="491.66" cy="155.71" rx="1.02" ry="1.08" style="fill:#5e89fa;"/><path d="M487.68,155.71c0,.6,.46,1.08,1.02,1.08s1.02-.48,1.02-1.08-.46-1.08-1.02-1.08-1.02,.48-1.02,1.08Z" style="fill:#5e89fa;"/></g></g></g></g><g><rect x="486.04" y="172.17" width="44.55" height="8.83" transform="translate(1016.62 353.16) rotate(180)" style="fill:#3a5494;"/><rect x="496.83" y="174.58" width="31.95" height="4.05" transform="translate(1025.61 353.21) rotate(180)" style="fill:#76bcfc;"/></g><g><rect x="486.04" y="193.06" width="44.55" height="8.83" transform="translate(1016.62 394.95) rotate(180)" style="fill:#3a5494;"/><rect x="496.83" y="195.48" width="31.95" height="4.05" transform="translate(1025.61 395) rotate(180)" style="fill:#76bcfc;"/></g><g><rect x="486.04" y="213.96" width="44.55" height="8.83" transform="translate(1016.62 436.75) rotate(180)" style="fill:#3a5494;"/><rect x="496.83" y="216.38" width="31.95" height="4.05" transform="translate(1025.61 436.8) rotate(180)" style="fill:#76bcfc;"/></g><g><rect x="486.04" y="234.31" width="44.55" height="8.83" transform="translate(1016.62 477.45) rotate(180)" style="fill:#3a5494;"/><rect x="496.83" y="236.72" width="31.95" height="4.05" transform="translate(1025.61 477.5) rotate(180)" style="fill:#76bcfc;"/><g><path d="M493.6,238.83c0,.6,.46,1.08,1.02,1.08s1.02-.48,1.02-1.08-.46-1.08-1.02-1.08-1.02,.48-1.02,1.08Z" style="fill:#436ad1;"/><ellipse cx="491.66" cy="238.83" rx="1.02" ry="1.08" style="fill:#5e89fa;"/><path d="M487.68,238.83c0,.6,.46,1.08,1.02,1.08s1.02-.48,1.02-1.08-.46-1.08-1.02-1.08-1.02,.48-1.02,1.08Z" style="fill:#5e89fa;"/></g></g><g><rect x="486.04" y="255.29" width="44.55" height="8.83" transform="translate(1016.62 519.4) rotate(180)" style="fill:#3a5494;"/><rect x="496.83" y="257.7" width="31.95" height="4.05" transform="translate(1025.61 519.45) rotate(180)" style="fill:#76bcfc;"/></g><g><rect x="486.04" y="275.79" width="44.55" height="8.83" transform="translate(1016.62 560.41) rotate(180)" style="fill:#3a5494;"/><rect x="496.83" y="278.2" width="31.95" height="4.05" transform="translate(1025.61 560.46) rotate(180)" style="fill:#76bcfc;"/><g><path d="M493.6,280.35c0,.6,.46,1.08,1.02,1.08s1.02-.48,1.02-1.08-.46-1.08-1.02-1.08-1.02,.48-1.02,1.08Z" style="fill:#436ad1;"/><path d="M490.64,280.35c0,.6,.46,1.08,1.02,1.08s1.02-.48,1.02-1.08-.46-1.08-1.02-1.08-1.02,.48-1.02,1.08Z" style="fill:#5e89fa;"/><path d="M487.68,280.35c0,.6,.46,1.08,1.02,1.08s1.02-.48,1.02-1.08-.46-1.08-1.02-1.08-1.02,.48-1.02,1.08Z" style="fill:#5e89fa;"/></g></g><g><path d="M493.6,176.78c0,.6,.46,1.08,1.02,1.08s1.02-.48,1.02-1.08-.46-1.08-1.02-1.08-1.02,.48-1.02,1.08Z" style="fill:#436ad1;"/><path d="M490.64,176.78c0,.6,.46,1.08,1.02,1.08s1.02-.48,1.02-1.08-.46-1.08-1.02-1.08-1.02,.48-1.02,1.08Z" style="fill:#5e89fa;"/><path d="M487.68,176.78c0,.6,.46,1.08,1.02,1.08s1.02-.48,1.02-1.08-.46-1.08-1.02-1.08-1.02,.48-1.02,1.08Z" style="fill:#5e89fa;"/></g><g><path d="M493.6,197.45c0,.6,.46,1.08,1.02,1.08s1.02-.48,1.02-1.08-.46-1.08-1.02-1.08-1.02,.48-1.02,1.08Z" style="fill:#436ad1;"/><path d="M490.64,197.45c0,.6,.46,1.08,1.02,1.08s1.02-.48,1.02-1.08-.46-1.08-1.02-1.08-1.02,.48-1.02,1.08Z" style="fill:#5e89fa;"/><path d="M487.68,197.45c0,.6,.46,1.08,1.02,1.08s1.02-.48,1.02-1.08-.46-1.08-1.02-1.08-1.02,.48-1.02,1.08Z" style="fill:#5e89fa;"/></g><g><path d="M493.6,218.46c0,.6,.46,1.08,1.02,1.08s1.02-.48,1.02-1.08-.46-1.08-1.02-1.08-1.02,.48-1.02,1.08Z" style="fill:#436ad1;"/><ellipse cx="491.66" cy="218.46" rx="1.02" ry="1.08" style="fill:#5e89fa;"/><path d="M487.68,218.46c0,.6,.46,1.08,1.02,1.08s1.02-.48,1.02-1.08-.46-1.08-1.02-1.08-1.02,.48-1.02,1.08Z" style="fill:#5e89fa;"/></g><g><path d="M493.6,259.83c0,.6,.46,1.08,1.02,1.08s1.02-.48,1.02-1.08-.46-1.08-1.02-1.08-1.02,.48-1.02,1.08Z" style="fill:#436ad1;"/><path d="M490.64,259.83c0,.6,.46,1.08,1.02,1.08s1.02-.48,1.02-1.08-.46-1.08-1.02-1.08-1.02,.48-1.02,1.08Z" style="fill:#5e89fa;"/><path d="M487.68,259.83c0,.6,.46,1.08,1.02,1.08s1.02-.48,1.02-1.08-.46-1.08-1.02-1.08-1.02,.48-1.02,1.08Z" style="fill:#5e89fa;"/></g></g></g><rect x="473.37" y="117.84" width="1.78" height="184.22" transform="translate(948.53 419.91) rotate(180)" style="fill:#4c75e1;"/><polygon points="473.52 302.07 473.23 302.07 473.23 141.69 541.76 141.69 541.76 141.97 473.52 141.97 473.52 302.07" style="fill:#1c2a4d;"/><rect x="475" y="207.6" width="2.15" height="11.5" transform="translate(952.14 426.69) rotate(180)" style="fill:#3a5494;"/><g><polygon points="510.85 124.42 535.41 124.42 537.31 122.59 510.85 122.59 510.85 124.42" style="fill:#3a5494;"/><polygon points="510.85 127.19 535.41 127.19 537.31 125.36 510.85 125.36 510.85 127.19" style="fill:#3a5494;"/><polygon points="510.85 129.96 535.41 129.96 537.31 128.13 510.85 128.13 510.85 129.96" style="fill:#3a5494;"/><polygon points="510.85 132.73 535.41 132.73 537.31 130.89 510.85 130.89 510.85 132.73" style="fill:#3a5494;"/><polygon points="510.85 135.5 535.41 135.5 537.31 133.66 510.85 133.66 510.85 135.5" style="fill:#3a5494;"/><polygon points="510.85 138.26 535.41 138.26 537.31 136.43 510.85 136.43 510.85 138.26" style="fill:#3a5494;"/></g><g><polygon points="479.92 124.42 504.48 124.42 506.38 122.59 479.92 122.59 479.92 124.42" style="fill:#3a5494;"/><polygon points="479.92 127.19 504.48 127.19 506.38 125.36 479.92 125.36 479.92 127.19" style="fill:#3a5494;"/><polygon points="479.92 129.96 504.48 129.96 506.38 128.13 479.92 128.13 479.92 129.96" style="fill:#3a5494;"/><polygon points="479.92 132.73 504.48 132.73 506.38 130.89 479.92 130.89 479.92 132.73" style="fill:#3a5494;"/><polygon points="479.92 135.5 504.48 135.5 506.38 133.66 479.92 133.66 479.92 135.5" style="fill:#3a5494;"/><polygon points="479.92 138.26 504.48 138.26 506.38 136.43 479.92 136.43 479.92 138.26" style="fill:#3a5494;"/></g><g><g><path d="M470.61,155.8h-16.9v-11.25h16.9v11.25Zm-16.72-.19h16.53v-10.88h-16.53v10.88Z" style="fill:#5e89fa;"/><path d="M470.61,171.4h-16.9v-11.25h16.9v11.25Zm-16.72-.19h16.53v-10.88h-16.53v10.88Z" style="fill:#5e89fa;"/></g><g><path d="M470.61,187.8h-16.9v-11.25h16.9v11.25Zm-16.72-.19h16.53v-10.88h-16.53v10.88Z" style="fill:#5e89fa;"/><path d="M470.61,203.4h-16.9v-11.25h16.9v11.25Zm-16.72-.19h16.53v-10.88h-16.53v10.88Z" style="fill:#5e89fa;"/><path d="M470.61,290.12h-16.9v-80.73h16.9v80.73Zm-16.72-.19h16.53v-80.36h-16.53v80.36Z" style="fill:#5e89fa;"/></g></g></g><g><g><path d="M450.55,302.1h75.71c.91,0,1.65,.74,1.65,1.65v20.17c0,.91-.74,1.65-1.65,1.65h-75.7c-.91,0-1.65-.74-1.65-1.65v-20.17c0-.91,.74-1.65,1.65-1.65Z" style="fill:#263b71;"/><path d="M472.35,302c13.22,.02,59.59,.08,71.35,.09,1.21,0,2.17,.96,2.17,2.14v19.18c0,1.18-.96,2.14-2.17,2.14-11.83,.02-57.65,.15-71.35,.19-1.21,0-2.18-.96-2.18-2.14v-19.46c0-1.18,.97-2.14,2.18-2.14Z" style="fill:#3452a1;"/></g><rect x="451.17" y="301.67" width="90.68" height=".38" style="fill:#1c2a4d;"/><path d="M522.18,308.08h18.92c.84,0,1.53-.69,1.53-1.53h0c0-.84-.69-1.53-1.53-1.53h-18.92c-.84,0-1.53,.69-1.53,1.53h0c0,.84,.69,1.53,1.53,1.53Z" style="fill:#5e89fa;"/></g></g><g><g><rect x="212.33" y="84.97" width="27.73" height="213.35" style="fill:#3858ae;"/><g><rect x="135.13" y="84.98" width="77.39" height="213.35" style="fill:#6394fb;"/><rect x="140.38" y="115.79" width="66.89" height="169.05" style="fill:#3a5494;"/><path d="M137.8,187.02h0c-.63,0-1.14-.51-1.14-1.14v-18.76c0-.63,.51-1.14,1.14-1.14h0c.63,0,1.14,.51,1.14,1.14v18.76c0,.63-.51,1.14-1.14,1.14Z" style="fill:#3a5494;"/><rect x="210.03" y="132.34" width="2.49" height="13.31" style="fill:#3a5494;"/><rect x="210.03" y="249.58" width="2.49" height="13.31" style="fill:#3a5494;"/><g><rect x="143.07" y="142.28" width="62.59" height="20.57" style="fill:#5e89fa;"/><rect x="143.07" y="166.21" width="62.59" height="20.57" style="fill:#5e89fa;"/><rect x="143.07" y="190.14" width="62.59" height="20.57" style="fill:#5e89fa;"/><rect x="143.07" y="214.07" width="62.59" height="20.57" style="fill:#5e89fa;"/><rect x="143.07" y="238.01" width="62.59" height="20.57" style="fill:#5e89fa;"/><rect x="143.07" y="261.94" width="62.59" height="20.57" style="fill:#5e89fa;"/><g><rect x="143.07" y="118.34" width="62.59" height="20.57" style="fill:#5e89fa;"/><g><rect x="148.14" y="123.68" width="51.6" height="10.22" style="fill:#3a5494;"/><g><rect x="150.23" y="126.48" width="37" height="4.69" style="fill:#76bcfc;"/><g><ellipse cx="189.79" cy="128.82" rx="1.19" ry="1.25" style="fill:#436ad1;"/><ellipse cx="193.22" cy="128.82" rx="1.19" ry="1.25" style="fill:#5e89fa;"/><ellipse cx="196.65" cy="128.82" rx="1.19" ry="1.25" style="fill:#5e89fa;"/></g></g></g></g><g><rect x="148.14" y="147.88" width="51.6" height="10.22" style="fill:#3a5494;"/><rect x="150.23" y="150.68" width="37" height="4.69" style="fill:#76bcfc;"/></g><g><rect x="148.14" y="172.08" width="51.6" height="10.22" style="fill:#3a5494;"/><rect x="150.23" y="174.88" width="37" height="4.69" style="fill:#76bcfc;"/></g><g><rect x="148.14" y="196.28" width="51.6" height="10.22" style="fill:#3a5494;"/><rect x="150.23" y="199.08" width="37" height="4.69" style="fill:#76bcfc;"/></g><g><rect x="148.14" y="219.85" width="51.6" height="10.22" style="fill:#3a5494;"/><rect x="150.23" y="222.65" width="37" height="4.69" style="fill:#76bcfc;"/><g><ellipse cx="189.79" cy="225.09" rx="1.19" ry="1.25" style="fill:#436ad1;"/><ellipse cx="193.22" cy="225.09" rx="1.19" ry="1.25" style="fill:#5e89fa;"/><ellipse cx="196.65" cy="225.09" rx="1.19" ry="1.25" style="fill:#5e89fa;"/></g></g><g><rect x="148.14" y="244.14" width="51.6" height="10.22" style="fill:#3a5494;"/><rect x="150.23" y="246.94" width="37" height="4.69" style="fill:#76bcfc;"/></g><g><rect x="148.14" y="267.89" width="51.6" height="10.22" style="fill:#3a5494;"/><rect x="150.23" y="270.69" width="37" height="4.69" style="fill:#76bcfc;"/><g><path d="M190.97,273.17c0,.69-.53,1.25-1.19,1.25s-1.19-.56-1.19-1.25,.53-1.25,1.19-1.25,1.19,.56,1.19,1.25Z" style="fill:#436ad1;"/><path d="M194.4,273.17c0,.69-.53,1.25-1.19,1.25s-1.19-.56-1.19-1.25,.53-1.25,1.19-1.25,1.19,.56,1.19,1.25Z" style="fill:#5e89fa;"/><path d="M197.83,273.17c0,.69-.53,1.25-1.19,1.25s-1.19-.56-1.19-1.25,.53-1.25,1.19-1.25,1.19,.56,1.19,1.25Z" style="fill:#5e89fa;"/></g></g><g><ellipse cx="189.79" cy="153.22" rx="1.19" ry="1.25" style="fill:#436ad1;"/><ellipse cx="193.22" cy="153.22" rx="1.19" ry="1.25" style="fill:#5e89fa;"/><ellipse cx="196.65" cy="153.22" rx="1.19" ry="1.25" style="fill:#5e89fa;"/></g><g><path d="M190.97,177.16c0,.69-.53,1.25-1.19,1.25s-1.19-.56-1.19-1.25,.53-1.25,1.19-1.25,1.19,.56,1.19,1.25Z" style="fill:#436ad1;"/><path d="M194.4,177.16c0,.69-.53,1.25-1.19,1.25s-1.19-.56-1.19-1.25,.53-1.25,1.19-1.25,1.19,.56,1.19,1.25Z" style="fill:#5e89fa;"/><path d="M197.83,177.16c0,.69-.53,1.25-1.19,1.25s-1.19-.56-1.19-1.25,.53-1.25,1.19-1.25,1.19,.56,1.19,1.25Z" style="fill:#5e89fa;"/></g><g><ellipse cx="189.79" cy="201.5" rx="1.19" ry="1.25" style="fill:#436ad1;"/><ellipse cx="193.22" cy="201.5" rx="1.19" ry="1.25" style="fill:#5e89fa;"/><ellipse cx="196.65" cy="201.5" rx="1.19" ry="1.25" style="fill:#5e89fa;"/></g><g><ellipse cx="189.79" cy="249.4" rx="1.19" ry="1.25" style="fill:#436ad1;"/><ellipse cx="193.22" cy="249.4" rx="1.19" ry="1.25" style="fill:#5e89fa;"/><ellipse cx="196.65" cy="249.4" rx="1.19" ry="1.25" style="fill:#5e89fa;"/></g></g></g><rect x="212.33" y="84.97" width="2.06" height="213.35" style="fill:#4c75e1;"/><polygon points="214.56 298.32 214.23 298.32 214.23 112.91 135.2 112.91 135.2 112.58 214.56 112.58 214.56 298.32" style="fill:#1c2a4d;"/><rect x="210.03" y="188.92" width="2.49" height="13.31" style="fill:#3a5494;"/><g><polygon points="171 92.59 142.55 92.59 140.35 90.47 171 90.47 171 92.59" style="fill:#3a5494;"/><polygon points="171 95.79 142.55 95.79 140.35 93.67 171 93.67 171 95.79" style="fill:#3a5494;"/><polygon points="171 99 142.55 99 140.35 96.88 171 96.88 171 99" style="fill:#3a5494;"/><polygon points="171 102.21 142.55 102.21 140.35 100.08 171 100.08 171 102.21" style="fill:#3a5494;"/><polygon points="171 105.41 142.55 105.41 140.35 103.29 171 103.29 171 105.41" style="fill:#3a5494;"/><polygon points="171 108.62 142.55 108.62 140.35 106.49 171 106.49 171 108.62" style="fill:#3a5494;"/></g><g><polygon points="206.82 92.59 178.37 92.59 176.17 90.47 206.82 90.47 206.82 92.59" style="fill:#3a5494;"/><polygon points="206.82 95.79 178.37 95.79 176.17 93.67 206.82 93.67 206.82 95.79" style="fill:#3a5494;"/><polygon points="206.82 99 178.37 99 176.17 96.88 206.82 96.88 206.82 99" style="fill:#3a5494;"/><polygon points="206.82 102.21 178.37 102.21 176.17 100.08 206.82 100.08 206.82 102.21" style="fill:#3a5494;"/><polygon points="206.82 105.41 178.37 105.41 176.17 103.29 206.82 103.29 206.82 105.41" style="fill:#3a5494;"/><polygon points="206.82 108.62 178.37 108.62 176.17 106.49 206.82 106.49 206.82 108.62" style="fill:#3a5494;"/></g><g><g><rect x="217.7" y="116" width="19.36" height="12.82" style="fill:#466fe1;"/><rect x="217.7" y="134.07" width="19.36" height="12.82" style="fill:#466fe1;"/></g><g><rect x="217.7" y="153.06" width="19.36" height="12.82" style="fill:#466fe1;"/><rect x="217.7" y="171.13" width="19.36" height="12.82" style="fill:#466fe1;"/><rect x="217.7" y="191.09" width="19.36" height="93.28" style="fill:#466fe1;"/></g></g></g><g><g><path d="M153.15,298.36h87.67c1.05,0,1.91,.86,1.91,1.91v23.35c0,1.05-.85,1.91-1.91,1.91h-87.67c-1.05,0-1.91-.86-1.91-1.91v-23.35c0-1.05,.85-1.91,1.91-1.91Z" style="fill:#263b71;"/><path d="M215.58,298.25c-15.31,.02-69.01,.09-82.64,.11-1.4,0-2.51,1.11-2.51,2.48v22.22c0,1.37,1.12,2.48,2.51,2.48,13.7,.03,66.77,.18,82.64,.22,1.4,0,2.53-1.11,2.53-2.48v-22.54c0-1.37-1.13-2.48-2.53-2.48Z" style="fill:#3452a1;"/></g><rect x="135.09" y="297.87" width="105.02" height=".44" style="fill:#1c2a4d;"/><rect x="134.18" y="301.73" width="25.46" height="3.55" rx="1.78" ry="1.78" style="fill:#5e89fa;"/></g></g><g><g><rect x="353.47" y="84.97" width="27.73" height="213.35" transform="translate(734.67 383.29) rotate(180)" style="fill:#3858ae;"/><g><rect x="381.01" y="84.98" width="77.39" height="213.35" transform="translate(839.42 383.32) rotate(180)" style="fill:#6394fb;"/><rect x="386.26" y="115.79" width="66.89" height="169.05" transform="translate(839.42 400.63) rotate(180)" style="fill:#3a5494;"/><path d="M455.74,187.02h0c.63,0,1.14-.51,1.14-1.14v-18.76c0-.63-.51-1.14-1.14-1.14h0c-.63,0-1.14,.51-1.14,1.14v18.76c0,.63,.51,1.14,1.14,1.14Z" style="fill:#3a5494;"/><rect x="381.02" y="132.34" width="2.49" height="13.31" transform="translate(764.53 277.99) rotate(180)" style="fill:#3a5494;"/><rect x="381.02" y="249.58" width="2.49" height="13.31" transform="translate(764.53 512.47) rotate(180)" style="fill:#3a5494;"/><g><rect x="387.87" y="142.28" width="62.59" height="20.57" transform="translate(838.33 305.12) rotate(180)" style="fill:#5e89fa;"/><rect x="387.87" y="166.21" width="62.59" height="20.57" transform="translate(838.33 352.98) rotate(180)" style="fill:#5e89fa;"/><rect x="387.87" y="190.14" width="62.59" height="20.57" transform="translate(838.33 400.85) rotate(180)" style="fill:#5e89fa;"/><rect x="387.87" y="214.07" width="62.59" height="20.57" transform="translate(838.33 448.71) rotate(180)" style="fill:#5e89fa;"/><rect x="387.87" y="238.01" width="62.59" height="20.57" transform="translate(838.33 496.58) rotate(180)" style="fill:#5e89fa;"/><rect x="387.87" y="261.94" width="62.59" height="20.57" transform="translate(838.33 544.44) rotate(180)" style="fill:#5e89fa;"/><g><rect x="387.87" y="118.34" width="62.59" height="20.57" transform="translate(838.33 257.25) rotate(180)" style="fill:#5e89fa;"/><g><rect x="393.8" y="123.68" width="51.6" height="10.22" transform="translate(839.2 257.58) rotate(180)" style="fill:#3a5494;"/><g><rect x="406.31" y="126.48" width="37" height="4.69" transform="translate(849.61 257.64) rotate(180)" style="fill:#76bcfc;"/><g><ellipse cx="403.75" cy="128.82" rx="1.19" ry="1.25" style="fill:#436ad1;"/><ellipse cx="400.32" cy="128.82" rx="1.19" ry="1.25" style="fill:#5e89fa;"/><ellipse cx="396.89" cy="128.82" rx="1.19" ry="1.25" style="fill:#5e89fa;"/></g></g></g></g><g><rect x="393.8" y="147.88" width="51.6" height="10.22" transform="translate(839.2 305.99) rotate(180)" style="fill:#3a5494;"/><rect x="406.31" y="150.68" width="37" height="4.69" transform="translate(849.61 306.04) rotate(180)" style="fill:#76bcfc;"/></g><g><rect x="393.8" y="172.08" width="51.6" height="10.22" transform="translate(839.2 354.39) rotate(180)" style="fill:#3a5494;"/><rect x="406.31" y="174.88" width="37" height="4.69" transform="translate(849.61 354.45) rotate(180)" style="fill:#76bcfc;"/></g><g><rect x="393.8" y="196.28" width="51.6" height="10.22" transform="translate(839.2 402.79) rotate(180)" style="fill:#3a5494;"/><rect x="406.31" y="199.08" width="37" height="4.69" transform="translate(849.61 402.85) rotate(180)" style="fill:#5e89fa;"/></g><g><rect x="393.8" y="219.85" width="51.6" height="10.22" transform="translate(839.2 449.92) rotate(180)" style="fill:#3a5494;"/><rect x="406.31" y="222.65" width="37" height="4.69" transform="translate(849.61 449.98) rotate(180)" style="fill:#5e89fa;"/><g><ellipse cx="403.75" cy="225.09" rx="1.19" ry="1.25" style="fill:#436ad1;"/><ellipse cx="400.32" cy="225.09" rx="1.19" ry="1.25" style="fill:#5e89fa;"/><ellipse cx="396.89" cy="225.09" rx="1.19" ry="1.25" style="fill:#5e89fa;"/></g></g><g><rect x="393.8" y="244.14" width="51.6" height="10.22" transform="translate(839.2 498.51) rotate(180)" style="fill:#3a5494;"/><rect x="406.31" y="246.94" width="37" height="4.69" transform="translate(849.61 498.56) rotate(180)" style="fill:#5e89fa;"/></g><g><rect x="393.8" y="267.89" width="51.6" height="10.22" transform="translate(839.2 546) rotate(180)" style="fill:#3a5494;"/><rect x="406.31" y="270.69" width="37" height="4.69" transform="translate(849.61 546.06) rotate(180)" style="fill:#5e89fa;"/><g><path d="M402.56,273.17c0,.69,.53,1.25,1.19,1.25s1.19-.56,1.19-1.25-.53-1.25-1.19-1.25-1.19,.56-1.19,1.25Z" style="fill:#436ad1;"/><path d="M399.13,273.17c0,.69,.53,1.25,1.19,1.25s1.19-.56,1.19-1.25-.53-1.25-1.19-1.25-1.19,.56-1.19,1.25Z" style="fill:#5e89fa;"/><path d="M395.7,273.17c0,.69,.53,1.25,1.19,1.25s1.19-.56,1.19-1.25-.53-1.25-1.19-1.25-1.19,.56-1.19,1.25Z" style="fill:#5e89fa;"/></g></g><g><ellipse cx="403.75" cy="153.22" rx="1.19" ry="1.25" style="fill:#436ad1;"/><ellipse cx="400.32" cy="153.22" rx="1.19" ry="1.25" style="fill:#5e89fa;"/><ellipse cx="396.89" cy="153.22" rx="1.19" ry="1.25" style="fill:#5e89fa;"/></g><g><path d="M402.56,177.16c0,.69,.53,1.25,1.19,1.25s1.19-.56,1.19-1.25-.53-1.25-1.19-1.25-1.19,.56-1.19,1.25Z" style="fill:#436ad1;"/><path d="M399.13,177.16c0,.69,.53,1.25,1.19,1.25s1.19-.56,1.19-1.25-.53-1.25-1.19-1.25-1.19,.56-1.19,1.25Z" style="fill:#5e89fa;"/><path d="M395.7,177.16c0,.69,.53,1.25,1.19,1.25s1.19-.56,1.19-1.25-.53-1.25-1.19-1.25-1.19,.56-1.19,1.25Z" style="fill:#5e89fa;"/></g><g><ellipse cx="403.75" cy="201.5" rx="1.19" ry="1.25" style="fill:#436ad1;"/><ellipse cx="400.32" cy="201.5" rx="1.19" ry="1.25" style="fill:#5e89fa;"/><ellipse cx="396.89" cy="201.5" rx="1.19" ry="1.25" style="fill:#5e89fa;"/></g><g><ellipse cx="403.75" cy="249.4" rx="1.19" ry="1.25" style="fill:#436ad1;"/><ellipse cx="400.32" cy="249.4" rx="1.19" ry="1.25" style="fill:#5e89fa;"/><ellipse cx="396.89" cy="249.4" rx="1.19" ry="1.25" style="fill:#5e89fa;"/></g></g></g><rect x="379.14" y="84.97" width="2.06" height="213.35" transform="translate(760.34 383.29) rotate(180)" style="fill:#4c75e1;"/><polygon points="379.3 298.32 378.98 298.32 378.98 112.58 458.34 112.58 458.34 112.91 379.3 112.91 379.3 298.32" style="fill:#1c2a4d;"/><rect x="381.02" y="188.92" width="2.49" height="13.31" transform="translate(764.53 391.15) rotate(180)" style="fill:#3a5494;"/><g><polygon points="422.54 92.59 450.98 92.59 453.18 90.47 422.54 90.47 422.54 92.59" style="fill:#3a5494;"/><polygon points="422.54 95.79 450.98 95.79 453.18 93.67 422.54 93.67 422.54 95.79" style="fill:#3a5494;"/><polygon points="422.54 99 450.98 99 453.18 96.88 422.54 96.88 422.54 99" style="fill:#3a5494;"/><polygon points="422.54 102.21 450.98 102.21 453.18 100.08 422.54 100.08 422.54 102.21" style="fill:#3a5494;"/><polygon points="422.54 105.41 450.98 105.41 453.18 103.29 422.54 103.29 422.54 105.41" style="fill:#3a5494;"/><polygon points="422.54 108.62 450.98 108.62 453.18 106.49 422.54 106.49 422.54 108.62" style="fill:#3a5494;"/></g><g><polygon points="386.72 92.59 415.16 92.59 417.36 90.47 386.72 90.47 386.72 92.59" style="fill:#3a5494;"/><polygon points="386.72 95.79 415.16 95.79 417.36 93.67 386.72 93.67 386.72 95.79" style="fill:#3a5494;"/><polygon points="386.72 99 415.16 99 417.36 96.88 386.72 96.88 386.72 99" style="fill:#3a5494;"/><polygon points="386.72 102.21 415.16 102.21 417.36 100.08 386.72 100.08 386.72 102.21" style="fill:#3a5494;"/><polygon points="386.72 105.41 415.16 105.41 417.36 103.29 386.72 103.29 386.72 105.41" style="fill:#3a5494;"/><polygon points="386.72 108.62 415.16 108.62 417.36 106.49 386.72 106.49 386.72 108.62" style="fill:#3a5494;"/></g><g><g><rect x="356.47" y="116" width="19.36" height="12.82" transform="translate(732.31 244.82) rotate(180)" style="fill:#466fe1;"/><rect x="356.47" y="134.07" width="19.36" height="12.82" transform="translate(732.31 280.96) rotate(180)" style="fill:#466fe1;"/></g><g><rect x="356.47" y="153.06" width="19.36" height="12.82" transform="translate(732.31 318.94) rotate(180)" style="fill:#466fe1;"/><rect x="356.47" y="171.13" width="19.36" height="12.82" transform="translate(732.31 355.07) rotate(180)" style="fill:#466fe1;"/><rect x="356.47" y="191.09" width="19.36" height="93.28" transform="translate(732.31 475.47) rotate(180)" style="fill:#466fe1;"/></g></g></g><g><g><path d="M352.71,298.36h87.67c1.05,0,1.91,.86,1.91,1.91v23.35c0,1.05-.85,1.91-1.91,1.91h-87.68c-1.05,0-1.91-.85-1.91-1.91v-23.35c0-1.05,.86-1.91,1.91-1.91Z" style="fill:#263b71;"/><path d="M377.95,298.25c15.31,.02,69.01,.09,82.64,.11,1.4,0,2.51,1.11,2.51,2.48v22.22c0,1.37-1.12,2.48-2.51,2.48-13.7,.03-66.77,.18-82.64,.22-1.4,0-2.53-1.11-2.53-2.48v-22.54c0-1.37,1.13-2.48,2.53-2.48Z" style="fill:#3452a1;"/></g><rect x="353.42" y="297.87" width="105.02" height=".44" style="fill:#1c2a4d;"/></g></g><g><g><g><rect x="243.4" y="72.89" width="106.45" height="224.07" style="fill:#6394fb;"/><rect x="250.45" y="105.24" width="89.85" height="177.55" style="fill:#3a5494;"/><rect x="245.45" y="157.96" width="3.06" height="22.09" rx="1.35" ry="1.35" style="fill:#3a5494;"/><g><rect x="254.07" y="133.06" width="84.07" height="21.6" style="fill:#5e89fa;"/><rect x="254.07" y="158.19" width="84.07" height="21.6" style="fill:#5e89fa;"/><rect x="254.07" y="183.33" width="84.07" height="21.6" style="fill:#5e89fa;"/><rect x="254.07" y="208.46" width="84.07" height="21.6" style="fill:#5e89fa;"/><rect x="254.07" y="233.6" width="84.07" height="21.6" style="fill:#5e89fa;"/><rect x="254.07" y="258.73" width="84.07" height="21.6" style="fill:#5e89fa;"/><g><rect x="254.07" y="107.92" width="84.07" height="21.6" style="fill:#5e89fa;"/><g><rect x="260.87" y="113.53" width="69.3" height="10.73" style="fill:#3a5494;"/><g><rect x="263.68" y="116.47" width="49.69" height="4.92" style="fill:#76bcfc;"/><g><ellipse cx="316.81" cy="118.93" rx="1.59" ry="1.64" style="fill:#76bcfc;"/><ellipse cx="321.41" cy="118.93" rx="1.59" ry="1.64" style="fill:#76bcfc;"/><ellipse cx="326.02" cy="118.93" rx="1.59" ry="1.64" style="fill:#5e89fa;"/></g></g></g></g><g><rect x="260.87" y="138.95" width="69.3" height="10.73" style="fill:#3a5494;"/><rect x="263.68" y="141.88" width="49.69" height="4.92" style="fill:#76bcfc;"/></g><g><rect x="260.87" y="164.36" width="69.3" height="10.73" style="fill:#3a5494;"/><rect x="263.68" y="167.3" width="49.69" height="4.92" style="fill:#76bcfc;"/></g><g><rect x="260.87" y="189.78" width="69.3" height="10.73" style="fill:#3a5494;"/><rect x="263.68" y="192.72" width="49.69" height="4.92" style="fill:#76bcfc;"/></g><g><rect x="260.87" y="214.53" width="69.3" height="10.73" style="fill:#3a5494;"/><rect x="263.68" y="217.47" width="49.69" height="4.92" style="fill:#76bcfc;"/></g><g><rect x="260.87" y="240.04" width="69.3" height="10.73" style="fill:#3a5494;"/><rect x="263.68" y="242.98" width="49.69" height="4.92" style="fill:#76bcfc;"/></g><g><rect x="260.87" y="264.98" width="69.3" height="10.73" style="fill:#3a5494;"/><rect x="263.68" y="267.92" width="49.69" height="4.92" style="fill:#76bcfc;"/></g></g><g><ellipse cx="317.11" cy="144.45" rx="1.59" ry="1.64" style="fill:#436ad1;"/><ellipse cx="321.71" cy="144.45" rx="1.59" ry="1.64" style="fill:#76bcfc;"/><ellipse cx="326.32" cy="144.45" rx="1.59" ry="1.64" style="fill:#76bcfc;"/></g><g><ellipse cx="316.77" cy="169.68" rx="1.59" ry="1.64" style="fill:#76bcfc;"/><ellipse cx="321.37" cy="169.68" rx="1.59" ry="1.64" style="fill:#76bcfc;"/><ellipse cx="325.98" cy="169.68" rx="1.59" ry="1.64" style="fill:#5e89fa;"/></g><g><ellipse cx="316.77" cy="195.12" rx="1.59" ry="1.64" style="fill:#76bcfc;"/><ellipse cx="321.37" cy="195.12" rx="1.59" ry="1.64" style="fill:#76bcfc;"/><ellipse cx="325.98" cy="195.12" rx="1.59" ry="1.64" style="fill:#5e89fa;"/></g><g><ellipse cx="316.54" cy="219.84" rx="1.59" ry="1.64" style="fill:#436ad1;"/><ellipse cx="321.15" cy="219.84" rx="1.59" ry="1.64" style="fill:#76bcfc;"/><ellipse cx="325.76" cy="219.84" rx="1.59" ry="1.64" style="fill:#76bcfc;"/></g><g><ellipse cx="316.82" cy="245.29" rx="1.59" ry="1.64" style="fill:#76bcfc;"/><path d="M323.02,245.29c0,.91-.71,1.64-1.59,1.64s-1.59-.73-1.59-1.64,.71-1.64,1.59-1.64,1.59,.73,1.59,1.64Z" style="fill:#76bcfc;"/><ellipse cx="326.04" cy="245.29" rx="1.59" ry="1.64" style="fill:#5e89fa;"/></g><g><ellipse cx="316.82" cy="270.17" rx="1.59" ry="1.64" style="fill:#436ad1;"/><path d="M323.02,270.17c0,.91-.71,1.64-1.59,1.64s-1.59-.73-1.59-1.64,.71-1.64,1.59-1.64,1.59,.73,1.59,1.64Z" style="fill:#76bcfc;"/><ellipse cx="326.04" cy="270.17" rx="1.59" ry="1.64" style="fill:#76bcfc;"/></g></g><rect x="243.49" y="101.85" width="106.37" height=".39" style="fill:#1c2a4d;"/><g><rect x="251.48" y="78.65" width="40.09" height="2.23" style="fill:#3a5494;"/><rect x="251.48" y="82.01" width="40.09" height="2.23" style="fill:#3a5494;"/><rect x="251.48" y="85.38" width="40.09" height="2.23" style="fill:#3a5494;"/><rect x="251.48" y="88.75" width="40.09" height="2.23" style="fill:#3a5494;"/><rect x="251.48" y="92.11" width="40.09" height="2.23" style="fill:#3a5494;"/><rect x="251.48" y="95.48" width="40.09" height="2.23" style="fill:#3a5494;"/></g><g><rect x="299.67" y="78.65" width="40.01" height="2.23" style="fill:#3a5494;"/><rect x="299.67" y="82.01" width="40.01" height="2.23" style="fill:#3a5494;"/><rect x="299.67" y="85.38" width="40.01" height="2.23" style="fill:#3a5494;"/><rect x="299.67" y="88.75" width="40.01" height="2.23" style="fill:#3a5494;"/><rect x="299.67" y="92.11" width="40.01" height="2.23" style="fill:#3a5494;"/><rect x="299.67" y="95.48" width="40.01" height="2.23" style="fill:#3a5494;"/></g></g><g><path d="M351.45,296.87c-20.57,.02-92.68,.1-110.99,.11-1.88,0-3.38,1.17-3.38,2.61v23.33c0,1.44,1.5,2.6,3.37,2.61,18.39,.03,89.68,.19,110.99,.23,1.88,0,3.39-1.16,3.39-2.61v-23.67c0-1.44-1.51-2.61-3.39-2.61Z" style="fill:#3452a1;"/><rect x="243.35" y="296.44" width="108.11" height=".52" style="fill:#1c2a4d;"/><rect x="242.12" y="300.53" width="34.2" height="3.73" rx="1.87" ry="1.87" style="fill:#5e89fa;"/></g></g></g></g></svg>