<?xml version="1.0" encoding="UTF-8"?><svg xmlns="http://www.w3.org/2000/svg" viewBox="0 0 600 350"><g id="a"/><g id="b"/><g id="c"/><g id="d"/><g id="e"/><g id="f"/><g id="g"/><g id="h"/><g id="i"/><g id="j"><g><g><rect x="81.78" y="315.62" width="9.55" height="7.02" style="fill:#162840;"/><rect x="187.9" y="315.62" width="9.55" height="7.02" style="fill:#162840;"/></g><rect x="66.14" y="32.55" width="157.21" height="284.75" rx="5.17" ry="5.17" style="fill:#2f384d;"/><g style="opacity:.4;"><path d="M218.17,32.55H71.31c-2.46,0-4.51,1.72-5.03,4.02,.5-.16,1.03-.27,1.59-.27H214.73c2.86,0,5.17,2.32,5.17,5.17V315.88c0,.4-.05,.78-.14,1.15,2.08-.67,3.59-2.6,3.59-4.9V37.72c0-2.86-2.31-5.17-5.17-5.17Z" style="fill:#606b82;"/></g><rect x="66.14" y="92.62" width="157.21" height="4.47" style="fill:#606b82; opacity:.2;"/><rect x="66.14" y="88.15" width="157.21" height="4.47" style="fill:#252c3c;"/><rect x="66.14" y="205.61" width="157.21" height="4.47" style="fill:#252c3c;"/><rect x="66.14" y="261.7" width="157.21" height="4.47" style="fill:#252c3c;"/><rect x="66.14" y="210.21" width="157.21" height="4.47" style="fill:#606b82; opacity:.2;"/><rect x="66.14" y="149.46" width="157.21" height="4.47" style="fill:#252c3c;"/><rect x="66.14" y="154.06" width="157.21" height="4.47" style="fill:#606b82; opacity:.2;"/><rect x="66.14" y="266.43" width="157.21" height="4.47" style="fill:#606b82; opacity:.2;"/><g><rect x="171.87" y="58.02" width="6.37" height="7.51" style="fill:#f0cc76;"/><rect x="185.47" y="58.02" width="6.37" height="7.51" style="fill:#9dd0d8;"/><rect x="199.57" y="58.02" width="6.37" height="7.51" style="fill:#d87857;"/></g><g><rect x="171.87" y="119.52" width="6.37" height="7.51" style="fill:#f0cc76;"/><rect x="185.47" y="119.52" width="6.37" height="7.51" style="fill:#9dd0d8;"/><rect x="199.57" y="119.52" width="6.37" height="7.51" style="fill:#d87857;"/></g><g><rect x="171.87" y="179.14" width="6.37" height="7.51" style="fill:#f0cc76;"/><rect x="185.47" y="179.14" width="6.37" height="7.51" style="fill:#9dd0d8;"/><rect x="199.57" y="179.14" width="6.37" height="7.51" style="fill:#d87857;"/></g><g><rect x="171.87" y="234.63" width="6.37" height="7.51" style="fill:#f0cc76;"/><rect x="185.47" y="234.63" width="6.37" height="7.51" style="fill:#9dd0d8;"/><rect x="199.57" y="234.63" width="6.37" height="7.51" style="fill:#d87857;"/></g><g><rect x="171.87" y="289.39" width="6.37" height="7.51" style="fill:#f0cc76;"/><rect x="185.47" y="289.39" width="6.37" height="7.51" style="fill:#9dd0d8;"/><rect x="199.57" y="289.39" width="6.37" height="7.51" style="fill:#d87857;"/></g><rect x="81.78" y="52.93" width="75.44" height="18.02" style="fill:#606b82; opacity:.3;"/><rect x="81.78" y="174.61" width="75.44" height="18.02" style="fill:#606b82; opacity:.3;"/><rect x="81.78" y="114.27" width="75.44" height="18.02" style="fill:#606b82; opacity:.3;"/><rect x="81.78" y="229.38" width="75.44" height="18.02" style="fill:#606b82; opacity:.3;"/><rect x="81.78" y="284.14" width="75.44" height="18.02" style="fill:#606b82; opacity:.3;"/></g><g><g><rect x="384.54" y="315.62" width="9.55" height="7.02" style="fill:#162840;"/><rect x="490.66" y="315.62" width="9.55" height="7.02" style="fill:#162840;"/></g><rect x="368.9" y="32.55" width="157.21" height="284.75" rx="5.17" ry="5.17" style="fill:#2f384d;"/><g style="opacity:.4;"><path d="M520.93,32.55h-146.86c-2.46,0-4.51,1.72-5.03,4.02,.5-.16,1.03-.27,1.59-.27h146.86c2.86,0,5.17,2.32,5.17,5.17V315.88c0,.4-.05,.78-.14,1.15,2.08-.67,3.59-2.6,3.59-4.9V37.72c0-2.86-2.31-5.17-5.17-5.17Z" style="fill:#606b82;"/></g><rect x="368.9" y="92.62" width="157.21" height="4.47" style="fill:#606b82; opacity:.2;"/><rect x="368.9" y="88.15" width="157.21" height="4.47" style="fill:#252c3c;"/><rect x="368.9" y="205.61" width="157.21" height="4.47" style="fill:#252c3c;"/><rect x="368.9" y="261.7" width="157.21" height="4.47" style="fill:#252c3c;"/><rect x="368.9" y="210.21" width="157.21" height="4.47" style="fill:#606b82; opacity:.2;"/><rect x="368.9" y="149.46" width="157.21" height="4.47" style="fill:#252c3c;"/><rect x="368.9" y="154.06" width="157.21" height="4.47" style="fill:#606b82; opacity:.2;"/><rect x="368.9" y="266.43" width="157.21" height="4.47" style="fill:#606b82; opacity:.2;"/><g><rect x="474.63" y="58.02" width="6.37" height="7.51" style="fill:#f0cc76;"/><rect x="488.23" y="58.02" width="6.37" height="7.51" style="fill:#9dd0d8;"/><rect x="502.33" y="58.02" width="6.37" height="7.51" style="fill:#d87857;"/></g><g><rect x="474.63" y="119.52" width="6.37" height="7.51" style="fill:#f0cc76;"/><rect x="488.23" y="119.52" width="6.37" height="7.51" style="fill:#9dd0d8;"/><rect x="502.33" y="119.52" width="6.37" height="7.51" style="fill:#d87857;"/></g><g><rect x="474.63" y="179.14" width="6.37" height="7.51" style="fill:#f0cc76;"/><rect x="488.23" y="179.14" width="6.37" height="7.51" style="fill:#9dd0d8;"/><rect x="502.33" y="179.14" width="6.37" height="7.51" style="fill:#d87857;"/></g><g><rect x="474.63" y="234.63" width="6.37" height="7.51" style="fill:#f0cc76;"/><rect x="488.23" y="234.63" width="6.37" height="7.51" style="fill:#9dd0d8;"/><rect x="502.33" y="234.63" width="6.37" height="7.51" style="fill:#d87857;"/></g><g><rect x="474.63" y="289.39" width="6.37" height="7.51" style="fill:#f0cc76;"/><rect x="488.23" y="289.39" width="6.37" height="7.51" style="fill:#9dd0d8;"/><rect x="502.33" y="289.39" width="6.37" height="7.51" style="fill:#d87857;"/></g><rect x="384.54" y="52.93" width="75.44" height="18.02" style="fill:#606b82; opacity:.3;"/><rect x="384.54" y="174.61" width="75.44" height="18.02" style="fill:#606b82; opacity:.3;"/><rect x="384.54" y="114.27" width="75.44" height="18.02" style="fill:#606b82; opacity:.3;"/><rect x="384.54" y="229.38" width="75.44" height="18.02" style="fill:#606b82; opacity:.3;"/><rect x="384.54" y="284.14" width="75.44" height="18.02" style="fill:#606b82; opacity:.3;"/></g><g><g><g><path d="M134.41,309.81H422.53c1.45,0,2.63,1.18,2.63,2.63v7.83c0,2.86-2.32,5.18-5.18,5.18H136.96c-2.86,0-5.18-2.32-5.18-5.18v-7.83c0-1.45,1.18-2.63,2.63-2.63Z" style="fill:#3b4865;"/><path d="M154.01,151.33h248.92c2.86,0,5.18,2.32,5.18,5.18v153.3H148.84V156.51c0-2.86,2.32-5.18,5.18-5.18Z" style="fill:#4d5d84;"/><path d="M154.01,151.33h248.92c2.86,0,5.18,2.32,5.18,5.18v153.3H148.84V156.51c0-2.86,2.32-5.18,5.18-5.18Z" style="fill:#6f7c9c; opacity:.1;"/><rect x="162.13" y="163.42" width="232.68" height="127.19" style="fill:#fff;"/><path d="M230.14,309.81h96.66v3.94c0,2.2-1.78,3.98-3.98,3.98h-88.71c-2.2,0-3.98-1.78-3.98-3.98v-3.94h0Z" style="fill:#2f384d;"/></g><g><rect x="162.13" y="163.42" width="232.68" height="10.57" style="fill:#9dd0d8;"/><g><rect x="168.02" y="166.68" width="22.26" height="4.05" style="fill:#d5ebee;"/><g><rect x="373.38" y="166.68" width="4.05" height="4.05" style="fill:#d5ebee;"/><rect x="378.99" y="166.68" width="4.05" height="4.05" style="fill:#d5ebee;"/><rect x="384.59" y="166.68" width="4.05" height="4.05" style="fill:#d5ebee;"/></g></g></g></g><g><g><rect x="168.79" y="236.4" width="64.41" height="47.79" style="fill:#eaf5f7;"/><g><g><g><rect x="211.62" y="247.61" width="3.44" height="3.44" style="fill:#6293c5;"/><rect x="216.59" y="247.61" width="7.87" height=".78" style="fill:#bbd3e7;"/><rect x="216.59" y="248.93" width="4.66" height=".78" style="fill:#bbd3e7;"/></g><g><rect x="211.62" y="253.33" width="3.44" height="3.44" style="fill:#9dd0d8;"/><rect x="216.59" y="253.33" width="7.87" height=".78" style="fill:#bbd3e7;"/><rect x="216.59" y="254.66" width="4.66" height=".78" style="fill:#bbd3e7;"/></g><g><rect x="211.62" y="259.06" width="3.44" height="3.44" style="fill:#4d5d84;"/><rect x="216.59" y="259.06" width="7.87" height=".78" style="fill:#bbd3e7;"/><rect x="216.59" y="260.38" width="4.66" height=".78" style="fill:#bbd3e7;"/></g><g><rect x="211.62" y="264.78" width="3.44" height="3.44" style="fill:#f0cc76;"/><rect x="216.59" y="264.78" width="7.87" height=".78" style="fill:#bbd3e7;"/><rect x="216.59" y="266.11" width="4.66" height=".78" style="fill:#bbd3e7;"/></g><g><rect x="211.62" y="270.51" width="3.44" height="3.44" style="fill:#d87857;"/><rect x="216.59" y="270.51" width="7.87" height=".78" style="fill:#bbd3e7;"/><rect x="216.59" y="271.83" width="4.66" height=".78" style="fill:#bbd3e7;"/></g></g><g><path d="M202.93,267.61c.87-1.84,1.37-3.89,1.37-6.06,0-1.36-.2-2.66-.56-3.91l-13.68,3.91,12.87,6.06Z" style="fill:#9dd0d8;"/><path d="M175.96,263.37c.89,7,6.86,12.42,14.11,12.42,5.69,0,10.59-3.35,12.87-8.18l-12.87-6.06-14.11,1.82Z" style="fill:#6293c5;"/><path d="M188.1,247.47c-6.93,.96-12.27,6.89-12.27,14.08,0,.62,.05,1.22,.13,1.82l14.11-1.82-1.97-14.08Z" style="fill:#d87857;"/><path d="M198.1,249.81c-2.29-1.57-5.05-2.49-8.04-2.49-.67,0-1.32,.06-1.97,.15l1.97,14.08,8.04-11.75Z" style="fill:#f0cc76;"/><path d="M198.1,249.81l-8.04,11.75,13.68-3.91c-.92-3.23-2.94-5.99-5.64-7.84Z" style="fill:#4d5d84;"/></g></g></g><g><rect x="323.56" y="236.4" width="64.35" height="47.79" style="fill:#eaf5f7;"/><g><g><rect x="327.05" y="273.44" width="56.11" height="5.26" style="fill:#d5ebee;"/><rect x="327.05" y="263.52" width="56.11" height="5.26" style="fill:#d5ebee;"/><rect x="327.05" y="252.84" width="56.11" height="5.26" style="fill:#d5ebee;"/><rect x="327.05" y="242.38" width="56.11" height="5.26" style="fill:#d5ebee;"/></g><g><polygon points="329.96 278.56 332.32 272.89 336.12 269.58 340.15 260.79 343.72 256.92 347.51 260.25 351.31 268.88 355.17 264.59 358.91 253.27 362.93 249.3 366.33 253.6 370.3 260.25 374.1 267.56 377.9 265.93 380.43 278.7 329.96 278.56" style="fill:#f0cc76;"/><polygon points="329.96 278.62 332.32 275.06 336.12 272.99 340.15 267.49 343.72 265.06 347.51 267.15 351.31 272.55 355.17 269.87 358.91 262.78 362.93 260.29 366.33 262.99 370.3 267.15 374.1 271.73 377.9 270.71 380.43 278.7 329.96 278.62" style="fill:#6293c5;"/></g></g></g><g><rect x="241.43" y="236.4" width="75.91" height="47.79" style="fill:#eaf5f7;"/><g><rect x="247.12" y="274.98" width="64.93" height="4.27" style="fill:#d5ebee;"/><rect x="247.12" y="266.45" width="64.93" height="4.27" style="fill:#d5ebee;"/><rect x="247.12" y="257.92" width="64.93" height="4.27" style="fill:#d5ebee;"/><rect x="247.12" y="249.38" width="64.93" height="4.27" style="fill:#d5ebee;"/><rect x="247.12" y="240.85" width="64.93" height="4.27" style="fill:#d5ebee;"/><g><g><g><rect x="248.37" y="269.85" width="3.42" height="6.51" style="fill:#d87857;"/><rect x="277.94" y="262.19" width="3.42" height="14.17" style="fill:#d87857;"/><rect x="287.8" y="241.89" width="3.42" height="34.47" style="fill:#d87857;"/><rect x="297.66" y="256.89" width="3.42" height="19.46" style="fill:#d87857;"/><rect x="307.51" y="263.82" width="3.42" height="12.53" style="fill:#d87857;"/><rect x="258.23" y="257.55" width="3.42" height="18.81" style="fill:#d87857;"/><rect x="268.09" y="256.89" width="3.42" height="19.46" style="fill:#d87857;"/></g><rect x="248.37" y="272.76" width="3.42" height="6.49" style="fill:#6293c5;"/><rect x="277.94" y="265.11" width="3.42" height="14.14" style="fill:#6293c5;"/><rect x="287.8" y="246.47" width="3.42" height="32.78" style="fill:#6293c5;"/><rect x="297.66" y="259.82" width="3.42" height="19.43" style="fill:#6293c5;"/><rect x="307.51" y="266.74" width="3.42" height="12.51" style="fill:#6293c5;"/><rect x="258.23" y="260.48" width="3.42" height="18.77" style="fill:#6293c5;"/><rect x="268.09" y="259.82" width="3.42" height="19.43" style="fill:#6293c5;"/></g><polygon points="289.51 239.41 286.63 242.29 292.39 242.29 289.51 239.41" style="fill:#d87857;"/></g></g></g></g></g></g></svg>