<?xml version="1.0" encoding="UTF-8"?><svg xmlns="http://www.w3.org/2000/svg" viewBox="0 0 600 350"><g id="a"/><g id="b"/><g id="c"/><g id="d"/><g id="e"/><g id="f"/><g id="g"/><g id="h"/><g id="i"/><g id="j"><g><rect x="94.82" y="23.96" width="406.78" height="282.41" rx="19.04" ry="19.04" style="fill:#31426b;"/><path d="M53.27,306.37v2.64c0,7.71,6.31,14.01,14.01,14.01h461.85c7.71,0,14.01-6.31,14.01-14.01v-2.64H53.27Z" style="fill:#283451;"/><rect x="112.6" y="41.28" width="371.23" height="247.78" style="fill:#b9dbf6;"/><path d="M328.92,313.28h-61.41c-3.63,0-6.58-2.95-6.58-6.57v-1.7h74.58v1.7c0,3.62-2.95,6.57-6.58,6.57Zm-66.85-7.12v.55c0,2.99,2.44,5.42,5.44,5.42h61.41c3,0,5.44-2.43,5.44-5.42v-.55h-72.28Z" style="fill:#4f678f;"/><g><g><g><rect x="228.52" y="83.12" width="75.15" height="205.31" style="fill:#e8505b;"/><rect x="226.43" y="83.12" width="79.33" height="7.72" style="fill:#333d67;"/></g><g><g><g><rect x="238.37" y="101.62" width="22.06" height="14.68" style="fill:#333d67;"/><rect x="236.55" y="114.73" width="25.92" height="3.15" style="fill:#f5f5f5;"/><rect x="248.13" y="101.62" width="1.96" height="13.11" style="fill:#f5f5f5;"/></g><g><rect x="271.55" y="101.62" width="22.06" height="14.68" style="fill:#333d67;"/><rect x="269.73" y="114.73" width="25.92" height="3.15" style="fill:#f5f5f5;"/><rect x="281.31" y="101.62" width="1.96" height="13.11" style="fill:#f5f5f5;"/></g></g><g><g><rect x="238.37" y="132.88" width="22.06" height="14.68" style="fill:#333d67;"/><rect x="236.55" y="145.99" width="25.92" height="3.15" style="fill:#f5f5f5;"/><rect x="248.13" y="132.88" width="1.96" height="13.11" style="fill:#f5f5f5;"/></g><g><rect x="271.55" y="132.88" width="22.06" height="14.68" style="fill:#333d67;"/><rect x="269.73" y="145.99" width="25.92" height="3.15" style="fill:#f5f5f5;"/><rect x="281.31" y="132.88" width="1.96" height="13.11" style="fill:#f5f5f5;"/></g></g><g><g><rect x="238.37" y="164.14" width="22.06" height="14.68" style="fill:#333d67;"/><rect x="236.55" y="177.25" width="25.92" height="3.15" style="fill:#f5f5f5;"/><rect x="248.13" y="164.14" width="1.96" height="13.11" style="fill:#f5f5f5;"/></g><g><rect x="271.55" y="164.14" width="22.06" height="14.68" style="fill:#333d67;"/><rect x="269.73" y="177.25" width="25.92" height="3.15" style="fill:#f5f5f5;"/><rect x="281.31" y="164.14" width="1.96" height="13.11" style="fill:#f5f5f5;"/></g></g><g><g><rect x="238.37" y="195.4" width="22.06" height="14.68" style="fill:#333d67;"/><rect x="236.55" y="208.51" width="25.92" height="3.15" style="fill:#f5f5f5;"/><rect x="248.13" y="195.4" width="1.96" height="13.11" style="fill:#f5f5f5;"/></g><g><rect x="271.55" y="195.4" width="22.06" height="14.68" style="fill:#333d67;"/><rect x="269.73" y="208.51" width="25.92" height="3.15" style="fill:#f5f5f5;"/><rect x="281.31" y="195.4" width="1.96" height="13.11" style="fill:#f5f5f5;"/></g></g><g><g><rect x="238.37" y="226.66" width="22.06" height="14.68" style="fill:#333d67;"/><rect x="236.55" y="239.77" width="25.92" height="3.15" style="fill:#f5f5f5;"/><rect x="248.13" y="226.66" width="1.96" height="13.11" style="fill:#f5f5f5;"/></g><g><rect x="271.55" y="226.66" width="22.06" height="14.68" style="fill:#333d67;"/><rect x="269.73" y="239.77" width="25.92" height="3.15" style="fill:#f5f5f5;"/><rect x="281.31" y="226.66" width="1.96" height="13.11" style="fill:#f5f5f5;"/></g></g><g><g><rect x="238.37" y="257.92" width="22.06" height="14.68" style="fill:#333d67;"/><rect x="236.55" y="271.03" width="25.92" height="3.15" style="fill:#f5f5f5;"/><rect x="248.13" y="257.92" width="1.96" height="13.11" style="fill:#f5f5f5;"/></g><g><rect x="271.55" y="257.92" width="22.06" height="14.68" style="fill:#333d67;"/><rect x="269.73" y="271.03" width="25.92" height="3.15" style="fill:#f5f5f5;"/><rect x="281.31" y="257.92" width="1.96" height="13.11" style="fill:#f5f5f5;"/></g></g></g></g><g><rect x="397.36" y="83.12" width="51.98" height="205.31" style="fill:#9cb6f8;"/><rect x="395.91" y="83.12" width="54.88" height="7.72" style="fill:#333d67;"/><g><g><path d="M439.7,117.62v-8.37c0-.37,.3-.66,.66-.66h0c.37,0,.66,.3,.66,.66v8.37" style="fill:#577db8;"/><g><rect x="409.39" y="100.01" width="28.85" height="17.57" style="fill:#333d67;"/><rect x="408.05" y="119.27" width="31.37" height="1.83" style="fill:#4c6ea1;"/><path d="M406.5,117.62v-8.37c0-.37,.3-.66,.66-.66h0c.37,0,.66,.3,.66,.66v8.37" style="fill:#577db8;"/><rect x="407.82" y="110.03" width="31.88" height="7.59" style="fill:#577db8; opacity:.32;"/><rect x="405.46" y="117.58" width="36.56" height="1.83" style="fill:#5379b3;"/><rect x="422.92" y="100.01" width="1.25" height="17.57" style="fill:#44628f;"/></g></g><g><path d="M439.51,155.37v-8.37c0-.37,.3-.66,.66-.66h0c.37,0,.66,.3,.66,.66v8.37" style="fill:#577db8;"/><g><rect x="409.19" y="137.76" width="28.85" height="17.57" style="fill:#333d67;"/><rect x="407.86" y="157.02" width="31.37" height="1.83" style="fill:#4c6ea1;"/><path d="M406.31,155.37v-8.37c0-.37,.3-.66,.66-.66h0c.37,0,.66,.3,.66,.66v8.37" style="fill:#577db8;"/><rect x="407.63" y="147.78" width="31.88" height="7.59" style="fill:#577db8; opacity:.32;"/><rect x="405.26" y="155.33" width="36.56" height="1.83" style="fill:#5379b3;"/><rect x="422.73" y="137.76" width="1.25" height="17.57" style="fill:#44628f;"/></g></g><g><path d="M439.32,193.11v-8.37c0-.37,.3-.66,.66-.66h0c.37,0,.66,.3,.66,.66v8.37" style="fill:#577db8;"/><g><rect x="409" y="175.5" width="28.85" height="17.57" style="fill:#333d67;"/><rect x="407.66" y="194.76" width="31.37" height="1.83" style="fill:#4c6ea1;"/><path d="M406.12,193.11v-8.37c0-.37,.3-.66,.66-.66h0c.37,0,.66,.3,.66,.66v8.37" style="fill:#577db8;"/><rect x="407.44" y="185.52" width="31.88" height="7.59" style="fill:#577db8; opacity:.32;"/><rect x="405.07" y="193.07" width="36.56" height="1.83" style="fill:#5379b3;"/><rect x="422.53" y="175.5" width="1.25" height="17.57" style="fill:#44628f;"/></g></g><g><path d="M439.12,230.86v-8.37c0-.37,.3-.66,.66-.66h0c.37,0,.66,.3,.66,.66v8.37" style="fill:#577db8;"/><g><rect x="408.81" y="213.25" width="28.85" height="17.57" style="fill:#333d67;"/><rect x="407.47" y="232.51" width="31.37" height="1.83" style="fill:#4c6ea1;"/><path d="M405.92,230.86v-8.37c0-.37,.3-.66,.66-.66h0c.37,0,.66,.3,.66,.66v8.37" style="fill:#577db8;"/><rect x="407.25" y="223.27" width="31.88" height="7.59" style="fill:#577db8; opacity:.32;"/><rect x="404.88" y="230.82" width="36.56" height="1.83" style="fill:#5379b3;"/><rect x="422.34" y="213.25" width="1.25" height="17.57" style="fill:#44628f;"/></g></g><g><path d="M438.93,268.6v-8.37c0-.37,.3-.66,.66-.66h0c.37,0,.66,.3,.66,.66v8.37" style="fill:#577db8;"/><g><rect x="408.61" y="250.99" width="28.85" height="17.57" style="fill:#333d67;"/><rect x="407.28" y="270.25" width="31.37" height="1.83" style="fill:#4c6ea1;"/><path d="M405.73,268.6v-8.37c0-.37,.3-.66,.66-.66h0c.37,0,.66,.3,.66,.66v8.37" style="fill:#577db8;"/><rect x="407.05" y="261.01" width="31.88" height="7.59" style="fill:#577db8; opacity:.32;"/><rect x="404.68" y="268.56" width="36.56" height="1.83" style="fill:#5379b3;"/><rect x="422.15" y="250.99" width="1.25" height="17.57" style="fill:#44628f;"/></g></g></g></g><g><rect x="303.63" y="117.88" width="95.47" height="170.56" style="fill:#b9dbf6;"/><rect x="300.98" y="117.88" width="100.79" height="6.41" style="fill:#333d67;"/><g><g><g><path d="M330.9,147.53c0,.42-.36,.77-.82,.77s-.82-.34-.82-.77,.36-.77,.82-.77,.82,.34,.82,.77Z" style="fill:#547db6;"/><g><rect x="312.59" y="147.76" width=".22" height="10.02" style="fill:#547db6;"/><g><rect x="314.1" y="133.85" width="14.53" height="24.91" style="fill:#333d67;"/><rect x="311.81" y="157.78" width="19.02" height="1.91" style="fill:#557db6;"/><rect x="329.97" y="147.76" width=".22" height="10.02" style="fill:#547db6;"/><ellipse cx="312.7" cy="147.53" rx=".82" ry=".77" style="fill:#547db6;"/></g><rect x="312.7" y="148.05" width="17.27" height="9.72" style="fill:#547db6; opacity:.47;"/></g></g><g><ellipse cx="360.09" cy="147.53" rx=".82" ry=".77" style="fill:#547db6;"/><g><rect x="342.59" y="147.76" width=".22" height="10.02" style="fill:#547db6;"/><g><rect x="344.1" y="133.85" width="14.53" height="24.91" style="fill:#333d67;"/><rect x="341.81" y="157.78" width="19.02" height="1.91" style="fill:#557db6;"/><rect x="359.98" y="147.76" width=".22" height="10.02" style="fill:#547db6;"/><path d="M343.52,147.53c0,.42-.36,.77-.82,.77s-.82-.34-.82-.77,.36-.77,.82-.77,.82,.34,.82,.77Z" style="fill:#547db6;"/></g><rect x="342.7" y="148.05" width="17.27" height="9.72" style="fill:#547db6; opacity:.47;"/></g></g><g><ellipse cx="390.09" cy="147.53" rx=".82" ry=".77" style="fill:#547db6;"/><g><rect x="372.6" y="147.76" width=".22" height="10.02" style="fill:#547db6;"/><g><rect x="374.11" y="133.85" width="14.53" height="24.91" style="fill:#333d67;"/><rect x="371.82" y="157.78" width="19.02" height="1.91" style="fill:#557db6;"/><rect x="389.98" y="147.76" width=".22" height="10.02" style="fill:#547db6;"/><path d="M373.52,147.53c0,.42-.36,.77-.82,.77s-.82-.34-.82-.77,.36-.77,.82-.77,.82,.34,.82,.77Z" style="fill:#547db6;"/></g><rect x="372.71" y="148.05" width="17.27" height="9.72" style="fill:#547db6; opacity:.47;"/></g></g></g><g><g><path d="M330.91,187.98c0,.42-.36,.77-.82,.77s-.82-.34-.82-.77,.36-.77,.82-.77,.82,.34,.82,.77Z" style="fill:#547db6;"/><g><rect x="312.59" y="188.21" width=".22" height="10.02" style="fill:#547db6;"/><g><rect x="314.1" y="174.3" width="14.53" height="24.91" style="fill:#333d67;"/><rect x="311.81" y="198.23" width="19.02" height="1.91" style="fill:#557db6;"/><rect x="329.98" y="188.21" width=".22" height="10.02" style="fill:#547db6;"/><path d="M313.52,187.98c0,.42-.36,.77-.82,.77s-.82-.34-.82-.77,.36-.77,.82-.77,.82,.34,.82,.77Z" style="fill:#547db6;"/></g><rect x="312.71" y="188.5" width="17.27" height="9.72" style="fill:#547db6; opacity:.47;"/></g></g><g><ellipse cx="360.1" cy="187.98" rx=".82" ry=".77" style="fill:#547db6;"/><g><rect x="342.6" y="188.21" width=".22" height="10.02" style="fill:#547db6;"/><g><rect x="344.11" y="174.3" width="14.53" height="24.91" style="fill:#333d67;"/><rect x="341.82" y="198.23" width="19.02" height="1.91" style="fill:#557db6;"/><rect x="359.99" y="188.21" width=".22" height="10.02" style="fill:#547db6;"/><ellipse cx="342.71" cy="187.98" rx=".82" ry=".77" style="fill:#547db6;"/></g><rect x="342.71" y="188.5" width="17.27" height="9.72" style="fill:#547db6; opacity:.47;"/></g></g><g><path d="M390.92,187.98c0,.42-.36,.77-.82,.77s-.82-.34-.82-.77,.36-.77,.82-.77,.82,.34,.82,.77Z" style="fill:#547db6;"/><g><rect x="372.61" y="188.21" width=".22" height="10.02" style="fill:#547db6;"/><g><rect x="374.11" y="174.3" width="14.53" height="24.91" style="fill:#333d67;"/><rect x="371.83" y="198.23" width="19.02" height="1.91" style="fill:#557db6;"/><rect x="389.99" y="188.21" width=".22" height="10.02" style="fill:#547db6;"/><path d="M373.53,187.98c0,.42-.36,.77-.82,.77s-.82-.34-.82-.77,.36-.77,.82-.77,.82,.34,.82,.77Z" style="fill:#547db6;"/></g><rect x="372.72" y="188.5" width="17.27" height="9.72" style="fill:#547db6; opacity:.47;"/></g></g></g><g><g><path d="M330.91,228.44c0,.42-.36,.77-.82,.77s-.82-.34-.82-.77,.36-.77,.82-.77,.82,.34,.82,.77Z" style="fill:#547db6;"/><g><rect x="312.6" y="228.66" width=".22" height="10.02" style="fill:#547db6;"/><g><rect x="314.11" y="214.75" width="14.53" height="24.91" style="fill:#333d67;"/><rect x="311.82" y="238.68" width="19.02" height="1.91" style="fill:#557db6;"/><rect x="329.99" y="228.66" width=".22" height="10.02" style="fill:#547db6;"/><ellipse cx="312.71" cy="228.44" rx=".82" ry=".77" style="fill:#547db6;"/></g><rect x="312.71" y="228.96" width="17.27" height="9.72" style="fill:#547db6; opacity:.47;"/></g></g><g><ellipse cx="360.1" cy="228.44" rx=".82" ry=".77" style="fill:#547db6;"/><g><rect x="342.61" y="228.66" width=".22" height="10.02" style="fill:#547db6;"/><g><rect x="344.12" y="214.75" width="14.53" height="24.91" style="fill:#333d67;"/><rect x="341.83" y="238.68" width="19.02" height="1.91" style="fill:#557db6;"/><rect x="359.99" y="228.66" width=".22" height="10.02" style="fill:#547db6;"/><path d="M343.53,228.44c0,.42-.36,.77-.82,.77s-.82-.34-.82-.77,.36-.77,.82-.77,.82,.34,.82,.77Z" style="fill:#547db6;"/></g><rect x="342.72" y="228.96" width="17.27" height="9.72" style="fill:#547db6; opacity:.47;"/></g></g><g><ellipse cx="390.11" cy="228.44" rx=".82" ry=".77" style="fill:#547db6;"/><g><rect x="372.61" y="228.66" width=".22" height="10.02" style="fill:#547db6;"/><g><rect x="374.12" y="214.75" width="14.53" height="24.91" style="fill:#333d67;"/><rect x="371.83" y="238.68" width="19.02" height="1.91" style="fill:#557db6;"/><rect x="390" y="228.66" width=".22" height="10.02" style="fill:#547db6;"/><path d="M373.54,228.44c0,.42-.36,.77-.82,.77s-.82-.34-.82-.77,.36-.77,.82-.77,.82,.34,.82,.77Z" style="fill:#547db6;"/></g><rect x="372.72" y="228.96" width="17.27" height="9.72" style="fill:#547db6; opacity:.47;"/></g></g></g><g><g><ellipse cx="330.11" cy="268.89" rx=".82" ry=".77" style="fill:#547db6;"/><g><rect x="312.61" y="269.11" width=".22" height="10.02" style="fill:#547db6;"/><g><rect x="314.12" y="255.2" width="14.53" height="24.91" style="fill:#333d67;"/><rect x="311.83" y="279.13" width="19.02" height="1.91" style="fill:#557db6;"/><rect x="329.99" y="269.11" width=".22" height="10.02" style="fill:#547db6;"/><path d="M313.54,268.89c0,.42-.36,.77-.82,.77s-.82-.34-.82-.77,.37-.77,.82-.77,.82,.34,.82,.77Z" style="fill:#547db6;"/></g><rect x="312.72" y="269.41" width="17.27" height="9.72" style="fill:#547db6; opacity:.47;"/></g></g><g><path d="M360.93,268.89c0,.42-.36,.77-.82,.77s-.82-.34-.82-.77,.36-.77,.82-.77,.82,.34,.82,.77Z" style="fill:#547db6;"/><g><rect x="342.61" y="269.11" width=".22" height="10.02" style="fill:#547db6;"/><g><rect x="344.12" y="255.2" width="14.53" height="24.91" style="fill:#333d67;"/><rect x="341.83" y="279.13" width="19.02" height="1.91" style="fill:#557db6;"/><rect x="360" y="269.11" width=".22" height="10.02" style="fill:#547db6;"/><ellipse cx="342.73" cy="268.89" rx=".82" ry=".77" style="fill:#547db6;"/></g><rect x="342.73" y="269.41" width="17.27" height="9.72" style="fill:#547db6; opacity:.47;"/></g></g><g><ellipse cx="390.12" cy="268.89" rx=".82" ry=".77" style="fill:#547db6;"/><g><rect x="372.62" y="269.11" width=".22" height="10.02" style="fill:#547db6;"/><g><rect x="374.13" y="255.2" width="14.53" height="24.91" style="fill:#333d67;"/><rect x="371.84" y="279.13" width="19.02" height="1.91" style="fill:#557db6;"/><rect x="390.01" y="269.11" width=".22" height="10.02" style="fill:#547db6;"/><path d="M373.55,268.89c0,.42-.36,.77-.82,.77s-.82-.34-.82-.77,.36-.77,.82-.77,.82,.34,.82,.77Z" style="fill:#547db6;"/></g><rect x="372.73" y="269.41" width="17.27" height="9.72" style="fill:#547db6; opacity:.47;"/></g></g></g></g></g><g><g><rect x="147.88" y="145.39" width="80.73" height="143.05" style="fill:#ebebeb;"/><polyline points="230.86 145.39 230.86 150.76 145.63 150.76 145.63 145.39" style="fill:#333d67;"/><rect x="153.1" y="160.05" width="16.38" height="30.94" style="fill:#333d67;"/><rect x="180.06" y="160.05" width="16.38" height="30.94" style="fill:#333d67;"/><rect x="207.02" y="160.05" width="16.38" height="30.94" style="fill:#333d67;"/><rect x="153.1" y="200.69" width="16.38" height="30.94" style="fill:#333d67;"/><rect x="180.06" y="200.69" width="16.38" height="30.94" style="fill:#333d67;"/><rect x="207.02" y="200.69" width="16.38" height="30.94" style="fill:#333d67;"/><rect x="153.1" y="241.34" width="16.38" height="30.94" style="fill:#333d67;"/><rect x="180.06" y="241.34" width="16.38" height="30.94" style="fill:#333d67;"/><rect x="207.02" y="241.34" width="16.38" height="30.94" style="fill:#333d67;"/><g><g><path d="M153.09,179.61v12.08h16.4v-12.08h-16.4Zm2.84,11.32h-1.44v-10.56h1.44v10.56Zm2.3,0h-1.43v-10.56h1.43v10.56Zm2.4,0h-1.43v-10.56h1.43v10.56Zm2.38,0h-1.43v-10.56h1.43v10.56Zm2.47,0h-1.43v-10.56h1.43v10.56Zm2.64,0h-1.44v-10.56h1.44v10.56Z" style="fill:#557db6;"/><rect x="151.35" y="178.79" width="19.87" height="1.58" style="fill:#557db6;"/><rect x="151.35" y="190.9" width="19.87" height="1.58" style="fill:#557db6;"/></g><g><path d="M180.05,179.61v12.08h16.4v-12.08h-16.4Zm2.84,11.32h-1.44v-10.56h1.44v10.56Zm2.3,0h-1.43v-10.56h1.43v10.56Zm2.4,0h-1.43v-10.56h1.43v10.56Zm2.38,0h-1.43v-10.56h1.43v10.56Zm2.47,0h-1.43v-10.56h1.43v10.56Zm2.64,0h-1.44v-10.56h1.44v10.56Z" style="fill:#557db6;"/><rect x="178.31" y="178.79" width="19.87" height="1.58" style="fill:#557db6;"/><rect x="178.31" y="190.9" width="19.87" height="1.58" style="fill:#557db6;"/></g><g><path d="M207.01,179.61v12.08h16.4v-12.08h-16.4Zm2.84,11.32h-1.44v-10.56h1.44v10.56Zm2.3,0h-1.43v-10.56h1.43v10.56Zm2.4,0h-1.43v-10.56h1.43v10.56Zm2.38,0h-1.43v-10.56h1.43v10.56Zm2.47,0h-1.43v-10.56h1.43v10.56Zm2.64,0h-1.44v-10.56h1.44v10.56Z" style="fill:#557db6;"/><rect x="205.27" y="178.79" width="19.87" height="1.58" style="fill:#557db6;"/><rect x="205.27" y="190.9" width="19.87" height="1.58" style="fill:#557db6;"/></g><g><path d="M153.09,220.26v12.08h16.4v-12.08h-16.4Zm2.84,11.32h-1.44v-10.56h1.44v10.56Zm2.3,0h-1.43v-10.56h1.43v10.56Zm2.4,0h-1.43v-10.56h1.43v10.56Zm2.38,0h-1.43v-10.56h1.43v10.56Zm2.47,0h-1.43v-10.56h1.43v10.56Zm2.64,0h-1.44v-10.56h1.44v10.56Z" style="fill:#557db6;"/><rect x="151.35" y="219.44" width="19.87" height="1.58" style="fill:#557db6;"/><rect x="151.35" y="231.55" width="19.87" height="1.58" style="fill:#557db6;"/></g><g><path d="M180.05,220.26v12.08h16.4v-12.08h-16.4Zm2.84,11.32h-1.44v-10.56h1.44v10.56Zm2.3,0h-1.43v-10.56h1.43v10.56Zm2.4,0h-1.43v-10.56h1.43v10.56Zm2.38,0h-1.43v-10.56h1.43v10.56Zm2.47,0h-1.43v-10.56h1.43v10.56Zm2.64,0h-1.44v-10.56h1.44v10.56Z" style="fill:#557db6;"/><rect x="178.31" y="219.44" width="19.87" height="1.58" style="fill:#557db6;"/><rect x="178.31" y="231.55" width="19.87" height="1.58" style="fill:#557db6;"/></g><g><path d="M207.01,220.26v12.08h16.4v-12.08h-16.4Zm2.84,11.32h-1.44v-10.56h1.44v10.56Zm2.3,0h-1.43v-10.56h1.43v10.56Zm2.4,0h-1.43v-10.56h1.43v10.56Zm2.38,0h-1.43v-10.56h1.43v10.56Zm2.47,0h-1.43v-10.56h1.43v10.56Zm2.64,0h-1.44v-10.56h1.44v10.56Z" style="fill:#557db6;"/><rect x="205.27" y="219.44" width="19.87" height="1.58" style="fill:#557db6;"/><rect x="205.27" y="231.55" width="19.87" height="1.58" style="fill:#557db6;"/></g><g><path d="M153.09,260.9v12.08h16.4v-12.08h-16.4Zm2.84,11.32h-1.44v-10.56h1.44v10.56Zm2.3,0h-1.43v-10.56h1.43v10.56Zm2.4,0h-1.43v-10.56h1.43v10.56Zm2.38,0h-1.43v-10.56h1.43v10.56Zm2.47,0h-1.43v-10.56h1.43v10.56Zm2.64,0h-1.44v-10.56h1.44v10.56Z" style="fill:#557db6;"/><rect x="151.35" y="260.08" width="19.87" height="1.58" style="fill:#557db6;"/><rect x="151.35" y="272.19" width="19.87" height="1.58" style="fill:#557db6;"/></g><g><path d="M180.05,260.9v12.08h16.4v-12.08h-16.4Zm2.84,11.32h-1.44v-10.56h1.44v10.56Zm2.3,0h-1.43v-10.56h1.43v10.56Zm2.4,0h-1.43v-10.56h1.43v10.56Zm2.38,0h-1.43v-10.56h1.43v10.56Zm2.47,0h-1.43v-10.56h1.43v10.56Zm2.64,0h-1.44v-10.56h1.44v10.56Z" style="fill:#557db6;"/><rect x="178.31" y="260.08" width="19.87" height="1.58" style="fill:#557db6;"/><rect x="178.31" y="272.19" width="19.87" height="1.58" style="fill:#557db6;"/></g><g><path d="M207.01,260.9v12.08h16.4v-12.08h-16.4Zm2.84,11.32h-1.44v-10.56h1.44v10.56Zm2.3,0h-1.43v-10.56h1.43v10.56Zm2.4,0h-1.43v-10.56h1.43v10.56Zm2.38,0h-1.43v-10.56h1.43v10.56Zm2.47,0h-1.43v-10.56h1.43v10.56Zm2.64,0h-1.44v-10.56h1.44v10.56Z" style="fill:#557db6;"/><rect x="205.27" y="260.08" width="19.87" height="1.58" style="fill:#557db6;"/><rect x="205.27" y="272.19" width="19.87" height="1.58" style="fill:#557db6;"/></g></g></g><line x1="147.88" y1="196.5" x2="228.61" y2="196.5" style="fill:none; stroke:#333d67; stroke-miterlimit:10; stroke-width:.58px;"/><line x1="147.88" y1="238.15" x2="228.61" y2="238.15" style="fill:none; stroke:#333d67; stroke-miterlimit:10; stroke-width:.58px;"/></g></g><g><g><path d="M228.1,115.8c-1.43,.02-2.79,.32-4.02,.87-2.6,1.16-5.23-.02-6.29-1.19-2.88-3.18-7.04-5.19-11.67-5.19-5.27,0-9.92,2.58-12.78,6.55-1.55,2.42-4.31,2.2-5.74,2.2-3.88,0-7.03,3.15-7.03,7.03v.02h47.54v-10.29Z" style="fill:#d3dde6;"/><path d="M216.84,121.46l-.43-.37c2.31-2.7,6.36-4.28,6.54-4.35l.21,.54s-4.09,1.6-6.31,4.18Z" style="fill:#b5c9d5;"/><path d="M194.4,122.48s-1.22-2.62-5.8-3.15l.07-.57c4.93,.57,6.2,3.37,6.26,3.49l-.53,.23Z" style="fill:#b5c9d5;"/></g><g><path d="M112.6,106.64h80.31c-.36-3.9-3.64-6.96-7.63-6.96-1.58,0-3.04,.48-4.26,1.29-1.22,.73-2.42,.34-2.81-.88-1.47-4.63-5.8-7.98-10.91-7.98-.78,0-1.54,.08-2.28,.23-2.68,.43-4.06-.79-4.45-2.64-2.05-9.35-10.38-16.35-20.35-16.35-9.19,0-16.99,5.95-19.75,14.21-.78,2.19-3.16,2.27-4.53,1.3-1.02-.72-2.14-1.3-3.33-1.73v19.52Z" style="fill:#fff;"/><path d="M123.64,97.63c-2.19-3.95-4.79-6.69-8.41-8.89l.3-.49c3.71,2.26,6.37,5.06,8.61,9.11l-.5,.28Z" style="fill:#b5c9d5;"/><path d="M155.19,99.2l-.48-.31c3.92-6.06,9.7-6.77,9.94-6.79l.06,.57c-.06,0-5.75,.72-9.52,6.54Z" style="fill:#b5c9d5;"/><path d="M147.95,102.03l-.41-.4c2.04-2.06,4.75-3.15,7.4-2.95,2.27,.16,4.24,1.22,5.56,2.98l-.46,.34c-1.22-1.63-3.04-2.61-5.14-2.75-2.49-.16-5.03,.84-6.95,2.78Z" style="fill:#b5c9d5;"/></g><g><path d="M483.83,131.21c-1.43,.02-2.79,.32-4.02,.87-2.6,1.16-5.23-.02-6.29-1.19-2.88-3.18-7.04-5.18-11.67-5.18-5.27,0-9.92,2.58-12.78,6.55-1.55,2.42-4.31,2.2-5.74,2.2-3.88,0-7.03,3.15-7.03,7.03v.02h47.54v-10.29Z" style="fill:#fff;"/><path d="M472.57,136.88l-.43-.37c2.31-2.7,6.36-4.28,6.54-4.34l.21,.54s-4.09,1.6-6.31,4.18Z" style="fill:#b5c9d5;"/><path d="M450.13,137.89s-1.22-2.62-5.8-3.15l.07-.57c4.93,.57,6.2,3.37,6.26,3.49l-.53,.23Z" style="fill:#b5c9d5;"/></g></g><g><g><path d="M112.6,289.16h36.82c-.52-1.92-1.85-3.42-3.38-4.11-1.64-.73-3.47-.62-5.15-.07,.31-.1,.73-.74,.94-1.01,.52-.65,.94-1.33,1.06-2.22,.13-1-.12-2.01-.66-2.8-.91-1.32-2.49-1.79-3.9-1.62-.07,0-.14,.02-.21,.03-.28,.05-.55,.13-.81,.24-1.13,.5-2.13,1.39-2.99,2.37-.16,.18-.32,.37-.47,.57,0,0,2.39-2.28,2.96-4.01,2.08-4.92-2.32-12.06-7.78-10.03-2.2,1.06-3.99,3.23-5.17,5.78,4.37-7.49-2.88-12.05-5.45-5.3,1.59-5.56-.78-11.38-5.58-8.11-.07,.03-.13,.07-.2,.1v30.19Z" style="fill:#629f69;"/><path d="M112.6,289.16h21.69c-.31-1.13-1.09-2.02-1.99-2.42-.97-.43-2.04-.37-3.04-.04,.51-1.13-.19-2.65-1.16-3.09-.97-.44-2.06-.07-2.99,.48,.81-.43,1.41-1.34,1.74-2.36,1.22-2.9-1.36-7.1-4.59-5.91-1.29,.62-2.35,1.9-3.05,3.41,2.58-4.42-1.69-7.1-3.21-3.12,1.48-4.35-1.37-6.89-3.41-5.91v18.98Z" style="fill:#80cb92;"/><path d="M135.09,265.41c-.58,.6-1.42,.52-1.42,.52,0,0,.1-1.05,.68-1.65,.58-.6,1.42-.52,1.42-.52,0,0-.1,1.05-.68,1.65Z" style="fill:#6dc2c5;"/><path d="M118.36,272.37c-.43,.89-1.37,1.16-1.37,1.16,0,0-.23-1.18,.2-2.07,.43-.89,1.37-1.16,1.37-1.16,0,0,.23,1.18-.2,2.07Z" style="fill:#6dc2c5;"/><path d="M133.32,263.04c.25,1.26-.33,2.53-.33,2.53,0,0-.98-.78-1.23-2.05-.25-1.26,.33-2.53,.33-2.53,0,0,.98,.78,1.23,2.05Z" style="fill:#6dc2c5;"/></g><g><polygon points="450.86 289.05 449.94 275.62 457.37 267.01 456.92 266.64 452.53 270.39 451.89 266.64 451.2 266.82 451.32 271.5 449.53 273.23 448.86 259.51 452.49 255 452.09 254.66 448.32 257.67 448.08 250.49 447.09 250.49 446.44 259.32 445.49 268.09 440.58 262.76 440.12 263.07 441.91 265.89 438.79 265.84 438.79 266.36 442.2 266.88 445.55 272.13 444.79 289.05 450.86 289.05" style="fill:#875060;"/><path d="M419.13,240.46c-.06-1.67,.06-3.4,.77-4.92,.7-1.52,2.08-2.81,3.73-3.05,.96-.14,2.03,.13,2.62,.9-1.87-2.32-3.58-4.87-4.31-7.76-.74-2.89-.37-6.19,1.55-8.47,1.85-2.19,4.94-3.14,7.78-2.72,2.84,.42,5.41,2.08,7.28,4.26-.2-4.49-1.24-9.01-.41-13.43s4.33-8.84,8.82-8.64c3.04,.13,5.6,2.31,7.54,4.66,4.02,4.87,6.51,11,7.01,17.29,1.17-1.6,2.35-3.23,3.91-4.46,1.56-1.23,3.57-2.02,5.53-1.7,3.22,.53,5.27,3.8,6.05,6.97,.84,3.38,.72,7-.35,10.31-1.75,5.48-5.87,9.84-9.86,13.99,1.83-.82,4.15,.29,5.03,2.09,1.21,2.45,.06,5.26-1.62,7.21-1.41,1.64-3.27,2.82-5.21,3.79-10.81,5.43-23.97,4.65-34.89-.08-4.05-1.75-6.88-4.66-9.03-8.54l-.02-.04c-1.29-2.33-1.83-5-1.93-7.66Z" style="fill:#80cb92;"/><path d="M453.86,263.24c.51-.59,2-.82,1.97,.25,.44-3.3,4.75-2.05,2.74,1.1,3.32-3.45,6.26,.96,1.96,2.93,3.65,.07,1.61,5.28-1.59,3.01,1.29,.78,.47,2.48-.92,2.26-3.71-.61-7.5-6.53-4.16-9.56Z" style="fill:#80cb92;"/><path d="M460.34,253.5c.3-.88,.51-1.82,.38-2.74s-.66-1.83-1.5-2.22c-.49-.23-1.1-.25-1.54,.06,1.37-.94,2.68-2.02,3.53-3.44,.85-1.42,1.19-3.23,.53-4.75-.63-1.46-2.13-2.46-3.7-2.69-1.58-.23-3.21,.24-4.55,1.1,.82-2.35,2.1-4.6,2.37-7.07,.27-2.48-.89-5.39-3.31-6-1.64-.41-3.35,.34-4.75,1.27-2.92,1.95-5.22,4.81-6.49,8.08-.36-1.04-.74-2.09-1.37-2.99-.63-.9-1.57-1.64-2.67-1.79-1.8-.23-3.41,1.18-4.33,2.74-.99,1.66-1.5,3.61-1.46,5.54,.06,3.2,1.55,6.17,3.01,9.01-.84-.73-2.25-.51-3.01,.31-1.03,1.11-.87,2.79-.29,4.09,.49,1.1,1.29,2.02,2.16,2.85,4.88,4.61,12.01,6.3,18.57,5.53,2.44-.29,4.4-1.38,6.17-3.1l.02-.02c1.06-1.03,1.77-2.37,2.25-3.76Z" style="fill:#a7dbb4;"/><path d="M472.6,242.25c-.62,1.13-.25,2.52-.25,2.52,0,0,1.38-.43,2-1.56,.62-1.13,.25-2.52,.25-2.52,0,0-1.38,.43-2,1.56Z" style="fill:#699ba0;"/><path d="M476.31,244.62c-1.76-.1-3.28,1.18-3.28,1.18,0,0,1.35,1.45,3.11,1.56,1.76,.1,3.28-1.18,3.28-1.18,0,0-1.35-1.45-3.11-1.56Z" style="fill:#699ba0;"/><path d="M437.61,267.4c.63-.26,.94-.97,.94-.97,0,0-.72-.28-1.35-.01-.63,.27-.94,.97-.94,.97,0,0,.72,.28,1.35,.01Z" style="fill:#699ba0;"/><path d="M436.84,265.17c.7,.63,1.76,.59,1.76,.59,0,0-.08-1.05-.79-1.68-.7-.63-1.76-.59-1.76-.59,0,0,.08,1.05,.79,1.68Z" style="fill:#699ba0;"/><path d="M437.8,228.24c.9,.92,2.34,.97,2.34,.97,0,0-.01-1.44-.91-2.36-.9-.92-2.34-.97-2.34-.97,0,0,.01,1.44,.91,2.36Z" style="fill:#90bdb8;"/><path d="M459.49,235.54c-.83,.32-1.26,1.22-1.26,1.22,0,0,.92,.39,1.76,.07s1.26-1.22,1.26-1.22c0,0-.92-.39-1.76-.07Z" style="fill:#90bdb8;"/><path d="M441.16,225.37c-.61,1.66,.18,3.48,.18,3.48,0,0,1.78-.87,2.39-2.53,.61-1.66-.18-3.48-.18-3.48,0,0-1.78,.87-2.39,2.53Z" style="fill:#90bdb8;"/><path d="M456.01,270.85c.33,.04,.65,.05,.95,.01,.44-.06,.88-.25,1.17-.59,.24-.29,.37-.76,.24-1.13-.19-.54-.89-.41-1.22-.81-.18-.22-.18-.53-.14-.81s.1-.57,.04-.84c-.07-.27-.33-.53-.61-.47-.21,.05-.34,.25-.47,.39-.08,.09-.19,.17-.32,.17-.52-.01-.65-.79-1.19-.69-.57,.1-.89,.7-1.05,1.2-.28,.88-.14,1.85,.46,2.57,.54,.64,1.33,.9,2.14,1Z" style="fill:#a7dbb4;"/></g><g><polygon points="178.8 289.05 178.13 279.38 183.49 273.18 183.16 272.91 180 275.61 179.54 272.91 179.04 273.04 179.13 276.41 177.84 277.66 177.36 267.78 179.98 264.53 179.68 264.28 176.97 266.45 176.79 261.28 176.09 261.28 175.62 267.64 174.93 273.95 171.4 270.12 171.06 270.34 172.35 272.37 170.11 272.34 170.11 272.71 172.56 273.09 174.97 276.86 174.42 289.05 178.8 289.05" style="fill:#875060;"/><path d="M155.95,254.06c-.04-1.21,.05-2.45,.55-3.54,.51-1.09,1.5-2.02,2.69-2.19,.69-.1,1.46,.09,1.89,.65-1.35-1.67-2.58-3.51-3.11-5.59-.53-2.08-.27-4.46,1.12-6.1,1.33-1.58,3.56-2.26,5.61-1.96,2.05,.3,3.89,1.5,5.24,3.07-.15-3.23-.89-6.49-.3-9.67,.59-3.18,3.12-6.36,6.35-6.22,2.19,.1,4.03,1.67,5.43,3.36,2.9,3.51,4.68,7.92,5.05,12.46,.84-1.16,1.7-2.33,2.82-3.21,1.12-.88,2.57-1.46,3.98-1.22,2.32,.38,3.8,2.74,4.36,5.02,.6,2.44,.52,5.04-.25,7.43-1.26,3.95-4.23,7.09-7.1,10.07,1.32-.59,2.99,.21,3.62,1.5,.87,1.76,.04,3.79-1.16,5.19-1.01,1.18-2.36,2.03-3.75,2.73-7.79,3.91-17.27,3.35-25.12-.06-2.92-1.26-4.95-3.35-6.51-6.15l-.02-.03c-.93-1.67-1.32-3.6-1.39-5.52Z" style="fill:#80cb92;"/><path d="M180.96,270.46c.36-.42,1.44-.59,1.42,.18,.32-2.38,3.42-1.48,1.97,.8,2.39-2.48,4.51,.69,1.41,2.11,2.63,.05,1.16,3.8-1.14,2.17,.93,.56,.34,1.79-.67,1.63-2.67-.44-5.4-4.7-3-6.88Z" style="fill:#80cb92;"/><path d="M185.63,263.45c.22-.63,.37-1.31,.27-1.97-.09-.66-.47-1.31-1.08-1.6-.35-.16-.79-.18-1.11,.04,.98-.67,1.93-1.45,2.55-2.48,.61-1.02,.85-2.33,.38-3.42-.46-1.05-1.53-1.77-2.67-1.94-1.14-.17-2.31,.17-3.28,.79,.59-1.7,1.51-3.31,1.7-5.1,.19-1.79-.64-3.88-2.38-4.32-1.18-.3-2.41,.24-3.42,.92-2.1,1.4-3.76,3.46-4.67,5.82-.26-.75-.53-1.51-.99-2.16-.46-.65-1.13-1.18-1.92-1.29-1.29-.17-2.46,.85-3.12,1.97-.71,1.2-1.08,2.6-1.05,3.99,.04,2.3,1.12,4.44,2.17,6.49-.61-.52-1.62-.37-2.17,.22-.74,.8-.63,2.01-.21,2.95,.35,.79,.93,1.46,1.56,2.05,3.52,3.32,8.65,4.54,13.37,3.98,1.75-.21,3.17-.99,4.44-2.23h.01c.76-.76,1.28-1.72,1.62-2.73Z" style="fill:#a7dbb4;"/><path d="M194.45,255.34c-.45,.81-.18,1.81-.18,1.81,0,0,.99-.31,1.44-1.12,.45-.81,.18-1.81,.18-1.81,0,0-.99,.31-1.44,1.12Z" style="fill:#80cb92;"/><path d="M197.13,257.06c-1.27-.07-2.36,.85-2.36,.85,0,0,.97,1.05,2.24,1.12,1.27,.07,2.36-.85,2.36-.85,0,0-.97-1.05-2.24-1.12Z" style="fill:#80cb92;"/><path d="M169.26,273.46c.46-.19,.68-.7,.68-.7,0,0-.52-.2-.97,0-.46,.19-.68,.7-.68,.7,0,0,.52,.2,.97,0Z" style="fill:#699ba0;"/><path d="M168.7,271.86c.51,.45,1.27,.43,1.27,.43,0,0-.06-.76-.57-1.21-.51-.45-1.27-.43-1.27-.43,0,0,.06,.76,.57,1.21Z" style="fill:#699ba0;"/><path d="M169.4,245.26c.65,.66,1.68,.7,1.68,.7,0,0,0-1.04-.66-1.7-.65-.66-1.68-.7-1.68-.7,0,0,0,1.04,.66,1.7Z" style="fill:#90bdb8;"/><path d="M185.02,250.52c-.6,.23-.91,.88-.91,.88,0,0,.66,.28,1.26,.05,.6-.23,.91-.88,.91-.88,0,0-.66-.28-1.26-.05Z" style="fill:#90bdb8;"/><path d="M171.81,243.19c-.44,1.19,.13,2.5,.13,2.5,0,0,1.28-.63,1.72-1.82,.44-1.19-.13-2.5-.13-2.5,0,0-1.28,.63-1.72,1.82Z" style="fill:#90bdb8;"/><path d="M182.51,275.94c.24,.03,.47,.04,.69,0,.32-.04,.64-.18,.84-.43,.17-.21,.27-.54,.17-.81-.14-.39-.64-.29-.88-.58-.13-.16-.13-.38-.1-.59,.03-.2,.07-.41,.03-.61-.05-.2-.24-.38-.44-.34-.15,.03-.24,.18-.34,.28-.06,.06-.14,.12-.23,.12-.38,0-.47-.57-.86-.5-.41,.07-.64,.5-.76,.87-.2,.64-.1,1.33,.33,1.85,.39,.46,.96,.65,1.54,.72Z" style="fill:#629f69;"/></g><g><polygon points="146.33 289.05 141.27 289.05 142.23 275.91 145.37 275.91 146.33 289.05" style="fill:#243854;"/><rect x="142.97" y="232.18" width="1.65" height="56.87" style="fill:#243854;"/><polygon points="146.41 232.18 141.19 232.18 139.27 222.72 148.32 222.72 146.41 232.18" style="fill:#243854;"/><polygon points="145.44 230.43 142.16 230.43 140.95 224.47 146.65 224.47 145.44 230.43" style="fill:#fff;"/><polygon points="146.41 220.32 141.19 220.32 139.27 222.72 148.32 222.72 146.41 220.32" style="fill:#243854;"/><path d="M146.8,232.18h-5.99c-.27,0-.49-.22-.49-.49h0c0-.27,.22-.49,.49-.49h5.99c.27,0,.49,.22,.49,.49h0c0,.27-.22,.49-.49,.49Z" style="fill:#243854;"/><path d="M145.44,276.4h-3.27c-.27,0-.49-.22-.49-.49h0c0-.27,.22-.49,.49-.49h3.27c.27,0,.49,.22,.49,.49h0c0,.27-.22,.49-.49,.49Z" style="fill:#243854;"/><path d="M145.23,220.32c0,.79-.64,1.42-1.42,1.42s-1.42-.64-1.42-1.42,.64-1.42,1.42-1.42,1.42,.64,1.42,1.42Z" style="fill:#243854;"/></g><g><polygon points="413.07 289.05 408.02 289.05 408.97 275.91 412.11 275.91 413.07 289.05" style="fill:#243854;"/><rect x="409.72" y="232.18" width="1.65" height="56.87" style="fill:#243854;"/><polygon points="413.15 232.18 407.93 232.18 406.02 222.72 415.07 222.72 413.15 232.18" style="fill:#243854;"/><polygon points="412.18 230.43 408.9 230.43 407.7 224.47 413.39 224.47 412.18 230.43" style="fill:#fff;"/><polygon points="413.15 220.32 407.93 220.32 406.02 222.72 415.07 222.72 413.15 220.32" style="fill:#243854;"/><path d="M413.54,232.18h-5.99c-.27,0-.49-.22-.49-.49h0c0-.27,.22-.49,.49-.49h5.99c.27,0,.49,.22,.49,.49h0c0,.27-.22,.49-.49,.49Z" style="fill:#243854;"/><path d="M412.18,276.4h-3.27c-.27,0-.49-.22-.49-.49h0c0-.27,.22-.49,.49-.49h3.27c.27,0,.49,.22,.49,.49h0c0,.27-.22,.49-.49,.49Z" style="fill:#243854;"/><path d="M411.97,220.32c0,.79-.64,1.42-1.42,1.42s-1.42-.64-1.42-1.42,.64-1.42,1.42-1.42,1.42,.64,1.42,1.42Z" style="fill:#243854;"/></g></g></g><g><g><path d="M475.98,188.62c11.08-26.84,.14-58.71-25.76-72.76h0c-13.24-7.18-28.36-8.71-42.57-4.29-14.21,4.42-25.8,14.24-32.64,27.66-14.06,27.61-3.34,62.09,23.89,76.87,13.24,7.18,28.36,8.71,42.57,4.29,7.59-2.36,14.43-6.26,20.2-11.43,3.89-3.49,7.29-7.55,10.1-12.11l64.29,34.88c1.76,.96,3.87,.65,5.29-.62,.38-.34,.72-.76,.98-1.24,1.22-2.24,.39-5.05-1.86-6.26l-64.49-34.99Zm-37.25,22.94c-11.81,3.67-24.39,2.4-35.42-3.59-22.87-12.41-31.87-41.37-20.07-64.55,2.66-5.22,6.17-9.78,10.37-13.54,4.8-4.3,10.48-7.54,16.78-9.5,11.81-3.67,24.39-2.4,35.42,3.59,22.87,12.41,31.87,41.37,20.06,64.55-5.69,11.18-15.33,19.36-27.15,23.03Z" style="fill:#e89c24;"/><line x1="480.14" y1="199.38" x2="530.67" y2="226.6" style="fill:none; opacity:.43; stroke:#fff; stroke-linecap:round; stroke-linejoin:round; stroke-width:.77px;"/><path d="M372.61,152.71s-6.12,23.62,9.23,45.67" style="fill:none; opacity:.43; stroke:#fff; stroke-linecap:round; stroke-linejoin:round; stroke-width:.77px;"/></g><g><g><path d="M448.95,159.68c0-13.36-10.83-24.19-24.19-24.19-13.36,0-24.19,10.83-24.19,24.19,0,11.51,8.04,21.14,18.81,23.58l5.38,4.99,5.38-4.99c10.77-2.45,18.81-12.07,18.81-23.58Z" style="fill:#e89c24;"/><path d="M437.68,153.07h2.86c.23,0,.33-.3,.14-.44l-15.78-11c-.08-.06-.19-.06-.27,0l-15.78,11c-.19,.13-.1,.44,.14,.44h2.86c.13,0,.24,.11,.24,.24v17.02c0,.13-.11,.24-.24,.24h-3.39c-.13,0-.24,.11-.24,.24v1.47c0,.13,.11,.24,.24,.24h32.6c.13,0,.24-.11,.24-.24v-1.47c0-.13-.11-.24-.24-.24h-3.39c-.13,0-.24-.11-.24-.24v-17.02c0-.13,.11-.24,.24-.24Zm-6.29,2.31h3.71c.13,0,.24,.11,.24,.24v5.4c0,.13-.11,.24-.24,.24h-3.71c-.13,0-.24-.11-.24-.24v-5.4c0-.13,.11-.24,.24-.24Zm-16.97,0h3.71c.13,0,.24,.11,.24,.24v5.4c0,.13-.11,.24-.24,.24h-3.71c-.13,0-.24-.11-.24-.24v-5.4c0-.13,.11-.24,.24-.24Zm7.42,5.51h5.84c.13,0,.24,.11,.24,.24v9.2c0,.13-.11,.24-.24,.24h-5.84c-.13,0-.24-.11-.24-.24v-9.2c0-.13,.11-.24,.24-.24Z" style="fill:#fff;"/></g><path d="M426.78,192.75c0,1.12-.91,2.02-2.02,2.02s-2.02-.91-2.02-2.02,.91-2.02,2.02-2.02,2.02,.91,2.02,2.02Z" style="fill:#e89c24;"/></g><path d="M400.17,199.83c-8.13-6.13-14.14-15.15-16.32-25.92-1.16-5.76-1.12-11.48-.05-16.91" style="fill:none; stroke:#fff; stroke-linecap:round; stroke-linejoin:round; stroke-width:3.85px;"/></g><g><path d="M410.9,55.04h-61.47c-3.37,0-6.13,2.76-6.13,6.13v4.7c0,3.37,2.76,6.13,6.13,6.13h52.75l4.24,7.44c.56,.99,2.05,.74,2.26-.38l1.34-7.07h.88c3.37,0,6.13-2.76,6.13-6.13v-4.7c0-3.37-2.76-6.13-6.13-6.13Z" style="fill:#e89c24;"/><polygon points="356 66.6 353.7 65.36 351.38 66.56 351.84 63.99 349.99 62.15 352.58 61.8 353.75 59.47 354.89 61.82 357.47 62.22 355.58 64.02 356 66.6" style="fill:#fff;"/><polygon points="370.73 66.6 368.43 65.36 366.11 66.56 366.58 63.99 364.72 62.15 367.31 61.8 368.49 59.47 369.62 61.82 372.2 62.22 370.31 64.02 370.73 66.6" style="fill:#fff;"/><polygon points="384.86 66.6 382.56 65.36 380.24 66.56 380.71 63.99 378.85 62.15 381.44 61.8 382.62 59.47 383.75 61.82 386.33 62.22 384.45 64.02 384.86 66.6" style="fill:#fff;"/><polygon points="398.15 66.6 395.85 65.36 393.53 66.56 393.99 63.99 392.14 62.15 394.73 61.8 395.9 59.47 397.04 61.82 399.62 62.22 397.73 64.02 398.15 66.6" style="fill:#fff;"/><polygon points="410.62 66.6 408.32 65.36 406 66.56 406.46 63.99 404.61 62.15 407.2 61.8 408.38 59.47 409.51 61.82 412.09 62.22 410.2 64.02 410.62 66.6" style="fill:#fff;"/></g><g><path d="M152.21,113.59h61.35c3.37,0,6.12,2.75,6.12,6.12v4.69c0,3.37-2.75,6.12-6.12,6.12h-52.65l-4.23,7.43c-.56,.98-2.04,.74-2.25-.38l-1.33-7.05h-.88c-3.37,0-6.12-2.75-6.12-6.12v-4.69c0-3.37,2.75-6.12,6.12-6.12Z" style="fill:#e89c24;"/><polygon points="207.01 125.13 209.31 123.9 211.62 125.09 211.16 122.52 213.01 120.69 210.43 120.34 209.25 118.01 208.12 120.36 205.54 120.76 207.43 122.56 207.01 125.13" style="fill:none; stroke:#fff; stroke-linecap:round; stroke-linejoin:round; stroke-width:.49px;"/><polygon points="192.3 125.13 194.6 123.9 196.92 125.09 196.45 122.52 198.3 120.69 195.72 120.34 194.55 118.01 193.41 120.36 190.84 120.76 192.72 122.56 192.3 125.13" style="fill:#fff;"/><polygon points="178.2 125.13 180.5 123.9 182.81 125.09 182.35 122.52 184.2 120.69 181.62 120.34 180.44 118.01 179.31 120.36 176.73 120.76 178.62 122.56 178.2 125.13" style="fill:#fff;"/><polygon points="164.94 125.13 167.24 123.9 169.55 125.09 169.09 122.52 170.94 120.69 168.36 120.34 167.18 118.01 166.05 120.36 163.47 120.76 165.36 122.56 164.94 125.13" style="fill:#fff;"/><polygon points="152.49 125.13 154.79 123.9 157.1 125.09 156.64 122.52 158.49 120.69 155.91 120.34 154.73 118.01 153.6 120.36 151.03 120.76 152.91 122.56 152.49 125.13" style="fill:#fff;"/></g></g></svg>