<?xml version="1.0" encoding="UTF-8"?><svg xmlns="http://www.w3.org/2000/svg" viewBox="0 0 600 350"><g id="a"/><g id="b"/><g id="c"/><g id="d"/><g id="e"/><g id="f"/><g id="g"/><g id="h"/><g id="i"/><g id="j"><g><path d="M45.1,330.04s-62.4-59.73,.89-146.21C102.55,106.56,60.32,69.65,118.37,32c58.68-38.06,108.6-14.88,164.76,14.54,56.16,29.42,133.72-41.01,217.53-3.57,83.8,37.44,71.75,94.68,51.02,153.52-17.5,49.67,35.71,85.57,6.69,133.62,0,0-515.05-1.87-513.26-.08Z" style="fill:#f0f0f0;"/><path d="M545.95,258c-3.33-14.14-27.14-10.56-27.14-10.56,0,0-16.9,23.97-21.59,24.4-4.69,.43,10.44-23.31,10.44-23.31-9.03-1.18-32.49,9.13-32.49,9.13,0,0,.5,28.65-4.16,27.91-4.66-.74,.86-25.39,.86-25.39-8.85,2.33-17.38,12.27-17.38,12.27-10.79,16.29,10.71,29.29,10.71,29.29,0,0-.04,9.93-6.56,21.11h0s-1.46,2.06-2.98,5.58l2.39,.08c.22-.63,.45-1.25,.71-1.83,0,0,0,0,0-.01v-.03c.19-.36,.44-.88,.76-1.51h0c.78-1.41,1.31-2.45,1.64-3.2h0c2.34-4.41,5.69-10.15,7.83-11.3,0,0-.25-.38-.47-1.11,.15,.35,.31,.72,.47,1.11,3.8,8.89,24.2,11.04,35.67,9.09,11.47-1.95,6.62-5.33,.65-10.75-5.96-5.42-18.86-4.48-22.59-6.65-3.73-2.17,1.89-4.03,9.47-3.19,7.58,.84,11.12,8.56,23.35,10.14,12.23,1.58,22.36-21.16,22.36-21.16-8.56,2.34-23.6-2.84-24.08-5.78-.49-2.94,22-1.89,25.54-2.65,3.54-.76,9.91-7.55,6.58-21.69Z" style="fill:#dfeafd;"/><path d="M108.02,133.63c3.33-14.14,27.14-10.56,27.14-10.56,0,0,16.9,23.97,21.59,24.4,4.69,.43-10.44-23.31-10.44-23.31,9.03-1.18,32.49,9.13,32.49,9.13,0,0-.5,28.65,4.16,27.91,4.66-.74-.86-25.39-.86-25.39,8.85,2.33,17.38,12.27,17.38,12.27,10.79,16.29-10.71,29.29-10.71,29.29,0,0,.04,9.93,6.56,21.11h0s1.46,2.05,2.98,5.58l-2.39,.08c-.22-.63-.45-1.25-.71-1.83,0,0,0,0,0-.01v-.03c-.19-.36-.44-.88-.76-1.51h0c-.78-1.41-1.31-2.45-1.64-3.2h0c-2.34-4.41-5.69-10.15-7.83-11.3,0,0,.25-.38,.47-1.11-.15,.35-.31,.72-.47,1.11-3.8,8.89-24.2,11.04-35.67,9.09-11.47-1.95-6.61-5.33-.65-10.75,5.96-5.42,18.86-4.48,22.59-6.65,3.73-2.17-1.89-4.03-9.47-3.19-7.58,.84-11.12,8.56-23.35,10.14-12.23,1.58-22.36-21.16-22.36-21.16,8.56,2.34,23.6-2.84,24.08-5.78,.49-2.94-22-1.89-25.54-2.65-3.54-.76-9.91-7.55-6.58-21.69Z" style="fill:#c7d0e3;"/><g><rect x="163.64" y="121.51" width="298.89" height="202.92" rx="7.38" ry="7.38" style="fill:#283451;"/><rect x="170.38" y="128.6" width="285.41" height="193.77" style="fill:#dde5ff;"/><rect x="128.1" y="316.54" width="369.97" height="12.99" rx="5.31" ry="5.31" style="fill:#263238;"/><rect x="170.38" y="128.6" width="285.41" height="188.62" style="fill:#afc0ff;"/></g><g><g><rect x="223.54" y="78.64" width="184.58" height="196.56" style="fill:#f2f2f2;"/><g><rect x="320.6" y="239.83" width="35.28" height="2.28" rx=".05" ry=".05" style="fill:#35488b;"/><path d="M320.65,234.64h43.91s.05,.02,.05,.05v2.18s-.02,.05-.05,.05h-43.91s-.05-.02-.05-.05v-2.18s.02-.05,.05-.05Z" style="fill:#35488b;"/></g><g><rect x="239.55" y="111.83" width="152.56" height="107.34" style="fill:#afc0ff;"/><g><rect x="275.33" y="105.77" width=".25" height="113.39" style="fill:#261f8a;"/><rect x="370.86" y="105.77" width=".25" height="113.39" style="fill:#261f8a;"/><rect x="291.55" y="105.77" width=".25" height="113.39" style="fill:#261f8a;"/><rect x="239.55" y="199.09" width="152.56" height=".25" style="fill:#261f8a;"/><rect x="239.55" y="176.62" width="152.56" height=".25" style="fill:#261f8a;"/><rect x="239.55" y="154.16" width="152.56" height=".25" style="fill:#261f8a;"/><rect x="239.55" y="131.69" width="152.56" height=".25" style="fill:#261f8a;"/></g><rect x="239.55" y="92.42" width="152.56" height="21.78" style="fill:#e97a3c;"/></g><path d="M377.71,256.75c-3.44,1.05-6.79,1.6-9.43,1.39-4.02-.32-6.29-2.31-6.38-5.6-.07-2.62,1.08-4.91,3.33-6.77-.02-.18-.04-.36-.05-.54-.15-1.84,.27-3.07,1.24-3.64,1.57-.92,3.9,.34,4,.39l-.52,.84c-.52-.29-2.08-.92-2.93-.41-.74,.44-.83,1.65-.76,2.63,1.83-1.25,4.23-2.28,7.15-3.02,2.16-.55,4.56-.92,6.74-1.09,.01-.23,.03-.44,.06-.6,.07-.45,.24-.98,.71-1.09,.18-.04,.52-.03,.83,.41,.2,.28,.3,.69,.32,1.18,.75-.02,1.44,0,2.06,.04l.02-.04c-.15-1.16-.04-2.52,.16-3.4,.26-1.13,.69-1.7,1.29-1.76,.36-.03,.67,.15,.82,.48,.34,.77-.29,2.83-1.21,4.82h0c.86,.15,1.44,.37,1.62,.68,.14,.23,.16,.6-.21,.91-.69,.6-1.24,.45-1.51,.31-.23-.12-.41-.33-.55-.6-.69,1.29-1.44,2.4-2.04,2.86-.54,.43-1.02,.26-1.2,.16-.09-.05-.18-.12-.26-.2-.24,.54-.5,1.06-.79,1.54-1.08,1.79-2.3,2.71-3.52,2.66-.5-.02-.94-.21-1.32-.55-.68,1.38-1.53,2.7-2.37,3.68-.86,1-1.95,1.37-3.09,1.03-2-.59-3.82-3.33-4.49-6.57-1.71,1.58-2.55,3.45-2.49,5.6,.08,2.81,1.9,4.38,5.43,4.66,8.9,.7,24.5-7.11,25.68-12.86h0c-.96,4.67-8.36,10-16.34,12.44Zm-11.38-10.58c.54,3.42,2.36,5.94,3.89,6.39,.72,.21,1.39-.03,1.98-.72,1-1.17,1.87-2.61,2.49-4.02-.18-.36-.32-.79-.43-1.27-.25-1.13-.29-2.68,0-3.74-1.66,.39-3.33,.91-4.87,1.6-1.18,.53-2.2,1.11-3.06,1.75Zm9.5,1.6c.22,.32,.52,.57,.91,.58,.78,.03,1.72-.76,2.58-2.17,.44-.74,.8-1.52,1.07-2.27-.17-.61-.26-1.33-.29-1.98-1.15,.09-2.39,.23-3.68,.45,.67,1.23,.28,3.31-.58,5.39Zm5.63-3.84c.16,.46,.31,.55,.31,.55,.58-.47,1.24-1.48,1.84-2.64-.49-.02-1.04-.02-1.65,0-.08,.65-.26,1.37-.5,2.1Zm-6.06-1.25c-.26,.52-.45,2.17-.13,3.65,.52-1.62,.62-3.01,.13-3.65Zm10.17-.62h0Zm-.15-5.01c-.09,.25-.18,.6-.24,1.02,.12-.4,.21-.75,.24-1.02Z" style="fill:#e9743d;"/></g><g><path d="M251.43,99.43h1.36v7.77h-1.36v-7.77Z" style="fill:#ebf2f9;"/><path d="M254.87,99.43h1.27l4.16,5.37v-5.37h1.34v7.77h-1.14l-4.28-5.53v5.53h-1.34v-7.77Z" style="fill:#ebf2f9;"/><path d="M262.97,99.43h1.51l2.34,5.97,2.33-5.97h1.48l-3.23,7.82h-1.2l-3.23-7.82Z" style="fill:#ebf2f9;"/><path d="M271.14,103.31c0-2.19,1.69-4.02,4.07-4.02s4.05,1.81,4.05,4.02-1.69,4.02-4.07,4.02-4.05-1.81-4.05-4.02Zm6.69,0c0-1.51-1.1-2.76-2.64-2.76s-2.62,1.23-2.62,2.76,1.1,2.76,2.64,2.76,2.62-1.23,2.62-2.76Z" style="fill:#ebf2f9;"/><path d="M281,99.43h1.37v7.77h-1.37v-7.77Z" style="fill:#ebf2f9;"/><path d="M284.09,103.31c0-2.21,1.65-4.02,4.01-4.02,1.43,0,2.3,.5,3.04,1.21l-.88,1.01c-.62-.58-1.29-.97-2.18-.97-1.49,0-2.56,1.22-2.56,2.76s1.08,2.76,2.56,2.76c.95,0,1.56-.39,2.23-1.01l.88,.89c-.81,.84-1.7,1.38-3.15,1.38-2.26,0-3.95-1.76-3.95-4.02Z" style="fill:#ebf2f9;"/><path d="M292.63,99.43h5.76v1.22h-4.39v2.02h3.9v1.22h-3.9v2.09h4.45v1.22h-5.82v-7.77Z" style="fill:#ebf2f9;"/></g></g><g><path d="M210.43,289.32l-77.97-.48c-3.48-.02-6.28-2.86-6.25-6.33l.51-81.95c.02-3.48,2.86-6.28,6.33-6.25l77.97,.48c3.48,.02,6.28,2.86,6.25,6.33l-.51,81.95c-.02,3.48-2.86,6.28-6.33,6.25Z" style="fill:#1c83ff;"/><rect x="164.43" y="168.38" width="15.02" height="80.24" rx="2.77" ry="2.77" transform="translate(-37.62 379.14) rotate(-89.64)" style="fill:#afc0ff;"/><g><g><path d="M153.18,240.56h6.4c1.6,0,2.89,1.3,2.89,2.89v6.4c0,1.6-1.3,2.89-2.89,2.89h-6.4c-1.6,0-2.89-1.3-2.89-2.89v-6.4c0-1.6,1.3-2.89,2.89-2.89Z" transform="translate(-91.25 401.48) rotate(-89.64)" style="fill:#35488b;"/><rect x="150.19" y="255.51" width="12.18" height="12.18" rx="2.89" ry="2.89" transform="translate(-106.29 416.25) rotate(-89.64)" style="fill:#35488b;"/><path d="M152.99,270.46h6.4c1.6,0,2.89,1.3,2.89,2.89v6.4c0,1.6-1.3,2.89-2.89,2.89h-6.4c-1.6,0-2.89-1.3-2.89-2.89v-6.4c0-1.6,1.3-2.89,2.89-2.89Z" transform="translate(-121.33 431.02) rotate(-89.64)" style="fill:#35488b;"/><path d="M169.28,240.66h6.4c1.6,0,2.89,1.3,2.89,2.89v6.4c0,1.6-1.3,2.89-2.89,2.89h-6.4c-1.6,0-2.89-1.3-2.89-2.89v-6.4c0-1.6,1.3-2.89,2.89-2.89Z" transform="translate(-75.34 417.69) rotate(-89.64)" style="fill:#35488b;"/><path d="M169.18,255.61h6.4c1.6,0,2.89,1.3,2.89,2.89v6.4c0,1.6-1.3,2.89-2.89,2.89h-6.4c-1.6,0-2.89-1.3-2.89-2.89v-6.4c0-1.6,1.3-2.89,2.89-2.89Z" transform="translate(-90.39 432.45) rotate(-89.64)" style="fill:#35488b;"/><path d="M169.09,270.56h6.4c1.6,0,2.89,1.3,2.89,2.89v6.4c0,1.6-1.3,2.89-2.89,2.89h-6.4c-1.6,0-2.89-1.3-2.89-2.89v-6.4c0-1.6,1.3-2.89,2.89-2.89Z" transform="translate(-105.43 447.22) rotate(-89.64)" style="fill:#35488b;"/><path d="M184.71,255.71h6.4c1.6,0,2.89,1.3,2.89,2.89v6.4c0,1.6-1.3,2.89-2.89,2.89h-6.4c-1.6,0-2.89-1.3-2.89-2.89v-6.4c0-1.6,1.3-2.89,2.89-2.89Z" transform="translate(-75.05 448.08) rotate(-89.64)" style="fill:#35488b;"/><path d="M184.61,270.66h6.4c1.6,0,2.89,1.3,2.89,2.89v6.4c0,1.6-1.3,2.89-2.89,2.89h-6.4c-1.6,0-2.89-1.3-2.89-2.89v-6.4c0-1.6,1.3-2.89,2.89-2.89Z" transform="translate(-90.1 462.83) rotate(-89.64)" style="fill:#35488b;"/></g><g><path d="M139.2,224.21h3.79c1.6,0,2.89,1.3,2.89,2.89v6.4c0,1.6-1.3,2.89-2.89,2.89h-3.79c-1.6,0-2.89-1.3-2.89-2.89v-6.4c0-1.6,1.3-2.89,2.89-2.89Z" transform="translate(-90.08 369.97) rotate(-89.64)" style="fill:#e5eaf6;"/><path d="M139.1,239.89h3.79c1.6,0,2.89,1.3,2.89,2.89v6.4c0,1.6-1.3,2.89-2.89,2.89h-3.79c-1.6,0-2.89-1.3-2.89-2.89v-6.4c0-1.6,1.3-2.89,2.89-2.89Z" transform="translate(-105.86 385.44) rotate(-89.64)" style="fill:#e5eaf6;"/><path d="M139,255.56h3.79c1.6,0,2.89,1.3,2.89,2.89v6.4c0,1.6-1.3,2.89-2.89,2.89h-3.79c-1.6,0-2.89-1.3-2.89-2.89v-6.4c0-1.6,1.3-2.89,2.89-2.89Z" transform="translate(-121.62 400.93) rotate(-89.64)" style="fill:#e5eaf6;"/><path d="M138.91,271.24h3.79c1.6,0,2.89,1.3,2.89,2.89v6.4c0,1.6-1.3,2.89-2.89,2.89h-3.79c-1.6,0-2.89-1.3-2.89-2.89v-6.4c0-1.6,1.3-2.89,2.89-2.89Z" transform="translate(-137.4 416.4) rotate(-89.64)" style="fill:#e5eaf6;"/><path d="M153.27,225.61h6.4c1.6,0,2.89,1.3,2.89,2.89v6.4c0,1.6-1.3,2.89-2.89,2.89h-6.4c-1.6,0-2.89-1.3-2.89-2.89v-6.4c0-1.6,1.3-2.89,2.89-2.89Z" transform="translate(-76.2 386.73) rotate(-89.64)" style="fill:#e5eaf6;"/><rect x="166.48" y="225.71" width="12.18" height="12.18" rx="2.89" ry="2.89" transform="translate(-60.3 402.93) rotate(-89.64)" style="fill:#e5eaf6;"/><path d="M184.89,225.81h6.4c1.6,0,2.89,1.3,2.89,2.89v6.4c0,1.6-1.3,2.89-2.89,2.89h-6.4c-1.6,0-2.89-1.3-2.89-2.89v-6.4c0-1.6,1.3-2.89,2.89-2.89Z" transform="translate(-44.97 418.55) rotate(-89.64)" style="fill:#e5eaf6;"/><path d="M199.39,240.92h6.4c1.6,0,2.89,1.3,2.89,2.89v6.4c0,1.6-1.3,2.89-2.89,2.89h-6.4c-1.6,0-2.89-1.3-2.89-2.89v-6.4c0-1.6,1.3-2.89,2.89-2.89Z" transform="translate(-45.68 448.05) rotate(-89.64)" style="fill:#ec9037;"/><path d="M199.48,225.97h6.4c1.6,0,2.89,1.3,2.89,2.89v6.4c0,1.6-1.3,2.89-2.89,2.89h-6.4c-1.6,0-2.89-1.3-2.89-2.89v-6.4c0-1.6,1.3-2.89,2.89-2.89Z" transform="translate(-30.63 433.3) rotate(-89.64)" style="fill:#e5eaf6;"/><path d="M191.78,263.34h21.35c1.6,0,2.89,1.3,2.89,2.89v6.4c0,1.6-1.3,2.89-2.89,2.89h-21.35c-1.6,0-2.89-1.3-2.89-2.89v-6.4c0-1.6,1.3-2.89,2.89-2.89Z" transform="translate(-68.24 470.21) rotate(-89.64)" style="fill:#ec9037;"/></g></g><g><path d="M158,208.29v-2.05l.31-.78c.26,.07,.42,.23,.48,.49l-.02,2.73-.2,.19-.58-.59Zm.58,.78l.19,.2-.02,2.73c-.07,.26-.23,.42-.49,.48l-.29-.78v-2.05l.6-.58Z" style="fill:#35488b;"/><path d="M161.42,206.46v1.85l-.6,.58-.19-.2,.02-2.54,.78,.3Zm-.81,5.36l.02-2.54,.2-.19,.58,.59v1.85l-.79,.29Zm3.41,.7l-2.93-.02c-.26-.07-.42-.23-.48-.49l.78-.29h2.34l.29,.8Zm-.25-6.25h-2.33l-.78-.31c.07-.26,.23-.42,.49-.48l2.92,.02-.3,.78Zm.18,2.05v-2.05l.31-.78c.26,.07,.42,.23,.48,.49l-.02,2.73-.2,.19-.58-.59Zm.58,.78l.19,.2-.02,2.73c-.07,.26-.23,.42-.49,.49l-.29-.78v-2.05l.6-.58Z" style="fill:#35488b;"/><path d="M167.37,206.49v1.85l-.6,.58-.19-.2,.02-2.54,.78,.3Zm-.81,5.36l.02-2.54,.2-.19,.58,.59v1.85l-.79,.29Zm3.41,.7l-2.93-.02c-.26-.07-.42-.23-.48-.49l.78-.29h2.34l.29,.8Zm-.25-6.25h-2.33l-.78-.31c.07-.26,.23-.42,.49-.48l2.92,.02-.3,.78Zm.18,2.05v-2.05l.31-.78c.26,.07,.42,.23,.48,.49l-.02,2.73-.2,.19-.58-.59Zm.58,.78l.19,.2-.02,2.73c-.07,.26-.23,.42-.49,.48l-.29-.78v-2.05l.6-.58Z" style="fill:#35488b;"/><path d="M173.33,206.53v1.85l-.6,.58-.19-.2,.02-2.54,.78,.3Zm-.81,5.36l.02-2.54,.2-.19,.58,.59v1.85l-.79,.29Zm3.41,.7l-2.93-.02c-.26-.07-.42-.23-.48-.49l.78-.29h2.34l.29,.8Zm-.25-6.25h-2.33l-.78-.31c.07-.26,.23-.42,.49-.48l2.92,.02-.3,.78Zm.18,2.05v-2.05l.31-.78c.26,.07,.42,.23,.48,.49l-.02,2.73-.2,.19-.58-.59Zm.58,.78l.19,.2-.02,2.73c-.07,.26-.23,.42-.49,.48l-.29-.78v-2.05l.6-.58Z" style="fill:#35488b;"/><path d="M179.28,206.57v1.85l-.6,.58-.19-.2,.02-2.54,.78,.3Zm-.81,5.36l.02-2.54,.2-.19,.58,.59v1.85l-.79,.29Zm3.41,.7l-2.93-.02c-.26-.07-.42-.23-.48-.49l.78-.29h2.34l.29,.8Zm-.25-6.25h-2.33l-.78-.31c.07-.26,.23-.42,.49-.48l2.92,.02-.3,.78Zm.18,2.05v-2.05l.31-.78c.26,.07,.42,.23,.48,.49l-.02,2.73-.2,.19-.58-.59Zm.58,.78l.19,.2-.02,2.73c-.07,.26-.23,.42-.49,.49l-.29-.78v-2.05l.6-.58Z" style="fill:#35488b;"/><path d="M185.23,206.6v1.85l-.6,.58-.19-.2,.02-2.54,.78,.3Zm-.81,5.36l.02-2.54,.2-.19,.58,.59v1.85l-.79,.29Zm3.41,.7l-2.93-.02c-.26-.07-.42-.23-.48-.49l.78-.29h2.34l.29,.8Zm-.25-6.25h-2.33l-.78-.31c.07-.26,.23-.42,.49-.48l2.92,.02-.3,.78Zm.18,2.05v-2.05l.31-.78c.26,.07,.42,.23,.48,.49l-.02,2.73-.2,.19-.58-.59Zm.58,.78l.19,.2-.02,2.73c-.07,.26-.23,.42-.49,.48l-.29-.78v-2.05l.6-.58Z" style="fill:#35488b;"/><path d="M191.18,206.64v1.85l-.6,.58-.19-.2,.02-2.54,.78,.3Zm-.81,5.36l.02-2.54,.2-.19,.58,.59v1.85l-.79,.29Zm3.41,.7l-2.93-.02c-.26-.07-.42-.23-.48-.49l.78-.29h2.34l.29,.8Zm-.25-6.25h-2.33l-.78-.31c.07-.26,.23-.42,.49-.48l2.92,.02-.3,.78Zm.18,2.05v-2.05l.31-.78c.26,.07,.42,.23,.48,.49l-.02,2.73-.2,.19-.58-.59Zm.58,.78l.19,.2-.02,2.73c-.07,.26-.23,.42-.49,.48l-.29-.78v-2.05l.6-.58Z" style="fill:#35488b;"/><path d="M197.13,206.68v1.85l-.6,.58-.19-.2,.02-2.54,.78,.3Zm-.81,5.36l.02-2.54,.2-.19,.58,.59v1.85l-.79,.29Zm3.41,.7l-2.93-.02c-.26-.07-.42-.23-.48-.49l.78-.29h2.34l.29,.8Zm-.25-6.25h-2.33l-.78-.31c.07-.26,.23-.42,.49-.48l2.92,.02-.3,.78Zm.18,2.05v-2.05l.31-.78c.26,.07,.42,.23,.48,.49l-.02,2.73-.2,.19-.58-.59Zm.58,.78l.19,.2-.02,2.73c-.07,.26-.23,.42-.49,.49l-.29-.78v-2.05l.6-.58Z" style="fill:#35488b;"/><path d="M203.08,206.72v1.85l-.6,.58-.19-.2,.02-2.54,.78,.3Zm-.81,5.36l.02-2.54,.2-.19,.58,.59v1.85l-.79,.29Zm3.41,.7l-2.93-.02c-.26-.07-.42-.23-.48-.49l.78-.29h2.34l.29,.8Zm-.25-6.25h-2.33l-.78-.31c.07-.26,.23-.42,.49-.48l2.92,.02-.3,.78Zm.18,2.05v-2.05l.31-.78c.26,.07,.42,.23,.48,.49l-.02,2.73-.2,.19-.58-.59Zm.58,.78l.19,.2-.02,2.73c-.07,.26-.23,.42-.49,.48l-.29-.78v-2.05l.6-.58Z" style="fill:#35488b;"/></g></g><g><g><g><g><path d="M538.48,326.5v3.17c0,.25-.09,.49-.25,.68-.17,.2-.4,.37-.68,.46-.09,.03-.17,.05-.27,.06-.08,.01-.17,.02-.26,.02h-60.18c-.73,0-1.33-.45-1.44-1.04,0-.04-.01-.08-.01-.12,0-.02,0-.04,0-.06v-3.17s0-.04,0-.06c0-.04,0-.08,.01-.12,.11-.59,.71-1.04,1.44-1.04h60.18c.09,0,.17,0,.26,.02,.09,.01,.18,.04,.27,.06,.28,.09,.52,.25,.68,.46,.16,.2,.25,.43,.25,.68Z" style="fill:#f5b425;"/><path d="M508.93,330.89h-32.24c-.6,0-1.1-.39-1.25-.9-.01-.04-.03-.09-.04-.13,0-.04-.01-.08-.01-.12,0-.02,0-.04,0-.06v-3.17s0-.04,0-.06c0-.04,0-.08,.01-.12,0-.05,.02-.09,.04-.13,.15-.52,.65-.9,1.25-.9h28.28c.45,1.65,1.5,3.94,3.96,5.62Z" style="fill:#f39e00;"/><g><rect x="530.47" y="325.27" width=".68" height="5.62" style="fill:#f39e00;"/><rect x="528.16" y="325.27" width=".68" height="5.62" style="fill:#f39e00;"/><rect x="525.38" y="325.27" width=".68" height="5.62" style="fill:#f39e00;"/><rect x="521.12" y="325.27" width=".68" height="5.62" style="fill:#f39e00;"/><rect x="516.62" y="325.27" width=".68" height="5.62" style="fill:#f39e00;"/><rect x="509.72" y="325.27" width=".68" height="5.62" style="fill:#f39e00;"/><rect x="503.26" y="325.27" width=".68" height="5.62" style="fill:#f39e00;"/><rect x="497.5" y="325.27" width=".68" height="5.62" style="fill:#f39e00;"/><rect x="532.67" y="325.27" width=".68" height="5.62" style="fill:#f39e00;"/><rect x="534.13" y="325.27" width=".68" height="5.62" style="fill:#f39e00;"/><rect x="535.54" y="325.27" width=".68" height="5.62" style="fill:#f39e00;"/><path d="M537.28,325.29v5.58c-.08,.01-.17,.02-.26,.02h-.43v-5.62h.43c.09,0,.17,0,.26,.02Z" style="fill:#f39e00;"/><path d="M538.23,325.81v4.54c-.17,.21-.4,.37-.68,.46v-5.45c.28,.09,.52,.25,.68,.46Z" style="fill:#f39e00;"/></g></g><g><path d="M532.04,320.88v3.17c0,.25-.09,.49-.25,.68-.04,.05-.09,.1-.14,.14-.15,.14-.34,.24-.55,.31-.08,.03-.17,.05-.27,.06-.08,.01-.17,.02-.26,.02h-60.18c-.73,0-1.33-.45-1.44-1.04,0-.04-.01-.08-.01-.12,0-.02,0-.04,0-.06v-3.17s0-.04,0-.06c0-.04,0-.08,.01-.12,.11-.59,.71-1.04,1.44-1.04h60.18s.08,0,.11,0c.02,0,.03,0,.04,0h0s.04,0,.05,0h.04c.09,.02,.18,.04,.27,.07,.05,.02,.1,.04,.15,.06h0s.06,.03,.09,.05l.05,.03s.03,.02,.05,.03c.06,.04,.12,.08,.18,.13,.02,.01,.03,.03,.05,.05,.01,0,.02,.02,.03,.03l.02,.02h.01s.04,.05,.05,.08c.16,.2,.25,.43,.25,.68Z" style="fill:#f5b425;"/><path d="M502.49,325.27h-32.24c-.6,0-1.1-.39-1.25-.91-.01-.04-.03-.09-.03-.13,0-.04-.01-.08-.01-.12,0-.02,0-.04,0-.06v-3.17s0-.04,0-.06c0-.04,0-.08,.01-.12,0-.05,.02-.09,.03-.13,.15-.52,.65-.91,1.25-.91h28.28s.02,.09,.04,.14c.47,1.64,1.53,3.85,3.92,5.48Z" style="fill:#f39e00;"/><g><rect x="524.04" y="319.66" width=".68" height="5.62" style="fill:#f39e00;"/><rect x="521.72" y="319.66" width=".68" height="5.62" style="fill:#f39e00;"/><rect x="518.94" y="319.66" width=".68" height="5.62" style="fill:#f39e00;"/><rect x="514.69" y="319.66" width=".68" height="5.62" style="fill:#f39e00;"/><rect x="510.19" y="319.66" width=".68" height="5.62" style="fill:#f39e00;"/><rect x="503.29" y="319.66" width=".68" height="5.62" style="fill:#f39e00;"/><rect x="496.83" y="319.66" width=".68" height="5.62" style="fill:#f39e00;"/><rect x="491.06" y="319.66" width=".68" height="5.62" style="fill:#f39e00;"/><rect x="526.24" y="319.66" width=".68" height="5.62" style="fill:#f39e00;"/><rect x="527.7" y="319.66" width=".68" height="5.62" style="fill:#f39e00;"/><rect x="529.1" y="319.66" width=".68" height="5.62" style="fill:#f39e00;"/><path d="M530.84,319.68v5.58c-.08,.01-.17,.02-.26,.02h-.43v-5.62h.43c.09,0,.17,0,.26,.02Z" style="fill:#f39e00;"/><path d="M531.79,320.2v4.54c-.17,.21-.4,.37-.68,.46v-5.45c.28,.09,.52,.25,.68,.46Z" style="fill:#f39e00;"/></g></g><g><path d="M535.15,315.4v3.17c0,.25-.09,.49-.25,.68-.17,.2-.4,.37-.68,.46-.08,.03-.17,.05-.27,.06-.08,.01-.17,.02-.26,.02h-60.18c-.24,0-.47-.05-.67-.14-.4-.17-.69-.5-.77-.89,0-.03,0-.05-.01-.08,0-.02,0-.04,0-.05,0-.02,0-.04,0-.06v-3.17s0-.04,0-.06c0-.04,0-.08,.01-.12,.11-.59,.71-1.04,1.44-1.04h60.18c.09,0,.17,0,.26,.02,.09,.01,.18,.03,.27,.06,.28,.09,.52,.25,.68,.46,.16,.2,.25,.43,.25,.68Z" style="fill:#f5b425;"/><path d="M505.6,319.79h-32.24c-.22,0-.42-.05-.6-.14-.36-.17-.62-.5-.68-.89,0-.03,0-.05-.01-.08,0-.02,0-.04,0-.05,0-.02,0-.04,0-.06v-3.17s0-.04,0-.06c0-.04,0-.08,.01-.12,0-.04,.02-.09,.03-.13,.15-.52,.65-.91,1.25-.91h28.28c.44,1.61,1.45,3.82,3.76,5.48,.06,.05,.13,.09,.2,.14Z" style="fill:#f39e00;"/><g><rect x="527.15" y="314.18" width=".68" height="5.62" style="fill:#f39e00;"/><rect x="524.83" y="314.18" width=".68" height="5.62" style="fill:#f39e00;"/><rect x="522.05" y="314.18" width=".68" height="5.62" style="fill:#f39e00;"/><rect x="517.8" y="314.18" width=".68" height="5.62" style="fill:#f39e00;"/><rect x="513.3" y="314.18" width=".68" height="5.62" style="fill:#f39e00;"/><rect x="506.4" y="314.18" width=".68" height="5.62" style="fill:#f39e00;"/><rect x="499.94" y="314.18" width=".68" height="5.62" style="fill:#f39e00;"/><rect x="494.17" y="314.18" width=".68" height="5.62" style="fill:#f39e00;"/><rect x="529.35" y="314.18" width=".68" height="5.62" style="fill:#f39e00;"/><rect x="530.81" y="314.18" width=".68" height="5.62" style="fill:#f39e00;"/><rect x="532.21" y="314.18" width=".68" height="5.62" style="fill:#f39e00;"/><path d="M533.95,314.2v5.58c-.08,.01-.17,.02-.26,.02h-.43v-5.62h.43c.09,0,.17,0,.26,.02Z" style="fill:#f39e00;"/><path d="M534.9,314.72v4.54c-.17,.21-.4,.37-.68,.46v-5.45c.28,.09,.52,.25,.68,.46Z" style="fill:#f39e00;"/></g></g><g><path d="M536.59,309.78v3.17c0,.25-.09,.49-.25,.68-.02,.03-.04,.05-.07,.08-.11,.12-.26,.23-.42,.3-.06,.03-.13,.06-.2,.08-.09,.03-.17,.05-.27,.06-.04,0-.08,.01-.13,.01-.04,0-.09,0-.13,0h-60.18c-.73,0-1.33-.45-1.44-1.04,0-.04-.01-.08-.01-.12v-3.3c.04-.6,.59-1.08,1.28-1.15,.06,0,.11,0,.17,0h60.18s.09,0,.13,0c.04,0,.08,0,.13,.01,.09,.01,.18,.03,.27,.06,.28,.09,.52,.25,.68,.46,.16,.2,.25,.43,.25,.68Z" style="fill:#f5b425;"/><path d="M507.04,314.18h-32.24c-.6,0-1.1-.39-1.25-.91-.01-.04-.03-.09-.04-.13,0-.04-.01-.08-.01-.12v-3.3c.03-.59,.52-1.08,1.14-1.15,.05,0,.1,0,.15,0h28.28c.45,1.66,1.51,3.94,3.96,5.62Z" style="fill:#f39e00;"/><g><rect x="528.59" y="308.56" width=".68" height="5.62" style="fill:#f39e00;"/><rect x="526.27" y="308.56" width=".68" height="5.62" style="fill:#f39e00;"/><rect x="523.5" y="308.56" width=".68" height="5.62" style="fill:#f39e00;"/><rect x="519.24" y="308.56" width=".68" height="5.62" style="fill:#f39e00;"/><rect x="514.74" y="308.56" width=".68" height="5.62" style="fill:#f39e00;"/><rect x="507.84" y="308.56" width=".68" height="5.62" style="fill:#f39e00;"/><rect x="501.38" y="308.56" width=".68" height="5.62" style="fill:#f39e00;"/><rect x="495.61" y="308.56" width=".68" height="5.62" style="fill:#f39e00;"/><rect x="530.79" y="308.56" width=".68" height="5.62" style="fill:#f39e00;"/><rect x="532.25" y="308.56" width=".68" height="5.62" style="fill:#f39e00;"/><rect x="533.65" y="308.56" width=".68" height="5.62" style="fill:#f39e00;"/><path d="M535.39,308.58v5.58c-.08,.01-.17,.02-.26,.02h-.43v-5.62h.43c.09,0,.17,0,.26,.02Z" style="fill:#f39e00;"/><path d="M536.34,309.1v4.54c-.17,.21-.4,.37-.68,.46v-5.45c.28,.09,.52,.25,.68,.46Z" style="fill:#f39e00;"/></g></g><g><path d="M532.17,304.17v3.17c0,.25-.09,.49-.25,.68-.17,.21-.4,.37-.68,.46-.08,.03-.17,.05-.26,.06-.03,0-.06,0-.08,.01h-.01s-.03,0-.05,0c-.01,0-.02,0-.04,0-.03,0-.05,0-.08,0h-60.18c-.78,0-1.42-.52-1.46-1.16,0-.02,0-.04,0-.06v-3.17s0-.04,0-.06c0-.02,0-.03,0-.05,.06-.52,.51-.95,1.09-1.07,.01,0,.03,0,.04,0,.1-.02,.21-.03,.32-.03h60.18s.09,0,.13,0h.06s.05,.01,.07,.01c.09,.01,.18,.03,.26,.06,.28,.09,.52,.25,.68,.46,.16,.2,.25,.43,.25,.68Z" style="fill:#f5b425;"/><path d="M502.62,308.57h-32.24c-.69,0-1.26-.52-1.3-1.16,0-.02,0-.04,0-.06v-3.17s0-.04,0-.06c0-.02,0-.03,0-.05,.05-.53,.47-.96,1.01-1.08,.02,0,.04,0,.05-.01,.08-.01,.15-.02,.23-.02h28.28v.04c.47,1.65,1.52,3.91,3.95,5.57h.01Z" style="fill:#f39e00;"/><g><rect x="524.16" y="302.95" width=".68" height="5.62" style="fill:#f39e00;"/><rect x="521.85" y="302.95" width=".68" height="5.62" style="fill:#f39e00;"/><rect x="519.07" y="302.95" width=".68" height="5.62" style="fill:#f39e00;"/><rect x="514.82" y="302.95" width=".68" height="5.62" style="fill:#f39e00;"/><rect x="510.32" y="302.95" width=".68" height="5.62" style="fill:#f39e00;"/><rect x="503.42" y="302.95" width=".68" height="5.62" style="fill:#f39e00;"/><rect x="496.96" y="302.95" width=".68" height="5.62" style="fill:#f39e00;"/><rect x="491.19" y="302.95" width=".68" height="5.62" style="fill:#f39e00;"/><rect x="526.37" y="302.95" width=".68" height="5.62" style="fill:#f39e00;"/><rect x="527.82" y="302.95" width=".68" height="5.62" style="fill:#f39e00;"/><rect x="529.23" y="302.95" width=".68" height="5.62" style="fill:#f39e00;"/><path d="M530.97,302.97v5.58c-.08,.01-.17,.02-.26,.02h-.43v-5.62h.43c.09,0,.17,0,.26,.02Z" style="fill:#f39e00;"/><path d="M531.92,303.49v4.54c-.17,.21-.4,.37-.68,.46v-5.45c.28,.09,.52,.25,.68,.46Z" style="fill:#f39e00;"/></g></g><g><path d="M532.04,298.59v3.17c0,.25-.09,.49-.25,.68-.04,.05-.09,.1-.14,.15-.15,.14-.34,.24-.55,.31-.07,.02-.14,.04-.21,.05h0s-.04,0-.05,0c-.08,.01-.17,.02-.26,.02h-60.18c-.06,0-.13,0-.19-.01-.02,0-.05,0-.07,0-.61-.09-1.1-.51-1.18-1.03,0-.04,0-.07-.01-.11,0-.02,0-.04,0-.06v-3.17s0-.04,0-.06c0-.04,0-.08,.01-.12,.11-.59,.71-1.04,1.44-1.04h60.18s.08,0,.11,0h.02s.02,0,.03,0c.02,0,.04,0,.05,0,.01,0,.02,0,.04,0,.09,.01,.18,.03,.27,.06,.05,.02,.1,.04,.15,.06h0c.19,.08,.35,.2,.48,.34,.02,.02,.04,.04,.05,.06,.16,.2,.25,.43,.25,.68Z" style="fill:#f5b425;"/><path d="M502.49,302.99h-32.24s-.05,0-.08,0c-.03,0-.06,0-.08,0-.58-.07-1.05-.5-1.13-1.05,0-.04,0-.07-.01-.11,0-.02,0-.04,0-.06v-3.17s0-.04,0-.06c0-.04,0-.08,.01-.12,0-.05,.02-.09,.03-.13,.15-.52,.65-.91,1.25-.91h28.28s.02,.09,.04,.14c.47,1.63,1.52,3.81,3.86,5.44,.02,.02,.04,.03,.06,.04Z" style="fill:#f39e00;"/><g><rect x="524.04" y="297.37" width=".68" height="5.62" style="fill:#f39e00;"/><rect x="521.72" y="297.37" width=".68" height="5.62" style="fill:#f39e00;"/><rect x="518.94" y="297.37" width=".68" height="5.62" style="fill:#f39e00;"/><rect x="514.69" y="297.37" width=".68" height="5.62" style="fill:#f39e00;"/><rect x="510.19" y="297.37" width=".68" height="5.62" style="fill:#f39e00;"/><rect x="503.29" y="297.37" width=".68" height="5.62" style="fill:#f39e00;"/><rect x="496.83" y="297.37" width=".68" height="5.62" style="fill:#f39e00;"/><rect x="491.06" y="297.37" width=".68" height="5.62" style="fill:#f39e00;"/><rect x="526.24" y="297.37" width=".68" height="5.62" style="fill:#f39e00;"/><rect x="527.7" y="297.37" width=".68" height="5.62" style="fill:#f39e00;"/><rect x="529.1" y="297.37" width=".68" height="5.62" style="fill:#f39e00;"/><path d="M530.84,297.39v5.58c-.08,.01-.17,.02-.26,.02h-.43v-5.62h.43c.09,0,.17,0,.26,.02Z" style="fill:#f39e00;"/><path d="M531.79,297.91v4.54c-.17,.21-.4,.37-.68,.46v-5.45c.28,.09,.52,.25,.68,.46Z" style="fill:#f39e00;"/></g></g><g><path d="M535.15,293.11v3.17c0,.25-.09,.49-.25,.68-.17,.2-.4,.37-.68,.46-.08,.03-.17,.05-.27,.06-.08,.01-.17,.02-.26,.02h-60.18c-.24,0-.47-.05-.67-.14-.4-.17-.69-.5-.77-.89,0-.03,0-.05-.01-.08,0-.02,0-.04,0-.05,0-.02,0-.04,0-.06v-3.17s0-.04,0-.06c0-.04,0-.08,.01-.12,.11-.59,.71-1.04,1.44-1.04h60.18c.09,0,.17,0,.26,.02,.09,.01,.18,.03,.27,.06,.28,.09,.52,.25,.68,.46,.16,.2,.25,.43,.25,.68Z" style="fill:#f5b425;"/><path d="M505.6,297.51h-32.24c-.22,0-.42-.05-.6-.14-.36-.17-.62-.5-.68-.89,0-.03,0-.05-.01-.08,0-.02,0-.04,0-.05,0-.02,0-.04,0-.06v-3.17s0-.04,0-.06c0-.04,0-.08,.01-.12,0-.04,.02-.09,.03-.13,.15-.52,.65-.91,1.25-.91h28.28c.44,1.61,1.45,3.82,3.76,5.48,.06,.05,.13,.09,.2,.14Z" style="fill:#f39e00;"/><g><rect x="527.15" y="291.89" width=".68" height="5.62" style="fill:#f39e00;"/><rect x="524.83" y="291.89" width=".68" height="5.62" style="fill:#f39e00;"/><rect x="522.05" y="291.89" width=".68" height="5.62" style="fill:#f39e00;"/><rect x="517.8" y="291.89" width=".68" height="5.62" style="fill:#f39e00;"/><rect x="513.3" y="291.89" width=".68" height="5.62" style="fill:#f39e00;"/><rect x="506.4" y="291.89" width=".68" height="5.62" style="fill:#f39e00;"/><rect x="499.94" y="291.89" width=".68" height="5.62" style="fill:#f39e00;"/><rect x="494.17" y="291.89" width=".68" height="5.62" style="fill:#f39e00;"/><rect x="529.35" y="291.89" width=".68" height="5.62" style="fill:#f39e00;"/><rect x="530.81" y="291.89" width=".68" height="5.62" style="fill:#f39e00;"/><rect x="532.21" y="291.89" width=".68" height="5.62" style="fill:#f39e00;"/><path d="M533.95,291.91v5.58c-.08,.01-.17,.02-.26,.02h-.43v-5.62h.43c.09,0,.17,0,.26,.02Z" style="fill:#f39e00;"/><path d="M534.9,292.43v4.54c-.17,.21-.4,.37-.68,.46v-5.45c.28,.09,.52,.25,.68,.46Z" style="fill:#f39e00;"/></g></g><g><path d="M540.07,287.49v3.17c0,.25-.09,.49-.25,.68h0s-.04,.05-.07,.08c-.09,.1-.2,.18-.32,.25-.06,.03-.12,.07-.19,.09h0s-.07,.03-.1,.04c-.08,.03-.17,.05-.27,.06-.08,.01-.17,.02-.26,.02h-60.18c-.73,0-1.33-.45-1.44-1.04,0-.04-.01-.08-.01-.12,0-.02,0-.04,0-.06v-3.17s0-.04,0-.06c.04-.59,.58-1.08,1.28-1.15,.06,0,.11,0,.17,0h60.18c.09,0,.17,0,.26,.02,.09,.01,.18,.04,.27,.06,.24,.08,.45,.21,.62,.38,.02,.02,.05,.05,.07,.08h0c.16,.2,.25,.43,.25,.68Z" style="fill:#f5b425;"/><path d="M510.52,291.89h-32.24c-.6,0-1.1-.39-1.25-.91-.01-.04-.03-.09-.03-.13,0-.04-.01-.08-.01-.12,0-.02,0-.04,0-.06v-3.17s0-.04,0-.06c.03-.59,.52-1.08,1.14-1.15,.05,0,.1,0,.15,0h28.28c.45,1.66,1.51,3.94,3.96,5.62Z" style="fill:#f39e00;"/><g><rect x="532.06" y="286.27" width=".68" height="5.62" style="fill:#f39e00;"/><rect x="529.75" y="286.27" width=".68" height="5.62" style="fill:#f39e00;"/><rect x="526.97" y="286.27" width=".68" height="5.62" style="fill:#f39e00;"/><rect x="522.72" y="286.27" width=".68" height="5.62" style="fill:#f39e00;"/><rect x="518.22" y="286.27" width=".68" height="5.62" style="fill:#f39e00;"/><rect x="511.32" y="286.27" width=".68" height="5.62" style="fill:#f39e00;"/><rect x="504.86" y="286.27" width=".68" height="5.62" style="fill:#f39e00;"/><rect x="499.09" y="286.27" width=".68" height="5.62" style="fill:#f39e00;"/><rect x="534.27" y="286.27" width=".68" height="5.62" style="fill:#f39e00;"/><rect x="535.72" y="286.27" width=".68" height="5.62" style="fill:#f39e00;"/><rect x="537.13" y="286.27" width=".68" height="5.62" style="fill:#f39e00;"/><path d="M538.87,286.29v5.58c-.08,.01-.17,.02-.26,.02h-.43v-5.62h.43c.09,0,.17,0,.26,.02Z" style="fill:#f39e00;"/><path d="M539.82,286.81v4.54c-.17,.21-.4,.37-.68,.46v-5.45c.28,.09,.52,.25,.68,.46Z" style="fill:#f39e00;"/></g></g><g><path d="M532.17,281.89v3.17c0,.25-.09,.49-.25,.68-.17,.21-.4,.37-.68,.46-.08,.03-.17,.05-.26,.06h-.1s-.04,.02-.06,.02c-.01,0-.02,0-.03,0-.02,0-.05,0-.07,0h-60.18c-.52,0-.98-.23-1.24-.58-.13-.17-.2-.37-.22-.58,0-.02,0-.04,0-.06v-3.17s0-.04,0-.06c.03-.52,.46-.96,1.03-1.11,.13-.04,.28-.05,.42-.05h60.18s.05,0,.08,0c.01,0,.03,0,.04,0,.05,0,.1,0,.14,.01,.09,.01,.18,.03,.26,.06,.04,.01,.08,.03,.12,.05h0c.16,.07,.3,.16,.42,.27h0l.02,.02s.08,.08,.11,.12c.16,.2,.25,.43,.25,.68Z" style="fill:#f5b425;"/><path d="M502.62,286.28h-32.24c-.45,0-.86-.22-1.09-.55-.12-.18-.2-.38-.21-.61,0-.02,0-.04,0-.06v-3.17s0-.04,0-.06c.03-.56,.47-1.02,1.04-1.13,.08-.02,.17-.03,.26-.03h28.28s.02,.09,.04,.13c.47,1.64,1.53,3.85,3.91,5.48h.01Z" style="fill:#f39e00;"/><g><rect x="524.16" y="280.66" width=".68" height="5.62" style="fill:#f39e00;"/><rect x="521.85" y="280.66" width=".68" height="5.62" style="fill:#f39e00;"/><rect x="519.07" y="280.66" width=".68" height="5.62" style="fill:#f39e00;"/><rect x="514.82" y="280.66" width=".68" height="5.62" style="fill:#f39e00;"/><rect x="510.32" y="280.66" width=".68" height="5.62" style="fill:#f39e00;"/><rect x="503.42" y="280.66" width=".68" height="5.62" style="fill:#f39e00;"/><rect x="496.96" y="280.66" width=".68" height="5.62" style="fill:#f39e00;"/><rect x="491.19" y="280.66" width=".68" height="5.62" style="fill:#f39e00;"/><rect x="526.37" y="280.66" width=".68" height="5.62" style="fill:#f39e00;"/><rect x="527.82" y="280.66" width=".68" height="5.62" style="fill:#f39e00;"/><rect x="529.23" y="280.66" width=".68" height="5.62" style="fill:#f39e00;"/><path d="M530.97,280.68v5.58c-.08,.01-.17,.02-.26,.02h-.43v-5.62h.43c.09,0,.17,0,.26,.02Z" style="fill:#f39e00;"/><path d="M531.92,281.2v4.54c-.17,.21-.4,.37-.68,.46v-5.45c.28,.09,.52,.25,.68,.46Z" style="fill:#f39e00;"/></g></g><g><path d="M536.59,276.4v3.17c0,.25-.09,.49-.25,.68-.17,.21-.4,.37-.68,.46-.09,.03-.17,.05-.27,.06-.08,.01-.17,.02-.26,.02h-60.18c-.23,0-.45-.05-.65-.13-.44-.18-.75-.55-.8-.98,0-.02,0-.03,0-.05,0-.02,0-.04,0-.06v-3.17s0-.04,0-.06c.04-.6,.59-1.08,1.28-1.15,.06,0,.11,0,.17,0h60.18c.09,0,.17,0,.26,.02,.09,.01,.18,.03,.27,.06,.28,.09,.52,.25,.68,.46,.16,.2,.25,.43,.25,.68Z" style="fill:#f5b425;"/><path d="M507.04,280.79h-32.24c-.21,0-.41-.05-.58-.13-.39-.18-.67-.55-.71-.98,0-.02,0-.03,0-.05,0-.02,0-.04,0-.06v-3.17s0-.04,0-.06c.03-.59,.52-1.08,1.14-1.15,.05,0,.1,0,.15,0h28.28c.44,1.62,1.45,3.83,3.77,5.49,.06,.04,.12,.09,.19,.13Z" style="fill:#f39e00;"/><g><rect x="528.59" y="275.17" width=".68" height="5.62" style="fill:#f39e00;"/><rect x="526.27" y="275.17" width=".68" height="5.62" style="fill:#f39e00;"/><rect x="523.5" y="275.17" width=".68" height="5.62" style="fill:#f39e00;"/><rect x="519.24" y="275.17" width=".68" height="5.62" style="fill:#f39e00;"/><rect x="514.74" y="275.17" width=".68" height="5.62" style="fill:#f39e00;"/><rect x="507.84" y="275.17" width=".68" height="5.62" style="fill:#f39e00;"/><rect x="501.38" y="275.17" width=".68" height="5.62" style="fill:#f39e00;"/><rect x="495.61" y="275.17" width=".68" height="5.62" style="fill:#f39e00;"/><rect x="530.79" y="275.17" width=".68" height="5.62" style="fill:#f39e00;"/><rect x="532.25" y="275.17" width=".68" height="5.62" style="fill:#f39e00;"/><rect x="533.65" y="275.17" width=".68" height="5.62" style="fill:#f39e00;"/><path d="M535.39,275.19v5.58c-.08,.01-.17,.02-.26,.02h-.43v-5.62h.43c.09,0,.17,0,.26,.02Z" style="fill:#f39e00;"/><path d="M536.34,275.71v4.54c-.17,.21-.4,.37-.68,.46v-5.45c.28,.09,.52,.25,.68,.46Z" style="fill:#f39e00;"/></g></g><g><path d="M538.48,270.79v3.17c0,.25-.09,.49-.25,.68-.17,.21-.4,.37-.68,.46-.09,.03-.17,.05-.27,.06-.03,0-.06,0-.08,.01h-.05s-.03,0-.05,0c-.03,0-.05,0-.08,0h-60.18c-.78,0-1.42-.52-1.45-1.16,0-.02,0-.04,0-.06v-3.17s0-.04,0-.06c.04-.64,.68-1.16,1.45-1.16h60.18c.09,0,.17,0,.26,.02,.09,.01,.18,.03,.27,.06,.28,.09,.52,.25,.68,.46,.16,.2,.25,.43,.25,.68Z" style="fill:#f5b425;"/><path d="M508.93,275.18h-32.24c-.69,0-1.26-.52-1.3-1.16,0-.02,0-.04,0-.06v-3.17s0-.04,0-.06c.04-.64,.61-1.16,1.3-1.16h28.28c.45,1.65,1.5,3.93,3.95,5.61h.01Z" style="fill:#f39e00;"/><g><rect x="530.47" y="269.56" width=".68" height="5.62" style="fill:#f39e00;"/><rect x="528.16" y="269.56" width=".68" height="5.62" style="fill:#f39e00;"/><rect x="525.38" y="269.56" width=".68" height="5.62" style="fill:#f39e00;"/><rect x="521.12" y="269.56" width=".68" height="5.62" style="fill:#f39e00;"/><rect x="516.62" y="269.56" width=".68" height="5.62" style="fill:#f39e00;"/><rect x="509.72" y="269.56" width=".68" height="5.62" style="fill:#f39e00;"/><rect x="503.26" y="269.56" width=".68" height="5.62" style="fill:#f39e00;"/><rect x="497.5" y="269.56" width=".68" height="5.62" style="fill:#f39e00;"/><rect x="532.67" y="269.56" width=".68" height="5.62" style="fill:#f39e00;"/><rect x="534.13" y="269.56" width=".68" height="5.62" style="fill:#f39e00;"/><rect x="535.54" y="269.56" width=".68" height="5.62" style="fill:#f39e00;"/><path d="M537.28,269.58v5.58c-.08,.01-.17,.02-.26,.02h-.43v-5.62h.43c.09,0,.17,0,.26,.02Z" style="fill:#f39e00;"/><path d="M538.23,270.1v4.54c-.17,.21-.4,.37-.68,.46v-5.45c.28,.09,.52,.25,.68,.46Z" style="fill:#f39e00;"/></g></g></g><g><path d="M519.4,237.55s-3.16,4.45-6.06,4.51c-2.9,.06-7.31-2.06-7.31-2.06,0,0-2.66-5.93-.86-8.25,0,0,1.81-.79,3.7,.61,.32,.24,.65,.55,.98,.94,.46,.55,.97,.87,1.52,1.03,2.07,.63,4.52-.85,5.44,.58,.54,.83,1.12,1.45,1.6,1.89,.57,.51,.98,.75,.98,.75Z" style="fill:#fbebd9;"/><path d="M478.19,269.65s11.17-27.07,31.28-27.59c0,0,18.56,2.06,19.59,27.59h-50.88Z" style="fill:#fbebd9;"/><path d="M503.97,242.89s8.06,1.79,10.55,.74c0,0,.38-3.37-3.02-2.9-2.32,.32-3.84-.79-4.73-1.25-1.26-.64-3.14,1.99-2.8,3.4Z" style="fill:#cd6200;"/><path d="M510.98,237.81c-.52,.39-2.1-5.45-2.1-5.45,.32,.24,.65,.55,.98,.94,.46,.55,.97,.87,1.52,1.03,0,.17,.1,3.1-.4,3.48Z" style="fill:#debd9c;"/><path d="M518.42,236.8c-.11,.07-3.84,2.3-4.35,2.3s2.75-4.19,2.75-4.19c.54,.83,1.12,1.45,1.6,1.89Z" style="fill:#debd9c;"/><path d="M489.11,262.08c-.21-.18,7.91-11.95,10.14-12.03,2.23-.09,7.25,2.58,10.89,2.92,3.63,.34,7.16-.69,7.85,1.46,.69,2.15,2.58,9.77,1.42,10.98-1.16,1.22-25.83,.48-30.29-3.34Z" style="fill:#f4daba;"/></g></g><path d="M496.75,302.95s0,.03,0,.04c-.11,1.89-.41,3.75-.9,5.57h0c-.07,.27-.15,.54-.23,.8-.5,1.66-1.17,3.27-1.98,4.82-1.02,1.95-2.29,3.79-3.78,5.48-.04,.05-.08,.09-.12,.14-1.86,2.09-4.08,3.94-6.61,5.48-.53,.33-1.08,.64-1.64,.93-.38,.2-.76,.39-1.14,.57-.37,.21-.75,.39-1.12,.62-1.06,.65-2.38,1.16-3.82,1.57v-2.47s0-.04,0-.06c0-.04,0-.08,.01-.12,0-.05,.02-.09,.04-.13,.15-.52,.65-.9,1.25-.9h-6.44c-.6,0-1.1-.39-1.25-.91-.01-.04-.03-.09-.03-.13,0-.04-.01-.08-.01-.12,0-.02,0-.04,0-.06v-3.17s0-.04,0-.06c0-.04,0-.08,.01-.12,0-.05,.02-.09,.03-.13,.15-.52,.65-.91,1.25-.91h2.51c-.36-.17-.62-.5-.68-.89,0-.03,0-.05-.01-.08,0-.02,0-.04,0-.05,0-.02,0-.04,0-.06v-3.17s0-.04,0-.06c0-.04,0-.08,.01-.12,0-.04,.02-.09,.03-.13,.15-.52,.65-.91,1.25-.91h1.44c-.6,0-1.1-.39-1.25-.91-.01-.04-.03-.09-.04-.13,0-.04-.01-.08-.01-.12v-3.3c.03-.59,.52-1.08,1.14-1.15h-4.27c-.69,0-1.26-.52-1.3-1.16,0-.02,0-.04,0-.06v-3.17s0-.04,0-.06c0-.02,0-.03,0-.05,.05-.53,.47-.96,1.01-1.08-.58-.07-1.05-.5-1.13-1.05,0-.04,0-.07-.01-.11,0-.02,0-.04,0-.06v-3.17s0-.04,0-.06c0-.04,0-.08,.01-.12,0-.05,.02-.09,.03-.13,.15-.52,.65-.91,1.25-.91h2.51c-.36-.17-.62-.5-.68-.89,0-.03,0-.05-.01-.08,0-.02,0-.04,0-.05,0-.02,0-.04,0-.06v-3.17s0-.04,0-.06c0-.04,0-.08,.01-.12,0-.04,.02-.09,.03-.13,.15-.52,.65-.91,1.25-.91h4.92c-.6,0-1.1-.39-1.25-.91-.01-.04-.03-.09-.03-.13,0-.04-.01-.08-.01-.12,0-.02,0-.04,0-.06v-3.17s0-.04,0-.06c.03-.59,.52-1.08,1.14-1.15h-7.75c-.45,0-.86-.22-1.09-.55v-.03l.82-4.98v-.03l1.17-7.11c1.35,.18,2.68,.45,3.99,.8,.08,.02,.15,.04,.23,.06h.02c.76,.22,1.51,.46,2.25,.73,0,0,.01,0,.02,0,3.41,1.24,6.59,3.09,9.34,5.48,.05,.04,.1,.08,.14,.13,1.43,1.26,2.75,2.67,3.92,4.22,.23,.31,.46,.62,.68,.94,.07,.11,.15,.21,.22,.32h0c.36,.53,.69,1.07,1.01,1.62,.75,1.3,1.39,2.64,1.9,3.99,.69,1.8,1.17,3.63,1.46,5.48,0,.05,.02,.09,.02,.14,.27,1.81,.36,3.64,.26,5.44Z" style="fill:#d57b00; opacity:.5;"/><g><circle cx="460.51" cy="300.05" r="29.6" transform="translate(44.31 659.04) rotate(-73.87)" style="fill:#d57b00;"/><path d="M473.65,326.57c-.36,.22-.74,.44-1.11,.65-.13,.07-.26,.14-.38,.21-.29,.16-.58,.31-.88,.45-14.1,6.92-31.29,1.61-38.95-12.29-7.31-13.26-3.38-29.68,8.61-38.31,.96-.69,1.96-1.33,3.02-1.91,.38-.21,.76-.41,1.15-.6,.37-.19,.75-.36,1.13-.53,1.16-.52,2.34-.95,3.53-1.31,1.77-.53,3.56-.89,5.36-1.08,5.58-.59,11.19,.43,16.16,2.86,5.28,2.58,9.84,6.76,12.89,12.29,7.68,13.94,2.95,31.38-10.52,39.57Z" style="fill:#f5b425;"/><path d="M458.45,328.14c-2.48,0-4.96-.35-7.41-1.06-6.81-1.97-12.44-6.47-15.86-12.67-3.42-6.2-4.22-13.37-2.25-20.17,1.97-6.81,6.47-12.44,12.67-15.86,12.81-7.06,28.97-2.38,36.03,10.42,7.06,12.81,2.38,28.97-10.42,36.03-3.98,2.19-8.35,3.31-12.77,3.31Zm-.08-52.34c-4.21,0-8.48,1.03-12.42,3.2-6.04,3.33-10.42,8.81-12.33,15.43-1.92,6.62-1.14,13.59,2.19,19.63,3.33,6.04,8.81,10.42,15.43,12.33,6.62,1.92,13.59,1.14,19.63-2.19,12.46-6.87,17.01-22.6,10.14-35.06-4.7-8.52-13.54-13.34-22.64-13.34Z" style="fill:#f39e00;"/><path d="M471.46,304.18c-.06-.15-.12-.29-.18-.43-.48-1.06-1.08-1.91-1.8-2.56-.81-.74-1.75-1.29-2.83-1.66-1.07-.37-2.27-.59-3.59-.67-1.32-.08-2.76-.1-4.31-.06-.96,.03-1.78,.01-2.46-.05-.68-.06-1.26-.19-1.73-.38-.48-.19-.86-.45-1.16-.78-.3-.33-.54-.74-.74-1.21-.19-.48-.31-.95-.33-1.42-.03-.47,.04-.92,.21-1.34,.17-.42,.44-.81,.83-1.17,.38-.36,.88-.66,1.51-.92,1.15-.47,2.23-.46,3.23,.03,1,.49,1.81,1.51,2.44,3.06l6.03-2.45c-.53-1.29-1.18-2.38-1.97-3.27-.79-.89-1.68-1.58-2.67-2.06-.99-.49-2.07-.77-3.24-.85-1.17-.08-2.38,.04-3.64,.37l-1.71-4.21-3.34,1.36,1.68,4.15c-1.2,.62-2.23,1.35-3.06,2.18-.84,.83-1.48,1.73-1.93,2.69-.45,.97-.69,1.98-.71,3.04-.02,1.06,.19,2.14,.64,3.24,.51,1.27,1.18,2.27,1.99,3.01,.81,.74,1.75,1.29,2.82,1.65,1.07,.36,2.27,.58,3.59,.65,1.33,.07,2.77,.07,4.32,0,.9-.05,1.69-.05,2.35,.02,.66,.06,1.24,.19,1.72,.38,.48,.2,.89,.47,1.21,.82,.32,.35,.59,.8,.81,1.34,.19,.48,.29,.95,.29,1.43,0,.48-.11,.93-.32,1.36-.21,.43-.53,.83-.96,1.2-.43,.37-.97,.68-1.62,.95-.57,.23-1.16,.38-1.77,.46-.61,.07-1.2,.01-1.79-.18-.58-.19-1.12-.54-1.63-1.05-.51-.51-.95-1.22-1.32-2.14l-6.03,2.45c.63,1.55,1.42,2.78,2.37,3.69,.95,.91,1.99,1.56,3.12,1.95,1.13,.39,2.31,.56,3.55,.51,1.24-.05,2.45-.25,3.66-.6l1.56,3.84,3.32-1.35-1.57-3.86c1.2-.62,2.24-1.35,3.1-2.16,.8-.75,1.42-1.57,1.87-2.44,.04-.07,.07-.14,.11-.21,.45-.95,.7-1.96,.73-3.03,.03-1.07-.19-2.17-.65-3.3Z" style="fill:#f39e00;"/></g></g><rect x="16.28" y="329.47" width="558.82" height="1.53" rx=".64" ry=".64" style="fill:#333854;"/></g></g></svg>