<?xml version="1.0" encoding="UTF-8"?><svg xmlns="http://www.w3.org/2000/svg" xmlns:xlink="http://www.w3.org/1999/xlink" viewBox="0 0 600 350"><defs><style>.y{fill:#a98e75;}.a`{fill:url(#t);}.aa,.ab{opacity:.18;}.ac,.ad{fill:#f4f4f4;}.ae{fill:#fff;}.af{fill:#dba686;}.ag{fill:url(#r);}.ah{fill:#dcd0c8;}.ai{fill:#948c87;}.aj{fill:#8c8581;}.ak{fill:url(#l);}.al{fill:#997761;}.am{fill:#90c1fc;}.an{fill:#2e3048;}.ao{fill:#72acfb;}.ap{fill:#3e4148;}.aq{fill:url(#u);}.ar{isolation:isolate;}.as{fill:url(#v);}.at{fill:#d9ccc5;}.au{fill:url(#m);}.av{fill:#f3e4dc;}.aw{fill:#2c3d54;}.ax{fill:#6d6865;}.ay{fill:#dba585;}.b`{fill:#b2a8a3;}.ba{fill:#b2b5c1;}.bb{fill:#e6e6e6;}.bc{fill:#454971;}.bd{fill:url(#p);}.ab{fill:url(#q);}.be{fill:#363957;}.ad{mix-blend-mode:hard-light;}.bf{fill:#dedfe6;}.bg{fill:#4372bd;}.bh{fill:#616161;}.bi{fill:#cfc3bc;}.bj{fill:#b9afaa;}.bk{fill:#8c8480;}.bl{fill:#cd7250;}.bm{fill:url(#x);}.bn{fill:url(#s);}.bo{fill:url(#n);}.bp{fill:#5d5955;}.bq{fill:url(#w);}.br{fill:#3d3d42;}.bs{fill:url(#o);}.bt{fill:#c99a7d;}.bu{fill:url(#k);}.bv{fill:#c6bbb5;}.bw{fill:#4e85de;}.bx{fill:#eecaa2;}.by{fill:#daddee;}.c`{fill:#f4f6ff;}</style><linearGradient id="k" x1="371.14" y1="7.89" x2="116.55" y2="161.82" gradientTransform="matrix(1, 0, 0, 1, 0, 0)" gradientUnits="userSpaceOnUse"><stop offset="0" stop-color="#81d3e4"/><stop offset="1" stop-color="#6076fa"/></linearGradient><linearGradient id="l" x1="192.82" y1="139.49" x2="174.84" y2="153.83" gradientTransform="matrix(1, 0, 0, 1, 0, 0)" gradientUnits="userSpaceOnUse"><stop offset="0" stop-color="#678ef3"/><stop offset="1" stop-color="#6076fa"/></linearGradient><linearGradient id="m" x1="256.09" y1="70.11" x2="236.41" y2="82.01" gradientTransform="matrix(1, 0, 0, 1, 0, 0)" gradientUnits="userSpaceOnUse"><stop offset="0" stop-color="#70a9ed"/><stop offset="1" stop-color="#6076fa"/></linearGradient><linearGradient id="n" x1="310.05" y1="72.27" x2="290.36" y2="84.18" gradientTransform="matrix(1, 0, 0, 1, 0, 0)" gradientUnits="userSpaceOnUse"><stop offset="0" stop-color="#73b0eb"/><stop offset="1" stop-color="#6076fa"/></linearGradient><linearGradient id="o" x1="128.26" y1="127.44" x2="108.58" y2="139.35" xlink:href="#k"/><linearGradient id="p" x1="284.4" y1="73.9" x2="324.05" y2="73.9" gradientTransform="matrix(1, 0, 0, 1, 0, 0)" gradientUnits="userSpaceOnUse"><stop offset="0" stop-color="#d7e2fd"/><stop offset="1" stop-color="#f1fffd"/></linearGradient><linearGradient id="q" x1="336.85" y1="22.9" x2="402.71" y2="22.9" xlink:href="#p"/><linearGradient id="r" x1="358.51" y1="66.38" x2="398.16" y2="66.38" xlink:href="#k"/><linearGradient id="s" x1="143.38" y1="230.8" x2="207.42" y2="230.8" xlink:href="#k"/><linearGradient id="t" x1="190.36" y1="266.53" x2="248.26" y2="266.53" xlink:href="#k"/><linearGradient id="u" x1="195.31" y1="274.96" x2="238.77" y2="274.96" xlink:href="#k"/><linearGradient id="v" x1="179.61" y1="239.98" x2="230.23" y2="239.98" xlink:href="#k"/><linearGradient id="w" x1="168" y1="312.58" x2="214.7" y2="312.58" gradientTransform="matrix(1, 0, 0, 1, 0, 0)" gradientUnits="userSpaceOnUse"><stop offset="0" stop-color="#e59148"/><stop offset="1" stop-color="#f1cc52"/></linearGradient><linearGradient id="x" x1="168" y1="312.58" x2="214.7" y2="312.58" gradientTransform="matrix(1, 0, 0, 1, 0, 0)" gradientUnits="userSpaceOnUse"><stop offset="0" stop-color="#b37239"/><stop offset="1" stop-color="#f1cc52"/></linearGradient></defs><g style="isolation:isolate;"><g id="a"/><g id="b"/><g id="c"/><g id="d"/><g id="e"/><g id="f"/><g id="g"/><g id="h"/><g id="i"/><g id="j"><g><g><polygon points="55.95 193.99 53.45 191.35 117.92 130.52 183.17 144.66 245.49 73.59 299.84 76.66 342.17 18.26 345.11 20.4 301.62 80.39 247.05 77.31 184.49 148.66 119.02 134.48 55.95 193.99" style="fill:url(#k);"/><path d="M193.29,144.61c1.13,5.23-2.19,10.38-7.42,11.52-5.23,1.13-10.38-2.19-11.52-7.42-1.13-5.23,2.19-10.38,7.42-11.52,5.23-1.13,10.38,2.19,11.52,7.42Z" style="fill:#fff;"/><path d="M186.26,157.9c-6.2,1.34-12.33-2.61-13.67-8.81-1.34-6.2,2.61-12.33,8.81-13.67,6.2-1.34,12.33,2.61,13.67,8.81,1.34,6.2-2.61,12.33-8.81,13.67Zm-4.1-18.93c-4.24,.92-6.94,5.12-6.03,9.36,.92,4.24,5.12,6.94,9.36,6.03,4.24-.92,6.94-5.12,6.03-9.36-.92-4.24-5.12-6.94-9.36-6.03Z" style="fill:url(#l);"/><path d="M255.72,74.01c1.13,5.23-2.19,10.38-7.42,11.52-5.23,1.13-10.38-2.19-11.52-7.42-1.13-5.23,2.19-10.38,7.42-11.52,5.23-1.13,10.38,2.19,11.52,7.42Z" style="fill:#fff;"/><path d="M248.69,87.3c-6.2,1.34-12.33-2.61-13.67-8.81-1.34-6.2,2.61-12.33,8.81-13.67,6.2-1.34,12.33,2.61,13.67,8.81,1.34,6.2-2.61,12.33-8.81,13.67Zm-4.1-18.93c-4.24,.92-6.94,5.12-6.03,9.36,.92,4.24,5.12,6.94,9.36,6.03,4.24-.92,6.94-5.12,6.03-9.36-.92-4.24-5.12-6.94-9.36-6.03Z" style="fill:url(#m);"/><path d="M309.67,76.17c1.13,5.23-2.19,10.38-7.42,11.52-5.23,1.13-10.38-2.19-11.52-7.42-1.13-5.23,2.19-10.38,7.42-11.52,5.23-1.13,10.38,2.19,11.52,7.42Z" style="fill:#fff;"/><path d="M302.64,89.46c-6.2,1.34-12.33-2.61-13.67-8.81-1.34-6.2,2.61-12.33,8.81-13.67,6.2-1.34,12.33,2.61,13.67,8.81,1.34,6.2-2.61,12.33-8.81,13.67Zm-4.1-18.93c-4.24,.92-6.94,5.12-6.03,9.36,.92,4.24,5.12,6.94,9.36,6.03,4.24-.92,6.94-5.12,6.03-9.36-.92-4.24-5.12-6.94-9.36-6.03Z" style="fill:url(#n);"/><path d="M127.89,131.35c1.13,5.23-2.19,10.38-7.42,11.52-5.23,1.13-10.38-2.19-11.52-7.42-1.13-5.23,2.19-10.38,7.42-11.52,5.23-1.13,10.38,2.19,11.52,7.42Z" style="fill:#fff;"/><path d="M120.85,144.64c-6.2,1.34-12.33-2.61-13.67-8.81-1.34-6.2,2.61-12.33,8.81-13.67,6.2-1.34,12.33,2.61,13.67,8.81,1.34,6.2-2.61,12.33-8.81,13.67Zm-4.1-18.93c-4.24,.92-6.94,5.12-6.03,9.36,.92,4.24,5.12,6.94,9.36,6.03,4.24-.92,6.94-5.12,6.03-9.36-.92-4.24-5.12-6.94-9.36-6.03Z" style="fill:url(#o);"/></g><g style="opacity:.18;"><rect x="284.4" y="70.08" width="39.65" height="7.64" style="fill:url(#p);"/></g><g><rect x="336.85" y="18.26" width="65.85" height="9.28" style="fill:#72acfb;"/><rect x="336.85" y="18.26" width="65.85" height="9.28" style="fill:url(#q); opacity:.18;"/></g><g style="opacity:.18;"><rect x="358.51" y="62.56" width="39.65" height="7.64" style="fill:url(#r);"/></g></g><g><rect x="225.81" y="45.84" width="226.7" height="207.59" rx="12.6" ry="12.6" style="fill:#f4f4f4;"/><g><path d="M309.83,108.72c4.59-12.85,.45-26.69-9.36-35.04-2.34-1.99-5-3.67-7.94-4.94-.65-.28-1.31-.54-1.99-.78-6.79-2.43-13.86-2.42-20.24-.42-9.22,2.89-17.02,9.91-20.52,19.7-1.16,3.23-1.76,6.53-1.86,9.78-.4,13.45,7.8,26.21,21.14,30.98,16.58,5.93,34.83-2.7,40.77-19.29Zm-38.08,11.77c-10.01-3.58-16.16-13.15-15.85-23.23,.07-2.44,.53-4.91,1.39-7.34,2.63-7.34,8.47-12.61,15.39-14.77,4.79-1.5,10.09-1.51,15.18,.31,.51,.18,1,.38,1.49,.59,2.2,.96,4.2,2.21,5.95,3.71,7.35,6.26,10.46,16.64,7.02,26.27-4.45,12.43-18.13,18.91-30.56,14.46Z" style="fill:#90c1fc;"/><path d="M272.67,75.16l-2.38-7.62c-9.22,2.89-17.02,9.91-20.52,19.7-1.16,3.23-1.76,6.53-1.86,9.78l7.98,.24c.07-2.44,.53-4.91,1.39-7.34,2.63-7.34,8.47-12.61,15.39-14.77Z" style="fill:#4372bd;"/><path d="M289.34,76.06l3.19-7.32c-.65-.28-1.31-.54-1.99-.78-6.79-2.43-13.86-2.42-20.24-.42l2.38,7.62c4.79-1.5,10.09-1.51,15.18,.31,.51,.18,1,.38,1.49,.59Z" style="fill:#4e85de;"/><path d="M300.46,73.68c-2.34-1.99-5-3.67-7.94-4.94l-3.19,7.32c2.2,.96,4.2,2.21,5.95,3.71l5.17-6.08Z" style="fill:#72acfb;"/></g><rect x="400.26" y="173.45" width="11.07" height="37.91" style="fill:#72acfb;"/><rect x="383.81" y="184.09" width="11.07" height="27.28" style="fill:#72acfb;"/><rect x="416.22" y="155.89" width="11.07" height="55.48" style="fill:#72acfb;"/><polygon points="425.5 128.17 425.31 126.98 396.1 131.76 386.63 151.94 355.14 154.08 344.94 169.12 320.87 168.52 320.84 169.74 345.57 170.35 355.81 155.25 387.43 153.1 396.93 132.85 425.5 128.17" style="fill:#72acfb;"/><rect x="386.21" y="70.46" width="38.67" height="7.2" rx="3.28" ry="3.28" transform="translate(811.09 148.12) rotate(180)" style="fill:#4e85de;"/><rect x="386.21" y="83.02" width="38.67" height="7.2" rx="3.28" ry="3.28" transform="translate(811.09 173.23) rotate(180)" style="fill:#72acfb;"/><rect x="386.21" y="95.57" width="38.67" height="7.2" rx="3.28" ry="3.28" transform="translate(811.09 198.33) rotate(180)" style="fill:#72acfb;"/><polygon points="332.84 83.88 314.84 83.88 314.84 83.19 332.55 83.19 342.03 73.71 353.64 73.71 353.64 74.41 342.32 74.41 332.84 83.88" style="fill:#72acfb;"/><polygon points="349.9 115.33 326.73 115.33 319.23 107.82 319.72 107.33 327.02 114.63 349.9 114.63 349.9 115.33" style="fill:#72acfb;"/><rect x="343.74" y="78.29" width="24.01" height="2.95" style="fill:#4e85de;"/><rect x="336.42" y="108.33" width="19.33" height="2.95" style="fill:#4e85de;"/></g><g><path d="M148.98,146.19c5.52-2.64,11.02,14.94,11.02,14.94,9.38,12.4,22.5-4.1,21.22,14.44-2.24,32.44,37.34,10.2,19.08,44.07-18.26,33.87,16.12,19.15,4.78,46.46-11.35,27.31,3.36,59.87-13.71,46.49,0,0-15.03-32.97-30.54-43.17-15.5-10.2,9.29-22.3,4.44-36.16-7.05-20.12-24.02-19.33-11.78-40.96,12.24-21.62-23.26-37.13-4.49-46.11Z" style="fill:url(#s);"/><path d="M196.76,300.17c-7.4-5.2-16.06-41.48-16.58-63.08-.26-11.07-3.54-15.68-6.42-19.74-2.76-3.89-5.14-7.25-3.75-14.96,2.65-14.74-4.32-21.1-4.39-21.16l.81-.92c.31,.27,7.57,6.83,4.79,22.3-1.3,7.2,.84,10.22,3.55,14.03,2.84,4,6.37,8.98,6.65,20.42,.55,23.19,9.41,57.43,16.06,62.11l-.7,1Z" style="fill:#fff;"/><path d="M199.53,302.86c-.95,0-1.99-.11-3.13-.34-2.85-.58-4.72-2.08-5.56-4.47-2-5.71,2.63-14.97,6.38-19.44,.06-.07,6.34-7.75,5.67-18.39-.11-1.78-.3-3.43-.46-4.89-.47-4.21-.81-7.25,1-9.28,1.59-1.79,4.67-2.57,10.29-2.59,9.85-.05,13.74-4.12,16.87-7.4,1.33-1.39,2.58-2.71,4.11-3.54h0c4.91-2.68,10.11-3.07,12.36-.94,1.07,1.02,1.98,3,.2,6.71-1.62,3.39-3.72,5.53-5.41,7.26-2.27,2.32-3.78,3.85-2.99,6.91,.18,.72,.4,1.44,.61,2.17,1.52,5.19,3.24,11.08-5.65,15.07-1.89,.85-3.6,1.52-5.12,2.12-6.2,2.43-9.95,3.9-14.18,12.83-.82,1.73-1.54,3.36-2.24,4.95-3.33,7.55-5.86,13.27-12.74,13.27Zm35.75-69.27c-1.36,.74-2.49,1.93-3.81,3.31-3.29,3.44-7.38,7.73-17.75,7.78-5.16,.02-8.06,.7-9.38,2.18-1.45,1.62-1.13,4.44-.69,8.33,.16,1.47,.35,3.14,.47,4.95,.7,11.14-5.68,18.92-5.96,19.25-3.71,4.42-7.92,13.22-6.16,18.25,.68,1.95,2.25,3.19,4.65,3.68,8.37,1.69,10.68-3.55,14.51-12.22,.7-1.59,1.43-3.24,2.25-4.98,4.44-9.36,8.57-10.99,14.84-13.44,1.5-.59,3.21-1.26,5.07-2.09,7.92-3.56,6.49-8.44,4.98-13.61-.22-.74-.43-1.48-.62-2.21-.95-3.72,.93-5.64,3.31-8.07,1.71-1.75,3.65-3.72,5.18-6.93,.8-1.68,1.47-3.96,.06-5.3-1.85-1.75-6.55-1.27-10.93,1.12h0Z" style="fill:url(#t);"/><path d="M196.53,309.93l-1.22-.06c.06-1.15,1.6-28.22,12.47-36.14,11.92-8.69,15.68-18.03,17.47-24.3,2.11-7.39,12.85-9.36,13.3-9.44l.21,1.21c-.1,.02-10.44,1.92-12.34,8.57-1.84,6.44-5.7,16.04-17.93,24.95-10.4,7.58-11.96,34.94-11.97,35.21Z" style="fill:url(#u);"/><path d="M221.38,173.51c-7.73-2.65-6.12,12.24-9.38,23.26-3.26,11.02-36.31,4.81-22.44,32.39,13.87,27.59-17.54,9.23-8.16,33.3,9.38,24.07,.82,49.82,11.02,43.27,10.2-6.55,5.73-36.86,16.34-40.46,10.61-3.6,12.34-7.8,1.84-17.6-10.5-9.79,27.52-19.51,18.14-39.29-9.38-19.77,1.58-31.81-7.34-34.87Z" style="fill:url(#v);"/><path d="M197.14,304.57c-.97-4.12-9.27-40.39-1.53-44.77,6.82-3.86,6.65-18.89,5.59-33.08-.94-12.56,15.19-18.43,15.88-18.68l.41,1.15c-.16,.06-15.94,5.8-15.07,17.43,1.09,14.57,1.21,30.04-6.21,34.24-5.88,3.33-.47,32.48,2.12,43.43l-1.19,.28Z" style="fill:#fff;"/><polygon points="214.7 291.66 203.67 333.5 179.03 333.5 168 291.66 214.7 291.66" style="fill:url(#w);"/><path d="M214.7,291.66s-24.28,4.56-24.28,41.84h-11.4l-11.03-41.84h46.71Z" style="fill:url(#x);"/></g><rect x="307.19" y="239.71" width="97.75" height="4.13" style="fill:#e6e6e6;"/><rect x="307.19" y="249.35" width="105.62" height="4.13" style="fill:#e6e6e6;"/><rect x="307.19" y="258.98" width="68.53" height="4.13" style="fill:#e6e6e6;"/><rect x="307.19" y="239.71" width="50.9" height="4.13" style="fill:#72acfb;"/><rect x="307.19" y="249.35" width="54.99" height="4.13" style="fill:#72acfb;"/><rect x="307.19" y="258.98" width="35.68" height="4.13" style="fill:#72acfb;"/><g><rect x="284.56" y="222.27" width="38.07" height="2.26" style="fill:#dcd0c8;"/><rect x="289.66" y="230.41" width="3.34" height="102.78" transform="translate(582.67 563.59) rotate(180)" style="fill:#6d6865;"/><rect x="316.67" y="221.63" width="26.46" height="3.23" style="fill:#c6bbb5;"/><rect x="324.9" y="194.09" width="10.02" height="30.44" style="fill:#948c87;"/><rect x="270.91" y="224.57" width="146.62" height="5.84" style="fill:#a98e75;"/><path d="M242.77,189.2s-1.6,22.49,2.79,25.18c2.75,1.69,13.73,7.37,13.4,8.44-.33,1.07-6.2,9.49-6.2,9.49,0,0-21.08-13.88-21.76-18.26-.66-4.27,1.04-32.93,3.93-34.25,2.17-.99,3.32-.17,6.05,1.86,3.84,2.85,1.78,7.54,1.78,7.54Z" style="fill:#f4f4f4; mix-blend-mode:hard-light;"/><path d="M268.7,319.15s-.66,4.55-.74,5.23c-.08,.68-7.29-.4-7.29-.4l-.58-5.42s7.71-.06,8.61,.59Z" style="fill:#454971;"/><path d="M268.04,323.81s2.28,2.74,4.49,3.94c2.21,1.19,5.68,1.67,6.99,2.91,.94,.89,3.44,4.74-5.74,4.66-9.18-.08-13.6,.54-14.58-.93-.98-1.47,1.42-10.88,1.42-10.88,0,0,2.17,.78,7.42,.31Z" style="fill:#2e3048;"/><path d="M314.9,319.2s-.66,4.55-.74,5.23c-.08,.68-7.29-.4-7.29-.4l-.58-5.42s7.71-.06,8.61,.59Z" style="fill:#454971;"/><path d="M314.24,323.85s2.28,2.74,4.49,3.94c2.21,1.2,10.34,2.18,11.65,3.41,.94,.89,2.51,4.49-10.4,4.15-9.17-.24-13.6,.54-14.58-.93-.98-1.47,1.42-10.88,1.42-10.88,0,0,2.05,.84,7.42,.31Z" style="fill:#2e3048;"/><path d="M245.45,240.55s26.21,4.44,32.14,5.37c5.92,.93,38.02,8.92,42.04,11.35,3.2,1.94-1.68,48.47-2.81,66.23h-12.64l-.92-53.26c-15.17,.38-26-3.55-37.05-1.87-11.05,1.68-20.26,4.06-27.28-5.35,0,0-.26-20.4,6.54-22.46Z" style="fill:#2e3048;"/><path d="M271.29,323.54l-12.32-.76-1.2-52.54c-6.53,.16-8.77-.25-14.06-.89l-9.95-23.13c8.72,1.74,36.66,8.79,40.38,11.05,3.2,1.94-1.71,48.52-2.85,66.27Z" style="fill:#2e3048;"/><path d="M257.51,142.29s9.61-2.66,13.28,4.8c3.67,7.46,2,21.6-2.84,22.93-4.84,1.33-11.81-.2-13.82-4.84-2.01-4.64-3.61-11.24-3.13-15.51,.48-4.27,3.96-6.36,6.51-7.38Z" style="fill:#dba585;"/><path d="M265.44,168.54s-.11,5.67,.52,6.88c.63,1.21-13.38,.91-13.38,.91,0,0,2.21-6.81,.96-12.62-1.24-5.75,11.91,4.83,11.91,4.83Z" style="fill:#dba585;"/><path d="M252.78,161.56s.75,1.52,4.37,1.28c3.63-.25,8.41-4.62,9.95-5.01,1.54-.39,1.63-1.27,1.63-1.27l.81,1.45,1.58,.24s-1.07-4.38,1.26-5.93c2.34-1.54-1.05-13.98-12.87-10.98,0,0-9.02,1.65-9.14,6.69-.12,5.04,.66,10.86,2.41,13.53Z" style="fill:#3e4148;"/><path d="M266.7,175.28s-.04-2.31-1.09-2.53c-1.05-.22-11.01-1.59-12.3-1.09l-.55,3.05s2.48,1.52,13.93,.57Z" style="fill:#dcd0c8;"/><path d="M269.58,155.53c-.27-1.89-2.42-4.07-3.66-1.12-1.23,2.95,.83,7.25,2.22,7.02,1.38-.23,1.8-3.33,1.44-5.9Z" style="fill:#dba585;"/><path d="M308.43,202.58s-.01,0-.02,0c.07,.03,.08,.03,.02,0Z" style="fill:#363957;"/><path d="M254.71,143.64s-11.72-.55-2.04,17.74l2.04-17.74Z" style="fill:#3e4148;"/><polygon points="228.61 329.77 229.48 332.23 266.3 320.82 264.54 315.85 228.61 329.77" style="fill:#8c8581;"/><rect x="263.38" y="279.03" width="4.19" height="40.04" style="fill:#8c8581;"/><rect x="253.13" y="276.9" width="24.69" height="2.36" style="fill:#5d5955;"/><polygon points="302.67 329.77 301.8 332.23 264.97 320.82 266.59 315.54 302.67 329.77" style="fill:#8c8581;"/><polygon points="276.72 331.96 276.72 334.82 264.97 320.82 266.59 315.54 276.72 331.96" style="fill:#8c8581;"/><path d="M306.11,333.18c0,1.9-1.54,3.44-3.44,3.44s-3.44-1.54-3.44-3.44,1.54-3.44,3.44-3.44,3.44,1.54,3.44,3.44Z" style="fill:#b9afaa;"/><path d="M277.01,333.18c0,1.9-1.54,3.44-3.44,3.44s-3.44-1.54-3.44-3.44,1.54-3.44,3.44-3.44,3.44,1.54,3.44,3.44Z" style="fill:#b9afaa;"/><path d="M232.05,333.18c0,1.9-1.54,3.44-3.44,3.44s-3.44-1.54-3.44-3.44,1.54-3.44,3.44-3.44,3.44,1.54,3.44,3.44Z" style="fill:#b9afaa;"/><rect x="236.39" y="267.96" width="58.49" height="8.94" rx="4.03" ry="4.03" style="fill:#dcd0c8;"/><rect x="395.43" y="230.41" width="3.34" height="102.78" style="fill:#6d6865;"/><rect x="286.64" y="147.71" width="86.53" height="61.04" rx="4.02" ry="4.02" style="fill:#b2a8a3;"/><rect x="290.03" y="151.01" width="79.75" height="48.18" style="fill:#f4f6ff;"/><path d="M366.24,203.73c0,1.37-1.44,2.48-3.21,2.48s-3.21-1.11-3.21-2.48,1.44-2.48,3.21-2.48,3.21,1.11,3.21,2.48Z" style="fill:#8c8480;"/><path d="M347.82,224.64v-1.09s-1.53-6.76-12.33-6.76-10.58,7.84-10.58,7.84h22.91Z" style="fill:#948c87;"/><path d="M324.78,217.8s2.35-.18,3.21-.7c.86-.52,6-3.98,7.21-3.42,1.21,.55,9.25,3.02,8.97,4.19-.28,1.18-1.02,1.06-1.59,.85-.57-.21-6.41-1.43-6.92-1.23,0,0,5.74,2.09,5.76,3.62,.02,1.53-1.2,1.9-1.74,2.48-.54,.58-1.2,2.01-2.67,2.12-1.48,.11-8.69-2.4-10.17-2.51-1.48-.11-4.23,.09-4.42-.15-.19-.24,2.38-5.25,2.38-5.25Z" style="fill:#dba585;"/><path d="M282.05,178.48c-7.48-1.32-15.36-3.2-15.36-3.2l-13.93-.57s-12.79,2.82-17.83,5.09c-.48,.22-.48,11.41-1.79,14.34l4.18,8.81s2.41,17.45,2.91,25.21c.23,3.56-.65,34.43-.65,34.43,0,0,1.25,.62,10.76,1.67,9.51,1.05,33.27-.38,33.42-1.5,.15-1.12-4.6-41.83-4.81-43.93-.32-3.23,.93-18.18,.93-18.18,1.79,2.41,6.36,13.28,11.12,18.45,2.8,3.04,16.67,4.91,19.28,4.99,5.69,.19,16.07,1.32,16.37,.77,.24-.33,.9-9.21,.25-9.43-.57-.19-19.85-1.3-24.78-3.92-1.81-.96-7.21-12.74-7.21-12.74,0,0-8.75-18.43-12.88-20.29Z" style="fill:#daddee;"/><rect x="222.73" y="205.84" width="40.34" height="55.86" rx="7.73" ry="7.73" style="fill:#dcd0c8;"/><path d="M255.92,274.68c-5.95,0-10.77-2-14.34-5.94-8.06-8.9-6.61-24.55-6.55-25.21,.12-1.23,1.22-2.13,2.45-2.01,1.23,.12,2.13,1.22,2.01,2.45-.02,.18-1.3,14.36,5.42,21.77,2.72,3,6.32,4.45,11,4.45,1.24,0,2.24,1,2.24,2.24s-1,2.24-2.24,2.24Z" style="fill:#dcd0c8;"/><rect x="295.68" y="154.85" width="23.36" height="2.55" rx=".58" ry=".58" style="fill:#dedfe6;"/><rect x="295.68" y="160.31" width="23.36" height="2.55" rx=".58" ry=".58" style="fill:#dedfe6;"/><rect x="295.68" y="166.57" width="23.36" height="28.78" rx="1.94" ry="1.94" style="fill:#dedfe6;"/><rect x="323.76" y="154.85" width="41.6" height="40.5" rx="3.07" ry="3.07" style="fill:#dedfe6;"/></g><g><path d="M431.89,248.2s12.61-3.57,28.01,0l-7.39-37.86s-18.45,19.56-20.62,37.86Z" style="fill:#b2b5c1;"/><path d="M391.92,182.93s-2.83,2.03-3.67,1.77c-.84-.25-2.24,.16-3.04,.07-.8-.08-2.87-1.08-3.71-.87-.34,.09-2.23,1.44-2.95,1.54-.71,.1-2.18,.14-2.08,.74,.1,.61,1.41,.93,1.41,.93,0,0-.64,.13-.72,.69-.16,1.09,.42,1.47,.42,1.47,0,0-.57,.56-.52,1.03,.11,1.03,.68,1.39,.68,1.39,0,0-.25,.54-.02,1.21,.3,.85,1.2,.98,1.2,.98,0,0,.12,1.16,.76,1.31,.64,.16,1.19-.07,1.72-.08,.53-.01,5.06-1.58,7.76-3.94,2.7-2.36,5.81-3.73,5.81-3.73l-3.05-4.53Z" style="fill:#dba686;"/><path d="M449.98,105.47s4.23-2.71,8.04,2.11c3.81,4.82,2.44,9.46,1.64,13.78-.79,4.29-4.63,14.11-3,18.44,1.63,4.33-.45,6.58-.45,6.58,0,0-13.11,3.36-11.58-16.36,1.53-19.72,5.35-24.55,5.35-24.55Z" style="fill:#eecaa2;"/><path d="M444.37,142.7s-4.99-.68-8.34,1.83c-3.35,2.51-5.64,7.22-6.66,8.69-1.02,1.48-12.99,14.68-13.58,14.92-.6,.24-8.04,4.35-13.06,7.67-5.01,3.32-12.92,7.32-12.92,7.32l4.29,5.26s21.11-7.56,25.51-11.65c4.69-4.37,26.39-26.03,26.39-26.03,0,0,5.45-4.41-1.62-8Z" style="fill:#daddee;"/><path d="M408.05,326.33s-5.4,7.27-4.66,8.42,6.42,1.32,9.87,0c3.46-1.32,3.54-9.83,5.1-13.49,.65-1.53-.75-6.05-2.72-6.38-1.97-.33-4.11,.64-4.11,.64,0,0,2.04,5.16-3.49,10.82Z" style="fill:#2c3d54;"/><path d="M411.51,315.45s-1.14,3.1-1.55,6.05c-.34,2.45-3.85,7.66-3.68,8.31,.16,.66,4.61,1.25,6.42-.44s2.98-6.63,3.37-9.58c.37-2.75,.84-4.11,.84-4.11,0,0-3.67-2.04-5.4-.23Z" style="fill:#dba585;"/><polygon points="418.51 320.62 418.51 328.23 417.53 328.23 417.53 322.35 418.51 320.62" style="fill:#2c3d54;"/><path d="M455.04,326.45s-5.2,7.15-4.46,8.3c.74,1.15,6.42,1.32,9.87,0,3.46-1.32,3.54-9.83,5.1-13.49,.65-1.53-.75-6.05-2.72-6.38-1.97-.33-4.28,.71-4.28,.71,0,0,2.02,5.21-3.52,10.87Z" style="fill:#2c3d54;"/><path d="M458.56,315.58s-.41,3.37-1.07,5.76c-.66,2.39-4.2,7.82-4.03,8.48,.16,.66,4.61,1.25,6.42-.44s3.21-6.61,3.37-9.58-.41-4.91-.41-4.91c0,0-2.55-1.1-4.28,.71Z" style="fill:#dba585;"/><polygon points="465.7 320.62 465.7 328.23 464.71 328.23 464.71 322.35 465.7 320.62" style="fill:#2c3d54;"/><path d="M432.56,197.25s-4.63,21.55-5.7,26.98c-1.06,5.43-4.04,31.71-4.36,36.18-.32,4.47-4.83,21.31-4.62,22.9,.21,1.6-6.95,33.27-6.95,33.27,0,0,7.37,2,8.61,.65,1.05-1.15,11.64-30.11,11.64-38.09,0-11.03,8.32-25.07,9.37-27.54,9.78-22.93,7.69-30.29,8.97-31.78,1.28-1.49,1.39,.92,2.13,4.22,.74,3.3,2.34,31.81,3.3,35.43,.96,3.62,.21,15.85,.75,22.02,.53,6.17,1.14,33.82,1.14,33.82,0,0,5.34,1.23,7.87,.04,.73-.34,2.58-30.8,2.68-38.14,.11-7.34,.22-17.47,.43-20.64,1.97-30.42,4.88-34.74-.81-56.3-10.92-41.35-34.45-3.02-34.45-3.02Z" style="fill:#3d3d42;"/><path d="M444.55,139.83s-4.84,2.28-6.51,2.62c-1.68,.34-8.19,8.8-9.34,11.89-1.14,3.09,0,7.72,2.35,13.16,2.35,5.44,.13,7.25,1.21,12.69,1.07,5.44,.06,18.19-.15,21.21-.2,3.02,24.71,6.86,34.29-2.79,0,0-5.2-9.76-6-11.1-.81-1.34-.13-8.66,.6-10.54,.74-1.88,5.66-17.87,5.66-17.87,0,0,4.02-12.28,.39-15.1-3.16-2.45-11.76-3.33-13.3-3.86-1.54-.54-6.04-.77-9.19-.3Z" style="fill:#cd7250;"/><path d="M443,150.61l-2.94-3.44,2.55-9.06s.86,5.04,.39,12.5Z" style="fill:#cfc3bc;"/><path d="M442.24,134.25s.96,8.87,.76,11.76c0,0,5.02,5.04,10.74-5.88,0,0-2.4-4.5-.59-10.63,1.81-6.13-10.91,4.75-10.91,4.75Z" style="fill:#dba585;"/><polygon points="443 146.01 443 150.61 448.79 146.29 443 146.01" style="fill:#dba585;"/><polygon points="443 150.61 445.41 147.64 453.49 139.58 456.11 142.1 443 150.61" style="fill:#cfc3bc;"/><polygon points="440.07 147.17 436.36 148.19 442.62 138.11 440.07 147.17" style="fill:#f3e4dc;"/><polygon points="445.41 147.64 448.79 152.07 455.7 140.27 453.29 139.04 445.41 147.64" style="fill:#f3e4dc;"/><path d="M442.44,136.2l.16,1.76s4,.77,9.22-5.6c0,0-3.7,4.52-9.39,3.85Z" style="fill:#997761;"/><path d="M443.45,136.33c-1.57-.06-5.96-.57-8.13-10.69-2.65-12.36,3.2-18.77,8.21-19.96,5.01-1.19,9.63,.55,12.19,7.01,0,0,1.87,5.04-1.17,14.01-3.04,8.97-9.42,9.69-11.1,9.62Z" style="fill:#dba686;"/><path d="M447.47,113.7s-6.73,.42-12.98,9.81c0,0-2.93-11.3,4.72-16.46,7.65-5.16,13-.72,14.87,1.53,0,0,2.68,.61,2.76,5.69,.08,5.08,3.5,12.74-3.99,16.38,0,0,.71-5.8,.05-7.12-.66-1.33-2.95-.43-5.44-9.82Z" style="fill:#eecaa2;"/><path d="M452.54,121.27c.34-.88,1.26-1.23,1.77-.29,.51,.94-.1,4.6-1.45,5-1.36,.4-1.01-2.93-.32-4.71Z" style="fill:#dba686;"/><path d="M455.7,140.27s-7.6,9.09-8.39,28.19c-.8,19.1,5.98,80.12,5.56,87.56l19.7-9.53s-.11-30.78-6.71-50.15c-7.74-22.73,1.06-29.66,1.87-43.64,0,0-.37-10.23-6.07-11.16-5.36-.87-5.96-1.26-5.96-1.26Z" style="fill:#daddee;"/><path d="M440.43,141.64s-3.09,.36-4.07,1.51c-.98,1.15-7.08,8.19-7.53,10.26-.45,2.07-1.87,3.62,1.06,13.27,2.62,8.64,1.96,18.32,1.42,22.2-.54,3.88-9.98,56.26-9.46,57.6,.52,1.34,4.45,4.55,4.45,4.55,0,0,8.45-51.69,8.36-60.32-.09-8.63-3.47-34.33,5.77-49.08Z" style="fill:#daddee;"/><g><polygon points="375.81 168.91 382.4 202.83 404.16 198.6 398.43 164.52 375.81 168.91" style="fill:#616161;"/><polygon points="377.44 170.56 383.29 200.68 402.63 196.93 397.53 166.66 377.44 170.56" style="fill:#d9ccc5;"/><polygon points="383.57 170.15 383.16 168.04 390.98 166.52 391.69 168.57 383.57 170.15" style="fill:#616161;"/></g><path d="M378.26,186.84s3.9-1.27,5.05-.54c1.15,.73-.23,1.27-.23,1.27,0,0,1.36-.55,1.9,.46,.54,1.02-1.11,1.56-1.11,1.56,0,0,1.14-.15,1.28,1.05,.14,1.19-1.32,1.34-1.32,1.34,0,0,1.7,.67,.63,1.76-1.81,1.83-4.71,1.55-4.71,1.55,0,0-.91-.11-.97-1.27,0,0-1.72-.36-1.14-2.29,0,0-1.52-1.38-.19-2.44,0,0-1.41-1.76,.82-2.45Z" style="fill:#c99a7d;"/><path d="M472.62,206.31s.79,3.67-.82,6.15c-.61,.95-.02,8.12,.03,9.02,.05,.75,.72,1.39,1,1.24,.28-.16,.34-4.13,.76-5.4,.35-1.07,.67-1.48,.86-1.14,.19,.34-.46,6.11-.84,8.01-.38,1.91,.1,5.93,1.09,5.28s4.3-9.58,4.06-12.56c-.25-2.98-1.37-6.7-1.37-6.7l-4.77-3.89Z" style="fill:#dba585;"/><path d="M456.86,140.81s7.87-.48,11.81,4.11c3.95,4.59,3.73,10.04,4.73,12.41,1,2.37,3.3,12.55,3.8,14.2,.5,1.65,.99,10.92,1.71,18.39,.72,7.46,.57,21.39,.57,21.39l-7.53-1.36s-.3-13.28-.49-20.98c-.19-7.7-6.46-21.31-8.82-27.26-2.37-5.95-11.79-17.16-5.79-20.89Z" style="fill:#daddee;"/></g></g></g></svg>