<?xml version="1.0" encoding="UTF-8"?>
<svg id="Layer_1" data-name="Layer 1" xmlns="http://www.w3.org/2000/svg" viewBox="0 0 147.11 292.44">
  <defs>
    <style>
      .cls-1 {
        fill: #fff;
      }

      .cls-2 {
        opacity: .13;
      }
    </style>
  </defs>
  <path d="M100.79,272.44s-.08,.09-.14,.12c-.19,.09-.41,.01-.5-.18-6.89-14.21-12.17-29.22-15.69-44.62-.05-.2,.08-.41,.28-.45,.2-.05,.41,.08,.45,.28,3.51,15.34,8.77,30.3,15.64,44.46,.06,.13,.04,.28-.04,.39Z"/>
  <path d="M89.25,275.62c-.04,.06-.11,.11-.18,.13-.2,.07-.41-.04-.48-.23-4.54-13.15-7.86-26.8-9.88-40.56-.03-.21,.11-.4,.32-.43,.21-.03,.4,.11,.43,.32,2.01,13.72,5.32,27.32,9.84,40.42,.04,.12,.02,.25-.05,.35Z"/>
  <path d="M72.59,271.97c-.07,.1-.2,.16-.33,.15-.21-.02-.36-.2-.35-.41l-3.81-38.65c.02-.21,.2-.36,.41-.35,.21,.02,.36,.2,.35,.41l3.81,38.65c0,.07-.03,.14-.07,.19Z"/>
  <g>
    <path class="cls-1" d="M16,163.61c-.95-.7-1.15-2.03-.46-2.98s2.03-1.15,2.98-.46,1.15,2.03,.46,2.98-2.03,1.15-2.98,.46Z"/>
    <path d="M19.28,163.37c-.82,1.11-2.39,1.36-3.51,.54s-1.36-2.39-.54-3.51,2.39-1.36,3.51-.54,1.36,2.39,.54,3.51Zm-3.44-2.52c-.57,.78-.4,1.88,.38,2.45s1.88,.4,2.45-.38,.4-1.88-.38-2.45-1.88-.4-2.45,.38Z"/>
  </g>
  <g>
    <path class="cls-1" d="M32.9,63.91c-.95-.7-1.15-2.03-.46-2.98s2.03-1.15,2.98-.46,1.15,2.03,.46,2.98-2.03,1.15-2.98,.46Z"/>
    <path d="M36.18,63.68c-.82,1.11-2.39,1.36-3.51,.54s-1.36-2.39-.54-3.51,2.39-1.36,3.51-.54,1.36,2.39,.54,3.51Zm-3.44-2.52c-.57,.78-.4,1.88,.38,2.45s1.88,.4,2.45-.38,.4-1.88-.38-2.45-1.88-.4-2.45,.38Z"/>
  </g>
  <g>
    <path class="cls-1" d="M132.02,130.28c-1.6-1.17-1.94-3.42-.77-5.02s3.42-1.94,5.02-.77,1.94,3.42,.77,5.02-3.42,1.94-5.02,.77Z"/>
    <path d="M137.35,129.73c-1.29,1.76-3.78,2.15-5.55,.85s-2.15-3.78-.85-5.55,3.78-2.15,5.55-.85,2.15,3.78,.85,5.55Zm-5.79-4.25c-1.05,1.43-.74,3.44,.69,4.49s3.44,.74,4.49-.69,.74-3.44-.69-4.49-3.44-.74-4.49,.69Z"/>
  </g>
  <g>
    <polygon class="cls-1" points="53.85 159.55 30.32 173.54 38.04 219.07 59.21 179.93 53.85 159.55"/>
    <path d="M38.34,219.29c-.08,.11-.22,.17-.36,.15-.16-.02-.29-.15-.32-.31l-7.72-45.53c-.02-.14,.03-.28,.15-.37l23.53-13.99c.1-.08,.23-.1,.35-.05,.12,.04,.21,.14,.24,.26l5.36,20.39c.02,.09,.01,.18-.03,.26l-21.17,39.13s-.02,.04-.03,.05Zm-7.61-45.59l7.49,44.16,20.59-37.97-5.18-19.71-22.89,13.51Z"/>
  </g>
  <g>
    <polygon class="cls-1" points="100.32 156.69 122.44 176.6 110.68 221.26 93.16 176.51 100.32 156.69"/>
    <path d="M110.98,221.48c-.07,.09-.17,.15-.28,.15-.16,0-.31-.09-.37-.24l-17.52-44.75c-.03-.09-.03-.18,0-.27l7.16-19.83c.04-.12,.14-.21,.26-.24,.12-.03,.25,0,.34,.09l22.12,19.91c.11,.09,.15,.24,.11,.38l-11.76,44.66s-.03,.09-.06,.13Zm-17.42-44.97l17.04,43.54,11.4-43.32-21.53-19.38-6.92,19.16Z"/>
  </g>
  <g>
    <path class="cls-1" d="M87.81,192.48c.94,10.23,3.27,14.21,4.85,18.93-11.9,2.4-23.45,2.08-34.21-1.02,3.46-6.93,4.68-12.15,5.9-18.5,8.05,.73,16.09,.22,23.45,.59Z"/>
    <path d="M92.97,211.64c-.06,.08-.14,.13-.23,.15-12.04,2.42-23.61,2.08-34.38-1.03-.11-.03-.2-.11-.24-.21-.05-.1-.04-.22,0-.32,3.5-7.01,4.68-12.26,5.87-18.4,.04-.19,.21-.32,.4-.3,4.69,.42,9.39,.43,13.93,.43,3.31,0,6.43,0,9.5,.16,.19,0,.34,.16,.36,.34,.73,7.97,2.32,12.14,3.72,15.81,.4,1.03,.77,2.01,1.11,3.04,.03,.1,.02,.22-.03,.31,0,.01-.01,.02-.02,.03Zm-33.97-1.48c10.41,2.92,21.56,3.25,33.17,.97-.3-.87-.62-1.71-.96-2.6-1.4-3.67-2.99-7.82-3.74-15.68-2.95-.14-5.96-.14-9.14-.14-4.45,0-9.05,0-13.66-.4-1.15,5.93-2.34,11.09-5.67,17.85Z"/>
  </g>
  <g>
    <path class="cls-1" d="M67.03,195.84c4.9,.99,9.92,1.14,14.86,.45,4.59-.64,9.14-1.98,13.44-4.01,1.14-.54,.7-.78,1.81-1.41,5.3-13.25,9.32-79.87,9.58-99.58,.54-41.1-29.49-74.82-29.49-74.82,0,0-30.91,32.92-31.45,74.02-.27,20.56,3.82,87.62,9.17,101.16,3.87,1.95,7.94,3.36,12.09,4.19Z"/>
    <path d="M97.44,191.1s-.07,.08-.12,.1c-.47,.27-.61,.44-.76,.63-.2,.24-.4,.48-1.07,.8-4.28,2.02-8.84,3.38-13.55,4.04-4.98,.7-10.02,.55-14.99-.45-4.19-.84-8.29-2.27-12.18-4.23-.08-.04-.15-.11-.18-.2-5.34-13.54-9.47-80.16-9.19-101.3,.28-21.31,8.85-40.37,15.98-52.61,7.73-13.25,15.5-21.58,15.57-21.66,.07-.08,.17-.12,.28-.12,.11,0,.21,.05,.28,.13,.08,.08,7.62,8.62,15,22.07,6.81,12.42,14.87,31.7,14.59,53.01-.25,18.87-4.17,86.13-9.6,99.72-.01,.03-.03,.06-.05,.08Zm-42.21,.28c3.8,1.9,7.79,3.28,11.86,4.1h0c4.88,.98,9.84,1.13,14.73,.45,4.63-.65,9.12-1.99,13.34-3.97,.52-.24,.65-.4,.81-.6,.16-.19,.35-.43,.86-.73,5.15-13.22,9.24-79.3,9.5-99.33,.28-21.14-7.72-40.28-14.48-52.62-6.54-11.93-13.22-19.97-14.63-21.63-1.46,1.62-8.35,9.48-15.2,21.23-7.09,12.15-15.59,31.08-15.87,52.22-.28,21.03,3.8,87.11,9.09,100.88Z"/>
  </g>
  <g>
    <path class="cls-1" d="M90.4,187.59c-6.35,2.04-13.25,2.52-19.88,2.02-3.72-.28-7.36-.95-10.94-1.98-1.85-.53-3.67-1.15-5.44-1.89-.31-.13-.61-.26-.91-.4,.56,2.66,1.13,4.81,1.72,6.31,3.87,1.95,7.94,3.36,12.09,4.19,4.9,.99,9.92,1.14,14.86,.45,4.59-.64,9.14-1.98,13.44-4.01,1.14-.54,.7-.78,1.81-1.41,.68-1.69,1.33-4.26,1.96-7.49-2.68,1.82-5.62,3.21-8.71,4.2Z"/>
    <path d="M97.44,191.1s-.07,.08-.12,.1c-.47,.27-.61,.44-.76,.63-.2,.24-.4,.48-1.07,.8-4.28,2.02-8.84,3.38-13.55,4.04-4.98,.7-10.02,.55-14.99-.45-4.19-.84-8.29-2.27-12.18-4.23-.08-.04-.15-.11-.18-.2-.58-1.46-1.16-3.61-1.74-6.37-.03-.14,.02-.28,.13-.37,.11-.09,.26-.11,.39-.05,.3,.13,.6,.27,.91,.39,1.65,.7,3.42,1.31,5.4,1.88,3.62,1.03,7.27,1.69,10.87,1.96,7.26,.55,13.9-.13,19.73-2,3.14-1.01,6.03-2.41,8.61-4.16,.13-.09,.29-.09,.42,0,.13,.08,.19,.24,.16,.39-.66,3.36-1.32,5.9-1.98,7.55-.01,.03-.03,.06-.05,.08Zm-42.21,.28c3.8,1.9,7.79,3.28,11.86,4.1,4.88,.98,9.84,1.13,14.73,.45,4.63-.65,9.12-1.99,13.34-3.97,.52-.24,.65-.4,.81-.6,.16-.19,.35-.43,.86-.73,.57-1.46,1.15-3.61,1.72-6.41-2.44,1.56-5.14,2.82-8.04,3.75h0c-5.93,1.91-12.67,2.59-20.02,2.04-3.65-.27-7.35-.95-11.02-1.99-2.01-.57-3.81-1.2-5.49-1.91-.08-.03-.16-.07-.24-.1,.5,2.29,1,4.1,1.5,5.39Z"/>
  </g>
  <g>
    <path class="cls-1" d="M59.5,72.55c4.46,.61,8.93,1.09,13.42,1.35,4.47,.26,8.95,.32,13.43,.06,4.41-.25,8.82-.8,13.16-1.75,1.71-.37,3.4-.82,5.09-1.32-6.77-31.29-27.37-54.42-27.37-54.42,0,0-21.49,22.89-28.95,54.32,3.73,.65,7.47,1.25,11.22,1.76Z"/>
    <path d="M104.9,71.11c-.05,.06-.11,.11-.2,.14-1.74,.52-3.47,.97-5.11,1.33-4.15,.9-8.59,1.5-13.22,1.76-4.26,.24-8.67,.22-13.47-.06-4.17-.25-8.56-.69-13.45-1.35h0c-3.4-.46-6.97-1.02-11.23-1.76-.1-.02-.19-.08-.25-.16-.06-.09-.08-.19-.05-.3,3.86-16.29,11.55-30.24,17.32-39.07,6.25-9.57,11.66-15.37,11.72-15.43,.07-.08,.17-.12,.28-.12,.11,0,.21,.05,.28,.13,.05,.06,5.24,5.92,11.18,15.53,5.49,8.87,12.76,22.85,16.27,39.06,.02,.11,0,.22-.06,.3Zm-45.35,1.07c4.86,.66,9.24,1.1,13.39,1.35,4.77,.28,9.15,.3,13.38,.06,4.59-.26,9-.85,13.11-1.75,1.53-.33,3.11-.74,4.72-1.21-3.51-15.96-10.68-29.71-16.09-38.47-5.13-8.3-9.7-13.78-10.84-15.12-1.19,1.31-5.96,6.75-11.36,15.03-5.69,8.71-13.25,22.41-17.12,38.42,4.08,.7,7.52,1.24,10.81,1.69h0Z"/>
  </g>
  <g>
    <path class="cls-1" d="M95.74,64.38c-3.82,.46-7.65,.73-11.49,.83-3.87,.1-7.73,.03-11.59-.24-3.83-.27-7.64-.7-11.42-1.35-3.45-.59-6.87-1.32-10.26-2.2-1.02,3.02-1.93,6.15-2.7,9.37,3.73,.65,7.47,1.25,11.22,1.76,4.46,.61,8.93,1.09,13.42,1.35,4.47,.26,8.95,.32,13.43,.06,4.41-.25,8.82-.8,13.16-1.75,1.71-.37,3.4-.82,5.09-1.32-.56-2.57-1.21-5.07-1.93-7.52-2.3,.41-4.61,.74-6.93,1.02Z"/>
    <path d="M104.9,71.11c-.05,.06-.11,.11-.2,.14-1.74,.52-3.47,.97-5.11,1.33-4.15,.9-8.59,1.5-13.22,1.76-4.26,.24-8.67,.22-13.47-.06-4.17-.25-8.56-.69-13.45-1.35-3.4-.46-6.97-1.02-11.23-1.76-.1-.02-.19-.08-.25-.16-.06-.09-.08-.19-.05-.3,.73-3.09,1.64-6.26,2.71-9.41,.06-.19,.26-.29,.45-.24,3.36,.88,6.8,1.61,10.23,2.2,3.64,.62,7.47,1.07,11.38,1.34,3.74,.26,7.63,.34,11.56,.24,3.82-.1,7.68-.38,11.46-.83h0c2.5-.3,4.76-.63,6.9-1.01,.19-.03,.37,.08,.43,.26,.75,2.56,1.41,5.1,1.94,7.55,.02,.11,0,.22-.06,.3Zm-56.16-.62c4.08,.7,7.52,1.24,10.81,1.69,4.86,.66,9.24,1.1,13.39,1.35,4.77,.28,9.15,.3,13.38,.06,4.59-.26,9-.85,13.11-1.75,1.53-.33,3.11-.74,4.72-1.21-.49-2.22-1.08-4.52-1.75-6.83-2.06,.36-4.23,.67-6.61,.96h0c-3.8,.45-7.68,.74-11.53,.83-3.95,.1-7.86,.02-11.63-.24-3.94-.27-7.79-.73-11.46-1.35-3.33-.57-6.67-1.28-9.95-2.12-.96,2.88-1.8,5.78-2.48,8.62Z"/>
  </g>
  <g>
    <circle class="cls-1" cx="77.2" cy="109.42" r="14.99" transform="translate(-54.76 86.64) rotate(-45)"/>
    <path d="M89.62,118.49c-.5,.69-1.07,1.34-1.69,1.94-2.94,2.86-6.82,4.41-10.93,4.36-4.11-.05-7.94-1.7-10.81-4.65-2.86-2.94-4.41-6.82-4.36-10.93,.05-4.11,1.7-7.94,4.65-10.81,2.94-2.86,6.82-4.41,10.93-4.36,4.11,.05,7.94,1.7,10.81,4.65,2.86,2.94,4.41,6.82,4.36,10.93-.04,3.24-1.08,6.31-2.95,8.86Zm-24.23-17.69c-1.78,2.43-2.77,5.35-2.81,8.43-.05,3.9,1.42,7.59,4.14,10.39,2.72,2.8,6.37,4.37,10.28,4.42,3.9,.05,7.59-1.42,10.39-4.14,2.8-2.72,4.37-6.37,4.42-10.28,.05-3.9-1.42-7.59-4.14-10.39-2.72-2.8-6.37-4.37-10.28-4.42-3.9-.05-7.59,1.42-10.39,4.14-.59,.58-1.13,1.2-1.61,1.85Z"/>
  </g>
  <g>
    <path class="cls-1" d="M66.47,109.28c.08-5.93,4.95-10.67,10.87-10.59,5.93,.08,10.67,4.95,10.59,10.87s-4.95,10.67-10.87,10.59c-5.93-.08-10.67-4.95-10.59-10.87Z"/>
    <path d="M86.18,115.97c-.36,.5-.77,.97-1.22,1.41-2.13,2.07-4.93,3.19-7.9,3.15-2.97-.04-5.74-1.23-7.81-3.36-2.07-2.13-3.19-4.93-3.15-7.9h0c.08-6.13,5.13-11.04,11.26-10.96,2.97,.04,5.74,1.23,7.81,3.36,2.07,2.13,3.19,4.93,3.15,7.9-.03,2.34-.78,4.56-2.13,6.41Zm-19.33-6.69h0c-.04,2.77,1.01,5.38,2.94,7.36,1.93,1.98,4.52,3.09,7.28,3.13,2.77,.04,5.38-1.01,7.36-2.94,1.98-1.93,3.09-4.52,3.13-7.28,.04-2.77-1.01-5.38-2.94-7.36-1.93-1.98-4.52-3.09-7.28-3.13-5.71-.08-10.42,4.51-10.49,10.22Z"/>
  </g>
  <g>
    <circle class="cls-1" cx="74.89" cy="160.86" r="12.69" transform="translate(-101.97 146.59) rotate(-60.42)"/>
    <path d="M85.43,168.57c-2.41,3.29-6.33,5.41-10.71,5.35-3.49-.05-6.75-1.45-9.19-3.95-2.43-2.5-3.75-5.8-3.7-9.29h0c.05-3.49,1.45-6.75,3.95-9.19,2.5-2.43,5.8-3.75,9.29-3.7,3.49,.05,6.75,1.45,9.19,3.95,2.43,2.5,3.75,5.8,3.7,9.29-.04,2.82-.97,5.42-2.52,7.54Zm-20.48-14.97c-1.5,2.05-2.33,4.51-2.36,7.1h0c-.04,3.29,1.2,6.4,3.49,8.75,2.29,2.36,5.37,3.68,8.65,3.72,6.79,.09,12.38-5.36,12.47-12.14,.04-3.29-1.2-6.4-3.49-8.75-2.29-2.36-5.37-3.68-8.65-3.72-3.29-.04-6.4,1.2-8.75,3.49-.5,.49-.95,1.01-1.35,1.56Zm-2.74,7.09h0s0,0,0,0Z"/>
  </g>
  <g>
    <path class="cls-1" d="M65.81,160.74c.07-5.01,4.18-9.03,9.2-8.96,5.01,.07,9.03,4.18,8.96,9.2-.07,5.01-4.18,9.03-9.2,8.96-5.01-.07-9.03-4.18-8.96-9.2Z"/>
    <path d="M82.53,166.44c-.31,.42-.66,.82-1.04,1.2-1.81,1.76-4.2,2.71-6.72,2.68-5.21-.07-9.4-4.37-9.33-9.58h0c.03-2.53,1.05-4.89,2.86-6.65,1.81-1.76,4.2-2.71,6.72-2.68,2.53,.03,4.89,1.05,6.65,2.86,1.76,1.81,2.71,4.2,2.68,6.72-.03,1.99-.66,3.88-1.82,5.45Zm-14.67-10.71c-1.06,1.45-1.65,3.19-1.67,5.02h0c-.06,4.8,3.79,8.75,8.59,8.82,2.32,.03,4.52-.85,6.19-2.47,1.67-1.62,2.6-3.8,2.63-6.12,.03-2.32-.85-4.52-2.47-6.19s-3.8-2.6-6.12-2.63c-2.32-.03-4.52,.85-6.19,2.47-.35,.34-.67,.71-.96,1.1Zm-2.05,5.01h0s0,0,0,0Z"/>
  </g>
  <path d="M77.24,166.03s0,0,0,0c-.05,.05-.13,.06-.18,.01l-7.75-6.8c-.05-.05-.06-.12-.01-.18,.05-.05,.13-.06,.18-.01l7.75,6.8s.06,.12,.02,.17Z"/>
  <path d="M80.8,163.58h0c-.04,.06-.12,.07-.18,.02l-10.08-7.93c-.05-.04-.06-.12-.02-.17h0c.04-.06,.12-.07,.18-.02l10.08,7.93c.05,.04,.06,.12,.02,.17Z"/>
  <path d="M77.99,113.07h0c-.04,.06-.12,.07-.18,.02l-4.41-3.53c-.05-.04-.06-.12-.02-.18,.04-.05,.12-.06,.18-.02l4.41,3.53c.05,.04,.06,.12,.02,.17Z"/>
  <path d="M83.87,112.89h0c-.04,.06-.12,.07-.18,.03-4.1-3.04-8.17-6.21-12.12-9.44-.05-.04-.06-.13-.02-.18,.04-.05,.12-.06,.18-.02,3.94,3.23,8.02,6.4,12.11,9.44,.06,.04,.07,.12,.03,.18Z"/>
  <path d="M52.29,70.12s-.01,.01-.02,.02c-.05,.05-.13,.04-.18,0l-1.93-2.16c-.05-.05-.04-.13,0-.18,.05-.05,.13-.04,.18,0l1.93,2.16s.04,.11,0,.16Z"/>
  <path d="M56.07,70.91s0,0-.01,.01c-.05,.05-.13,.05-.18,0-1.76-1.66-3.44-3.45-5.01-5.29-.04-.05-.04-.13,.01-.18,.05-.04,.13-.04,.18,.01,1.56,1.84,3.24,3.61,4.99,5.27,.05,.04,.05,.12,.02,.17Z"/>
  <path d="M59.52,71.43s0,0,0,.01c-.05,.05-.13,.05-.18,0-2.72-2.51-5.4-5.13-7.98-7.77-.05-.05-.05-.13,0-.18,.05-.05,.13-.05,.18,0,2.58,2.64,5.26,5.25,7.98,7.76,.05,.04,.05,.12,.02,.17Z"/>
  <path d="M63.28,71.99s0,0,0,0c-.05,.05-.13,.06-.18,.01-3.34-2.92-6.67-5.94-9.91-8.97-.05-.05-.05-.13,0-.18,.05-.05,.13-.05,.18,0,3.23,3.03,6.57,6.05,9.9,8.97,.05,.04,.06,.12,.02,.17Z"/>
  <path d="M66.19,72s0,0,0,0c-.05,.05-.13,.06-.18,0l-8.5-7.62c-.05-.05-.05-.13,0-.18,.05-.05,.13-.06,.18,0l8.5,7.62s.06,.12,.02,.17Z"/>
  <path d="M69.78,72.68s0,0,0,.01c-.05,.05-.13,.05-.18,0l-8.38-7.7c-.05-.05-.05-.13,0-.18,.05-.05,.13-.05,.18,0l8.38,7.7s.05,.12,.02,.17Z"/>
  <path d="M73.16,72.9s0,0-.01,.01c-.05,.05-.13,.05-.18,0-2.69-2.53-5.47-5.03-8.27-7.43-.05-.05-.06-.13-.01-.18,.05-.05,.12-.06,.18-.01,2.81,2.4,5.59,4.9,8.28,7.44,.05,.04,.05,.12,.02,.17Z"/>
  <path d="M76.67,73.03s0,0,0,0c-.05,.05-.12,.06-.18,.01l-8.17-6.97c-.05-.05-.06-.12-.01-.18,.05-.05,.12-.06,.18-.01l8.17,6.97c.05,.04,.06,.12,.02,.17Z"/>
  <path d="M80.1,73.05h0c-.04,.06-.12,.07-.18,.03-2.81-2.16-5.6-4.41-8.29-6.71-.05-.05-.06-.13-.01-.18,.05-.05,.12-.06,.18-.01,2.69,2.29,5.47,4.55,8.28,6.7,.05,.04,.07,.12,.02,.17Z"/>
  <path d="M83.18,73s0,0,0,0c-.04,.05-.12,.06-.18,.02l-7.89-6.45c-.05-.04-.06-.12-.02-.18,.04-.05,.12-.06,.18-.02l7.89,6.45c.05,.04,.06,.12,.02,.17Z"/>
  <path d="M85.65,72.84s0,0,0,0c-.05,.05-.12,.06-.18,.01l-7.2-6.22c-.05-.05-.06-.12-.01-.18,.05-.05,.12-.06,.18-.01l7.2,6.22c.05,.04,.06,.12,.02,.17Z"/>
  <path d="M88.65,72.7s0,0,0,0c-.05,.05-.12,.06-.18,.01-2.36-2.03-4.81-4.03-7.26-5.95-.05-.04-.07-.12-.02-.18,.04-.05,.12-.06,.18-.02,2.46,1.92,4.9,3.93,7.27,5.95,.05,.04,.06,.12,.02,.17Z"/>
  <path d="M91.43,72.43s0,0,0,0c-.04,.05-.12,.06-.18,.01l-7.14-6.04c-.05-.04-.06-.13-.01-.18,.05-.05,.12-.06,.18-.02l7.14,6.04c.05,.04,.06,.12,.02,.17Z"/>
  <path d="M93.82,72.1s0,0-.01,.01c-.05,.05-.13,.05-.18,0-2.03-1.99-4.18-3.92-6.37-5.74-.05-.04-.07-.12-.02-.18,.04-.05,.12-.06,.18-.02,2.2,1.82,4.34,3.76,6.38,5.75,.05,.04,.05,.11,.01,.16Z"/>
  <path d="M97.35,71.86s0,0,0,0c-.04,.05-.12,.06-.18,.02l-6.98-5.67c-.05-.04-.07-.13-.02-.18,.04-.05,.12-.06,.18-.02l6.98,5.67c.05,.04,.06,.12,.02,.17Z"/>
  <path d="M100.28,71.08c-.04,.06-.12,.07-.18,.03l-7.14-5.2c-.06-.04-.07-.12-.03-.18h0c.04-.06,.12-.07,.18-.03l7.14,5.2c.06,.04,.07,.12,.03,.18h0Z"/>
  <path d="M102.59,70.18c-.04,.06-.12,.07-.17,.03l-6.59-4.61c-.06-.04-.07-.12-.03-.18,.05-.05,.12-.07,.18-.03l6.59,4.61c.06,.04,.07,.12,.03,.18h0Z"/>
  <path d="M102.42,67.63c-.04,.05-.11,.07-.16,.03-1.25-.73-2.45-1.57-3.56-2.51-.05-.04-.06-.12-.01-.18,.04-.05,.12-.06,.18-.01,1.1,.93,2.28,1.76,3.52,2.48,.06,.03,.08,.11,.05,.17,0,0,0,0,0,.01Z"/>
  <path d="M56.9,191.88s-.02,.02-.03,.03c-.06,.04-.13,.03-.18-.02l-1.59-2.08c-.04-.05-.03-.13,.02-.18,.06-.04,.13-.03,.18,.02l1.59,2.08s.03,.11,0,.15Z"/>
  <path d="M59.95,192.78s-.01,.01-.02,.02c-.05,.05-.13,.04-.18,0-1.54-1.65-3.02-3.39-4.42-5.17-.04-.05-.03-.13,.02-.18,.05-.04,.13-.03,.18,.02,1.39,1.77,2.87,3.5,4.4,5.15,.04,.04,.04,.11,0,.16Z"/>
  <path d="M63.71,193.9s0,0-.01,.01c-.05,.05-.13,.05-.18,0-1.79-1.71-3.53-3.52-5.16-5.38-.05-.05-.04-.13,.01-.18,.05-.05,.13-.04,.18,.01,1.63,1.85,3.36,3.66,5.15,5.36,.05,.04,.05,.12,.01,.17Z"/>
  <path d="M67.14,194.54s0,0,0,.01c-.05,.05-.13,.06-.18,0-1.8-1.64-3.58-3.34-5.29-5.05-.05-.05-.05-.13,0-.18,.05-.05,.13-.05,.18,0,1.71,1.71,3.49,3.41,5.28,5.05,.05,.04,.05,.12,.02,.17Z"/>
  <path d="M70.58,195.27s0,0,0,0c-.05,.05-.13,.06-.18,0l-5.77-5.17c-.05-.05-.05-.13,0-.18,.05-.05,.13-.06,.18,0l5.77,5.17s.06,.12,.02,.17Z"/>
  <path d="M73.87,195.6s0,0,0,.01c-.05,.05-.13,.06-.18,0l-5.46-4.96c-.05-.05-.06-.12,0-.18,.05-.05,.13-.06,.18,0l5.46,4.96s.05,.12,.02,.17Z"/>
  <path d="M77.27,195.58s0,0,0,0c-.05,.05-.12,.06-.18,.01l-5.3-4.55c-.05-.05-.05-.13-.01-.18,.05-.05,.12-.06,.18-.01l5.3,4.55c.05,.04,.06,.12,.02,.17Z"/>
  <path d="M80.67,195.44h0c-.04,.06-.12,.07-.18,.03-1.83-1.37-3.65-2.8-5.4-4.26-.05-.04-.07-.12-.02-.18,.04-.05,.12-.06,.18-.02,1.76,1.46,3.57,2.89,5.39,4.26,.06,.04,.07,.12,.03,.18Z"/>
  <path d="M83.8,194.83c-.04,.05-.11,.07-.17,.03-1.83-1.22-3.64-2.49-5.4-3.8-.06-.04-.07-.12-.03-.18h0c.04-.06,.12-.07,.18-.03,1.76,1.31,3.57,2.58,5.39,3.8,.06,.04,.07,.12,.03,.17,0,0,0,0,0,0Z"/>
  <path d="M87,194.34c-.04,.05-.11,.07-.16,.03-1.82-1.06-3.6-2.23-5.29-3.48-.06-.04-.07-.12-.03-.18,.04-.04,.12-.07,.18-.03,1.68,1.25,3.46,2.41,5.27,3.46,.06,.04,.08,.11,.05,.17,0,0,0,0,0,.01Z"/>
  <path d="M89.8,193.45s-.1,.07-.16,.04c-1.67-.89-3.33-1.85-4.94-2.85-.06-.04-.08-.11-.04-.17,.04-.06,.11-.08,.17-.04,1.6,1,3.26,1.96,4.92,2.84,.06,.03,.08,.11,.05,.17,0,0,0,.01,0,.02Z"/>
  <path d="M92.75,192.48s-.1,.06-.15,.04c-1.82-.8-3.62-1.7-5.36-2.66-.06-.03-.08-.11-.05-.17,.03-.06,.11-.08,.17-.05,1.73,.96,3.53,1.85,5.34,2.65,.06,.03,.09,.1,.06,.17,0,0,0,.02-.01,.02Z"/>
  <path d="M95.14,191.34s-.1,.06-.15,.04c-1.68-.71-3.36-1.47-5-2.27-.06-.03-.09-.11-.06-.17,.03-.06,.11-.09,.17-.06,1.64,.8,3.32,1.56,4.99,2.27,.06,.03,.09,.1,.07,.16,0,0,0,.02-.01,.03Z"/>
  <path d="M96.39,189.73s-.1,.06-.15,.04l-3.73-1.61c-.06-.03-.09-.1-.07-.17,.03-.07,.1-.09,.17-.07l3.73,1.61c.06,.03,.09,.1,.07,.17,0,0,0,.02-.01,.02Z"/>
  <path d="M97.07,187.74s0,0,0,0c-.02,.03-.09,.08-.2,.04l-1.86-.64c-.07-.02-.1-.09-.08-.16,.02-.07,.09-.1,.16-.08l1.8,.62s.03-.02,.05-.02c.06,0,.12,.02,.15,.08,.02,.04,.02,.12-.01,.16Z"/>
  <g class="cls-2">
    <path d="M83.49,163.14s0,.04-.01,.06c.07-.27,.05-.2,.01-.06Z"/>
  </g>
  <path d="M48.35,271.51s.08,.09,.14,.12c.19,.09,.41,.01,.5-.18,6.89-14.21,12.17-29.22,15.69-44.62,.05-.2-.08-.41-.28-.45-.2-.05-.41,.08-.45,.28-3.51,15.34-8.77,30.3-15.64,44.46-.06,.13-.04,.28,.04,.39Z"/>
</svg>