<?xml version="1.0" encoding="UTF-8"?><svg xmlns="http://www.w3.org/2000/svg" viewBox="0 0 600 350"><g style="isolation:isolate;"><g id="a"/><g id="b"/><g id="c"/><g id="d"/><g id="e"/><g id="f"/><g id="g"/><g id="h"/><g id="i"/><g id="j"><g><path d="M75.6,263.78c4.15,8.68,20.13,42.13,57.94,59.32,8.04,3.66,45.85,20.85,77.69,5.14,42.12-20.79,28.78-76.98,67.99-105.07,33.71-24.16,70.36,20.47,110.88-1.61,21.15-11.52,38.02-36.45,38.56-58.74,1.68-69.59-154.02-186.49-268.59-129.9-83.39,41.19-117.89,160.92-84.47,230.85Z" style="fill:#f8f5ff;"/><path d="M520.24,160.72c-8.82-23.6-22.98-39.78-39.87-45.53-18.13-6.17-32.93,1.14-48.6,8.88-13.91,6.87-28.28,13.98-45.49,11.11-15.28-2.54-21.91-14.64-28.92-27.45-7.19-13.17-14.65-26.78-31.96-31.9-18.27-5.41-41.36-.62-53.7,11.11-18.13,17.25-23.79,58.52-14.08,102.71,12.6,57.35,46.03,100.4,89.45,115.15,12.43,4.23,25.31,6.16,38.19,6.16,29.46,0,58.96-10.09,83.12-25.87,24.16-15.79,42.97-37.29,51.05-60.09,9.99-28.18,5.96-50.5,.81-64.27Zm-2.5,63.67c-19.44,54.85-101.74,101.95-170.1,78.71-42.81-14.55-75.81-57.11-88.27-113.85-9.58-43.6-4.13-84.19,13.57-101.02,8.59-8.17,22.62-12.84,36.41-12.84,5.32,0,10.61,.69,15.55,2.15,16.61,4.91,23.87,18.2,30.9,31.05,7.22,13.2,14.05,25.67,30.19,28.35,17.77,2.96,32.42-4.27,46.59-11.26,15.32-7.57,29.79-14.73,47.22-8.79,16.38,5.57,30.14,21.36,38.78,44.47,5.03,13.48,8.98,35.37-.83,63.03Z" style="fill:#f8f5ff;"/><path d="M517.73,224.38c-19.44,54.85-101.74,101.95-170.1,78.71-42.81-14.55-75.81-57.11-88.27-113.85-9.58-43.6-4.13-84.19,13.57-101.02,8.59-8.17,22.62-12.84,36.41-12.84,5.32,0,10.61,.69,15.55,2.15,16.61,4.91,23.87,18.2,30.9,31.05,7.22,13.2,14.05,25.67,30.19,28.35,17.77,2.96,32.42-4.27,46.59-11.26,15.32-7.57,29.79-14.73,47.22-8.79,16.38,5.57,30.14,21.36,38.78,44.47,5.03,13.48,8.98,35.37-.83,63.03Z" style="fill:#f8f5ff;"/></g><g><g><path d="M193.96,90.39l-6.49-6.49,2.42-2.81c-1.11-1.82-1.91-3.77-2.4-5.78l-3.69-.27v-9.18l3.69-.27c.49-2.01,1.29-3.96,2.4-5.78l-2.42-2.81,6.49-6.49,2.8,2.42c1.82-1.11,3.77-1.91,5.78-2.4l.27-3.69h9.18l.27,3.69c2.01,.49,3.96,1.29,5.78,2.4l2.8-2.42,6.49,6.49-2.42,2.81c1.11,1.82,1.91,3.77,2.4,5.78l3.69,.27v9.18l-3.69,.27c-.49,2.01-1.29,3.96-2.4,5.78l2.42,2.81-6.49,6.49-2.8-2.42c-1.82,1.11-3.77,1.91-5.78,2.4l-.27,3.69h-9.18l-.27-3.69c-2.01-.49-3.97-1.29-5.78-2.4l-2.8,2.42Zm17.48-13c.59-.34,1.15-.76,1.66-1.27,.51-.51,.92-1.07,1.27-1.66,1.44-2.48,1.44-5.57,0-8.05-.34-.59-.76-1.15-1.26-1.66-.51-.51-1.07-.92-1.66-1.27-2.48-1.44-5.57-1.44-8.05,0-.59,.34-1.15,.76-1.66,1.27-.51,.51-.92,1.07-1.27,1.66-1.44,2.48-1.44,5.57,0,8.05,.34,.59,.76,1.15,1.27,1.66,.5,.51,1.07,.92,1.66,1.27,2.48,1.44,5.57,1.44,8.05,0Z" style="fill:#7ecb8a;"/><path d="M163.45,64.59l-1.92-4.44,1.73-.91c-.19-1.11-.2-2.22-.05-3.3l-1.76-.85,1.78-4.5,1.86,.58c.63-.89,1.4-1.69,2.3-2.37l-.64-1.84,4.44-1.92,.91,1.73c1.11-.19,2.22-.2,3.3-.05l.85-1.76,4.5,1.78-.58,1.86c.89,.63,1.69,1.4,2.37,2.3l1.85-.64,1.92,4.44-1.73,.91c.19,1.11,.2,2.22,.05,3.3l1.75,.85-1.78,4.5-1.86-.58c-.63,.89-1.4,1.69-2.3,2.37l.64,1.84-4.45,1.92-.9-1.73c-1.11,.19-2.22,.2-3.3,.05l-.85,1.76-4.5-1.79,.58-1.86c-.89-.63-1.69-1.4-2.37-2.3l-1.84,.64Zm11.09-2.97c.36-.05,.71-.15,1.06-.3,.35-.15,.66-.34,.94-.57,1.19-.94,1.79-2.45,1.56-3.95-.05-.36-.15-.71-.3-1.06-.15-.35-.34-.66-.57-.94-.94-1.19-2.45-1.79-3.95-1.56-.36,.05-.71,.15-1.06,.3-.35,.15-.66,.34-.94,.57-1.19,.94-1.79,2.45-1.56,3.95,.05,.36,.15,.71,.3,1.06,.15,.35,.34,.66,.57,.94,.94,1.19,2.45,1.79,3.95,1.56Z" style="fill:#7fcbcb; opacity:.4;"/></g><g><path d="M314.96,40.59c-1.65,0-2.98-1.34-2.98-2.98s1.34-2.98,2.98-2.98,2.98,1.34,2.98,2.98-1.34,2.98-2.98,2.98Z" style="fill:#80cb92; opacity:.4;"/><path d="M110.38,188.82c-2.56,0-4.64-2.08-4.64-4.65s2.08-4.64,4.64-4.64,4.64,2.08,4.64,4.64-2.08,4.65-4.64,4.65Zm0-7.5c-1.57,0-2.86,1.28-2.86,2.86s1.28,2.86,2.86,2.86,2.86-1.28,2.86-2.86-1.28-2.86-2.86-2.86Z" style="fill:#7fcbcb; opacity:.4;"/><path d="M306.16,48.1v-1.69h1.69c.76,0,1.38-.62,1.38-1.38s-.62-1.38-1.38-1.38h-1.69v-1.69c0-.76-.62-1.38-1.38-1.38s-1.38,.62-1.38,1.38v1.69h-1.69c-.76,0-1.38,.62-1.38,1.38s.62,1.38,1.38,1.38h1.69v1.69c0,.76,.62,1.38,1.38,1.38s1.38-.62,1.38-1.38Z" style="fill:#7fcbcb; opacity:.4;"/><path d="M105.14,172.25c-.82,0-1.49-.67-1.49-1.49s.67-1.49,1.49-1.49,1.49,.67,1.49,1.49-.67,1.49-1.49,1.49Z" style="fill:#80cb92; opacity:.4;"/></g><g><path d="M456.7,262.73c.32,5.57-3.93,10.35-9.5,10.67l-106.71,6.21-9.75,.57-6.55,.38-9.9,.57-15.66,.91-12.96,.75-5.51,.32-12.92,.75-102.34,5.96c-5.57,.32-10.35-3.93-10.67-9.5l-10.86-186.77,302.45-17.63,10.88,186.79Z" style="fill:#4f3cf2;"/><path d="M421.4,254.57l-266.24,26.48c-9.51,.95-17.98-5.99-18.92-15.5l-14.14-142.19c-.95-9.51,5.99-17.98,15.5-18.93l266.24-26.49c9.51-.95,17.98,5.99,18.93,15.5l14.15,142.19c.95,9.51-5.99,17.98-15.5,18.93Z" style="fill:#96c9fd; opacity:.5;"/><g><path d="M445.82,75.96l-302.45,17.62-1.41-24.25c-.13-2.29,1.62-4.26,3.91-4.39l294.15-17.13c2.29-.13,4.26,1.62,4.39,3.91l1.41,24.25Z" style="fill:#d2d2d2;"/><rect x="148.09" y="69.43" width="291.76" height="9.39" transform="translate(-3.81 17.22) rotate(-3.33)" style="fill:#f2f2f2;"/><rect x="147.73" y="69.76" width="4.88" height="4.88" transform="translate(-3.94 8.84) rotate(-3.33)" style="fill:#f7f4ea;"/><rect x="156.39" y="69.25" width="4.88" height="4.88" transform="translate(-3.91 9.37) rotate(-3.34)" style="fill:#f7f4ea;"/><rect x="165.05" y="68.75" width="4.88" height="4.88" transform="translate(-3.86 9.87) rotate(-3.34)" style="fill:#f7f4ea;"/></g><path d="M472.27,209.94l-118.87-6.76c-3.55-.2-6.26-3.24-6.06-6.78l8.89-156.28c.2-3.54,3.24-6.26,6.78-6.05l118.87,6.76c3.55,.2,6.26,3.24,6.06,6.78l-8.89,156.28c-.2,3.54-3.24,6.25-6.78,6.05Z" style="fill:#7fcbcb; opacity:.4;"/><g><rect x="404.01" y="198.5" width="81.01" height="2.01" transform="translate(241.32 642.34) rotate(-89.52)" style="fill:#7ecb8a;"/><rect x="342.27" y="224.63" width="27.28" height="2.01" transform="translate(127.32 579.65) rotate(-89.52)" style="fill:#eff4fc;"/><rect x="371.67" y="210.08" width="57.11" height="2.01" transform="translate(185.81 609.53) rotate(-89.52)" style="fill:#eff4fc;"/><path d="M444.5,221.01h-.13c-11.88-.1-17.59-13.16-23.12-25.8-5.49-12.55-10.68-24.4-21.14-24.49h-.12c-10.39,0-15.75,11.72-21.43,24.14-5.72,12.49-11.63,25.41-23.41,25.41h-.13l.02-2.18h.12c10.39,0,15.75-11.72,21.43-24.14,5.72-12.49,11.63-25.41,23.41-25.41,.05,0,.09,0,.13,0,11.88,.1,17.59,13.16,23.12,25.8,5.49,12.55,10.68,24.41,21.14,24.49h.12c10.39,0,15.75-11.73,21.43-24.14,5.72-12.49,11.63-25.41,23.42-25.41,.05,0,.09,0,.13,0l-.02,2.18h-.12c-10.39,0-15.75,11.72-21.43,24.13-5.72,12.49-11.63,25.41-23.41,25.41Z" style="fill:#f0c459;"/></g><g><rect x="421.95" y="143.96" width="8.72" height="17.45" transform="translate(602.91 -264.29) rotate(93.25)" style="fill:#bcecc8;"/><rect x="391.12" y="142.2" width="8.72" height="17.45" transform="translate(568.59 -235.36) rotate(93.25)" style="fill:#bcecc8;"/><rect x="360.29" y="140.45" width="8.72" height="17.45" transform="translate(534.26 -206.44) rotate(93.25)" style="fill:#bcecc8;"/></g><g><path d="M165.02,104.31h130.58c4.81,0,8.71,3.9,8.71,8.71V243.59c0,4.8-3.9,8.7-8.7,8.7H165.02c-4.8,0-8.7-3.9-8.7-8.7V113.01c0-4.8,3.9-8.7,8.7-8.7Z" transform="translate(-5.37 7.16) rotate(-1.76)" style="fill:#96c9fd; opacity:.5;"/><path d="M176.3,193.69c-1.9,0-3.5-1.23-3.62-2.82l-1.11-15.73c-.12-1.65,1.41-3.07,3.41-3.17l112.44-5.42c1.99-.08,3.71,1.17,3.83,2.82l1.11,15.73c.12,1.65-1.41,3.07-3.41,3.17l-112.44,5.42c-.07,0-.14,0-.21,0Zm111.34-25.68s-.07,0-.11,0l-112.44,5.42c-1.02,.05-1.81,.78-1.75,1.62l1.11,15.73c.06,.85,.94,1.5,1.96,1.44l112.44-5.42c1.02-.05,1.81-.78,1.75-1.62l-1.11-15.73c-.06-.82-.88-1.45-1.85-1.45Z" style="fill:#bfcdfd;"/><path d="M276.54,183.68l-93.12-1.52c-1.25-.02-2.25-1.05-2.23-2.3l.26-15.75c.02-1.25,1.05-2.25,2.3-2.23l93.12,1.52c1.25,.02,2.25,1.05,2.23,2.3l-.26,15.75c-.02,1.25-1.05,2.25-2.3,2.23Z" style="fill:#f5f3ff;"/><path d="M178.17,220.4c-.89,0-1.74-.26-2.4-.76-.72-.53-1.15-1.27-1.21-2.06l-1.11-15.73c-.06-.8,.27-1.57,.91-2.17,.64-.6,1.53-.95,2.5-1l112.44-5.42c1.97-.08,3.71,1.17,3.83,2.82l1.11,15.73c.12,1.65-1.41,3.07-3.41,3.17l-112.44,5.42c-.07,0-.14,0-.22,0Zm111.21-25.67s-.07,0-.11,0l-112.94,5.42c-.5,.02-.96,.21-1.29,.51-.33,.31-.5,.7-.47,1.11l1.11,15.73c.06,.85,.96,1.48,1.97,1.45l112.94-5.42c1.03-.05,1.81-.78,1.75-1.62l-1.11-15.73c-.06-.82-.88-1.45-1.86-1.45Z" style="fill:#bfcdfd;"/><path d="M180.06,247.1c-.89,0-1.74-.26-2.4-.76-.72-.53-1.15-1.27-1.21-2.06l-1.11-15.73c-.06-.8,.27-1.57,.91-2.17,.64-.6,1.53-.95,2.5-1l112.44-5.42c.99-.05,1.9,.22,2.62,.75,.72,.53,1.15,1.27,1.21,2.06l1.11,15.73c.12,1.65-1.41,3.07-3.41,3.17l-112.44,5.42c-.07,0-.14,0-.22,0Zm111.34-25.67s-.07,0-.11,0l-112.44,5.42c-.5,.02-.95,.21-1.28,.51-.33,.31-.5,.7-.47,1.11l1.11,15.73c.06,.85,.95,1.49,1.96,1.45l112.44-5.42c1.02-.05,1.81-.78,1.75-1.62l-1.11-15.73c-.03-.41-.25-.78-.62-1.06-.34-.25-.78-.39-1.23-.39Z" style="fill:#bfcdfd;"/><g style="opacity:.6;"><rect x="186.28" y="165.67" width="39.25" height="2.3" transform="translate(2.74 -3.33) rotate(.93)" style="fill:#96c9fd;"/><rect x="186.22" y="169.76" width="39.25" height="2.3" transform="translate(2.81 -3.33) rotate(.93)" style="fill:#96c9fd;"/><rect x="186.15" y="173.68" width="17.4" height="2.3" transform="translate(2.87 -3.15) rotate(.93)" style="fill:#96c9fd;"/></g><rect x="249.06" y="166.46" width="10.61" height="10.61" transform="translate(2.83 -4.12) rotate(.93)" style="fill:#96c9fd; opacity:.6;"/><rect x="261.41" y="166.66" width="10.61" height="10.61" transform="translate(2.84 -4.32) rotate(.93)" style="fill:#96c9fd; opacity:.6;"/><rect x="184.33" y="203.62" width="39.64" height="3.1" transform="translate(-11.58 12.22) rotate(-3.33)" style="fill:#96c9fd; opacity:.5;"/><rect x="184.66" y="209.5" width="26.69" height="3.1" transform="translate(-11.95 11.88) rotate(-3.34)" style="fill:#96c9fd; opacity:.5;"/><rect x="214.41" y="208.35" width="6.66" height="3.1" transform="translate(-11.82 13) rotate(-3.33)" style="fill:#96c9fd; opacity:.5;"/><rect x="185.9" y="231.02" width="15.83" height="3.1" transform="translate(-13.19 11.65) rotate(-3.33)" style="fill:#96c9fd; opacity:.5;"/><rect x="204.65" y="229.93" width="15.83" height="3.1" transform="translate(-13.09 12.74) rotate(-3.33)" style="fill:#96c9fd; opacity:.5;"/><rect x="186.22" y="236.2" width="26.69" height="3.1" transform="translate(-13.5 12.02) rotate(-3.34)" style="fill:#96c9fd; opacity:.5;"/><rect x="215.95" y="234.48" width="26.29" height="3.1" transform="translate(-13.34 13.72) rotate(-3.33)" style="fill:#96c9fd; opacity:.5;"/></g><g><g><path d="M410.66,136.22c15.39,7.17,34.2,4.99,47.67-7.02,6.5-5.8,10.86-13.1,13.02-20.92l-21-5.87c-2.71,9.75-11.93,16.64-22.43,16.04-2.88-.16-5.59-.87-8.04-2.02l-9.22,19.78Z" style="fill:#f0c459;"/><path d="M396.49,125.68c.32,.36,.66,.71,1,1.05l15.78-15.05c-4.04-4.25-6.39-10.09-6.03-16.43,.69-12.12,11.06-21.38,23.18-20.69,8.63,.49,15.82,5.9,18.98,13.35l20.08-8.53c-1.81-4.3-4.36-8.39-7.63-12.05-16.1-18.04-43.8-19.62-61.84-3.52-18.05,16.11-19.62,43.82-3.52,61.86Z" style="fill:#eff4fc;"/><path d="M451.12,97.75c-.09,1.62-.36,3.18-.77,4.66l21,5.87c2.65-9.45,2.07-19.67-1.87-28.88l-20.08,8.53c1.29,3,1.92,6.34,1.72,9.83Z" style="fill:#7ecb8a;"/><path d="M397.48,126.74c3.86,4.07,8.35,7.24,13.18,9.48l9.22-19.78c-2.51-1.15-4.74-2.78-6.62-4.75l-15.78,15.05Z" style="fill:#d2d8fd;"/></g><g><path d="M366.52,66.23c2.83-.95,6.07-.19,8.18,2.17,1.02,1.14,1.64,2.5,1.86,3.91l-3.78,.61c-.28-1.76-1.75-3.14-3.6-3.25-.51-.03-.99,.04-1.44,.19l-1.22-3.64Z" style="fill:#eff4fc;"/><path d="M363.84,67.79c.06-.06,.13-.11,.19-.16l2.46,2.94c-.79,.66-1.32,1.63-1.38,2.75-.12,2.13,1.5,3.95,3.63,4.07,1.52,.09,2.88-.72,3.58-1.95l3.34,1.89c-.4,.71-.93,1.38-1.57,1.95-3.17,2.83-8.04,2.55-10.87-.62-2.83-3.17-2.55-8.04,.62-10.87Z" style="fill:#f0c459;"/><path d="M372.82,73.76c.02-.28,0-.56-.04-.83l3.78-.61c.27,1.7-.03,3.48-.9,5.01l-3.34-1.89c.28-.5,.46-1.07,.5-1.68Z" style="fill:#f0c459;"/><path d="M364.03,67.63c.75-.63,1.6-1.1,2.49-1.39l1.22,3.64c-.46,.15-.88,.39-1.25,.7l-2.46-2.94Z" style="fill:#7ecb8a;"/></g><g><path d="M373.21,123.49c-1.33,2.67-4.16,4.43-7.33,4.25-1.53-.09-2.93-.61-4.08-1.45l2.25-3.1c1.44,1.04,3.46,.98,4.84-.25,.38-.34,.67-.73,.89-1.16l3.43,1.71Z" style="fill:#7ecb8a;"/><path d="M374,120.49c0,.08-.01,.17-.02,.25l-3.82-.34c.09-1.03-.22-2.09-.97-2.92-1.42-1.59-3.86-1.73-5.45-.31-1.13,1.01-1.53,2.54-1.15,3.91l-3.7,1.02c-.22-.79-.32-1.63-.27-2.49,.24-4.24,3.88-7.49,8.12-7.25,4.25,.24,7.49,3.88,7.25,8.12Z" style="fill:#d2d8fd;"/><path d="M363.43,122.63c.19,.21,.4,.4,.62,.56l-2.25,3.1c-1.4-1.01-2.44-2.48-2.9-4.18l3.7-1.02c.15,.55,.43,1.08,.84,1.54Z" style="fill:#eff4fc;"/><path d="M373.98,120.75c-.09,.98-.36,1.91-.78,2.75l-3.43-1.71c.22-.43,.35-.9,.39-1.38l3.82,.34Z" style="fill:#f0c459;"/></g><g><path d="M364.2,103.68c-2.67-1.33-4.43-4.16-4.25-7.32,.09-1.53,.61-2.93,1.45-4.08l3.1,2.25c-1.05,1.44-.98,3.46,.25,4.84,.34,.38,.73,.67,1.16,.89l-1.71,3.43Z" style="fill:#d2d8fd;"/><path d="M367.2,104.48c-.08,0-.17-.01-.25-.02l.34-3.82c1.03,.09,2.09-.23,2.92-.97,1.59-1.42,1.73-3.86,.31-5.45-1.01-1.13-2.54-1.53-3.91-1.15l-1.02-3.69c.79-.22,1.63-.32,2.49-.27,4.24,.24,7.49,3.88,7.25,8.12-.24,4.25-3.88,7.49-8.12,7.25Z" style="fill:#7ecb8a;"/><path d="M365.07,93.91c-.21,.19-.4,.4-.56,.62l-3.1-2.25c1.01-1.4,2.48-2.44,4.18-2.9l1.02,3.69c-.55,.15-1.08,.43-1.54,.84Z" style="fill:#f0c459;"/><path d="M366.95,104.46c-.98-.09-1.91-.36-2.75-.78l1.71-3.43c.43,.22,.9,.35,1.38,.39l-.34,3.82Z" style="fill:#eff4fc;"/></g></g></g><g><path d="M439.85,267.29l-11.4,28.21c-.62,1.53-2.35,2.27-3.88,1.65l-38.66-15.61c-1.53-.62-2.27-2.36-1.65-3.88l11.4-28.21c.62-1.53,2.35-2.27,3.88-1.65l38.66,15.61c1.53,.62,2.27,2.35,1.65,3.88Z" style="fill:#acb0b5; mix-blend-mode:multiply; opacity:.5;"/><path d="M441.9,264.02l-9.87,28.78c-.53,1.56-2.23,2.39-3.79,1.85l-39.44-13.52c-1.56-.54-2.39-2.23-1.85-3.79l9.87-28.78c.53-1.56,2.23-2.39,3.79-1.85l39.44,13.52c1.56,.54,2.39,2.23,1.85,3.79Z" style="fill:#cbd2da; mix-blend-mode:multiply; opacity:.5;"/><path d="M444.9,259.58l-8.02,29.35c-.43,1.59-2.07,2.53-3.66,2.09l-40.22-10.98c-1.59-.44-2.53-2.07-2.09-3.66l8.02-29.35c.43-1.59,2.07-2.53,3.66-2.09l40.22,10.98c1.59,.44,2.53,2.07,2.09,3.66Z" style="fill:#eff4fc;"/><path d="M444.9,259.58l-1.78,6.51-45.98-12.56,1.78-6.51c.43-1.59,2.07-2.53,3.66-2.09l40.22,10.98c1.59,.44,2.53,2.07,2.09,3.66Z" style="fill:#7ecb8a;"/><rect x="396.01" y="259.78" width="47.66" height="2.2" transform="translate(83.55 -101.39) rotate(15.27)" style="fill:#fff;"/><path d="M412.98,251.52c-.52,1.9-2.48,3.02-4.38,2.5-1.9-.52-3.02-2.48-2.5-4.38,.52-1.9,2.48-3.02,4.38-2.5,1.9,.52,3.02,2.48,2.5,4.38Z" style="fill:#629f69;"/><path d="M437.39,258.19c-.52,1.9-2.48,3.02-4.38,2.5-1.9-.52-3.02-2.48-2.5-4.38,.52-1.9,2.48-3.02,4.38-2.5s3.02,2.48,2.5,4.38Z" style="fill:#629f69;"/><g><path d="M409.54,253.02c-.21,0-.43-.03-.64-.09-1.3-.35-2.07-1.7-1.71-3l1.39-5.1c.35-1.3,1.7-2.08,3-1.71,1.3,.35,2.07,1.7,1.71,3l-1.39,5.1c-.3,1.09-1.28,1.8-2.35,1.8Z" style="fill:#f0c459;"/><path d="M433.95,259.69c-.21,0-.43-.03-.65-.09-1.3-.35-2.07-1.7-1.71-3l1.39-5.1c.35-1.3,1.69-2.07,3-1.71,1.3,.35,2.07,1.7,1.71,3l-1.39,5.1c-.3,1.09-1.28,1.8-2.35,1.8Z" style="fill:#f0c459;"/></g><rect x="400.28" y="261.29" width="4.64" height="3.94" transform="translate(83.56 -96.75) rotate(15.27)" style="fill:#a1ecaf;"/><rect x="431.17" y="269.73" width="4.64" height="3.94" transform="translate(86.91 -104.62) rotate(15.28)" style="fill:#a1ecaf;"/><rect x="423.45" y="267.62" width="4.64" height="3.94" transform="translate(86.04 -102.63) rotate(15.27)" style="fill:#a1ecaf;"/><rect x="415.72" y="265.51" width="4.64" height="3.94" transform="translate(85.21 -100.67) rotate(15.27)" style="fill:#a1ecaf;"/><rect x="408" y="263.4" width="4.64" height="3.94" transform="translate(84.39 -98.71) rotate(15.27)" style="fill:#a1ecaf;"/><rect x="398.59" y="267.46" width="4.64" height="3.94" transform="translate(85.12 -96.08) rotate(15.27)" style="fill:#a1ecaf;"/><rect x="429.48" y="275.9" width="4.64" height="3.94" transform="translate(88.44 -103.92) rotate(15.27)" style="fill:#a1ecaf;"/><rect x="421.76" y="273.79" width="4.64" height="3.94" transform="translate(87.61 -101.96) rotate(15.27)" style="fill:#a1ecaf;"/><rect x="414.04" y="271.68" width="4.64" height="3.94" transform="translate(86.82 -100.04) rotate(15.28)" style="fill:#a1ecaf;"/><rect x="406.31" y="269.57" width="4.64" height="3.94" transform="translate(85.95 -98.04) rotate(15.27)" style="fill:#a1ecaf;"/><rect x="396.9" y="273.63" width="4.64" height="3.94" transform="translate(86.73 -95.45) rotate(15.28)" style="fill:#a1ecaf;"/><rect x="427.8" y="282.07" width="4.64" height="3.94" transform="translate(90 -103.26) rotate(15.27)" style="fill:#a1ecaf;"/><rect x="420.07" y="279.96" width="4.64" height="3.94" transform="translate(89.21 -101.33) rotate(15.28)" style="fill:#a1ecaf;"/><rect x="412.35" y="277.85" width="4.64" height="3.94" transform="translate(88.35 -99.34) rotate(15.27)" style="fill:#a1ecaf;"/><rect x="404.63" y="275.74" width="4.64" height="3.94" transform="translate(87.52 -97.38) rotate(15.27)" style="fill:#a1ecaf;"/></g><g><path d="M123,249.37l3.66,18.82c.3,1.56,1.79,2.56,3.35,2.26l39.27-7.63c1.56-.3,2.56-1.79,2.26-3.35l-3.66-18.82c-.3-1.56-1.8-2.58-3.36-2.28l-39.27,7.63c-1.56,.3-2.56,1.81-2.26,3.37Z" style="fill:#f0c459;"/><path d="M122.99,249.36l.2,1.02,21.43,8.28c2.3,.89,4.9,.38,6.7-1.3l16.75-15.7-.2-1c-.3-1.56-1.81-2.58-3.37-2.27l-39.25,7.63c-1.55,.3-2.56,1.8-2.26,3.35Z" style="fill:#f7e0ac;"/><path d="M121.35,271.35c.75,3.88,4.51,6.41,8.38,5.66,3.88-.75,6.41-4.51,5.65-8.38-.75-3.88-4.51-6.41-8.38-5.66-3.88,.75-6.41,4.51-5.65,8.38Z" style="fill:#7ecb8a;"/></g><g><path d="M223.59,300.48l-11.69,11.69-11.69-11.69c-6.45-6.45-6.45-16.92,0-23.37,6.45-6.45,16.92-6.45,23.37,0,6.46,6.46,6.45,16.92,0,23.37Z" style="fill:#7ecb8a;"/><path d="M215.91,292.8c-2.21,2.21-5.8,2.21-8.01,0s-2.21-5.8,0-8.01c2.21-2.21,5.8-2.21,8.01,0,2.21,2.21,2.21,5.8,0,8.01Z" style="fill:#2cb849;"/></g><text transform="translate(167.06 157.78) rotate(-3.35)" style="fill:#fafafa; font-family:SegoeUIVariable-BoldSmall, SegoeUIVariable BoldSmall; font-size:60.36px; letter-spacing:.13em;"><tspan x="0" y="0">SEO</tspan></text></g><path d="M218.51,131.53c-8.84-7.87-20.23-11.83-32.07-11.14-11.82,.69-22.67,5.95-30.56,14.79-3.93,4.42-6.83,9.43-8.68,14.71-2,5.61-2.8,11.52-2.46,17.36,.34,5.86,1.83,11.64,4.46,16.98,1.85,3.8,4.27,7.35,7.24,10.57l-4.12,4.63-.96-.83-1.25,1.29,.97,16.73,8.64-10.58-.96-.86,4.14-4.63c8.53,6.21,18.72,9.01,28.7,8.43,11.34-.66,22.45-5.65,30.56-14.79,7.89-8.86,11.85-20.26,11.16-32.07-.69-11.84-5.95-22.69-14.81-30.58Zm-5.14,54.83c-11.94,13.42-32.57,14.62-46.01,2.68-13.42-11.94-14.62-32.59-2.68-46.01,5.79-6.51,13.77-10.38,22.45-10.88,8.7-.51,17.06,2.42,23.56,8.2,6.5,5.79,10.38,13.75,10.88,22.45,.5,8.68-2.42,17.06-8.2,23.56Z" style="fill:#475e80; mix-blend-mode:multiply; opacity:.25;"/><g><rect x="134.56" y="166.72" width="8.64" height="15.76" transform="translate(126.55 397.35) rotate(-138.33)" style="fill:#3f484d;"/><path d="M99.47,218.87h0c3.24,2.88,8.23,2.49,10.97-.87l29.95-36.69-8.37-7.44-32.97,34.01c-3.02,3.11-2.83,8.12,.41,11Z" style="fill:#676771;"/><path d="M131.28,142.21c1.24,21.22,19.43,37.41,40.65,36.17,9.13-.53,17.34-4.22,23.61-9.92,2.22-1.99,4.21-4.26,5.91-6.74,1.02-1.5,1.97-3.09,2.79-4.76,2.43-4.91,3.83-10.42,3.94-16.21,.01-.99,0-2.01-.06-3.02-1.24-21.22-19.46-37.43-40.67-36.19-1.01,.06-2.04,.17-3.03,.3-5.74,.78-11.02,2.81-15.62,5.79-1.57,1.01-3.04,2.14-4.41,3.32-2.27,1.97-4.29,4.21-6.01,6.65-4.93,6.9-7.64,15.48-7.11,24.6Z" style="fill:#c8e4f1; opacity:.6;"/><path d="M148.81,107.63l55.43,49.33c2.43-4.91,3.83-10.42,3.94-16.21l-43.76-38.92c-5.74,.78-11.02,2.81-15.62,5.79Z" style="fill:#eafbff; opacity:.3;"/><path d="M138.39,117.61l57.15,50.86c2.22-1.99,4.21-4.26,5.91-6.74l-57.05-50.77c-2.27,1.97-4.29,4.21-6.01,6.65Z" style="fill:#eafbff; opacity:.3;"/><path d="M169.67,184.32c-10.5,0-21.03-3.69-29.47-11.2-18.28-16.27-19.91-44.37-3.65-62.65,7.88-8.85,18.74-14.11,30.57-14.8,11.85-.69,23.23,3.27,32.08,11.15,8.85,7.88,14.11,18.73,14.8,30.57,.69,11.83-3.27,23.23-11.15,32.08-8.75,9.84-20.94,14.85-33.17,14.85Zm.07-76.95c-.64,0-1.29,.02-1.94,.06-8.69,.51-16.66,4.37-22.45,10.87-5.79,6.5-8.7,14.87-8.19,23.56,.51,8.69,4.37,16.66,10.87,22.45,13.42,11.95,34.07,10.74,46.01-2.68,5.79-6.5,8.7-14.87,8.19-23.56-.51-8.69-4.37-16.66-10.87-22.45-6.02-5.36-13.63-8.25-21.62-8.25Z" style="fill:#475e80;"/></g></g></g></svg>