<?xml version="1.0" encoding="UTF-8"?><svg id="Layer_1" xmlns="http://www.w3.org/2000/svg" xmlns:xlink="http://www.w3.org/1999/xlink" viewBox="0 0 68 68"><defs><linearGradient id="linear-gradient" x1="10.32" y1="17.27" x2="55.67" y2="62.62" gradientUnits="userSpaceOnUse"><stop offset="0" stop-color="#478eec"/><stop offset="1" stop-color="#2a20bc"/></linearGradient><linearGradient id="linear-gradient-2" x1="48.76" y1="14.71" x2="54.69" y2="20.65" xlink:href="#linear-gradient"/></defs><path d="M10.93,66.48c-.5,0-.9-.4-.9-.9v-1.3H2.14c-.5,0-.9-.4-.9-.9v-15.4c0-.5,.4-.9,.9-.9h7.9v-1.3c0-.5,.4-.9,.9-.9h8.8c.5,0,.9,.4,.9,.9v2.15l2.6-.65v-13.8h-3.5c-.14,0-.28-.03-.4-.1-.44-.22-.62-.77-.4-1.21l4.4-8.8c.15-.3,.46-.49,.79-.49h1.31s0-2.48,0-2.48c0-.98-.41-1.92-1.14-2.58-1.11-.99-1.99-2.23-2.55-3.61-2.01-4.96,.39-10.62,5.35-12.63,.11-.05,.22-.07,.34-.07,.5,0,.9,.41,.9,.9v7.67l2.4,1.61,2.4-1.61V2.43c0-.12,.02-.24,.07-.35,.14-.34,.47-.56,.83-.56,.12,0,.23,.02,.34,.07,1.38,.56,2.62,1.44,3.61,2.55,3.55,4,3.19,10.14-.81,13.69-.73,.66-1.15,1.6-1.14,2.58v2.48h6.62l1.5-1.5h-2.42c-.5,0-.9-.4-.9-.9v-4.4c0-.5,.4-.9,.9-.9h2.42l-1.72-1.71c-.35-.35-.35-.93,0-1.28l3.11-3.11c.17-.17,.4-.26,.64-.26s.47,.09,.64,.26l1.7,1.72v-2.42c0-.5,.4-.9,.9-.9h4.4c.5,0,.9,.4,.9,.9v2.42l1.71-1.72c.17-.17,.4-.26,.64-.26s.47,.09,.64,.26l3.11,3.11c.35,.35,.35,.93,0,1.28l-1.72,1.7h2.42c.5,0,.9,.4,.9,.9v4.4c0,.5-.4,.9-.9,.9h-2.42l1.5,1.5h.92c.34,0,.65,.19,.8,.49l4.4,8.8c.06,.13,.1,.27,.1,.4,0,.5-.4,.9-.9,.9h-3.5v12.4h.18c1.38,.12,2.62,.9,3.31,2.1,1.15,2,.47,4.57-1.54,5.73l-18.48,10.67c-1.13,.66-2.42,1.01-3.73,1.01H25.69c-1.16,0-2.32-.28-3.35-.79l-1.71-.85v1.84c0,.5-.4,.9-.9,.9H10.93Zm.9-1.8h7v-18h-7v18Zm16.64-16.68c-.47,0-.93,.06-1.39,.17l-6.45,1.61v11.94l2.51,1.25c.79,.4,1.67,.6,2.55,.6h16.47c1,0,1.99-.26,2.85-.76l18.48-10.67c1.14-.67,1.53-2.14,.87-3.28-.44-.73-1.24-1.18-2.09-1.18-.41,0-.82,.11-1.18,.31l-11.19,6.45v.13c.05,.48,.01,.96-.11,1.42-.28,1.07-1,2-1.96,2.55-.63,.37-1.35,.57-2.08,.57h0c-.38,0-.74-.05-1.1-.15l-13.12-3.51c-.23-.06-.43-.21-.55-.42s-.15-.45-.09-.69c.11-.39,.46-.67,.87-.67,.08,0,.16,.01,.24,.03l13.12,3.52c.2,.06,.41,.08,.62,.08,.42,0,.83-.11,1.19-.33,.56-.31,.97-.85,1.13-1.48,.33-1.28-.44-2.58-1.71-2.91l-16.41-4.4c-.48-.13-.98-.19-1.47-.19ZM3.04,62.48h7v-13.6H3.04v13.6ZM43.73,28.45v21.58l3.1,.82c.97,.27,1.81,.87,2.37,1.71l.1,.16,10.88-6.29,.44-.21v-12.73h-13.4c-.34,0-.65-.19-.8-.49l-2.32-4.63-.38,.09Zm-15.26,17.75c.66,0,1.31,.09,1.94,.26l11.51,3.08V28.45l-.38-.09-2.32,4.63c-.15,.3-.46,.5-.79,.5h-13.41s0,13.35,0,13.35l1.62-.4c.59-.15,1.21-.23,1.82-.23Zm19.31-14.52h16.68l-3.5-7h-16.68l3.5,7Zm-26.59,0h16.68l3.5-7H24.69l-3.5,7Zm21.44-12.1h2.79c.4,0,.75,.26,.86,.64,.05,.17,.12,.33,.2,.48,.18,.35,.12,.77-.16,1.05l-1.14,1.12h12.9l-1.14-1.12c-.28-.28-.34-.7-.16-1.05,.08-.15,.15-.32,.2-.48,.12-.38,.47-.64,.87-.64h2.78v-2.6h-2.78c-.4,0-.75-.26-.86-.64-.05-.17-.12-.33-.2-.49-.18-.35-.12-.77,.16-1.05l1.98-1.97-1.85-1.85-1.97,1.98c-.17,.17-.4,.26-.64,.26-.14,0-.29-.04-.42-.1-.15-.08-.32-.15-.48-.2-.38-.12-.64-.47-.64-.87v-2.78h-2.6v2.78c0,.4-.26,.75-.64,.86-.17,.05-.33,.12-.49,.2-.13,.07-.27,.1-.42,.1-.24,0-.47-.09-.64-.26l-1.97-1.98-1.84,1.85,1.98,1.97c.28,.28,.34,.7,.16,1.05-.08,.15-.15,.32-.2,.49-.12,.38-.47,.64-.87,.64h-2.78v2.6Zm-11.9-1.1c.5,0,.9,.4,.9,.9v3.5h2.6v-2.48c0-1.5,.63-2.94,1.76-3.93,.46-.41,.87-.88,1.23-1.38,2.49-3.57,1.6-8.51-1.97-11l-.31-.22v6.71c0,.3-.15,.58-.41,.75l-3.3,2.2c-.15,.1-.32,.16-.49,.16s-.35-.05-.49-.15l-3.3-2.2c-.25-.17-.41-.45-.41-.75V3.88l-.31,.22c-2.12,1.48-3.39,3.9-3.39,6.49,0,2.25,.96,4.4,2.65,5.89,1.12,1,1.75,2.43,1.75,3.93v2.48h2.6v-3.5c0-.5,.4-.9,.9-.9Z" style="fill:url(#linear-gradient);"/><path d="M51.72,21.88c-2.32,0-4.2-1.88-4.2-4.2s1.88-4.2,4.2-4.2,4.2,1.88,4.2,4.2-1.88,4.2-4.2,4.2Zm0-6.6c-1.32,0-2.4,1.08-2.4,2.4s1.08,2.4,2.4,2.4,2.4-1.08,2.4-2.4-1.08-2.4-2.4-2.4Z" style="fill:url(#linear-gradient-2);"/></svg>