<?xml version="1.0" encoding="UTF-8"?><svg id="Layer_1" xmlns="http://www.w3.org/2000/svg" xmlns:xlink="http://www.w3.org/1999/xlink" viewBox="0 0 68 68"><defs><linearGradient id="linear-gradient" x1="7.23" y1="19.64" x2="58.17" y2="78.09" gradientUnits="userSpaceOnUse"><stop offset="0" stop-color="#478eec"/><stop offset="1" stop-color="#2a20bc"/></linearGradient><linearGradient id="linear-gradient-2" x1="18.26" y1=".96" x2="69.2" y2="59.41" xlink:href="#linear-gradient"/></defs><path d="M61.65,64.78h-.65v-29.63c0-.54-.44-.98-.98-.98s-.98,.44-.98,.98v29.63h-9.81V27.82c0-.18,.15-.33,.33-.33h9.16c.18,0,.33,.15,.33,.33v3.4c0,.54,.44,.98,.98,.98s.98-.44,.98-.98v-3.4c0-1.26-1.03-2.29-2.29-2.29h-9.16c-1.26,0-2.29,1.03-2.29,2.29v36.96h-1.35v-25.18c0-1.26-1.03-2.29-2.29-2.29h-9.16c-1.26,0-2.29,1.03-2.29,2.29v25.18h-1.35v-31.72c0-1.26-1.03-2.29-2.29-2.29h-9.16c-1.26,0-2.29,1.03-2.29,2.29v31.72h-1.35v-14.72c0-1.26-1.03-2.29-2.29-2.29H4.29c-1.26,0-2.29,1.03-2.29,2.29v12.69c0,.54,.44,.98,.98,.98s.98-.44,.98-.98v-12.69c0-.18,.15-.33,.33-.33H13.44c.18,0,.33,.15,.33,.33v14.72H1.34c-.54,0-.98,.44-.98,.98s.44,.98,.98,.98H61.65c.54,0,.98-.44,.98-.98s-.44-.98-.98-.98Zm-42.61,0v-31.72c0-.18,.15-.33,.33-.33h9.16c.18,0,.33,.15,.33,.33v31.72h-9.81Zm15.09,0v-25.18c0-.18,.15-.33,.33-.33h9.16c.18,0,.33,.15,.33,.33v25.18h-9.81Z" style="fill:url(#linear-gradient);"/><path d="M66.98,5.43l-3.31-1c-.49-.15-1.01,.13-1.16,.62s.13,1.01,.62,1.16l1.33,.41-8.01,4.73c-.16-.15-.34-.28-.53-.38-.54-.31-1.15-.47-1.78-.47-1.98,0-3.6,1.61-3.6,3.6,0,.6,.15,1.18,.44,1.72l-9.33,7.58c-1.37-1.44-3.64-1.49-5.08-.14-.1,.1-.19,.2-.29,.31l-8.73-4.18v-.05c0-1.98-1.61-3.6-3.6-3.6s-3.6,1.6-3.6,3.6c0,.62,.16,1.24,.47,1.78l-10.63,11.89c-1.85-.74-3.95,.16-4.68,2.01s.16,3.95,2.01,4.68c1.85,.74,3.94-.16,4.68-2.01,.46-1.15,.3-2.48-.45-3.48l10.48-11.72c1.65,.91,3.72,.37,4.74-1.21l8.5,4.08c-.28,1.97,1.08,3.8,3.05,4.08,1.96,.29,3.79-1.08,4.08-3.04,.05-.41,.04-.82-.03-1.22l9.77-7.95c1.72,.98,3.92,.38,4.91-1.34,.52-.92,.6-1.96,.29-2.89l7.7-4.53-.26,1.09c-.12,.5,.2,1.01,.7,1.13,.06,.01,.14,.02,.21,.02,.43,0,.8-.29,.91-.73l.8-3.41c.11-.48-.17-.96-.64-1.11ZM8.86,37.95c-.91,0-1.63-.73-1.63-1.63s.73-1.63,1.63-1.63,1.63,.74,1.63,1.63-.73,1.63-1.63,1.63Zm15.09-17c-.91,0-1.63-.74-1.63-1.64s.73-1.63,1.63-1.63,1.63,.74,1.63,1.63-.73,1.63-1.63,1.64Zm15.09,6.54c-.91,0-1.63-.74-1.63-1.64s.73-1.63,1.63-1.63,1.63,.74,1.63,1.63-.73,1.63-1.63,1.64Zm15.09-11.78c-.91,0-1.63-.73-1.63-1.63s.73-1.63,1.63-1.63,1.63,.73,1.63,1.63-.73,1.63-1.63,1.63Z" style="fill:url(#linear-gradient-2);"/></svg>