<?xml version="1.0" encoding="UTF-8"?><svg xmlns="http://www.w3.org/2000/svg" viewBox="0 0 600 350"><g id="a"/><g id="b"/><g id="c"/><g id="d"/><g id="e"/><g id="f"/><g id="g"/><g id="h"/><g id="i"/><g id="j"><path d="M131.27,194.46c-10.95,14-25.04,26.39-30.48,43.31-6.11,19.02,.5,40.66,13.77,55.61,13.26,14.94,32.29,23.81,51.78,28.23,19.49,4.42,39.63,4.75,59.61,5.05l170.23,2.64c13.85,.21,27.96,.39,41.23-3.6,13.26-4,25.79-12.92,30.57-25.92,7.17-19.47-4.43-40.16-10.84-59.9-8.3-25.56-7.78-53.9,1.47-79.13,4.62-12.6,11.33-24.45,14.71-37.44,3.38-12.99,2.84-28.03-5.81-38.29-9.57-11.33-26.25-13.7-40.97-11.89-21.92,2.7-42.82,13.07-58.22,28.89-5.41,5.56-11.56,12.34-19.26,11.38-7.14-.89-11.5-8-15.26-14.13-14.88-24.31-36.43-44.49-61.66-57.76-24.48-12.87-54.16-19.09-79.93-9.03-28.93,11.29-40.87,38.79-34.51,67.28,7.15,32-6.76,69.58-26.42,94.71Z" style="fill:#e5eaf6;"/><ellipse cx="298.47" cy="300.03" rx="86.15" ry="7.83" style="fill:#9ab9d6;"/><g><g><rect x="246.63" y="69.36" width="121.02" height="234.38" rx="18.38" ry="18.38" style="fill:#28323d;"/><rect x="251.39" y="75.15" width="111.32" height="220.26" rx="14.3" ry="14.3" style="fill:#c0d1ff;"/><path d="M284.75,73.65h43.57v2.11c0,2.97-2.41,5.38-5.38,5.38h-32.82c-2.97,0-5.38-2.41-5.38-5.38v-2.11h0Z" style="fill:#28323d;"/></g><rect x="257.37" y="106.72" width="99.06" height="74.91" style="fill:#fff;"/><rect x="257.01" y="210.31" width="99.06" height="74.91" style="fill:#fff;"/><rect x="257.61" y="187.78" width="85.53" height="4.51" style="fill:#fff;"/><rect x="257.61" y="195.29" width="52.85" height="4.58" style="fill:#fff;"/><rect x="260.19" y="289.94" width="85.53" height="4.51" style="fill:#fff;"/><g><rect x="342.75" y="86.14" width="11.75" height="1.96" style="fill:#477dfa;"/><rect x="342.75" y="89.98" width="11.75" height="1.96" style="fill:#477dfa;"/><rect x="342.75" y="93.82" width="11.75" height="1.96" style="fill:#477dfa;"/></g><g><circle cx="265.1" cy="91.34" r="6.87" style="fill:#fff;"/><g><circle cx="265.1" cy="88.83" r="1.81" style="fill:#477dfa;"/><path d="M268.42,94.29c0,1.84-6.65,1.84-6.65,0s1.49-3.32,3.32-3.32,3.32,1.49,3.32,3.32Z" style="fill:#477dfa;"/></g></g></g><g><rect x="475.24" y="28.06" width="48.66" height="48.66" rx="12.73" ry="12.73" transform="translate(551.97 -447.18) rotate(90)" style="fill:#477dfa;"/><path d="M513.01,44.06c-.84,.38-1.77,.61-2.68,.77,.43-.07,1.07-.85,1.32-1.17,.39-.48,.71-1.03,.89-1.62,.02-.05,.04-.1,0-.14-.06-.02-.1-.01-.14,.01-1.01,.54-2.06,.94-3.18,1.22-.09,.02-.16,0-.22-.06-.09-.1-.18-.2-.28-.28-.47-.4-.97-.71-1.54-.94-.75-.3-1.56-.43-2.36-.38-.78,.05-1.55,.27-2.24,.63-.7,.36-1.32,.87-1.81,1.48-.51,.63-.89,1.37-1.08,2.16-.19,.76-.17,1.51-.06,2.28,.02,.13,0,.14-.11,.13-4.37-.65-7.99-2.21-10.93-5.56-.13-.15-.2-.15-.3,.01-1.29,1.93-.66,5.03,.94,6.55,.21,.2,.43,.41,.67,.59-.09,.02-1.16-.1-2.11-.59-.13-.08-.19-.03-.2,.11-.01,.21,0,.4,.03,.63,.25,1.95,1.6,3.76,3.46,4.47,.22,.09,.46,.17,.7,.21-.42,.09-.86,.16-2.07,.06-.15-.03-.21,.05-.15,.19,.91,2.48,2.88,3.22,4.35,3.64,.2,.03,.39,.03,.59,.08-.01,.02-.02,.02-.04,.03-.49,.74-2.18,1.3-2.97,1.57-1.43,.5-2.99,.73-4.51,.58-.24-.04-.29-.03-.36,0-.07,.04,0,.1,.07,.16,.31,.2,.62,.38,.94,.56,.96,.51,1.97,.92,3.01,1.21,5.42,1.5,11.52,.4,15.59-3.64,3.19-3.17,4.31-7.55,4.31-11.93,0-.17,.2-.27,.32-.36,.83-.62,1.5-1.37,2.12-2.21,.14-.19,.14-.35,.14-.42v-.02c0-.07,0-.05-.11,0Z" style="fill:#fff;"/></g><g><rect x="95.81" y="67.49" width="48.87" height="48.87" rx="12.78" ry="12.78" transform="translate(212.17 -28.32) rotate(90)" style="fill:#e8505b;"/><g><path d="M127.83,82.72c-.93,0-1.68,.75-1.68,1.68s.75,1.68,1.68,1.68,1.68-.75,1.68-1.68-.75-1.68-1.68-1.68Z" style="fill:#fff;"/><path d="M120.36,84.87c-3.89,0-7.06,3.16-7.06,7.06s3.17,7.06,7.06,7.06,7.06-3.17,7.06-7.06-3.17-7.06-7.06-7.06Zm0,11.57c-2.49,0-4.52-2.03-4.52-4.52s2.03-4.52,4.52-4.52,4.52,2.03,4.52,4.52-2.03,4.52-4.52,4.52Z" style="fill:#fff;"/><path d="M125.96,106.25h-11.44c-4.75,0-8.61-3.86-8.61-8.61v-11.44c0-4.75,3.86-8.61,8.61-8.61h11.44c4.75,0,8.61,3.86,8.61,8.61v11.44c0,4.75-3.86,8.61-8.61,8.61Zm-11.44-25.95c-3.26,0-5.91,2.65-5.91,5.91v11.44c0,3.26,2.65,5.91,5.91,5.91h11.44c3.26,0,5.91-2.65,5.91-5.91v-11.44c0-3.26-2.65-5.91-5.91-5.91h-11.44Z" style="fill:#fff;"/></g></g><g><rect x="410.22" y="126.56" width="50.81" height="50.81" rx="13.29" ry="13.29" transform="translate(587.58 -283.66) rotate(90)" style="fill:#ff3324;"/><path d="M449.22,148.27c0-3.37-2.73-6.1-6.1-6.1h-15.6c-3.37,0-6.1,2.73-6.1,6.1v7.26c0,3.37,2.73,6.1,6.1,6.1h15.6c3.37,0,6.1-2.73,6.1-6.1v-7.26Zm-9.17,4.17l-6.99,3.46c-.27,.15-1.21-.05-1.21-.36v-7.1c0-.32,.94-.51,1.21-.36l6.7,3.64c.28,.16,.58,.57,.29,.72Z" style="fill:#fff;"/></g><g><rect x="362.71" y="225.58" width="29.24" height="29.24" rx="7.65" ry="7.65" transform="translate(617.53 -137.13) rotate(90)" style="fill:#477dfa;"/><path d="M371.2,237.48h2.83v9.1h-2.83v-9.1Zm1.42-4.52c.91,0,1.64,.73,1.64,1.64s-.73,1.64-1.64,1.64-1.64-.74-1.64-1.64,.73-1.64,1.64-1.64" style="fill:#fff;"/><path d="M375.81,237.48h2.71v1.24h.04c.38-.72,1.3-1.47,2.68-1.47,2.86,0,3.39,1.88,3.39,4.33v4.99h-2.83v-4.42c0-1.06-.02-2.41-1.47-2.41s-1.7,1.15-1.7,2.34v4.5h-2.83v-9.1Z" style="fill:#fff;"/></g><g><polygon points="287.83 132.41 256.89 181.66 319.27 181.66 287.83 132.41" style="fill:#9ab9d6;"/><polygon points="316.27 145.44 289.85 181.66 348.18 181.66 316.27 145.44" style="fill:#9ab9d6;"/><circle cx="337.18" cy="124.02" r="8.78" style="fill:#9ab9d6;"/></g><g><polygon points="291.83 236.17 260.9 285.42 323.27 285.42 291.83 236.17" style="fill:#9ab9d6;"/><polygon points="320.27 249.2 293.86 285.42 352.18 285.42 320.27 249.2" style="fill:#9ab9d6;"/><circle cx="341.18" cy="227.77" r="8.78" style="fill:#9ab9d6;"/></g><g><path d="M207.78,217.9v-13.12c0-3.96,3.24-7.2,7.2-7.2h13.12c3.96,0,7.2,3.24,7.2,7.2v13.12c0,3.96-3.24,7.2-7.2,7.2h-4.41l-2.31-.56-1.99,.56h-4.41c-3.96,0-7.2-3.24-7.2-7.2Z" style="fill:#477dfa;"/><path d="M226.89,215.77l.61-3.98h-3.82v-2.58c0-1.09,.53-2.15,2.24-2.15h1.73v-3.39s-1.57-.27-3.08-.27c-3.14,0-5.2,1.9-5.2,5.35v3.03h-3.49v3.98h3.49v9.33h4.3v-9.33h3.21Z" style="fill:#fff;"/></g></g></svg>