<?xml version="1.0" encoding="UTF-8"?><svg xmlns="http://www.w3.org/2000/svg" xmlns:xlink="http://www.w3.org/1999/xlink" viewBox="0 0 600 350"><defs><style>.bp{fill:#676771;}.bq{fill:url(#t);}.br{stroke:url(#ab);}.br,.bs,.bt,.bu,.bv,.bw,.bx{fill:none;stroke-width:.9px;}.br,.bs,.bt,.bu,.bv,.bx{stroke-miterlimit:10;}.by{fill:url(#bf);}.by,.c`,.ca,.cb,.cc{mix-blend-mode:multiply;}.by,.cd,.ce{opacity:.5;}.c`{fill:url(#bg);}.cf{fill:#fff;}.cg{fill:#4456dc;}.ch{fill:url(#r);}.ci{fill:url(#ai);}.bs{stroke:url(#x);}.cj{fill:#283451;}.ck{fill:url(#l);}.bt{stroke:url(#y);}.cl{opacity:.6;}.cm{fill:url(#af);}.cn{fill:url(#u);}.co{fill:url(#ah);}.cp{isolation:isolate;}.cq{fill:url(#b`);}.cr{fill:url(#v);}.cs{fill:url(#av);}.ct{fill:#2cb849;}.cu{fill:url(#aq);}.cu,.ce,.cv,.cw,.cx{mix-blend-mode:screen;}.cu,.cv,.cw{opacity:.3;}.cy{fill:url(#as);}.d`{fill:url(#m);}.da{fill:url(#bh);}.db{fill:url(#aw);}.dc{fill:url(#bm);}.dd{fill:#e8505b;}.de{fill:url(#ba);}.df{fill:url(#bj);}.dg{fill:url(#bd);}.dh{fill:url(#ae);}.ca{fill:url(#be);}.di{fill:url(#bi);}.dj{fill:url(#bo);}.dk{fill:url(#p);}.dl{fill:#dcefff;}.dm{fill:url(#bb);}.dn{fill:url(#ad);}.do{fill:url(#ak);}.dp{fill:url(#au);}.bu{stroke:url(#w);}.ce{fill:url(#bc);}.bv{stroke:url(#aa);}.cb{fill:url(#bl);}.bw{opacity:.35;stroke:#fff;stroke-dasharray:0 0 3.59 2.69;stroke-linecap:round;stroke-linejoin:round;}.dq{fill:url(#aj);}.dr{fill:url(#ar);}.bx{stroke:url(#a`);}.cv{fill:url(#ap);}.ds{fill:url(#am);}.dt{fill:#df9142;}.du{fill:url(#at);}.dv{fill:url(#s);}.dw{fill:url(#bn);}.dx{fill:url(#n);}.cw{fill:url(#ao);}.dy{fill:url(#ac);}.cc{fill:url(#bk);}.cx{fill:#4ab634;}.e`{fill:url(#al);}.ea{fill:url(#o);}.eb{fill:#e89c24;}.ec{fill:#c7d0e3;}.ed{fill:url(#an);}.ee{fill:url(#ax);}.ef{fill:url(#q);}.eg{fill:url(#ag);}.eh{fill:url(#ay);}.ei{fill:url(#k);}.ej{fill:#f8fcff;}.ek{fill:#f2f2f2;}.el{fill:#263238;}</style><linearGradient id="k" x1="290.13" y1="19.31" x2="306.19" y2="35.37" gradientTransform="matrix(1, 0, 0, 1, 0, 0)" gradientUnits="userSpaceOnUse"><stop offset="0" stop-color="#fff"/><stop offset="1" stop-color="#dee1fa"/></linearGradient><linearGradient id="l" x1="295.84" y1="13.6" x2="311.9" y2="29.66" xlink:href="#k"/><linearGradient id="m" x1="292.99" y1="16.45" x2="309.05" y2="32.51" xlink:href="#k"/><linearGradient id="n" x1="200.76" y1="98.23" x2="200.76" y2="235.57" xlink:href="#k"/><linearGradient id="o" x1="399.84" y1="97.92" x2="399.84" y2="187.8" xlink:href="#k"/><linearGradient id="p" x1="344.7" y1="208.61" x2="344.7" y2="270.5" xlink:href="#k"/><linearGradient id="q" x1="374.97" y1="97.41" x2="438.94" y2="142.08" gradientTransform="matrix(1, 0, 0, 1, 0, 0)" gradientUnits="userSpaceOnUse"><stop offset="0" stop-color="#64aef9"/><stop offset="1" stop-color="#508cfa"/></linearGradient><linearGradient id="r" x1="362.09" y1="115.84" x2="426.07" y2="160.51" xlink:href="#q"/><linearGradient id="s" x1="214.87" y1="197.1" x2="228.17" y2="221.76" xlink:href="#k"/><linearGradient id="t" x1="208.78" y1="200.39" x2="222.09" y2="225.04" xlink:href="#k"/><linearGradient id="u" x1="205.54" y1="135.1" x2="191.43" y2="62.53" gradientTransform="matrix(1, 0, 0, 1, 0, 0)" gradientUnits="userSpaceOnUse"><stop offset="0" stop-color="#3f47b4"/><stop offset="1" stop-color="#6ba3fb"/></linearGradient><linearGradient id="v" x1="126.2" y1="66.84" x2="645.19" y2="260.79" gradientTransform="matrix(1, 0, 0, 1, 0, 0)" gradientUnits="userSpaceOnUse"><stop offset="0" stop-color="#7ec6f2"/><stop offset="1" stop-color="#98d2fc"/></linearGradient><linearGradient id="w" x1="195.53" y1="143.03" x2="192.84" y2="129.18" gradientTransform="matrix(1, 0, 0, 1, 0, 0)" gradientUnits="userSpaceOnUse"><stop offset="0" stop-color="#81bbfc"/><stop offset="1" stop-color="#6ba3fb"/></linearGradient><linearGradient id="x" x1="249.85" y1="143.03" x2="247.16" y2="129.18" gradientTransform="translate(455.83) rotate(-180) scale(1 -1)" xlink:href="#w"/><linearGradient id="y" x1="182.39" y1="160.91" x2="179.7" y2="147.06" xlink:href="#w"/><linearGradient id="a`" x1="262.99" y1="160.91" x2="260.3" y2="147.06" gradientTransform="translate(455.83) rotate(-180) scale(1 -1)" xlink:href="#w"/><linearGradient id="aa" x1="208.67" y1="160.91" x2="205.98" y2="147.06" xlink:href="#w"/><linearGradient id="ab" x1="236.71" y1="160.91" x2="234.02" y2="147.06" gradientTransform="translate(455.83) rotate(-180) scale(1 -1)" xlink:href="#w"/><linearGradient id="ac" x1="203.29" y1="139.74" x2="196.93" y2="107.07" xlink:href="#w"/><linearGradient id="ad" x1="190.15" y1="157.51" x2="183.79" y2="124.84" xlink:href="#w"/><linearGradient id="ae" x1="216.43" y1="157.51" x2="210.07" y2="124.84" xlink:href="#w"/><linearGradient id="af" x1="177.01" y1="175.28" x2="170.65" y2="142.61" xlink:href="#w"/><linearGradient id="ag" x1="203.29" y1="175.28" x2="196.93" y2="142.61" xlink:href="#w"/><linearGradient id="ah" x1="229.57" y1="175.28" x2="223.21" y2="142.61" xlink:href="#w"/><linearGradient id="ai" x1="281.26" y1="114.25" x2="281.26" y2="156.47" gradientTransform="matrix(1, 0, 0, 1, 0, 0)" gradientUnits="userSpaceOnUse"><stop offset="0" stop-color="#3f47b4"/><stop offset="1" stop-color="#171d6d"/></linearGradient><linearGradient id="aj" x1="306.11" y1="114.25" x2="306.11" y2="156.47" xlink:href="#ai"/><linearGradient id="ak" x1="329.6" y1="114.25" x2="329.6" y2="156.47" xlink:href="#ai"/><linearGradient id="al" x1="427.62" y1="281.75" x2="494.32" y2="281.75" gradientTransform="matrix(1, 0, 0, 1, 0, 0)" gradientUnits="userSpaceOnUse"><stop offset="0" stop-color="#4250b5"/><stop offset="1" stop-color="#171d6d"/></linearGradient><linearGradient id="am" y1="302.03" y2="302.03" xlink:href="#al"/><linearGradient id="an" y1="322.32" y2="322.32" xlink:href="#al"/><linearGradient id="ao" x1="436.01" y1="281.75" x2="460.52" y2="281.75" xlink:href="#ai"/><linearGradient id="ap" x1="436.01" y1="302.03" x2="460.52" y2="302.03" xlink:href="#ai"/><linearGradient id="aq" x1="436.01" y1="321.32" x2="460.52" y2="321.32" xlink:href="#ai"/><linearGradient id="ar" x1="394.3" y1="328.29" x2="413.97" y2="328.29" gradientTransform="matrix(1, 0, 0, 1, 0, 0)" gradientUnits="userSpaceOnUse"><stop offset="0" stop-color="#312e83"/><stop offset=".16" stop-color="#282673"/><stop offset="1" stop-color="#000026"/></linearGradient><linearGradient id="as" x1="356.9" y1="328.28" x2="376.73" y2="328.28" xlink:href="#ar"/><linearGradient id="at" x1="377.72" y1="159.49" x2="395.62" y2="159.49" gradientTransform="matrix(1, 0, 0, 1, 0, 0)" gradientUnits="userSpaceOnUse"><stop offset="0" stop-color="#eec19a"/><stop offset="1" stop-color="#d5a18b"/></linearGradient><linearGradient id="au" x1="377.72" y1="147.58" x2="395.62" y2="147.58" xlink:href="#at"/><linearGradient id="av" x1="373.65" y1="144.7" x2="398.97" y2="144.7" xlink:href="#ai"/><linearGradient id="aw" x1="377.72" y1="149.09" x2="395.62" y2="149.09" xlink:href="#at"/><linearGradient id="ax" x1="379.45" y1="191.72" x2="415.53" y2="191.72" xlink:href="#at"/><linearGradient id="ay" x1="379.45" y1="201.48" x2="415.53" y2="201.48" xlink:href="#at"/><linearGradient id="b`" x1="375.89" y1="209" x2="393.29" y2="209" xlink:href="#ar"/><linearGradient id="ba" x1="375.89" y1="193.31" x2="393.29" y2="193.31" xlink:href="#ar"/><linearGradient id="bb" x1="331.3" y1="193.31" x2="383.43" y2="193.31" gradientTransform="matrix(1, 0, 0, 1, 0, 0)" gradientUnits="userSpaceOnUse"><stop offset="0" stop-color="#64aef9"/><stop offset=".16" stop-color="#5b9ef9"/><stop offset="1" stop-color="#2e51fa"/></linearGradient><linearGradient id="bc" x1="332.69" y1="181.34" x2="375.79" y2="202.01" xlink:href="#bb"/><linearGradient id="bd" x1="351.3" y1="207.9" x2="363.14" y2="207.9" xlink:href="#at"/><linearGradient id="be" x1="388.96" y1="246.12" x2="390.76" y2="246.12" gradientTransform="matrix(1, 0, 0, 1, 0, 0)" gradientUnits="userSpaceOnUse"><stop offset="0" stop-color="#28165b"/><stop offset="1" stop-color="#39167f"/></linearGradient><linearGradient id="bf" x1="400.99" y1="192.29" x2="400.99" y2="180.1" xlink:href="#u"/><linearGradient id="bg" x1="154.5" y1="246.12" x2="140.75" y2="246.12" xlink:href="#be"/><linearGradient id="bh" x1="165.45" y1="146.16" x2="149.66" y2="146.16" xlink:href="#at"/><linearGradient id="bi" x1="165.45" y1="157.18" x2="149.66" y2="157.18" xlink:href="#at"/><linearGradient id="bj" x1="124.65" y1="196.01" x2="138.17" y2="196.01" xlink:href="#at"/><linearGradient id="bk" x1="138.44" y1="182.54" x2="126.49" y2="182.54" xlink:href="#q"/><linearGradient id="bl" x1="168.61" y1="186.39" x2="150.93" y2="186.39" xlink:href="#q"/><linearGradient id="bm" x1="170.93" y1="179.19" x2="203.51" y2="179.19" xlink:href="#at"/><linearGradient id="bn" x1="171.33" y1="144.12" x2="151.66" y2="144.12" xlink:href="#ai"/><linearGradient id="bo" x1="5.97" y1="333.08" x2="592.49" y2="333.08" gradientTransform="matrix(1, 0, 0, 1, 0, 0)" gradientUnits="userSpaceOnUse"><stop offset="0" stop-color="#312e83"/><stop offset=".05" stop-color="#2e2b7e"/><stop offset="1" stop-color="#000031"/></linearGradient></defs><g style="isolation:isolate;"><g id="a"/><g id="b"/><g id="c"/><g id="d"/><g id="e"/><g id="f"/><g id="g"/><g id="h"/><g id="i"/><g id="j"><g><path d="M45.13,332.71s-51.63-73.18,14.82-124.81c56.69-44.06,95.74-10.04,181.93-68.05,86.19-58,150.29-109.43,250.86-71.25,57.27,21.75,80.76,75.69,83.06,124.68,3.31,70.73-33.22,139.43-33.22,139.43H45.13Z" style="fill:#f2f2f2;"/><g><g><circle cx="82.67" cy="144.24" r="19.77" style="fill:#e8505b;"/><path d="M79.38,136.59l11.25,6.5c.89,.51,.89,1.8,0,2.32l-11.25,6.5c-.89,.51-2.01-.13-2.01-1.16v-13c0-1.03,1.11-1.67,2.01-1.16Z" style="fill:#fff;"/></g><g><rect x="280.12" y="11.71" width="40.5" height="24.24" rx="5.11" ry="5.11" style="fill:#4456dc;"/><g><path d="M294.68,30.04c-.23,0-.46-.09-.63-.26l-5.34-5.34c-.17-.17-.26-.4-.26-.63s.09-.47,.26-.63l5.29-5.29c.35-.35,.92-.35,1.27,0s.35,.92,0,1.27l-4.66,4.66,4.7,4.7c.35,.35,.35,.92,0,1.27-.18,.18-.41,.26-.63,.26Z" style="fill:url(#k);"/><path d="M306.06,30.04c-.23,0-.46-.09-.63-.26-.35-.35-.35-.92,0-1.27l4.7-4.7-4.66-4.66c-.35-.35-.35-.92,0-1.27s.92-.35,1.27,0l5.29,5.29c.17,.17,.26,.4,.26,.63s-.09,.47-.26,.63l-5.34,5.34c-.18,.18-.41,.26-.63,.26Z" style="fill:url(#l);"/><path d="M297.89,30.04c-.13,0-.26-.03-.38-.08-.45-.21-.64-.74-.43-1.19l4.96-10.63c.21-.45,.74-.64,1.19-.43,.45,.21,.64,.74,.43,1.19l-4.96,10.63c-.15,.33-.48,.52-.81,.52Z" style="fill:url(#m);"/></g></g><g><path d="M544.02,162.17c0,18.22-14.77,32.98-32.99,32.98s-32.98-14.76-32.98-32.98,14.77-32.98,32.98-32.98c11.17,0,21.04,5.54,26.99,14.04,3.79,5.36,6,11.9,6,18.94Z" style="fill:#2cb849;"/><path d="M538.02,143.23l-26.99,18.94v-32.98c11.17,0,21.04,5.54,26.99,14.04Z" style="fill:#4ab634; mix-blend-mode:screen;"/></g></g><g><g><path d="M446.49,81.71v181.99c0,10.64-8.63,19.27-19.27,19.27H171.25c-10.64,0-19.27-8.63-19.27-19.27V81.71c0-10.64,8.63-19.26,19.27-19.26h255.97c10.64,0,19.27,8.62,19.27,19.26Z" style="fill:#c7d0e3;"/><path d="M446.49,81.71v9.01H151.98v-9.01c0-10.64,8.63-19.26,19.27-19.26h255.97c10.64,0,19.27,8.62,19.27,19.26Z" style="fill:#283451;"/><g><circle cx="392.17" cy="77.18" r="4.04" style="fill:#f8fcff;"/><circle cx="409.67" cy="77.18" r="4.04" style="fill:#2cb849;"/><circle cx="427.18" cy="77.18" r="4.04" style="fill:#e8505b;"/></g></g><g><path d="M241.88,109.71v107.1c0,6.83-5.54,12.37-12.37,12.37h-57.5c-6.83,0-12.36-5.54-12.36-12.37V109.71c0-6.83,5.53-12.37,12.36-12.37h57.5c6.83,0,12.37,5.54,12.37,12.37Z" style="fill:url(#n);"/><rect x="361.41" y="97.33" width="76.86" height="86.28" rx="12.37" ry="12.37" style="fill:url(#o);"/><rect x="251.13" y="208.21" width="187.14" height="59.41" rx="10.88" ry="10.88" style="fill:url(#p);"/></g><g style="opacity:.5;"><path d="M424.84,106.36h-50c-2.59,0-4.68,2.1-4.68,4.68v7.47c0,2.59,2.1,4.68,4.68,4.68h35.77c.85,0,1.53,.69,1.53,1.53v3.54c0,.81,.99,1.22,1.56,.65l4.53-4.53c.77-.77,1.8-1.2,2.89-1.2h3.72c2.59,0,4.68-2.1,4.68-4.68v-7.47c0-2.59-2.1-4.68-4.68-4.68Z" style="fill:url(#q);"/><path d="M424.84,133.78h-50c-2.59,0-4.68,2.1-4.68,4.68v7.47c0,2.59,2.1,4.68,4.68,4.68h35.77c.85,0,1.53,.69,1.53,1.53v3.54c0,.81,.99,1.22,1.56,.65l4.53-4.53c.77-.77,1.8-1.2,2.89-1.2h3.72c2.59,0,4.68-2.1,4.68-4.68v-7.47c0-2.59-2.1-4.68-4.68-4.68Z" style="fill:url(#r);"/></g><g><rect x="194.18" y="185.02" width="51.77" height="48.21" rx="10.93" ry="10.93" style="fill:#e89c24;"/><g><path d="M229.56,205.64c0-5.57-4.52-10.09-10.09-10.09-.37,0-.75,.02-1.13,.06-4.62,.5-8.37,4.25-8.89,8.87-.34,3.05,.68,5.85,2.53,7.9h-.01s2.66,3.07,3.24,5.26c.12,.45,.49,.77,.95,.77h6.62c.46,0,.84-.33,.95-.77,.59-2.2,3.24-5.26,3.24-5.26h-.01c1.61-1.79,2.59-4.14,2.59-6.74Zm-3.42,6.21c-.51,.6-2.77,3.38-3.35,5.53,0,.03-.02,.05-.01,.05h-2.82v-10.88h2.62c.27,0,.49-.22,.49-.49s-.22-.49-.49-.49h-6.1c-.27,0-.49,.22-.49,.49s.22,.49,.49,.49h2.51v10.88h-2.8s-.02-.02-.03-.05c-.58-2.16-2.84-4.92-3.35-5.53-.03-.05-.06-.09-.1-.13-1.77-1.97-2.58-4.5-2.28-7.13,.47-4.19,3.85-7.55,8.03-8.01,.34-.04,.69-.06,1.03-.06,5.02,0,9.11,4.09,9.11,9.11,0,2.24-.83,4.4-2.34,6.08-.04,.04-.07,.08-.1,.13Z" style="fill:url(#s);"/><path d="M223.35,219.23h-7.75c-.14,0-.26,.11-.26,.25,0,.98,.24,4.47,4.14,4.47s4.15-3.49,4.14-4.47c0-.14-.12-.25-.26-.25Z" style="fill:url(#t);"/></g></g><path d="M241.88,109.71v2.79h-82.24v-2.79c0-6.83,5.53-12.37,12.36-12.37h57.5c6.83,0,12.37,5.54,12.37,12.37Z" style="fill:url(#u);"/><path d="M233.11,105.66c0,1.68-1.36,3.04-3.04,3.04s-3.04-1.36-3.04-3.04,1.36-3.04,3.04-3.04,3.04,1.36,3.04,3.04Z" style="fill:url(#v);"/><g style="opacity:.6;"><g><polyline points="200.75 127.73 200.75 135.1 187.61 135.1 187.61 144.48" style="fill:none; stroke:url(#w); stroke-miterlimit:10; stroke-width:.9px;"/><polyline points="200.75 127.73 200.75 135.1 213.89 135.1 213.89 144.48" style="fill:none; stroke:url(#x); stroke-miterlimit:10; stroke-width:.9px;"/><polyline points="187.61 145.61 187.61 152.98 174.47 152.98 174.47 162.36" style="fill:none; stroke:url(#y); stroke-miterlimit:10; stroke-width:.9px;"/><polyline points="187.61 145.61 187.61 152.98 200.75 152.98 200.75 162.36" style="fill:none; stroke:url(#a`); stroke-miterlimit:10; stroke-width:.9px;"/><polyline points="213.89 145.61 213.89 152.98 200.75 152.98 200.75 162.36" style="fill:none; stroke:url(#aa); stroke-miterlimit:10; stroke-width:.9px;"/><polyline points="213.89 145.61 213.89 152.98 227.03 152.98 227.03 162.36" style="fill:none; stroke:url(#ab); stroke-miterlimit:10; stroke-width:.9px;"/></g><g><rect x="190.45" y="121.99" width="20.61" height="9.44" rx="1.13" ry="1.13" style="fill:url(#ac);"/><g><rect x="177.31" y="139.76" width="20.61" height="9.44" rx="1.13" ry="1.13" style="fill:url(#ad);"/><rect x="203.59" y="139.76" width="20.61" height="9.44" rx="1.13" ry="1.13" style="fill:url(#ae);"/></g><g><rect x="164.17" y="157.54" width="20.61" height="9.44" rx="1.13" ry="1.13" style="fill:url(#af);"/><rect x="190.45" y="157.54" width="20.61" height="9.44" rx="1.13" ry="1.13" style="fill:url(#ag);"/><rect x="216.73" y="157.54" width="20.61" height="9.44" rx="1.13" ry="1.13" style="fill:url(#ah);"/></g></g></g><g><path d="M281.82,159.89c-4.05,0-6.97-1.01-8.76-3.03-1.79-2.02-2.68-5.23-2.68-9.63v-4.34h8.77v5.55c0,1.03,.16,1.83,.47,2.41,.31,.58,.85,.87,1.63,.87s1.37-.24,1.68-.71c.31-.47,.47-1.24,.47-2.32,0-1.36-.13-2.5-.4-3.42-.27-.92-.74-1.79-1.4-2.62-.66-.83-1.58-1.8-2.76-2.91l-3.98-3.78c-2.98-2.81-4.46-6.02-4.46-9.63s.88-6.66,2.63-8.65c1.76-1.98,4.3-2.98,7.63-2.98,4.07,0,6.95,1.08,8.66,3.25,1.71,2.17,2.56,5.46,2.56,9.88h-9.03v-3.05c0-.61-.17-1.08-.52-1.41-.34-.34-.81-.5-1.4-.5-.71,0-1.22,.2-1.55,.59-.33,.39-.49,.9-.49,1.52s.17,1.3,.5,2.02c.34,.72,1,1.55,1.99,2.5l5.12,4.92c1.03,.98,1.97,2,2.82,3.09,.86,1.08,1.55,2.34,2.07,3.78s.78,3.19,.78,5.26c0,4.17-.77,7.43-2.31,9.8-1.54,2.36-4.22,3.54-8.03,3.54Z" style="fill:url(#ai);"/><path d="M314.72,164.2l-7.06-4.64c-.81,.22-1.64,.33-2.5,.33-3.46,0-6.11-1.03-7.93-3.08-1.82-2.05-2.74-5.04-2.74-8.98v-21.46c0-3.82,.94-6.71,2.81-8.7,1.87-1.98,4.58-2.98,8.13-2.98s6.26,.99,8.13,2.98c1.87,1.98,2.81,4.88,2.81,8.7v21.46c0,3.66-.82,6.55-2.47,8.65l3.81,2.42-3,5.29Zm-9.28-12.48c.64,0,1.1-.24,1.37-.71,.28-.47,.45-1.05,.53-1.74s.11-1.35,.11-1.99v-20.75c0-.94-.13-1.79-.39-2.53-.26-.75-.82-1.12-1.68-1.12s-1.45,.37-1.72,1.1c-.27,.73-.4,1.58-.4,2.53v20.95c0,.59,.04,1.21,.11,1.88,.08,.66,.26,1.23,.57,1.69,.3,.46,.8,.69,1.49,.69Z" style="fill:url(#aj);"/><path d="M320.6,159.48v-44.37h8.87v36.81h9.13v7.56h-18Z" style="fill:url(#ak);"/></g><path d="M496.11,222.3v24.91c0,2.67-2.16,4.83-4.83,4.83h-35.36" style="fill:none; opacity:.35; stroke:#fff; stroke-dasharray:0 0 3.59 2.69; stroke-linecap:round; stroke-linejoin:round; stroke-width:.9px;"/></g><g><rect x="427.26" y="272.16" width="65.85" height="19.18" rx="1.2" ry="1.2" style="fill:url(#al);"/><rect x="427.26" y="292.45" width="65.85" height="19.18" rx="1.2" ry="1.2" style="fill:url(#am);"/><rect x="427.26" y="312.73" width="65.85" height="19.18" rx="1.2" ry="1.2" style="fill:url(#an);"/><rect x="438.93" y="272.16" width="15.49" height="19.18" style="fill:url(#ao); mix-blend-mode:screen; opacity:.3;"/><rect x="438.93" y="292.45" width="15.49" height="19.18" style="fill:url(#ap); mix-blend-mode:screen; opacity:.3;"/><rect x="438.93" y="311.73" width="15.49" height="19.18" style="fill:url(#aq); mix-blend-mode:screen; opacity:.3;"/><g><circle cx="437.23" cy="281.75" r="4.21" style="fill:#dcefff;"/><path d="M449.26,281.75c0,1.04-.85,1.89-1.89,1.89s-1.89-.85-1.89-1.89,.85-1.89,1.89-1.89,1.89,.85,1.89,1.89Z" style="fill:#dcefff;"/><g><circle cx="460.18" cy="281.75" r="1.46" style="fill:#dcefff;"/><path d="M487.53,283.21h-21.29c-.81,0-1.46-.65-1.46-1.46h0c0-.81,.65-1.46,1.46-1.46h21.29c.81,0,1.46,.65,1.46,1.46h0c0,.81-.65,1.46-1.46,1.46Z" style="fill:#dcefff;"/></g></g><g><circle cx="437.23" cy="302.03" r="4.21" style="fill:#dcefff;"/><path d="M449.26,302.03c0,1.04-.85,1.89-1.89,1.89s-1.89-.85-1.89-1.89,.85-1.89,1.89-1.89,1.89,.85,1.89,1.89Z" style="fill:#dcefff;"/><g><circle cx="460.18" cy="302.03" r="1.46" style="fill:#dcefff;"/><rect x="464.78" y="300.57" width="24.21" height="2.92" rx="1.46" ry="1.46" style="fill:#dcefff;"/></g></g><g><circle cx="437.23" cy="321.32" r="4.21" style="fill:#dcefff;"/><path d="M449.26,321.32c0,1.04-.85,1.89-1.89,1.89s-1.89-.85-1.89-1.89,.85-1.89,1.89-1.89,1.89,.85,1.89,1.89Z" style="fill:#dcefff;"/><g><circle cx="460.18" cy="321.32" r="1.46" style="fill:#dcefff;"/><path d="M487.53,322.78h-21.29c-.81,0-1.46-.65-1.46-1.46h0c0-.81,.65-1.46,1.46-1.46h21.29c.81,0,1.46,.65,1.46,1.46h0c0,.81-.65,1.46-1.46,1.46Z" style="fill:#dcefff;"/></g></g></g><g><path d="M394.32,331.92h19.06s1.67-3.05-.64-7.26c0,0-3.45,0-7.74,.39,0,0-.91,1.29-2.24,1.93-1.33,.64-8.96,2.14-8.45,4.94Z" style="fill:url(#ar);"/><path d="M393.01,235.96l-1.4,11.45c-.22,.75-.5,1.73-.84,2.88h0c-.51,1.71-1.13,3.79-1.8,5.98h0c-2.25,7.41-4.98,16.17-5.25,16.94,2.02,8.69-.75,17.93-2.99,27.39-1.44,6.09-4.11,18.79-5.13,24.69-1.25,.14-3.89,.23-7.52-.67,.15-14.49,.4-44.28,.81-51.29,.02-.42-.06-16.79,.84-27.83,1.57-19.2,3.74-27,3.74-27,0,0,2.15,1.13,8.13,.88,1.92-.08,7.37-.22,9.84-.31l1.57,16.88Z" style="fill:#283451;"/><path d="M395.65,278.18c1.23,7.35,6.91,32.2,9.35,46.88,4.46,.38,6.61-.13,7.74-.39-.22-5.12-.66-17.37-.61-22.74,.08-9.08,.51-21.04-3.48-27.61,.96-7.71,2.88-20.81,3.27-28.57,.25-5.5,1.62-17.59-4.96-27.25,0,0-10.43,.72-17.72,1.17l.84,16.72v8.03c.82,9.91,4.82,29.28,5.36,32.65,.06,.4,.14,.76,.21,1.11Z" style="fill:#283451;"/><path d="M356.93,331.92h19.06s1.91-2.42-.4-6.62c0,0-2.93,.16-7.53-.67,0,0-1.37,1.72-2.69,2.36-1.33,.64-8.96,2.14-8.45,4.94Z" style="fill:url(#as);"/><path d="M376.61,191.82c-.69-.16-1.35-.34-1.98-.53-6.48-1.9-10.02-4.6-10.02-4.6,1.66-7.23,3.67-12.09,5.46-15.3,.04-.08,.09-.15,.13-.23s.09-.16,.14-.24c.96-1.6,2.73-4.3,4.27-5.4,.16-.11,1.21,1.01,1.37,.9l-.64,11.77,1.26,13.64Z" style="fill:#df9142;"/><path d="M407.54,215.09c.22,1.83,.67,2.68,.67,3.41,0,.51-.65,1.04-.91,1.18-2.79,1.61-15.55,1.84-21,1.84-4.84,0-12.12-.77-13.03-1.99-.84-1.12-.07-2.74,.33-4.99,1.78-10.12,1.15-15.4,1.04-22.71,0-.19,0-.37,0-.55-.19-11.28-.93-20.93-.4-24.4,.16-.11,.22-1.28,.4-1.37,4.15-2.06,9.93-3.14,10.39-3.24,.02,0,.03,0,.03,0,1.39-.09,2.92-.12,4.57-.07,2.8,.08,7.36,.76,11.4,1.87h.04c.4,.14,3.03,1.12,5.76,4.05,.91,.97,1.85,2.16,2.69,3.61-.19,4.54-1.17,12.69-1.72,19.75-.09,1.06-1.2,15.75-.25,23.62Z" style="fill:#df9142;"/><g><path d="M387.28,168.7c-5.06-.61-2.79-5.77-2.25-6.45h0s.8-.09,.97-.22c.16-.12,.23-5.4,.3-5.66l3.86-1.99,5.34-4.2s-1.32,6.64-1.08,11.44c.02,.47,.38,1.13,1.24,1.26,1.3,.61-.52,6.76-8.39,5.82Z" style="fill:url(#at);"/><path d="M377.97,142.98s-.12,15.21,4.02,16.52c0,0,6.5,.61,10.29-4.48,1.09-1.47,2.47-1.8,2.92-3.57,.73-2.88,1.76-8.19,.45-11.39-1.87-4.56-17.5-8.17-17.68,2.92Z" style="fill:url(#au);"/><path d="M395.7,137.53c.09-2.42-1.9-3.27-1.9-3.27-1.76-1.29-14.37-2.86-19.55,.74-1.19,.83-.26,4.02-.26,4.02,2.32,7.02,10.85,4.74,13.42,3.87,.61,1.81,.53,4.32,2.05,5.62,.87,.74,2.37,.76,3.9,.5,.19,.36,.9,.67,1.04,1.17,.48,1.64,.2,4.44,.18,6.43l.94-.59c.09-.54,7.58-18.27,.17-18.5Z" style="fill:url(#av);"/><path d="M391.85,152.25c2.94,1.13,3.86-6.12,1.07-6.44-2.12-.24-2.21,2.71-2.21,2.71,0,0-.54,3.08,1.14,3.73Z" style="fill:url(#aw);"/></g><path d="M417.9,202.61h0c-1.29,1.51-6.2,2.6-8.57,.53-.74-.66-1.58-2.4-2.4-4.57-2.09-5.53-4.08-13.8-4.08-13.8l10.99-5.62s1.41,6.34,2.63,12.36c0,0,.01,.06,.03,.17,.4,1.93,.77,3.83,1.06,5.46,.01,.05,.02,.08,.02,.13,.29,1.94,.48,3.97,.32,5.34Z" style="fill:url(#ax);"/><path d="M398.7,177.07c1.06,4.41,4.4,12.78,4.4,12.78,2.34,.39,5.98-.1,8.52-1.18,3.04-1.31,4.27-2.93,4.27-2.93,0,0-1.8-6.42-3.79-10.89-1.78-4.01-3.2-6.14-3.97-6.94-1.16-1.22-4.95-3.14-6.8-3.74l-2.63,12.9Z" style="fill:#df9142;"/><path d="M413.61,207.17c-1.52,.39-4.36,.49-7.66,.45-8.01-.09-19.26-1.06-25.21-1.86,0,0,.14-1.72,.02-3.63,0,0,5.74-.09,12.01-1.59,6.27-1.49,14.94-2.83,14.94-2.83l2.59-1.24s6.67-2.49,7.13,0c1.64,8.98,.07,9.71-3.83,10.71Z" style="fill:url(#ay);"/><path d="M393.4,209.82h-16.72v-1.64h16.72c.45,0,.82,.37,.82,.82h0c0,.45-.37,.82-.82,.82Z" style="fill:url(#b`);"/><path d="M384.36,209.82h-41.86c-.5,0-.94-.33-1.08-.82l-8.57-30.84c-.19-.68,.32-1.36,1.03-1.36h40.48c.94,0,1.77,.63,2.02,1.54l8.54,30.73c.1,.38-.18,.75-.57,.75Z" style="fill:url(#ba);"/><path d="M382.84,209.82h-41.86c-.5,0-.94-.33-1.08-.82l-8.57-30.84c-.19-.68,.32-1.36,1.03-1.36h40.48c.94,0,1.77,.63,2.02,1.54l8.54,30.73c.1,.38-.18,.75-.57,.75Z" style="fill:url(#bb);"/><ellipse cx="356.08" cy="192.56" rx="6" ry="3.96" style="fill:url(#bc); mix-blend-mode:screen; opacity:.5;"/><path d="M360.41,209.82c-.14,0-.6-.14-1.09-1.24h0s-1.61-3.45-2.36-4.13c-.51-.47-1.27-.32-1.37,.08,0,.03,.02,.19,.08,.41-.19-.34-.42-.68-.69-.92-.51-.47-1.27-.19-1.37,.21-.01,.05,.11,.51,.21,.89-.14-.12-.22-.36-.57-.46-.38-.11-.81,0-.94,.32-.1,.26,.28,1.51,.43,1.95-.11-.15-.28-.42-.4-.54-.47-.47-.98-.09-1.06,.21,0,.04,.07,.35,.18,.72h0c.19,.73,.72,2.7,.98,3.1,.75,1.14,2.22,1.57,3.45,1.6,2.47,.07,4.47-.2,5.74-.62,1.28-.43,1.5-1.57,1.5-1.57h-2.73Z" style="fill:url(#bd);"/><path d="M390.76,250.29h0c-.51,1.71-1.13,3.79-1.8,5.98h0v-20.31l1.8,14.33Z" style="fill:url(#be); mix-blend-mode:multiply;"/><path d="M399.12,179.84s2.26,5.92,3.73,10.14c0,0-3.01-4.12-3.73-10.14Z" style="fill:url(#bf); mix-blend-mode:multiply; opacity:.5;"/></g><g><path d="M159.56,324.25s-1.11,1.85-1.5,3.48c-.51,2.11,.31,5.26,.31,5.26h22.92s.99-2.64-4.1-4.6c-4.28-1.65-8.89-3.96-8.89-3.96l-8.75-.17Z" style="fill:#283451;"/><path d="M156.54,221.78s-1.11,13.94-2.7,28c-.46,4.02-.95,8.05-1.47,11.77-.77,5.52-1.6,10.34-2.43,13.41-3.59,13.24-20.02,45.85-20.02,45.85,0,0-4.42-.59-6.54-2.64,0,0,3.12-23.7,4.64-29.68,1.84-7.2,6.9-17.01,6.9-17.01,0,0-2.1-18.23-2.34-21.49-.29-3.82-2.38-11.5-1.69-17.19,.84-6.9,2.2-10.16,4.63-13.78l21.02,2.77Z" style="fill:#263238;"/><path d="M153.84,249.78c-.46,4.02-.95,8.05-1.47,11.77,0,0-3.75-14.14-5.1-19.87-1.35-5.72-.6-10.99-.6-10.99l7.17,19.09Z" style="fill:url(#bg); mix-blend-mode:multiply;"/><path d="M170.53,218.93s2.77,14.3,2.51,34.31c-.2,15.56-4.74,71.18-4.74,71.18,0,0-6.37,1.52-8.75-.17,0,0-4.27-25.7-4.16-31.87,.11-6.17,.91-17.87,.91-17.87,0,0-3.86-18.72-4.71-22.45s-4.06-11.05-4.7-17.98c-.64-6.93,.16-8.9,1.33-13.06" style="fill:#263238;"/><path d="M123.37,318.17s-1.3,.88-2.2,2.3c-.88,1.4-1.81,3.29-2.05,4.29-.26,1.09,7.57,6.23,9.48,7.06,1.18,.51,2.45,.77,3.73,.77h7.3s.52-3.98-3.29-5.16-4.28-1.63-4.28-1.63l-2.15-4.99-6.54-2.64Z" style="fill:#283451;"/><path d="M165.9,141.06s.3,16.25-2.19,16.84c-2.94,.69-12.51,1.84-16.48-9.2-3.97-11.04,3.91-14.88,7.97-14.69,4.07,.19,10.31-.21,10.7,7.05Z" style="fill:url(#bh);"/><path d="M159.03,157v8.07s-5.75,1.56-10.72,0c0,0,1.14-8.1,0-16.48" style="fill:url(#bi);"/><path d="M128.86,181.13s-4.75,13.02-4.15,14.88c.6,1.86,10.33,14.88,10.33,14.88l3.14-14.09-1.65-12.1-7.67-3.57Z" style="fill:url(#bj);"/><path d="M140.09,189.3c-.34,.32-.76,.48-1.28,.43-1.41-.13-2.95-.47-4.46-.87-4.18-1.12-8.06-2.86-8.06-2.86,0,0,2.36-7.04,5.12-13.28,3.14-7.1,6.22-8.13,6.22-8.13l1.63,4.85s3.96,16.92,.84,19.86Z" style="fill:#676771;"/><path d="M140.09,189.3c-.34,.32-.76,.48-1.28,.43-1.41-.13-2.95-.47-4.46-.87,.77-5.18,1.01-13.52,1.01-13.52l2.15,1.82s1.23,3.91,1.79,4.59c.39,.45,.66,4.79,.8,7.55Z" style="fill:url(#bk); mix-blend-mode:multiply;"/><path d="M170.59,220.36c-15.45,3.91-33.7,.26-34.97-.45-.24-.13-1.85-.34-1.6-2.19,.18-1.29,.53-3.81,.98-6.73,2.47-16.23,.76-28.18,.44-34.06-.41-7.49-.95-9.42,.9-11.39,2.34-2.49,12.39-4.55,12.39-4.55,3.63,.27,6.58,.11,9.47,.36,5.64,.49,10.67,2.77,10.67,2.77,1.54,1.07,2.14,10.43,2.17,21.12,.02,2.95-.02,6.01-.08,9.01,0,.59-.02,1.18-.04,1.76-.3,12.07,.22,21.81,.43,22.38,.57,1.63-.76,1.98-.76,1.98Z" style="fill:#676771;"/><path d="M171.04,185.25c.02,2.95-.02,6.01-.08,9.01-4.41-6.06-8.42-15.73-8.42-15.73l8.5,6.72Z" style="fill:url(#bl); mix-blend-mode:multiply;"/><path d="M203.21,161.48c-.42-.11-1.94,1.27-2.28,1.55-.24,.19-1.52,1.59-1.87,1.99-.21,.1-1.9,.44-2.87,1.25-.96,.81-1.42,3.2-1.95,4.33-.23,.48-.83,1.18-1.45,1.83-.17,.18-.81,.81-3.05,2.92-2.86,2.69-7.08,6.61-7.33,6.96l-1.38-1.9c-5.3,.56-10.1,6.84-10.1,6.84,0,0,4.02,5.92,5.82,7.94,.77,.86,2.62,2.43,5.2,1.38,2.75-1.11,5.51-5.16,6.69-7.13,4.81-7.97,5.8-10.7,7.95-14.13,.36-.58,1.66-2.19,1.66-2.19,0,0,.77-.28,1.6-.75,.06,.16,.19,.26,.33,.21,.29-.1,1.59-.92,1.78-1.28,.19-.36,.59-1.76,.59-1.76,0,0,.26-.97,.25-1.2,0-.17-.13-.43-.39-.48-.02-.23-.08-.68-.26-.85-.14-.14-.36-.23-.59-.26-.03-.24-.1-.53-.23-.66-.16-.16-.44-.26-.7-.27,.04-.25,.95-1.2,1.34-1.55,1.11-.96,1.43-1.26,1.54-2.05,.03-.19-.04-.65-.3-.72Z" style="fill:url(#bm);"/><path d="M182.98,181.72c1.77,5.06-8.56,8.84-11.36,9.51-5.1-5.56-11.4-15.36-10.87-17.9,1.13-5.44,8.12-9.2,8.12-9.2,3.76,1.38,7.83,7.34,14.11,17.59Z" style="fill:#676771;"/><path d="M168.25,134.01c-2.68-1.06-11.37-3.33-15.86-2.37-5.72,1.22-5.17,5.63-5.17,5.63-2.65,1.16-4.13,2.97-3.23,8.07,.9,5.1,3.81,10.91,4.91,11.23,1.1,.32,6.34,.35,6.79,.09,.45-.26,1.1-4.32,1.1-6.85,0-.96-.64-4.23,1.14-4.59,1.82-.37,1.49,4.26,1.49,4.26l1.25,.06,.3-2.77s.98-.22,1.52-.83c.18-.21,.78-1.56,.91-2.23,5.01-1.62,7.01-8.84,4.86-9.69Z" style="fill:url(#bn);"/></g><path d="M591.15,334.43H7.32c-.74,0-1.35-.6-1.35-1.35s.6-1.35,1.35-1.35H591.15c.74,0,1.35,.6,1.35,1.35s-.6,1.35-1.35,1.35Z" style="fill:url(#bo);"/></g></g></g></svg>