<?xml version="1.0" encoding="UTF-8"?><svg xmlns="http://www.w3.org/2000/svg" xmlns:xlink="http://www.w3.org/1999/xlink" viewBox="0 0 600 350"><defs><style>.q{fill:#b74242;}.r{fill:#dba686;}.s{fill:#001014;}.t{fill:#d38888;}.u{fill:#26211f;}.v{fill:#bfbfbf;}.w{fill:#435468;}.x{fill:url(#l);}.y{fill:#997761;}.a`{fill:#27263f;}.aa{fill:#3a4252;}.ab{fill:#1a2632;}.ac{fill:#91b5cf;}.ad{fill:#e3ab95;}.ae{fill:url(#m);}.af{fill:#a1bde3;}.ag{fill:#2a2b45;}.ah{fill:#5070ad;}.ai{fill:#cbe2f8;}.aj{fill:#984b4b;}.ak{fill:#dba585;}.al{fill:#233b73;}.am{fill:url(#p);}.an{fill:#1e2b38;}.ao{fill:#3d3f62;}.ap{fill:url(#n);opacity:.95;}.aq{fill:#323436;}.ar{fill:#e5b49f;}.as{fill:#db917c;}.at{fill:#d7c9c2;}.au{fill:#2c2a66;}.av{fill:#99a4c2;}.aw{fill:#cb4949;}.ax{fill:#0d1a24;}.ay{fill:#343557;}.b`{fill:#2f74b0;}.ba{fill:#0a1822;}.bb{fill:#181627;}.bc{fill:#6696e2;}.bd{fill:#0f1b26;}.be{fill:#101c27;}.bf{fill:#ebebeb;}.bg{fill:#9cb1f1;}.bh{fill:#7588cb;}.bi{fill:#bdc4d7;}.bj{fill:#cd7250;}.bk{fill:#2d4d98;}.bl{fill:#16163a;}.bm{fill:#4b3029;}.bn{fill:#c5d0e6;}.bo{fill:#1c195a;}.bp{fill:#cde0ef;}.bq{fill:#eee0d7;}.br{fill:#c2c2c2;}.bs{fill:#a8c0d3;}.bt{fill:#da9b9b;}.bu{fill:#454545;}.bv{fill:#2f3a40;}.bw{fill:url(#o);}.bx{fill:#e3918f;}.by{fill:#404347;}.c`{fill:#d9d9d9;}.ca{fill:#3d96e3;}.cb{fill:#53575c;}.cc{fill:url(#k);}.cd{fill:#a0b5f2;}.ce{fill:#2a2f3b;}.cf{fill:#34211a;}.cg{fill:#d2a18a;}.ch{fill:#232c40;}.ci{fill:#0e0e34;}</style><linearGradient id="k" x1="379.37" y1="90.59" x2="379.37" y2="40.14" gradientTransform="matrix(1, 0, 0, 1, 0, 0)" gradientUnits="userSpaceOnUse"><stop offset="0" stop-color="#f9f9fb"/><stop offset="1" stop-color="#e8e8ef"/></linearGradient><linearGradient id="l" x1="186.1" y1="198.1" x2="186.1" y2="131.72" xlink:href="#k"/><linearGradient id="m" x1="298.27" y1="218.31" x2="291.73" y2="99.68" xlink:href="#k"/><linearGradient id="n" x1="292.29" y1="176.15" x2="292.29" y2="86.59" gradientTransform="matrix(1, 0, 0, 1, 0, 0)" gradientUnits="userSpaceOnUse"><stop offset="0" stop-color="#d1d5de"/><stop offset="1" stop-color="#e9e9fd"/></linearGradient><linearGradient id="o" x1="418.18" y1="141.2" x2="519.95" y2="141.2" xlink:href="#k"/><linearGradient id="p" x1="185.14" y1="228.49" x2="241.24" y2="228.49" gradientTransform="matrix(1, 0, 0, 1, 0, 0)" gradientUnits="userSpaceOnUse"><stop offset="0" stop-color="#d6e5ff"/><stop offset=".25" stop-color="#ddeaff"/><stop offset=".81" stop-color="#ecf3ff"/></linearGradient></defs><g id="a"/><g id="b"/><g id="c"/><g id="d"/><g id="e"/><g id="f"/><g id="g"/><g id="h"/><g id="i"/><g id="j"><rect x="370.76" y="62.85" width="4.9" height=".91" style="fill:#6696e2;"/><g><path d="M358.05,26.81h42.63c5.28,0,9.56,4.28,9.56,9.56v36.5c0,5.28-4.28,9.56-9.56,9.56h-42.63c-5.28,0-9.56-4.28-9.56-9.56V36.37c0-5.28,4.28-9.56,9.56-9.56Z" style="fill:url(#k);"/><g><path d="M383.57,21.94s3.95,2.17,2.69,7.5c-1.25,5.33-1.73,6.03-.71,8.18,1.02,2.15,1.91,11.18,.83,12.83-1.09,1.65-12.09-8.05-13.32-15.81-1.22-7.76,1.53-11.06,2.51-12.29,.98-1.23,4.52-2.38,8-.41Z" style="fill:#3a4252;"/><path d="M390.98,65.98h-4.22c-.2-2.08-.39-3.53-.35-3.75,.06-.35-4.2-11.54-4.6-12.47-.4-.92-1.97-3.41-2.17-5.74-.21-2.34,2.84-3.28,2.84-3.28,4.11,.74,5.51,6.43,5.51,6.43,0,0,1.73,11.54,2.6,14.79,.23,.83,.35,2.3,.4,4.03Z" style="fill:#dba585;"/><path d="M388.85,49.94l-6.29,2.65s-5.78-14.35-.94-12.75c4.83,1.6,7.01,4.6,7.23,10.1Z" style="fill:#cb4949;"/><path d="M387.45,56.7c-.18,1.42-.94,6.47-.77,7.83,.03,.22,.12,.74,.26,1.45h-15.17c.4-1.44,.77-2.72,.99-3.46,.74-2.44,.03-3.1-.34-5.05-.14-.77-.65-2.22-1.21-3.86-.19-.55-.38-1.12-.56-1.69-.67-2.07-.98-4.18-1.17-5.41-.92-5.84,3.57-6.4,3.57-6.4,1.67-.31,4.58-1.21,4.58-1.21l4.56,.95s.43,.16,1.07,.63h0c.31,.23,.66,.52,1.03,.9,.5,.51,1.49,1.98,2.48,3.59,.3,.49,.61,1,.89,1.5,.93,1.61,1.59,2.9,1.57,4.36-.02,1.44-1.61,4.44-1.79,5.87Z" style="fill:#cb4949;"/><path d="M382.2,39.85s2.86,4.89,1.8,5.25c-1.06,.36-6.67-.87-8.86-5.49,0,0,3.68-1.67,7.06,.23Z" style="fill:#dba585;"/><path d="M381.79,42.08s-2.54,1.07-4.84-2.46c0,0,.62-4.02-.69-6.34-1.31-2.32,5.71,2.79,5.71,2.79,0,0-.11,.48-.23,1.19-.06,.36-.12,.78-.17,1.23-.04,.37-.07,.76-.08,1.15-.03,.9,.04,1.8,.3,2.45Z" style="fill:#dba585;"/><path d="M375.49,47.55c-.52,2.69-4.27,6.06-4.27,6.06-.19-.55-.38-1.12-.56-1.69,2.59-1.65,4.83-4.36,4.83-4.36Z" style="fill:#3d3f62;"/><path d="M374.55,49.69c-.24,.98-1.33,10.91-1.21,11.24,.07,.19,.6,2.49,1.13,5.04h-4.9c-.5-1.64-.8-3.01-.73-3.78,.31-3.35-.82-14.02-.82-14.02,0,0-1.02-6.46,4.34-7.26,0,0,3.16,.42,3.36,2.75,.19,2.34-.93,5.05-1.17,6.03Z" style="fill:#dba585;"/><path d="M367.62,51.06l6.65,1.55s5.27-10.24,.52-12.11c-5.01-1.97-8.37,4.97-7.17,10.56Z" style="fill:#cb4949;"/><path d="M382.95,22.51s5.78,2.12,2.12,12.09c-3.66,9.97-11.14-1.7-10.01-7.83,1.13-6.13,7.89-4.26,7.89-4.26Z" style="fill:#dba686;"/><path d="M385.95,28.57s-3.05,2.72-7.94,2.85c0,0-1.14,2.79-1.33,3.64,0,0-4.84-8.3,.72-12.5,5.56-4.19,10.6,4.26,8.55,6Z" style="fill:#3a4252;"/><path d="M378.67,32.02c0-.74-.38-2.44-1.49-2.02-1.12,.42-.12,3.89,.62,3.71,0,0,.88,.06,.88-1.69Z" style="fill:#dba686;"/><path d="M381.5,39.46c-2.72-.75-3.77-3.34-3.8-3.43,2.21,2.85,3.87,2.44,3.87,2.44-.04,.37-.04,.6-.08,.98Z" style="fill:#997761;"/></g><path d="M394.05,36.88v.89h5.22v4.9h.89v-5.79h-6.11Zm-35.47,5.79h.89v-4.9h5.22v-.89h-6.11v5.79Zm40.69,25.29v4.9h-5.22v.89h6.11v-5.79h-.89Zm-39.8,0h-.89v5.79h6.11v-.89h-5.22v-4.9Z" style="fill:#6696e2;"/></g><path d="M105.22,335.1s-53.42-57.36-9.03-119.46c39.38-55.1,85.3-51.33,118.99-28.97,14.35,9.52,55.72,1.17,90.93-54.89,48.02-76.46,214.46-30.09,184.11,87.54-14.69,56.92,44.69,58.99,14.44,115.89l-399.43-.12Z" style="fill:#cbe2f8;"/><g><rect x="154.92" y="114.17" width="62.35" height="73.19" rx="7.49" ry="7.49" style="fill:url(#l);"/><rect x="183.19" y="157.35" width="4.95" height=".92" style="fill:#6696e2;"/><g><rect x="164.41" y="165.74" width="28.78" height="1.77" style="fill:#a1bde3;"/><rect x="164.41" y="174.25" width="23.27" height="1.77" style="fill:#a1bde3;"/><rect x="164.41" y="170" width="13.64" height="1.77" style="fill:#a1bde3;"/></g><path d="M200.72,121.47v.9h5.27v4.95h.9v-5.84h-6.17Zm-35.81,5.84h.9v-4.95h5.27v-.9h-6.17v5.84Zm41.08,25.54v4.95h-5.27v.9h6.17v-5.85h-.9Zm-40.19,0h-.9v5.85h6.17v-.9h-5.27v-4.95Z" style="fill:#6696e2;"/><g><path d="M204.1,176.16c-2.91,0-5.27-2.37-5.27-5.27s2.37-5.27,5.27-5.27,5.27,2.37,5.27,5.27-2.37,5.27-5.27,5.27Zm0-9.53c-2.35,0-4.25,1.91-4.25,4.25s1.91,4.25,4.25,4.25,4.25-1.91,4.25-4.25-1.91-4.25-4.25-4.25Z" style="fill:#6696e2;"/><polygon points="203.76 172.96 201.36 170.56 202.09 169.84 203.76 171.51 206.11 169.17 206.83 169.89 203.76 172.96" style="fill:#6696e2;"/></g><g><path d="M165.06,152.44h3c.05-.12,.1-.22,.14-.31,.89-2.1,5.48-6.92,5.48-6.92h0v.02h0v.03s.01,.02,.02,.04c0,0,0,.02,0,.03v.02c.2,.7,1.12,4.2,1.58,7.1h20.3c.05-.27,.1-.52,.16-.76,.19-.72,.31-1.43,.39-2.1,0-.03,0-.07,.01-.1,.02-.12,.03-.25,.04-.37,.17-1.82,.04-3.22,.03-3.36,.06,.12,.47,1.63,1,3.48,.3,1.02,.63,2.14,.96,3.2h4.79l-6.01-17.35c-.13-.1-1.69-.86-2.83-1.4-1.16-.55-2.56-1.37-3.83-2.06-.65-.36-1.26-.68-1.79-.92l-.08-.04h0c-.87-.4-1.46-.67-1.46-.67h0s-.16-.02-.38-.04c-1.22-.12-5.01-.47-6.28-.55-.1,0-.19-.01-.26-.01-.06,0-.1,0-.13,0-.16,.01-.94,.28-1.97,.67-.04,.01-.08,.03-.12,.04-.05,.02-.1,.04-.15,.05-.09,.03-.18,.07-.27,.1-.18,.07-.37,.15-.56,.22-.07,.03-.13,.05-.2,.08-2.05,.81-4.41,1.82-4.97,2.23-.37,.26-1.52,2.43-2.86,5.12-1.44,4.6-3.19,11.24-3.77,14.51Z" style="fill:#d7c9c2;"/><path d="M179.95,128.82c.05,2.73,5.34,4.22,5.34,4.22,0,0,2.21-2.77,1.68-3.04-.21-.1-.29-.52-.32-.98-.02-.44,0-.93,.03-1.24,.02-.19,.03-.32,.03-.32,0,0-.75-.8-1.71-1.75-1.68-1.66-3.98-3.78-3.99-2.94,0,.04,0,.1,.02,.16,.41,1.9-1.08,5.87-1.08,5.87Z" style="fill:#dba585;"/><path d="M181.99,124.82h0s.23,.35,.62,.83c.81,1.02,2.34,2.7,4.05,3.37-.02-.44,0-.93,.03-1.24,.18,0,.35-.02,.52-.06-.47-.82-1.15-1.68-1.15-1.68l-1.06-.32-3.01-.9Z" style="fill:#997761;"/><path d="M180.97,122.82c.46,.99,.89,1.71,1.01,2h0c.08,.19,.3,.49,.62,.83,.87,.94,2.49,2.17,4.08,2.13,.18,0,.35-.02,.52-.06,.64-.14,1.4-.44,1.82-1.26,3.3-6.45,.91-11.73,.91-11.73,0,0-9.01-2.55-10.42,.16-.99,1.9,.38,5.58,1.46,7.92Z" style="fill:#dba585;"/><path d="M189.94,114.74s.84-.05,1.04-1.63c.2-1.57-.21-2-.21-2,0,0-3.72-1.56-5.06-1.76s-4.62-.4-5.39,.48c0,0-1.87-.43-2.38,2.67-.81,4.93,2.76,9.71,2.76,9.71,0,0-.03-3.22,.68-3.65,.71-.43,1.32,.59,1.32,.59l1.45,.26s-2.21-4.76,.44-4.94c2.65-.18,3.83,.54,5.34,.27Z" style="fill:#cd7250;"/><path d="M182.66,117.87c-.14-1.42-2.7-1.96-2.53-.47,.17,1.49,1.43,2.91,2.02,2.86,.58-.05,.62-1.31,.51-2.39Z" style="fill:#dba585;"/><path d="M164.97,152.44h6.2c.12-3.49,2.51-7.22,2.51-7.22h0v.03s.02,.03,.02,.04c0,0,0,.02,0,.03v.02c.33,1.28,.55,4.59,.67,7.1h9.85c.03-.19,.05-.38,.07-.57,.29-2.4,.46-4.54,.6-6.02,.44-4.64-2.41-9.66-4.59-12.76-1.17-1.66-2.14-2.77-2.33-2.98,0,0,0,0-.01-.01-.04,.01-.08,.03-.12,.04-.05,.02-.1,.04-.15,.05-.09,.03-.18,.07-.27,.1-.18,.07-.37,.15-.56,.22-.07,.03-.13,.05-.2,.08-2.11,.83-6.56,2.05-7.12,2.45-.32,.23-1.04,2.35-1.88,5.02-1.43,4.59-2.38,11.13-2.68,14.38Z" style="fill:#404347;"/><path d="M188.47,130.74s.74,2.47,1.7,8.65h0c.03,.21,.07,.42,.1,.64,0,.02,0,.05,.01,.08,.02,.14,.04,.29,.07,.43v.05c.02,.1,.04,.2,.05,.3,.04,.24,.07,.49,.11,.75,.36,2.52,.84,6.53,1.33,10.8h3.89c.21-1.19,.41-2.27,.39-3.01,0,.02,.01,.03,.02,.05,.31,.86,.65,1.8,1,2.71l.09,.25h6.71l-6.68-17.48c-.13-.1-1.85-1.03-2.99-1.57-1.19-.57-2.69-1.26-4.02-1.88-.64-.29-1.23-.57-1.74-.8l-.04,.03Z" style="fill:#404347;"/><path d="M179.42,136.85l2.57,1.45-1.1,1.12,2.41,13.02h.91c.33-2.63,.52-4.99,.67-6.6,.67-7.17-6.49-15.26-6.93-15.76-.34,.13-.72,.27-1.1,.43l2.56,6.34Z" style="fill:#53575c;"/><path d="M188.43,130.67s.96,3.14,2.08,10.96c.36,2.52,.84,6.53,1.33,10.8h.38l.5-12.3-1.22-1.33,1.09-1.36-2.33-5.95c-.64-.29-1.23-.57-1.74-.8l-.08-.04Z" style="fill:#53575c;"/><path d="M177.82,130.11l2.13-1.29s.06,1.17,5.34,4.22l-1.5,4.22-5.97-7.15Z" style="fill:#eee0d7;"/><path d="M186.69,129.41s-.08,1.26-1.4,3.63l2.92,3.81,.21-6.18-1.73-1.26Z" style="fill:#eee0d7;"/><path d="M185.28,133.04s-.57,2.27-.36,2.9c0,0,1.25,.45,2.14-.11,0,0-.63-1.59-1.78-2.79Z" style="fill:#b74242;"/><path d="M185.97,140.75c.6,4.07,.6,8.19,.38,11.69h2.5c.03-.49,.07-1.01,.1-1.55,.46-8.06-2.39-15.27-2.39-15.27l-1.27-.32s.41,3.56,.69,5.44Z" style="fill:#b74242;"/><path d="M196.04,145.78c.1,1.93,.08,3.65,.08,3.65h0s0,.06,0,.15v-.1c.32,.86,.66,1.8,1.01,2.71,.08-1.06,.1-2.04,.08-2.95-.14-5.42-1.84-8.27-1.84-8.27,.39,.95,.58,2.97,.67,4.81Z" style="fill:#323436;"/></g></g><g><path d="M261.9,67.78h60.77c6.42,0,11.64,5.22,11.64,11.64v60.77c0,6.42-5.22,11.64-11.64,11.64h-60.77c-6.42,0-11.64-5.22-11.64-11.64v-60.77c0-6.42,5.22-11.64,11.64-11.64Z" style="fill:url(#m);"/><g><rect x="272.83" y="132.7" width="38.91" height="1.92" style="fill:#a1bde3;"/><rect x="278.34" y="138.75" width="27.89" height="1.92" style="fill:#a1bde3;"/><rect x="263.96" y="70.92" width="56.65" height="48.61" style="fill:url(#n); opacity:.95;"/><g><path d="M313.93,100.51c-1.87-4.94-6.35-7.2-8.46-7.91-.75-.25-2.1-.69-3.52-1.15-2.56-.83-5.35-1.72-5.35-1.72h-8.82s-3.05,1.02-6.3,2.16h0c-2.99,1.05-6.14,2.19-7.2,2.73-2.22,1.11-5.95,9.02-6.7,9.92-.39,.47-2.12,3.55-3.82,6.99h9.5c1-1.72,1.78-3.06,1.78-3.06,0,0,.6,1.32,1.33,3.06h30.43c.48-2.02,.78-4.57,.78-4.57,0,0,1.63,2.22,3.41,4.57h8.77c-2.13-3.58-4.78-8.24-5.83-11.02Z" style="fill:#435468;"/><path d="M293.24,65.5s6.89,1.09,5.84,11.87c-1.05,10.79-7.13,9.9-7.54,9.89-.41-.01-6.11,.2-6.55-12.97,0,0-.19-9.74,8.25-8.79Z" style="fill:#dba585;"/><path d="M299.19,74.33s.75-.81,1.03,0c.28,.82-1.03,4.46-1.08,4.63,0,0-.14,.32-.32,.14-.18-.17,.36-4.78,.36-4.78Z" style="fill:#dba585;"/><path d="M285.18,74.19s-.74-.82-1.03,0c-.29,.81,.93,4.48,.99,4.65,0,0,.13,.32,.32,.15,.18-.17-.27-4.79-.27-4.79Z" style="fill:#dba585;"/><path d="M299.19,75.98l-.99,1.32s.03-2.89-.13-3.35c-.16-.45-.4-1.84-.53-2.17-.13-.33-5.92-1.95-11.03,.47,0,0,.23,2.08-.27,2.27-.49,.19-.25,3.39-.25,3.39l-.81-.92s-1.24-8.3-.94-9.16c.31-.87,1.28-6.07,11.77-2.98,0,0,3.27-.69,3.93,1.57,.66,2.26-.75,9.56-.75,9.56Z" style="fill:#454545;"/><path d="M297.45,89.54s-.88-.43-.88-.43c-.43-.96-.11-5.01-.11-5.01,0,0-8.78-2.23-8.53-.53,.25,1.71-.76,5.68-.76,5.68l-4.5,2.24s4.8,12.89,10.32,11.23c5.52-1.66,7.6-11.69,7.6-11.69l-3.13-1.48Z" style="fill:#dba585;"/><path d="M288.05,85.46s1.41,1.83,3.87,1.83c1.62,0,2.77-.45,4.38-2.02,0,0-.7,2.98-4.37,3.26,0,0-2.67,.34-3.88-3.06Z" style="fill:#997761;"/></g><rect x="289.02" y="123.31" width="6.54" height="1.21" style="fill:#6696e2;"/><path d="M311.89,76.51v1.18h6.98v6.55h1.18v-7.73h-8.16Zm-47.37,7.73h1.18v-6.55h6.98v-1.18h-8.16v7.73Zm54.35,33.78v6.55h-6.98v1.18h8.16v-7.73h-1.18Zm-53.16,0h-1.18v7.73h8.16v-1.18h-6.98v-6.55Z" style="fill:#6696e2;"/></g></g><g><path d="M433.36,90.32h71.4c8.38,0,15.18,6.8,15.18,15.18v71.41c0,8.38-6.8,15.18-15.18,15.18h-71.4c-8.38,0-15.18-6.8-15.18-15.18V105.5c0-8.38,6.8-15.19,15.19-15.19Z" style="fill:url(#o);"/><path d="M488.26,98.98v1.22h7.2v6.75h1.22v-7.98h-8.42Zm-48.86,7.98h1.22v-6.75h7.2v-1.22h-8.42v7.98Zm56.06,34.85v6.76h-7.2v1.22h8.42v-7.98h-1.22Zm-54.84,0h-1.22v7.98h8.42v-1.22h-7.2v-6.76Z" style="fill:#6696e2;"/><g><path d="M462.94,103.76s-.19,5.97-.96,8.64l-6.05,4.22,22.76,3.41-5.43-7.5s-1.64-8-.78-10.96c.86-2.96-9.55,2.2-9.55,2.2Z" style="fill:#e3918f;"/><path d="M462.9,104.59s1.8,4.33,5.19,4.24c3.39-.1,4.16-3.93,4.16-3.93l-9.35-.31Z" style="fill:#d38888;"/><path d="M460.88,101.08s-1.1-5.47-1.86-7.12c-.76-1.66-1.4-9.04,7.07-9.42,0,0,3.25,.38,5.03-.7,0,0,0,1.08-.45,1.46,0,0,2.93-.7,5.22,1.85,2.29,2.55-1.53,11.46-1.34,13.56l-13.68,.37Z" style="fill:#984b4b;"/><path d="M467.7,107.15c-2.46-.04-6.98-3.31-6.98-7.37v-6.32c0-1.48,1.03-2.69,2.29-2.69h9.37c1.26,0,2.29,1.21,2.29,2.69v5.96c0,4.25-4.16,7.77-6.98,7.72Z" style="fill:#e3918f;"/><path d="M460.73,96.84s.01-3.8,3.02-4.38c3.01-.58,9.74,1.85,10.7-.92,.96-2.77-13.01-2.72-13.72-.96-.7,1.77,0,6.26,0,6.26Z" style="fill:#984b4b;"/><path d="M481,113.95h0s-4.82-1.04-7-1.32c-.25-.03-.49-.06-.74-.09-1.49,1.98-2.69,2.89-3.94,3.52-.28,.14-.56,.27-.85,.39-.25,.1-.51,.21-.77,.31-.33-.05-.65-.13-.97-.24-.18-.07-.36-.14-.53-.22-2.41-1.14-4.23-3.81-4.23-3.88-.34,.03-.66,.07-.98,.11-2.84,.35-4.78,.88-5.61,1.14h0c-.18,.02-8.98,7.79-14.3,20.47,0,1.2,46.4,2.62,52.62-.39-2.64-9.16-12.7-19.79-12.7-19.79Z" style="fill:#2c2a66;"/><path d="M462.3,110.95s-1.01,.42-1.3,1.57c0,0,4.05,4.17,6.71,4.23l-5.41-5.8Z" style="fill:#9cb1f1;"/><path d="M467.71,116.75l5.23-6.01s1.08,.71,1.06,1.88c0,0-4.05,4.29-6.3,4.13Z" style="fill:#9cb1f1;"/><path d="M470.05,135.43h-5.23c.62-7.02,1.37-13.97,1.73-17.21,.07-.66,.13-1.17,.17-1.49,0-.05,.01-.1,.02-.15,0-.02,0-.05,0-.07,.02-.13,.02-.2,.02-.2h.52l.82-.02h.35s0,.05,.01,.15c0,.06,.01,.13,.02,.22,0,.07,.01,.14,.02,.23,.03,.38,.08,.94,.14,1.64,.28,3.39,.85,10.15,1.4,16.9Z" style="fill:#9cb1f1;"/><path d="M465.72,114.62s2.41-.24,3.88-.09c.29,.03,.45,.35,.31,.6-.41,.74-1.25,2.03-2.13,2.03-1.23,0-3.16-2.45-2.06-2.54Z" style="fill:#7588cb;"/></g><rect x="439.4" y="161.55" width="57.28" height="2.83" style="fill:#a1bde3;"/><rect x="447.51" y="170.46" width="41.06" height="2.83" style="fill:#a1bde3;"/></g><path d="M535.61,335.32H76.94c-.34,0-.61-.15-.61-.33h0c0-.18,.27-.33,.61-.33h458.68c.34,0,.61,.15,.61,.33h0c0,.18-.27,.33-.61,.33Z" style="fill:#16163a;"/><g><path d="M350.01,194.85s12.3,12.58,12.89,17.43c.6,4.85-5.93,12.44-5.93,12.44l-6.97-29.87Z" style="fill:#7588cb;"/><path d="M344.52,328.16s-.42,6.84-1.75,6.94c-.18,.01-6.71,.01-6.71,.01l-8.34-.05s.05-2.01,2.49-2.43c2.44-.42,6.52-2.14,8-5.36,1.55-3.39,6.31,.89,6.31,.89Z" style="fill:#0e0e34;"/><path d="M363.1,328.16s-.42,6.84-1.75,6.94c-.18,.01-6.71,.01-6.71,.01l-8.34-.05s.05-2.01,2.49-2.43c2.44-.42,6.52-2.14,8-5.36,1.55-3.39,6.31,.89,6.31,.89Z" style="fill:#0e0e34;"/><path d="M335.28,254.67s2.18,13.95,10.32,38.72c8.14,24.77,9.25,35.49,9.25,35.49l8.73-.25s.07-27.07-3.68-39.52c-3.75-12.45-.81-44.9-.81-44.9l-23.81,10.45Z" style="fill:#0e0e34;"/><path d="M331.03,244.98s-.31,21.02,3.33,46.84c3.64,25.81,2.4,36.77,2.4,36.77l8.71,.29s5.21-25.82,3.71-38.75c-1.49-12.92,7.13-44.34,7.13-44.34l-25.29-.82Z" style="fill:#1c195a;"/><path d="M347.9,195.78l-4.64,3.04-6.71-1.25c.09-.54,.54-2.79,.94-4.82,.02-.12,.05-.24,.07-.36,.35-1.73,.64-3.22,.64-3.22l6.27-2.76,2.34-1.03s-.18,1.92-.2,2.19c-.44,4.88,1.3,8.2,1.3,8.2Z" style="fill:#e3918f;"/><path d="M338.27,194.24c.13-.06,8.08-2.4,8.94-2.12,.86,.29,1.37,1.96,1.37,1.96l-13,2.94s1.02-2.08,2.68-2.78Z" style="fill:#7588cb;"/><path d="M359.67,247.57c-1.35,6.15-23.77,6.88-29.55,1.3-.66-.64-.69-3.59-.44-7.58,.48-7.79,2.04-19.52,2.1-25.51,.03-2.89,.43-5.85,.96-8.54,1.13-5.73,2.84-10.22,2.84-10.22,0,0,10.95-3.54,13-2.94,9.87,2.9,12.43,47.34,11.09,53.49Z" style="fill:#a0b5f2;"/><path d="M329.68,241.29c.48-7.79,2.04-19.52,2.1-25.51,.03-2.89,.43-5.85,.96-8.54l6.59-1.16s6.44,26.31-9.65,35.21Z" style="fill:#7588cb;"/><path d="M333.25,230.42s.45,1.07-.49,1.79c-.94,.72-1.55,1.89-1.34,2.74s2.28,2.25,3,2.02c.72-.22,2.18-1.35,2.02-1.8-.16-.45,.98-3.95-.77-5.3-1.75-1.35-2.42,.54-2.42,.54Z" style="fill:#e3918f;"/><path d="M340.61,195.44s-6.42,1.2-11.54,8.75c-5.12,7.54-8.49,13.15-7.55,15.87,.94,2.72,9.54,12.15,11.02,12.15s3.87-1.08,4.01-3.5c0,0-6.05-9.07-4.86-10.43,.51-.58,7.86-6.55,8.91-3.85,1.74,4.46,.01-18.99,.01-18.99Z" style="fill:#a0b5f2;"/><path d="M346.13,187.66c-1.38,2.33-6.5,4.35-8.64,5.09,.02-.12,.05-.24,.07-.36,.35-1.73,.64-3.22,.64-3.22l6.27-2.76c1.39-.02,2.23,.29,1.66,1.25Z" style="fill:#da9b9b;"/><path d="M335.84,188.8s10.09,3.15,11.96-3.17c1.86-6.32,4.42-10.16-1.94-12.44-6.37-2.28-8.33-.24-9.47,1.72-1.13,1.96-3.12,12.91-.54,13.89Z" style="fill:#e3918f;"/><path d="M336.78,174.3s.64,7.35,2.16,7.03c1.52-.32,2.9-.56,2.68,1.66-.22,2.22-1.26,5.74,3.43,6.13,4.68,.39,10.34-12.65,9.06-14.94-3.71-6.6-22.69-7.93-17.32,.12Z" style="fill:#2f3a40;"/></g><g><g><polygon points="145.76 334.49 143.74 334.49 143.02 261.81 147.07 261.81 145.76 334.49" style="fill:#cde0ef;"/><rect x="97.66" y="256.67" width="163.37" height="5.13" style="fill:#bdc4d7;"/><polygon points="96.64 333.65 98.67 333.65 101.71 261.81 97.67 261.81 96.64 333.65" style="fill:#91b5cf;"/><rect x="243.37" y="261.81" width="17.66" height="71.84" style="fill:#c2c2c2;"/><g><rect x="203.35" y="261.81" width="40.02" height="71.84" style="fill:#d9d9d9;"/><g><rect x="205.98" y="264.73" width="34.76" height="14.42" style="fill:#bfbfbf;"/><rect x="219.59" y="271.16" width="7.55" height="1.56" style="fill:#ebebeb;"/></g><g><rect x="205.98" y="281.55" width="34.76" height="14.42" style="fill:#bfbfbf;"/><rect x="219.59" y="287.98" width="7.55" height="1.56" style="fill:#ebebeb;"/></g><g><rect x="205.98" y="298.69" width="34.76" height="14.42" style="fill:#bfbfbf;"/><rect x="219.59" y="305.12" width="7.55" height="1.56" style="fill:#ebebeb;"/></g><g><rect x="205.98" y="315.83" width="34.76" height="14.42" style="fill:#bfbfbf;"/><rect x="219.59" y="322.26" width="7.55" height="1.56" style="fill:#ebebeb;"/></g></g><rect x="243.39" y="256.67" width="17.64" height="5.13" style="fill:#99a4c2;"/></g><g><g><g><path d="M216.48,254.99l.04-28.85c.12-3.07-1.64-2.67-1.64-2.67,0,0-1.6-.56-1.92,2.88l-4.14,28.63h7.67Z" style="fill:#0f1b26;"/><path d="M216.48,254.99h2.14s1.39,.29,1.38,1.69h-17.91s.12-1.76,1.8-1.69h12.59Z" style="fill:#0f1b26;"/><rect x="243.21" y="207.41" width="1.23" height="42.16" style="fill:#0a1822;"/><rect x="183.17" y="207.41" width="60.04" height="42.16" style="fill:#1a2632;"/><rect x="185.14" y="209.09" width="56.1" height="38.8" style="fill:url(#p);"/><path d="M217.85,205.3c0,1.43-1.16,2.55-2.59,2.59-3.07,.08-3.82-1.24-3.82-2.67s.2-2.95,3.82-2.51c1.42,.17,2.59,1.16,2.59,2.59Z" style="fill:#0d1a24;"/><path d="M215.78,205.3c0,1.43-1.16,2.59-2.59,2.59s-2.59-1.16-2.59-2.59,1.16-2.59,2.59-2.59,2.59,1.16,2.59,2.59Z" style="fill:#1e2b38;"/><path d="M214.42,205.3c0,.68-.55,1.24-1.23,1.24s-1.24-.55-1.24-1.24,.55-1.24,1.24-1.24,1.23,.55,1.23,1.24Z" style="fill:#001014;"/></g><g><path d="M191.53,254.99h2.14s1.39,.29,1.38,1.69h-17.91s.12-1.76,1.8-1.69h12.59Z" style="fill:#1a2632;"/><path d="M177.49,254.99h2.14s1.39,.29,1.38,1.69h-12.73s.12-1.76,1.8-1.69h7.4Z" style="fill:#0f1b26;"/></g></g><g><g><path d="M160.96,212.52s-2.24,1.84-2.64,4.41l.24,3.93h-8.09l2.16-8.33h8.33Z" style="fill:#e5b49f;"/><path d="M152.63,212.52l-.42,1.6c1.65,.45,2.98,.7,4.48,1.36,1.12,.49,1.39,2.91,1.78,4.05l-.16-2.6c.4-2.56,2.64-4.41,2.64-4.41h-8.33Z" style="fill:#db917c;"/></g><path d="M162.12,213.68s.72-.04,.92-.64c1.48-2.95,1.11-3.77,.92-5.37-.36-3.12-1.33-5.54-1.92-7.57-1.08-3.72-1.86-3.77-4.47-4.41,0,0-3.28-.8-5.81,1.24-3.5,2.83-2.54,8.42-1.88,12.38,.41,2.44,1.55,2.88,4.17,3.84,0,0,4.27,1.69,8.07,.53Z" style="fill:#e5b49f;"/><path d="M156.62,212.8h0c-.38-.74-.06-1.72,.11-2.47,.12-.56,.2-1.19-.1-1.71-.52-.89-1.76-1.9-2.84-1.62-1.08,.28-1.81,1.42-2.15,2.41-.17,.49-.34,1.12-.32,1.65,.02,.33,.06,.64,.13,.96,.64,.42,1.49,.73,2.61,1.14,0,0,1.97,.78,4.43,.91-.63-.36-1.49-.59-1.85-1.27Z" style="fill:#db917c;"/><path d="M162.64,201.95c.66,2.03,1.78,2,2.16,2.57,.48,.72-.58,1.15-1.24,2.62-1.03-1.87-2.56-2.8-1.92-5.09l1-.1Z" style="fill:#e5b49f;"/><g><polygon points="172.34 316.41 175.86 317.45 178.82 311.21 173.78 309.52 172.34 316.41" style="fill:#e3ab95;"/><g><path d="M172.51,314.66l-2.44,5.06,18.01,5.78c.43-2.13-1.02-3.1-1.02-3.1l-5.19-3.1-3.63-3.34s-.16-.95-.61-1.1c0,0-2.46,.22-1.76,1.22,0,0-2.55-.8-3.36-1.41Z" style="fill:#4b3029;"/><polygon points="169.75 320.5 187.82 326.32 188.08 325.5 170.13 319.6 169.75 320.5" style="fill:#34211a;"/></g></g><g><polygon points="198.82 315 202.47 314.6 202.81 307.7 197.5 308.08 198.82 315" style="fill:#e3ab95;"/><g><path d="M198.3,313.31l-.3,5.61,18.85-1.58c-.42-2.13-2.14-2.47-2.14-2.47l-5.98-.87-4.63-1.69s-.5-.82-.98-.78c0,0-2.19,1.15-1.16,1.81,0,0-2.66,.24-3.65-.01Z" style="fill:#4b3029;"/><polygon points="198 319.76 216.92 318.19 216.85 317.34 198.01 318.78 198 319.76" style="fill:#34211a;"/></g></g><path d="M203.98,310.41c-1.44-7.69-3.55-17.67-4.52-20.79-1.38-4.43-2.53-9.49-4.57-13.81-2.35-4.98-7.56-6.66-12.44-8.19-2.52-.79-5.05-1.6-7.55-2.46-3.65-1.26-7.25-2.65-10.73-4.32-3.56-1.71-8.65-1.91-11.9,.59-4.3,3.31-5.62,10.6-.35,13.7,3.34,1.96,8.08,1.89,11.81,2.52,4.46,.75,8.91,1.62,13.36,2.43,2.44,.44,5.85,.45,7.98,1.83,3.3,2.13,2.81,8.63,4.01,12.02,0,0,2.88,12.18,8.49,18.42,0,0,3.85-.16,6.41-1.92Z" style="fill:#232c40;"/><g><path d="M193.73,254.07l5.47-.54,6.18,1.94s1.2,.56,.56,1.17l-11.11,.02s-1.81-.35-1.09-2.6Z" style="fill:#e3ab95;"/><path d="M169.88,252.28c-4.65-8.53-7.57-16.22-9.01-23.62,1.16-1.25,7.34-4.02,9.41,.51,2.23,5.42,3.61,10.9,4.73,17.94,0,0,2.08,2.24,18.72,6.96l.66,2.01s-20.35,.56-24.51-3.8Z" style="fill:#e3ab95;"/></g><path d="M175.9,277.44c2.17,.1,4.69,.12,4.87,2.27,0,0-5.79,19-8.07,33.38,0,0,1.6,1.28,6.09,2.08,8.01-11.85,14.3-35.52,14.3-35.52,1.76-8.17-5.41-11.45-5.41-11.45l-21.67-6.97c-5.93,3.2-21.63,3.52-21.63,3.52-1.16,2.35-.82,6.24,0,8.64,.94,2.75,2.77,4.04,5.61,4.17l25.91-.12Z" style="fill:#232c40;"/><path d="M165.61,239.76c.73,5.67,3.44,22.9,3.44,22.9-10.93,10.21-29.2,3-29.2,3-1.4-14.06,1.2-36.15,1.2-36.17,.75-3.91,4-9.27,8.13-10.25,3.28-.78,8.98-.35,13.54-.59,1.69-.09,3.34,3.26,3.52,4.45,.35,2.27-1.03,5.26-.8,7.53,.76,7.67-.25,5.93,.16,9.13Z" style="fill:#3d96e3;"/><path d="M167.93,249.61c9.13-2.16,10.09-7.57,10.09-7.57-2.4-6.85-7.84-17.49-7.84-17.49-1.68-3.48-3.36-4.93-7.09-5.77,0,0-5.37,1.74-3.57,10.58,0,0,3.78,14.55,8.41,20.25Z" style="fill:#3d96e3;"/><path d="M163.08,193.98c.24,2.66-3.19,5.63-4.29,7.21-.84,1.21-.2,2.73,.36,4.66-.27,.04-1.11,.79-1.17,.55-.2-.92-.74-1.87-1.12-2-1.6-.56-2.29,1.13-2.08,1.84,.28,1,1.75,.92,1.65,2.76-.08,1.44-1.03,3.69-1.84,5.29-.91,1.79-2.07,1.33-3.69,.2-1.26-.87-2.85-2.7-3.68-4.01-.93-1.45-2.18-3.72-2.48-5.37-.74-3.95,.12-6.81,3.81-9.37,2.08-1.44,5.57-2.96,8.14-2.88,0,0,5.04-.65,6.4,1.12Z" style="fill:#26211f;"/><g><path d="M187.36,297.6s-.05,0-.08-.01c-.12-.05-.19-.18-.14-.31,1.01-2.81,1.72-4.96,2.4-7.05,.36-1.11,.71-2.18,1.09-3.28,1.09-3.21,2.45-7.21,2.27-10.96-.18-3.68-2.38-6.46-6.04-7.63-.13-.04-.19-.18-.15-.3,.04-.13,.18-.19,.3-.16,3.86,1.23,6.18,4.17,6.37,8.07,.19,3.85-1.19,7.89-2.29,11.14-.38,1.1-.73,2.17-1.09,3.27-.68,2.09-1.39,4.25-2.4,7.06-.03,.1-.13,.16-.23,.16Z" style="fill:#101c27;"/><path d="M174.02,306.97s-.02,0-.03,0c-.13-.02-.22-.14-.2-.27,.31-2.22,.84-5.2,1.47-8.19,.45-2.15,1.1-4.31,1.73-6.39,.43-1.41,.87-2.87,1.25-4.31,1.15-4.41,2.75-8.79,4.28-11.7,.06-.12,.21-.16,.32-.1,.12,.06,.16,.21,.1,.32-1.52,2.89-3.11,7.23-4.25,11.6-.38,1.46-.82,2.92-1.25,4.33-.63,2.07-1.28,4.22-1.72,6.35-.63,2.97-1.16,5.94-1.47,8.15-.02,.12-.12,.21-.24,.21Z" style="fill:#101c27;"/><path d="M180.93,280.23s-.05,0-.07-.01c-.13-.04-.19-.18-.15-.3,.08-.25,.05-.46-.08-.66-.76-1.15-4.56-1.45-5.99-1.56-.21-.02-.39-.03-.52-.04-2.27-.23-5.67-.16-8.67-.1-1.2,.02-2.32,.05-3.26,.05-.13,0-.24-.11-.24-.24s.11-.24,.24-.24c.93,0,2.05-.02,3.25-.04,3.02-.06,6.44-.12,8.73,.11,.13,.01,.3,.03,.51,.04,2.7,.21,5.56,.6,6.35,1.78,.22,.33,.26,.69,.14,1.08-.03,.1-.13,.17-.23,.17Z" style="fill:#101c27;"/><path d="M181.05,280.1s-.04,0-.07-.01c-.1-.03-.17-.13-.17-.23,.02-1.29-.54-2.98-1.61-3.55-.12-.06-.16-.21-.1-.32,.06-.12,.21-.16,.32-.1,1.28,.68,1.79,2.44,1.86,3.65,.07,.07,.09,.17,.05,.26-.03,.08-.04,.14-.08,.2-.04,.07-.12,.11-.2,.11Z" style="fill:#101c27;"/><path d="M202.3,303.36c-.12,0-.22-.08-.24-.2-.37-2.43-.7-4.38-1.03-6.17-1.32-7.07-2.96-12.65-5.85-19.89-.05-.12,.01-.26,.13-.31,.12-.05,.26,.01,.31,.13,2.9,7.28,4.54,12.88,5.87,19.98,.33,1.79,.66,3.75,1.03,6.18,.02,.13-.07,.25-.2,.27-.01,0-.03,0-.04,0Z" style="fill:#101c27;"/><path d="M197.57,312.57c-.07,0-.13-.03-.18-.08-2.73-3.06-4.31-6.86-5.83-10.53l-.17-.41c-.47-1.13-.85-2.41-1.44-4.34-.18-.61-.38-1.27-.61-2.02-.04-.13,.03-.26,.16-.3,.13-.04,.26,.03,.3,.16,.23,.75,.43,1.42,.62,2.02,.58,1.92,.97,3.19,1.42,4.3l.17,.41c1.51,3.64,3.07,7.4,5.75,10.4,.09,.1,.08,.25-.02,.34-.05,.04-.1,.06-.16,.06Z" style="fill:#101c27;"/></g><g><path d="M167.69,249.14c-.08,0-.16-.04-.2-.12-.46-.78-2.62-5.58-3.06-6.6-.51-1.2-.92-2.08-1.27-2.86-.73-1.59-1.25-2.75-2.13-5.28l-.24-.69c-1.15-3.28-3.07-8.78-.99-11.85,.07-.11,.22-.14,.33-.06,.11,.07,.14,.22,.06,.33-1.94,2.88-.07,8.23,1.04,11.43l.24,.69c.86,2.51,1.39,3.66,2.11,5.24,.36,.78,.76,1.67,1.28,2.87,.42,.98,2.59,5.8,3.03,6.54,.07,.11,.03,.26-.08,.33-.04,.02-.08,.03-.12,.03Z" style="fill:#2f74b0;"/><path d="M139.78,251.7c-.09,0-.18-.05-.22-.14-.23-.53-.15-1.17-.07-1.73,.02-.15,.04-.29,.05-.43,.23-2.45,.25-5.07,.27-7.6,.04-6.02,.08-12.25,2.89-17.49,.06-.12,.21-.16,.32-.1,.12,.06,.16,.21,.1,.32-2.74,5.13-2.79,11.3-2.83,17.26-.02,2.54-.04,5.17-.27,7.64-.01,.14-.03,.29-.05,.45-.07,.53-.14,1.07,.03,1.48,.05,.12,0,.26-.12,.32-.03,.01-.06,.02-.1,.02Z" style="fill:#d2a18a;"/><path d="M153.89,264.99c-.43,0-.86-.02-1.31-.07-1.59-.17-2.28-.84-3.34-1.85-.09-.09-.1-.25-.01-.34,.09-.09,.24-.1,.33-.01h.01c1.02,.99,1.64,1.58,3.06,1.74,1.96,.21,3.7-.06,5.34-.82,2.2-1.02,3.87-2.55,5.68-4.29,.91-.88,1.71-1.29,2.96-.78,.02-.05,.07-.08,.12-.1,.12-.05,.26,0,.31,.13,.02,.04,.03,.08,.04,.12,.02,.06,.03,.1,.06,.14,.07,.09,.07,.22,0,.3-.07,.09-.2,.11-.3,.06-1.15-.63-1.82-.52-2.85,.48-1.84,1.77-3.55,3.32-5.81,4.38-1.34,.62-2.75,.93-4.28,.93Z" style="fill:#2f74b0;"/><path d="M150.31,219.42c-.12,0-.22-.09-.24-.21-.02-.13,.07-.25,.2-.27,2.37-.33,5.79-.48,7.96-.48,.13,0,.24,.11,.24,.24s-.11,.24-.24,.24c-2.23,0-5.65,.16-7.9,.48-.01,0-.02,0-.03,0Z" style="fill:#d2a18a;"/><path d="M172.82,247.93c-.11,0-.21-.07-.23-.19-.03-.13,.05-.26,.18-.29,1.6-.37,5.16-3.77,5.02-5.51-.01-.13,.09-.25,.22-.26,.13-.01,.25,.09,.26,.22,.16,2.01-3.58,5.6-5.39,6.02-.02,0-.04,0-.05,0Z" style="fill:#2f74b0;"/></g><path d="M158.36,205.95c0,1.05-.56,2.8-1.61,2.8s-2.2-1.75-2.2-2.8,.85-1.9,1.9-1.9,1.9,.85,1.9,1.9Z" style="fill:#e5b49f;"/></g><g><path d="M163.76,262.41c0,.98-.79,1.77-1.77,1.77h-32.18c-.98,0-1.77-.79-1.77-1.77l-4.57-35.62c0-.98,.79-1.77,1.77-1.77h32.18c.98,0,1.77,.79,1.77,1.77l4.57,35.62Z" style="fill:#233b73;"/><polygon points="150.96 278.55 144.59 278.55 139.05 250.67 145.42 250.67 150.96 278.55" style="fill:#2a2b45;"/><rect x="149.13" y="290.5" width="8.13" height="7.61" style="fill:#27263f;"/><g><path d="M129.24,281.41c0,2.57,1.83,4.66,4.09,4.66h32.63c2.26,0,4.09-2.09,4.09-4.66h0c0-2.57-1.83-4.66-4.09-4.66h-32.63c-2.26,0-4.09,2.08-4.09,4.66h0Z" style="fill:#2d4d98;"/><path d="M177.87,286.07h-15.17c-2.26,0-4.09-2.09-4.09-4.66s1.83-4.66,4.09-4.66h15.17s5.39-.13,5.07,5.32c0,0-.21,3.99-5.07,3.99Z" style="fill:#233b73;"/></g><polygon points="169.06 290.54 135.61 290.54 134.28 286.07 170.39 286.07 169.06 290.54" style="fill:#343557;"/><polygon points="156.4 286.07 134.28 286.07 135.61 290.54 155.23 290.54 156.4 286.07" style="fill:#2a2b45;"/><rect x="150.89" y="298.11" width="4.62" height="16.88" style="fill:#a8c0d3;"/><rect x="150.89" y="298.11" width="1.98" height="16.88" style="fill:#cde0ef;"/><rect x="149.13" y="314.99" width="8.13" height="9.88" style="fill:#27263f;"/><polygon points="177.61 328.21 175.69 328.21 175.69 323.54 130.7 323.54 130.7 328.21 128.79 328.21 128.79 321.63 177.61 321.63 177.61 328.21" style="fill:#27263f;"/><rect x="141.19" y="322.54" width="1.91" height="5.67" style="fill:#27263f;"/><rect x="164.75" y="322.73" width="1.91" height="5.67" style="fill:#27263f;"/><g><path d="M133.34,330.32c0,2.03-1.64,3.67-3.67,3.67s-3.67-1.64-3.67-3.67,1.64-3.67,3.67-3.67,3.67,1.64,3.67,3.67Z" style="fill:#2a2f3b;"/><path d="M131.5,330.32c0,1.01-.82,1.83-1.83,1.83s-1.83-.82-1.83-1.83,.82-1.83,1.83-1.83,1.83,.82,1.83,1.83Z" style="fill:#181627;"/></g><g><path d="M145.81,330.32c0,2.03-1.64,3.67-3.67,3.67s-3.67-1.64-3.67-3.67,1.64-3.67,3.67-3.67,3.67,1.64,3.67,3.67Z" style="fill:#2a2f3b;"/><path d="M143.98,330.32c0,1.01-.82,1.83-1.83,1.83s-1.84-.82-1.84-1.83,.82-1.83,1.84-1.83,1.83,.82,1.83,1.83Z" style="fill:#181627;"/></g><g><path d="M169.37,330.32c0,2.03-1.64,3.67-3.67,3.67s-3.67-1.64-3.67-3.67,1.64-3.67,3.67-3.67,3.67,1.64,3.67,3.67Z" style="fill:#2a2f3b;"/><path d="M167.54,330.32c0,1.01-.82,1.83-1.83,1.83s-1.83-.82-1.83-1.83,.82-1.83,1.83-1.83,1.83,.82,1.83,1.83Z" style="fill:#181627;"/></g><g><path d="M180.32,330.32c0,2.03-1.64,3.67-3.67,3.67s-3.67-1.64-3.67-3.67,1.64-3.67,3.67-3.67,3.67,1.64,3.67,3.67Z" style="fill:#2a2f3b;"/><path d="M178.48,330.32c0,1.01-.82,1.83-1.83,1.83s-1.84-.82-1.84-1.83,.82-1.83,1.84-1.83,1.83,.82,1.83,1.83Z" style="fill:#181627;"/></g><path d="M161.84,262.41c0,.98-.79,1.77-1.77,1.77h-32.18c-.98,0-1.77-.79-1.77-1.77l-4.57-35.62c0-.98,.79-1.77,1.77-1.77h32.18c.98,0,1.77,.79,1.77,1.77l4.57,35.62Z" style="fill:#2d4d98;"/></g></g></g><rect x="187.21" y="211.83" width="51.92" height="19.37" rx="2.22" ry="2.22" style="fill:#cbe2f8;"/><g><g><rect x="189.02" y="227.45" width="7.28" height=".45" style="fill:#a1bde3;"/><rect x="189.02" y="229.6" width="5.89" height=".45" style="fill:#a1bde3;"/><rect x="189.02" y="228.52" width="3.45" height=".45" style="fill:#a1bde3;"/></g><path d="M198.21,216.24v.23h1.33v1.25h.23v-1.48h-1.56Zm-9.06,1.48h.23v-1.25h1.33v-.23h-1.56v1.48Zm10.4,6.46v1.25h-1.33v.23h1.56v-1.48h-.23Zm-10.17,0h-.23v1.48h1.56v-.23h-1.33v-1.25Z" style="fill:#6696e2;"/><g><path d="M199.06,230.08c-.74,0-1.33-.6-1.33-1.33s.6-1.33,1.33-1.33,1.33,.6,1.33,1.33-.6,1.33-1.33,1.33Zm0-2.41c-.59,0-1.08,.48-1.08,1.08s.48,1.08,1.08,1.08,1.08-.48,1.08-1.08-.48-1.08-1.08-1.08Z" style="fill:#6696e2;"/><polygon points="198.98 229.27 198.37 228.67 198.56 228.48 198.98 228.91 199.57 228.31 199.76 228.5 198.98 229.27" style="fill:#6696e2;"/></g><g><path d="M189.19,224.08h.76s.03-.06,.03-.08c.23-.53,1.39-1.75,1.39-1.75h0v.02h0c.05,.19,.28,1.07,.4,1.81h5.14c.01-.07,.03-.13,.04-.19,.05-.18,.08-.36,.1-.53v-.03s0-.06,.01-.09c.04-.46,.01-.81,0-.85,.01,.03,.12,.41,.25,.88,.07,.26,.16,.54,.24,.81h1.21l-1.52-4.39s-.43-.22-.72-.35c-.29-.14-.65-.35-.97-.52-.16-.09-.32-.17-.45-.23h-.02c-.22-.11-.37-.18-.37-.18h-.1c-.31-.04-1.27-.13-1.59-.15-.03,0-.05,0-.07,0-.01,0-.03,0-.03,0-.04,0-.24,.07-.5,.17h-.03l-.04,.03s-.05,.02-.07,.03c-.05,.02-.09,.04-.14,.06l-.05,.02c-.52,.21-1.12,.46-1.26,.56-.09,.07-.39,.62-.72,1.29-.36,1.16-.81,2.84-.95,3.67Z" style="fill:#d7c9c2;"/><path d="M192.96,218.1c.01,.69,1.35,1.07,1.35,1.07,0,0,.56-.7,.43-.77-.05-.03-.07-.13-.08-.25,0-.11,0-.23,0-.31,0-.05,0-.08,0-.08,0,0-.19-.2-.43-.44-.42-.42-1.01-.96-1.01-.74,0,.01,0,.02,0,.04,.1,.48-.27,1.49-.27,1.49Z" style="fill:#dba585;"/><path d="M193.47,217.09h0s.06,.09,.16,.21c.21,.26,.59,.68,1.02,.85,0-.11,0-.23,0-.31,.04,0,.09,0,.13-.02-.12-.21-.29-.43-.29-.43l-.27-.08-.76-.23Z" style="fill:#997761;"/><path d="M193.21,216.59c.12,.25,.23,.43,.26,.51h0s.08,.12,.16,.21c.22,.24,.63,.55,1.03,.54,.04,0,.09,0,.13-.02,.16-.04,.35-.11,.46-.32,.83-1.63,.23-2.97,.23-2.97,0,0-2.28-.64-2.64,.04-.25,.48,.1,1.41,.37,2Z" style="fill:#dba585;"/><path d="M195.48,214.54s.21-.01,.26-.41c.05-.4-.05-.51-.05-.51,0,0-.94-.39-1.28-.45s-1.17-.1-1.36,.12c0,0-.47-.11-.6,.68-.2,1.25,.7,2.46,.7,2.46,0,0,0-.81,.17-.92,.18-.11,.33,.15,.33,.15l.37,.07s-.56-1.21,.11-1.25c.67-.04,.97,.14,1.35,.07Z" style="fill:#cd7250;"/><path d="M193.64,215.33c-.03-.36-.68-.5-.64-.12,.04,.38,.36,.74,.51,.72,.15-.01,.16-.33,.13-.61Z" style="fill:#dba585;"/><path d="M189.16,224.08h1.57c.03-.88,.63-1.83,.63-1.83h0v.02h0c.08,.34,.14,1.17,.17,1.81h2.49s.01-.1,.02-.15c.07-.61,.12-1.15,.15-1.52,.11-1.17-.61-2.45-1.16-3.23-.3-.42-.54-.7-.59-.75h-.03l-.04,.02s-.05,.02-.07,.03c-.05,.02-.09,.04-.14,.06l-.05,.02c-.53,.21-1.66,.52-1.8,.62-.08,.06-.26,.59-.48,1.27-.36,1.16-.6,2.82-.68,3.64Z" style="fill:#404347;"/><path d="M195.11,218.59s.19,.63,.43,2.19h0c0,.05,.02,.11,.03,.16v.02s.01,.07,.02,.11h0s0,.06,.01,.09c0,.06,.02,.12,.03,.19,.09,.64,.21,1.65,.34,2.73h.98c.05-.3,.1-.57,.1-.76h0c.08,.23,.17,.47,.25,.7l.02,.06h1.7l-1.69-4.42s-.47-.26-.76-.4c-.3-.14-.68-.32-1.02-.47-.16-.07-.31-.14-.44-.2h-.01Z" style="fill:#404347;"/><path d="M192.82,220.14l.65,.37-.28,.28,.61,3.29h.23c.08-.67,.13-1.26,.17-1.67,.17-1.82-1.64-3.86-1.75-3.99-.09,.03-.18,.07-.28,.11l.65,1.61Z" style="fill:#53575c;"/><path d="M195.1,218.57s.24,.79,.53,2.77c.09,.64,.21,1.65,.34,2.73h.1l.13-3.11-.31-.34,.28-.34-.59-1.5c-.16-.07-.31-.14-.44-.2h-.02Z" style="fill:#53575c;"/><path d="M192.42,218.43l.54-.33s.02,.3,1.35,1.07l-.38,1.07-1.51-1.81Z" style="fill:#eee0d7;"/><path d="M194.66,218.25s-.02,.32-.36,.92l.74,.96,.05-1.56-.44-.32Z" style="fill:#eee0d7;"/><path d="M194.3,219.17s-.14,.57-.09,.73c0,0,.32,.11,.54-.03,0,0-.16-.4-.45-.71Z" style="fill:#b74242;"/><path d="M194.48,221.12c.15,1.03,.15,2.07,.1,2.96h.63c0-.12,.02-.25,.02-.39,.12-2.04-.6-3.86-.6-3.86l-.32-.08s.1,.9,.17,1.38Z" style="fill:#b74242;"/><path d="M197.03,222.39c.02,.49,.02,.92,.02,.92h0v.01c.08,.22,.17,.45,.26,.69,.02-.27,.03-.52,.02-.75-.04-1.37-.47-2.09-.47-2.09,.1,.24,.15,.75,.17,1.22Z" style="fill:#323436;"/></g></g><g><g><g><rect x="206.9" y="227.02" width="7.28" height=".45" style="fill:#a1bde3;"/><rect x="206.9" y="229.17" width="5.89" height=".45" style="fill:#a1bde3;"/><rect x="206.9" y="228.09" width="3.45" height=".45" style="fill:#a1bde3;"/></g><path d="M216.09,215.81v.23h1.33v1.25h.23v-1.48h-1.56Zm-9.06,1.48h.23v-1.25h1.33v-.23h-1.56v1.48Zm10.4,6.46v1.25h-1.33v.23h1.56v-1.48h-.23Zm-10.17,0h-.23v1.48h1.56v-.23h-1.33v-1.25Z" style="fill:#6696e2;"/></g><g><path d="M216.62,220.73c-.37-.98-1.26-1.43-1.69-1.57-.15-.05-.42-.14-.7-.23-.51-.16-1.06-.34-1.06-.34h-1.76s-.61,.2-1.25,.43h0c-.6,.21-1.22,.44-1.43,.54-.44,.22-1.18,1.8-1.33,1.98-.08,.09-.42,.71-.76,1.39h1.89c.2-.34,.35-.61,.35-.61,0,0,.12,.26,.26,.61h6.06c.1-.4,.16-.91,.16-.91,0,0,.32,.44,.68,.91h1.75c-.42-.71-.95-1.64-1.16-2.19Z" style="fill:#435468;"/><path d="M212.5,213.76s1.37,.22,1.16,2.36c-.21,2.15-1.42,1.97-1.5,1.97-.08,0-1.22,.04-1.3-2.58,0,0-.04-1.94,1.64-1.75Z" style="fill:#dba585;"/><path d="M213.68,215.52s.15-.16,.21,0c.06,.16-.21,.89-.21,.92,0,0-.03,.06-.06,.03-.04-.03,.07-.95,.07-.95Z" style="fill:#dba585;"/><path d="M210.89,215.49s-.15-.16-.21,0c-.06,.16,.19,.89,.2,.93,0,0,.03,.06,.06,.03,.04-.03-.05-.95-.05-.95Z" style="fill:#dba585;"/><path d="M213.68,215.85l-.2,.26s0-.58-.03-.67c-.03-.09-.08-.37-.11-.43-.03-.07-1.18-.39-2.2,.09,0,0,.04,.41-.05,.45-.1,.04-.05,.67-.05,.67l-.16-.18s-.25-1.65-.19-1.82c.06-.17,.26-1.21,2.34-.59,0,0,.65-.14,.78,.31,.13,.45-.15,1.9-.15,1.9Z" style="fill:#454545;"/><path d="M213.34,218.55l-.18-.09c-.09-.19-.02-1-.02-1,0,0-1.75-.44-1.7-.1,.05,.34-.15,1.13-.15,1.13l-.9,.45s.96,2.57,2.05,2.23c1.1-.33,1.51-2.33,1.51-2.33l-.62-.29Z" style="fill:#dba585;"/><path d="M211.46,217.74s.28,.36,.77,.36c.32,0,.55-.09,.87-.4,0,0-.14,.59-.87,.65,0,0-.53,.07-.77-.61Z" style="fill:#997761;"/></g></g><g><g><rect x="225.73" y="226.92" width="7.28" height=".45" style="fill:#a1bde3;"/><rect x="225.73" y="229.08" width="5.89" height=".45" style="fill:#a1bde3;"/><rect x="225.73" y="228" width="3.45" height=".45" style="fill:#a1bde3;"/></g><path d="M234.91,215.72v.23h1.33v1.25h.23v-1.48h-1.56Zm-9.06,1.48h.23v-1.25h1.33v-.23h-1.56v1.48Zm10.4,6.46v1.25h-1.33v.23h1.56v-1.48h-.23Zm-10.17,0h-.23v1.48h1.56v-.23h-1.33v-1.25Z" style="fill:#6696e2;"/></g><g><path d="M235.44,220.64c-.37-.98-1.26-1.43-1.69-1.57-.15-.05-.42-.14-.7-.23-.51-.16-1.06-.34-1.06-.34h-1.76s-.61,.2-1.25,.43h0c-.6,.21-1.22,.44-1.43,.54-.44,.22-1.18,1.8-1.33,1.98-.08,.09-.42,.71-.76,1.39h1.89c.2-.34,.35-.61,.35-.61,0,0,.12,.26,.26,.61h6.06c.1-.4,.16-.91,.16-.91,0,0,.32,.44,.68,.91h1.75c-.42-.71-.95-1.64-1.16-2.19Z" style="fill:#5070ad;"/><path d="M231.32,213.67s1.37,.22,1.16,2.36c-.21,2.15-1.42,1.97-1.5,1.97-.08,0-1.22,.04-1.3-2.58,0,0-.04-1.94,1.64-1.75Z" style="fill:#dba585;"/><path d="M232.51,215.43s.15-.16,.21,0c.06,.16-.21,.89-.21,.92,0,0-.03,.06-.06,.03-.04-.03,.07-.95,.07-.95Z" style="fill:#dba585;"/><path d="M229.72,215.4s-.15-.16-.21,0c-.06,.16,.19,.89,.2,.93,0,0,.03,.06,.06,.03,.04-.03-.05-.95-.05-.95Z" style="fill:#dba585;"/><path d="M232.51,215.75l-.2,.26s0-.58-.03-.67c-.03-.09-.08-.37-.11-.43-.03-.07-1.18-.39-2.2,.09,0,0,.04,.41-.05,.45-.1,.04-.05,.67-.05,.67l-.16-.18s-.25-1.65-.19-1.82c.06-.17,.26-1.21,2.34-.59,0,0,.65-.14,.78,.31,.13,.45-.15,1.9-.15,1.9Z" style="fill:#454545;"/><path d="M232.16,218.45l-.18-.09c-.09-.19-.02-1-.02-1,0,0-1.75-.44-1.7-.1,.05,.34-.15,1.13-.15,1.13l-.9,.45s.96,2.57,2.05,2.23c1.1-.33,1.51-2.33,1.51-2.33l-.62-.29Z" style="fill:#dba585;"/><path d="M230.29,217.64s.28,.36,.77,.36c.32,0,.55-.09,.87-.4,0,0-.14,.59-.87,.65,0,0-.53,.07-.77-.61Z" style="fill:#997761;"/></g><rect x="188.99" y="234.19" width="44.02" height="2.11" style="fill:#c5d0e6;"/><rect x="189.16" y="237.59" width="17.13" height="1.63" style="fill:#c5d0e6;"/><rect x="189.16" y="240.58" width="28.49" height="1.63" style="fill:#c5d0e6;"/></g></svg>