<?xml version="1.0" encoding="UTF-8"?><svg xmlns="http://www.w3.org/2000/svg" viewBox="0 0 600 350"><g id="a"/><g id="b"><ellipse id="c" cx="203.73" cy="329.23" rx="183.03" ry="10.69" style="fill:#f5f5f5;"/></g><g id="d"/><g id="e"><g><path d="M64.34,41.98h30.7c5.83,0,10.56,4.73,10.56,10.56v12.74c0,5.83-4.73,10.56-10.56,10.56h-5.17l-1.23,7.58-5.87-7.58h-18.43c-5.83,0-10.56-4.73-10.56-10.56v-12.74c0-5.83,4.73-10.56,10.56-10.56Z" style="fill:#407bff;"/><path d="M64.34,41.98h30.7c5.83,0,10.56,4.73,10.56,10.56v12.74c0,5.83-4.73,10.56-10.56,10.56h-5.17l-1.23,7.58-5.87-7.58h-18.43c-5.83,0-10.56-4.73-10.56-10.56v-12.74c0-5.83,4.73-10.56,10.56-10.56Z" style="fill:#f3ad44;"/><g><path d="M91.65,58.18c0,1.18,.95,2.13,2.13,2.13s2.13-.95,2.13-2.13-.95-2.13-2.13-2.13-2.13,.95-2.13,2.13Z" style="fill:#fff;"/><path d="M82.26,58.18c0,1.18,.95,2.13,2.13,2.13s2.13-.95,2.13-2.13-.95-2.13-2.13-2.13-2.13,.95-2.13,2.13Z" style="fill:#fff;"/><path d="M72.86,58.18c0,1.18,.95,2.13,2.13,2.13s2.13-.95,2.13-2.13-.95-2.13-2.13-2.13-2.13,.95-2.13,2.13Z" style="fill:#fff;"/><path d="M63.46,58.18c0,1.18,.95,2.13,2.13,2.13s2.13-.95,2.13-2.13-.95-2.13-2.13-2.13-2.13,.95-2.13,2.13Z" style="fill:#fff;"/></g></g></g><g id="f"><g><g><path d="M231.36,324.88v3.56c0,.44-.36,.8-.8,.8h-100.5c-3.72,0-6.25-3.75-4.86-7.19l31.85-78.88,51.47,.35-1.76,10.23-11.35,66.24c-.37,2.14,1.28,4.1,3.45,4.1h31.71c.44,0,.8,.35,.8,.8Z" style="fill:#263238;"/><path d="M231.36,324.88v3.56c0,.44-.36,.8-.8,.8h-100.5c-3.72,0-6.25-3.75-4.86-7.19l19.75-48.9,12.1-29.98,51.47,.35-1.76,10.23-4.94,28.81-6.42,37.43c-.37,2.14,1.28,4.1,3.45,4.1h31.71c.44,0,.8,.35,.8,.8Z" style="fill:#fff; opacity:.6;"/><path d="M198.84,324.08h-65.39c-1.64,0-2.75-1.66-2.12-3.17l27.92-67.16h47.49l-11.35,66.24c-.37,2.14,1.28,4.1,3.45,4.1Z" style="fill:#fff; isolation:isolate; opacity:.4;"/><polygon points="208.5 243.51 206.75 253.75 201.81 282.55 144.94 273.14 157.04 243.16 208.5 243.51" style="isolation:isolate; opacity:.1;"/></g><g><path d="M308.58,96.47H70.31c-3.37,0-6.1,2.73-6.1,6.1v161.31c0,3.37,2.73,6.1,6.1,6.1h238.27c3.37,0,6.1-2.73,6.1-6.1V102.57c0-3.37-2.73-6.1-6.1-6.1Z" style="fill:#263238;"/><path d="M308.58,96.47H70.31c-3.37,0-6.1,2.73-6.1,6.1v161.31c0,3.37,2.73,6.1,6.1,6.1h238.27c3.37,0,6.1-2.73,6.1-6.1V102.57c0-3.37-2.73-6.1-6.1-6.1Z" style="fill:#fff; opacity:.8;"/><path d="M75.36,269.97h-5.05c-3.36,0-6.09-2.73-6.09-6.09V102.57c0-3.37,2.73-6.1,6.09-6.1h5.05c-3.36,0-6.09,2.73-6.09,6.1v161.31c0,3.36,2.73,6.09,6.09,6.09Z" style="isolation:isolate; opacity:.2;"/></g><rect x="74.77" y="101.71" width="234.42" height="155.55" style="fill:#7d9fd1;"/><g><g><path d="M149.1,106.47c1.47,5.21-.03,10.45-3.36,11.7-3.33,1.25-7.22-1.95-8.7-7.16-1.47-5.21,.03-10.45,3.36-11.7,3.33-1.26,7.22,1.95,8.7,7.16Z" style="fill:#263238;"/><path d="M149.1,106.47c1.47,5.21-.03,10.45-3.36,11.7-3.33,1.25-7.22-1.95-8.7-7.16-1.47-5.21,.03-10.45,3.36-11.7,3.33-1.26,7.22,1.95,8.7,7.16Z" style="fill:#fff; opacity:.2;"/><path d="M147.18,113.41s4.27,5.07,4.83,7.45c.56,2.38-2.05,3.25-4.06,3.67" style="fill:none; stroke:#263238; stroke-miterlimit:10; stroke-width:1.09px;"/></g><path d="M180.65,257.24h-15.29c.09-1.63,.17-3.33,.27-5.06,.09-1.59,.19-3.21,.29-4.84,.03-.4,.06-.81,.09-1.21,.92-13.27,2.43-26.58,4.82-26.54,.31,0,.63,.24,.97,.72,.39,.56,.78,1.29,1.17,2.18,3,6.86,5.84,22.74,7.68,34.76Z" style="fill:#263238;"/><path d="M174.66,257.24H93.48c0-8.01-.03-18.39-.51-30.26-.39-9.59-1.06-20.17-2.27-31.26-.7-6.35-1.57-12.89-2.65-19.48-.63-3.79-1.32-7.61-2.09-11.43-1.09-5.39-2.33-10.79-3.77-16.17,0,0,6.19-1.69,14.13-3.2,1.65-.32,3.38-.63,5.15-.91,1.5-.24,3.04-.46,4.58-.66,.02,0,.04,0,.07,0h0c.48-.07,.97-.13,1.46-.18,1.13-.13,2.31-.26,3.55-.4,0,0,0,0,0,0,1.85-.19,3.79-.4,5.77-.58,6.4-.6,13.27-1.09,18.9-1.2,.51,0,1.02,0,1.51-.02,.96,0,1.88,0,2.75,.02,1,.02,2.73,.11,3.53,.14h0c.26,.02,.42,.03,.42,.03l11.18,3.63,7.85,2.55s.37,1.68,.97,4.83h0c.71,3.72,1.75,9.46,2.91,16.92,1.16,7.39,2.43,16.47,3.59,26.91,0,0,0,0,0,.02,.89,7.91,1.73,16.61,2.42,25.94,.26,3.47,.49,7.04,.71,10.68,.24,4.12,.44,8.35,.62,12.66,.02,.4,.04,.82,.05,1.23,.06,1.55,.12,3.12,.16,4.7,.06,1.81,.11,3.63,.14,5.47Z" style="fill:#407bff;"/><g style="opacity:.7;"><path d="M174.66,257.24H93.48c0-8.01-.03-18.39-.51-30.26-.39-9.59-1.06-20.17-2.27-31.26-.7-6.35-1.57-12.89-2.65-19.48-.63-3.79-1.32-7.61-2.09-11.43-1.09-5.39-2.33-10.79-3.77-16.17,0,0,6.19-1.69,14.13-3.2,1.65-.32,3.38-.63,5.15-.91,1.5-.24,3.04-.46,4.58-.66,.02,0,.04,0,.07,0h0c.48-.07,.97-.13,1.46-.18,1.13-.13,2.31-.26,3.55-.4,0,0,0,0,0,0,1.85-.19,3.79-.4,5.77-.58,6.4-.6,13.27-1.09,18.9-1.2,.51,0,1.02,0,1.51-.02,.96,0,1.88,0,2.75,.02,1,.02,2.73,.11,3.53,.14h0c.26,.02,.42,.03,.42,.03l11.18,3.63,7.85,2.55s.37,1.68,.97,4.83h0c.71,3.72,1.75,9.46,2.91,16.92,1.16,7.39,2.43,16.47,3.59,26.91,0,0,0,0,0,.02,.89,7.91,1.73,16.61,2.42,25.94,.26,3.47,.49,7.04,.71,10.68,.24,4.12,.44,8.35,.62,12.66,.02,.4,.04,.82,.05,1.23,.06,1.55,.12,3.12,.16,4.7,.06,1.81,.11,3.63,.14,5.47Z" style="fill:#fff;"/></g><polygon points="176.17 257.24 97.29 257.24 98.83 248.58 106.12 248.31 166.01 246.13 174.3 245.83 174.78 245.81 174.93 247.04 174.93 247.04 175.49 251.72 176.17 257.24" style="fill:#263238;"/><polygon points="176.17 257.24 97.29 257.24 98.83 248.58 106.12 248.31 166.01 246.13 174.3 245.83 174.78 245.81 174.93 247.04 174.93 247.04 175.49 251.72 176.17 257.24" style="fill:#fff; opacity:.4;"/><g><polygon points="125.79 248.69 125.94 254.06 98.43 255.37 99.83 249.56 125.79 248.69"/><polygon points="166.39 247.33 166.92 252.12 127.6 253.98 127.53 248.63 166.39 247.33"/><polygon points="175.49 251.71 168.58 252.04 168.11 247.27 174.94 247.04 175.49 251.71"/><path d="M143.09,248.84l.34,3.74c.03,.36,.35,.64,.71,.62l7.65-.29c.39-.01,.69-.35,.66-.74l-.27-3.71c-.03-.37-.34-.65-.71-.64l-7.72,.26c-.39,.01-.7,.36-.66,.75Z" style="fill:none; stroke:#fff; stroke-miterlimit:10; stroke-width:1.09px;"/><line x1="149.5" y1="250.34" x2="151.1" y2="250.26" style="fill:none; stroke:#fff; stroke-linecap:round; stroke-linejoin:round; stroke-width:1.09px;"/></g><g><path d="M245.41,184.34l15.44-2.06-9.45-14.46s-13.67,2.67-11.99,9.65l6,6.87Z" style="fill:#ebb376;"/><polygon points="272.85 172.58 260.5 162.9 251.4 167.81 260.85 182.28 272.85 172.58" style="fill:#ebb376;"/></g><path d="M164.29,144.25c10.5,1.81,34.66,49.73,34.66,49.73l40.75-21.93,9.35,13.17s-42.59,35.26-53.73,32.96c-11.15-2.3-32.28-31.16-32.28-31.16l1.25-42.75Z" style="fill:#263238;"/><path d="M249.05,185.21s-42.59,35.26-53.74,32.95c-4.1-.85-9.56-5.29-14.81-10.58-9.03-9.06-17.47-20.59-17.47-20.59l.28-9.64,.96-33.11c10.5,1.8,34.67,49.72,34.67,49.72l40.75-21.93,9.35,13.16Z" style="fill:#fff; opacity:.2;"/><path d="M180.5,207.59c-9.03-9.06-17.47-20.59-17.47-20.59l.28-9.64,1.98-10.35s11.12,15.77,15.21,40.57Z" style="opacity:.2;"/><g><path d="M110.13,142.79s19.82,9.92,24.94,8.8c3.59-.78,7.57-7.75,7.57-7.75-2.9-.8-5.04-1.94-6.54-3.33-4.56-4.14-3.73-10.49-1.96-16.51l-19.24-17.68c.65,4.2,1.22,9.82,1.19,15.46v.02c-.01,8.43-1.41,16.95-5.97,20.99Z" style="fill:#ebb376;"/><path d="M116.1,121.78v.02c3.44,8.75,9.57,18.41,20.01,18.72-4.56-4.14-3.73-10.49-1.96-16.51l-19.24-17.68c.65,4.2,1.22,9.82,1.19,15.46Z" style="opacity:.2;"/></g><g><path d="M110.09,199.62v.09c0,.79-.03,1.59-.05,2.42v.07c-.06,2.06-.13,4.24-.25,6.52v.13c-.07,1.33-.14,2.7-.23,4.11,0,.06,0,.12,0,.17-.06,.91-.12,1.83-.17,2.77-.31,4.58-.72,9.47-1.22,14.6-.1,1-.2,2.01-.31,3.04-.13,1.26-.27,2.54-.4,3.83-.12,1.03-.23,2.06-.36,3.11-.31,2.57-.63,5.2-.96,7.85-.05,.35-.1,.69-.13,1.04-.02,.11-.03,.22-.05,.33-.24,1.77-.48,3.57-.73,5.37-.11,.73-.21,1.46-.31,2.19h-13.54c0-.23,.02-.47,.03-.7,.15-4.41,.2-8.81,.06-13.03-.06-1.71-.14-3.38-.26-5.03-.03-.43-.07-.88-.1-1.33-.11-1.35-.23-2.77-.38-4.25-.62-6.39-1.52-13.93-2.58-21.82,0-.05,0-.09-.02-.13-.16-1.22-.33-2.45-.5-3.68-.05-.41-.12-.84-.17-1.26-.12-.82-.22-1.64-.34-2.46-.14-.92-.26-1.83-.4-2.76h0c-.18-1.27-.37-2.54-.55-3.81-.13-.93-.27-1.85-.4-2.77-.25-1.68-.5-3.35-.75-5-.43-2.92-.87-5.79-1.3-8.57-.18-1.16-.37-2.3-.54-3.43-.18-1.13-.36-2.24-.52-3.32-.09-.54-.17-1.07-.26-1.59-.21-1.33-.41-2.63-.62-3.89-.08-.5-.16-.99-.24-1.48-.13-.8-.25-1.57-.38-2.33-.07-.4-.13-.79-.19-1.19-.04-.22-.08-.44-.11-.67-.11-.63-.2-1.23-.3-1.82-.14-.87-.28-1.71-.41-2.5-.06-.38-.13-.75-.18-1.11-.04-.22-.07-.44-.11-.67-.81-4.84-1.31-7.74-1.31-7.74,0,0,0,0,0,0h0s.03-.02,.06-.03c.14-.07,.52-.21,1.14-.42,.17-.06,.37-.13,.58-.2,.14-.05,.31-.11,.48-.15,1.63-.54,4.13-1.28,7.41-2.05,1.43-.33,2.99-.67,4.7-1,.54-.1,1.09-.2,1.66-.3,.75-.13,1.53-.27,2.34-.4,2.4-.38,5.03-.72,7.86-1.01,.4-.04,.8-.08,1.21-.12h0s.04,.21,.12,.64c.06,.35,.13,.84,.23,1.47,0,0,0,0,0,.02,0,.04,0,.09,0,.13,0,.03,.02,.06,.02,.1,.04,.23,.08,.48,.12,.75,.13,.87,.29,1.9,.45,3.07,.03,.2,.06,.4,.09,.62,.06,.41,.12,.84,.17,1.28,.06,.44,.13,.92,.18,1.4,.06,.47,.13,.96,.18,1.47,.33,2.64,.67,5.7,1,9.1,.04,.4,.08,.83,.12,1.25,.1,1.12,.2,2.27,.3,3.46,.02,.21,.04,.42,.05,.65,.08,.86,.14,1.73,.2,2.62,.03,.38,.06,.74,.08,1.12,.03,.38,.06,.76,.08,1.14,.03,.39,.06,.77,.08,1.16,.04,.62,.08,1.24,.12,1.88,.02,.31,.03,.63,.05,.94,.03,.5,.06,1.01,.09,1.53,0,.27,.02,.55,.04,.83,.29,6.16,.43,12.83,.32,19.78Z" style="fill:#263238;"/><path d="M110.1,199.63s0,.03,0,.04c0,.02,0,.03,0,.03,0,.79-.03,1.6-.06,2.43v.07c-.05,2.06-.13,4.24-.25,6.52v.13c-.07,1.33-.14,2.7-.23,4.11,0,.06,0,.12,0,.17-.05,.91-.11,1.83-.17,2.77-.31,4.58-.72,9.47-1.22,14.6-.1,1-.2,2.01-.31,3.04-.13,1.26-.27,2.54-.4,3.83-.12,1.03-.24,2.06-.36,3.11-.31,2.57-.63,5.2-.96,7.85-.05,.35-.1,.69-.13,1.04h0c0,.11-.03,.22-.04,.33-.24,1.77-.48,3.57-.73,5.37-.11,.73-.21,1.46-.31,2.19h-13.54c0,.11,0,.2-.02,.31,0-.11,0-.21,0-.31,0-.23,.02-.47,.04-.7,.15-4.41,.2-8.81,.06-13.03-.05-1.71-.13-3.39-.25-5.03-.03-.43-.07-.88-.11-1.33-.11-1.35-.23-2.77-.38-4.25-.6-6.39-1.51-13.93-2.58-21.82,0-.05,0-.09-.02-.13-.09-.66-.17-1.3-.26-1.96-.08-.58-.15-1.15-.24-1.73-.05-.41-.12-.84-.17-1.26-.11-.82-.22-1.64-.34-2.46-.14-.92-.26-1.83-.4-2.76h0c-.18-1.27-.37-2.54-.55-3.81-.13-.93-.27-1.85-.4-2.77-.25-1.68-.5-3.35-.75-5-.43-2.92-.87-5.79-1.3-8.57-.09-.51-.16-1-.24-1.5-.1-.65-.2-1.29-.3-1.93-.18-1.13-.36-2.24-.52-3.32-.09-.54-.17-1.07-.26-1.59-.21-1.33-.41-2.63-.62-3.89-.08-.5-.16-1-.24-1.48-.13-.8-.25-1.57-.38-2.33-.07-.4-.13-.79-.19-1.19-.04-.22-.08-.44-.11-.67-.11-.63-.2-1.23-.3-1.82-.14-.87-.28-1.71-.41-2.5-.06-.38-.13-.75-.18-1.11-.04-.22-.07-.44-.11-.67-.77-4.67-1.26-7.55-1.3-7.74h0s.03-.02,.06-.03c.14-.07,.52-.21,1.14-.42,.17-.07,.37-.13,.58-.2,.14-.05,.31-.11,.48-.15,1.63-.54,4.13-1.28,7.41-2.05,1.43-.33,2.99-.67,4.7-1,.54-.1,1.09-.2,1.66-.3,.75-.13,1.53-.27,2.34-.4,2.4-.38,5.03-.72,7.86-1.01,.4-.05,.81-.09,1.21-.13h0s0,.04,0,.06h0c.02,.11,.06,.3,.11,.59,.06,.35,.13,.84,.24,1.47,0,.05,0,.11,.02,.15,0,.03,.02,.06,.02,.1,.03,.23,.07,.48,.12,.75,.13,.86,.28,1.89,.45,3.07,.03,.2,.06,.4,.09,.62,.05,.4,.11,.84,.17,1.28,.06,.44,.13,.92,.18,1.4,.06,.47,.12,.96,.18,1.47,.33,2.64,.67,5.7,1,9.1,.04,.41,.08,.83,.12,1.25,.1,1.12,.2,2.27,.3,3.46,.02,.21,.04,.42,.05,.65,.08,.86,.14,1.73,.2,2.62,.03,.38,.06,.74,.08,1.12,.03,.38,.06,.76,.08,1.14,.03,.39,.06,.77,.08,1.16,.04,.62,.08,1.24,.12,1.88,.02,.31,.03,.63,.05,.94,.03,.51,.06,1.02,.09,1.53,0,.27,.02,.55,.04,.83,.07,1.58,.14,3.19,.19,4.83,.15,4.77,.22,9.79,.14,14.96Z" style="fill:#fff; opacity:.2;"/><path d="M106,143.23s4.59,25.43,4.09,56.4c0,.06,0,.08,0,.08l-17.92-37.14,10.17-3.14-11.64-3.95,6.21-11.11c2.75-.43,5.79-.83,9.09-1.13Z" style="fill:#fff; opacity:.2;"/></g><g><path d="M182.63,257.24h-4.4c-1.29-7.32-2.8-15.4-4.55-24.08-.89-4.39-1.84-8.92-2.85-13.58-1.2-5.51-2.49-11.2-3.86-17.04-.62-2.62-1.24-5.15-1.84-7.56-.7-2.8-1.41-5.46-2.09-7.98-10.54-38.79-18.47-44.95-19-45.33l7.2,.91,13.05,1.67h0c2.62,8.64,5.19,20.93,7.59,34.86,1.27,7.39,2.51,15.24,3.68,23.24h0c2.76,18.82,5.19,38.46,7.06,54.89Z" style="fill:#263238;"/><path d="M182.63,257.24h-4.4c-1.29-7.32-2.8-15.4-4.55-24.08-.89-4.39-1.84-8.92-2.85-13.58-1.2-5.51-2.49-11.2-3.86-17.04-.62-2.62-1.24-5.15-1.84-7.56-.7-2.8-1.41-5.46-2.09-7.98-10.54-38.79-18.47-44.95-19-45.33l7.2,.91,13.05,1.67h0c2.62,8.64,5.19,20.93,7.59,34.86,1.27,7.39,2.51,15.24,3.68,23.24h0c2.76,18.82,5.19,38.46,7.06,54.89Z" style="fill:#fff; opacity:.2;"/><path d="M154.63,156.43l8.69,3.23s2.69,23.09,1.8,35.33c-11.58-45.95-20.51-52.9-21.08-53.31l7.2,.9c3.22,2.03,8.25,5.61,11.61,10l-8.22,3.85Z" style="fill:#fff; opacity:.2;"/></g><g><path d="M139.83,82.41s10.06,6.38,6.64,24.25c-3.42,17.86-25.01-17.67-6.64-24.25Z" style="fill:#263238;"/><path d="M109.38,105.31c2.53,13.81,.81,16.28,8.7,22.51,11.87,9.38,29.43,9.41,30.25-4.99,.74-12.96-.7-36.12-15-39.9-14.09-3.72-26.48,8.56-23.95,22.38Z" style="fill:#ebb376;"/><path d="M126.39,104.71c.19,1.18,.74,1.22,1.51,1.09,.77-.13,1.47-.38,1.28-1.56-.19-1.18-.97-2.04-1.74-1.9-.77,.13-1.25,1.19-1.06,2.38Z" style="fill:#263238;"/><path d="M141.01,103.89c.19,1.18,.74,1.22,1.51,1.09,.77-.13,1.47-.38,1.28-1.56-.19-1.18-.97-2.03-1.74-1.9-.77,.13-1.25,1.19-1.06,2.37Z" style="fill:#263238;"/><path d="M138.71,103.62s2.59,5.06,5.13,7.36c-1.47,1.68-4.29,1.28-4.29,1.28l-.83-8.64Z" style="fill:#d58745;"/><path d="M123.55,99.64c-.12-.01-.23-.05-.33-.12-.32-.22-.39-.66-.16-.98,2.26-3.18,5.51-3.11,5.65-3.11,.39,.01,.69,.34,.67,.73-.02,.39-.34,.69-.73,.68h0c-.11,0-2.64-.03-4.45,2.51-.15,.22-.4,.32-.65,.3Z" style="fill:#263238;"/><path d="M146.09,97.7c-.22,.06-.46,.02-.65-.14-2.35-2.01-4.79-1.33-4.89-1.3-.37,.11-.76-.11-.87-.48-.11-.37,.11-.76,.48-.87,.14-.04,3.25-.94,6.2,1.58,.29,.25,.33,.7,.08,.99-.09,.11-.21,.18-.34,.22Z" style="fill:#263238;"/><path d="M111.92,114.57c6.48,3.46,4.8-3.11,4.33-3.77-2.06-2.9-.46-7.04,1.51-12.87,.88-2.6,.05-6.76,.05-6.76,0,0-7.89-1.27-12.53,.05-4.8,1.37-4.85,5.27-4.85,5.27,1.43,12.21,6.28,15.3,11.5,18.09Z" style="fill:#263238;"/><path d="M104.13,115.37c1.77,3.18,4.61,5.25,7.22,6.03,3.91,1.17,5.54-2.72,4.18-6.79-1.23-3.67-4.74-8.69-8.54-8.07-3.74,.62-4.88,5.19-2.86,8.82Z" style="fill:#ebb376;"/><g><path d="M141.5,116.39c-.76,2.17-1.34,6.17-1.34,6.17-.37,.01-.74,.03-1.11,.02-5.04,.05-7.4-1.59-8.48-3.43-.59-1.01-.78-2.08-.83-2.96-.06-1.02,.13-1.76,.13-1.76,2.69,1.57,7.39,1.89,9.91,1.95,1.05,.04,1.72,0,1.72,0Z" style="fill:#263238;"/><path d="M139.78,116.38l-.44,1.81c-4.75,.04-8.09-.58-9.6-2-.06-1.02,.13-1.76,.13-1.76,2.69,1.57,7.39,1.89,9.91,1.95Z" style="fill:#fff;"/><path d="M139.05,122.58c-5.04,.05-7.4-1.59-8.48-3.43,1.72,.05,3.78,.3,5.61,1.05,1.4,.57,2.28,1.47,2.87,2.37Z" style="fill:#de5753;"/></g><path d="M100.69,98.38s-6.02-7.59,3.46-15.37c9.48-7.78,24.98-9.12,33.88-6.29,8.9,2.83,2.69,10.41-6.57,13.89-5.07,1.9-7.23,1.09-7.23,1.09,0,0,2.67,.26,6.34-3.36,0,0-12.74,.31-14.57,8.1-1.83,7.79-15.31,1.95-15.31,1.95Z" style="fill:#263238;"/></g><path d="M87.84,208.99c-.53-3.96-1.1-8-1.69-12.01-.38-2.61-.76-5.22-1.16-7.77,.41-1.06,.85-2.06,1.51-2.89,0,0,3.57,9.49,1.34,22.67Z" style="opacity:.2;"/><path d="M128.77,154.12l6.85,5.36s5.25,33.25,5.05,61.99l6.01,6.43,4.45-7.6s-7.98-46.8-12.5-60.82l4.02-7.81-7.57-.08-6.31,2.53Z" style="fill:#7d9fd1;"/><g><path d="M135.08,151.59s-3.37,4.63-7.36,9.27c-6.49-2.62-21.77-9.8-21.71-17.63,.67-2.34,6.46-4.27,6.46-4.27,0,0,7.16,7.83,22.61,12.64Z" style="fill:#407bff;"/><path d="M135.08,151.59s5.18,3.36,8.75,7.89c4.33-3.35,.79-17.63-1.03-19.08-3.81-1.87-8.06-1.39-8.06-1.39,0,0,3.82,6.31,.34,12.58Z" style="fill:#407bff;"/><g style="opacity:.6;"><path d="M135.08,151.59s-3.37,4.63-7.36,9.27c-6.49-2.62-21.77-9.8-21.71-17.63,.67-2.34,6.46-4.27,6.46-4.27,0,0,7.16,7.83,22.61,12.64Z" style="fill:#fff;"/><path d="M135.08,151.59s5.18,3.36,8.75,7.89c4.33-3.35,.79-17.63-1.03-19.08-3.81-1.87-8.06-1.39-8.06-1.39,0,0,3.82,6.31,.34,12.58Z" style="fill:#fff;"/></g></g><path d="M88.38,191.17l-.33,1.87-1.36,7.74h0l-4.51,25.69,.72,30.77h-8.14v-104.01c1.23-2.42,2.5-3.96,3.76-4.33h0s0,0,0,0c.2,.22,4.53,5.18,7.42,15.89,.89,3.27,1.63,7.06,2.09,11.43,.46,4.39,.63,9.36,.34,14.93Z" style="fill:#263238;"/><path d="M88.38,191.17l-.33,1.87-1.36,7.74h0l-4.51,25.69,.72,30.77h-8.14v-104.01c1.23-2.42,2.5-3.96,3.76-4.33h0s0,0,0,0c.2,.22,4.53,5.18,7.42,15.89,.89,3.27,1.63,7.06,2.09,11.43,.46,4.39,.63,9.36,.34,14.93Z" style="fill:#fff; opacity:.2;"/><g><path d="M115.42,110.6c1.47,5.21-.03,10.45-3.36,11.7-3.33,1.25-7.22-1.95-8.7-7.16-1.47-5.21,.03-10.45,3.36-11.7,3.33-1.25,7.22,1.95,8.7,7.16Z" style="fill:#263238;"/><path d="M115.42,110.6c1.47,5.21-.03,10.45-3.36,11.7-3.33,1.25-7.22-1.95-8.7-7.16-1.47-5.21,.03-10.45,3.36-11.7,3.33-1.25,7.22,1.95,8.7,7.16Z" style="fill:#fff; opacity:.2;"/><path d="M108.47,108.4s-2.47-25.99,10.58-32.19c0,0-1.78-.35-3.65,.51-1.88,.86-13.16,5.54-11.27,31.46l4.34,.22Z" style="fill:#263238;"/><path d="M108.32,105.34c.04,1.9,.15,3.06,.15,3.06l-4.34-.23c-.04-.56-.08-1.1-.1-1.64-1.31-24.47,9.54-28.98,11.37-29.82,1.88-.85,3.66-.5,3.66-.5-10.29,4.89-10.94,22.08-10.74,29.13Z" style="fill:#fff; opacity:.4;"/><rect x="145.89" y="123.6" width="4.11" height="1.88" rx=".83" ry=".83" transform="translate(-22.7 33.55) rotate(-12.02)" style="fill:#263238;"/><rect x="145.89" y="123.6" width="4.11" height="1.88" rx=".83" ry=".83" transform="translate(-22.7 33.55) rotate(-12.02)" style="fill:#fff; opacity:.2;"/><path d="M108.47,108.4l-4.34-.23c-.04-.56-.08-1.1-.1-1.64,0,0,1.16-2.14,4.29-1.19,.04,1.9,.15,3.06,.15,3.06Z" style="opacity:.2;"/><path d="M112.11,112.16c1.11,3.92-.02,7.86-2.53,8.8-2.5,.94-5.43-1.47-6.54-5.38-1.11-3.92,.02-7.86,2.53-8.8s5.43,1.47,6.54,5.38Z" style="fill:#263238;"/><path d="M112.11,112.16c1.11,3.92-.02,7.86-2.53,8.8-2.5,.94-5.43-1.47-6.54-5.38-1.11-3.92,.02-7.86,2.53-8.8s5.43,1.47,6.54,5.38Z" style="fill:#fff; opacity:.4;"/></g></g></g></g><g id="g"><g><rect x="339.24" y="176.88" width="8.97" height="4.7" style="fill:#fff;"/><rect x="338.31" y="134.18" width="8.97" height="4.7" style="fill:#fff;"/><line x1="342.8" y1="136.9" x2="337.54" y2="148.28" style="fill:none; stroke:#fff; stroke-miterlimit:10; stroke-width:.45px;"/><line x1="343.73" y1="179.23" x2="336.73" y2="168.84" style="fill:none; stroke:#fff; stroke-miterlimit:10; stroke-width:.45px;"/><path d="M337.33,168.84c0,.33-.27,.6-.6,.6s-.6-.27-.6-.6,.27-.6,.6-.6,.6,.27,.6,.6Z" style="fill:#fff;"/></g><g><g><path d="M360.08,13.85h103.52c5.99,0,10.85,4.86,10.85,10.85v17.72c0,5.99-4.86,10.85-10.85,10.85h-13.71l3.19,11.02c.59,2.05-1.67,3.75-3.47,2.6l-21.47-13.62h-68.06c-5.99,0-10.85-4.86-10.85-10.85V24.71c0-5.99,4.86-10.85,10.85-10.85Z" style="fill:#d9d9d9;"/><line x1="460.38" y1="24.46" x2="362.7" y2="24.46" style="fill:none; stroke:#fff; stroke-linecap:round; stroke-linejoin:round; stroke-width:1.07px;"/><line x1="460.38" y1="32.75" x2="362.7" y2="32.75" style="fill:none; stroke:#fff; stroke-linecap:round; stroke-linejoin:round; stroke-width:1.07px;"/><line x1="460.38" y1="41.04" x2="362.7" y2="41.04" style="fill:none; stroke:#fff; stroke-linecap:round; stroke-linejoin:round; stroke-width:1.07px;"/></g><g><circle cx="511.46" cy="104.13" r="60.1" style="fill:none; stroke:#bbbfbd; stroke-miterlimit:10; stroke-width:.73px;"/><path d="M455.18,104.13c0,21,11.51,39.32,28.56,48.99,1.91,1.08,3.89,2.06,5.93,2.92,6.7,2.82,14.07,4.38,21.8,4.38,.51,0,1.02,0,1.53-.02,.31,0,.63-.02,.94-.04,.22,0,.44,0,.66-.03,.33-.01,.67-.03,.99-.06,.14,0,.28-.01,.42-.03,.4-.02,.79-.06,1.17-.1,.45-.05,.9-.1,1.34-.15l-13.92-20.13,36.97-40.08,24.12,19.49c.25-.9,.48-1.81,.69-2.73,.08-.35,.15-.7,.22-1.05,.1-.46,.19-.92,.26-1.38,.06-.31,.11-.61,.15-.92,.08-.44,.14-.88,.2-1.33,.03-.25,.07-.49,.1-.74,.05-.38,.1-.77,.13-1.16l.02-.23c.04-.42,.08-.83,.11-1.26,.03-.47,.07-.93,.09-1.4v-.03c.03-.48,.05-.96,.06-1.45,.01-.48,.02-.97,.02-1.45,0-9.35-2.28-18.16-6.31-25.91-8.37-16.12-24.32-27.67-43.13-29.96-2.24-.27-4.53-.41-6.85-.41-9.45,0-18.36,2.33-26.18,6.45l24.51,19.8-16.36,49.62-31.73-45.89c-4.16,7.84-6.52,16.8-6.52,26.3Z" style="fill:#7d9fd1;"/><path d="M489.81,155.98c6.7,2.82,14.07,4.38,21.8,4.38,.51,0,1.02,0,1.53-.02,.31,0,.63-.02,.94-.04,.22,0,.44,0,.66-.03,.33-.01,.67-.03,.99-.06,.14,0,.28-.01,.42-.03,.4-.02,.79-.06,1.17-.1,.45-.05,.9-.1,1.34-.15l-13.92-20.13-14.93,16.19Z" style="fill:#7eaf92;"/><path d="M485.43,54.25l24.51,19.8,8.52-25.84c-2.24-.27-4.53-.41-6.85-.41-9.45,0-18.36,2.33-26.18,6.45Z" style="fill:#fff; opacity:.1;"/><path d="M455.33,104.08c0,21,11.51,39.32,28.56,48.99l9.69-29.4-31.73-45.89c-4.16,7.84-6.52,16.8-6.52,26.3Z" style="fill:#fff; opacity:.1;"/><path d="M504.74,139.8l13.92,20.13c.35-.04,.71-.09,1.06-.15,.29-.04,.58-.08,.88-.13,.33-.05,.65-.1,.97-.17,.43-.08,.86-.15,1.29-.24,.37-.08,.74-.15,1.1-.24,.23-.05,.46-.1,.69-.16,.31-.07,.6-.15,.91-.22,.99-.25,1.97-.54,2.95-.84,.35-.11,.71-.22,1.06-.34,.47-.16,.94-.32,1.4-.49,.43-.15,.86-.32,1.29-.49,.43-.17,.85-.34,1.27-.52,.42-.17,.83-.35,1.24-.54,0,0,0,0,.01,0,.42-.19,.83-.38,1.24-.58,1.25-.6,2.47-1.24,3.66-1.93,.38-.22,.75-.44,1.12-.67,.78-.47,1.54-.96,2.29-1.47,.38-.25,.74-.51,1.11-.77,.37-.26,.74-.53,1.1-.8,.01,0,.03-.02,.05-.03,.34-.26,.69-.52,1.02-.79,.3-.24,.59-.47,.88-.71,.43-.35,.85-.71,1.27-1.07,.32-.28,.63-.56,.94-.84,.31-.28,.63-.58,.94-.87,.03-.03,.07-.06,.1-.09,.31-.3,.61-.6,.92-.9,.26-.26,.53-.53,.79-.81,.36-.38,.72-.76,1.07-1.15,.31-.33,.6-.67,.9-1.01,.24-.26,.46-.53,.68-.81,.14-.15,.26-.31,.39-.47,.22-.27,.44-.54,.65-.81,.24-.31,.48-.61,.71-.92,.31-.41,.62-.82,.91-1.24,.26-.37,.52-.74,.77-1.11,.18-.26,.35-.53,.53-.8,.11-.16,.22-.33,.32-.49,.47-.74,.93-1.49,1.37-2.26,.2-.36,.4-.72,.6-1.09,.46-.84,.9-1.7,1.31-2.56,.18-.36,.35-.73,.51-1.1,.17-.39,.35-.78,.51-1.17,.01-.03,.02-.06,.03-.09,.17-.41,.35-.83,.51-1.24,0-.01,0-.03,.01-.05,.17-.42,.33-.84,.48-1.26,.15-.4,.3-.81,.44-1.23,.13-.37,.25-.74,.37-1.12,.08-.28,.17-.56,.26-.84,0-.02,.01-.03,.01-.06,.1-.33,.19-.65,.28-.98l-74.36-60.07,13.27,80.66Z" style="fill:#a7b8d1;"/><path d="M519.18,77.62s-3.09,11.29,14.92,14.82c18.01,3.53,16.12,26.97-5.37,27.79-21.49,.82-26.27-18.29-26.27-18.29v-17.7l16.72-6.62Z" style="fill:#3f2d1f;"/><path d="M461.85,77.78l31.73,45.89,16.36-49.62-24.51-19.8c-10.04,5.28-18.28,13.5-23.58,23.53Z" style="fill:#a7b8d1;"/><path d="M501.19,96.25l-.18-2.96-1.98-.94c-5.66-2.7-9.27-8.42-9.27-14.69,0-5.45,1.73-10.76,4.95-15.16l2.21-3.02,18.82,6.3-.16,7.07h1.24c2.52,0,4.57,2.05,4.57,4.57h0c0,2.52-2.05,4.57-4.57,4.57h-1.45l-.22,9.6v3.37s3.4,3.28,9.85,6.05c0,0-7.19,9.03-19.08,9.63-11.89,.6-12.34-6.55-12.34-6.55,0,0,4.93-2.95,7.76-5.4l-.14-2.44Z" style="fill:#ebb376;"/><path d="M501.01,93.28l.18,2.96c.5-.06,1.03-.14,1.57-.24,8.42-1.53,11.71-9.14,11.37-13.06,0,0-2.84,9.43-13.12,10.34Z" style="fill:#d37a57;"/><path d="M516.97,76.1c-.35,.27-.68,.62-.79,1.06,0,0,.7,.23,.77,1.02,.06,.79-.77,1.13-.77,1.13,0,0,.64,1.06,1.7,.49,1.06-.58,.89-2.58-.17-3,0,0,1.68-.19,2.3,.43,0,0,.14-.62-.56-1.17-.72-.56-1.75-.51-2.48,.04Z" style="fill:#d37a57;"/><path d="M487.65,107.69s-10.54,19.27-14.56,35.42l10.87,6.33s4.32-8.64,5.81-21.89c1.49-13.25-2.12-19.87-2.12-19.87Z" style="fill:#847062;"/><path d="M493.58,64.19s10.53,9.97,20.16,8.88c0,0,1.04,7-.69,9.68,0,0,.74,.74,1.79-2.06,1.04-2.8,.22-6.67,.75-7.84,0,0,3.21-.76,5.32,2.51,2.11,3.27-2.51,7.27-5.53,6.63l-.14,6.01s3.47,1.29,6.39-1.19c2.93-2.48,1.49-5.01,1.49-5.01,0,0,1.69-.51,1.89-6.56,.2-6.05-2.95-11.57-2.95-11.57,0,0-6.08-10.85-17.15-10.86-6.91,0-9.04,2.89-9.04,2.89,0,0-7.14,1.22-9.16,8.81-2.01,7.59,3.05,11.65,3.05,11.65,0,0,1.47-9.73,3.81-11.97Z" style="fill:#3f2d1f;"/><path d="M512.98,86.08l3.89,8.1c.14,.29,.51,.38,.76,.18l.16-.13,12.75-9.85c.19-.15,.26-.42,.14-.65l-4.4-8.05-.1-.19c-.15-.28-.51-.35-.76-.15l-12.31,10.12c-.17,.15-.23,.4-.13,.6Z" style="fill:#fff;"/><path d="M486.14,154.35c7.61,3.84,16.21,6,25.32,6,7.5,0,14.65-1.47,21.19-4.13l4.16-47.67s-.85-3.29-5.95-5.16c-5.79-2.14-5.86-2.38-5.86-2.38-22.09,11.12-31.43,3.07-31.43,3.07l-4.86,2.47c-.48,.24-.85,.65-1.06,1.14-1.15,2.74-4.95,12.26-5.33,18.82-.3,5.22,2.17,19.27,3.82,27.84Z" style="fill:#9c897a;"/><path d="M534.38,105.32s5.39,2.14,7.34,16.23c1.95,14.09-.13,21.56-.13,21.56l-10.72-12.73s-3.67-19.51,3.52-25.07Z" style="fill:#9c897a;"/><path d="M518.37,84.7c1.03,.59,3.7,2.47,4.18,3.25,.23,.38,.33,.81,.36,1.16l.67-.34c-.34-1.45-.97-2.9-.97-2.9,0,0-1.07-.57-1.66-1.41-.6-.84-.37-1.52-.37-1.52,.41,.23,1.06,.66,1.74,1.15,0-.01-.02-.03-.03-.04-.6-.84-.37-1.52-.37-1.52,1.07,.62,3.85,2.56,4.34,3.38,.27,.44,.36,.95,.39,1.33l.19-.09c-.32-1.53-1.02-3.17-1.02-3.17,0,0-1.07-.57-1.66-1.41-.6-.84-.37-1.52-.37-1.52,1.07,.62,3.85,2.56,4.34,3.38,.5,.82,.4,1.89,.4,1.89l-.4,7-.39,7.69s14.14,32.36,13.97,40.25c-.16,7.89-4.9,11.02-4.9,11.02,0,0-5.06-.6-8.29-5.58-3.23-4.98-6.2-42.96-6.2-42.96,0,0-1.69-2.58-1.99-5.05-.3-2.47,.84-8.7,.84-8.7-.34-1.28-.85-2.46-.85-2.46,0,0-1.03-.55-1.6-1.36-.57-.81-.36-1.46-.36-1.46Z" style="fill:#ebb376;"/><path d="M512.98,86.08l3.89,8.1c.14,.29,.51,.38,.76,.18l.16-.13-3.93-8.46,12.42-10.1-.1-.19c-.15-.28-.51-.35-.76-.15l-12.31,10.12c-.17,.15-.23,.4-.13,.6Z" style="fill:#d9d9d9;"/><polygon points="526.28 77.31 526.82 78.37 524.14 80.53 523.53 79.5 526.28 77.31" style="fill:#d9d9d9;"/><path d="M448.77,109.25l3,.56,.08-.27c-.87-.3-2.91-1.1-3.74-2.34-1.06-1.59-1.43-3.13-1.43-3.13,0,0,1.84,.96,2.55,2.8l1.42,.26c-.57-.35-1.1-.78-1.43-1.28-1.06-1.59-1.43-3.13-1.43-3.13,0,0,1.84,.96,2.55,2.8l1.79,.33c-.74-.58-1.52-1.35-1.85-2.17-.7-1.78-.74-3.36-.74-3.36,0,0,1.6,1.33,1.9,3.27l1.97,.82,8.63,2.7-.07-1.25s-.33-.2-1.24-.91-2.05-3.69-2.05-3.69c0,0,4.52,2.13,5.63,4.47,1.1,2.34,2.15,8.14,2.15,8.14,0,0,10.38,24.97,12.22,31.85h0s3.56,1.38,5.26,3.71c0,0-3.62,6.65-6.5,7.35,0,0-8.34-1.59-12.31-11.32-3.97-9.73-5.57-29.38-5.57-29.38l-8.33-4.56s-2.52-.72-3.39-2.02c-.87-1.3-1.17-2.56-1.17-2.56,0,0,1.5,.79,2.08,2.29Z" style="fill:#ebb376;"/><path d="M485.89,137.58s4.88-.94,13.24-.94c8.36,0,16.71,1.57,16.71,1.57" style="fill:none; stroke:#847062; stroke-linecap:round; stroke-linejoin:round; stroke-width:.73px;"/><path d="M494.69,58.31s-1.34,2.48-1.23,4.18" style="fill:none; stroke:#543e2f; stroke-linecap:round; stroke-linejoin:round; stroke-width:.73px;"/><path d="M496.76,56.43s5.46,1.78,8.46,6.06" style="fill:none; stroke:#543e2f; stroke-linecap:round; stroke-linejoin:round; stroke-width:.73px;"/><path d="M517.5,59.91s-5.81-7.85-17.01-4.56" style="fill:none; stroke:#543e2f; stroke-linecap:round; stroke-linejoin:round; stroke-width:.73px;"/><path d="M517.1,71.2s-2.91,1.17-9.12,0c-6.21-1.17-11.87-7.54-11.87-7.54" style="fill:none; stroke:#543e2f; stroke-linecap:round; stroke-linejoin:round; stroke-width:.73px;"/><path d="M519.61,105.32s-8.5,3.54-17.2,3.02c-8.7-.52-9.79-2.09-9.79-2.09" style="fill:none; stroke:#847062; stroke-linecap:round; stroke-linejoin:round; stroke-width:.73px;"/></g></g></g><g id="h"><rect x="162.19" y="83.08" width="67.69" height="36.68" rx="2.55" ry="2.55" style="fill:#d5e2ff;"/></g><g id="i"><g><g><polygon points="187.57 55.21 186.76 69.12 203.73 59.82 187.57 55.21" style="fill:#d5e2ff;"/><rect x="187.49" y="16.67" width="97.79" height="43.13" rx="2.55" ry="2.55" style="fill:#d5e2ff;"/></g><g><rect x="198.54" y="24.97" width="77.29" height="2.73" style="fill:#407bff;"/><rect x="198.54" y="31.02" width="49.31" height="2.73" style="fill:#407bff;"/><rect x="198.54" y="36.3" width="61.58" height="2.73" style="fill:#407bff;"/><rect x="198.54" y="42.56" width="53.78" height="2.73" style="fill:#407bff;"/><rect x="198.54" y="49.06" width="70.63" height="2.73" style="fill:#407bff;"/></g></g></g><g id="j"/><g id="k"><g><rect x="170.41" y="90.93" width="51.24" height="2.27" style="fill:#407bff;"/><rect x="170.41" y="95.96" width="32.69" height="2.27" style="fill:#407bff;"/><rect x="170.41" y="100.35" width="40.83" height="2.27" style="fill:#407bff;"/><rect x="170.41" y="105.56" width="35.66" height="2.27" style="fill:#407bff;"/><rect x="170.41" y="110.97" width="46.83" height="2.27" style="fill:#407bff;"/></g><g><path d="M410.18,194.77h73.02c6.15,0,11.14,4.99,11.14,11.14v36.79c0,6.15-4.99,11.14-11.14,11.14h-5.29l-9.73,10.73c-1.6,1.77-4.36,1.81-6.02,.1l-10.53-10.84h-41.44c-6.15,0-11.14-4.99-11.14-11.14v-36.79c0-6.15,4.99-11.14,11.14-11.14Z" style="fill:#f3ad44;"/><rect x="410" y="207.25" width="73.07" height="5.48" transform="translate(893.08 419.98) rotate(180)" style="fill:#fff;"/><rect x="410" y="219.43" width="73.07" height="5.48" transform="translate(893.08 444.34) rotate(180)" style="fill:#fff;"/><rect x="429.49" y="231.61" width="53.59" height="5.48" transform="translate(912.56 468.7) rotate(180)" style="fill:#fff;"/></g></g></svg>