<svg width="155" height="157" viewBox="0 0 155 157" fill="none" xmlns="http://www.w3.org/2000/svg">
<ellipse cx="77.4" cy="78.3" rx="77.4" ry="78.3" fill="#DAF6FF"/>
<path d="M35 61.6602C35 65.1429 36.8148 67.9275 39.2173 68.3096L40.3414 75.8775C40.3708 76.0832 40.4736 76.2669 40.6279 76.3991C40.7822 76.5314 40.9806 76.6049 41.1863 76.6049L45.6608 93.548L45.0583 94.4371C44.9628 94.584 44.9114 94.753 44.9114 94.9293C44.9114 95.1057 44.9701 95.2747 45.073 95.4216L55.4398 109.779L55.4545 109.793C56.7403 111.483 57.4309 113.548 57.4383 115.671V119.088C57.4383 119.315 57.5264 119.536 57.6881 119.69C57.8497 119.852 58.0628 119.94 58.2906 119.94H107.48C107.656 119.94 107.825 119.889 107.965 119.786C108.104 119.683 108.215 119.543 108.273 119.374L108.531 118.662C108.795 118.72 109.06 118.75 109.331 118.75C110.066 118.75 110.779 118.551 111.418 118.184C112.755 117.435 113.791 116.039 114.261 114.363C114.996 111.755 114.151 109.147 112.358 108.022L116.267 97.1483C116.311 97.0307 116.326 96.9132 116.319 96.7882C116.311 96.6633 116.274 96.5458 116.216 96.4429C116.157 96.3327 116.076 96.2445 115.973 96.1711C115.878 96.0976 115.76 96.0462 115.643 96.0241L102.014 93.1807C101.815 93.1366 101.602 93.1733 101.426 93.2762C101.249 93.379 101.11 93.5407 101.044 93.7391L99.8829 97.0748C99.6111 96.5311 99.2731 96.0168 98.891 95.5465C98.318 94.8779 97.6641 94.2828 96.944 93.7685L97.5612 93.5407C97.9139 93.4158 98.2078 93.1586 98.3841 92.828C98.5604 92.4973 98.6118 92.1079 98.5237 91.7479L94.7472 76.8547C95.0264 76.8694 95.313 76.9061 95.5848 76.9722C95.7317 77.009 95.886 77.0016 96.033 76.9575C96.1799 76.9134 96.3048 76.8326 96.4077 76.7151C96.5106 76.6049 96.584 76.4652 96.6134 76.3183C96.6428 76.1714 96.6355 76.0171 96.5914 75.8701L96.0036 74.0773L104.277 71.5792C104.578 71.491 104.835 71.3 105.019 71.0502C105.202 70.793 105.29 70.4918 105.283 70.1758C105.276 69.8599 105.158 69.5587 104.96 69.3235C104.761 69.0811 104.49 68.9121 104.188 68.8386L94.2697 66.5389C93.8803 65.2163 93.3292 63.9452 92.6386 62.7476L98.8029 52.5787C98.8029 52.5787 98.8176 52.5494 98.8249 52.542C98.9719 52.2702 99.0233 51.9542 98.9792 51.6456C98.9278 51.337 98.7808 51.0505 98.5531 50.8374C98.3253 50.6243 98.0388 50.4921 97.7302 50.4553C97.4216 50.4259 97.113 50.4921 96.8485 50.6611L86.5698 57.0092C85.8057 56.6272 85.0196 56.3112 84.2114 56.0541C84.0938 56.0173 83.9689 55.9806 83.8514 55.9512L81.0815 44.0704C81.0815 44.0704 81.0741 44.041 81.0668 44.019C80.9786 43.7177 80.795 43.4606 80.5452 43.2769C80.2954 43.0932 79.9868 42.9977 79.6782 43.005C79.3696 43.0124 79.0684 43.1226 78.8259 43.321C78.5834 43.5194 78.4145 43.7912 78.3483 44.0925L75.5785 55.7014C75.167 55.7969 74.7482 55.9071 74.3441 56.0394C73.5213 56.2965 72.7204 56.6125 71.949 57.0019L61.6776 50.6537C61.4131 50.4847 61.1045 50.4113 60.7959 50.4406C60.4874 50.47 60.1935 50.6023 59.9657 50.8154C59.7379 51.0284 59.591 51.315 59.5396 51.6236C59.4881 51.9322 59.5396 52.2481 59.6865 52.5273C59.6865 52.542 59.7012 52.5567 59.7086 52.5641L65.8728 62.7329C65.1822 63.9232 64.6312 65.1943 64.2418 66.5242L54.3231 68.8239C54.0219 68.8974 53.75 69.0664 53.5516 69.3089C53.3532 69.5513 53.243 69.8526 53.2283 70.1612C53.2136 70.4697 53.3092 70.7783 53.4929 71.0355C53.6765 71.2927 53.9337 71.4763 54.2349 71.5645L62.4931 74.0553L61.9201 75.7893C61.8833 75.9068 61.8686 76.0318 61.8833 76.1567C61.898 76.2816 61.9347 76.3991 62.0009 76.502C62.067 76.6049 62.1478 76.7004 62.2507 76.7665C62.3535 76.8326 62.4711 76.8841 62.5887 76.8988L60.2302 85.2601L54.7933 82.0713L49.0698 62.8358L49.8119 55.0034H49.9882C50.216 55.0034 50.4291 54.9152 50.5907 54.7536C50.7523 54.5919 50.8405 54.3715 50.8405 54.1511V50.1688C50.8405 49.941 50.7523 49.7206 50.5907 49.5663C50.4291 49.4047 50.216 49.3165 49.9882 49.3165H48.9156C49.518 48.4495 49.9148 47.4502 50.0764 46.4069C50.2381 45.3636 50.1646 44.2908 49.856 43.2769C49.8119 43.1153 49.7164 42.9757 49.5915 42.8654C49.4666 42.7552 49.3123 42.6891 49.1433 42.6671C48.9817 42.645 48.8127 42.6744 48.6658 42.7479C48.5188 42.8214 48.3939 42.9389 48.3057 43.0785C48.1882 43.2695 48.0192 43.4238 47.8135 43.512C47.6078 43.6002 47.38 43.6222 47.1596 43.5708C46.9318 43.5267 46.7261 43.4165 46.5645 43.2475C46.4028 43.0785 46.3 42.8654 46.2706 42.6377C45.8518 39.9852 44.5734 36.6863 44.5146 36.5466C44.4632 36.4144 44.375 36.2968 44.2648 36.2013C44.1546 36.1058 44.0223 36.047 43.8827 36.0176C43.7431 35.9882 43.5962 35.9956 43.464 36.0397C43.3244 36.0838 43.2068 36.1646 43.1039 36.2674C39.3275 40.2865 37.645 43.8573 38.1079 46.8771C38.2401 47.7515 38.5634 48.5744 39.063 49.3018H36.9029C36.6752 49.3018 36.4621 49.39 36.3005 49.5516C36.1388 49.7132 36.0506 49.9337 36.0506 50.1541V54.1364C36.0506 54.3642 36.1388 54.5846 36.3005 54.7389C36.4621 54.9005 36.6752 54.9887 36.9029 54.9887H37.2482L37.3731 55.841C35.9478 56.9872 35.0074 59.1327 35.0074 61.6455L35 61.6602ZM40.9145 68.17C43.0305 67.472 44.5587 64.8637 44.5587 61.6602C44.5587 58.1554 42.7219 55.3561 40.2973 55.0034H48.0853L47.3433 62.8284L46.1971 74.8929H41.9137L40.9145 68.17ZM74.7188 118.228L85.8645 99.2055L88.5977 99.7787C89.1781 99.9036 89.7732 99.9623 90.3683 99.9623C91.3896 99.9623 92.4108 99.7786 93.3733 99.426L87.4515 118.221H74.7188V118.228ZM69.517 79.4557V75.8775C71.0673 75.1207 72.86 73.7761 74.9833 71.3808C75.3801 71.2853 75.7621 71.1457 76.1295 70.962C77.7606 70.1538 78.9655 68.5961 79.7296 66.2964C80.6186 69.4558 82.213 70.9179 83.6897 71.5792C86.2025 74.408 88.0907 75.7599 89.7512 76.3844V79.4483C89.7512 82.1522 88.6858 84.7385 86.7903 86.6488C84.8947 88.5591 82.3232 89.6318 79.6414 89.6318C76.9597 89.6318 74.3882 88.5591 72.4926 86.6488C70.5971 84.7385 69.5317 82.1522 69.5317 79.4483L69.517 79.4557ZM72.1326 88.662L71.3024 91.961C70.6265 91.4614 69.9358 91.0058 69.2672 90.587L69.7228 85.9287C70.384 86.9574 71.1995 87.8758 72.1326 88.6546V88.662ZM70.7367 69.2868C71.4861 67.7879 72.6029 66.5095 73.9694 65.5617C75.3433 64.6138 76.9303 64.026 78.5835 63.8571C78.0398 66.7666 76.9671 68.6402 75.3727 69.4264C73.6829 70.264 71.7432 69.6983 70.7293 69.2795L70.7367 69.2868ZM80.9566 63.9011C82.6171 64.1216 84.1893 64.7681 85.5339 65.7747C86.8784 66.7813 87.9437 68.1112 88.6344 69.6468C88.076 70.0069 87.4515 70.242 86.7976 70.3375C86.1437 70.433 85.4824 70.3889 84.8432 70.2126C82.8007 69.5881 81.4636 67.4132 80.9566 63.9085V63.9011ZM73.6241 89.72C75.4389 90.8074 77.5181 91.3805 79.6341 91.3805C81.7501 91.3805 83.822 90.8074 85.6441 89.72L87.6939 97.8463L74.6013 95.0836C74.0502 94.3856 73.4331 93.7391 72.7645 93.1439L73.6315 89.72H73.6241ZM89.1487 96.6486L94.9015 94.5105C95.4673 94.8044 95.9963 95.1645 96.4885 95.5759L94.3284 97.0454C92.9251 98.0006 91.228 98.412 89.5454 98.2063L89.156 96.6486H89.1487ZM112.623 113.9C112.278 115.127 111.521 116.171 110.588 116.692C110.316 116.854 110.015 116.964 109.706 117.008C109.39 117.052 109.074 117.038 108.766 116.957C107.237 116.516 106.473 114.429 107.076 112.299C107.421 111.072 108.178 110.028 109.111 109.507C109.493 109.286 109.919 109.161 110.36 109.154C110.551 109.154 110.749 109.183 110.933 109.235C112.469 109.676 113.225 111.762 112.623 113.893V113.9ZM100.316 103.717C100.75 102.468 100.889 101.123 100.713 99.808L102.388 94.9955L114.327 97.4863L110.742 107.464C109.882 107.391 109.023 107.582 108.281 108.008C106.944 108.757 105.908 110.153 105.437 111.828C104.754 114.26 105.437 116.685 106.988 117.919L106.877 118.221H95.2468L100.316 103.71V103.717ZM97.7081 96.8103C98.3841 97.6993 98.8323 98.7427 99.0086 99.8521C99.1849 100.962 99.0821 102.093 98.7147 103.151L93.4468 118.235H89.2515L95.5334 98.3018L97.7081 96.8176V96.8103ZM96.8118 91.9757L88.7373 94.9734L87.1429 88.6546C88.4948 87.5378 89.5748 86.1345 90.3242 84.5401C91.0663 82.9457 91.4557 81.2117 91.4557 79.4557V76.8106C91.9627 76.8694 92.477 76.8914 92.9839 76.8767L96.8118 91.9757ZM94.828 69.2868C94.7913 68.9856 94.7472 68.677 94.6885 68.3757L102.704 70.2346L95.4379 72.4242L94.6517 70.0289C94.7913 69.8085 94.8574 69.544 94.828 69.2795V69.2868ZM94.5342 75.1133C94.1521 75.1133 93.7848 75.128 93.4248 75.1427C91.6614 75.2309 89.854 75.319 86.5111 72.0788C87.9952 71.976 89.303 71.3735 90.0377 70.7049L93.0427 70.58L94.5342 75.1133ZM96.6795 52.733L91.5732 61.1605C90.6328 59.9188 89.5013 58.8388 88.2156 57.9644L96.6795 52.733ZM79.6855 45.6869L81.9705 55.503C80.4496 55.2459 78.9067 55.2018 77.3712 55.3781L79.6782 45.6869H79.6855ZM61.7878 52.733L70.2518 57.9644C68.966 58.8388 67.8345 59.9188 66.8941 61.1605L61.7878 52.733ZM74.8217 57.6632C77.7091 56.7594 80.7949 56.7594 83.675 57.6632C90.912 59.9409 92.6533 66.4801 93.05 68.8607L90.214 68.9782C89.2956 66.9356 87.8188 65.2016 85.9527 63.982C84.0865 62.7623 81.9117 62.101 79.6855 62.0863C77.4593 62.0716 75.2772 62.6962 73.3963 63.8938C71.5155 65.0914 70.0166 66.8034 69.0688 68.8313H65.41C65.8141 66.4287 67.57 59.9188 74.8143 57.6558L74.8217 57.6632ZM65.4173 70.5506H69.4142C70.3913 71.0502 71.442 71.3735 72.5294 71.5131C68.8778 75.1501 66.5635 75.128 64.4989 75.1133C64.3005 75.1133 64.1095 75.1133 63.9111 75.1133L65.41 70.5506H65.4173ZM68.3268 82.8649L67.6655 89.6245L67.526 89.5437L65.3145 88.2505L67.1586 76.6783C67.379 76.6416 67.6068 76.5902 67.8345 76.524V79.463C67.8345 80.6166 68.0035 81.7627 68.3268 82.8722V82.8649ZM55.7631 70.242L63.7789 68.3831C63.7201 68.6843 63.676 68.9856 63.6393 69.2942C63.6099 69.5513 63.6687 69.8085 63.8009 70.0289L63.0074 72.4389L55.7558 70.2493L55.7631 70.242ZM64.3667 76.8326H64.4916C64.7928 76.8326 65.094 76.8326 65.41 76.8326L63.7421 87.3248L61.7364 86.1492L64.3667 76.8326ZM66.0198 90.6384L60.8327 98.243C60.7665 98.3386 60.7225 98.4414 60.6931 98.5516C60.671 98.6618 60.6637 98.7794 60.6857 98.8896C60.7078 98.9998 60.7445 99.11 60.8106 99.2055C60.8694 99.3011 60.9502 99.3819 61.0457 99.448C61.1413 99.5141 61.2441 99.5582 61.3543 99.5803C61.4645 99.6023 61.5821 99.6023 61.6923 99.5803C61.8025 99.5582 61.9054 99.5141 62.0009 99.4554C62.0964 99.3892 62.1772 99.3084 62.236 99.2202L67.4966 91.5128C70.8322 93.4966 74.616 96.0535 75.4315 101.013C75.4682 101.241 75.5931 101.439 75.7768 101.571C75.9605 101.704 76.1883 101.755 76.4087 101.718C76.6291 101.682 76.8275 101.557 76.9597 101.373C77.092 101.189 77.1434 100.962 77.1067 100.734C76.9009 99.4701 76.5042 98.2504 75.9238 97.1189L84.1306 98.8529L72.7645 118.25H60.5755L70.4281 108.779C70.5897 108.625 70.6852 108.405 70.6852 108.184C70.6852 107.956 70.6044 107.736 70.4501 107.574C70.2958 107.413 70.0828 107.317 69.855 107.31C69.6272 107.31 69.4142 107.391 69.2525 107.545L59.1428 117.266V115.701C59.1428 114.731 59.0179 113.768 58.7681 112.828L61.8833 108.419C61.9494 108.331 61.9935 108.221 62.0229 108.118C62.045 108.008 62.0523 107.898 62.0303 107.787C62.0082 107.677 61.9715 107.567 61.9127 107.471C61.8539 107.376 61.7731 107.295 61.6849 107.229C61.5968 107.163 61.4939 107.119 61.3837 107.089C61.2735 107.067 61.1633 107.06 61.0531 107.082C60.9429 107.104 60.84 107.141 60.7445 107.2C60.649 107.258 60.5682 107.339 60.502 107.427L58.0701 110.866C57.7248 110.131 57.306 109.433 56.8138 108.787L52.4643 102.769L56.6007 96.6486C56.7256 96.4576 56.777 96.2298 56.733 96.0094C56.6889 95.789 56.564 95.5906 56.3729 95.4584C56.1819 95.3261 55.9541 95.282 55.7337 95.3261C55.5133 95.3702 55.3149 95.4951 55.19 95.6861L51.3989 101.3L46.7996 94.9367L54.3157 83.8127L66.0124 90.6678L66.0198 90.6384ZM53.1402 82.4901L46.9392 91.6671L42.957 76.5975H46.9832C47.1963 76.5975 47.402 76.5167 47.5563 76.3771C47.7106 76.2375 47.8135 76.0391 47.8282 75.826L48.6364 67.3544L53.1402 82.4901ZM43.4125 38.4864C43.8166 39.662 44.3603 41.418 44.5954 42.9022C44.6615 43.3283 44.8232 43.7324 45.0656 44.0851C45.3081 44.4378 45.6314 44.7317 45.9987 44.9448C46.3734 45.1578 46.7849 45.2827 47.211 45.3048C47.6371 45.3342 48.0633 45.2607 48.46 45.0991C48.5776 47.3768 47.2037 48.8389 46.6747 49.3091H41.3994C40.9659 48.9859 40.5985 48.5817 40.3267 48.1115C40.0549 47.6413 39.8712 47.127 39.7977 46.5906C39.4818 44.4011 40.7235 41.6164 43.4125 38.4937V38.4864ZM37.7625 51.0211H49.1433V53.2914H37.7625V51.0211ZM39.2761 55.0034C39.1805 55.0181 39.0777 55.0401 38.9822 55.0622V55.0034H39.2761ZM39.7977 56.6786C41.4655 56.6786 42.8762 58.9563 42.8762 61.6602C42.8762 64.364 41.4655 66.6417 39.7977 66.6417C38.1299 66.6417 36.7192 64.364 36.7192 61.6602C36.7192 58.9563 38.1299 56.6786 39.7977 56.6786Z" fill="#0A3846"/>
</svg>
