<svg width="155" height="157" viewBox="0 0 155 157" fill="none" xmlns="http://www.w3.org/2000/svg">
<ellipse cx="77.4" cy="78.7006" rx="77.4" ry="78.3" fill="#EBFFE6"/>
<path d="M99.4703 74.5712C96.648 74.5712 94.4411 72.3643 94.4411 69.542C94.4411 66.7197 96.648 64.5128 99.4703 64.5128C102.293 64.5128 104.499 66.7197 104.499 69.542C104.499 72.3643 102.293 74.5712 99.4703 74.5712ZM99.4703 66.5287C97.7798 66.5287 96.4571 67.8515 96.4571 69.542C96.4571 71.2325 97.7798 72.5553 99.4703 72.5553C101.161 72.5553 102.484 71.1759 102.484 69.542C102.484 67.908 101.161 66.5287 99.4703 66.5287ZM56.0892 74.5712C53.267 74.5712 51.0601 72.3643 51.0601 69.542C51.0601 66.7197 53.267 64.5128 56.0892 64.5128C58.9115 64.5128 61.1184 66.7197 61.1184 69.542C61.1184 72.3643 58.9115 74.5712 56.0892 74.5712ZM56.2095 66.5287C54.5189 66.5287 53.1962 67.8515 53.1962 69.542C53.1962 71.2325 54.4907 72.5553 56.0892 72.5553C57.8222 72.5553 59.2227 71.2042 59.2227 69.542C59.2227 67.8797 57.9 66.5287 56.2095 66.5287Z" fill="#465941"/>
<path d="M40.0044 116C39.5164 116 39 115.484 39 114.996C39 114.373 39.5234 113.991 40.0044 113.991H45.458V95.7772H44.5172C43.3572 95.7772 42.4164 94.8364 42.4164 93.6764V89.779C42.4164 88.6189 43.3572 87.6782 44.5172 87.6782H45.5853V60.7993H42.9328C41.4545 60.7993 40.3439 59.6888 40.3439 58.2104V54.0654C40.3439 52.5871 41.4615 51.4766 42.9328 51.4766H46.5544V47.2467C46.5544 45.1813 48.1742 43.5614 50.2396 43.5614H58.2891L61.5146 37.7188C62.0875 36.6932 63.2334 36 64.3722 36H91.1804C92.5385 36 93.5641 36.9478 94.1795 37.7471L97.3908 43.5544H105.44C107.506 43.5544 109.126 45.1742 109.126 47.2396V51.4695H112.747C114.155 51.4695 115.336 52.6578 115.336 54.0584V58.2034C115.336 59.6817 114.225 60.7922 112.747 60.7922H110.095V87.6569H111.035C112.195 87.6569 113.136 88.5977 113.136 89.7577V93.6552C113.136 94.8152 112.195 95.756 111.035 95.756H110.095V113.97H115.548C116.029 113.97 116.553 114.352 116.553 114.974C116.553 115.462 116.036 115.979 115.548 115.979H40.0044V116ZM91.5835 113.984H108.093V95.7701H91.5835V113.984ZM65.992 113.984H89.5676V95.8904H88.5066C87.3466 95.8904 86.4058 94.9496 86.4058 93.7896V89.8921C86.4058 88.7321 87.3466 87.7913 88.5066 87.7913H89.5676V84.5305C89.5676 78.0301 84.2767 72.7392 77.7763 72.7392C71.2759 72.7392 65.985 78.0301 65.985 84.5305V87.664H67.053C68.2131 87.664 69.1538 88.6048 69.1538 89.7648V93.6622C69.1538 94.8223 68.2131 95.763 67.053 95.763H65.985V113.977L65.992 113.984ZM47.4668 113.984H63.9761V95.7701H47.4739V113.984H47.4668ZM44.5455 93.7542H67.2723V89.7931H44.5455V93.7542ZM88.4147 93.634H111.014V89.6729H88.4147V93.634ZM47.4739 87.7843H63.9832V84.5234C63.9832 76.9125 70.1724 70.7233 77.7834 70.7233C85.3943 70.7233 91.5835 76.9125 91.5835 84.5234V87.6569H107.973V60.7993H47.4739V87.7913V87.7843ZM42.9328 53.4925C42.5721 53.4925 42.3528 53.7118 42.3528 54.0725V58.2175C42.3528 58.458 42.5721 58.7975 42.9328 58.7975H112.754C112.995 58.7975 113.334 58.5782 113.334 58.2175V54.0725C113.334 53.832 113.115 53.4925 112.754 53.4925H42.9328ZM50.2396 45.5703C49.2706 45.5703 48.5632 46.2776 48.5632 47.2467V51.4766H106.996V47.2467C106.996 46.2776 106.289 45.5703 105.32 45.5703H50.2396ZM64.3793 38.0159C63.9195 38.0159 63.4881 38.3201 63.3395 38.6172L60.6092 43.5544H94.9646L92.2343 38.6101C92.0858 38.3201 91.6614 38.0159 91.1945 38.0159H64.3793Z" fill="#465941"/>
</svg>
