<svg width="155" height="157" viewBox="0 0 155 157" fill="none" xmlns="http://www.w3.org/2000/svg">
<ellipse cx="77.4" cy="78.7006" rx="77.4" ry="78.3" fill="#FEFADB"/>
<path d="M43.0795 115.423C42.8005 115.423 42.5288 115.312 42.3232 115.107C42.1175 114.901 42 114.63 42 114.351C42 114.071 42.1175 113.792 42.3232 113.594C42.5288 113.388 42.7931 113.278 43.0795 113.278H48.5649V105.502C48.5649 105.215 48.675 104.951 48.8807 104.745C49.0789 104.54 49.358 104.422 49.637 104.422C49.9161 104.422 50.1951 104.532 50.3934 104.738C50.599 104.936 50.7092 105.208 50.7092 105.494V113.271H53.8081V84.1979C53.8081 83.9115 53.9182 83.6398 54.1238 83.4415C54.322 83.2433 54.6011 83.1258 54.8802 83.1258C55.1592 83.1258 55.4383 83.2433 55.6365 83.4415C55.8421 83.6471 55.9522 83.9115 55.9522 84.1979V113.271H61.5038V84.1979C61.5038 83.9115 61.614 83.6398 61.8196 83.4415C62.0179 83.2433 62.2969 83.1258 62.5759 83.1258C62.855 83.1258 63.134 83.2433 63.3323 83.4415C63.5379 83.6471 63.6481 83.9115 63.6481 84.1979V113.271H66.9158V77.3978H50.7092V95.9843C50.7092 96.2707 50.5917 96.5424 50.3934 96.7407C50.1951 96.939 49.9161 97.0565 49.637 97.0565C49.358 97.0565 49.0789 96.939 48.8807 96.7407C48.6824 96.5424 48.5649 96.2634 48.5649 95.9843V76.3256C48.5649 76.0392 48.6824 75.7675 48.8807 75.5692C49.0789 75.371 49.358 75.2535 49.637 75.2535H51.1865V60.5958C51.1865 60.3094 51.304 60.0376 51.5023 59.8394C51.7005 59.6411 51.9722 59.5236 52.2513 59.5236H53.8007V59.2813C53.8007 56.1309 53.8007 53.7222 53.7934 51.8716V51.7321C53.7787 45.9968 53.786 45.8279 53.9696 45.6002L57.7367 40.5699V33.0722C57.7367 32.7931 57.8468 32.5214 58.0598 32.3158C58.2654 32.1175 58.5298 32 58.8161 32C59.1025 32 59.3743 32.1175 59.5799 32.3158C59.7781 32.5214 59.8956 32.7858 59.8956 33.0722V40.5846L63.6113 45.5415L63.6627 45.6076C63.8463 45.8279 63.8464 45.9968 63.839 51.5559V51.7027C63.839 53.5753 63.8243 56.0354 63.8243 59.2886V59.5309H65.3737C65.6601 59.5309 65.9319 59.6484 66.1301 59.8467C66.3284 60.045 66.4458 60.324 66.4458 60.6031V70.2672C66.4458 70.5536 66.3284 70.8253 66.1301 71.0236C65.9319 71.2219 65.6528 71.3394 65.3737 71.3394C65.0947 71.3394 64.8156 71.2219 64.6174 71.0236C64.4191 70.8253 64.3016 70.5463 64.3016 70.2672V61.6753H53.3381V75.2608H67.9953C68.2816 75.2608 68.5534 75.371 68.7516 75.5766C68.9499 75.7749 69.0674 76.0539 69.0674 76.333V81.8186H85.274V76.333C85.274 76.0466 85.3916 75.7749 85.5898 75.5766C85.7881 75.3783 86.0671 75.2608 86.3461 75.2608H87.8955V60.6031C87.8955 60.3167 88.0131 60.045 88.2113 59.8467C88.4096 59.6484 88.6813 59.5309 88.9604 59.5309H90.5098V53.7222C90.5098 53.4358 90.6273 53.1641 90.8256 52.9658C91.0239 52.7675 91.3028 52.65 91.5819 52.65C91.8609 52.65 92.14 52.7675 92.3383 52.9658C92.5365 53.1641 92.6541 53.4431 92.6541 53.7222V59.5309H98.3744V46.5402L95.5105 42.7216L92.6541 46.5402V49.6245C92.6541 49.9109 92.5365 50.1826 92.3383 50.3809C92.14 50.5792 91.8609 50.6967 91.5745 50.6967C91.2882 50.6967 91.0165 50.5792 90.8183 50.3809C90.62 50.1826 90.5025 49.9036 90.5025 49.6245V46.1877C90.5025 45.9332 91.1291 44.9736 92.3824 43.3091L92.4264 43.2503C92.9404 42.5674 93.5793 41.7229 94.3871 40.6507L94.4384 40.5846V33.0722C94.4384 32.7931 94.5486 32.5214 94.7616 32.3158C94.9672 32.1175 95.2315 32 95.5179 32C95.8043 32 96.076 32.1175 96.2816 32.3158C96.4799 32.5214 96.5974 32.7858 96.5974 33.0722V40.5846L96.6414 40.6507C97.4712 41.7522 98.1248 42.6188 98.6388 43.3017C100.526 45.8059 100.526 45.8059 100.526 46.1437V59.5383H102.075C102.362 59.5383 102.634 59.6558 102.832 59.8541C103.03 60.0523 103.148 60.3314 103.148 60.6104V75.2682H104.69C104.976 75.2682 105.248 75.3783 105.446 75.5839C105.644 75.7822 105.762 76.0613 105.762 76.3403V113.286H111.247C111.534 113.286 111.805 113.403 112.004 113.601C112.202 113.8 112.319 114.079 112.319 114.358C112.319 114.637 112.209 114.909 112.004 115.114C111.798 115.32 111.526 115.43 111.247 115.43H43.0869L43.0795 115.423ZM103.618 113.278V77.4051H87.411V113.278H90.5098V84.2053C90.5098 83.9189 90.62 83.6471 90.8256 83.4489C91.0239 83.2506 91.3028 83.1331 91.5819 83.1331C91.8609 83.1331 92.14 83.2506 92.3383 83.4489C92.5439 83.6545 92.6541 83.9189 92.6541 84.2053V113.278H98.2056V103.864C98.2056 103.578 98.3231 103.306 98.5214 103.108C98.7196 102.909 98.9986 102.792 99.2776 102.792C99.5567 102.792 99.8358 102.909 100.034 103.108C100.232 103.306 100.35 103.585 100.35 103.864V113.278H103.618ZM85.2667 113.278V96.3368L77.167 84.756L69.0601 96.3368V113.278H85.2667ZM85.2667 92.5989V83.9629H79.2232L85.2667 92.5989ZM69.0601 92.5989L75.111 83.9629H69.0601V92.5989ZM100.996 75.2608V61.6753H90.0325V75.2608H100.996ZM61.6727 59.5309V46.5402L58.8088 42.7216L55.9522 46.5402V59.5309H61.6727Z" fill="#524A0D"/>
</svg>
