<svg width="155" height="157" viewBox="0 0 155 157" fill="none" xmlns="http://www.w3.org/2000/svg">
<g clip-path="url(#clip0_778_1576)">
<path d="M77.4 156.6C120.147 156.6 154.8 121.544 154.8 78.3C154.8 35.0561 120.147 0 77.4 0C34.6532 0 0 35.0561 0 78.3C0 121.544 34.6532 156.6 77.4 156.6Z" fill="#F6E0EE"/>
<path d="M61.7498 39.0098C66.2598 39.0098 69.9098 42.6598 69.9098 47.1698C69.9098 51.6798 66.2598 55.3298 61.7498 55.3298C57.2398 55.3298 53.5898 51.6798 53.5898 47.1698C53.5898 45.2398 54.2598 43.4598 55.3898 42.0598" stroke="#582542" stroke-width="3" stroke-linecap="round" stroke-linejoin="round"/>
<path d="M60.25 117.59H117.23" stroke="#582542" stroke-width="3" stroke-linecap="round" stroke-linejoin="round"/>
<path d="M37.5698 117.59H46.8998" stroke="#582542" stroke-width="3" stroke-linecap="round" stroke-linejoin="round"/>
<path d="M82.3496 106.439H110.84" stroke="#582542" stroke-width="3" stroke-linecap="round" stroke-linejoin="round"/>
<path d="M82.3496 95.2988H110.84" stroke="#582542" stroke-width="3" stroke-linecap="round" stroke-linejoin="round"/>
<path d="M82.3496 84.1504H110.84" stroke="#582542" stroke-width="3" stroke-linecap="round" stroke-linejoin="round"/>
<path d="M82.3496 73H110.84" stroke="#582542" stroke-width="3" stroke-linecap="round" stroke-linejoin="round"/>
<path d="M82.3496 61.8496H110.84" stroke="#582542" stroke-width="3" stroke-linecap="round" stroke-linejoin="round"/>
<path d="M82.3496 50.6992H110.84" stroke="#582542" stroke-width="3" stroke-linecap="round" stroke-linejoin="round"/>
<path d="M43.8296 83.5C43.8296 83.5 46.7796 74.12 54.9196 73V109.65" stroke="#582542" stroke-width="3" stroke-linecap="round" stroke-linejoin="round"/>
<path d="M65.57 83.5901C65.57 83.5901 65.65 74.8201 55.23 72.8301" stroke="#582542" stroke-width="3" stroke-linecap="round" stroke-linejoin="round"/>
<path d="M54.9199 72.8289C43.6899 69.3689 38.8799 72.9989 38.8799 72.9989" stroke="#582542" stroke-width="3" stroke-linecap="round" stroke-linejoin="round"/>
<path d="M70.9597 72.9993C70.9597 72.9993 65.2397 69.1793 55.2397 72.8293" stroke="#582542" stroke-width="3" stroke-linecap="round" stroke-linejoin="round"/>
<path d="M43.0601 61.8496C43.0601 61.8496 53.4001 64.9496 55.0401 72.8296" stroke="#582542" stroke-width="3" stroke-linecap="round" stroke-linejoin="round"/>
<path d="M66.7798 61.8496C66.7798 61.8496 55.6998 64.2696 55.0498 72.3696" stroke="#582542" stroke-width="3" stroke-linecap="round" stroke-linejoin="round"/>
</g>
<defs>
<clipPath id="clip0_778_1576">
<rect width="154.8" height="156.6" fill="white"/>
</clipPath>
</defs>
</svg>
