<svg width="155" height="157" viewBox="0 0 155 157" fill="none" xmlns="http://www.w3.org/2000/svg">
<ellipse cx="77.4" cy="78.3" rx="77.4" ry="78.3" fill="#FFDED6"/>
<path d="M78.6874 116.94C78.1951 116.94 77.791 116.543 77.791 116.058C77.791 115.573 78.1951 115.177 78.6874 115.177H94.6166C95.2265 115.177 95.7408 114.662 95.7408 114.06V104.625C95.7408 104.015 95.2265 103.508 94.6166 103.508H56.9243C56.3144 103.508 55.8001 104.023 55.8001 104.625V114.06C55.8001 114.67 56.3144 115.177 56.9243 115.177H72.8462C73.3384 115.177 73.7426 115.573 73.7426 116.058C73.7426 116.543 73.3384 116.94 72.8462 116.94H56.9243C55.3152 116.94 54 115.647 54 114.052V104.618C54 103.082 55.2197 101.811 56.7773 101.738L57.1153 101.723V100.275C57.1153 98.681 58.4232 97.3878 60.0322 97.3878H63.6325L63.2504 96.8294C60.1645 92.3179 60.2233 86.0577 63.3974 80.8702L63.4268 80.8261V80.7673C64.1615 72.3028 61.0168 68.1073 59.0844 66.3585C58.6142 65.9323 58.4599 65.3078 58.6877 64.72C58.9154 64.1175 59.4738 63.728 60.0984 63.728C60.1939 63.728 60.2894 63.7354 60.3849 63.7501C61.2446 63.9044 62.0822 64.1322 62.861 64.4408L63.3312 64.6245L63.3459 64.1175C63.4194 61.2666 64.1248 58.7096 65.4326 56.52L65.6604 56.1379L65.2342 55.9983C65.1534 55.9762 65.0726 55.9395 64.9991 55.9101L63.3827 55.1974C62.2365 54.6904 61.5311 53.5147 61.6266 52.2803L61.6928 51.45C61.7515 50.6492 62.4569 50.1716 63.0961 50.1716C63.368 50.1716 63.6325 50.2524 63.8603 50.4067C64.2203 50.6418 64.5509 50.7594 64.8889 50.7594C65.2416 50.7594 65.4987 50.6345 65.6677 50.5316L67.5266 49.4662L66.9094 49.1796C65.9469 48.7241 65.0652 48.4889 64.3672 48.4889C63.7941 48.4889 63.3312 48.6432 62.9859 48.9445C62.8096 49.1061 62.5892 49.2164 62.3614 49.2825C62.2218 49.3192 62.0822 49.3413 61.9352 49.3413C61.8397 49.3413 61.7368 49.3339 61.6413 49.3119C61.3989 49.2678 61.1711 49.1723 60.9727 49.0327C60.7743 48.8931 60.6127 48.702 60.5025 48.4889C59.9147 47.3794 59.2093 45.7409 59.2093 44.2493C59.2093 41.3543 61.296 40.7739 64.7273 40.164C64.8448 40.1493 64.955 40.0832 65.0285 39.9877C65.8 38.9443 67.5928 37.1074 70.9432 36.3799C71.0167 36.3652 71.0975 36.3285 71.1563 36.2771C71.2224 36.2183 71.2738 36.1522 71.3032 36.0713L72.082 33.9625C72.3098 33.3821 72.8609 33 73.4927 33C73.8454 33 74.1834 33.1249 74.4553 33.3527C74.6463 33.5143 74.8226 33.6833 74.9916 33.867L75.1239 34.0066L75.3076 33.9772C76.2039 33.8376 77.0636 33.7642 77.8645 33.7642C78.827 33.7642 79.7234 33.867 80.5463 34.0728H80.5757H80.6124C80.7887 34.0728 80.899 34.0654 81.0239 34.0654C82.1921 34.0654 84.1833 34.4255 85.9393 35.4468C88.8268 37.1221 92.2507 41.0825 92.1552 50.4067C92.1111 54.9108 92.5814 58.8492 93.5586 62.1115C93.6541 62.4348 93.5733 62.8169 93.3455 63.1402C93.0957 63.4929 92.7063 63.706 92.2801 63.728C92.0524 63.7427 91.8172 63.7501 91.5821 63.7501C90.7004 63.7501 89.7894 63.6619 88.9591 63.4929L88.408 63.3827L88.5476 63.9338C89.084 66.0646 89.8114 68.0558 90.7078 69.8634C91.1045 70.6569 90.9943 71.5754 90.4286 72.2587L90.3331 72.3763V72.5747L90.3404 72.604C91.2001 75.499 91.7732 78.2397 92.0377 80.7453C92.0597 80.9804 91.9936 81.2082 91.8393 81.3919C91.685 81.5756 91.4719 81.6931 91.2368 81.7152C91.2074 81.7152 91.178 81.7152 91.1413 81.7152C91.0531 81.7152 90.9649 81.7005 90.8841 81.6784C90.7739 81.6417 90.6637 81.5903 90.5755 81.5168C90.4874 81.4433 90.4065 81.3551 90.3551 81.2523C90.2963 81.1494 90.2669 81.0392 90.2522 80.9216C90.0024 78.563 89.4734 75.9987 88.6799 73.2874L88.6138 73.0669L88.386 73.0376C88.2684 73.0229 88.2023 73.0008 88.1435 72.9861L80.032 70.7671C79.5764 70.6422 79.1797 70.385 78.8858 70.0177C78.5919 69.6576 78.4229 69.2168 78.3935 68.7539L77.9453 61.0314L73.3238 63.3092L73.3825 63.5811C73.4413 63.8676 73.5148 64.1469 73.5956 64.4261C73.8528 65.3151 73.434 66.2409 72.589 66.623L68.2687 68.6069L68.5112 68.9522C68.93 69.5548 69.3047 70.2014 69.6133 70.8626L69.7235 71.0904L69.9733 71.061C70.1423 71.0463 70.3113 71.0316 70.4729 71.0316C72.398 71.0316 73.9483 72.2293 74.7271 74.3087L74.7639 74.4189L74.8888 74.5071C76.9167 75.1757 77.8057 77.02 77.3061 79.4521L77.2693 79.6358L77.4016 79.768C78.9372 81.3037 79.0107 83.3464 77.5926 85.367C77.431 85.5948 77.2105 85.7785 76.946 85.896C76.755 85.9768 76.5419 86.0209 76.3362 86.0209C76.2627 86.0209 76.1893 86.0209 76.1158 86.0062L75.7411 85.9548L75.7117 86.3369C75.4766 89.5478 73.4634 90.6867 71.8102 90.6867C70.4142 90.6867 69.1357 89.9299 68.5479 88.769C67.916 87.5125 68.1585 85.9842 68.4671 84.9188L68.5259 84.7204L68.3863 84.5734C68.2614 84.4412 68.1659 84.2942 68.0924 84.1252C67.6515 83.0745 66.8213 82.5381 65.631 82.5381C65.462 82.5381 65.271 82.5528 65.0726 82.5749C65.0138 82.5822 64.9477 82.5896 64.8816 82.5896C64.8375 82.5896 64.7934 82.5896 64.7493 82.5896L64.5068 82.5675L64.3966 82.7879C61.4283 88.8498 63.03 94.4414 65.9469 97.2849L66.0131 97.3511L66.1453 97.3878H84.5727L84.6388 97.3364C87.9011 94.7573 89.7894 91.1276 90.2816 86.5206C90.2963 86.403 90.3257 86.2928 90.3845 86.1899C90.4433 86.0871 90.5168 85.9989 90.6049 85.9254C90.7004 85.8519 90.8033 85.8005 90.9135 85.7638C90.9943 85.7417 91.0825 85.727 91.1707 85.727C91.2001 85.727 91.2368 85.727 91.2662 85.727C91.5013 85.7491 91.7217 85.8666 91.8687 86.0503C92.0156 86.234 92.0891 86.4618 92.0597 86.6969C91.6262 90.7455 90.1935 94.1401 87.8129 96.7853L87.2765 97.3805H91.494C93.1031 97.3805 94.4182 98.6737 94.4182 100.268V101.716L94.7562 101.73C96.3139 101.811 97.5336 103.075 97.5336 104.611V114.045C97.5336 115.639 96.2257 116.933 94.6093 116.933H78.68L78.6874 116.94ZM60.0322 99.1512C59.4224 99.1512 58.9081 99.6656 58.9081 100.268V101.723H92.6328V100.268C92.6328 99.6582 92.1185 99.1512 91.5087 99.1512H60.0322ZM72.5817 84.0444C71.9571 84.0444 71.2812 84.2354 70.5685 84.6102L70.4876 84.6543L70.4142 84.7571C70.2084 85.2862 69.6353 86.9614 70.157 87.9901C70.304 88.284 70.6052 88.6955 71.5236 88.8865C71.6485 88.9159 71.7808 88.9306 71.9057 88.9306C72.4053 88.9306 72.8462 88.7175 73.1842 88.3061C73.8454 87.5125 74.0879 86.0136 73.8013 84.5L73.7646 84.3016L73.5736 84.2281C73.2576 84.1105 72.9196 84.0517 72.5743 84.0517L72.5817 84.0444ZM72.6184 82.2663C73.8969 82.2663 75.0284 82.7512 75.9762 83.7064L76.3436 84.0738L76.5566 83.6035C77.0342 82.5308 76.8358 81.6344 75.9615 80.8628C75.6455 80.5836 75.4545 80.1869 75.4398 79.7754C75.4398 79.7019 75.4766 79.5109 75.5059 79.3419C75.6676 78.4602 76.0129 76.6306 74.1908 76.153C73.6691 76.0207 73.265 75.6386 73.1107 75.1463C72.4861 73.2139 71.3106 72.8098 70.4289 72.8098C70.2378 72.8098 70.0395 72.8318 69.8337 72.8686C69.7382 72.8833 69.6427 72.898 69.5472 72.898C68.93 72.898 68.3642 72.5232 68.1291 71.9648C67.0197 69.3123 64.8007 67.1153 62.1777 66.0866L60.9507 65.609L61.7662 66.6377C63.6398 69.0037 65.7632 73.3094 65.271 80.3926L65.2416 80.7747H65.6236C67.2842 80.7747 68.6361 81.5021 69.4296 82.832L69.5986 83.1112L69.8925 82.9643C70.8183 82.5087 71.7367 82.2736 72.6184 82.2736V82.2663ZM78.9666 36.2183C82.2362 39.1941 81.3912 44.6461 80.6418 49.4588L80.583 49.8115C79.4589 57.0563 79.5323 58.1585 79.9732 65.3519C80.032 66.3291 80.0981 67.4239 80.1716 68.6583V68.7098L80.201 68.7906L80.245 68.8714C80.3332 68.9816 80.414 69.0404 80.5022 69.0625L88.5917 71.2741H88.6579C88.893 71.2741 89.0105 71.1639 89.0693 71.0684C89.1501 70.9361 89.1575 70.7745 89.084 70.6275C87.9525 68.3644 86.4904 64.6098 85.9466 59.5913C85.7115 57.4898 85.7336 55.0284 85.7556 52.4199C85.8217 44.9694 85.8952 36.5195 79.2531 35.6011L78.1216 35.4468L78.9666 36.2183ZM71.2959 53.5001C70.517 54.132 69.6647 54.683 68.7683 55.1459L68.7316 55.1606L68.7022 55.19C65.5208 58.4671 65.0138 62.5891 65.1461 65.4694V65.587L65.2489 65.7119C65.8514 66.1307 66.3804 66.5642 66.8654 67.0345L67.0417 67.2035L71.869 64.9845L71.7881 64.6906C71.002 61.825 71.024 58.1732 71.8616 53.838L72.0453 52.8828L71.2885 53.4927L71.2959 53.5001ZM85.6601 38.1287L85.7483 38.305C87.6072 41.9715 87.5778 47.0488 87.5484 51.957C87.5337 55.0872 87.5117 58.3201 87.9819 61.1784L88.0186 61.3915L88.2244 61.4576C89.3412 61.8323 90.4506 61.9425 91.1854 61.9646L91.663 61.9793L91.5454 61.5164C90.7225 58.3128 90.3257 54.5655 90.3698 50.3773C90.4286 44.4624 89.062 40.2522 86.3067 37.8642L86.1597 37.7393L85.6674 38.1213L85.6601 38.1287ZM76.8946 37.629C77.5044 40.4212 77.0195 45.2559 74.9108 49.1061C73.9483 52.2656 72.8535 56.8286 73.0372 60.9065L73.0592 61.4503L77.8718 59.0843V58.8639C77.8865 55.5133 78.3788 52.3244 78.8123 49.5176C79.3854 45.8144 79.885 42.6108 79.2017 39.9877C78.9813 39.128 78.6139 38.2095 77.4604 37.2837L76.6742 36.6518L76.8873 37.6364L76.8946 37.629ZM63.4415 52.8094C63.4855 52.9784 63.5737 53.14 63.6839 53.2723C63.7941 53.4045 63.9411 53.5147 64.1027 53.5882L65.7192 54.301C65.8 54.3377 65.8882 54.3524 65.9763 54.3524C66.0424 54.3524 66.1086 54.345 66.1747 54.323C71.7 52.3979 73.8528 47.7101 74.6463 45.0796C75.7631 41.3837 75.5059 37.4307 74.0144 35.4762L73.625 34.9618L73.0005 36.6665C72.7286 37.4013 72.1114 37.9376 71.3326 38.1066C68.4524 38.7312 66.9829 40.355 66.4833 41.0237C66.138 41.4866 65.6236 41.8025 65.0432 41.9054C61.3695 42.552 61.0021 42.9267 61.0021 44.242C61.0021 44.9988 61.274 45.9834 61.7956 47.0855L61.9646 47.4382L62.3026 47.2398C62.883 46.8945 63.5737 46.7181 64.3452 46.7181C65.7485 46.7181 67.4091 47.2913 69.1504 48.3861C69.5398 48.6285 69.7676 49.0474 69.7602 49.5029C69.7529 49.9585 69.5104 50.3699 69.1137 50.5977C68.2614 51.09 67.4091 51.575 66.5568 52.0673C66.0131 52.3759 65.4473 52.5302 64.8742 52.5302C64.5436 52.5302 64.2129 52.4787 63.8896 52.3759L63.2798 52.1848L63.4415 52.802V52.8094Z" fill="#952A11"/>
</svg>
