<svg width="155" height="157" viewBox="0 0 155 157" fill="none" xmlns="http://www.w3.org/2000/svg">
<mask id="mask0_2068_10395" style="mask-type:luminance" maskUnits="userSpaceOnUse" x="0" y="0" width="155" height="157">
<path d="M155 0H0V157H155V0Z" fill="white"/>
</mask>
<g mask="url(#mask0_2068_10395)">
<path d="M77.4 156.6C120.147 156.6 154.8 121.544 154.8 78.3C154.8 35.0561 120.147 0 77.4 0C34.6532 0 0 35.0561 0 78.3C0 121.544 34.6532 156.6 77.4 156.6Z" fill="#F0E6FF"/>
<path d="M44.0781 87.1252C44.3115 87.1257 44.5386 87.05 44.725 86.9096L49.0375 83.6752C49.1192 83.6139 49.1918 83.5413 49.2531 83.4596L55.6216 74.9683L63.0326 69.6736C63.1479 69.592 63.2457 69.4883 63.3205 69.3685L68.6464 60.8513L74.9621 54.5346L74.2743 60.0416C74.2447 60.2731 74.2917 60.5078 74.4079 60.7101L78.4703 67.8149L75.4128 75.9645C75.384 76.044 75.3641 76.1264 75.3535 76.2103L74.3271 84.4213L67.0961 90.6194C66.9393 90.7538 66.8244 90.9305 66.7651 91.1283L65.4714 95.4408C65.3892 95.7146 65.4192 96.0098 65.5546 96.2615C65.6901 96.5132 65.92 96.7008 66.1937 96.7831C66.2942 96.8127 66.3984 96.8279 66.5031 96.8283C66.7351 96.8284 66.9608 96.7536 67.1469 96.6151C67.333 96.4766 67.4694 96.2818 67.536 96.0596L68.7392 92.0501L76.0456 85.7873C76.249 85.6127 76.3801 85.3686 76.4133 85.1027L77.4763 76.6038L80.6665 68.0985C80.722 67.95 80.7442 67.7911 80.7313 67.633C80.7185 67.475 80.6709 67.3218 80.5921 67.1842L76.4585 59.9489L77.1895 54.099L82.0723 59.7947C82.1855 59.9268 82.3285 60.03 82.4896 60.0955L87.6753 62.1699L89.6753 64.1687C89.8786 64.3651 90.1509 64.4738 90.4336 64.4713C90.7163 64.4688 90.9867 64.3555 91.1866 64.1556C91.3865 63.9557 91.4999 63.6853 91.5023 63.4026C91.5048 63.1199 91.3961 62.8476 91.1997 62.6442L89.0435 60.488C88.9402 60.3849 88.8174 60.3036 88.6823 60.2486L83.5375 58.1916L77.2402 50.8463C77.2066 50.8151 77.1705 50.7866 77.1324 50.7611C77.0701 50.699 77.0002 50.645 76.9243 50.6005C76.8646 50.5737 76.8025 50.5528 76.7388 50.538C76.6806 50.5119 76.6199 50.4917 76.5577 50.4776H76.5103C76.4941 50.4776 76.479 50.469 76.4639 50.469C76.2116 50.449 75.9616 50.5296 75.7685 50.6932L75.7513 50.7072C75.7211 50.7331 75.6877 50.7557 75.6596 50.7838L67.0346 59.4088C66.9769 59.4664 66.9259 59.5304 66.8826 59.5996L61.6052 68.0424L54.233 73.309C54.1428 73.3728 54.0631 73.4503 53.9969 73.5387L47.6208 82.0429L43.4313 85.1846C43.2502 85.3204 43.1165 85.5096 43.049 85.7256C42.9816 85.9416 42.9838 86.1734 43.0553 86.388C43.1269 86.6027 43.2642 86.7894 43.4477 86.9217C43.6313 87.054 43.8518 87.1252 44.0781 87.1252ZM107.091 78.608L103.018 76.5725L101.634 74.6319C101.465 74.4074 101.214 74.2578 100.937 74.2151C100.659 74.1725 100.375 74.24 100.146 74.4034C99.9174 74.5668 99.7615 74.8131 99.7118 75.0899C99.662 75.3666 99.7222 75.6518 99.8797 75.8847L101.42 78.0409C101.522 78.1843 101.658 78.3005 101.815 78.3795L105.871 80.4063L110.025 86.6379C110.103 86.7557 110.204 86.8569 110.322 86.9356C110.44 87.0144 110.572 87.0692 110.711 87.0969C110.85 87.1247 110.993 87.1248 111.131 87.0972C111.27 87.0697 111.402 87.0151 111.52 86.9365C111.638 86.858 111.739 86.757 111.818 86.6393C111.897 86.5216 111.952 86.3896 111.979 86.2507C112.007 86.1119 112.007 85.9689 111.98 85.83C111.952 85.6911 111.897 85.559 111.819 85.4412L107.506 78.9724C107.401 78.8176 107.258 78.6921 107.091 78.608ZM88.2813 72.0315C88.2813 72.3174 88.3948 72.5916 88.597 72.7938C88.7992 72.996 89.0734 73.1096 89.3594 73.1096H110.922C111.078 73.1095 111.233 73.0754 111.375 73.0095C111.517 72.9437 111.643 72.8477 111.744 72.7283C111.845 72.6089 111.919 72.4689 111.961 72.318C112.002 72.1671 112.011 72.009 111.985 71.8547C111.935 71.5539 110.698 64.4846 105.531 64.4846C104.718 64.4859 103.913 64.6444 103.159 64.9514C102.446 63.9823 101.476 63.2323 100.358 62.7865C99.2409 62.3407 98.0208 62.2169 96.8365 62.4291C95.6522 62.6413 94.551 63.1811 93.6578 63.9873C92.7646 64.7934 92.1151 65.8337 91.783 66.9901C90.7533 67.3708 89.8654 68.0584 89.2391 68.96C88.6129 69.8616 88.2785 70.9337 88.2813 72.0315ZM92.9355 68.8909C93.1411 68.8428 93.3279 68.7354 93.473 68.5821C93.6181 68.4288 93.715 68.2363 93.7517 68.0284C93.9073 67.1409 94.3387 66.325 94.9845 65.6967C95.6303 65.0683 96.4577 64.6595 97.3492 64.5282C98.2406 64.3969 99.1507 64.5498 99.9503 64.9653C100.75 65.3807 101.398 66.0375 101.803 66.8424C101.871 66.9739 101.964 67.0902 102.079 67.1839C102.193 67.2776 102.325 67.3469 102.467 67.3873C102.61 67.4278 102.758 67.4385 102.905 67.419C103.051 67.3995 103.192 67.35 103.319 67.2737C103.984 66.8624 104.75 66.6434 105.531 66.6408C107.858 66.6408 109.037 69.3114 109.543 70.9533H90.6208C90.8022 70.4427 91.1094 69.9861 91.5139 69.6256C91.9185 69.2651 92.4074 69.0124 92.9355 68.8909ZM44.0781 54.7815H65.6406C65.9266 54.7815 66.2008 54.6679 66.403 54.4657C66.6052 54.2635 66.7188 53.9893 66.7188 53.7033C66.7213 52.6056 66.3869 51.5335 65.7607 50.632C65.1345 49.7304 64.2466 49.0428 63.217 48.662C62.8849 47.5056 62.2354 46.4653 61.3422 45.6592C60.449 44.853 59.3478 44.3132 58.1635 44.101C56.9792 43.8887 55.7591 44.0125 54.6415 44.4584C53.524 44.9042 52.5537 45.6542 51.8406 46.6233C51.0875 46.3163 50.2821 46.1578 49.4688 46.1565C44.3024 46.1565 43.0647 53.2257 43.0151 53.5265C42.9894 53.6809 42.9977 53.839 43.0393 53.9899C43.0809 54.1408 43.1548 54.2808 43.256 54.4002C43.3571 54.5196 43.4831 54.6156 43.625 54.6814C43.767 54.7472 43.9216 54.7814 44.0781 54.7815ZM49.4688 48.3127C50.2505 48.3153 51.0162 48.5343 51.6811 48.9456C51.8076 49.0219 51.9486 49.0713 52.0951 49.0909C52.2415 49.1104 52.3905 49.0996 52.5327 49.0592C52.6748 49.0188 52.8071 48.9495 52.9214 48.8558C53.0357 48.762 53.1294 48.6458 53.1969 48.5143C53.6019 47.7094 54.2502 47.0526 55.0497 46.6371C55.8493 46.2217 56.7594 46.0687 57.6508 46.2C58.5423 46.3313 59.3697 46.7402 60.0155 47.3686C60.6613 47.9969 61.0927 48.8128 61.2483 49.7003C61.285 49.9081 61.3819 50.1007 61.527 50.254C61.6721 50.4073 61.859 50.5147 62.0645 50.5628C62.5926 50.6843 63.0815 50.937 63.4861 51.2974C63.8907 51.6579 64.1978 52.1146 64.3792 52.6252H45.457C45.9627 50.9832 47.1422 48.3127 49.4688 48.3127Z" fill="#544D60"/>
<path d="M110.922 93.5939C93.6794 93.5939 69.3666 99.2713 69.3666 99.2713C61.5099 95.391 52.8396 93.4445 44.0781 93.5939C43.7922 93.5939 43.518 93.7075 43.3158 93.9097C43.1136 94.1118 43 94.3861 43 94.672V111.922C43 112.208 43.1136 112.482 43.3158 112.684C43.518 112.887 43.7922 113 44.0781 113H110.922C111.208 113 111.482 112.887 111.684 112.684C111.886 112.482 112 112.208 112 111.922V94.672C112 94.3861 111.886 94.1118 111.684 93.9097C111.482 93.7075 111.208 93.5939 110.922 93.5939ZM66.5484 100.325C64.6636 100.933 62.7942 101.588 60.9422 102.289C55.4482 104.321 50.162 106.876 45.1562 109.918V95.7588C52.5262 95.7828 59.8109 97.3376 66.5484 100.325ZM61.8047 104.271C77.1871 98.6091 93.4526 95.7242 109.844 95.7501V100.113C86.1433 101.21 67.5414 106.325 57.863 110.844H47.8074C52.2856 108.275 56.9658 106.076 61.8014 104.267L61.8047 104.271ZM109.844 110.844H63.4844C73.539 107.097 89.9836 103.195 109.844 102.267V110.844ZM68.4438 74.4033C68.3305 74.3183 68.2016 74.2565 68.0644 74.2214C67.9273 74.1862 67.7846 74.1784 67.6444 74.1985C67.5042 74.2185 67.3694 74.2659 67.2476 74.3381C67.1258 74.4102 67.0193 74.5056 66.9344 74.6189L63.9296 78.6252L59.988 79.6106C59.7111 79.68 59.4731 79.8564 59.326 80.1011L56.0917 85.4918C56.0157 85.6132 55.9647 85.7485 55.9416 85.8899C55.9185 86.0312 55.9238 86.1757 55.9572 86.315C55.9906 86.4543 56.0514 86.5855 56.136 86.701C56.2207 86.8165 56.3275 86.914 56.4503 86.9878C56.573 87.0616 56.7093 87.1101 56.851 87.1307C56.9927 87.1512 57.1371 87.1433 57.2758 87.1074C57.4144 87.0715 57.5446 87.0084 57.6585 86.9216C57.7725 86.8349 57.868 86.7263 57.9396 86.6022L60.9454 81.5944L64.8266 80.624C65.0667 80.5639 65.2787 80.4231 65.4272 80.2251L68.6615 75.9126C68.7464 75.7992 68.808 75.6702 68.843 75.533C68.878 75.3958 68.8856 75.253 68.8653 75.1128C68.8451 74.9727 68.7975 74.8379 68.7251 74.7161C68.6528 74.5944 68.5572 74.488 68.4438 74.4033ZM93.9339 81.7669L90.0257 80.7901L88.1001 77.9018C88.0215 77.784 87.9205 77.6828 87.8029 77.6041C87.6852 77.5253 87.5532 77.4705 87.4143 77.4428C87.2754 77.415 87.1325 77.4149 86.9936 77.4424C86.8547 77.47 86.7226 77.5246 86.6048 77.6031C86.487 77.6817 86.3858 77.7827 86.307 77.9004C86.2283 78.0181 86.1735 78.1501 86.1457 78.289C86.118 78.4278 86.1179 78.5708 86.1454 78.7097C86.1729 78.8486 86.2275 78.9807 86.3061 79.0985L88.4624 82.3329C88.6111 82.5557 88.8375 82.7152 89.0974 82.7803L92.929 83.7377L94.8632 87.6071C94.991 87.863 95.2153 88.0576 95.4866 88.1482C95.7579 88.2388 96.0541 88.2179 96.31 88.0901C96.566 87.9622 96.7606 87.738 96.8512 87.4667C96.9418 87.1953 96.9209 86.8991 96.793 86.6432L94.6368 82.3307C94.5672 82.1916 94.4684 82.0691 94.3471 81.9718C94.2257 81.8745 94.0848 81.8046 93.9339 81.7669ZM70.8501 71.5516L73.0064 68.3172C73.085 68.1994 73.1396 68.0673 73.1671 67.9284C73.1946 67.7895 73.1945 67.6466 73.1668 67.5077C73.139 67.3689 73.0842 67.2368 73.0055 67.1191C72.9267 67.0015 72.8255 66.9005 72.7077 66.8219C72.5899 66.7433 72.4578 66.6887 72.3189 66.6612C72.18 66.6337 72.0371 66.6338 71.8982 66.6615C71.7593 66.6892 71.6273 66.744 71.5096 66.8228C71.392 66.9016 71.291 67.0027 71.2124 67.1205L69.0561 70.3549C68.9775 70.4727 68.9229 70.6048 68.8954 70.7437C68.8679 70.8826 68.868 71.0256 68.8957 71.1644C68.9235 71.3033 68.9783 71.4353 69.057 71.553C69.1358 71.6707 69.237 71.7717 69.3548 71.8503C69.5927 72.009 69.8839 72.0666 70.1643 72.0106C70.4447 71.9546 70.6914 71.7895 70.8501 71.5516ZM83.4868 71.0665C83.3601 71.1297 83.247 71.2173 83.1541 71.3243C83.0613 71.4312 82.9904 71.5554 82.9455 71.6898C82.9006 71.8242 82.8827 71.9661 82.8927 72.1074C82.9027 72.2487 82.9405 72.3866 83.0038 72.5133L84.082 74.6696C84.1452 74.7963 84.2329 74.9093 84.3398 75.0021C84.4468 75.095 84.571 75.1659 84.7053 75.2107C84.8397 75.2556 84.9816 75.2735 85.1229 75.2635C85.2641 75.2536 85.4021 75.2158 85.5288 75.1526C85.6555 75.0893 85.7685 75.0016 85.8614 74.8947C85.9542 74.7877 86.0251 74.6635 86.0699 74.5292C86.1148 74.3948 86.1327 74.2529 86.1228 74.1117C86.1128 73.9704 86.0751 73.8324 86.0118 73.7057L84.9337 71.5495C84.8704 71.4227 84.7828 71.3097 84.6759 71.2168C84.5689 71.1239 84.4447 71.053 84.3103 71.0081C84.176 70.9633 84.0341 70.9453 83.8928 70.9553C83.7515 70.9654 83.6135 71.0031 83.4868 71.0665Z" fill="#544D60"/>
</g>
</svg>
