<?xml version="1.0" encoding="UTF-8"?><svg xmlns="http://www.w3.org/2000/svg" xmlns:xlink="http://www.w3.org/1999/xlink" viewBox="0 0 450.23 251.83"><defs><style>.e{fill:#fa9960;}.f{fill:#ffb27b;}.g{fill:#469df0;}.h{fill:#21b7c0;}.i{fill:url(#c);}.j{fill:#ffb079;}.k{fill:#039dae;}.l{fill:#f3c6a6;}.m{fill:#ff7e1c;}.n{fill:#ff8e4b;}.o{fill:#a2cdfc;}.p{fill:#ff973d;}.q{fill:#004d99;}.r{fill:#c33f3b;}.s{fill:#1f3765;}.t{fill:#00448c;}.u{fill:#2776ce;}.v{fill:#d49d7a;}.w{fill:#2a2d49;}.x{fill:#383838;}.y{fill:#e8f1f8;}.a`{fill:#eb8d5a;}.aa{fill:#26468d;}.ab{fill:#0d458d;}.ac{fill:#e25345;}.ad{fill:#0c3563;}.ae{fill:#003b72;}.af{fill:#003261;}.ag{fill:#ff9759;}</style><radialGradient id="c" cx="225.72" cy="238.76" fx="225.72" fy="238.76" r="194.83" gradientTransform="translate(0 192.79) scale(1 .19)" gradientUnits="userSpaceOnUse"><stop offset="0" stop-color="#c9c9c9"/><stop offset=".51" stop-color="#cacaca"/><stop offset=".69" stop-color="#d1d1d1"/><stop offset=".82" stop-color="#ddd"/><stop offset=".93" stop-color="#eee"/><stop offset="1" stop-color="#fff"/></radialGradient></defs><g id="a"/><g id="b"><g><path d="M26.22,238.91c-.27,0-.5-.05-.5-.11v-.09c0-.06,.22-.11,.5-.11H425.23c.27,0,.5,.05,.5,.11v.09c0,.06-.22,.11-.5,.11" style="fill:url(#c);"/><g><g><path d="M103.61,146.26l1.69,1.38s4.63-1.66,5.68,3.84c0,0,.28,2.35-1.21,2.35-1.49,0-.87-.26-2.98-.19-2.11,.06-3.85-1.05-4.16-2.76l-1.01-1.45,1.98-3.17Z" style="fill:#ff8e4b;"/><path d="M103.41,149.21c1.35-1.41,1.24-2.45,1.24-2.45,0,0-15.65-12.81-17.24-13.86-1.08-.71-12.61-10.93-17.99-17.16-2.67-3.09-5.98-1.89-9.77-.8l-3.12,.89c-3.77,1.08-4.74,6.35-1.66,8.91,8.7,7.21,23.18,15.31,25.89,17.02,6.72,4.23,19.89,9.26,19.89,9.26,0,0,1.6-.59,2.76-1.8Z" style="fill:#003b72;"/></g><path d="M121.27,227.92s3.8,2.85,9.62,1.34c0,0,4.69-1.07,5.72,1.27,0,0-7.2,3.66-9.02,4.66-1.37,.75-2.8,1.94-3.82,2.86-.8,.73-2.05,.63-2.73-.21-.32-.39-.68-.85-1.08-1.39-1.11-1.5-3.69-6.36-3.69-6.36l5-2.17Z" style="fill:#0c3563;"/><path d="M123.5,226.47s-2.31,5.33-7.65,4.35c0,0-10.89-9-18.36-18.34-2.43-3.03-4.49-6.11-5.71-8.92-4.95-11.47-18.33-28.58-26.83-37.25l21.27-7.7s6.81,13.71,15.88,30.54c6.53,12.13,14.23,25.89,21.4,37.31Z" style="fill:#0d458d;"/><path d="M124.74,125.24c.14-1.32,.18-2.63,.12-3.91-.03-.59,.3-1.15,.84-1.4l6.28-2.92c.68-.31,1-1.09,.74-1.79l-2.17-5.96c-.24-.67-.95-1.05-1.64-.88l-6.2,1.52c-.61,.15-1.24-.12-1.57-.65-1.41-2.31-3.19-4.38-5.26-6.14-.51-.43-.65-1.15-.36-1.74l1.71-3.49c.33-.66,.1-1.47-.53-1.87l-5.31-3.37c-.63-.4-1.46-.25-1.92,.34l-3.73,4.9c-1.15-.29-2.33-.5-3.53-.64-1.62-.18-3.21-.19-4.77-.07-.59,.05-1.15-.28-1.4-.81l-2.35-5.07c-.32-.69-1.12-1.02-1.83-.76l-5.86,2.13c-.71,.26-1.12,1.01-.94,1.75l1.27,5.18c.15,.6-.1,1.22-.61,1.55-1.66,1.07-3.19,2.33-4.55,3.75-.44,.46-1.13,.57-1.7,.29l-5.66-2.78c-.67-.33-1.48-.1-1.87,.53l-3.35,5.29c-.41,.64-.25,1.49,.35,1.95l5.51,4.19c.46,.35,.67,.95,.51,1.52-.34,1.25-.58,2.54-.72,3.87-.08,.7-.12,1.4-.14,2.1-.01,.57-.35,1.08-.86,1.32l-6.03,2.8c-.67,.31-.99,1.08-.74,1.78l2.14,5.89c.26,.71,1.02,1.12,1.76,.94l4.91-1.21c.65-.16,1.33,.14,1.64,.74,1.21,2.35,2.78,4.5,4.65,6.36,.45,.45,.56,1.12,.29,1.69l-2.51,5.1c-.34,.68-.1,1.51,.54,1.92l5.28,3.35c.63,.4,1.47,.25,1.92-.34l3.66-4.8c.37-.49,1.01-.69,1.6-.52,1.42,.41,2.89,.71,4.41,.87,.82,.09,1.63,.14,2.43,.15,.56,0,1.06,.33,1.3,.84l2.39,5.14c.32,.7,1.13,1.03,1.85,.77l5.86-2.13c.7-.25,1.1-1,.92-1.72l-1.01-4.13c-.16-.65,.14-1.33,.74-1.64,3-1.57,5.66-3.72,7.82-6.33,.43-.51,1.15-.67,1.75-.37l4.58,2.25c.67,.33,1.47,.1,1.87-.53l3.35-5.29c.41-.64,.26-1.5-.35-1.96l-5.28-4.02c-.44-.33-.65-.89-.54-1.43,.13-.69,.24-1.39,.32-2.11Zm-19.88,10.01c-13.2,4.72-24.16-9-16.58-20.86,1.14-1.78,3.7-3.84,5.69-4.57,13.21-4.86,24.26,8.79,16.82,20.66-1.18,1.88-3.85,4.03-5.93,4.77Z" style="fill:#a2cdfc;"/><path d="M102.1,189.16l-4.62,23.32c-2.43-3.03-4.49-6.11-5.71-8.92-4.95-11.47-18.33-28.58-26.83-37.25l21.27-7.7s6.81,13.71,15.88,30.54Z" style="fill:#0c3563;"/><path d="M84.72,231.01s-.23,4.25,4.93,4.82c0,0,3.11,.06,3.12,2.77h-15.16s-.44-1.09-.54-3.43c-.08-1.8,1.74-6.49,1.74-6.49l5.91,2.33Z" style="fill:#0c3563;"/><path d="M79.25,158.62s9.48,10.41,15.49,29.17c3.27,10.21-6,35.87-7.81,44.79,0,0-6.22,.53-10.47-1.12,0,0-.32-18.42,2.16-32.61,1.39-7.94-12.48-16.99-18.54-31.34-4.12-9.76,.89-9.6,7.06-9.83l12.1,.94Z" style="fill:#0d458d;"/><path d="M68.31,112.17c-5.27,2.98-16.07,.23-16.07,.23,0,0,4.38-5.01,2.39-13.08l4.14,2.1,4.45,2.26s.29,1.43,.49,3.99c.05,.66,.1,1.4,.13,2.2,2.71,.82,4.47,2.3,4.47,2.3Z" style="fill:#ffb079;"/><path d="M87.64,158.08c0,.93-1.07,1.37-1.29,1.42-2.13,.39-8.06,2.7-13.41,3.23-4.5,.47-8.69,.02-13.28-.9-.61-.12-2.04-.51-2.14-1.09-.13-.64-17.72-35.87-4.04-51,.32-.35,3.02,.28,5.49,.87,2.28,.54,4.37,.24,6.24-.51l2.32,1.22c2.84,1.58,8.22,7.21,8.85,11.63,.32,2.25,1.6,3.91,1.98,5.89,.14,.73,.28,1.45,.42,2.14,.28,1.36,.57,2.66,.87,3.9,.8,3.34,1.65,6.22,2.49,8.7,.89,2.64,1.76,4.83,2.53,6.67,1.01,2.38,1.86,4.16,2.39,5.52,.38,.96,.59,1.71,.59,2.32Z" style="fill:#004d99;"/><path d="M87.05,155.76c-24.83-11.7-33.44-34.17-33.44-34.17,0,0,20.18,7.44,25.15,9.38,.28,1.36,.57,2.66,.87,3.9,.8,3.34,1.65,6.22,2.49,8.7,.89,2.64,1.76,4.83,2.53,6.67,1.01,2.38,1.86,4.16,2.39,5.52Z" style="fill:#003b72;"/><g><path d="M101.58,148.98l2.15,.79s4.3-3.04,6.97,1.9c0,0,.97,2.16-.56,2.63-1.53,.47-.97,.03-3.13,.74-2.15,.72-4.27,.2-5.09-1.34l-1.46-1.07,1.12-3.65Z" style="fill:#ffb079;"/><path d="M103.35,152.02c.79-2.07,1.16-3.01,1.16-3.01,0,0-16.22-13.22-17.87-14.35-1.13-.77-12.34-9.15-17.8-15.68-2.71-3.24-6.99-4.72-11.12-3.85l-3.4,.71c-4.11,.86-5.45,6.06-2.26,8.8,8.98,7.7,24.13,16.63,26.95,18.48,7.01,4.61,22.52,11.07,22.52,11.07,0,0,1.2-.55,1.83-2.18Z" style="fill:#004d99;"/></g><path d="M63.71,107.66c-5.18,.29-8.56-3.99-8.56-3.99,0,0,2.34-1.3,3.62-2.25l4.45,2.26s.29,1.43,.49,3.99Z" style="fill:#ff8e4b;"/><path d="M65.92,102.34s-7.86,5.64-11.29,.69c-3.44-4.95-6.76-7.55-1.89-11.36,4.87-3.81,7.17-2.61,8.71-1.23,1.55,1.37,6.42,10.31,4.47,11.9Z" style="fill:#ffb079;"/><path d="M62.28,85.97c-.28-1.9-.92-3.24-.92-3.24,0,0-.49,2.04-4.23,1.76-3.73-.28-9.65,.37-11.62,4.62-.13,.27-.24,.55-.34,.83-.36-.94-.44-2.36-.44-2.36-.71,1.83,0,4.12,0,4.12h0c-.01,.07-.02,.13-.03,.2-.82,.7-1.52,2.86-1.52,2.86,.25-.6,.85-1,1.4-1.24-.02,3.31,1.33,6.54,3.68,7.51,3.44,1.41,3.42,.33,6.88,2.63,0,0,.93-1.15,.3-1.93-.63-.77-3.03-1.9-1.69-3.03,1.34-1.13,1.83,.14,2.32-.63,.49-.77-1.97-3.03,1.2-5.14,3.17-2.11,5.28-5.07,5-6.97Z" style="fill:#0c3563;"/></g><path d="M390.34,164.13l-17.16-10.34c-1.42-.87-2.23-2.47-2.1-4.13,.18-2.12,.26-4.26,.26-6.43,0-4.02-.28-7.96-.9-11.78-.28-1.79,.52-3.56,2.08-4.48l17.93-10.82c1.92-1.14,2.65-3.59,1.64-5.62l-8.44-17.18c-.96-1.95-3.21-2.84-5.25-2.12l-18.12,6.58c-1.75,.68-3.74,.09-4.92-1.44-4.98-6.45-11-12.09-17.8-16.7-1.64-1.11-2.32-3.26-1.64-5.12l4.02-11.02c.74-2.1-.18-4.46-2.19-5.47l-17.08-8.35c-.35-.17-.7-.31-1.07-.37-1.75-.37-3.61,.42-4.55,2.01l-7.74,12.81-1.88,3.13c-3.52-.5-7.15-.76-10.8-.76-4.92,0-9.75,.46-14.39,1.33-1.77,.33-3.56-.44-4.48-1.99l-8.7-14.45c-1.2-1.97-3.69-2.71-5.75-1.68l-13.14,6.45-3.76,1.86c-2.06,1.01-3.04,3.41-2.25,5.55l5.49,15.15c.66,1.75,.13,3.72-1.31,4.85-4.26,3.48-8.16,7.39-11.57,11.68-.33,.35-.59,.7-.87,1.07-.09,.13-.2,.24-.31,.35-1.2,1.29-3.06,1.71-4.72,1.09l-17.91-6.49c-.2-.09-.42-.13-.61-.17-1.92-.39-3.94,.57-4.83,2.36l-8.35,17.01c-1.01,2.06-.28,4.53,1.68,5.73l17.91,10.78c1.53,.9,2.32,2.65,2.03,4.39-.59,3.85-.9,7.81-.9,11.85,0,2.14,.09,4.26,.26,6.36,.13,1.71-.7,3.35-2.16,4.22l-17.23,10.41c-1.9,1.14-2.62,3.56-1.64,5.58l8.37,16.99c1.01,2.06,3.39,3.04,5.58,2.25l14.34-5.2c1.92-.7,4.04,0,5.18,1.68,4.39,6.67,9.82,12.59,16.03,17.6,1.49,1.16,2.05,3.17,1.4,4.96l-5.86,16.14c-.79,2.16,.2,4.57,2.25,5.6l16.94,8.33c2.03,1.01,4.5,.26,5.64-1.66l.46-.74,8.99-14.89c.96-1.6,2.78-2.4,4.61-2.08h.02c4.39,.79,8.92,1.2,13.56,1.2,2.47,0,4.9-.13,7.32-.35,1.68-.17,3.3,.63,4.18,2.08l8.83,14.67c1.2,2.01,3.76,2.75,5.84,1.73l16.92-8.33c.48-.24,.9-.57,1.25-.92,1.12-1.18,1.53-2.95,.96-4.55l-4.42-12.09c-.52-1.49-.22-3.15,.77-4.33,.26-.31,.57-.59,.92-.83,8.53-5.68,15.81-13.01,21.47-21.56,.94-1.46,2.69-2.16,4.37-1.88,.24,.04,.48,.11,.72,.2l14.5,5.27c2.1,.77,4.44-.17,5.44-2.19l.2-.39,8.15-16.57c1.01-2.1,.26-4.59-1.73-5.79Zm-135.49-32.69c.83-2.95,1.97-5.95,3.45-8.94,2.84-5.71,9.86-12.77,15.59-15.59,.61-.31,1.22-.59,1.84-.87,37.47-16.83,73.61,19.96,55.45,57.46-2.38,4.9-7.65,10.65-12.79,14.21-1.2,.81-2.38,1.53-3.5,2.06-5.23,2.54-10.43,4.02-15.5,4.59-28.9,3.21-52.69-23.35-44.54-52.91Z" style="fill:#a2cdfc;"/><path d="M345.29,211.18l-3.24-1.95c-.27-.17-.42-.47-.4-.78,.03-.4,.05-.81,.05-1.21,0-.76-.05-1.5-.17-2.23-.05-.34,.1-.67,.39-.85l3.39-2.04c.36-.21,.5-.68,.31-1.06l-1.59-3.25c-.18-.37-.61-.54-.99-.4l-3.42,1.24c-.33,.13-.71,.02-.93-.27-.94-1.22-2.08-2.28-3.36-3.15-.31-.21-.44-.62-.31-.97l.76-2.08c.14-.4-.03-.84-.41-1.03l-3.22-1.58c-.07-.03-.13-.06-.2-.07-.33-.07-.68,.08-.86,.38l-1.46,2.42-.36,.59c-.66-.09-1.35-.14-2.04-.14-.93,0-1.84,.09-2.72,.25-.33,.06-.67-.08-.85-.38l-1.64-2.73c-.23-.37-.7-.51-1.09-.32l-2.48,1.22-.71,.35c-.39,.19-.57,.64-.43,1.05l1.04,2.86c.12,.33,.02,.7-.25,.92-.8,.66-1.54,1.4-2.18,2.2-.06,.07-.11,.13-.17,.2-.02,.02-.04,.05-.06,.07-.23,.24-.58,.32-.89,.21l-3.38-1.23s-.08-.02-.12-.03c-.36-.07-.74,.11-.91,.45l-1.58,3.21c-.19,.39-.05,.85,.32,1.08l3.38,2.04c.29,.17,.44,.5,.38,.83-.11,.73-.17,1.47-.17,2.24,0,.4,.02,.81,.05,1.2,.02,.32-.13,.63-.41,.8l-3.25,1.97c-.36,.21-.5,.67-.31,1.05l1.58,3.21c.19,.39,.64,.57,1.05,.43l2.71-.98c.36-.13,.76,0,.98,.32,.83,1.26,1.85,2.38,3.03,3.32,.28,.22,.39,.6,.26,.94l-1.11,3.05c-.15,.41,.04,.86,.43,1.06l3.2,1.57c.38,.19,.85,.05,1.07-.31l.09-.14,1.7-2.81c.18-.3,.52-.45,.87-.39h0c.83,.15,1.68,.23,2.56,.23,.47,0,.92-.02,1.38-.07,.32-.03,.62,.12,.79,.39l1.67,2.77c.23,.38,.71,.52,1.1,.33l3.2-1.57c.09-.05,.17-.11,.24-.17,.21-.22,.29-.56,.18-.86l-.83-2.28c-.1-.28-.04-.59,.14-.82,.05-.06,.11-.11,.17-.16,1.61-1.07,2.99-2.46,4.05-4.07,.18-.28,.51-.41,.83-.36,.05,0,.09,.02,.14,.04l2.74,.99c.4,.14,.84-.03,1.03-.41l.04-.07,1.54-3.13c.19-.4,.05-.87-.33-1.09Zm-25.59-6.17c.16-.56,.37-1.12,.65-1.69,.54-1.08,1.86-2.41,2.94-2.94,.12-.06,.23-.11,.35-.17,7.08-3.18,13.9,3.77,10.47,10.85-.45,.92-1.45,2.01-2.42,2.68-.23,.15-.45,.29-.66,.39-.99,.48-1.97,.76-2.93,.87-5.46,.61-9.95-4.41-8.41-9.99Z" style="fill:#ff973d;"/><path d="M246.6,42.79l-6.08-2.82c-.5-.24-.83-.74-.85-1.3-.02-.71-.07-1.43-.14-2.15-.14-1.34-.38-2.64-.72-3.89-.16-.59,.05-1.2,.53-1.57l5.57-4.25c.6-.45,.75-1.29,.34-1.93l-3.43-5.41c-.39-.61-1.17-.83-1.82-.52l-5.79,2.84c-.56,.29-1.24,.16-1.69-.3-1.89-1.96-4.09-3.62-6.52-4.91-.59-.31-.89-1-.73-1.64l.94-3.81c.17-.72-.22-1.48-.92-1.74l-5.98-2.16c-.12-.05-.24-.08-.37-.09-.6-.06-1.18,.27-1.44,.83l-2.11,4.54-.51,1.11c-1.19-.04-2.41,0-3.62,.13-1.64,.18-3.23,.5-4.74,.96-.58,.17-1.2-.02-1.56-.5l-3.41-4.49c-.47-.61-1.33-.77-1.97-.35l-4.14,2.62-1.18,.75c-.65,.41-.89,1.24-.55,1.93l2.37,4.84c.28,.56,.18,1.23-.26,1.66-1.29,1.31-2.45,2.75-3.43,4.3-.1,.13-.17,.25-.25,.39-.02,.05-.06,.09-.09,.13-.35,.47-.96,.68-1.53,.53l-6.19-1.51c-.07-.02-.14-.03-.21-.04-.65-.06-1.29,.33-1.52,.96l-2.16,5.96c-.26,.72,.07,1.52,.77,1.84l6.34,2.94c.54,.24,.87,.8,.83,1.39-.06,1.3-.02,2.63,.13,3.97,.08,.71,.18,1.41,.32,2.11,.1,.56-.11,1.14-.57,1.48l-5.35,4.08c-.59,.45-.74,1.28-.34,1.91l3.4,5.35c.41,.65,1.24,.89,1.94,.55l4.58-2.25c.61-.3,1.34-.15,1.78,.37,1.7,2.06,3.72,3.83,5.96,5.27,.54,.33,.8,.98,.64,1.6l-1.37,5.58c-.18,.75,.23,1.51,.95,1.78l5.93,2.16c.71,.26,1.51-.08,1.82-.76l.13-.26,2.45-5.28c.26-.57,.84-.9,1.46-.86h0c1.49,.1,3.01,.08,4.55-.09,.82-.09,1.62-.22,2.42-.38,.55-.12,1.12,.09,1.46,.54l3.47,4.56c.47,.63,1.35,.78,2,.36l5.33-3.38c.15-.1,.28-.22,.38-.35,.33-.43,.4-1.04,.16-1.55l-1.9-3.86c-.23-.48-.19-1.04,.1-1.47,.08-.11,.17-.22,.28-.31,2.63-2.2,4.79-4.9,6.36-7.94,.26-.52,.82-.82,1.39-.78,.08,0,.16,.02,.25,.04l5.01,1.23c.73,.18,1.47-.22,1.73-.92l.05-.14,2.11-5.8c.26-.73-.08-1.54-.78-1.86Zm-46.23-5.98c.17-1.01,.44-2.05,.83-3.1,.74-2,2.82-4.6,4.62-5.75,.19-.12,.39-.24,.58-.36,11.85-6.95,25.2,3.98,20.51,17.11-.62,1.71-2.16,3.82-3.74,5.19-.37,.31-.74,.59-1.09,.81-1.65,1.03-3.32,1.71-4.99,2.09-9.5,2.11-18.36-5.86-16.72-15.99Z" style="fill:#e8f1f8;"/><g><g><path d="M283.55,214c.35,.41,.4,.86,.22,1.34h0c-.32,.9-1.39,1.9-2.64,2.9-.16,.13-.3,.24-.42,.35-.03,.03-.06,.06-.1,.09-.03,.02-.05,.04-.07,.07-1.16,1.07-.72,1.31-2.81,3.48-2.38,2.47-4.01,2.52-4.48,2.29-.39-.19,.41-1.5,1.29-2.98,.04-.07,.09-.14,.13-.21,.12-.2,.24-.39,.35-.59,1.04-1.77,.77-2.61,.53-5.24-.2-2.14-3.34-11.98-3.34-11.98l4.55-.78s1.37,7.83,2.88,9.04c.81,.64,1.71,.65,2.49,1.13,.05,.03,.11,.07,.16,.1,.44,.29,.89,.59,1.25,1Z" style="fill:#fa9960;"/><path d="M283.55,214c.35,.41,.4,.86,.22,1.34h0c-.4,.9-1.44,1.9-2.64,2.89-.16,.13-.3,.25-.42,.36-.03,.03-.06,.06-.1,.09-.03,.02-.05,.04-.07,.07-1.16,1.07-.72,1.31-2.81,3.48-2.38,2.47-4.01,2.52-4.48,2.29-.39-.19,.41-1.5,1.29-2.98,.46-.17,2.61-1.04,4.23-3.12,1.43-1.83,2.38-4.17,3.36-5.53,.05,.03,.11,.07,.16,.1,.44,.29,.89,.59,1.25,1Z" style="fill:#e25345;"/><path d="M246.84,211.16c-.28,1.41-2.28,1.17-4.52,.62-2.24-.55-1.71,.1-4.89-.25-3.18-.35-4.15-1.54-4.25-2.01-.09-.42,1.49-.57,3.18-.76,.21-.02,.43-.05,.64-.08,1.91-.24,3.3-1.47,5.03-2.48,1.64-.96,4.09-4.85,4.09-4.85l4.37,.35s-2.29,3.48-3.18,4.99c-.52,.89-.49,2.07-.43,2.98,.03,.49,.07,1-.03,1.49Z" style="fill:#fa9960;"/><path d="M242.32,211.78c-2.24-.55-1.71,.1-4.89-.25-3.18-.35-4.15-1.54-4.25-2.01-.09-.42,1.49-.57,3.18-.76l.02,.03s1.91,1.35,4.56,1.42c2.16,.05,4.45-.57,5.94-.54,.03,.49,.07,1-.03,1.49-.28,1.41-2.28,1.17-4.52,.62Z" style="fill:#e25345;"/><path d="M256.56,147s-1.04-2.55-2.19-2.65c-1.14-.1-4.79-.68-5.05-.16-.26,.52,0,2.39,.78,3.07,.78,.68,5.62,1.77,5.62,1.77l.83-2.03Z" style="fill:#fa9960;"/><path d="M263.58,183.23l9.41,25.33s1.45,.14,2.83-.26c1.28-.37,2.74-1.33,2.74-1.33,0,0-2.34-24.33-6.62-29.39-4.28-5.06-8.37,5.64-8.37,5.64Z" style="fill:#c33f3b;"/><path d="M300.81,172.98s-27.05-9.15-33.08-7.2c-6.03,1.95-24.15,37.98-24.15,37.98,0,0,.41,.54,1.52,.96,1.04,.39,3.55,.36,3.55,.36,0,0,16.35-14.01,18.29-18.1,1.95-4.09,2.72-7.98,4.67-7.59,1.95,.39,25.1,9.54,30.36,4.09,5.25-5.45,3.88-12.53,3.88-12.53l-5.05,2.02Z" style="fill:#e25345;"/><path d="M284.28,130.43c-.43-.89-.91-2.48-1.15-5.3,.04,.28,.52,3.84,1.89,5.86,5.63,3.69,16.41,16.03,16.19,18.36,0,0,3.8-6.44,3.86-6.48,0,0,7.01-8.91-1.3-14.01-4.22-2.59-4.2-5.92-4.02-8.81,.18-2.89-1.15-15.34-9.6-12.08,0,0-1.36-.6-1.96-.51,0,0,.5,.09,.75,.36-.98-.06-2.38,.01-3.55,.68-3.1,1.76-5.87,17.56-1.11,21.95Z" style="fill:#2a2d49;"/><path d="M285.36,131.17s2.72,1.44,4.78,.87c1.94-.53,3.21-3.05,3.18-3.05-.82-.16-1.06-1.29-1.04-6.15l-.37,.07-6.25,1.24s.14,1.97,.15,3.82c0,1.56-.09,3.03-.45,3.2Z" style="fill:#fa9960;"/><path d="M285.66,124.15s.14,1.97,.15,3.82c3.5-.1,5.35-3.29,6.1-5.06l-6.25,1.24Z" style="fill:#eb8d5a;"/><path d="M292.55,122.23s1.83-2.9,2.27-5.37c.31-1.77-.59-8.32-7.17-7.38,0,0-1.91,.19-3.71,1.4-1.43,.97-3.49,3.05-1.19,8.77l.6,1.93,9.2,.65Z" style="fill:#383838;"/><path d="M284.49,125.91s8.28,.14,8.28-5.02c0-5.15,1.08-8.61-4.21-8.91-5.28-.31-6.31,1.66-6.73,3.38-.42,1.72,.5,10.38,2.66,10.55Z" style="fill:#fa9960;"/><path d="M284.8,111.85s2.27,6.05,5.74,6.94c3.48,.89,4.99-.04,4.99-.04,0,0-2.67-2.12-3.22-5.82,0,0-5.8-3.97-7.51-1.09Z" style="fill:#2a2d49;"/><path d="M285.36,112.34s-1.69,1.35-2.1,2.66c-.41,1.31-.6,4.01-1.39,3.92,0,0-1.71-4.11,.21-6.44,2.03-2.47,3.28-.15,3.28-.15Z" style="fill:#2a2d49;"/><path d="M303.79,153.43c.82-3.42-1.96-10.06-4.86-15.56-2.63-4.98-5.36-9.03-5.6-8.88-6.94,4.12-7.56,.69-7.56,.69,0,0-6.3,.84-8.08,3.91-2.47,4.25-5.15,16.99-7.8,16.8-1.21-.09-13.41-4.67-13.41-4.67,0,0-2.03,1.9-1.64,4.24,0,0,6.02,4.03,11.11,6.61,2.69,1.36,5.13,2.31,6.27,2.04,2.32-.55,5.94-5.92,7.9-9.09v-.02c2.51,14.15-.89,17.37,.83,18.86,1.82,1.57,4.41-.75,10.12,1.72,3.74,1.62,8.94,3.97,12.44,4.38,1.83,.22,3.2-.1,3.65-1.34,1.3-3.6-4.93-13.16-3.37-19.69Z" style="fill:#469df0;"/><path d="M307.16,173.12c-.45,1.24-1.82,1.56-3.65,1.34-2.42-1.05-12.88-5.11-12.76-7.85,.17-4.06,2.01-4.19,.71-9.21-1.04-4.03,8.62-11.52,10.16-13.15,2.9,5.5,2.98,5.76,2.16,9.18-1.56,6.52,4.67,16.09,3.37,19.69Z" style="fill:#2776ce;"/><path d="M280.12,149.52c-1.96,3.17-5.58,8.54-7.9,9.09-1.14,.27-3.58-.68-6.27-2.04,1.97,.51,3.88,.49,5.73,.31,2.01-.19,2.59-2.66,5.77-6.36,2.06-2.4,2.57-1.79,2.67-1Z" style="fill:#2776ce;"/><path d="M289.81,157.3s-1.75-1.36-3.41-1.04c-1.65,.32-2.47,1.46-2.4,1.98,.06,.52,.94,1.98,2.21,2.11,1.27,.13,4.87-.78,4.87-.78l-1.27-2.27Z" style="fill:#fa9960;"/><path d="M293.32,128.99s6.75,.42,9.08,3.67c3.29,4.58,9,23.3,7.44,27.58l-20.52-.09s-.5-2.32,.19-3.45c.69-1.12,11.94-2.94,12.46-3.46,.52-.52-6.49-10.12-6.49-11.68s-2.16-12.58-2.16-12.58Z" style="fill:#469df0;"/></g><g><g><polygon points="283.53 150.85 258.72 150.85 263.2 166.47 288.05 166.47 283.53 150.85" style="fill:#00448c;"/><rect x="263.29" y="165.86" width="32.48" height=".61" style="fill:#003261;"/></g><path d="M273.08,158.4c-.16-.55-.73-.99-1.28-.99s-.87,.45-.71,.99c.16,.55,.73,.99,1.28,.99s.87-.45,.71-.99Z" style="fill:#003261;"/></g></g><g><g><path d="M150.18,192.53h39.13c1.37,0,2.48,1.11,2.48,2.48v6.62c0,1.37-1.11,2.48-2.48,2.48h-39.13c-1.37,0-2.48-1.11-2.48-2.48v-6.62c0-1.37,1.11-2.48,2.48-2.48Z" style="fill:#ff973d;"/><path d="M191.79,200.43v1.2c0,1.37-1.12,2.48-2.48,2.48h-39.13c-1.37,0-2.48-1.12-2.48-2.48v-1.3h43.39c.25,0,.49,.04,.71,.1Z" style="fill:#ff7e1c;"/><path d="M157.11,204.12l-1.76,6.68h0l-7.34,27.81h-.77l4.24-23.07s.01-.05,.01-.07l2.1-11.41,3.52,.06Z" style="fill:#f3c6a6;"/><path d="M157.11,204.12l-1.76,6.68h0c-.1,.05-3.31,1.71-3.86,4.67l2.1-11.41,3.52,.06Z" style="fill:#d49d7a;"/><path d="M191.79,238.61h-.77l-5.98-22.65h0l-1.36-5.16h0l-1.76-6.68,3.52-.06,1.2,6.52,.9,4.89s.01,.05,.01,.07l4.24,23.07Z" style="fill:#f3c6a6;"/><path d="M179.87,212.87s0,0-.01,0c-.02-.03-.01-.02,.01,0Z" style="fill:#f3c6a6;"/><path d="M186.64,210.58c-.65,.95-1.55,2.72-1.6,5.37l-1.36-5.15h0l-1.76-6.68,3.52-.06,1.2,6.52Z" style="fill:#d49d7a;"/></g><g id="d"><path d="M142.32,62.21c.91-.95,1.53-.59,1.53-.59,0,0,10.74,8.25,11.76,8.85,1.02,.6,14.99,1,14.99,1,0,0,5.59-.06,6.95,2.81,1.18,2.5,.35,4.64-.87,6.22-1.45,1.88-3.92,2.66-6.2,2-5.12-1.49-15.31-4.54-17.21-5.71-4.24-2.59-11.9-12.95-11.9-12.95,0,0,.23-.88,.95-1.63Z" style="fill:#039dae;"/><path d="M153.9,54.2l-5.36-3.23c-.44-.27-.7-.77-.66-1.29,.05-.66,.08-1.33,.08-2.01,0-1.26-.09-2.49-.28-3.68-.09-.56,.16-1.11,.65-1.4l5.6-3.38c.6-.36,.83-1.12,.51-1.76l-2.64-5.37c-.3-.61-1-.89-1.64-.66l-5.66,2.06c-.55,.21-1.17,.03-1.54-.45-1.56-2.02-3.44-3.78-5.56-5.22-.51-.35-.72-1.02-.51-1.6l1.26-3.44c.23-.66-.05-1.39-.68-1.71l-5.33-2.61c-.11-.05-.22-.1-.33-.12-.55-.12-1.13,.13-1.42,.63l-2.42,4-.59,.98c-1.1-.16-2.23-.24-3.37-.24-1.54,0-3.05,.14-4.49,.42-.55,.1-1.11-.14-1.4-.62l-2.72-4.52c-.38-.61-1.15-.85-1.8-.53l-4.11,2.02-1.18,.58c-.64,.31-.95,1.07-.7,1.73l1.71,4.73c.2,.55,.04,1.16-.41,1.52-1.33,1.09-2.55,2.31-3.61,3.65-.1,.11-.18,.22-.27,.33-.03,.04-.06,.08-.1,.11-.38,.4-.96,.53-1.48,.34l-5.59-2.03c-.06-.03-.13-.04-.19-.05-.6-.12-1.23,.18-1.51,.74l-2.61,5.31c-.31,.64-.09,1.41,.53,1.79l5.59,3.37c.48,.28,.72,.83,.64,1.37-.18,1.2-.28,2.44-.28,3.7,0,.67,.03,1.33,.08,1.99,.04,.53-.22,1.05-.68,1.32l-5.38,3.25c-.59,.36-.82,1.11-.51,1.74l2.62,5.31c.31,.64,1.06,.95,1.74,.7l4.48-1.63c.6-.22,1.26,0,1.62,.53,1.37,2.08,3.07,3.93,5.01,5.5,.46,.36,.64,.99,.44,1.55l-1.83,5.04c-.25,.68,.06,1.43,.7,1.75l5.29,2.6c.64,.31,1.41,.08,1.76-.52l.14-.23,2.81-4.65c.3-.5,.87-.75,1.44-.65h0c1.37,.25,2.79,.38,4.24,.38,.77,0,1.53-.04,2.29-.11,.53-.05,1.03,.2,1.3,.65l2.76,4.58c.38,.63,1.18,.86,1.82,.54l5.29-2.6c.15-.08,.28-.18,.39-.29,.35-.37,.48-.92,.3-1.42l-1.38-3.78c-.16-.46-.07-.98,.24-1.35,.08-.1,.18-.18,.29-.26,2.66-1.78,4.94-4.06,6.71-6.74,.29-.46,.84-.68,1.37-.59,.07,.01,.15,.03,.23,.06l4.53,1.65c.66,.24,1.39-.05,1.7-.68l.06-.12,2.55-5.18c.31-.66,.08-1.43-.54-1.81Zm-42.33-10.21c.26-.92,.61-1.86,1.08-2.79,.89-1.78,3.08-3.99,4.87-4.87,.19-.1,.38-.18,.57-.27,11.71-5.26,23,6.24,17.32,17.95-.74,1.53-2.39,3.33-4,4.44-.38,.25-.74,.48-1.09,.64-1.63,.79-3.26,1.26-4.84,1.43-9.03,1-16.46-7.3-13.91-16.53Z" style="fill:#ff973d;"/><path d="M130.46,64.91s.02-3.96-.61-5.12c-.63-1.15-2.06-2.6-2.88-2.13-.82,.46-1.07,4.33-.82,5.02,.25,.69,2.11,3.29,2.11,3.29l2.2-1.05Z" style="fill:#ffb27b;"/><path d="M179.62,192.53c.88-.76,.35-4.99,.35-4.99,0,0-4.55-3.64-5.18-.85-.63,2.79-4.32,4.04-6.43,4.38-1.4,.23-1.87,.99-2.03,1.47h13.28Z" style="fill:#1f3765;"/><path d="M180.13,187.73c-4.21,.65-5.76-.35-5.76-.35,.05-4.15-1.23-13.51-2.98-24.26-2.31-14.17-5.45-30.75-7.43-40.97-1.14-5.88-1.9-9.65-1.9-9.65l3.44-.07,17.18-.34s-1.29,19.01-.93,28.4c.08,2.24,.26,3.94,.57,4.69,2.93,7.11-2.19,42.55-2.19,42.55Z" style="fill:#26468d;"/><path d="M181.75,140.49c-2.33,4.37-8.18,15.61-10.36,22.63-2.31-14.17-5.45-30.75-7.43-40.97,.1-3.86,.56-7.24,1.54-9.72l17.18-.34s-1.29,19.01-.93,28.4Z" style="fill:#1f3765;"/><path d="M165.15,192.53c.88-.76,.35-4.99,.35-4.99,0,0-4.55-3.64-5.18-.85-.63,2.79-4.32,4.04-6.43,4.38-1.4,.23-1.87,.99-2.03,1.47h13.28Z" style="fill:#1f3765;"/><path d="M154.59,112.08s6.75,62.44,5.41,75.03c0,0,1.44,1.13,5.7,.87,0,0,7.71-35.97,6.08-41.79-1.14-4.05,3.39-32.63,3.39-32.63l-20.57-1.48Z" style="fill:#26468d;"/><path d="M171.2,67.43s-8.58,4.29-12.84,2.33c0,0,1.79-2.32,3.79-3.28-.04-.76-.07-1.45-.08-2.06-.04-2.03,.06-3.17,.06-3.17l3.7-2.69,2.51-1.83c-.14,1.13-.17,2.17-.1,3.13,.33,4.94,2.95,7.57,2.95,7.57Z" style="fill:#ffb27b;"/><path d="M168.25,59.86s-2,3.99-6.17,4.56c-.04-2.03,.06-3.17,.06-3.17l3.7-2.69c1.62,.61,2.41,1.31,2.41,1.31Z" style="fill:#ff9759;"/><path d="M161.18,60.99s7.68,2.74,9.31-2.07c1.63-4.81,3.72-7.7-1.12-9.65-4.84-1.95-6.42-.44-7.35,1.03-.93,1.47-2.8,9.85-.84,10.69Z" style="fill:#ffb27b;"/><path d="M183.22,112.08c-1.2,2.5-27.82,2.39-29.14,.63-.54-.72-1.15-7.9-1.5-16.26-.19-4.63-.31-9.62-.29-14.06,.04-7.25,.45-13.06,1.47-13.5,5.7-2.47,9.23-4.05,16.68-3.82,2.3,.07,4.38,1.4,5.38,3.47,1.79,3.71,4.33,10.27,4.52,18.03,.3,11.95,4.38,22.36,2.87,25.52Z" style="fill:#21b7c0;"/><path d="M160.91,77.47s-.87,12.5-8.33,18.98c-.19-4.63-.31-9.62-.29-14.06,2.23-2.98,5.17-5.13,8.61-4.92Z" style="fill:#039dae;"/><path d="M164.58,65.34s-8.19,.05-10.76,2.44c-1.84,1.71-13.67,11.03-14.42,10.91-.75-.13-8.37-15.33-8.37-15.33,0,0-3.76,.32-4.38,1.94,0,0,3.54,18.98,11.18,23.11,0,0,19.32-3.66,25.05-10.05,2.95-3.29,1.7-13.02,1.7-13.02Z" style="fill:#21b7c0;"/><path d="M161.52,46.55s.45,4.59,1.83,5.84c1.38,1.25,1.01,2.98,1.16,3.23,.15,.25,1.58-.49,1.83-.06,.58,.97-.32,1.68-.89,1.91-.57,.23,1.45,4.17,2.94,4.32,2.57,.25,6.54-6.86,6.88-8.94,.44-2.72-1.1-6.97-5.53-6.76-6.95,.33-8.36-1.18-8.22,.47Z" style="fill:#0d458d;"/></g></g></g></g></svg>