<svg xmlns="http://www.w3.org/2000/svg" xmlns:xlink="http://www.w3.org/1999/xlink" width="116" height="116" viewBox="0 0 116 116">
  <defs>
    <linearGradient id="linear-gradient" x1="0.5" x2="0.5" y2="1" gradientUnits="objectBoundingBox">
      <stop offset="0" stop-color="#fb6757"/>
      <stop offset="1" stop-color="#fe3b8a"/>
    </linearGradient>
  </defs>
  <g id="Group_39871" data-name="Group 39871" transform="translate(-881 -4264)">
    <circle id="Ellipse_226" data-name="Ellipse 226" cx="58" cy="58" r="58" transform="translate(881 4264)" fill="url(#linear-gradient)"/>
    <path id="Icon_zocial-email" data-name="Icon zocial-email" d="M.072,35.968V7.168q0-.05.15-.95l16.95,14.5L.272,36.968a4.238,4.238,0,0,1-.2-1Zm2.25-31.75a2.155,2.155,0,0,1,.85-.15h45.65a2.831,2.831,0,0,1,.9.15l-17,14.55-2.25,1.8-4.45,3.65-4.45-3.65-2.25-1.8Zm.05,34.7,17.05-16.35,6.6,5.35,6.6-5.35,17.05,16.35a2.4,2.4,0,0,1-.85.15H3.172a2.265,2.265,0,0,1-.8-.15Zm32.5-18.2,16.9-14.5a2.984,2.984,0,0,1,.15.95v28.8a3.832,3.832,0,0,1-.15,1Z" transform="translate(912.928 4300.432)" fill="#fffefb"/>
  </g>
</svg>
