<svg id="Group_39820" data-name="Group 39820" xmlns="http://www.w3.org/2000/svg" xmlns:xlink="http://www.w3.org/1999/xlink" width="626.229" height="444.599" viewBox="0 0 626.229 444.599">
  <defs>
    <clipPath id="clip-path">
      <rect id="Rectangle_22543" data-name="Rectangle 22543" width="626.229" height="444.599" fill="none"/>
    </clipPath>
    <clipPath id="clip-path-2">
      <rect id="Rectangle_22542" data-name="Rectangle 22542" width="611.112" height="444.598" fill="none"/>
    </clipPath>
    <clipPath id="clip-path-3">
      <rect id="Rectangle_22517" data-name="Rectangle 22517" width="100.208" height="27.964" fill="none"/>
    </clipPath>
    <clipPath id="clip-path-4">
      <rect id="Rectangle_22538" data-name="Rectangle 22538" width="5.645" height="28.931" fill="none"/>
    </clipPath>
    <clipPath id="clip-path-5">
      <rect id="Rectangle_22539" data-name="Rectangle 22539" width="23.787" height="12.326" fill="none"/>
    </clipPath>
  </defs>
  <g id="Group_39819" data-name="Group 39819" clip-path="url(#clip-path)">
    <rect id="Rectangle_22515" data-name="Rectangle 22515" width="100.208" height="147.136" transform="translate(276.667 296.689)" fill="#c8d6ef"/>
    <g id="Group_39818" data-name="Group 39818" transform="translate(0 0.001)">
      <g id="Group_39817" data-name="Group 39817" clip-path="url(#clip-path-2)">
        <g id="Group_39810" data-name="Group 39810" transform="translate(276.667 311.746)" opacity="0.3">
          <g id="Group_39809" data-name="Group 39809">
            <g id="Group_39808" data-name="Group 39808" clip-path="url(#clip-path-3)">
              <rect id="Rectangle_22516" data-name="Rectangle 22516" width="100.208" height="27.964" transform="translate(0)" fill="#003075"/>
            </g>
          </g>
        </g>
        <path id="Path_78088" data-name="Path 78088" d="M650.731,625.087a26.781,26.781,0,1,1-26.781-26.781,26.781,26.781,0,0,1,26.781,26.781" transform="translate(-297.179 -297.746)" fill="#fff"/>
        <rect id="Rectangle_22518" data-name="Rectangle 22518" width="494.275" height="325.784" transform="translate(79.633 0)" fill="#5479bb"/>
        <rect id="Rectangle_22519" data-name="Rectangle 22519" width="461.082" height="294.824" transform="translate(96.23 12.335)" fill="#fff"/>
        <rect id="Rectangle_22520" data-name="Rectangle 22520" width="207.366" height="19.922" transform="translate(222.772 423.901)" fill="#5479bb"/>
        <path id="Path_78089" data-name="Path 78089" d="M367.349,254.122l8.912-64.319A65.859,65.859,0,1,0,428.7,247.268Z" transform="translate(-148.019 -93.813)" fill="#fff"/>
        <path id="Path_78090" data-name="Path 78090" d="M367.349,254.122l8.912-64.319A65.859,65.859,0,1,0,428.7,247.268Z" transform="translate(-148.019 -93.813)" fill="#73efa1"/>
        <path id="Path_78091" data-name="Path 78091" d="M519.8,225.423a65.86,65.86,0,0,0-52.442-57.466l-8.912,64.319Z" transform="translate(-228.143 -83.584)" fill="#fff"/>
        <path id="Path_78092" data-name="Path 78092" d="M519.8,225.423a65.86,65.86,0,0,0-52.442-57.466l-8.912,64.319Z" transform="translate(-228.143 -83.584)" fill="#fc5353"/>
        <path id="Path_78093" data-name="Path 78093" d="M394.039,360.166c0-2.845,1.736-4.653,4.2-4.653s4.171,1.784,4.171,4.653-1.712,4.653-4.171,4.653-4.2-1.808-4.2-4.653m5.955,0c0-1.808-.7-2.676-1.76-2.676-1.037,0-1.76.893-1.76,2.676s.723,2.677,1.76,2.677c1.061,0,1.76-.867,1.76-2.677m8.294-4.46h2.869l-11.525,16.877h-2.869Zm-2.772,12.417c0-2.844,1.735-4.653,4.171-4.653,2.46,0,4.2,1.809,4.2,4.653s-1.736,4.653-4.2,4.653c-2.435,0-4.171-1.809-4.171-4.653m5.93,0c0-1.784-.7-2.677-1.76-2.677-1.037,0-1.76.869-1.76,2.677s.723,2.676,1.76,2.676c1.061,0,1.76-.891,1.76-2.676" transform="translate(-196.092 -176.921)" fill="#5479bb"/>
        <rect id="Rectangle_22521" data-name="Rectangle 22521" width="167.929" height="123.865" transform="translate(329.781 98.806)" fill="#fff"/>
        <rect id="Rectangle_22522" data-name="Rectangle 22522" width="167.929" height="123.865" transform="translate(329.781 98.806)" fill="none" stroke="#5479bb" stroke-miterlimit="10" stroke-width="2.569"/>
        <rect id="Rectangle_22523" data-name="Rectangle 22523" width="10.971" height="20.305" transform="translate(346.307 177.971)" fill="#c8d6ef"/>
        <rect id="Rectangle_22524" data-name="Rectangle 22524" width="10.971" height="45.122" transform="translate(366.958 153.153)" fill="#c8d6ef"/>
        <rect id="Rectangle_22525" data-name="Rectangle 22525" width="10.971" height="68.574" transform="translate(387.608 129.701)" fill="#c8d6ef"/>
        <rect id="Rectangle_22526" data-name="Rectangle 22526" width="10.971" height="50.868" transform="translate(408.259 147.407)" fill="#c8d6ef"/>
        <rect id="Rectangle_22527" data-name="Rectangle 22527" width="10.971" height="55.06" transform="translate(428.91 143.215)" fill="#c8d6ef"/>
        <rect id="Rectangle_22528" data-name="Rectangle 22528" width="10.971" height="54.163" transform="translate(449.56 144.112)" fill="#c8d6ef"/>
        <rect id="Rectangle_22529" data-name="Rectangle 22529" width="10.971" height="78.025" transform="translate(470.211 120.25)" fill="#c8d6ef"/>
        <path id="Path_78094" data-name="Path 78094" d="M698.885,340.223l-.968-.854,21.994-24.905,22.1-15.173,19.3,17.045,14.414-13.578.885.939-15.271,14.386-19.423-17.158-21.138,14.512Z" transform="translate(-347.317 -148.942)" fill="#5479bb"/>
        <rect id="Rectangle_22530" data-name="Rectangle 22530" width="302.015" height="9.388" transform="translate(177.914 39.265)" fill="#5479bb"/>
        <rect id="Rectangle_22531" data-name="Rectangle 22531" width="300.724" height="2.83" transform="translate(177.914 71.015)" fill="#c8d6ef"/>
        <rect id="Rectangle_22532" data-name="Rectangle 22532" width="300.724" height="2.83" transform="translate(177.914 62.625)" fill="#c8d6ef"/>
        <rect id="Rectangle_22533" data-name="Rectangle 22533" width="300.724" height="2.83" transform="translate(177.914 266.55)" fill="#c8d6ef"/>
        <rect id="Rectangle_22534" data-name="Rectangle 22534" width="300.724" height="2.83" transform="translate(177.914 275.154)" fill="#c8d6ef"/>
        <rect id="Rectangle_22535" data-name="Rectangle 22535" width="300.724" height="2.83" transform="translate(177.914 283.759)" fill="#c8d6ef"/>
        <rect id="Rectangle_22536" data-name="Rectangle 22536" width="68.405" height="8.819" transform="translate(179.75 237.21)" fill="#c8d6ef"/>
        <rect id="Rectangle_22537" data-name="Rectangle 22537" width="68.405" height="8.819" transform="translate(379.542 237.21)" fill="#c8d6ef"/>
        <path id="Path_78095" data-name="Path 78095" d="M324.291,353.744c1.743-3.927,1-8.791-6.938-16.375l-.645,10.083Z" transform="translate(-157.609 -167.891)" fill="#5c261e"/>
        <path id="Path_78096" data-name="Path 78096" d="M344.765,311.854c-.359.155-15.65,11.02-16.354,11.29-.365.139-6.392-3.76-7.512-5.537-.21-.334,2.113-18.585,4.146-17.711,2.6,1.118,1.274,6.193,1.184,7.823.481-.034.258-.05.75-.085a.646.646,0,0,1,.1,0l6.806-11.491a1.216,1.216,0,0,1,.487-.475,1.041,1.041,0,0,1,1.465.934c.157,2.224-2.069,7-2.944,8.861,2.433-2.048,6.012-5.734,8.529-7.686,1.17-.9,2.317.5,1.455,1.871a94.3,94.3,0,0,1-7.09,8.291c2.047-.931,8.03-4.972,8.35-4.694a1.081,1.081,0,0,1,.741,1.842,44.935,44.935,0,0,1-7.3,6.415,22.623,22.623,0,0,0,6.537-1.8c1.357-.586,2,1.574.65,2.154" transform="translate(-159.688 -147.087)" fill="#f7a271"/>
        <path id="Path_78097" data-name="Path 78097" d="M317.5,330.495l-5.611,7.66,3.266,17.546,14.726-20.189Z" transform="translate(-155.211 -164.47)" fill="#f7a271"/>
        <path id="Path_78098" data-name="Path 78098" d="M334.116,326.889l-.657-.278c1.208-2.854-1.05-5.6-1.073-5.629l.547-.458c.1.126,2.558,3.114,1.183,6.365" transform="translate(-165.411 -159.508)" fill="#db7558"/>
        <path id="Path_78099" data-name="Path 78099" d="M347.139,324.184c-1.206-3.071-2.892-5.047-5.156-6.038l.286-.653c2.412,1.057,4.273,3.221,5.532,6.431Z" transform="translate(-170.187 -158)" fill="#db7558"/>
        <path id="Path_78100" data-name="Path 78100" d="M187.068,311.055c4.084-.635,10.566-.3,16.922.746a28.035,28.035,0,0,1,19.235,13.1l11.007,17.771,18.607-18.562a33.469,33.469,0,0,0,6.938,16.375l-20.7,21.785a9.5,9.5,0,0,1-12.45.237l-14.439-10.692-16.133-5.055Z" transform="translate(-93.094 -154.636)" fill="#c9d8f1"/>
        <path id="Path_78101" data-name="Path 78101" d="M153.377,803.224l9.1-14.039L150.909,779.4,142.4,792.394a52.683,52.683,0,0,0,10.98,10.83" transform="translate(-70.863 -387.868)" fill="#db7558"/>
        <path id="Path_78102" data-name="Path 78102" d="M143.59,816.095a52.684,52.684,0,0,1-10.98-10.83l-9.88,15.08L149.7,844.433c1.745-7.633-3.347-20.082-7.613-26.025Z" transform="translate(-61.076 -400.738)" fill="#121c36"/>
        <path id="Path_78103" data-name="Path 78103" d="M202.3,866.677c-5.163-6.023-17.424-10.11-24.307-11.616l-.138-3.3a52.449,52.449,0,0,1-12.807-1.586l.9,16.506Z" transform="translate(-82.135 -423.086)" fill="#003075"/>
        <path id="Path_78104" data-name="Path 78104" d="M177.039,836.144l-.723-17.346-12.906.645.822,15.115a52.455,52.455,0,0,0,12.807,1.586" transform="translate(-81.321 -407.473)" fill="#f7a271"/>
        <path id="Path_78105" data-name="Path 78105" d="M198.6,533.6l-8.835-59.939L157.5,475.277l6.672,55.7,0,.072,7.412,16.88a8.1,8.1,0,0,1,.178,6.015l-7.594,20.443v-.168L138.788,633.06l21.3,16.456,33.074-75.379A74.019,74.019,0,0,0,198.6,533.6" transform="translate(-69.067 -235.718)" fill="#003075"/>
        <path id="Path_78106" data-name="Path 78106" d="M131.665,471.117,128.1,493.589a135.74,135.74,0,0,0-.825,36.481L141.13,654.607h22.587l-2.151-148.624,24.522-16.994-2.8-19.145Z" transform="translate(-62.912 -233.817)" fill="#003c8a"/>
        <path id="Path_78107" data-name="Path 78107" d="M121.138,403.2s-3.872-2.788-.968-7.628a3.093,3.093,0,0,0,.258-.581c.7-2,.787-6.647.568-12.171-.529-13.075-2.762-31.131-2.762-31.131l5.485-24.523,11.4-10.867,27.968-.219,13.978,18.715,3.666,43.031a48.164,48.164,0,0,0,4.078,14.4c6.3,13.372-58.3,16.108-63.668,10.971" transform="translate(-58.839 -157.295)" fill="#c9d8f1"/>
        <path id="Path_78108" data-name="Path 78108" d="M221.857,401.268l-32.387,4.556.28-45.007,32.387-4.556Z" transform="translate(-94.289 -177.293)" fill="#f4f2f2"/>
        <path id="Path_78109" data-name="Path 78109" d="M201.727,378.719l-.191-1.427,22.075-3.135.191,1.427Z" transform="translate(-100.294 -186.199)" fill="#5479bb"/>
        <path id="Path_78110" data-name="Path 78110" d="M201.671,390.911l-.191-1.427,22.075-3.135.191,1.427Z" transform="translate(-100.266 -192.266)" fill="#5479bb"/>
        <path id="Path_78111" data-name="Path 78111" d="M201.96,403.822l-.191-1.427,22.075-3.135.191,1.427Z" transform="translate(-100.409 -198.691)" fill="#5479bb"/>
        <path id="Path_78112" data-name="Path 78112" d="M201.9,417.806l-.191-1.427,22.075-3.135.191,1.427Z" transform="translate(-100.378 -205.65)" fill="#c8d6ef"/>
        <path id="Path_78113" data-name="Path 78113" d="M201.837,430.714l-.191-1.427,22.075-3.135.191,1.427Z" transform="translate(-100.348 -212.074)" fill="#c8d6ef"/>
        <path id="Path_78114" data-name="Path 78114" d="M164.666,429.772a16.957,16.957,0,0,0,3.818-19.02l-9.142,10.3Z" transform="translate(-79.296 -204.41)" fill="#5c261e"/>
        <g id="Group_39813" data-name="Group 39813" transform="translate(66.248 186.534)" opacity="0.3">
          <g id="Group_39812" data-name="Group 39812">
            <g id="Group_39811" data-name="Group 39811" clip-path="url(#clip-path-4)">
              <path id="Path_78115" data-name="Path 78115" d="M131.875,400.253c1.215-.751,3.916-.058,4.6-1.661,2.7-6.355-.308-20.094-3.551-27.27Z" transform="translate(-131.875 -371.322)" fill="#122559"/>
            </g>
          </g>
        </g>
        <g id="Group_39816" data-name="Group 39816" transform="translate(61.589 225.367)" opacity="0.3">
          <g id="Group_39815" data-name="Group 39815">
            <g id="Group_39814" data-name="Group 39814" clip-path="url(#clip-path-5)">
              <path id="Path_78116" data-name="Path 78116" d="M146.389,448.623s-4.5,10.067-23.787,12.326c.7-2,.787-6.647.568-12.171Z" transform="translate(-122.602 -448.623)" fill="#122559"/>
            </g>
          </g>
        </g>
        <path id="Path_78117" data-name="Path 78117" d="M174.032,407.3l-14.974,5.762.577,13.236,17.982-7.587Z" transform="translate(-79.154 -202.691)" fill="#f7a271"/>
        <path id="Path_78118" data-name="Path 78118" d="M199.844,403.154c-.534.113-1.079.165-1.619.245a1.973,1.973,0,0,1-1.244,3.093c-.122.019-.245.034-.367.053a1.636,1.636,0,0,1-.289,1.563,20.2,20.2,0,0,1-3.527,2.356c-14.138,6.732-16.537-.993-15.854-3.662.53-2.061,2.734-4.438,4.53-6.321,5.741-4.846,9.339-6.885,15.133-7.845,2.329-.387,2.067,1.85.144,3.035a13.352,13.352,0,0,1-2.865,1.341.657.657,0,0,1-.136.118,40.825,40.825,0,0,0-4.361,3.585c1.851-.052,11.787-1.185,12.8.3.355.516-1.014,1.858-2.352,2.142" transform="translate(-88.005 -195.373)" fill="#f7a271"/>
        <rect id="Rectangle_22540" data-name="Rectangle 22540" width="8.145" height="0.717" transform="translate(102.075 208.372) rotate(-4.944)" fill="#db7558"/>
        <rect id="Rectangle_22541" data-name="Rectangle 22541" width="6.575" height="0.717" transform="translate(102.054 211.781) rotate(-8.426)" fill="#db7558"/>
        <path id="Path_78119" data-name="Path 78119" d="M131.433,308.8a49.806,49.806,0,0,0-20.712,6.479,31.032,31.032,0,0,0-15.534,26.2c-.229,9.174-.539,21.564-.784,31.367a12.381,12.381,0,0,0,15.174,12.37l22.771-6.181c-.747-5.919,1.018-12.4,4.195-19.2l-23.555,3.71.592-23.124,21.941-4.3Z" transform="translate(-46.977 -153.676)" fill="#c9d8f1"/>
        <path id="Path_78120" data-name="Path 78120" d="M177.707,283.736v11.6a8.719,8.719,0,0,1-.119,1.453,8.758,8.758,0,0,1-17.444-1.453v-11.6Z" transform="translate(-79.695 -141.201)" fill="#f7a271"/>
        <path id="Path_78121" data-name="Path 78121" d="M181.462,291.951v8.092a7.8,7.8,0,0,1-.116,1.355,14.188,14.188,0,0,1-13.655-8.573Z" transform="translate(-83.451 -145.289)" fill="#121c36"/>
        <path id="Path_78122" data-name="Path 78122" d="M182.323,258.129a11.19,11.19,0,0,1-4.453,8.312c-4.311,3.2-13.784,3.988-22.793-10.725l-.233-20.47,14.3-2.362,11.81,4.969-.387,10a23.159,23.159,0,0,1,1.123,3.433,21.018,21.018,0,0,1,.632,6.841" transform="translate(-77.058 -115.895)" fill="#f7a271"/>
        <path id="Path_78123" data-name="Path 78123" d="M149.782,244.29c-.965-5.76,1.383-10.387,5.537-12.6,6.07,2.1,15.157,2.945,19.683-1.256,4.848-3.634,3.583-16.167-7.189-15.829-3.975.551-5.563,2.68-5.966,5.591-18.109-10.817-31.141,15.076-16.2,23.291Z" transform="translate(-69.238 -106.795)" fill="#121c36"/>
        <path id="Path_78124" data-name="Path 78124" d="M155.01,272.611a4.493,4.493,0,0,1-4.5,4.758c-2.362.119-5.481-2.952-5.633-5.9s1.862-4.364,4.225-4.483,5.758,2.676,5.91,5.628" transform="translate(-72.093 -132.862)" fill="#f7a271"/>
        <path id="Path_78125" data-name="Path 78125" d="M153.851,273.573c-.316-.423-.634-.847-.97-1.222a3.849,3.849,0,0,0-1.08-.895,1.419,1.419,0,0,0-1.162-.072,5.172,5.172,0,0,0-1.252.781l-.3-.236a3,3,0,0,1,1.186-1.314,2.105,2.105,0,0,1,.973-.263,2.16,2.16,0,0,1,.986.243,3.5,3.5,0,0,1,1.306,1.258,4.829,4.829,0,0,1,.659,1.573Z" transform="translate(-74.195 -134.541)" fill="#db7558"/>
        <line id="Line_90" data-name="Line 90" x2="611.112" transform="translate(0 443.824)" fill="none" stroke="#121c36" stroke-miterlimit="10" stroke-width="3.083"/>
      </g>
    </g>
  </g>
</svg>
