<svg xmlns="http://www.w3.org/2000/svg" xmlns:xlink="http://www.w3.org/1999/xlink" width="516.203" height="225.39" viewBox="0 0 516.203 225.39">
  <defs>
    <clipPath id="clip-path">
      <rect id="Rectangle_22514" data-name="Rectangle 22514" width="328.862" height="130.824" fill="none" stroke="#191919" stroke-width="1"/>
    </clipPath>
    <clipPath id="clip-path-2">
      <rect id="Rectangle_22512" data-name="Rectangle 22512" width="170.831" height="94.133" fill="#dadee2" stroke="#fff" stroke-width="1"/>
    </clipPath>
    <clipPath id="clip-path-3">
      <rect id="Rectangle_22512-2" data-name="Rectangle 22512" width="170.831" height="94.133" fill="#191919" stroke="#fff" stroke-width="1"/>
    </clipPath>
  </defs>
  <g id="Group_39807" data-name="Group 39807" transform="translate(-1111.622 -153.753)">
    <g id="Group_39804" data-name="Group 39804" transform="translate(1565.737 214.399)">
      <line id="Line_87" data-name="Line 87" y2="48.918" transform="translate(-95.355 19.977)" fill="none" stroke="#191919" stroke-miterlimit="10" stroke-width="1" stroke-dasharray="13.976 13.976"/>
      <line id="Line_88" data-name="Line 88" x2="53.034" transform="translate(-95.355 81.883)" fill="none" stroke="#191919" stroke-miterlimit="10" stroke-width="1" stroke-dasharray="12.395 12.395"/>
      <line id="Line_89" data-name="Line 89" y1="40.462" x2="0.118" transform="translate(-95.355 41.42)" fill="none" stroke="#191919" stroke-miterlimit="10" stroke-width="1" stroke-dasharray="12.395 12.395"/>
    </g>
    <g id="Group_39800" data-name="Group 39800" transform="translate(1141.52 224.433)">
      <g id="Group_39797" data-name="Group 39797">
        <g id="Group_39796" data-name="Group 39796" clip-path="url(#clip-path)">
          <line id="Line_86" data-name="Line 86" y2="6" transform="translate(273.964 0.001)" fill="none" stroke="#191919" stroke-miterlimit="10" stroke-width="1"/>
        </g>
      </g>
      <line id="Line_87-2" data-name="Line 87" y2="48.918" transform="translate(264.362 19.977)" fill="none" stroke="#191919" stroke-miterlimit="10" stroke-width="1" stroke-dasharray="13.976 13.976"/>
      <path id="Path_78084" data-name="Path 78084" d="M321.882,75.883v6h-6" transform="translate(-57.52)" fill="none" stroke="#191919" stroke-miterlimit="10" stroke-width="1"/>
      <line id="Line_88-2" data-name="Line 88" x1="251.782" transform="translate(12.198 81.883)" fill="none" stroke="#191919" stroke-miterlimit="10" stroke-width="1" stroke-dasharray="12.395 12.395"/>
    </g>
    <g id="Group_39805" data-name="Group 39805" transform="translate(1352.584 163.802)">
      <g id="Group_39793" data-name="Group 39793" clip-path="url(#clip-path-2)">
        <path id="Path_78082" data-name="Path 78082" d="M147.131,43.05A37.912,37.912,0,0,0,74.639,23.175a26.473,26.473,0,0,0-44.1,19.779H25.59a25.589,25.589,0,1,0,0,51.179H145.242a25.576,25.576,0,0,0,1.888-51.083" fill="#dadee2"/>
      </g>
    </g>
    <g id="Group_39794" data-name="Group 39794" transform="translate(1340.584 153.753)">
      <g id="Group_39793-2" data-name="Group 39793" clip-path="url(#clip-path-3)">
        <path id="Path_78082-2" data-name="Path 78082" d="M147.131,43.05A37.912,37.912,0,0,0,74.639,23.175a26.473,26.473,0,0,0-44.1,19.779H25.59a25.589,25.589,0,1,0,0,51.179H145.242a25.576,25.576,0,0,0,1.888-51.083" fill="#036ec1"/>
      </g>
    </g>
    <g id="Group_39795" data-name="Group 39795" transform="translate(1102.279 247.886)">
      <rect id="Rectangle_22513" data-name="Rectangle 22513" width="77.968" height="97.322" transform="translate(18 19)" fill="#dadee2"/>
      <path id="Path_78083" data-name="Path 78083" d="M28.687,91.711H80.945v6.33H28.687Zm0-14.871H80.945v6.33H28.687Zm0-14.871H80.945V68.3H28.687Zm0-14.871H80.945v6.33H28.687ZM40.615,32.227h40.33v6.33H40.615ZM15.107,113.571H93.075V16.249H15.107Z" transform="translate(-5.764 -6.2)" fill="#036ec1"/>
    </g>
    <g id="Group_39806" data-name="Group 39806" transform="translate(1463.264 270.222)">
      <g id="Group_39803" data-name="Group 39803" transform="translate(0.665 0)">
        <path id="Path_78085" data-name="Path 78085" d="M362.38,62.828a44.515,44.515,0,0,0,.888-17.558L365.074,45l3.568-.534.045-.01a49.839,49.839,0,0,0-6.523-18.278l-4.7,2.8a44.532,44.532,0,0,0-11.8-13.029l3.262-4.408a49.626,49.626,0,0,0-17.539-8.327l-1.349,5.321a44.443,44.443,0,0,0-17.558-.888l-.815-5.419a50.157,50.157,0,0,0-18.278,6.523l2.8,4.7a44.534,44.534,0,0,0-13.03,11.8l-4.407-3.262a49.635,49.635,0,0,0-8.327,17.539l5.322,1.349a44.438,44.438,0,0,0-.889,17.558l-3.835.573-1.564.247-.02-.005a50.166,50.166,0,0,0,6.523,18.278l4.7-2.8a44.623,44.623,0,0,0,11.82,13.035l-3.262,4.408a49.531,49.531,0,0,0,17.52,8.322l1.348-5.322a44.551,44.551,0,0,0,17.578.894l.627,4.213.188,1.206a50.074,50.074,0,0,0,18.258-6.528l-2.8-4.7a45.005,45.005,0,0,0,13.055-11.815L359.4,81.7a49.894,49.894,0,0,0,8.3-17.524Zm-49.907,12a24.256,24.256,0,1,1,29.464-17.568A24.254,24.254,0,0,1,312.473,74.823Z" transform="translate(-204.791 -2.226)" fill="#dadee2"/>
        <path id="Path_78086" data-name="Path 78086" d="M46.817,264.783a23.428,23.428,0,0,0-7.076-5.967l.462-.844.913-1.665.01-.022a26.24,26.24,0,0,0-9.74-3.09l-.324,2.861a23.449,23.449,0,0,0-9.221.795l-.808-2.772a26.129,26.129,0,0,0-9.079,4.7l1.8,2.261a23.4,23.4,0,0,0-5.967,7.076l-2.531-1.385a26.408,26.408,0,0,0-3.09,9.74l2.862.324a23.437,23.437,0,0,0,.794,9.221l-2.772.808a26.142,26.142,0,0,0,4.7,9.079l2.261-1.8a23.4,23.4,0,0,0,7.076,5.967l-.982,1.79-.395.734-.009.007a26.41,26.41,0,0,0,9.739,3.09l.324-2.862a23.5,23.5,0,0,0,9.23-.8L35.8,304.8a26.072,26.072,0,0,0,9.07-4.691l-1.8-2.261a23.454,23.454,0,0,0,5.976-7.083l1.966,1.08.565.306a26.361,26.361,0,0,0,3.081-9.733L51.8,282.09a23.7,23.7,0,0,0-.793-9.236l2.772-.808a26.266,26.266,0,0,0-4.7-9.064ZM36.374,289.435A12.771,12.771,0,1,1,38.4,271.488,12.77,12.77,0,0,1,36.374,289.435Z" transform="translate(-2.167 -196.767)" fill="#dadee2"/>
      </g>
    </g>
    <g id="Group_39802" data-name="Group 39802" transform="translate(1456.264 263.222)">
      <g id="Group_39803-2" data-name="Group 39803" transform="translate(0.665 0)">
        <path id="Path_78085-2" data-name="Path 78085" d="M362.38,62.828a44.515,44.515,0,0,0,.888-17.558L365.074,45l3.568-.534.045-.01a49.839,49.839,0,0,0-6.523-18.278l-4.7,2.8a44.532,44.532,0,0,0-11.8-13.029l3.262-4.408a49.626,49.626,0,0,0-17.539-8.327l-1.349,5.321a44.443,44.443,0,0,0-17.558-.888l-.815-5.419a50.157,50.157,0,0,0-18.278,6.523l2.8,4.7a44.534,44.534,0,0,0-13.03,11.8l-4.407-3.262a49.635,49.635,0,0,0-8.327,17.539l5.322,1.349a44.438,44.438,0,0,0-.889,17.558l-3.835.573-1.564.247-.02-.005a50.166,50.166,0,0,0,6.523,18.278l4.7-2.8a44.623,44.623,0,0,0,11.82,13.035l-3.262,4.408a49.531,49.531,0,0,0,17.52,8.322l1.348-5.322a44.551,44.551,0,0,0,17.578.894l.627,4.213.188,1.206a50.074,50.074,0,0,0,18.258-6.528l-2.8-4.7a45.005,45.005,0,0,0,13.055-11.815L359.4,81.7a49.894,49.894,0,0,0,8.3-17.524Zm-49.907,12a24.256,24.256,0,1,1,29.464-17.568A24.254,24.254,0,0,1,312.473,74.823Z" transform="translate(-204.791 -2.226)" fill="#036ec1"/>
        <path id="Path_78086-2" data-name="Path 78086" d="M46.817,264.783a23.428,23.428,0,0,0-7.076-5.967l.462-.844.913-1.665.01-.022a26.24,26.24,0,0,0-9.74-3.09l-.324,2.861a23.449,23.449,0,0,0-9.221.795l-.808-2.772a26.129,26.129,0,0,0-9.079,4.7l1.8,2.261a23.4,23.4,0,0,0-5.967,7.076l-2.531-1.385a26.408,26.408,0,0,0-3.09,9.74l2.862.324a23.437,23.437,0,0,0,.794,9.221l-2.772.808a26.142,26.142,0,0,0,4.7,9.079l2.261-1.8a23.4,23.4,0,0,0,7.076,5.967l-.982,1.79-.395.734-.009.007a26.41,26.41,0,0,0,9.739,3.09l.324-2.862a23.5,23.5,0,0,0,9.23-.8L35.8,304.8a26.072,26.072,0,0,0,9.07-4.691l-1.8-2.261a23.454,23.454,0,0,0,5.976-7.083l1.966,1.08.565.306a26.361,26.361,0,0,0,3.081-9.733L51.8,282.09a23.7,23.7,0,0,0-.793-9.236l2.772-.808a26.266,26.266,0,0,0-4.7-9.064ZM36.374,289.435A12.771,12.771,0,1,1,38.4,271.488,12.77,12.77,0,0,1,36.374,289.435Z" transform="translate(-2.167 -196.767)" fill="#036ec1"/>
      </g>
    </g>
    <path id="Icon_awesome-database" data-name="Icon awesome-database" d="M41.138,6.716v4.2c0,3.7-9.213,6.716-20.569,6.716S0,14.613,0,10.914v-4.2C0,3.017,9.213,0,20.569,0S41.138,3.017,41.138,6.716Zm0,9.445v9.445c0,3.7-9.213,6.716-20.569,6.716S0,29.305,0,25.606V16.161c4.419,3.043,12.507,4.46,20.569,4.46S36.719,19.2,41.138,16.161Zm0,14.692V40.3c0,3.7-9.213,6.716-20.569,6.716S0,44,0,40.3V30.853c4.419,3.043,12.507,4.46,20.569,4.46S36.719,33.9,41.138,30.853Z" transform="translate(1409.181 187.361)" fill="#fff"/>
  </g>
</svg>
