<svg width="10" height="11" viewBox="0 0 10 11" fill="none" xmlns="http://www.w3.org/2000/svg">
<g clip-path="url(#clip0_98_2)">
<path d="M5.14 0C5.29 0.01 5.43 0.03 5.58 0.04C6.47 0.13 7.33 0.31 8.13 0.72C8.47 0.9 8.79 1.11 9.02 1.42C9.2 1.66 9.31 1.92 9.31 2.23C9.31 4.36 9.31 6.49 9.31 8.62C9.31 9.02 9.13 9.34 8.86 9.62C8.48 10 8 10.24 7.5 10.42C6.43 10.8 5.32 10.91 4.19 10.86C3.28 10.82 2.38 10.67 1.54 10.31C1.17 10.16 0.83 9.96 0.53 9.69C0.18 9.37 0 8.99 0 8.5C0.01 6.47 0.01 4.43 0 2.39C0 1.81 0.25 1.39 0.68 1.05C1.26 0.61 1.93 0.38 2.63 0.22C3.11 0.11 3.6 0.04 4.1 0.02C4.13 0.02 4.16 0.01 4.19 0C4.51 0 4.83 0 5.14 0ZM4.65 0.42C4.2 0.46 3.76 0.48 3.32 0.54C2.65 0.63 2.01 0.8 1.4 1.11C1.11 1.26 0.84 1.44 0.64 1.71C0.42 1.99 0.4 2.29 0.57 2.6C0.71 2.85 0.93 3.03 1.17 3.18C1.84 3.59 2.58 3.78 3.35 3.89C4 3.99 4.65 4 5.3 3.96C6.11 3.91 6.91 3.76 7.66 3.43C8.05 3.26 8.41 3.05 8.68 2.72C8.93 2.4 8.93 2.01 8.68 1.7C8.41 1.36 8.04 1.14 7.64 0.98C6.68 0.58 5.68 0.45 4.65 0.42ZM0.46 5.42C0.46 5.42 0.46 5.47 0.46 5.48C0.46 5.84 0.46 6.21 0.46 6.57C0.46 6.89 0.6 7.13 0.82 7.34C1.16 7.66 1.58 7.86 2.02 8.01C2.71 8.25 3.41 8.37 4.14 8.4C5.23 8.46 6.31 8.36 7.35 8C7.8 7.85 8.22 7.64 8.56 7.31C8.74 7.13 8.88 6.92 8.89 6.65C8.89 6.25 8.89 5.86 8.89 5.46C8.89 5.45 8.89 5.43 8.87 5.41C8.56 5.71 8.2 5.92 7.82 6.08C6.92 6.46 5.97 6.61 5.01 6.64C4.36 6.66 3.71 6.63 3.07 6.51C2.13 6.34 1.23 6.07 0.47 5.41L0.46 5.42ZM0.46 3.2C0.46 3.2 0.46 3.24 0.46 3.25C0.46 3.62 0.46 3.99 0.46 4.35C0.46 4.66 0.58 4.91 0.81 5.11C0.99 5.26 1.18 5.41 1.39 5.52C2.15 5.93 2.99 6.09 3.84 6.17C4.46 6.23 5.07 6.22 5.69 6.15C6.39 6.08 7.07 5.93 7.72 5.64C8.03 5.5 8.32 5.34 8.56 5.1C8.75 4.91 8.89 4.7 8.89 4.42C8.89 4.18 8.89 3.94 8.89 3.71C8.89 3.55 8.89 3.38 8.89 3.2C8.85 3.23 8.83 3.25 8.81 3.26C8.58 3.42 8.37 3.6 8.12 3.72C7.33 4.13 6.47 4.31 5.6 4.39C4.61 4.48 3.63 4.44 2.66 4.22C1.96 4.06 1.28 3.83 0.7 3.39C0.62 3.33 0.55 3.27 0.47 3.2H0.46ZM8.87 7.64C8.87 7.64 8.84 7.65 8.84 7.66C8.45 8.03 7.98 8.26 7.48 8.43C6.8 8.67 6.1 8.79 5.39 8.84C4.18 8.92 3 8.82 1.85 8.42C1.36 8.25 0.91 8.02 0.52 7.67C0.51 7.66 0.49 7.65 0.46 7.63C0.46 7.94 0.46 8.24 0.46 8.53C0.46 8.85 0.58 9.1 0.8 9.31C1.14 9.64 1.57 9.84 2.01 10C2.67 10.23 3.36 10.35 4.06 10.39C5.03 10.45 5.99 10.39 6.93 10.12C7.45 9.98 7.96 9.78 8.39 9.44C8.62 9.26 8.84 9.05 8.87 8.74C8.9 8.37 8.87 8 8.87 7.62V7.64Z" fill="white"/>
</g>
<defs>
<clipPath id="clip0_98_2">
<rect width="9.32" height="10.87" fill="white"/>
</clipPath>
</defs>
</svg>
